<svg width="103" height="36" viewBox="0 0 103 36" fill="none" xmlns="http://www.w3.org/2000/svg">
<rect width="103" height="36" rx="4" fill="#0D1117"/>
<path d="M13.25 8H30.75L29.1583 25.9692L21.9808 28L14.8433 25.9683L13.25 8ZM27.4917 11.6775L16.5083 11.675L16.6858 13.86L25.1233 13.8617L24.9108 16.125H19.3775L19.5775 18.2692H24.7292L24.4242 21.205L21.9992 21.875L19.5358 21.2L19.3792 19.4417H17.2042L17.4458 22.6542L22 24.0733L26.4775 22.7983L27.4917 11.6783V11.6775Z" fill="#1572B6"/>
<path d="M44.998 17.718C44.998 16.494 45.28 15.396 45.844 14.424C46.42 13.452 47.194 12.696 48.166 12.156C49.15 11.604 50.224 11.328 51.388 11.328C52.72 11.328 53.902 11.658 54.934 12.318C55.978 12.966 56.734 13.89 57.202 15.09H54.736C54.412 14.43 53.962 13.938 53.386 13.614C52.81 13.29 52.144 13.128 51.388 13.128C50.56 13.128 49.822 13.314 49.174 13.686C48.526 14.058 48.016 14.592 47.644 15.288C47.284 15.984 47.104 16.794 47.104 17.718C47.104 18.642 47.284 19.452 47.644 20.148C48.016 20.844 48.526 21.384 49.174 21.768C49.822 22.14 50.56 22.326 51.388 22.326C52.144 22.326 52.81 22.164 53.386 21.84C53.962 21.516 54.412 21.024 54.736 20.364H57.202C56.734 21.564 55.978 22.488 54.934 23.136C53.902 23.784 52.72 24.108 51.388 24.108C50.212 24.108 49.138 23.838 48.166 23.298C47.194 22.746 46.42 21.984 45.844 21.012C45.28 20.04 44.998 18.942 44.998 17.718ZM63.7259 24.126C62.8859 24.126 62.1299 23.982 61.4579 23.694C60.7859 23.394 60.2579 22.974 59.8739 22.434C59.4899 21.894 59.2979 21.264 59.2979 20.544H61.4939C61.5419 21.084 61.7519 21.528 62.1239 21.876C62.5079 22.224 63.0419 22.398 63.7259 22.398C64.4339 22.398 64.9859 22.23 65.3819 21.894C65.7779 21.546 65.9759 21.102 65.9759 20.562C65.9759 20.142 65.8499 19.8 65.5979 19.536C65.3579 19.272 65.0519 19.068 64.6799 18.924C64.3199 18.78 63.8159 18.624 63.1679 18.456C62.3519 18.24 61.6859 18.024 61.1699 17.808C60.6659 17.58 60.2339 17.232 59.8739 16.764C59.5139 16.296 59.3339 15.672 59.3339 14.892C59.3339 14.172 59.5139 13.542 59.8739 13.002C60.2339 12.462 60.7379 12.048 61.3859 11.76C62.0339 11.472 62.7839 11.328 63.6359 11.328C64.8479 11.328 65.8379 11.634 66.6059 12.246C67.3859 12.846 67.8179 13.674 67.9019 14.73H65.6339C65.5979 14.274 65.3819 13.884 64.9859 13.56C64.5899 13.236 64.0679 13.074 63.4199 13.074C62.8319 13.074 62.3519 13.224 61.9799 13.524C61.6079 13.824 61.4219 14.256 61.4219 14.82C61.4219 15.204 61.5359 15.522 61.7639 15.774C62.0039 16.014 62.3039 16.206 62.6639 16.35C63.0239 16.494 63.5159 16.65 64.1399 16.818C64.9679 17.046 65.6399 17.274 66.1559 17.502C66.6839 17.73 67.1279 18.084 67.4879 18.564C67.8599 19.032 68.0459 19.662 68.0459 20.454C68.0459 21.09 67.8719 21.69 67.5239 22.254C67.1879 22.818 66.6899 23.274 66.0299 23.622C65.3819 23.958 64.6139 24.126 63.7259 24.126ZM74.5892 24.126C73.7492 24.126 72.9932 23.982 72.3212 23.694C71.6492 23.394 71.1212 22.974 70.7372 22.434C70.3532 21.894 70.1612 21.264 70.1612 20.544H72.3572C72.4052 21.084 72.6152 21.528 72.9872 21.876C73.3712 22.224 73.9052 22.398 74.5892 22.398C75.2972 22.398 75.8492 22.23 76.2452 21.894C76.6412 21.546 76.8392 21.102 76.8392 20.562C76.8392 20.142 76.7132 19.8 76.4612 19.536C76.2212 19.272 75.9152 19.068 75.5432 18.924C75.1832 18.78 74.6792 18.624 74.0312 18.456C73.2152 18.24 72.5492 18.024 72.0332 17.808C71.5292 17.58 71.0972 17.232 70.7372 16.764C70.3772 16.296 70.1972 15.672 70.1972 14.892C70.1972 14.172 70.3772 13.542 70.7372 13.002C71.0972 12.462 71.6012 12.048 72.2492 11.76C72.8972 11.472 73.6472 11.328 74.4992 11.328C75.7112 11.328 76.7012 11.634 77.4692 12.246C78.2492 12.846 78.6812 13.674 78.7652 14.73H76.4972C76.4612 14.274 76.2452 13.884 75.8492 13.56C75.4532 13.236 74.9312 13.074 74.2832 13.074C73.6952 13.074 73.2152 13.224 72.8432 13.524C72.4712 13.824 72.2852 14.256 72.2852 14.82C72.2852 15.204 72.3992 15.522 72.6272 15.774C72.8672 16.014 73.1672 16.206 73.5272 16.35C73.8872 16.494 74.3792 16.65 75.0032 16.818C75.8312 17.046 76.5032 17.274 77.0192 17.502C77.5472 17.73 77.9912 18.084 78.3512 18.564C78.7232 19.032 78.9092 19.662 78.9092 20.454C78.9092 21.09 78.7352 21.69 78.3872 22.254C78.0512 22.818 77.5532 23.274 76.8932 23.622C76.2452 23.958 75.4772 24.126 74.5892 24.126ZM81.0245 14.118C81.0965 13.002 81.5225 12.132 82.3025 11.508C83.0945 10.884 84.1025 10.572 85.3265 10.572C86.1665 10.572 86.8925 10.722 87.5045 11.022C88.1165 11.322 88.5785 11.73 88.8905 12.246C89.2025 12.762 89.3585 13.344 89.3585 13.992C89.3585 14.736 89.1605 15.372 88.7645 15.9C88.3685 16.428 87.8945 16.782 87.3425 16.962V17.034C88.0505 17.25 88.6025 17.646 88.9985 18.222C89.3945 18.786 89.5925 19.512 89.5925 20.4C89.5925 21.108 89.4305 21.738 89.1065 22.29C88.7825 22.842 88.3025 23.28 87.6665 23.604C87.0305 23.916 86.2685 24.072 85.3805 24.072C84.0845 24.072 83.0165 23.742 82.1765 23.082C81.3485 22.41 80.9045 21.45 80.8445 20.202H82.8245C82.8725 20.838 83.1185 21.36 83.5625 21.768C84.0065 22.164 84.6065 22.362 85.3625 22.362C86.0945 22.362 86.6585 22.164 87.0545 21.768C87.4505 21.36 87.6485 20.838 87.6485 20.202C87.6485 19.362 87.3785 18.768 86.8385 18.42C86.3105 18.06 85.4945 17.88 84.3905 17.88H83.9225V16.188H84.4085C85.3805 16.176 86.1185 16.014 86.6225 15.702C87.1385 15.39 87.3965 14.898 87.3965 14.226C87.3965 13.65 87.2105 13.194 86.8385 12.858C86.4665 12.51 85.9385 12.336 85.2545 12.336C84.5825 12.336 84.0605 12.51 83.6885 12.858C83.3165 13.194 83.0945 13.614 83.0225 14.118H81.0245Z" fill="#F5F5F5"/>
</svg>
