<svg width="101" height="36" viewBox="0 0 101 36" fill="none" xmlns="http://www.w3.org/2000/svg">
<rect x="1.5" y="1" width="98" height="34" rx="3" fill="#0D1117"/>
<path d="M13.75 8H31.25L29.6583 25.9692L22.4808 28L15.3433 25.9683L13.75 8ZM27.9917 11.6775L17.0083 11.675L17.1858 13.86L25.6233 13.8617L25.4108 16.125H19.8775L20.0775 18.2692H25.2292L24.9242 21.205L22.4992 21.875L20.0358 21.2L19.8792 19.4417H17.7042L17.9458 22.6542L22.5 24.0733L26.9775 22.7983L27.9917 11.6783V11.6775Z" fill="#1572B6"/>
<path d="M51.3581 11.328C52.1741 11.328 52.8701 11.43 53.4461 11.634C54.0221 11.838 54.5741 12.156 55.1021 12.588L54.0221 13.884C53.2661 13.272 52.4081 12.966 51.4481 12.966C50.4401 12.966 49.6181 13.356 48.9821 14.136C48.3461 14.904 48.0281 16.116 48.0281 17.772C48.0281 19.404 48.3401 20.61 48.9641 21.39C49.5881 22.158 50.4221 22.542 51.4661 22.542C52.0661 22.542 52.5761 22.452 52.9961 22.272C53.4281 22.08 53.8541 21.816 54.2741 21.48L55.2821 22.758C54.2741 23.742 52.9781 24.234 51.3941 24.234C50.3261 24.234 49.3721 23.988 48.5321 23.496C47.6921 22.992 47.0321 22.254 46.5521 21.282C46.0841 20.31 45.8501 19.14 45.8501 17.772C45.8501 16.428 46.0901 15.27 46.5701 14.298C47.0621 13.326 47.7281 12.588 48.5681 12.084C49.4081 11.58 50.3381 11.328 51.3581 11.328ZM65.589 20.49C65.589 21.234 65.397 21.888 65.013 22.452C64.641 23.016 64.095 23.454 63.375 23.766C62.667 24.078 61.821 24.234 60.837 24.234C58.917 24.234 57.393 23.682 56.265 22.578L57.417 21.3C58.353 22.164 59.493 22.596 60.837 22.596C61.581 22.596 62.193 22.422 62.673 22.074C63.165 21.726 63.411 21.234 63.411 20.598C63.411 20.226 63.333 19.914 63.177 19.662C63.033 19.41 62.781 19.188 62.421 18.996C62.061 18.792 61.545 18.588 60.873 18.384C59.493 17.976 58.479 17.49 57.831 16.926C57.183 16.362 56.859 15.618 56.859 14.694C56.859 14.034 57.039 13.452 57.399 12.948C57.771 12.432 58.281 12.036 58.929 11.76C59.577 11.472 60.309 11.328 61.125 11.328C62.793 11.328 64.179 11.826 65.283 12.822L64.185 14.064C63.333 13.332 62.355 12.966 61.251 12.966C60.579 12.966 60.033 13.104 59.613 13.38C59.205 13.656 59.001 14.052 59.001 14.568C59.001 14.892 59.085 15.168 59.253 15.396C59.433 15.624 59.727 15.834 60.135 16.026C60.555 16.206 61.143 16.41 61.899 16.638C63.099 16.998 64.011 17.46 64.635 18.024C65.271 18.588 65.589 19.41 65.589 20.49ZM76.382 20.49C76.382 21.234 76.19 21.888 75.806 22.452C75.434 23.016 74.888 23.454 74.168 23.766C73.46 24.078 72.614 24.234 71.63 24.234C69.71 24.234 68.186 23.682 67.058 22.578L68.21 21.3C69.146 22.164 70.286 22.596 71.63 22.596C72.374 22.596 72.986 22.422 73.466 22.074C73.958 21.726 74.204 21.234 74.204 20.598C74.204 20.226 74.126 19.914 73.97 19.662C73.826 19.41 73.574 19.188 73.214 18.996C72.854 18.792 72.338 18.588 71.666 18.384C70.286 17.976 69.272 17.49 68.624 16.926C67.976 16.362 67.652 15.618 67.652 14.694C67.652 14.034 67.832 13.452 68.192 12.948C68.564 12.432 69.074 12.036 69.722 11.76C70.37 11.472 71.102 11.328 71.918 11.328C73.586 11.328 74.972 11.826 76.076 12.822L74.978 14.064C74.126 13.332 73.148 12.966 72.044 12.966C71.372 12.966 70.826 13.104 70.406 13.38C69.998 13.656 69.794 14.052 69.794 14.568C69.794 14.892 69.878 15.168 70.046 15.396C70.226 15.624 70.52 15.834 70.928 16.026C71.348 16.206 71.936 16.41 72.692 16.638C73.892 16.998 74.804 17.46 75.428 18.024C76.064 18.588 76.382 19.41 76.382 20.49ZM82.153 11.328C82.957 11.328 83.659 11.472 84.259 11.76C84.859 12.036 85.321 12.414 85.645 12.894C85.969 13.374 86.131 13.902 86.131 14.478C86.131 15.222 85.897 15.852 85.429 16.368C84.973 16.884 84.385 17.226 83.665 17.394C84.505 17.478 85.189 17.778 85.717 18.294C86.257 18.81 86.527 19.53 86.527 20.454C86.527 21.162 86.341 21.804 85.969 22.38C85.597 22.956 85.069 23.412 84.385 23.748C83.701 24.072 82.915 24.234 82.027 24.234C81.223 24.234 80.467 24.09 79.759 23.802C79.051 23.502 78.463 23.07 77.995 22.506L79.237 21.426C79.573 21.834 79.975 22.14 80.443 22.344C80.911 22.548 81.403 22.65 81.919 22.65C82.699 22.65 83.311 22.446 83.755 22.038C84.211 21.63 84.439 21.078 84.439 20.382C84.439 18.93 83.635 18.204 82.027 18.204H80.965L81.199 16.728H81.955C82.579 16.728 83.095 16.56 83.503 16.224C83.923 15.888 84.133 15.402 84.133 14.766C84.133 14.178 83.935 13.722 83.539 13.398C83.143 13.062 82.627 12.894 81.991 12.894C81.487 12.894 81.031 12.984 80.623 13.164C80.215 13.344 79.813 13.626 79.417 14.01L78.355 12.858C79.411 11.838 80.677 11.328 82.153 11.328Z" fill="#F5F5F5"/>
<rect x="1.5" y="1" width="98" height="34" rx="3" stroke="#484848" stroke-width="2"/>
</svg>
