<svg width="110" height="36" viewBox="0 0 110 36" fill="none" xmlns="http://www.w3.org/2000/svg">
<rect x="1" y="1" width="108" height="34" rx="3" fill="#0D1117"/>
<path d="M25.21 15.4842H21.3867V8H25.21C27.2733 8 28.9517 9.67833 28.9517 11.7417C28.9517 13.805 27.2733 15.4842 25.21 15.4842V15.4842ZM22.6125 14.2583H25.21C26.5975 14.2583 27.7258 13.1292 27.7258 11.7425C27.7258 10.3558 26.5967 9.22667 25.21 9.22667H22.6125V14.2583V14.2583ZM22.6125 15.4842H18.79C16.7267 15.4842 15.0483 13.8058 15.0483 11.7425C15.0483 9.67917 16.7267 8 18.79 8H22.6133V15.4842H22.6125ZM18.79 9.22583C17.4025 9.22583 16.2742 10.355 16.2742 11.7417C16.2742 13.1283 17.4025 14.2583 18.79 14.2583H21.3875V9.22583H18.79ZM22.6125 21.7417H18.79C16.7267 21.7417 15.0483 20.0633 15.0483 18C15.0483 15.9367 16.7267 14.2583 18.79 14.2583H22.6133V21.7417H22.6125ZM18.79 15.4842C17.4025 15.4842 16.2742 16.6133 16.2742 18C16.2742 19.3867 17.4033 20.5158 18.79 20.5158H21.3875V15.4842H18.79ZM18.81 28C16.7358 28 15.0475 26.3217 15.0475 24.2583C15.0475 22.195 16.7258 20.5167 18.7892 20.5167H22.6125V24.2175C22.6125 26.3033 20.9067 28 18.81 28V28ZM18.79 21.7417C18.123 21.7425 17.4836 22.0079 17.012 22.4795C16.5404 22.9511 16.275 23.5905 16.2742 24.2575C16.2742 25.645 17.4117 26.7733 18.8108 26.7733C20.2317 26.7733 21.3883 25.6267 21.3883 24.2167V21.7417H18.79V21.7417ZM25.21 21.7417H25.1283C23.065 21.7417 21.3867 20.0633 21.3867 18C21.3867 15.9367 23.065 14.2583 25.1283 14.2583H25.21C27.2733 14.2583 28.9517 15.9367 28.9517 18C28.9517 20.0633 27.2733 21.7417 25.21 21.7417V21.7417ZM25.1292 15.4842C23.7417 15.4842 22.6133 16.6133 22.6133 18C22.6133 19.3867 23.7425 20.5158 25.1292 20.5158H25.2108C26.5983 20.5158 27.7267 19.3867 27.7267 18C27.7267 16.6133 26.5975 15.4842 25.2108 15.4842H25.1292V15.4842Z" fill="#F24E1E"/>
<path d="M48.3916 17.124H53.0716V18.708H48.3916V24H46.3036V11.58H53.9356L53.7196 13.164H48.3916V17.124ZM60.2105 9.834C60.5945 9.834 60.9065 9.96 61.1465 10.212C61.3985 10.452 61.5245 10.752 61.5245 11.112C61.5245 11.472 61.3985 11.772 61.1465 12.012C60.9065 12.252 60.5945 12.372 60.2105 12.372C59.8145 12.372 59.4965 12.252 59.2565 12.012C59.0165 11.772 58.8965 11.472 58.8965 11.112C58.8965 10.74 59.0165 10.434 59.2565 10.194C59.5085 9.954 59.8265 9.834 60.2105 9.834ZM61.5965 22.524H64.1885V24H56.7545V22.524H59.5805V15.972H56.8445V14.496H61.5965V22.524ZM75.7375 14.964C75.3895 15.084 74.9935 15.168 74.5495 15.216C74.1175 15.252 73.5955 15.27 72.9835 15.27C73.5595 15.534 73.9915 15.864 74.2795 16.26C74.5675 16.656 74.7115 17.136 74.7115 17.7C74.7115 18.324 74.5555 18.876 74.2435 19.356C73.9435 19.836 73.5115 20.214 72.9475 20.49C72.3835 20.766 71.7175 20.904 70.9495 20.904C70.4095 20.904 69.9775 20.85 69.6535 20.742C69.5215 20.838 69.4195 20.958 69.3475 21.102C69.2755 21.234 69.2395 21.378 69.2395 21.534C69.2395 22.014 69.6295 22.254 70.4095 22.254H72.0655C72.7375 22.254 73.3375 22.368 73.8655 22.596C74.3935 22.824 74.8015 23.142 75.0895 23.55C75.3895 23.946 75.5395 24.396 75.5395 24.9C75.5395 25.848 75.1315 26.58 74.3155 27.096C73.4995 27.624 72.3235 27.888 70.7875 27.888C69.7195 27.888 68.8735 27.774 68.2495 27.546C67.6375 27.33 67.1995 27.006 66.9355 26.574C66.6835 26.154 66.5575 25.608 66.5575 24.936H68.3575C68.3575 25.296 68.4235 25.578 68.5555 25.782C68.6995 25.998 68.9455 26.154 69.2935 26.25C69.6415 26.358 70.1455 26.412 70.8055 26.412C71.7655 26.412 72.4555 26.292 72.8755 26.052C73.2955 25.824 73.5055 25.482 73.5055 25.026C73.5055 24.642 73.3375 24.342 73.0015 24.126C72.6775 23.922 72.2335 23.82 71.6695 23.82H70.0315C69.1795 23.82 68.5315 23.646 68.0875 23.298C67.6555 22.95 67.4395 22.512 67.4395 21.984C67.4395 21.66 67.5295 21.348 67.7095 21.048C67.8895 20.748 68.1475 20.49 68.4835 20.274C67.9195 19.974 67.5055 19.614 67.2415 19.194C66.9895 18.762 66.8635 18.234 66.8635 17.61C66.8635 16.95 67.0315 16.368 67.3675 15.864C67.7035 15.348 68.1715 14.952 68.7715 14.676C69.3715 14.388 70.0555 14.244 70.8235 14.244C71.8555 14.256 72.6715 14.184 73.2715 14.028C73.8835 13.872 74.5315 13.626 75.2155 13.29L75.7375 14.964ZM70.8415 15.648C70.2055 15.648 69.7255 15.828 69.4015 16.188C69.0775 16.536 68.9155 17.01 68.9155 17.61C68.9155 18.222 69.0775 18.708 69.4015 19.068C69.7375 19.416 70.2235 19.59 70.8595 19.59C71.4595 19.59 71.9155 19.416 72.2275 19.068C72.5395 18.72 72.6955 18.222 72.6955 17.574C72.6955 16.29 72.0775 15.648 70.8415 15.648ZM84.5505 14.244C85.1385 14.244 85.6005 14.448 85.9365 14.856C86.2725 15.264 86.4405 15.96 86.4405 16.944V24H84.6585V17.214C84.6585 16.686 84.6165 16.32 84.5325 16.116C84.4605 15.912 84.2925 15.81 84.0285 15.81C83.5245 15.81 83.0565 16.128 82.6245 16.764V24H80.9865V17.214C80.9865 16.686 80.9445 16.32 80.8605 16.116C80.7885 15.912 80.6205 15.81 80.3565 15.81C79.8525 15.81 79.3845 16.128 78.9525 16.764V24H77.1525V14.496H78.6645L78.8085 15.522C79.1085 15.102 79.4145 14.784 79.7265 14.568C80.0385 14.352 80.4105 14.244 80.8425 14.244C81.6825 14.244 82.2225 14.646 82.4625 15.45C82.7505 15.066 83.0625 14.772 83.3985 14.568C83.7345 14.352 84.1185 14.244 84.5505 14.244ZM96.0635 21.678C96.0635 22.038 96.1175 22.308 96.2255 22.488C96.3335 22.656 96.5195 22.782 96.7835 22.866L96.3155 24.234C95.3195 24.114 94.6655 23.676 94.3535 22.92C94.0055 23.352 93.5675 23.682 93.0395 23.91C92.5235 24.126 91.9535 24.234 91.3295 24.234C90.3695 24.234 89.6075 23.964 89.0435 23.424C88.4795 22.884 88.1975 22.17 88.1975 21.282C88.1975 20.286 88.5875 19.518 89.3675 18.978C90.1595 18.438 91.2755 18.168 92.7155 18.168H94.0655V17.556C94.0655 16.956 93.8855 16.518 93.5255 16.242C93.1655 15.966 92.6435 15.828 91.9595 15.828C91.6235 15.828 91.2335 15.87 90.7895 15.954C90.3455 16.038 89.8955 16.158 89.4395 16.314L88.9355 14.892C90.0755 14.46 91.1855 14.244 92.2655 14.244C93.5255 14.244 94.4735 14.52 95.1095 15.072C95.7455 15.624 96.0635 16.41 96.0635 17.43V21.678ZM91.9235 22.758C92.3435 22.758 92.7455 22.65 93.1295 22.434C93.5255 22.218 93.8375 21.918 94.0655 21.534V19.428H92.9495C92.0375 19.428 91.3715 19.584 90.9515 19.896C90.5315 20.196 90.3215 20.634 90.3215 21.21C90.3215 21.714 90.4535 22.098 90.7175 22.362C90.9935 22.626 91.3955 22.758 91.9235 22.758Z" fill="#F5F5F5"/>
<rect x="1" y="1" width="108" height="34" rx="3" stroke="#484848" stroke-width="2"/>
</svg>
