<svg width="144" height="36" viewBox="0 0 144 36" fill="none" xmlns="http://www.w3.org/2000/svg">
<rect x="1.5" y="1" width="141" height="34" rx="3" fill="#0D1117"/>
<g clip-path="url(#clip0)">
<path d="M15.7416 21.06L17.7125 8.38415C17.7266 8.29013 17.7701 8.20296 17.8366 8.13507C17.9032 8.06718 17.9895 8.02203 18.0832 8.00606C18.177 7.99008 18.2733 8.00409 18.3586 8.0461C18.4439 8.0881 18.5138 8.15595 18.5583 8.23999L20.6775 12.2158L15.7416 21.06ZM29.7366 24.1367L27.8616 12.47C27.8488 12.3875 27.8133 12.3103 27.759 12.2469C27.7048 12.1834 27.634 12.1364 27.5545 12.1108C27.4751 12.0853 27.3901 12.0824 27.3091 12.1024C27.2281 12.1225 27.1542 12.1646 27.0958 12.2242L15.2633 24.1375L21.81 27.8267C22.012 27.9402 22.2399 27.9998 22.4716 27.9998C22.7034 27.9998 22.9313 27.9402 23.1333 27.8267L29.7366 24.1367ZM24.4166 13.9558L22.9 11.0542C22.8617 10.9812 22.8042 10.9201 22.7337 10.8774C22.6632 10.8348 22.5824 10.8123 22.5 10.8123C22.4176 10.8123 22.3367 10.8348 22.2662 10.8774C22.1957 10.9201 22.1382 10.9812 22.1 11.0542L15.4416 22.9867L24.4166 13.9558Z" fill="#FFCA28"/>
</g>
<path d="M49.2021 17.124H53.8821V18.708H49.2021V24H47.1141V11.58H54.7461L54.5301 13.164H49.2021V17.124ZM61.0211 9.834C61.4051 9.834 61.7171 9.96 61.9571 10.212C62.2091 10.452 62.3351 10.752 62.3351 11.112C62.3351 11.472 62.2091 11.772 61.9571 12.012C61.7171 12.252 61.4051 12.372 61.0211 12.372C60.6251 12.372 60.3071 12.252 60.0671 12.012C59.8271 11.772 59.7071 11.472 59.7071 11.112C59.7071 10.74 59.8271 10.434 60.0671 10.194C60.3191 9.954 60.6371 9.834 61.0211 9.834ZM62.4071 22.524H64.9991V24H57.5651V22.524H60.3911V15.972H57.6551V14.496H62.4071V22.524ZM74.7481 14.262C75.2401 14.262 75.7201 14.34 76.1881 14.496L75.8461 18.006H74.4061V16.062C73.7461 16.074 73.1701 16.338 72.6781 16.854C72.1981 17.37 71.8141 18.096 71.5261 19.032V22.56H73.4341V24H68.1061V22.56H69.5101V15.936H68.1061V14.496H71.0401L71.4001 16.692C71.7721 15.876 72.2221 15.27 72.7501 14.874C73.2901 14.466 73.9561 14.262 74.7481 14.262ZM80.483 19.896C80.543 20.82 80.807 21.516 81.275 21.984C81.755 22.44 82.355 22.668 83.075 22.668C83.519 22.668 83.939 22.602 84.335 22.47C84.743 22.326 85.157 22.116 85.577 21.84L86.441 23.064C85.997 23.436 85.475 23.724 84.875 23.928C84.275 24.132 83.645 24.234 82.985 24.234C81.533 24.234 80.405 23.784 79.601 22.884C78.797 21.972 78.395 20.76 78.395 19.248C78.395 18.3 78.569 17.448 78.917 16.692C79.265 15.924 79.769 15.324 80.429 14.892C81.089 14.46 81.857 14.244 82.733 14.244C83.993 14.244 84.989 14.67 85.721 15.522C86.465 16.362 86.837 17.52 86.837 18.996C86.837 19.356 86.819 19.656 86.783 19.896H80.483ZM82.751 15.738C82.103 15.738 81.575 15.972 81.167 16.44C80.759 16.908 80.525 17.604 80.465 18.528H84.875C84.851 17.628 84.659 16.938 84.299 16.458C83.939 15.978 83.423 15.738 82.751 15.738ZM91.618 15.63C91.942 15.186 92.326 14.844 92.77 14.604C93.226 14.364 93.712 14.244 94.228 14.244C95.44 14.244 96.334 14.682 96.91 15.558C97.486 16.434 97.774 17.658 97.774 19.23C97.774 20.718 97.438 21.924 96.766 22.848C96.106 23.772 95.176 24.234 93.976 24.234C92.92 24.234 92.092 23.844 91.492 23.064L91.384 24H89.602V10.68L91.618 10.446V15.63ZM93.49 22.704C94.186 22.704 94.714 22.422 95.074 21.858C95.446 21.282 95.632 20.412 95.632 19.248C95.632 18.048 95.464 17.172 95.128 16.62C94.804 16.068 94.318 15.792 93.67 15.792C93.262 15.792 92.878 15.918 92.518 16.17C92.17 16.422 91.87 16.752 91.618 17.16V21.606C92.098 22.338 92.722 22.704 93.49 22.704ZM107.667 21.678C107.667 22.038 107.721 22.308 107.829 22.488C107.937 22.656 108.123 22.782 108.387 22.866L107.919 24.234C106.923 24.114 106.269 23.676 105.957 22.92C105.609 23.352 105.171 23.682 104.643 23.91C104.127 24.126 103.557 24.234 102.933 24.234C101.973 24.234 101.211 23.964 100.647 23.424C100.083 22.884 99.801 22.17 99.801 21.282C99.801 20.286 100.191 19.518 100.971 18.978C101.763 18.438 102.879 18.168 104.319 18.168H105.669V17.556C105.669 16.956 105.489 16.518 105.129 16.242C104.769 15.966 104.247 15.828 103.563 15.828C103.227 15.828 102.837 15.87 102.393 15.954C101.949 16.038 101.499 16.158 101.043 16.314L100.539 14.892C101.679 14.46 102.789 14.244 103.869 14.244C105.129 14.244 106.077 14.52 106.713 15.072C107.349 15.624 107.667 16.41 107.667 17.43V21.678ZM103.527 22.758C103.947 22.758 104.349 22.65 104.733 22.434C105.129 22.218 105.441 21.918 105.669 21.534V19.428H104.553C103.641 19.428 102.975 19.584 102.555 19.896C102.135 20.196 101.925 20.634 101.925 21.21C101.925 21.714 102.057 22.098 102.321 22.362C102.597 22.626 102.999 22.758 103.527 22.758ZM114.644 22.704C115.28 22.704 115.778 22.59 116.138 22.362C116.51 22.134 116.696 21.822 116.696 21.426C116.696 21.15 116.642 20.928 116.534 20.76C116.426 20.58 116.21 20.418 115.886 20.274C115.562 20.118 115.076 19.956 114.428 19.788C113.384 19.524 112.598 19.188 112.07 18.78C111.554 18.36 111.296 17.76 111.296 16.98C111.296 16.152 111.638 15.492 112.322 15C113.006 14.496 113.93 14.244 115.094 14.244C116.498 14.244 117.704 14.61 118.712 15.342L117.848 16.62C116.996 16.056 116.096 15.774 115.148 15.774C113.948 15.774 113.348 16.122 113.348 16.818C113.348 17.058 113.414 17.256 113.546 17.412C113.69 17.568 113.93 17.718 114.266 17.862C114.602 17.994 115.1 18.15 115.76 18.33C116.792 18.618 117.56 18.972 118.064 19.392C118.58 19.812 118.838 20.442 118.838 21.282C118.838 22.254 118.436 22.992 117.632 23.496C116.828 23.988 115.832 24.234 114.644 24.234C113.072 24.234 111.77 23.79 110.738 22.902L111.8 21.678C112.196 21.99 112.634 22.242 113.114 22.434C113.606 22.614 114.116 22.704 114.644 22.704ZM123.655 19.896C123.715 20.82 123.979 21.516 124.447 21.984C124.927 22.44 125.527 22.668 126.247 22.668C126.691 22.668 127.111 22.602 127.507 22.47C127.915 22.326 128.329 22.116 128.749 21.84L129.613 23.064C129.169 23.436 128.647 23.724 128.047 23.928C127.447 24.132 126.817 24.234 126.157 24.234C124.705 24.234 123.577 23.784 122.773 22.884C121.969 21.972 121.567 20.76 121.567 19.248C121.567 18.3 121.741 17.448 122.089 16.692C122.437 15.924 122.941 15.324 123.601 14.892C124.261 14.46 125.029 14.244 125.905 14.244C127.165 14.244 128.161 14.67 128.893 15.522C129.637 16.362 130.009 17.52 130.009 18.996C130.009 19.356 129.991 19.656 129.955 19.896H123.655ZM125.923 15.738C125.275 15.738 124.747 15.972 124.339 16.44C123.931 16.908 123.697 17.604 123.637 18.528H128.047C128.023 17.628 127.831 16.938 127.471 16.458C127.111 15.978 126.595 15.738 125.923 15.738Z" fill="#F5F5F5"/>
<rect x="1.5" y="1" width="141" height="34" rx="3" stroke="#484848" stroke-width="2"/>
<defs>
<clipPath id="clip0">
<rect width="20" height="20" fill="white" transform="translate(12.5 8)"/>
</clipPath>
</defs>
</svg>
