<svg width="110" height="36" viewBox="0 0 110 36" fill="none" xmlns="http://www.w3.org/2000/svg">
<rect x="1" y="1" width="108" height="34" rx="3" fill="#0D1117"/>
<path d="M13.25 8H30.75L29.1583 25.9692L21.9808 28L14.8442 25.9683L13.25 8ZM19.1092 16.125L18.9158 13.86L27.2983 13.8625L27.49 11.6775L16.51 11.675L17.0917 18.35H24.6967L24.425 21.205L22 21.875L19.5375 21.2L19.3808 19.4417H17.2067L17.4817 22.9175L22 24.1258L26.4825 22.9233L27.1025 16.1258H19.1092V16.125Z" fill="#E34F26"/>
<path d="M51.4516 18.348H47.3836V24H45.2956V11.58H47.3836V16.638H51.4516V11.58H53.5396V24H51.4516V18.348ZM61.2365 24H59.1485V13.272H55.4045V11.58H65.0345L64.8185 13.272H61.2365V24ZM75.9535 24H74.0275L73.7395 17.952C73.7035 17.16 73.6855 16.398 73.6855 15.666C73.6855 14.718 73.7035 13.968 73.7395 13.416L71.9035 21.804H70.0855L68.1235 13.416C68.1715 14.028 68.1955 14.97 68.1955 16.242C68.1955 17.01 68.1895 17.586 68.1775 17.97L67.9255 24H66.0535L66.7555 11.58H69.2575L71.0395 19.896L72.7315 11.58H75.2515L75.9535 24ZM78.5565 11.58H80.6265V22.254H86.2065L85.9725 24H78.5565V11.58ZM95.8835 13.092H91.1135V16.548C91.7495 16.224 92.4275 16.062 93.1475 16.062C93.8075 16.062 94.3955 16.218 94.9115 16.53C95.4395 16.842 95.8475 17.298 96.1355 17.898C96.4355 18.486 96.5855 19.188 96.5855 20.004C96.5855 20.832 96.3995 21.57 96.0275 22.218C95.6555 22.854 95.1335 23.352 94.4615 23.712C93.7895 24.06 93.0095 24.234 92.1215 24.234C90.5975 24.234 89.3315 23.694 88.3235 22.614L89.5115 21.48C90.2195 22.26 91.0595 22.65 92.0315 22.65C92.7995 22.65 93.3995 22.422 93.8315 21.966C94.2635 21.498 94.4795 20.844 94.4795 20.004C94.4795 19.14 94.2935 18.516 93.9215 18.132C93.5615 17.736 93.0695 17.538 92.4455 17.538C92.1575 17.538 91.8755 17.574 91.5995 17.646C91.3355 17.706 91.0295 17.808 90.6815 17.952H89.1875V11.58H96.1535L95.8835 13.092Z" fill="#F5F5F5"/>
<rect x="1" y="1" width="108" height="34" rx="3" stroke="#484848" stroke-width="2"/>
</svg>
