<svg width="112" height="36" viewBox="0 0 112 36" fill="none" xmlns="http://www.w3.org/2000/svg">
<rect x="0.5" width="111" height="36" rx="4" fill="#0D1117"/>
<path d="M13.75 8H31.25L29.6583 25.9692L22.4808 28L15.3442 25.9683L13.75 8ZM19.6092 16.125L19.4158 13.86L27.7983 13.8625L27.99 11.6775L17.01 11.675L17.5917 18.35H25.1967L24.925 21.205L22.5 21.875L20.0375 21.2L19.8808 19.4417H17.7067L17.9817 22.9175L22.5 24.1258L26.9825 22.9233L27.6025 16.1258H19.6092V16.125Z" fill="#E34F26"/>
<path d="M52.2306 11.49V24H50.1786V18.528H44.2926V24H42.2406V11.49H44.2926V16.854H50.1786V11.49H52.2306ZM63.014 11.49V13.164H59.684V24H57.632V13.164H54.284V11.49H63.014ZM78.2682 11.49V24H76.2162V15.432L72.4002 24H70.9782L67.1442 15.432V24H65.0922V11.49H67.3062L71.6982 21.3L76.0722 11.49H78.2682ZM83.0172 22.344H87.2472V24H80.9652V11.49H83.0172V22.344ZM97.1533 12.642H91.1233V16.224C91.3753 15.888 91.7473 15.606 92.2393 15.378C92.7433 15.15 93.2773 15.036 93.8413 15.036C94.8493 15.036 95.6653 15.252 96.2893 15.684C96.9253 16.116 97.3753 16.662 97.6393 17.322C97.9153 17.982 98.0533 18.678 98.0533 19.41C98.0533 20.298 97.8793 21.09 97.5313 21.786C97.1953 22.47 96.6853 23.01 96.0013 23.406C95.3293 23.802 94.5013 24 93.5173 24C92.2093 24 91.1593 23.676 90.3673 23.028C89.5753 22.38 89.1013 21.522 88.9453 20.454H90.9433C91.0753 21.018 91.3693 21.468 91.8253 21.804C92.2813 22.128 92.8513 22.29 93.5353 22.29C94.3873 22.29 95.0233 22.032 95.4433 21.516C95.8753 21 96.0913 20.316 96.0913 19.464C96.0913 18.6 95.8753 17.94 95.4433 17.484C95.0113 17.016 94.3753 16.782 93.5353 16.782C92.9473 16.782 92.4493 16.932 92.0413 17.232C91.6453 17.52 91.3573 17.916 91.1773 18.42H89.2333V10.842H97.1533V12.642Z" fill="#F5F5F5"/>
</svg>
