<svg width="164" height="36" viewBox="0 0 164 36" fill="none" xmlns="http://www.w3.org/2000/svg">
<rect x="1" y="1" width="162" height="34" rx="3" fill="#0D1117"/>
<path d="M12 8H32V28H12V8ZM30.3617 23.23C30.2158 22.3175 29.6217 21.5508 27.8592 20.8358C27.2458 20.5483 26.5642 20.3483 26.3617 19.8858C26.2858 19.6108 26.2742 19.4608 26.3233 19.2983C26.4483 18.76 27.0858 18.5983 27.5858 18.7483C27.9108 18.8483 28.2108 19.0983 28.3992 19.4983C29.2608 18.935 29.2608 18.935 29.8617 18.5608C29.6367 18.2108 29.525 18.06 29.3733 17.9108C28.8483 17.3233 28.1492 17.0233 27.0117 17.0492L26.4242 17.1233C25.8608 17.2608 25.3242 17.5608 24.9992 17.9608C24.0492 19.0367 24.3233 20.9117 25.4733 21.6867C26.6108 22.5367 28.2742 22.7233 28.4867 23.5242C28.6867 24.4992 27.7617 24.8117 26.8483 24.6992C26.1725 24.5492 25.7983 24.2108 25.3858 23.5858L23.8608 24.4617C24.0358 24.8617 24.2358 25.0358 24.5358 25.3858C25.9858 26.8492 29.6108 26.7742 30.2617 24.5492C30.2858 24.4742 30.4617 23.9617 30.3233 23.1742L30.3617 23.23ZM22.8758 17.1925H21.0025C21.0025 18.8075 20.995 20.4125 20.995 22.03C20.995 23.0567 21.0475 23.9992 20.88 24.2892C20.605 24.8633 19.8967 24.79 19.575 24.6892C19.245 24.5258 19.0775 24.3008 18.8833 23.9767C18.8308 23.8892 18.7917 23.8133 18.7775 23.8133L17.2567 24.7508C17.5108 25.2758 17.8817 25.7275 18.36 26.015C19.0725 26.44 20.03 26.5775 21.0325 26.3525C21.685 26.1642 22.2475 25.7767 22.5417 25.1767C22.9667 24.4017 22.8767 23.4517 22.8725 22.3883C22.8825 20.6767 22.8725 18.9642 22.8725 17.2392L22.8758 17.1925Z" fill="#F7DF1E"/>
<path d="M53.1792 19.734C53.1792 21.042 52.8012 22.122 52.0452 22.974C51.3012 23.814 50.1672 24.234 48.6432 24.234C47.3352 24.234 46.1592 23.85 45.1152 23.082L45.9612 21.768C46.4292 22.068 46.8732 22.284 47.2932 22.416C47.7132 22.536 48.1392 22.596 48.5712 22.596C49.3512 22.596 49.9632 22.344 50.4072 21.84C50.8632 21.336 51.0912 20.622 51.0912 19.698V13.182H47.3652V11.58H53.1792V19.734ZM63.7021 21.678C63.7021 22.038 63.7561 22.308 63.8641 22.488C63.9721 22.656 64.1581 22.782 64.4221 22.866L63.9541 24.234C62.9581 24.114 62.3041 23.676 61.9921 22.92C61.6441 23.352 61.2061 23.682 60.6781 23.91C60.1621 24.126 59.5921 24.234 58.9681 24.234C58.0081 24.234 57.2461 23.964 56.6821 23.424C56.1181 22.884 55.8361 22.17 55.8361 21.282C55.8361 20.286 56.2261 19.518 57.0061 18.978C57.7981 18.438 58.9141 18.168 60.3541 18.168H61.7041V17.556C61.7041 16.956 61.5241 16.518 61.1641 16.242C60.8041 15.966 60.2821 15.828 59.5981 15.828C59.2621 15.828 58.8721 15.87 58.4281 15.954C57.9841 16.038 57.5341 16.158 57.0781 16.314L56.5741 14.892C57.7141 14.46 58.8241 14.244 59.9041 14.244C61.1641 14.244 62.1121 14.52 62.7481 15.072C63.3841 15.624 63.7021 16.41 63.7021 17.43V21.678ZM59.5621 22.758C59.9821 22.758 60.3841 22.65 60.7681 22.434C61.1641 22.218 61.4761 21.918 61.7041 21.534V19.428H60.5881C59.6761 19.428 59.0101 19.584 58.5901 19.896C58.1701 20.196 57.9601 20.634 57.9601 21.21C57.9601 21.714 58.0921 22.098 58.3561 22.362C58.6321 22.626 59.0341 22.758 59.5621 22.758ZM72.1911 24H69.8511L66.4851 14.496H68.6631L71.0571 22.326L73.4871 14.496H75.5571L72.1911 24ZM85.2881 21.678C85.2881 22.038 85.3421 22.308 85.4501 22.488C85.5581 22.656 85.7441 22.782 86.0081 22.866L85.5401 24.234C84.5441 24.114 83.8901 23.676 83.5781 22.92C83.2301 23.352 82.7921 23.682 82.2641 23.91C81.7481 24.126 81.1781 24.234 80.5541 24.234C79.5941 24.234 78.8321 23.964 78.2681 23.424C77.7041 22.884 77.4221 22.17 77.4221 21.282C77.4221 20.286 77.8121 19.518 78.5921 18.978C79.3841 18.438 80.5001 18.168 81.9401 18.168H83.2901V17.556C83.2901 16.956 83.1101 16.518 82.7501 16.242C82.3901 15.966 81.8681 15.828 81.1841 15.828C80.8481 15.828 80.4581 15.87 80.0141 15.954C79.5701 16.038 79.1201 16.158 78.6641 16.314L78.1601 14.892C79.3001 14.46 80.4101 14.244 81.4901 14.244C82.7501 14.244 83.6981 14.52 84.3341 15.072C84.9701 15.624 85.2881 16.41 85.2881 17.43V21.678ZM81.1481 22.758C81.5681 22.758 81.9701 22.65 82.3541 22.434C82.7501 22.218 83.0621 21.918 83.2901 21.534V19.428H82.1741C81.2621 19.428 80.5961 19.584 80.1761 19.896C79.7561 20.196 79.5461 20.634 79.5461 21.21C79.5461 21.714 79.6781 22.098 79.9421 22.362C80.2181 22.626 80.6201 22.758 81.1481 22.758ZM97.089 20.49C97.089 21.234 96.897 21.888 96.513 22.452C96.141 23.016 95.595 23.454 94.875 23.766C94.167 24.078 93.321 24.234 92.337 24.234C90.417 24.234 88.893 23.682 87.765 22.578L88.917 21.3C89.853 22.164 90.993 22.596 92.337 22.596C93.081 22.596 93.693 22.422 94.173 22.074C94.665 21.726 94.911 21.234 94.911 20.598C94.911 20.226 94.833 19.914 94.677 19.662C94.533 19.41 94.281 19.188 93.921 18.996C93.561 18.792 93.045 18.588 92.373 18.384C90.993 17.976 89.979 17.49 89.331 16.926C88.683 16.362 88.359 15.618 88.359 14.694C88.359 14.034 88.539 13.452 88.899 12.948C89.271 12.432 89.781 12.036 90.429 11.76C91.077 11.472 91.809 11.328 92.625 11.328C94.293 11.328 95.679 11.826 96.783 12.822L95.685 14.064C94.833 13.332 93.855 12.966 92.751 12.966C92.079 12.966 91.533 13.104 91.113 13.38C90.705 13.656 90.501 14.052 90.501 14.568C90.501 14.892 90.585 15.168 90.753 15.396C90.933 15.624 91.227 15.834 91.635 16.026C92.055 16.206 92.643 16.41 93.399 16.638C94.599 16.998 95.511 17.46 96.135 18.024C96.771 18.588 97.089 19.41 97.089 20.49ZM104.192 22.578C104.948 22.578 105.728 22.308 106.532 21.768L107.45 23.064C107.03 23.424 106.526 23.712 105.938 23.928C105.35 24.132 104.744 24.234 104.12 24.234C102.668 24.234 101.534 23.79 100.718 22.902C99.902 22.002 99.494 20.802 99.494 19.302C99.494 18.33 99.68 17.466 100.052 16.71C100.424 15.942 100.958 15.342 101.654 14.91C102.362 14.466 103.196 14.244 104.156 14.244C105.416 14.244 106.514 14.628 107.45 15.396L106.514 16.656C105.746 16.128 104.972 15.864 104.192 15.864C103.4 15.864 102.776 16.152 102.32 16.728C101.864 17.292 101.636 18.15 101.636 19.302C101.636 20.43 101.864 21.258 102.32 21.786C102.776 22.314 103.4 22.578 104.192 22.578ZM117.127 14.262C117.619 14.262 118.099 14.34 118.567 14.496L118.225 18.006H116.785V16.062C116.125 16.074 115.549 16.338 115.057 16.854C114.577 17.37 114.193 18.096 113.905 19.032V22.56H115.813V24H110.485V22.56H111.889V15.936H110.485V14.496H113.419L113.779 16.692C114.151 15.876 114.601 15.27 115.129 14.874C115.669 14.466 116.335 14.262 117.127 14.262ZM124.986 9.834C125.37 9.834 125.682 9.96 125.922 10.212C126.174 10.452 126.3 10.752 126.3 11.112C126.3 11.472 126.174 11.772 125.922 12.012C125.682 12.252 125.37 12.372 124.986 12.372C124.59 12.372 124.272 12.252 124.032 12.012C123.792 11.772 123.672 11.472 123.672 11.112C123.672 10.74 123.792 10.434 124.032 10.194C124.284 9.954 124.602 9.834 124.986 9.834ZM126.372 22.524H128.964V24H121.53V22.524H124.356V15.972H121.62V14.496H126.372V22.524ZM136.625 14.244C138.929 14.244 140.081 15.906 140.081 19.23C140.081 20.73 139.763 21.942 139.127 22.866C138.491 23.778 137.585 24.234 136.409 24.234C135.413 24.234 134.609 23.886 133.997 23.19V27.654L131.981 27.888V14.496H133.727L133.853 15.72C134.213 15.24 134.627 14.874 135.095 14.622C135.575 14.37 136.085 14.244 136.625 14.244ZM136.067 15.792C135.647 15.792 135.263 15.918 134.915 16.17C134.567 16.422 134.261 16.752 133.997 17.16V21.606C134.465 22.314 135.089 22.668 135.869 22.668C136.565 22.668 137.087 22.392 137.435 21.84C137.783 21.288 137.957 20.424 137.957 19.248C137.957 18.036 137.801 17.16 137.489 16.62C137.177 16.068 136.703 15.792 136.067 15.792ZM150.712 23.496C150.352 23.724 149.932 23.904 149.452 24.036C148.972 24.168 148.468 24.234 147.94 24.234C146.86 24.234 146.026 23.958 145.438 23.406C144.85 22.842 144.556 22.08 144.556 21.12V15.972H142.45V14.496H144.556V12.372L146.572 12.138V14.496H149.794L149.56 15.972H146.572V21.102C146.572 21.618 146.704 22.002 146.968 22.254C147.232 22.494 147.652 22.614 148.228 22.614C148.864 22.614 149.452 22.464 149.992 22.164L150.712 23.496Z" fill="#F5F5F5"/>
<rect x="1" y="1" width="162" height="34" rx="3" stroke="#484848" stroke-width="2"/>
</svg>
