<svg width="110" height="36" viewBox="0 0 110 36" fill="none" xmlns="http://www.w3.org/2000/svg">
<rect x="1" y="1" width="108" height="34" rx="3" fill="#0D1117"/>
<g clip-path="url(#clip0)">
<path d="M22.42 8C22.2908 8 22.1575 8.00667 22.02 8.0175C18.4983 8.295 19.4325 12.0233 19.3783 13.2658C19.315 14.1758 19.1283 14.8933 18.5033 15.7825C17.7658 16.6583 16.7308 18.0742 16.24 19.55C16.0083 20.2433 15.8983 20.9533 16.0008 21.6242C15.9628 21.6549 15.9316 21.6932 15.9092 21.7367C15.6925 21.96 15.5342 22.2367 15.3567 22.4358C15.1908 22.6017 14.9525 22.6583 14.6925 22.7692C14.4317 22.8825 14.1442 22.9933 13.9725 23.3358C13.8975 23.4933 13.8592 23.6642 13.8625 23.8375C13.8625 24.0033 13.885 24.1708 13.9083 24.2842C13.9567 24.6167 14.005 24.8908 13.9417 25.0925C13.7342 25.6592 13.7083 26.0467 13.8533 26.3292C13.9983 26.6075 14.2992 26.7208 14.6367 26.83C15.3117 26.9967 16.2283 26.9425 16.9483 27.33C17.72 27.7183 18.5033 27.8883 19.1283 27.7217C19.5667 27.625 19.9367 27.335 20.135 26.9333C20.6242 26.9308 21.16 26.7092 22.0183 26.655C22.6008 26.6067 23.33 26.8775 24.1658 26.8217C24.1867 26.9333 24.2183 26.9867 24.2608 27.0992L24.2633 27.1017C24.5892 27.75 25.1908 28.045 25.8333 27.9942C26.4758 27.9442 27.16 27.5475 27.7142 26.9058C28.24 26.2683 29.1167 26.0025 29.6958 25.6533C29.9858 25.4875 30.22 25.2625 30.2367 24.9425C30.2558 24.6092 30.07 24.2667 29.6417 23.7958V23.715L29.6392 23.7125C29.4975 23.5458 29.4308 23.2667 29.3575 22.9408C29.2867 22.6067 29.2058 22.2858 28.9475 22.0692H28.945C28.8958 22.0242 28.8425 22.0133 28.7883 21.9567C28.7417 21.9241 28.6868 21.9056 28.63 21.9033C28.9892 20.8383 28.85 19.7783 28.4858 18.825C28.0417 17.65 27.265 16.6267 26.6733 15.9225C26.01 15.085 25.36 14.2917 25.3733 13.1158C25.395 11.3225 25.57 8.005 22.42 8V8ZM22.8608 10.8375H22.8717C23.0492 10.8375 23.2017 10.8892 23.3583 11.0025C23.5167 11.115 23.6333 11.2792 23.7233 11.4467C23.8108 11.6625 23.855 11.8292 23.8617 12.05C23.8617 12.0333 23.8667 12.0167 23.8667 12V12.0875C23.8648 12.0818 23.8637 12.0759 23.8633 12.07L23.86 12.05C23.8583 12.2525 23.8158 12.4526 23.735 12.6383C23.6961 12.7428 23.6356 12.8379 23.5575 12.9175C23.5339 12.9042 23.5094 12.8925 23.4842 12.8825C23.3975 12.845 23.3192 12.8292 23.2475 12.7717C23.1881 12.748 23.1268 12.7296 23.0642 12.7167C23.1058 12.6667 23.1858 12.6058 23.2167 12.5517C23.2608 12.445 23.285 12.3317 23.29 12.2167V12.2C23.2919 12.0868 23.2747 11.9741 23.2392 11.8667C23.2017 11.755 23.155 11.7 23.0867 11.5892C23.0167 11.5342 22.9475 11.4792 22.8642 11.4792H22.8508C22.7733 11.4792 22.7042 11.5042 22.6325 11.5892C22.5534 11.6663 22.4947 11.762 22.4617 11.8675C22.4174 11.9734 22.392 12.0862 22.3867 12.2008V12.2167C22.3883 12.2908 22.3933 12.3658 22.4033 12.4392C22.2425 12.3833 22.0383 12.3267 21.8975 12.2708C21.8891 12.2156 21.8841 12.16 21.8825 12.1042V12.0875C21.876 11.8675 21.9187 11.6489 22.0075 11.4475C22.0758 11.2642 22.2008 11.1092 22.3658 11.0033C22.5083 10.8954 22.6821 10.8368 22.8608 10.8367V10.8375ZM20.3925 10.8867H20.4225C20.5408 10.8867 20.6475 10.9267 20.755 10.9992C20.8767 11.1067 20.975 11.2392 21.0417 11.3867C21.1167 11.5525 21.1583 11.72 21.1692 11.9425V11.9458C21.175 12.0575 21.1742 12.1125 21.1675 12.1675V12.2342C21.1425 12.24 21.1208 12.2492 21.0983 12.2542C20.9717 12.3 20.87 12.3667 20.7708 12.4208C20.7808 12.3458 20.7817 12.2708 20.7733 12.1983V12.1858C20.7633 12.075 20.74 12.0192 20.705 11.9083C20.679 11.8234 20.6313 11.7467 20.5667 11.6858C20.5461 11.6672 20.522 11.6528 20.4958 11.6436C20.4696 11.6345 20.4419 11.6307 20.4142 11.6325H20.3967C20.3375 11.6375 20.2883 11.6658 20.2417 11.7425C20.1885 11.807 20.1539 11.8848 20.1417 11.9675C20.1191 12.0573 20.1127 12.1504 20.1225 12.2425V12.255C20.1325 12.3675 20.1533 12.4217 20.1892 12.5333C20.2275 12.645 20.2708 12.7 20.3275 12.7567C20.3358 12.7642 20.3442 12.7717 20.3558 12.7767C20.2975 12.8242 20.2583 12.835 20.2092 12.89C20.178 12.9176 20.1405 12.937 20.1 12.9467C20.0134 12.8424 19.9367 12.7302 19.8708 12.6117C19.792 12.4365 19.7482 12.2477 19.7417 12.0558C19.7279 11.8677 19.7505 11.6787 19.8083 11.4992C19.8542 11.3354 19.9346 11.1834 20.0442 11.0533C20.1508 10.9425 20.2608 10.8867 20.3925 10.8867V10.8867ZM21.5342 12.3083C21.8108 12.3083 22.145 12.3625 22.5475 12.6408C22.7917 12.8075 22.9833 12.865 23.4242 13.0308H23.4267C23.6392 13.1442 23.7642 13.2525 23.825 13.3633V13.2542C23.8549 13.3148 23.8716 13.381 23.8739 13.4486C23.8762 13.5161 23.864 13.5833 23.8383 13.6458C23.7358 13.9042 23.4083 14.1817 22.9525 14.3475V14.3492C22.7292 14.4617 22.535 14.6267 22.3067 14.7367C22.0767 14.8492 21.8167 14.98 21.4633 14.9592C21.3364 14.9657 21.2095 14.9468 21.09 14.9033C20.9977 14.8531 20.9081 14.798 20.8217 14.7383C20.6592 14.6258 20.5192 14.4617 20.3117 14.3508V14.3467H20.3075C19.9742 14.1417 19.7942 13.92 19.7358 13.755C19.6775 13.5317 19.7317 13.3633 19.8967 13.255C20.0833 13.1425 20.2133 13.0292 20.2992 12.975C20.3858 12.9133 20.4183 12.89 20.4458 12.8658H20.4475V12.8633C20.5883 12.695 20.8108 12.4717 21.1467 12.3625C21.2625 12.3325 21.3917 12.3083 21.535 12.3083H21.5342ZM23.8675 14.0933C24.1658 15.2742 24.8642 16.9892 25.3133 17.8208C25.5517 18.2658 26.0258 19.2033 26.2317 20.3408C26.3617 20.3367 26.5067 20.3558 26.6592 20.3942C27.1975 19.0017 26.2042 17.505 25.7517 17.0892C25.5683 16.9225 25.5583 16.81 25.6492 16.81C26.1408 17.255 26.7867 18.12 27.0208 19.1075C27.1292 19.5533 27.1542 20.0275 27.0383 20.4992C27.0942 20.5225 27.1508 20.5492 27.2092 20.555C28.0692 21 28.3867 21.3367 28.2342 21.8358V21.8C28.1842 21.7975 28.1342 21.8 28.0842 21.8H28.0708C28.1967 21.4108 27.9192 21.1125 27.1833 20.78C26.4208 20.4467 25.8117 20.5 25.7083 21.1675C25.7017 21.2033 25.6975 21.2225 25.6933 21.28C25.6367 21.2992 25.5775 21.3242 25.5192 21.3333C25.1608 21.5567 24.9675 21.8908 24.8583 22.3225C24.75 22.7667 24.7167 23.2858 24.6875 23.88V23.8825C24.6708 24.1608 24.5458 24.5808 24.4217 25.0075C23.1717 25.9008 21.4383 26.2892 19.965 25.2858C19.8725 25.1242 19.76 24.975 19.63 24.8417C19.5679 24.7382 19.4906 24.6447 19.4008 24.5642C19.5525 24.5642 19.6825 24.5392 19.7883 24.5083C19.9082 24.4527 20.0019 24.353 20.05 24.23C20.14 24.0075 20.05 23.6492 19.7625 23.2608C19.475 22.8717 18.9867 22.4317 18.2725 21.9933C17.7475 21.66 17.4508 21.2683 17.3142 20.83C17.1767 20.385 17.195 19.9258 17.3017 19.4592C17.5058 18.5675 18.0292 17.7008 18.3633 17.1567C18.4525 17.1025 18.3942 17.2692 18.0233 17.9683C17.6933 18.5942 17.0733 20.0492 17.9217 21.18C17.9537 20.3549 18.1364 19.5427 18.4608 18.7833C18.9308 17.7183 19.9133 15.8633 19.9908 14.3933C20.0308 14.4233 20.1717 14.5058 20.2317 14.5617C20.4133 14.6725 20.5483 14.8392 20.7233 14.9492C20.8983 15.1167 21.1208 15.2283 21.4533 15.2283C21.4858 15.2308 21.5158 15.2333 21.545 15.2333C21.8883 15.2333 22.1533 15.1217 22.3758 15.01C22.6175 14.8983 22.8092 14.7317 22.9925 14.6767H22.9967C23.3858 14.5642 23.6925 14.3417 23.8667 14.0933H23.8675ZM25.6883 21.5583C25.7192 22.0583 25.9742 22.5958 26.4233 22.7058C26.9133 22.8175 27.6183 22.4283 27.9158 22.0683L28.0917 22.06C28.3542 22.0542 28.5725 22.0683 28.7975 22.2833L28.8 22.2858C28.9733 22.4517 29.0542 22.7275 29.1258 23.0158C29.1967 23.3492 29.2542 23.6658 29.4667 23.9042C29.8717 24.3433 30.0042 24.6592 29.9967 24.8542L29.9992 24.8483V24.8633L29.9967 24.8533C29.9842 25.0717 29.8425 25.1833 29.5817 25.3492C29.0567 25.6833 28.1267 25.9425 27.5342 26.6575C27.0192 27.2717 26.3925 27.6075 25.8375 27.65C25.2842 27.6942 24.8067 27.4833 24.5258 26.9017L24.5217 26.8992C24.3467 26.5658 24.4217 26.045 24.5683 25.4908C24.715 24.9342 24.925 24.3708 24.9542 23.91C24.985 23.315 25.0175 22.7975 25.1167 22.3983C25.2167 22.0108 25.3733 21.7342 25.6508 21.5783L25.6883 21.56V21.5583ZM16.6767 21.5992H16.685C16.7292 21.5992 16.7725 21.6033 16.8158 21.6108C17.1292 21.6567 17.4042 21.8883 17.6683 22.2375L18.4267 23.6242L18.4292 23.6267C18.6317 24.0708 19.0575 24.5133 19.42 24.9908C19.7817 25.4892 20.0617 25.9333 20.0275 26.2992V26.3042C19.98 26.9242 19.6275 27.2608 19.09 27.3825C18.5525 27.495 17.8233 27.3842 17.0942 26.9958C16.2875 26.5492 15.3292 26.605 14.7133 26.4942C14.4058 26.4392 14.205 26.3275 14.1108 26.1608C14.0192 25.9942 14.0167 25.6592 14.2133 25.1358V25.1325L14.215 25.13C14.3125 24.8517 14.24 24.5033 14.1925 24.1983C14.1467 23.8642 14.1233 23.6067 14.2283 23.415C14.3617 23.1367 14.5583 23.0817 14.8033 22.9708C15.0483 22.8583 15.3367 22.8025 15.5658 22.5792H15.5675V22.5775C15.7808 22.3542 15.9383 22.0767 16.1242 21.8792C16.2825 21.7117 16.4408 21.5992 16.6767 21.5992V21.5992ZM22.6425 14.0375C22.28 14.205 21.855 14.4833 21.4025 14.4833C20.9508 14.4833 20.5942 14.2608 20.3358 14.095C20.2075 13.9833 20.1025 13.8717 20.025 13.8158C19.8883 13.7042 19.905 13.5383 19.9633 13.5383C20.0542 13.5517 20.0708 13.65 20.1292 13.705C20.2092 13.76 20.3083 13.8717 20.4292 13.9825C20.6725 14.1492 20.9958 14.3717 21.4017 14.3717C21.8058 14.3717 22.2792 14.1492 22.5667 13.9833C22.7292 13.8708 22.9375 13.705 23.1067 13.5942C23.2367 13.4808 23.2308 13.3717 23.3392 13.3717C23.4458 13.385 23.3675 13.4833 23.2167 13.6483C23.0318 13.7881 22.8399 13.9183 22.6417 14.0383L22.6425 14.0375ZM21.7408 12.7183V12.7C21.7358 12.6833 21.7517 12.665 21.765 12.6583C21.8267 12.6225 21.915 12.6358 21.9817 12.6617C22.0342 12.6617 22.115 12.7175 22.1067 12.7742C22.1017 12.815 22.0358 12.8292 21.9942 12.8292C21.9483 12.8292 21.9175 12.7933 21.8767 12.7725C21.8333 12.7575 21.755 12.7658 21.7408 12.7183ZM21.2817 12.7183C21.265 12.7667 21.1875 12.7592 21.1433 12.7733C21.1042 12.7942 21.0717 12.83 21.0267 12.83C20.985 12.83 20.9183 12.8133 20.9133 12.7733C20.905 12.7183 20.9867 12.6625 21.0383 12.6625C21.105 12.6367 21.1917 12.6233 21.2542 12.6583C21.27 12.6658 21.2842 12.6833 21.2792 12.7V12.7167H21.2817V12.7183Z" fill="#FCC624"/>
</g>
<path d="M46.1776 11.58H48.2476V22.254H53.8276L53.5936 24H46.1776V11.58ZM60.2105 9.834C60.5945 9.834 60.9065 9.96 61.1465 10.212C61.3985 10.452 61.5245 10.752 61.5245 11.112C61.5245 11.472 61.3985 11.772 61.1465 12.012C60.9065 12.252 60.5945 12.372 60.2105 12.372C59.8145 12.372 59.4965 12.252 59.2565 12.012C59.0165 11.772 58.8965 11.472 58.8965 11.112C58.8965 10.74 59.0165 10.434 59.2565 10.194C59.5085 9.954 59.8265 9.834 60.2105 9.834ZM61.5965 22.524H64.1885V24H56.7545V22.524H59.5805V15.972H56.8445V14.496H61.5965V22.524ZM67.2055 14.496H68.9515L69.0955 15.738C69.4915 15.258 69.9535 14.892 70.4815 14.64C71.0215 14.376 71.5855 14.244 72.1735 14.244C73.0495 14.244 73.7095 14.49 74.1535 14.982C74.5975 15.474 74.8195 16.17 74.8195 17.07V24H72.8035V18.078C72.8035 17.49 72.7675 17.04 72.6955 16.728C72.6355 16.404 72.5095 16.17 72.3175 16.026C72.1255 15.87 71.8375 15.792 71.4535 15.792C71.0215 15.792 70.6075 15.924 70.2115 16.188C69.8275 16.452 69.4975 16.782 69.2215 17.178V24H67.2055V14.496ZM80.0145 21.138C80.0145 21.69 80.1225 22.092 80.3385 22.344C80.5665 22.584 80.9085 22.704 81.3645 22.704C81.7965 22.704 82.2105 22.578 82.6065 22.326C83.0145 22.074 83.3385 21.756 83.5785 21.372V14.496H85.5945V24H83.8485L83.7225 22.776C83.3865 23.244 82.9485 23.604 82.4085 23.856C81.8685 24.108 81.3105 24.234 80.7345 24.234C79.8225 24.234 79.1385 23.988 78.6825 23.496C78.2265 23.004 77.9985 22.302 77.9985 21.39V14.496H80.0145V21.138ZM87.9635 24L91.3835 18.996L88.3415 14.496H90.6635L92.6075 17.844L94.5515 14.496H96.7655L93.7955 18.906L97.2155 24H94.8575L92.5175 20.112L90.1955 24H87.9635Z" fill="#F5F5F5"/>
<rect x="1" y="1" width="108" height="34" rx="3" stroke="#484848" stroke-width="2"/>
<defs>
<clipPath id="clip0">
<rect width="20" height="20" fill="white" transform="translate(12 8)"/>
</clipPath>
</defs>
</svg>
