<svg width="110" height="36" viewBox="0 0 110 36" fill="none" xmlns="http://www.w3.org/2000/svg">
<rect x="1" y="1" width="108" height="34" rx="3" fill="#0D1117"/>
<path d="M23.8583 18.0033C23.8583 18.4973 23.6621 18.9712 23.3129 19.3206C22.9636 19.67 22.4899 19.8664 21.9958 19.8666C21.5016 19.8666 21.0277 19.6703 20.6783 19.3209C20.3288 18.9714 20.1325 18.4975 20.1325 18.0033C20.1325 17.5093 20.3287 17.0354 20.678 16.686C21.0272 16.3366 21.501 16.1402 21.995 16.14C22.4892 16.14 22.9631 16.3363 23.3126 16.6857C23.662 17.0352 23.8583 17.5091 23.8583 18.0033V18.0033ZM26.065 9.09497C24.9433 9.09497 23.4758 9.89497 21.9917 11.28C20.5083 9.90247 19.04 9.11164 17.9192 9.11164C17.5775 9.11164 17.2667 9.18914 16.9975 9.3433C15.8517 10.0041 15.595 12.0633 16.1867 14.6475C13.65 15.4308 12 16.6833 12 18.0033C12 19.3283 13.6583 20.5841 16.2025 21.3616C15.6158 23.9558 15.8775 26.0183 17.0258 26.6783C17.2925 26.8341 17.6008 26.9075 17.9442 26.9075C19.065 26.9075 20.5333 26.1075 22.0175 24.7208C23.5008 26.0991 24.9692 26.89 26.09 26.89C26.4317 26.89 26.7425 26.815 27.0117 26.6608C28.1567 26.0008 28.4142 23.9416 27.8225 21.3566C30.35 20.58 32 19.325 32 18.0033C32 16.6783 30.3417 15.4225 27.7975 14.6433C28.3842 12.0516 28.1225 9.98747 26.9742 9.32664C26.7092 9.1733 26.4008 9.0958 26.0642 9.09497H26.065ZM26.0608 10.0033V10.0083C26.2483 10.0083 26.3992 10.045 26.5258 10.1141C27.0808 10.4325 27.3217 11.6433 27.1342 13.2008C27.0892 13.5841 27.0158 13.9883 26.9258 14.4008C26.1258 14.2041 25.2542 14.0533 24.3367 13.9558C23.7867 13.2016 23.2158 12.5166 22.6408 11.9166C23.9675 10.6833 25.2133 10.0066 26.0617 10.0041L26.0608 10.0033ZM17.9192 10.02C18.7625 10.02 20.0142 10.6933 21.3442 11.92C20.7725 12.52 20.2025 13.2008 19.6608 13.955C18.7383 14.0525 17.8658 14.2033 17.0667 14.4033C16.9733 13.995 16.9042 13.6 16.855 13.22C16.6633 11.6633 16.9 10.4533 17.45 10.1308C17.6083 10.0558 17.7833 10.025 17.9192 10.0208V10.02ZM21.9875 12.5616C22.3667 12.9516 22.7458 13.3883 23.1208 13.865C22.7542 13.8483 22.3792 13.8366 22 13.8366C21.6167 13.8366 21.2375 13.845 20.8667 13.865C21.2333 13.3883 21.6125 12.9516 21.9875 12.5608V12.5616ZM22 14.75C22.6167 14.75 23.2308 14.7783 23.835 14.8275C24.1733 15.3125 24.5033 15.83 24.8208 16.3775C25.1308 16.9108 25.4125 17.4525 25.6692 17.9991C25.4125 18.545 25.1308 19.0908 24.825 19.6241C24.5083 20.1741 24.1808 20.6975 23.8417 21.1825C23.235 21.235 22.62 21.2641 22 21.2641C21.3833 21.2641 20.7692 21.235 20.165 21.1866C19.8267 20.7016 19.4967 20.1833 19.1792 19.6366C18.8692 19.1033 18.5875 18.5616 18.3308 18.015C18.5833 17.4675 18.8692 16.9208 19.175 16.3866C19.4917 15.8366 19.8192 15.315 20.1583 14.83C20.765 14.7766 21.38 14.7483 22 14.7483V14.75ZM18.9708 14.9616C18.7708 15.2758 18.5708 15.5975 18.3842 15.9283C18.1967 16.2533 18.0217 16.58 17.855 16.9066C17.6342 16.36 17.4467 15.815 17.2917 15.2841C17.825 15.1591 18.3875 15.0483 18.9708 14.9625V14.9616ZM25.0208 14.9616C25.6 15.0475 26.1583 15.1533 26.6925 15.2841C26.5425 15.8108 26.355 16.3525 26.1425 16.895C25.9758 16.57 25.8008 16.2425 25.6092 15.9166C25.4217 15.59 25.2217 15.2716 25.0217 14.9616H25.0208ZM27.5733 15.5241C27.9767 15.6491 28.36 15.7883 28.7192 15.9391C30.1625 16.5558 31.0958 17.3625 31.0958 18.0025C31.0917 18.6425 30.1583 19.4525 28.715 20.065C28.365 20.215 27.9817 20.35 27.5858 20.4758C27.3525 19.6775 27.0475 18.8458 26.6692 17.9925C27.0442 17.145 27.3442 16.3175 27.5733 15.5225V15.5241ZM16.4108 15.5275C16.6425 16.3275 16.9483 17.1583 17.3275 18.0108C16.9525 18.8583 16.6508 19.6858 16.4225 20.4808C16.0192 20.3558 15.6358 20.2158 15.2808 20.0641C13.8375 19.45 12.9042 18.6425 12.9042 18.0025C12.9042 17.3625 13.8375 16.5508 15.2808 15.9391C15.6308 15.7891 16.0142 15.6541 16.4108 15.5275V15.5275ZM26.1425 19.0941C26.3633 19.6416 26.5508 20.1875 26.7058 20.7175C26.1725 20.8483 25.6092 20.9591 25.0258 21.0425C25.2258 20.73 25.4258 20.4075 25.6133 20.0775C25.8008 19.7525 25.9758 19.4208 26.1433 19.0941H26.1425ZM17.855 19.1108C18.0217 19.4375 18.1967 19.7633 18.3883 20.09C18.58 20.415 18.7758 20.7333 18.9758 21.0425C18.3967 20.9575 17.8383 20.8508 17.3042 20.7208C17.4542 20.1958 17.6425 19.6525 17.8542 19.11L17.855 19.1108ZM26.9333 21.6C27.0267 22.0108 27.1 22.4066 27.145 22.7858C27.3367 24.3425 27.1 25.5525 26.55 25.8758C26.4275 25.9508 26.2683 25.9825 26.0808 25.9825C25.2375 25.9825 23.9858 25.31 22.6558 24.0825C23.2275 23.4825 23.7975 22.8025 24.3392 22.0491C25.2617 21.9508 26.1342 21.7991 26.9333 21.5991V21.6ZM17.075 21.6083C17.875 21.8033 18.7467 21.9541 19.6642 22.0516C20.2142 22.8058 20.785 23.4908 21.36 24.09C20.0308 25.3258 18.7833 26.0025 17.935 26.0025C17.7517 25.9983 17.5967 25.9608 17.4742 25.8925C16.9192 25.5758 16.6783 24.3641 16.8658 22.8066C16.9108 22.4233 16.9842 22.02 17.0742 21.6083H17.075ZM20.875 22.1416C21.2417 22.1583 21.6167 22.17 21.9958 22.17C22.3792 22.17 22.7583 22.1616 23.1292 22.1416C22.7625 22.6183 22.3833 23.0541 22.0083 23.4458C21.6292 23.0541 21.25 22.6183 20.875 22.1416Z" fill="#61DAFB"/>
<path d="M53.8456 15.18C53.8456 16.044 53.5876 16.764 53.0716 17.34C52.5556 17.916 51.8716 18.336 51.0196 18.6L54.5476 24H52.1176L48.9856 18.888H47.6356V24H45.5476V11.58H49.0036C52.2316 11.58 53.8456 12.78 53.8456 15.18ZM51.6676 15.18C51.6676 14.46 51.4576 13.938 51.0376 13.614C50.6296 13.29 49.9936 13.128 49.1296 13.128H47.6356V17.358H49.1836C49.9996 17.358 50.6176 17.184 51.0376 16.836C51.4576 16.488 51.6676 15.936 51.6676 15.18ZM58.0865 19.896C58.1465 20.82 58.4105 21.516 58.8785 21.984C59.3585 22.44 59.9585 22.668 60.6785 22.668C61.1225 22.668 61.5425 22.602 61.9385 22.47C62.3465 22.326 62.7605 22.116 63.1805 21.84L64.0445 23.064C63.6005 23.436 63.0785 23.724 62.4785 23.928C61.8785 24.132 61.2485 24.234 60.5885 24.234C59.1365 24.234 58.0085 23.784 57.2045 22.884C56.4005 21.972 55.9985 20.76 55.9985 19.248C55.9985 18.3 56.1725 17.448 56.5205 16.692C56.8685 15.924 57.3725 15.324 58.0325 14.892C58.6925 14.46 59.4605 14.244 60.3365 14.244C61.5965 14.244 62.5925 14.67 63.3245 15.522C64.0685 16.362 64.4405 17.52 64.4405 18.996C64.4405 19.356 64.4225 19.656 64.3865 19.896H58.0865ZM60.3545 15.738C59.7065 15.738 59.1785 15.972 58.7705 16.44C58.3625 16.908 58.1285 17.604 58.0685 18.528H62.4785C62.4545 17.628 62.2625 16.938 61.9025 16.458C61.5425 15.978 61.0265 15.738 60.3545 15.738ZM74.4775 21.678C74.4775 22.038 74.5315 22.308 74.6395 22.488C74.7475 22.656 74.9335 22.782 75.1975 22.866L74.7295 24.234C73.7335 24.114 73.0795 23.676 72.7675 22.92C72.4195 23.352 71.9815 23.682 71.4535 23.91C70.9375 24.126 70.3675 24.234 69.7435 24.234C68.7835 24.234 68.0215 23.964 67.4575 23.424C66.8935 22.884 66.6115 22.17 66.6115 21.282C66.6115 20.286 67.0015 19.518 67.7815 18.978C68.5735 18.438 69.6895 18.168 71.1295 18.168H72.4795V17.556C72.4795 16.956 72.2995 16.518 71.9395 16.242C71.5795 15.966 71.0575 15.828 70.3735 15.828C70.0375 15.828 69.6475 15.87 69.2035 15.954C68.7595 16.038 68.3095 16.158 67.8535 16.314L67.3495 14.892C68.4895 14.46 69.5995 14.244 70.6795 14.244C71.9395 14.244 72.8875 14.52 73.5235 15.072C74.1595 15.624 74.4775 16.41 74.4775 17.43V21.678ZM70.3375 22.758C70.7575 22.758 71.1595 22.65 71.5435 22.434C71.9395 22.218 72.2515 21.918 72.4795 21.534V19.428H71.3635C70.4515 19.428 69.7855 19.584 69.3655 19.896C68.9455 20.196 68.7355 20.634 68.7355 21.21C68.7355 21.714 68.8675 22.098 69.1315 22.362C69.4075 22.626 69.8095 22.758 70.3375 22.758ZM82.5885 22.578C83.3445 22.578 84.1245 22.308 84.9285 21.768L85.8465 23.064C85.4265 23.424 84.9225 23.712 84.3345 23.928C83.7465 24.132 83.1405 24.234 82.5165 24.234C81.0645 24.234 79.9305 23.79 79.1145 22.902C78.2985 22.002 77.8905 20.802 77.8905 19.302C77.8905 18.33 78.0765 17.466 78.4485 16.71C78.8205 15.942 79.3545 15.342 80.0505 14.91C80.7585 14.466 81.5925 14.244 82.5525 14.244C83.8125 14.244 84.9105 14.628 85.8465 15.396L84.9105 16.656C84.1425 16.128 83.3685 15.864 82.5885 15.864C81.7965 15.864 81.1725 16.152 80.7165 16.728C80.2605 17.292 80.0325 18.15 80.0325 19.302C80.0325 20.43 80.2605 21.258 80.7165 21.786C81.1725 22.314 81.7965 22.578 82.5885 22.578ZM96.7295 23.496C96.3695 23.724 95.9495 23.904 95.4695 24.036C94.9895 24.168 94.4855 24.234 93.9575 24.234C92.8775 24.234 92.0435 23.958 91.4555 23.406C90.8675 22.842 90.5735 22.08 90.5735 21.12V15.972H88.4675V14.496H90.5735V12.372L92.5895 12.138V14.496H95.8115L95.5775 15.972H92.5895V21.102C92.5895 21.618 92.7215 22.002 92.9855 22.254C93.2495 22.494 93.6695 22.614 94.2455 22.614C94.8815 22.614 95.4695 22.464 96.0095 22.164L96.7295 23.496Z" fill="#F5F5F5"/>
<rect x="1" y="1" width="108" height="34" rx="3" stroke="#484848" stroke-width="2"/>
</svg>
