<svg width="110" height="34" viewBox="0 0 110 34" fill="none" xmlns="http://www.w3.org/2000/svg">
<rect x="1" y="1" width="108" height="32" rx="3" fill="#0D1117"/>
<path d="M26.1033 21.2151C26.1598 21.2186 26.2207 21.2258 26.2816 21.2258C27.1442 21.2267 28.0077 21.2215 28.8702 21.2301C29.0592 21.232 29.1157 21.1675 29.106 20.9865C29.0936 20.7507 29.1033 20.5141 29.1033 20.2228C30.0824 20.9432 31.0288 21.6389 32 22.354C31.0359 23.0639 30.0895 23.7605 29.1033 24.4871C29.1033 24.2125 29.1033 23.9856 29.1033 23.7587C29.1033 23.4656 29.1033 23.4647 28.8181 23.4647C23.3028 23.4647 17.7866 23.4647 12.2713 23.4647C12.0046 23.4647 12.0046 23.4647 12.0046 23.1963C12.0046 22.6145 12.0126 22.0327 12.0002 21.4517C11.9958 21.2628 12.0567 21.2204 12.2377 21.2213C15.2033 21.2266 18.1689 21.231 21.1345 21.2231C22.6548 21.2188 23.8546 20.5892 24.6483 19.2791C26.0803 16.9129 24.5874 13.8141 21.8434 13.415C19.7245 13.1069 17.7548 14.5292 17.3955 16.6843C17.3575 16.9085 17.3549 17.139 17.3328 17.4091C17.6798 17.3623 17.9941 17.3191 18.3499 17.2714C17.7928 18.3485 17.2551 19.3885 16.7095 20.4427C15.8734 19.581 15.0497 18.7325 14.2445 17.9026C14.4467 17.8691 14.7151 17.8302 14.9808 17.7746C15.0311 17.764 15.1053 17.6828 15.1035 17.636C15.0885 17.0719 15.1274 16.5139 15.2377 15.9603C15.2413 15.9435 15.2333 15.9241 15.228 15.8914C14.6895 15.7996 14.1897 15.6054 13.7368 15.2929C12.6297 14.5265 12.0505 13.1007 12.3225 11.8011C12.6182 10.385 13.6865 9.32638 15.0673 9.06505C15.9626 8.89642 16.7925 9.05705 17.5632 9.53033C17.6992 9.6142 17.7822 9.62656 17.8713 9.4809C17.9234 9.39526 18.002 9.3264 18.0921 9.22221C18.2042 9.67425 18.3092 10.0971 18.4134 10.52C18.4487 10.6622 18.4761 10.807 18.5176 10.9474C18.5626 11.0992 18.5167 11.1672 18.356 11.1566C17.8916 11.1248 17.4264 11.0966 16.962 11.0657C16.8472 11.0577 16.7333 11.0454 16.5859 11.0312C16.7006 10.8864 16.8048 10.7567 16.9187 10.6145C16.668 10.4238 16.3917 10.3284 16.1038 10.2816C14.7124 10.0538 13.4861 11.123 13.5144 12.5312C13.5356 13.6118 14.4467 14.5777 15.5229 14.6695C15.6624 14.681 15.711 14.6104 15.7648 14.5062C16.5276 13.0424 17.6762 12.0076 19.2389 11.4691C22.8543 10.2225 26.6286 12.4561 27.3252 16.1121C27.6686 17.9123 27.2775 19.5562 26.1854 21.0297C26.1554 21.0703 26.128 21.1136 26.1015 21.1569C26.0962 21.1649 26.1034 21.1807 26.1077 21.2143L26.1033 21.2151Z" fill="#009FDA"/>
<path d="M53.8996 19.49C53.8996 20.234 53.7076 20.888 53.3236 21.452C52.9516 22.016 52.4056 22.454 51.6856 22.766C50.9776 23.078 50.1316 23.234 49.1476 23.234C47.2276 23.234 45.7036 22.682 44.5756 21.578L45.7276 20.3C46.6636 21.164 47.8036 21.596 49.1476 21.596C49.8916 21.596 50.5036 21.422 50.9836 21.074C51.4756 20.726 51.7216 20.234 51.7216 19.598C51.7216 19.226 51.6436 18.914 51.4876 18.662C51.3436 18.41 51.0916 18.188 50.7316 17.996C50.3716 17.792 49.8556 17.588 49.1836 17.384C47.8036 16.976 46.7896 16.49 46.1416 15.926C45.4936 15.362 45.1696 14.618 45.1696 13.694C45.1696 13.034 45.3496 12.452 45.7096 11.948C46.0816 11.432 46.5916 11.036 47.2396 10.76C47.8876 10.472 48.6196 10.328 49.4356 10.328C51.1036 10.328 52.4896 10.826 53.5936 11.822L52.4956 13.064C51.6436 12.332 50.6656 11.966 49.5616 11.966C48.8896 11.966 48.3436 12.104 47.9236 12.38C47.5156 12.656 47.3116 13.052 47.3116 13.568C47.3116 13.892 47.3956 14.168 47.5636 14.396C47.7436 14.624 48.0376 14.834 48.4456 15.026C48.8656 15.206 49.4536 15.41 50.2096 15.638C51.4096 15.998 52.3216 16.46 52.9456 17.024C53.5816 17.588 53.8996 18.41 53.8996 19.49ZM61.0025 21.578C61.7585 21.578 62.5385 21.308 63.3425 20.768L64.2605 22.064C63.8405 22.424 63.3365 22.712 62.7485 22.928C62.1605 23.132 61.5545 23.234 60.9305 23.234C59.4785 23.234 58.3445 22.79 57.5285 21.902C56.7125 21.002 56.3045 19.802 56.3045 18.302C56.3045 17.33 56.4905 16.466 56.8625 15.71C57.2345 14.942 57.7685 14.342 58.4645 13.91C59.1725 13.466 60.0065 13.244 60.9665 13.244C62.2265 13.244 63.3245 13.628 64.2605 14.396L63.3245 15.656C62.5565 15.128 61.7825 14.864 61.0025 14.864C60.2105 14.864 59.5865 15.152 59.1305 15.728C58.6745 16.292 58.4465 17.15 58.4465 18.302C58.4465 19.43 58.6745 20.258 59.1305 20.786C59.5865 21.314 60.2105 21.578 61.0025 21.578ZM73.9375 13.262C74.4295 13.262 74.9095 13.34 75.3775 13.496L75.0355 17.006H73.5955V15.062C72.9355 15.074 72.3595 15.338 71.8675 15.854C71.3875 16.37 71.0035 17.096 70.7155 18.032V21.56H72.6235V23H67.2955V21.56H68.6995V14.936H67.2955V13.496H70.2295L70.5895 15.692C70.9615 14.876 71.4115 14.27 71.9395 13.874C72.4795 13.466 73.1455 13.262 73.9375 13.262ZM80.0145 20.138C80.0145 20.69 80.1225 21.092 80.3385 21.344C80.5665 21.584 80.9085 21.704 81.3645 21.704C81.7965 21.704 82.2105 21.578 82.6065 21.326C83.0145 21.074 83.3385 20.756 83.5785 20.372V13.496H85.5945V23H83.8485L83.7225 21.776C83.3865 22.244 82.9485 22.604 82.4085 22.856C81.8685 23.108 81.3105 23.234 80.7345 23.234C79.8225 23.234 79.1385 22.988 78.6825 22.496C78.2265 22.004 77.9985 21.302 77.9985 20.39V13.496H80.0145V20.138ZM95.3435 13.244C95.9315 13.244 96.3935 13.448 96.7295 13.856C97.0655 14.264 97.2335 14.96 97.2335 15.944V23H95.4515V16.214C95.4515 15.686 95.4095 15.32 95.3255 15.116C95.2535 14.912 95.0855 14.81 94.8215 14.81C94.3175 14.81 93.8495 15.128 93.4175 15.764V23H91.7795V16.214C91.7795 15.686 91.7375 15.32 91.6535 15.116C91.5815 14.912 91.4135 14.81 91.1495 14.81C90.6455 14.81 90.1775 15.128 89.7455 15.764V23H87.9455V13.496H89.4575L89.6015 14.522C89.9015 14.102 90.2075 13.784 90.5195 13.568C90.8315 13.352 91.2035 13.244 91.6355 13.244C92.4755 13.244 93.0155 13.646 93.2555 14.45C93.5435 14.066 93.8555 13.772 94.1915 13.568C94.5275 13.352 94.9115 13.244 95.3435 13.244Z" fill="#F5F5F5"/>
<rect x="1" y="1" width="108" height="32" rx="3" stroke="#484848" stroke-width="2"/>
</svg>
