<svg width="100" height="36" viewBox="0 0 100 36" fill="none" xmlns="http://www.w3.org/2000/svg">
<rect x="1" y="1" width="98" height="34" rx="3" fill="#0D1117"/>
<path d="M22 8C27.5225 8 32 12.4775 32 18C32 23.5225 27.5225 28 22 28C16.4775 28 12 23.5225 12 18C12 12.4775 16.4775 8 22 8ZM20.0125 21.3317C20.1583 21.8692 20.1425 22.3717 19.9925 22.825L19.9383 22.975C19.9183 23.0258 19.895 23.075 19.8733 23.1217C19.7567 23.3633 19.6017 23.5883 19.4108 23.7967C18.8292 24.4292 18.0175 24.6692 17.6692 24.4675C17.2942 24.2492 17.4808 23.355 18.1558 22.6425C18.8817 21.8775 19.9225 21.385 19.9225 21.385V21.3825L20.0125 21.3317V21.3317ZM28.2717 12.2808C27.82 10.5033 24.8742 9.91917 22.0867 10.91C20.4292 11.4992 18.6333 12.425 17.3425 13.6325C15.8067 15.0667 15.5625 16.3167 15.6633 16.8392C16.0192 18.6817 18.5442 19.8867 19.5825 20.7808V20.7858C19.2767 20.9358 17.0358 22.06 16.5108 23.2233C15.9483 24.4483 16.5983 25.3242 17.0233 25.4358C18.3358 25.7992 19.6858 25.1358 20.4108 24.0617C21.1108 23.0108 21.0492 21.6608 20.7475 20.9983C21.1608 20.8858 21.6475 20.8358 22.2725 20.9117C24.0233 21.1117 24.3733 22.2117 24.2975 22.6617C24.2225 23.1108 23.8617 23.3733 23.7358 23.4483C23.6108 23.5242 23.5733 23.5483 23.585 23.5992C23.5975 23.6742 23.6608 23.6742 23.76 23.6617C23.8975 23.6367 24.6733 23.2867 24.7108 22.4358C24.7483 21.3608 23.7225 20.1617 21.8983 20.1858C21.1483 20.1992 20.6725 20.2617 20.3358 20.3992C20.3108 20.3617 20.285 20.3367 20.2483 20.3117C19.1233 19.0992 17.0358 18.2492 17.1233 16.6367C17.1483 16.0492 17.3608 14.5 21.1233 12.625C24.2108 11.0867 26.6742 11.5125 27.0992 12.45C27.71 13.7867 25.7858 16.275 22.5733 16.6367C21.3483 16.7742 20.7108 16.3 20.5475 16.1242C20.3733 15.9367 20.3483 15.9242 20.2858 15.9625C20.1858 16.0125 20.2483 16.175 20.2858 16.275C20.3858 16.525 20.7733 16.9625 21.4492 17.1875C22.0358 17.375 23.4742 17.4867 25.1992 16.8125C27.1358 16.0633 28.6483 13.975 28.2108 12.225L28.2717 12.2808V12.2808Z" fill="#CC6699"/>
<path d="M54.2961 20.49C54.2961 21.234 54.1041 21.888 53.7201 22.452C53.3481 23.016 52.8021 23.454 52.0821 23.766C51.3741 24.078 50.5281 24.234 49.5441 24.234C47.6241 24.234 46.1001 23.682 44.9721 22.578L46.1241 21.3C47.0601 22.164 48.2001 22.596 49.5441 22.596C50.2881 22.596 50.9001 22.422 51.3801 22.074C51.8721 21.726 52.1181 21.234 52.1181 20.598C52.1181 20.226 52.0401 19.914 51.8841 19.662C51.7401 19.41 51.4881 19.188 51.1281 18.996C50.7681 18.792 50.2521 18.588 49.5801 18.384C48.2001 17.976 47.1861 17.49 46.5381 16.926C45.8901 16.362 45.5661 15.618 45.5661 14.694C45.5661 14.034 45.7461 13.452 46.1061 12.948C46.4781 12.432 46.9881 12.036 47.6361 11.76C48.2841 11.472 49.0161 11.328 49.8321 11.328C51.5001 11.328 52.8861 11.826 53.9901 12.822L52.8921 14.064C52.0401 13.332 51.0621 12.966 49.9581 12.966C49.2861 12.966 48.7401 13.104 48.3201 13.38C47.9121 13.656 47.7081 14.052 47.7081 14.568C47.7081 14.892 47.7921 15.168 47.9601 15.396C48.1401 15.624 48.4341 15.834 48.8421 16.026C49.2621 16.206 49.8501 16.41 50.6061 16.638C51.8061 16.998 52.7181 17.46 53.3421 18.024C53.9781 18.588 54.2961 19.41 54.2961 20.49ZM61.651 11.328C62.467 11.328 63.163 11.43 63.739 11.634C64.315 11.838 64.867 12.156 65.395 12.588L64.315 13.884C63.559 13.272 62.701 12.966 61.741 12.966C60.733 12.966 59.911 13.356 59.275 14.136C58.639 14.904 58.321 16.116 58.321 17.772C58.321 19.404 58.633 20.61 59.257 21.39C59.881 22.158 60.715 22.542 61.759 22.542C62.359 22.542 62.869 22.452 63.289 22.272C63.721 22.08 64.147 21.816 64.567 21.48L65.575 22.758C64.567 23.742 63.271 24.234 61.687 24.234C60.619 24.234 59.665 23.988 58.825 23.496C57.985 22.992 57.325 22.254 56.845 21.282C56.377 20.31 56.143 19.14 56.143 17.772C56.143 16.428 56.383 15.27 56.863 14.298C57.355 13.326 58.021 12.588 58.861 12.084C59.701 11.58 60.631 11.328 61.651 11.328ZM75.882 20.49C75.882 21.234 75.69 21.888 75.306 22.452C74.934 23.016 74.388 23.454 73.668 23.766C72.96 24.078 72.114 24.234 71.13 24.234C69.21 24.234 67.686 23.682 66.558 22.578L67.71 21.3C68.646 22.164 69.786 22.596 71.13 22.596C71.874 22.596 72.486 22.422 72.966 22.074C73.458 21.726 73.704 21.234 73.704 20.598C73.704 20.226 73.626 19.914 73.47 19.662C73.326 19.41 73.074 19.188 72.714 18.996C72.354 18.792 71.838 18.588 71.166 18.384C69.786 17.976 68.772 17.49 68.124 16.926C67.476 16.362 67.152 15.618 67.152 14.694C67.152 14.034 67.332 13.452 67.692 12.948C68.064 12.432 68.574 12.036 69.222 11.76C69.87 11.472 70.602 11.328 71.418 11.328C73.086 11.328 74.472 11.826 75.576 12.822L74.478 14.064C73.626 13.332 72.648 12.966 71.544 12.966C70.872 12.966 70.326 13.104 69.906 13.38C69.498 13.656 69.294 14.052 69.294 14.568C69.294 14.892 69.378 15.168 69.546 15.396C69.726 15.624 70.02 15.834 70.428 16.026C70.848 16.206 71.436 16.41 72.192 16.638C73.392 16.998 74.304 17.46 74.928 18.024C75.564 18.588 75.882 19.41 75.882 20.49ZM86.675 20.49C86.675 21.234 86.483 21.888 86.099 22.452C85.727 23.016 85.181 23.454 84.461 23.766C83.753 24.078 82.907 24.234 81.923 24.234C80.003 24.234 78.479 23.682 77.351 22.578L78.503 21.3C79.439 22.164 80.579 22.596 81.923 22.596C82.667 22.596 83.279 22.422 83.759 22.074C84.251 21.726 84.497 21.234 84.497 20.598C84.497 20.226 84.419 19.914 84.263 19.662C84.119 19.41 83.867 19.188 83.507 18.996C83.147 18.792 82.631 18.588 81.959 18.384C80.579 17.976 79.565 17.49 78.917 16.926C78.269 16.362 77.945 15.618 77.945 14.694C77.945 14.034 78.125 13.452 78.485 12.948C78.857 12.432 79.367 12.036 80.015 11.76C80.663 11.472 81.395 11.328 82.211 11.328C83.879 11.328 85.265 11.826 86.369 12.822L85.271 14.064C84.419 13.332 83.441 12.966 82.337 12.966C81.665 12.966 81.119 13.104 80.699 13.38C80.291 13.656 80.087 14.052 80.087 14.568C80.087 14.892 80.171 15.168 80.339 15.396C80.519 15.624 80.813 15.834 81.221 16.026C81.641 16.206 82.229 16.41 82.985 16.638C84.185 16.998 85.097 17.46 85.721 18.024C86.357 18.588 86.675 19.41 86.675 20.49Z" fill="#F5F5F5"/>
<rect x="1" y="1" width="98" height="34" rx="3" stroke="#484848" stroke-width="2"/>
</svg>
