<svg width="186" height="36" viewBox="0 0 186 36" fill="none" xmlns="http://www.w3.org/2000/svg">
<rect x="1" y="1" width="184" height="34" rx="3" fill="#0D1117"/>
<path d="M29.5317 12.0833L23.2175 8.335C22.8408 8.11167 22.4208 8 22 8C21.5792 8 21.1592 8.11167 20.7817 8.33583L14.4675 12.0833C13.7142 12.5308 13.25 13.3575 13.25 14.2525V21.7483C13.25 22.6425 13.7142 23.47 14.4683 23.9175L20.7825 27.665C21.1592 27.8883 21.5792 28 22 28C22.4208 28 22.8408 27.8883 23.2175 27.665L29.5317 23.9175C30.285 23.47 30.75 22.6433 30.75 21.7483V14.2525C30.75 13.3575 30.2858 12.5308 29.5317 12.0833ZM24.6417 23.7883L24.6525 24.3267C24.6533 24.3917 24.6108 24.4658 24.56 24.4917L24.2408 24.675C24.19 24.7008 24.1483 24.6692 24.1475 24.6042L24.1417 24.075C23.8683 24.1883 23.5917 24.2158 23.415 24.145C23.3817 24.1317 23.3675 24.0825 23.3808 24.0267L23.4967 23.54C23.5058 23.5017 23.5267 23.4633 23.5542 23.4392C23.5642 23.43 23.5742 23.4225 23.5842 23.4175C23.6025 23.4083 23.62 23.4058 23.6358 23.4125C23.8267 23.4767 24.07 23.4467 24.3042 23.3283C24.6017 23.1775 24.8008 22.8742 24.7975 22.5725C24.795 22.2992 24.6467 22.185 24.2867 22.1825C23.8283 22.1833 23.4 22.0933 23.3933 21.4183C23.3875 20.8625 23.6767 20.2842 24.1342 19.9183L24.1283 19.375C24.1275 19.3083 24.1683 19.235 24.2208 19.2083L24.5292 19.0117C24.58 18.9858 24.6217 19.0175 24.6225 19.0842L24.6275 19.6283C24.855 19.5375 25.0533 19.5133 25.2325 19.555C25.2717 19.565 25.2883 19.6183 25.2725 19.6808L25.1525 20.1625C25.1433 20.1992 25.1225 20.2358 25.0983 20.2592C25.0883 20.2692 25.0775 20.2767 25.0667 20.2825C25.0508 20.2908 25.035 20.2933 25.0192 20.29C24.9375 20.2717 24.7425 20.2292 24.4367 20.3842C24.1158 20.5467 24.0033 20.8258 24.0058 21.0325C24.0083 21.28 24.135 21.355 24.5733 21.3625C25.1567 21.3725 25.4092 21.6275 25.415 22.215C25.4208 22.7892 25.1133 23.4092 24.6417 23.7883ZM27.9525 22.8825C27.9525 22.9325 27.9458 22.9792 27.9042 23.0033L26.3075 23.9733C26.2658 23.9975 26.2325 23.9767 26.2325 23.9267V23.515C26.2325 23.465 26.2633 23.4375 26.305 23.4133L27.8775 22.4725C27.9192 22.4483 27.9525 22.4692 27.9525 22.5192V22.8825ZM29.0492 13.6642L23.0758 17.3533C22.3308 17.7892 21.7817 18.2775 21.7817 19.1758V26.5367C21.7817 27.0742 21.9983 27.4225 22.3317 27.5233C22.2225 27.5425 22.1117 27.5558 22 27.5558C21.65 27.5558 21.3058 27.4608 21.0025 27.2808L14.6883 23.5333C14.0708 23.1667 13.6875 22.4825 13.6875 21.7483V14.2525C13.6875 13.5183 14.0708 12.8342 14.6883 12.4675L21.0025 8.71917C21.305 8.53917 21.65 8.44417 22 8.44417C22.3492 8.44417 22.6942 8.53917 22.9975 8.71917L29.3117 12.4675C29.8317 12.7767 30.1833 13.3117 30.2817 13.9108C30.0717 13.4642 29.6 13.3425 29.0492 13.6642Z" fill="#4EAA25"/>
<path d="M54.1242 20.49C54.1242 21.234 53.9322 21.888 53.5482 22.452C53.1762 23.016 52.6302 23.454 51.9102 23.766C51.2022 24.078 50.3562 24.234 49.3722 24.234C47.4522 24.234 45.9282 23.682 44.8002 22.578L45.9522 21.3C46.8882 22.164 48.0282 22.596 49.3722 22.596C50.1162 22.596 50.7282 22.422 51.2082 22.074C51.7002 21.726 51.9462 21.234 51.9462 20.598C51.9462 20.226 51.8682 19.914 51.7122 19.662C51.5682 19.41 51.3162 19.188 50.9562 18.996C50.5962 18.792 50.0802 18.588 49.4082 18.384C48.0282 17.976 47.0142 17.49 46.3662 16.926C45.7182 16.362 45.3942 15.618 45.3942 14.694C45.3942 14.034 45.5742 13.452 45.9342 12.948C46.3062 12.432 46.8162 12.036 47.4642 11.76C48.1122 11.472 48.8442 11.328 49.6602 11.328C51.3282 11.328 52.7142 11.826 53.8182 12.822L52.7202 14.064C51.8682 13.332 50.8902 12.966 49.7862 12.966C49.1142 12.966 48.5682 13.104 48.1482 13.38C47.7402 13.656 47.5362 14.052 47.5362 14.568C47.5362 14.892 47.6202 15.168 47.7882 15.396C47.9682 15.624 48.2622 15.834 48.6702 16.026C49.0902 16.206 49.6782 16.41 50.4342 16.638C51.6342 16.998 52.5462 17.46 53.1702 18.024C53.8062 18.588 54.1242 19.41 54.1242 20.49ZM58.6532 15.666C59.0372 15.198 59.4812 14.844 59.9852 14.604C60.5012 14.364 61.0412 14.244 61.6052 14.244C62.4812 14.244 63.1412 14.49 63.5852 14.982C64.0292 15.462 64.2512 16.158 64.2512 17.07V24H62.2352V17.376C62.2352 16.812 62.1272 16.41 61.9112 16.17C61.6952 15.918 61.3472 15.792 60.8672 15.792C60.4472 15.792 60.0392 15.93 59.6432 16.206C59.2592 16.47 58.9292 16.8 58.6532 17.196V24H56.6372V10.698L58.6532 10.482V15.666ZM69.1041 19.896C69.1641 20.82 69.4281 21.516 69.8961 21.984C70.3761 22.44 70.9761 22.668 71.6961 22.668C72.1401 22.668 72.5601 22.602 72.9561 22.47C73.3641 22.326 73.7781 22.116 74.1981 21.84L75.0621 23.064C74.6181 23.436 74.0961 23.724 73.4961 23.928C72.8961 24.132 72.2661 24.234 71.6061 24.234C70.1541 24.234 69.0261 23.784 68.2221 22.884C67.4181 21.972 67.0161 20.76 67.0161 19.248C67.0161 18.3 67.1901 17.448 67.5381 16.692C67.8861 15.924 68.3901 15.324 69.0501 14.892C69.7101 14.46 70.4781 14.244 71.3541 14.244C72.6141 14.244 73.6101 14.67 74.3421 15.522C75.0861 16.362 75.4581 17.52 75.4581 18.996C75.4581 19.356 75.4401 19.656 75.4041 19.896H69.1041ZM71.3721 15.738C70.7241 15.738 70.1961 15.972 69.7881 16.44C69.3801 16.908 69.1461 17.604 69.0861 18.528H73.4961C73.4721 17.628 73.2801 16.938 72.9201 16.458C72.5601 15.978 72.0441 15.738 71.3721 15.738ZM82.3991 21.408C82.3991 22.212 82.8791 22.614 83.8391 22.614C84.3191 22.614 84.8231 22.506 85.3511 22.29L85.8551 23.694C85.1951 24.054 84.3791 24.234 83.4071 24.234C82.4591 24.234 81.7151 23.97 81.1751 23.442C80.6471 22.902 80.3831 22.164 80.3831 21.228V12.156H77.5211V10.68H82.3991V21.408ZM93.1921 21.408C93.1921 22.212 93.6721 22.614 94.6321 22.614C95.1121 22.614 95.6161 22.506 96.1441 22.29L96.6481 23.694C95.9881 24.054 95.1721 24.234 94.2001 24.234C93.2521 24.234 92.5081 23.97 91.9681 23.442C91.4401 22.902 91.1761 22.164 91.1761 21.228V12.156H88.3141V10.68H93.1921V21.408ZM118.882 20.49C118.882 21.234 118.69 21.888 118.306 22.452C117.934 23.016 117.388 23.454 116.668 23.766C115.96 24.078 115.114 24.234 114.13 24.234C112.21 24.234 110.686 23.682 109.558 22.578L110.71 21.3C111.646 22.164 112.786 22.596 114.13 22.596C114.874 22.596 115.486 22.422 115.966 22.074C116.458 21.726 116.704 21.234 116.704 20.598C116.704 20.226 116.626 19.914 116.47 19.662C116.326 19.41 116.074 19.188 115.714 18.996C115.354 18.792 114.838 18.588 114.166 18.384C112.786 17.976 111.772 17.49 111.124 16.926C110.476 16.362 110.152 15.618 110.152 14.694C110.152 14.034 110.332 13.452 110.692 12.948C111.064 12.432 111.574 12.036 112.222 11.76C112.87 11.472 113.602 11.328 114.418 11.328C116.086 11.328 117.472 11.826 118.576 12.822L117.478 14.064C116.626 13.332 115.648 12.966 114.544 12.966C113.872 12.966 113.326 13.104 112.906 13.38C112.498 13.656 112.294 14.052 112.294 14.568C112.294 14.892 112.378 15.168 112.546 15.396C112.726 15.624 113.02 15.834 113.428 16.026C113.848 16.206 114.436 16.41 115.192 16.638C116.392 16.998 117.304 17.46 117.928 18.024C118.564 18.588 118.882 19.41 118.882 20.49ZM125.985 22.578C126.741 22.578 127.521 22.308 128.325 21.768L129.243 23.064C128.823 23.424 128.319 23.712 127.731 23.928C127.143 24.132 126.537 24.234 125.913 24.234C124.461 24.234 123.327 23.79 122.511 22.902C121.695 22.002 121.287 20.802 121.287 19.302C121.287 18.33 121.473 17.466 121.845 16.71C122.217 15.942 122.751 15.342 123.447 14.91C124.155 14.466 124.989 14.244 125.949 14.244C127.209 14.244 128.307 14.628 129.243 15.396L128.307 16.656C127.539 16.128 126.765 15.864 125.985 15.864C125.193 15.864 124.569 16.152 124.113 16.728C123.657 17.292 123.429 18.15 123.429 19.302C123.429 20.43 123.657 21.258 124.113 21.786C124.569 22.314 125.193 22.578 125.985 22.578ZM138.92 14.262C139.412 14.262 139.892 14.34 140.36 14.496L140.018 18.006H138.578V16.062C137.918 16.074 137.342 16.338 136.85 16.854C136.37 17.37 135.986 18.096 135.698 19.032V22.56H137.606V24H132.278V22.56H133.682V15.936H132.278V14.496H135.212L135.572 16.692C135.944 15.876 136.394 15.27 136.922 14.874C137.462 14.466 138.128 14.262 138.92 14.262ZM146.779 9.834C147.163 9.834 147.475 9.96 147.715 10.212C147.967 10.452 148.093 10.752 148.093 11.112C148.093 11.472 147.967 11.772 147.715 12.012C147.475 12.252 147.163 12.372 146.779 12.372C146.383 12.372 146.065 12.252 145.825 12.012C145.585 11.772 145.465 11.472 145.465 11.112C145.465 10.74 145.585 10.434 145.825 10.194C146.077 9.954 146.395 9.834 146.779 9.834ZM148.165 22.524H150.757V24H143.323V22.524H146.149V15.972H143.413V14.496H148.165V22.524ZM158.418 14.244C160.722 14.244 161.874 15.906 161.874 19.23C161.874 20.73 161.556 21.942 160.92 22.866C160.284 23.778 159.378 24.234 158.202 24.234C157.206 24.234 156.402 23.886 155.79 23.19V27.654L153.774 27.888V14.496H155.52L155.646 15.72C156.006 15.24 156.42 14.874 156.888 14.622C157.368 14.37 157.878 14.244 158.418 14.244ZM157.86 15.792C157.44 15.792 157.056 15.918 156.708 16.17C156.36 16.422 156.054 16.752 155.79 17.16V21.606C156.258 22.314 156.882 22.668 157.662 22.668C158.358 22.668 158.88 22.392 159.228 21.84C159.576 21.288 159.75 20.424 159.75 19.248C159.75 18.036 159.594 17.16 159.282 16.62C158.97 16.068 158.496 15.792 157.86 15.792ZM172.505 23.496C172.145 23.724 171.725 23.904 171.245 24.036C170.765 24.168 170.261 24.234 169.733 24.234C168.653 24.234 167.819 23.958 167.231 23.406C166.643 22.842 166.349 22.08 166.349 21.12V15.972H164.243V14.496H166.349V12.372L168.365 12.138V14.496H171.587L171.353 15.972H168.365V21.102C168.365 21.618 168.497 22.002 168.761 22.254C169.025 22.494 169.445 22.614 170.021 22.614C170.657 22.614 171.245 22.464 171.785 22.164L172.505 23.496Z" fill="#F5F5F5"/>
<rect x="1" y="1" width="184" height="34" rx="3" stroke="#484848" stroke-width="2"/>
</svg>
