<svg width="100" height="34" viewBox="0 0 100 34" fill="none" xmlns="http://www.w3.org/2000/svg">
<rect x="1" y="1" width="98" height="32" rx="3" fill="#0D1117"/>
<path d="M30.5128 8H15.5779C15.0317 8 14.5323 8.29538 14.267 8.74623C13.9861 9.21262 13.9705 9.78783 14.2202 10.2542L15.7184 13.0837H13.0029C12.6596 13.0837 12.3319 13.2547 12.1446 13.5501C11.9574 13.8454 11.9573 14.2186 12.1134 14.5295L16.92 23.5775C17.0917 23.9039 17.435 24.106 17.794 24.106C18.1529 24.106 18.4962 23.9039 18.6679 23.5775L19.9788 21.1211L21.6174 24.2149C21.8827 24.7124 22.4133 25.0233 22.9752 25.0233C23.537 25.0233 24.0676 24.7124 24.3329 24.2149L31.8237 10.1765C32.0734 9.7101 32.0578 9.15043 31.7769 8.71513C31.5272 8.26429 31.0434 8 30.5128 8ZM23.8335 13.9232L20.5562 20.0484C20.447 20.2661 20.2285 20.3905 19.9788 20.3905C19.7291 20.3905 19.5106 20.2505 19.4014 20.0484L16.171 13.9854C16.0773 13.7988 16.0773 13.5812 16.1866 13.3946C16.2958 13.208 16.4987 13.0992 16.7016 13.0992H23.3185C23.5214 13.0992 23.7086 13.1925 23.8023 13.3635C23.9271 13.5345 23.9271 13.7522 23.8335 13.9232Z" fill="#F71963"/>
<path d="M52.8201 10.58H54.9441L51.0021 23H48.6261L44.6841 10.58H46.9161L49.8501 21.02L52.8201 10.58ZM61.633 23H59.545V12.272H55.801V10.58H65.431L65.215 12.272H61.633V23ZM70.122 15.908H74.622V17.474H70.122V21.416H75.612V23H68.034V10.58H75.504L75.27 12.164H70.122V15.908ZM79.799 10.58L82.193 15.044L84.623 10.58H86.837L83.399 16.286L87.233 23H84.911L82.157 17.726L79.385 23H77.171L80.915 16.394L77.477 10.58H79.799Z" fill="#F5F5F5"/>
<rect x="1" y="1" width="98" height="32" rx="3" stroke="#484848" stroke-width="2"/>
</svg>
