<svg width="20" height="20" viewBox="0 0 20 20" fill="none" xmlns="http://www.w3.org/2000/svg">
<rect width="20" height="20" rx="1.5" fill="#EA4335"/>
<g clip-path="url(#clip0)">
<path d="M18 5.63798V14.9106C18 15.5133 17.512 16.0013 16.9093 16.0013H14.3633V9.81998L10 13.0933L5.63667 9.81998V16.002H3.09067C2.94738 16.002 2.8055 15.9737 2.67313 15.9189C2.54076 15.864 2.4205 15.7836 2.31921 15.6823C2.21793 15.5809 2.1376 15.4606 2.08283 15.3282C2.02806 15.1958 1.99991 15.0539 2 14.9106V5.63798C2 4.28931 3.53933 3.51931 4.618 4.32865L5.63667 5.09331L10 8.36531L14.3633 5.09198L15.382 4.32865C16.46 3.51998 18 4.28931 18 5.63798Z" fill="#F5F5F5"/>
</g>
<defs>
<clipPath id="clip0">
<rect width="16" height="16" fill="white" transform="translate(2 2)"/>
</clipPath>
</defs>
</svg>
