<svg width="20" height="20" viewBox="0 0 20 20" fill="none" xmlns="http://www.w3.org/2000/svg">
<rect width="20" height="20" rx="1.5" fill="#E4405F"/>
<path d="M10 2C7.82667 2 7.55533 2.01 6.702 2.048C5.85 2.088 5.27 2.222 4.76 2.42C4.234 2.624 3.78733 2.898 3.34267 3.34267C2.898 3.78733 2.62333 4.23333 2.42 4.76C2.222 5.27 2.08733 5.85 2.048 6.702C2.008 7.55533 2 7.82667 2 10C2 12.1733 2.01 12.4447 2.048 13.298C2.088 14.1493 2.222 14.73 2.42 15.24C2.624 15.7653 2.898 16.2127 3.34267 16.6573C3.78733 17.1013 4.23333 17.3767 4.76 17.58C5.27067 17.7773 5.85067 17.9127 6.702 17.952C7.55533 17.992 7.82667 18 10 18C12.1733 18 12.4447 17.99 13.298 17.952C14.1493 17.912 14.73 17.7773 15.24 17.58C15.7653 17.376 16.2127 17.1013 16.6573 16.6573C17.1013 16.2127 17.3767 15.7673 17.58 15.24C17.7773 14.73 17.9127 14.1493 17.952 13.298C17.992 12.4447 18 12.1733 18 10C18 7.82667 17.99 7.55533 17.952 6.702C17.912 5.85067 17.7773 5.26933 17.58 4.76C17.376 4.234 17.1013 3.78733 16.6573 3.34267C16.2127 2.898 15.7673 2.62333 15.24 2.42C14.73 2.222 14.1493 2.08733 13.298 2.048C12.4447 2.008 12.1733 2 10 2ZM10 3.44C12.1353 3.44 12.39 3.45067 13.2333 3.48733C14.0133 3.524 14.4367 3.65333 14.718 3.764C15.0927 3.90867 15.358 4.082 15.6393 4.36133C15.9187 4.64133 16.092 4.90733 16.2367 5.282C16.346 5.56333 16.4767 5.98667 16.512 6.76667C16.55 7.61067 16.5587 7.864 16.5587 10C16.5587 12.136 16.5487 12.39 16.5093 13.2333C16.4687 14.0133 16.3387 14.4367 16.2287 14.718C16.0793 15.0927 15.9093 15.358 15.6293 15.6393C15.35 15.9187 15.08 16.092 14.7093 16.2367C14.4293 16.346 13.9993 16.4767 13.2193 16.512C12.37 16.55 12.12 16.5587 9.98 16.5587C7.83933 16.5587 7.58933 16.5487 6.74067 16.5093C5.96 16.4687 5.53 16.3387 5.25 16.2287C4.87067 16.0793 4.61 15.9093 4.33067 15.6293C4.05 15.35 3.87067 15.08 3.73067 14.7093C3.62067 14.4293 3.49133 13.9993 3.45067 13.2193C3.42067 12.3793 3.41 12.12 3.41 9.99C3.41 7.85933 3.42067 7.59933 3.45067 6.74933C3.49133 5.96933 3.62067 5.54 3.73067 5.26C3.87067 4.88 4.05 4.62 4.33067 4.33933C4.61 4.06 4.87067 3.88 5.25 3.74067C5.53 3.63 5.95067 3.5 6.73067 3.46C7.58067 3.43 7.83067 3.42 9.97 3.42L10 3.44ZM10 5.892C7.73 5.892 5.892 7.732 5.892 10C5.892 12.27 7.732 14.108 10 14.108C12.27 14.108 14.108 12.268 14.108 10C14.108 7.73 12.268 5.892 10 5.892ZM10 12.6667C8.52667 12.6667 7.33333 11.4733 7.33333 10C7.33333 8.52667 8.52667 7.33333 10 7.33333C11.4733 7.33333 12.6667 8.52667 12.6667 10C12.6667 11.4733 11.4733 12.6667 10 12.6667ZM15.2307 5.73C15.2307 6.26 14.8 6.69 14.2707 6.69C13.7407 6.69 13.3107 6.25933 13.3107 5.73C13.3107 5.20067 13.7413 4.77067 14.2707 4.77067C14.7993 4.77 15.2307 5.20067 15.2307 5.73Z" fill="#F5F5F5"/>
</svg>
