<svg width="20" height="20" viewBox="0 0 20 20" fill="none" xmlns="http://www.w3.org/2000/svg">
<g clip-path="url(#clip0)">
<rect width="20" height="20" rx="1.5" fill="#26A5E4"/>
<g clip-path="url(#clip1)">
<rect x="-2" y="-2" width="24" height="24" rx="12" fill="white"/>
<path d="M9.944 -1.99997C6.77112 -1.98516 3.73324 -0.714344 1.4949 1.53449C-0.743443 3.78332 -2.00003 6.82711 -2 10C-2 13.1826 -0.735718 16.2349 1.51472 18.4853C3.76515 20.7358 6.8174 22 10 22C13.1826 22 16.2348 20.7358 18.4853 18.4853C20.7357 16.2349 22 13.1826 22 10C22 6.81744 20.7357 3.76519 18.4853 1.51475C16.2348 -0.735685 13.1826 -1.99997 10 -1.99997C9.98133 -2.00001 9.96267 -2.00001 9.944 -1.99997ZM14.906 5.22403C15.006 5.22203 15.227 5.24703 15.371 5.36403C15.4667 5.44713 15.5277 5.56311 15.542 5.68903C15.558 5.78203 15.578 5.99503 15.562 6.16103C15.382 8.05903 14.6 12.663 14.202 14.788C14.034 15.688 13.703 15.989 13.382 16.018C12.686 16.083 12.157 15.558 11.482 15.116C10.426 14.423 9.829 13.992 8.804 13.316C7.619 12.536 8.387 12.106 9.062 11.406C9.239 11.222 12.309 8.42903 12.369 8.17603C12.376 8.14403 12.383 8.02603 12.313 7.96403C12.243 7.90203 12.139 7.92303 12.064 7.94003C11.958 7.96403 10.271 9.08003 7.003 11.285C6.523 11.615 6.09 11.775 5.701 11.765C5.273 11.757 4.449 11.524 3.836 11.325C3.084 11.08 2.487 10.951 2.539 10.536C2.566 10.32 2.864 10.099 3.432 9.87303C6.93 8.34903 9.262 7.34403 10.43 6.85903C13.762 5.47303 14.455 5.23203 14.906 5.22403Z" fill="#26A5E4"/>
</g>
</g>
<defs>
<clipPath id="clip0">
<rect width="20" height="20" rx="1.5" fill="white"/>
</clipPath>
<clipPath id="clip1">
<rect x="-2" y="-2" width="24" height="24" rx="12" fill="white"/>
</clipPath>
</defs>
</svg>
