<svg width="20" height="20" viewBox="0 0 20 20" fill="none" xmlns="http://www.w3.org/2000/svg">
<rect width="20" height="20" rx="1.5" fill="#25D366"/>
<g clip-path="url(#clip0)">
<path d="M13.648 11.588C13.45 11.4887 12.476 11.01 12.2946 10.9434C12.1126 10.8774 11.9806 10.8447 11.848 11.0434C11.7166 11.2414 11.3366 11.6874 11.2213 11.8194C11.106 11.952 10.99 11.968 10.792 11.8694C10.594 11.7694 9.9553 11.5607 9.19863 10.886C8.60996 10.3607 8.21196 9.71203 8.09663 9.51336C7.9813 9.31536 8.08463 9.20803 8.1833 9.10936C8.27263 9.02069 8.38196 8.87803 8.48063 8.76269C8.57996 8.64669 8.61263 8.56403 8.6793 8.43136C8.7453 8.29936 8.71263 8.18403 8.66263 8.08469C8.61263 7.98536 8.21663 7.01003 8.05196 6.61336C7.89063 6.22736 7.7273 6.28003 7.60596 6.27336C7.49063 6.26803 7.35863 6.26669 7.22596 6.26669C7.09396 6.26669 6.8793 6.31603 6.69796 6.51469C6.51663 6.71269 6.00463 7.19203 6.00463 8.16736C6.00463 9.14203 6.71463 10.084 6.8133 10.2167C6.91263 10.3487 8.21063 12.35 10.198 13.208C10.6706 13.412 11.0393 13.534 11.3273 13.6247C11.802 13.776 12.234 13.7547 12.5746 13.7034C12.9553 13.6467 13.7466 13.224 13.912 12.7614C14.0773 12.2987 14.0773 11.902 14.0273 11.8194C13.978 11.7367 13.846 11.6874 13.6473 11.588H13.648ZM10.0333 16.5234H10.0306C8.85048 16.5235 7.69202 16.2062 6.67663 15.6047L6.43596 15.462L3.94196 16.1167L4.6073 13.6847L4.45063 13.4354C3.79092 12.3849 3.44192 11.1692 3.44396 9.92869C3.44463 6.29536 6.4013 3.33936 10.036 3.33936C11.796 3.33936 13.4506 4.02603 14.6946 5.27136C15.3084 5.88244 15.7949 6.60918 16.126 7.40952C16.457 8.20987 16.6261 9.06792 16.6233 9.93403C16.6213 13.5674 13.6653 16.5234 10.0333 16.5234ZM15.642 4.32536C14.9074 3.58598 14.0335 2.99972 13.0707 2.60056C12.1079 2.2014 11.0755 1.99728 10.0333 2.00003C5.6633 2.00003 2.10663 5.55669 2.10463 9.92803C2.10463 11.3254 2.4693 12.6894 3.1633 13.8914L2.03796 18L6.2413 16.8974C7.40369 17.5306 8.70626 17.8625 10.03 17.8627H10.0333C14.4026 17.8627 17.96 14.306 17.962 9.93403C17.9652 8.89221 17.7618 7.86009 17.3636 6.89738C16.9654 5.93467 16.3802 5.06047 15.642 4.32536Z" fill="#F5F5F5"/>
</g>
<defs>
<clipPath id="clip0">
<rect width="16" height="16" fill="white" transform="translate(2 2)"/>
</clipPath>
</defs>
</svg>
