<svg width="59" height="20" viewBox="0 0 59 20" fill="none" xmlns="http://www.w3.org/2000/svg">
<path d="M0 2C0 0.895431 0.895431 0 2 0H32V20H2C0.895431 20 0 19.1046 0 18V2Z" fill="#2D2D2D"/>
<path d="M11.508 15C11.164 15 10.9 14.904 10.716 14.712C10.532 14.512 10.42 14.26 10.38 13.956H10.32C10.2 14.348 9.98 14.644 9.66 14.844C9.34 15.044 8.952 15.144 8.496 15.144C7.848 15.144 7.348 14.976 6.996 14.64C6.652 14.304 6.48 13.852 6.48 13.284C6.48 12.66 6.704 12.192 7.152 11.88C7.608 11.568 8.272 11.412 9.144 11.412H10.272V10.884C10.272 10.5 10.168 10.204 9.96 9.996C9.752 9.788 9.428 9.684 8.988 9.684C8.62 9.684 8.32 9.764 8.088 9.924C7.856 10.084 7.66 10.288 7.5 10.536L6.72 9.828C6.928 9.476 7.22 9.188 7.596 8.964C7.972 8.732 8.464 8.616 9.072 8.616C9.88 8.616 10.5 8.804 10.932 9.18C11.364 9.556 11.58 10.096 11.58 10.8V13.932H12.24V15H11.508ZM8.868 14.148C9.276 14.148 9.612 14.06 9.876 13.884C10.14 13.7 10.272 13.456 10.272 13.152V12.252H9.168C8.264 12.252 7.812 12.532 7.812 13.092V13.308C7.812 13.588 7.904 13.8 8.088 13.944C8.28 14.08 8.54 14.148 8.868 14.148ZM18.9939 15.588C18.9939 16.236 18.7459 16.724 18.2499 17.052C17.7539 17.38 16.9459 17.544 15.8259 17.544C15.3139 17.544 14.8779 17.508 14.5179 17.436C14.1659 17.372 13.8739 17.276 13.6419 17.148C13.4179 17.02 13.2539 16.864 13.1499 16.68C13.0459 16.496 12.9939 16.284 12.9939 16.044C12.9939 15.7 13.0859 15.432 13.2699 15.24C13.4619 15.048 13.7259 14.916 14.0619 14.844V14.712C13.5899 14.56 13.3539 14.24 13.3539 13.752C13.3539 13.432 13.4619 13.188 13.6779 13.02C13.8939 12.844 14.1539 12.72 14.4579 12.648V12.6C14.0899 12.424 13.8059 12.18 13.6059 11.868C13.4139 11.548 13.3179 11.176 13.3179 10.752C13.3179 10.112 13.5299 9.596 13.9539 9.204C14.3859 8.812 15.0019 8.616 15.8019 8.616C16.2419 8.616 16.6179 8.68 16.9299 8.808V8.64C16.9299 8.36 16.9939 8.144 17.1219 7.992C17.2579 7.832 17.4659 7.752 17.7459 7.752H18.7059V8.808H17.4339V9.06C17.7139 9.244 17.9299 9.484 18.0819 9.78C18.2339 10.068 18.3099 10.392 18.3099 10.752C18.3099 11.384 18.0939 11.896 17.6619 12.288C17.2299 12.672 16.6139 12.864 15.8139 12.864C15.5099 12.864 15.2379 12.832 14.9979 12.768C14.8379 12.824 14.6979 12.904 14.5779 13.008C14.4579 13.104 14.3979 13.232 14.3979 13.392C14.3979 13.56 14.4739 13.68 14.6259 13.752C14.7779 13.824 14.9939 13.86 15.2739 13.86H16.8099C17.5779 13.86 18.1339 14.016 18.4779 14.328C18.8219 14.632 18.9939 15.052 18.9939 15.588ZM17.7699 15.732C17.7699 15.516 17.6859 15.344 17.5179 15.216C17.3579 15.088 17.0619 15.024 16.6299 15.024H14.5179C14.2299 15.192 14.0859 15.432 14.0859 15.744C14.0859 16 14.1859 16.204 14.3859 16.356C14.5939 16.516 14.9419 16.596 15.4299 16.596H16.2459C17.2619 16.596 17.7699 16.308 17.7699 15.732ZM15.8139 11.916C16.1979 11.916 16.4939 11.832 16.7019 11.664C16.9179 11.488 17.0259 11.22 17.0259 10.86V10.62C17.0259 10.26 16.9179 9.996 16.7019 9.828C16.4939 9.652 16.1979 9.564 15.8139 9.564C15.4299 9.564 15.1299 9.652 14.9139 9.828C14.7059 9.996 14.6019 10.26 14.6019 10.62V10.86C14.6019 11.22 14.7059 11.488 14.9139 11.664C15.1299 11.832 15.4299 11.916 15.8139 11.916ZM22.3449 15.144C21.8969 15.144 21.4969 15.068 21.1449 14.916C20.7929 14.764 20.4929 14.548 20.2449 14.268C19.9969 13.98 19.8049 13.636 19.6689 13.236C19.5409 12.828 19.4769 12.376 19.4769 11.88C19.4769 11.384 19.5409 10.936 19.6689 10.536C19.8049 10.128 19.9969 9.784 20.2449 9.504C20.4929 9.216 20.7929 8.996 21.1449 8.844C21.4969 8.692 21.8969 8.616 22.3449 8.616C22.8009 8.616 23.2009 8.696 23.5449 8.856C23.8969 9.016 24.1889 9.24 24.4209 9.528C24.6529 9.808 24.8249 10.136 24.9369 10.512C25.0569 10.888 25.1169 11.292 25.1169 11.724V12.216H20.8329V12.42C20.8329 12.9 20.9729 13.296 21.2529 13.608C21.5409 13.912 21.9489 14.064 22.4769 14.064C22.8609 14.064 23.1849 13.98 23.4489 13.812C23.7129 13.644 23.9369 13.416 24.1209 13.128L24.8889 13.884C24.6569 14.268 24.3209 14.576 23.8809 14.808C23.4409 15.032 22.9289 15.144 22.3449 15.144ZM22.3449 9.636C22.1209 9.636 21.9129 9.676 21.7209 9.756C21.5369 9.836 21.3769 9.948 21.2409 10.092C21.1129 10.236 21.0129 10.408 20.9409 10.608C20.8689 10.808 20.8329 11.028 20.8329 11.268V11.352H23.7369V11.232C23.7369 10.752 23.6129 10.368 23.3649 10.08C23.1169 9.784 22.7769 9.636 22.3449 9.636Z" fill="#F5F5F5"/>
<path d="M32 0H57C58.1046 0 59 0.895431 59 2V18C59 19.1046 58.1046 20 57 20H32V0Z" fill="#484848"/>
<path d="M42.176 15V13.38H38.384V12.036L41.72 6.624H43.676V12.156H44.768V13.38H43.676V15H42.176ZM39.68 12.156H42.176V8.16H42.08L39.68 12.156ZM48.7953 15.144C48.2593 15.144 47.7953 15.048 47.4033 14.856C47.0113 14.656 46.6873 14.372 46.4313 14.004C46.1753 13.636 45.9833 13.184 45.8553 12.648C45.7353 12.112 45.6753 11.5 45.6753 10.812C45.6753 10.132 45.7353 9.524 45.8553 8.988C45.9833 8.444 46.1753 7.988 46.4313 7.62C46.6873 7.252 47.0113 6.972 47.4033 6.78C47.7953 6.58 48.2593 6.48 48.7953 6.48C49.8593 6.48 50.6433 6.86 51.1473 7.62C51.6593 8.38 51.9153 9.444 51.9153 10.812C51.9153 12.18 51.6593 13.244 51.1473 14.004C50.6433 14.764 49.8593 15.144 48.7953 15.144ZM48.7953 13.812C49.3313 13.812 49.7033 13.612 49.9113 13.212C50.1273 12.804 50.2353 12.256 50.2353 11.568V10.056C50.2353 9.368 50.1273 8.824 49.9113 8.424C49.7033 8.016 49.3313 7.812 48.7953 7.812C48.2593 7.812 47.8833 8.016 47.6673 8.424C47.4593 8.824 47.3553 9.368 47.3553 10.056V11.568C47.3553 12.256 47.4593 12.804 47.6673 13.212C47.8833 13.612 48.2593 13.812 48.7953 13.812Z" fill="#F5F5F5"/>
</svg>
