<svg width="60" height="20" viewBox="0 0 60 20" fill="none" xmlns="http://www.w3.org/2000/svg">
<path d="M0 2C0 0.895431 0.895431 0 2 0H33V20H2C0.895431 20 0 19.1046 0 18V2Z" fill="#2D2D2D"/>
<path d="M12.264 15L11.508 12.732H8.376L7.644 15H6.264L9.12 6.624H10.824L13.68 15H12.264ZM9.972 7.872H9.912L8.7 11.568H11.172L9.972 7.872ZM20.3533 15.588C20.3533 16.236 20.1053 16.724 19.6093 17.052C19.1133 17.38 18.3053 17.544 17.1853 17.544C16.6733 17.544 16.2373 17.508 15.8773 17.436C15.5253 17.372 15.2333 17.276 15.0013 17.148C14.7773 17.02 14.6133 16.864 14.5093 16.68C14.4053 16.496 14.3533 16.284 14.3533 16.044C14.3533 15.7 14.4453 15.432 14.6293 15.24C14.8213 15.048 15.0853 14.916 15.4213 14.844V14.712C14.9493 14.56 14.7133 14.24 14.7133 13.752C14.7133 13.432 14.8213 13.188 15.0373 13.02C15.2533 12.844 15.5133 12.72 15.8173 12.648V12.6C15.4493 12.424 15.1653 12.18 14.9653 11.868C14.7733 11.548 14.6773 11.176 14.6773 10.752C14.6773 10.112 14.8893 9.596 15.3133 9.204C15.7453 8.812 16.3613 8.616 17.1613 8.616C17.6013 8.616 17.9773 8.68 18.2893 8.808V8.64C18.2893 8.36 18.3533 8.144 18.4813 7.992C18.6173 7.832 18.8253 7.752 19.1053 7.752H20.0653V8.808H18.7933V9.06C19.0733 9.244 19.2893 9.484 19.4413 9.78C19.5933 10.068 19.6693 10.392 19.6693 10.752C19.6693 11.384 19.4533 11.896 19.0213 12.288C18.5893 12.672 17.9733 12.864 17.1733 12.864C16.8693 12.864 16.5973 12.832 16.3573 12.768C16.1973 12.824 16.0573 12.904 15.9373 13.008C15.8173 13.104 15.7573 13.232 15.7573 13.392C15.7573 13.56 15.8333 13.68 15.9853 13.752C16.1373 13.824 16.3533 13.86 16.6333 13.86H18.1693C18.9373 13.86 19.4933 14.016 19.8373 14.328C20.1813 14.632 20.3533 15.052 20.3533 15.588ZM19.1293 15.732C19.1293 15.516 19.0453 15.344 18.8773 15.216C18.7173 15.088 18.4213 15.024 17.9893 15.024H15.8773C15.5893 15.192 15.4453 15.432 15.4453 15.744C15.4453 16 15.5453 16.204 15.7453 16.356C15.9533 16.516 16.3013 16.596 16.7893 16.596H17.6053C18.6213 16.596 19.1293 16.308 19.1293 15.732ZM17.1733 11.916C17.5573 11.916 17.8533 11.832 18.0613 11.664C18.2773 11.488 18.3853 11.22 18.3853 10.86V10.62C18.3853 10.26 18.2773 9.996 18.0613 9.828C17.8533 9.652 17.5573 9.564 17.1733 9.564C16.7893 9.564 16.4893 9.652 16.2733 9.828C16.0653 9.996 15.9613 10.26 15.9613 10.62V10.86C15.9613 11.22 16.0653 11.488 16.2733 11.664C16.4893 11.832 16.7893 11.916 17.1733 11.916ZM23.7043 15.144C23.2563 15.144 22.8563 15.068 22.5043 14.916C22.1523 14.764 21.8523 14.548 21.6043 14.268C21.3563 13.98 21.1643 13.636 21.0283 13.236C20.9003 12.828 20.8363 12.376 20.8363 11.88C20.8363 11.384 20.9003 10.936 21.0283 10.536C21.1643 10.128 21.3563 9.784 21.6043 9.504C21.8523 9.216 22.1523 8.996 22.5043 8.844C22.8563 8.692 23.2563 8.616 23.7043 8.616C24.1603 8.616 24.5603 8.696 24.9043 8.856C25.2563 9.016 25.5483 9.24 25.7803 9.528C26.0123 9.808 26.1843 10.136 26.2963 10.512C26.4163 10.888 26.4763 11.292 26.4763 11.724V12.216H22.1923V12.42C22.1923 12.9 22.3323 13.296 22.6123 13.608C22.9003 13.912 23.3083 14.064 23.8363 14.064C24.2203 14.064 24.5443 13.98 24.8083 13.812C25.0723 13.644 25.2963 13.416 25.4803 13.128L26.2483 13.884C26.0163 14.268 25.6803 14.576 25.2403 14.808C24.8003 15.032 24.2883 15.144 23.7043 15.144ZM23.7043 9.636C23.4803 9.636 23.2723 9.676 23.0803 9.756C22.8963 9.836 22.7363 9.948 22.6003 10.092C22.4723 10.236 22.3723 10.408 22.3003 10.608C22.2283 10.808 22.1923 11.028 22.1923 11.268V11.352H25.0963V11.232C25.0963 10.752 24.9723 10.368 24.7243 10.08C24.4763 9.784 24.1363 9.636 23.7043 9.636Z" fill="#F5F5F5"/>
<path d="M33 0H58C59.1046 0 60 0.895431 60 2V18C60 19.1046 59.1046 20 58 20H33V0Z" fill="#484848"/>
<path d="M43.308 15V13.368H39.42V12.204L42.816 6.624H44.592V12.3H45.732V13.368H44.592V15H43.308ZM40.572 12.3H43.308V7.86H43.224L40.572 12.3ZM49.7953 15.144C49.2753 15.144 48.8233 15.048 48.4393 14.856C48.0553 14.656 47.7393 14.372 47.4913 14.004C47.2433 13.636 47.0593 13.184 46.9393 12.648C46.8193 12.112 46.7593 11.5 46.7593 10.812C46.7593 10.132 46.8193 9.524 46.9393 8.988C47.0593 8.444 47.2433 7.988 47.4913 7.62C47.7393 7.252 48.0553 6.972 48.4393 6.78C48.8233 6.58 49.2753 6.48 49.7953 6.48C50.8353 6.48 51.5993 6.86 52.0873 7.62C52.5833 8.38 52.8313 9.444 52.8313 10.812C52.8313 12.18 52.5833 13.244 52.0873 14.004C51.5993 14.764 50.8353 15.144 49.7953 15.144ZM49.7953 13.992C50.0833 13.992 50.3273 13.936 50.5273 13.824C50.7353 13.704 50.9033 13.536 51.0313 13.32C51.1593 13.104 51.2513 12.848 51.3073 12.552C51.3633 12.248 51.3913 11.912 51.3913 11.544V10.08C51.3913 9.712 51.3633 9.38 51.3073 9.084C51.2513 8.78 51.1593 8.52 51.0313 8.304C50.9033 8.088 50.7353 7.924 50.5273 7.812C50.3273 7.692 50.0833 7.632 49.7953 7.632C49.5073 7.632 49.2593 7.692 49.0513 7.812C48.8513 7.924 48.6873 8.088 48.5593 8.304C48.4313 8.52 48.3393 8.78 48.2833 9.084C48.2273 9.38 48.1993 9.712 48.1993 10.08V11.544C48.1993 11.912 48.2273 12.248 48.2833 12.552C48.3393 12.848 48.4313 13.104 48.5593 13.32C48.6873 13.536 48.8513 13.704 49.0513 13.824C49.2593 13.936 49.5073 13.992 49.7953 13.992Z" fill="#F5F5F5"/>
</svg>
