<svg width="32" height="32" viewBox="0 0 32 32" fill="none" xmlns="http://www.w3.org/2000/svg">
<rect width="32" height="32" rx="2" fill="#0D1117"/>
<path d="M15.4917 6.50415C14.6467 8.57665 14.1367 9.93332 13.1958 11.9433C13.7733 12.555 14.4817 13.2675 15.6317 14.0717C14.395 13.5633 13.5517 13.0517 12.9217 12.5217C11.7167 15.035 9.83 18.615 6 25.4958C9.01 23.7583 11.3433 22.6875 13.5175 22.2775C13.4194 21.8549 13.3716 21.4222 13.375 20.9883L13.3775 20.8925C13.4258 18.9633 14.4283 17.48 15.6167 17.5817C16.805 17.6817 17.7283 19.3283 17.6817 21.2558C17.6744 21.6042 17.6337 21.9511 17.56 22.2917C19.71 22.7125 22.02 23.7808 24.9883 25.495C24.4033 24.4175 23.88 23.4458 23.3808 22.52C22.595 21.9117 21.7758 21.1183 20.1033 20.2592C21.2533 20.5583 22.0758 20.9025 22.7175 21.2875C17.6425 11.8425 17.2325 10.5875 15.4925 6.50415H15.4917ZM25.0817 23.8V23.2808H24.8867V23.2108H25.355V23.2808H25.16V23.8H25.4358V23.2108H25.5542L25.6933 23.6275L25.7217 23.7167C25.7314 23.6847 25.7419 23.653 25.7533 23.6217L25.895 23.2108H26V23.8H25.9242V23.3058L25.7525 23.8H25.6825L25.5117 23.2983V23.8H25.4358" fill="#1793D1"/>
</svg>
