<svg width="24" height="24" viewBox="0 0 24 24" fill="none" xmlns="http://www.w3.org/2000/svg">
<rect width="24" height="24" rx="2" fill="#2D2D2D"/>
<path d="M11.5933 4.40332C10.9173 6.06132 10.5093 7.14665 9.75667 8.75465C10.2187 9.24399 10.7853 9.81399 11.7053 10.4573C10.716 10.0507 10.0413 9.64132 9.53733 9.21732C8.57333 11.228 7.064 14.092 4 19.5967C6.408 18.2067 8.27467 17.35 10.014 17.022C9.93552 16.6839 9.89725 16.3377 9.9 15.9907L9.902 15.914C9.94067 14.3707 10.7427 13.184 11.6933 13.2653C12.644 13.3453 13.3827 14.6627 13.3453 16.2047C13.3395 16.4834 13.3069 16.7609 13.248 17.0333C14.968 17.37 16.816 18.2247 19.1907 19.596C18.7227 18.734 18.304 17.9567 17.9047 17.216C17.276 16.7293 16.6207 16.0947 15.2827 15.4073C16.2027 15.6467 16.8607 15.922 17.374 16.23C13.314 8.67399 12.986 7.66999 11.594 4.40332H11.5933ZM19.2653 18.24V17.8247H19.1093V17.7687H19.484V17.8247H19.328V18.24H19.5487V17.7687H19.6433L19.7547 18.102L19.7773 18.1733C19.7851 18.1478 19.7936 18.1224 19.8027 18.0973L19.916 17.7687H20V18.24H19.9393V17.8447L19.802 18.24H19.746L19.6093 17.8387V18.24H19.5487" fill="#1793D1"/>
</svg>
