<svg width="24" height="24" viewBox="0 0 24 24" fill="none" xmlns="http://www.w3.org/2000/svg">
<rect width="24" height="24" rx="2" fill="#2D2D2D"/>
<g clip-path="url(#clip0_1135:166)">
<path d="M8.50862 10.6907C8.50862 10.8881 8.52996 11.0474 8.56729 11.1641C8.60996 11.2814 8.66329 11.4094 8.73796 11.5481C8.76462 11.5901 8.77529 11.6327 8.77529 11.6701C8.77529 11.7234 8.74329 11.7767 8.67396 11.8301L8.33862 12.0534C8.29809 12.0826 8.24988 12.0993 8.19996 12.1014C8.14662 12.1014 8.09329 12.0747 8.04062 12.0267C7.96901 11.9497 7.90494 11.866 7.84929 11.7767C7.7897 11.6745 7.73453 11.5697 7.68396 11.4627C7.26929 11.9521 6.74729 12.1967 6.11929 12.1967C5.67262 12.1967 5.31596 12.0694 5.05529 11.8141C4.79462 11.5581 4.66196 11.2181 4.66196 10.7921C4.66196 10.3401 4.82129 9.97206 5.14596 9.69606C5.47062 9.4194 5.90129 9.28073 6.44929 9.28073C6.63062 9.28073 6.81662 9.29673 7.01329 9.3234C7.21062 9.35006 7.41329 9.39273 7.62529 9.44073V9.05206C7.62529 8.6474 7.54062 8.3654 7.37529 8.20073C7.20529 8.0354 6.91796 7.95606 6.50862 7.95606C6.32196 7.95606 6.12996 7.97673 5.93329 8.02473C5.73662 8.07273 5.54462 8.1314 5.35862 8.20606C5.29798 8.23322 5.23562 8.25638 5.17196 8.2754C5.14454 8.28424 5.11607 8.28939 5.08729 8.29073C5.01262 8.29073 4.97529 8.2374 4.97529 8.12606V7.8654C4.97529 7.78006 4.98596 7.71606 5.01262 7.67873C5.0529 7.63033 5.10407 7.59217 5.16196 7.5674C5.34796 7.4714 5.57129 7.3914 5.83196 7.3274C6.1033 7.25793 6.38254 7.22409 6.66262 7.22673C7.29596 7.22673 7.75862 7.37073 8.05662 7.65806C8.34929 7.94473 8.49796 8.3814 8.49796 8.96673V10.6907H8.50862ZM6.34862 11.5001C6.52396 11.5001 6.70462 11.4681 6.89662 11.4041C7.08796 11.3401 7.25862 11.2234 7.40196 11.0641C7.48729 10.9627 7.55129 10.8507 7.58329 10.7227C7.61462 10.5954 7.63662 10.4407 7.63662 10.2601V10.0367C7.47512 9.99736 7.31153 9.96709 7.14662 9.94606C6.98079 9.92499 6.8138 9.91431 6.64662 9.91407C6.28996 9.91407 6.02929 9.9834 5.85329 10.1274C5.67796 10.2707 5.59329 10.4727 5.59329 10.7387C5.59329 10.9887 5.65662 11.1754 5.78996 11.3027C5.91729 11.4361 6.10329 11.5001 6.34862 11.5001ZM10.622 12.0747C10.526 12.0747 10.462 12.0587 10.4193 12.0214C10.3766 11.9894 10.3393 11.9147 10.3073 11.8141L9.05729 7.70006C9.03298 7.63108 9.01686 7.55948 9.00929 7.48673C9.00929 7.4014 9.05196 7.3534 9.13662 7.3534H9.65862C9.75929 7.3534 9.82862 7.37006 9.86529 7.40673C9.90862 7.43873 9.94062 7.5134 9.97196 7.61473L10.8666 11.1374L11.6966 7.61473C11.7233 7.50806 11.7553 7.43873 11.7973 7.40673C11.8613 7.36751 11.9357 7.34889 12.0106 7.3534H12.436C12.5373 7.3534 12.6066 7.37006 12.6493 7.40673C12.6913 7.43873 12.7293 7.5134 12.75 7.61473L13.5906 11.1801L14.5113 7.61473C14.5433 7.50806 14.5806 7.43873 14.618 7.40673C14.6797 7.36752 14.7523 7.34886 14.8253 7.3534H15.3206C15.4053 7.3534 15.454 7.39673 15.454 7.48673C15.454 7.5134 15.448 7.54006 15.4426 7.57206C15.4343 7.61755 15.4218 7.66219 15.4053 7.7054L14.1233 11.8187C14.0913 11.9254 14.054 11.9941 14.0113 12.0261C13.9512 12.0646 13.8806 12.0833 13.8093 12.0794H13.3513C13.2506 12.0794 13.1813 12.0634 13.138 12.0261C13.096 11.9887 13.0586 11.9194 13.038 11.8127L12.2126 8.38073L11.3926 11.8074C11.366 11.9141 11.3346 11.9834 11.2926 12.0207C11.2493 12.0581 11.1746 12.0741 11.0793 12.0741L10.622 12.0747ZM17.4593 12.2181C17.1826 12.2181 16.906 12.1861 16.64 12.1227C16.374 12.0587 16.1666 11.9894 16.028 11.9094C15.9426 11.8621 15.8846 11.8087 15.8633 11.7607C15.8425 11.7137 15.8316 11.6628 15.8313 11.6114V11.3401C15.8313 11.2287 15.874 11.1754 15.9533 11.1754C15.9853 11.1754 16.0173 11.1807 16.0493 11.1914C16.0813 11.2021 16.1293 11.2234 16.1826 11.2447C16.3633 11.3247 16.56 11.3881 16.768 11.4307C16.9806 11.4734 17.188 11.4947 17.4013 11.4947C17.736 11.4947 17.9973 11.4361 18.178 11.3187C18.2646 11.2664 18.3358 11.1921 18.3844 11.1033C18.433 11.0146 18.4572 10.9146 18.4546 10.8134C18.4566 10.7449 18.4449 10.6767 18.4203 10.6127C18.3957 10.5487 18.3586 10.4903 18.3113 10.4407C18.2153 10.3401 18.034 10.2494 17.7733 10.1641L17.002 9.92406C16.6133 9.80206 16.326 9.6214 16.1506 9.38206C15.979 9.16119 15.8853 8.88977 15.884 8.61006C15.884 8.38673 15.9326 8.19006 16.028 8.0194C16.124 7.8494 16.2513 7.70006 16.4113 7.5834C16.5713 7.46073 16.7513 7.37006 16.9646 7.30673C17.178 7.24273 17.4013 7.21606 17.6353 7.21606C17.752 7.21606 17.8746 7.2214 17.992 7.2374C18.114 7.2534 18.2253 7.27473 18.3373 7.29606C18.444 7.32273 18.5453 7.3494 18.6406 7.38073C18.7366 7.41273 18.8113 7.44473 18.8646 7.47673C18.9275 7.50836 18.9822 7.55397 19.0246 7.61006C19.059 7.66183 19.0756 7.72337 19.072 7.7854V8.0354C19.072 8.1474 19.0293 8.20606 18.9493 8.20606C18.8785 8.19794 18.8099 8.17621 18.7473 8.14206C18.4258 8.00005 18.0774 7.92931 17.726 7.93473C17.4226 7.93473 17.1826 7.98206 17.018 8.0834C16.8526 8.18473 16.768 8.33873 16.768 8.55673C16.768 8.70606 16.8213 8.83406 16.928 8.93473C17.034 9.03606 17.2306 9.1374 17.5126 9.22806L18.2686 9.46673C18.6513 9.5894 18.9286 9.76006 19.0933 9.97806C19.258 10.1961 19.338 10.4461 19.338 10.7227C19.338 10.9514 19.29 11.1594 19.2 11.3401C19.104 11.5214 18.976 11.6807 18.8113 11.8087C18.646 11.9421 18.4493 12.0374 18.2206 12.1067C17.9806 12.1807 17.7313 12.2181 17.4593 12.2181V12.2181ZM18.4653 14.8047C16.7146 16.0981 14.1706 16.7841 11.984 16.7841C8.91862 16.7841 6.15729 15.6507 4.07062 13.7667C3.90596 13.6181 4.05462 13.4154 4.25196 13.5327C6.50796 14.8414 9.29129 15.6347 12.17 15.6347C14.1126 15.6347 16.246 15.2301 18.21 14.4001C18.5026 14.2667 18.7526 14.5914 18.4653 14.8047V14.8047ZM19.1946 13.9741C18.9706 13.6874 17.7146 13.8361 17.1453 13.9054C16.9753 13.9267 16.9486 13.7774 17.1033 13.6654C18.1033 12.9634 19.748 13.1654 19.9393 13.3994C20.1306 13.6394 19.886 15.2834 18.9493 16.0707C18.806 16.1934 18.6673 16.1294 18.7313 15.9701C18.9446 15.4434 19.418 14.2567 19.1946 13.9741V13.9741Z" fill="#FF9900"/>
</g>
<defs>
<clipPath id="clip0_1135:166">
<rect width="16" height="16" fill="white" transform="translate(4 4)"/>
</clipPath>
</defs>
</svg>
