<svg width="32" height="32" viewBox="0 0 32 32" fill="none" xmlns="http://www.w3.org/2000/svg">
<rect width="32" height="32" rx="2" fill="#0D1117"/>
<g clip-path="url(#clip0_1135:166)">
<path d="M11.6358 14.3634C11.6358 14.61 11.6625 14.8092 11.7091 14.955C11.7625 15.1017 11.8291 15.2617 11.9225 15.435C11.9558 15.4875 11.9691 15.5409 11.9691 15.5875C11.9691 15.6542 11.9291 15.7209 11.8425 15.7875L11.4233 16.0667C11.3726 16.1032 11.3124 16.1241 11.25 16.1267C11.1833 16.1267 11.1166 16.0934 11.0508 16.0334C10.9613 15.9371 10.8812 15.8324 10.8116 15.7209C10.7372 15.593 10.6682 15.4621 10.605 15.3284C10.0866 15.94 9.43414 16.2459 8.64914 16.2459C8.09081 16.2459 7.64498 16.0867 7.31914 15.7675C6.99331 15.4475 6.82748 15.0225 6.82748 14.49C6.82748 13.925 7.02664 13.465 7.43248 13.12C7.83831 12.7742 8.37664 12.6009 9.06164 12.6009C9.28831 12.6009 9.52081 12.6209 9.76664 12.6542C10.0133 12.6875 10.2666 12.7409 10.5316 12.8009V12.315C10.5316 11.8092 10.4258 11.4567 10.2191 11.2509C10.0066 11.0442 9.64748 10.945 9.13581 10.945C8.90248 10.945 8.66248 10.9709 8.41664 11.0309C8.17081 11.0909 7.93081 11.1642 7.69831 11.2575C7.62251 11.2915 7.54456 11.3204 7.46498 11.3442C7.4307 11.3552 7.39512 11.3617 7.35914 11.3634C7.26581 11.3634 7.21914 11.2967 7.21914 11.1575V10.8317C7.21914 10.725 7.23248 10.645 7.26581 10.5984C7.31615 10.5379 7.38012 10.4902 7.45248 10.4592C7.68498 10.3392 7.96414 10.2392 8.28998 10.1592C8.62916 10.0724 8.97821 10.0301 9.32831 10.0334C10.12 10.0334 10.6983 10.2134 11.0708 10.5725C11.4366 10.9309 11.6225 11.4767 11.6225 12.2084V14.3634H11.6358ZM8.93581 15.375C9.15498 15.375 9.38081 15.335 9.62081 15.255C9.85998 15.175 10.0733 15.0292 10.2525 14.83C10.3591 14.7034 10.4391 14.5634 10.4791 14.4034C10.5183 14.2442 10.5458 14.0509 10.5458 13.825V13.5459C10.3439 13.4966 10.1394 13.4588 9.93331 13.4325C9.72601 13.4062 9.51727 13.3928 9.30831 13.3925C8.86248 13.3925 8.53664 13.4792 8.31664 13.6592C8.09748 13.8384 7.99164 14.0909 7.99164 14.4234C7.99164 14.7359 8.07081 14.9692 8.23748 15.1284C8.39664 15.295 8.62914 15.375 8.93581 15.375ZM14.2775 16.0934C14.1575 16.0934 14.0775 16.0734 14.0241 16.0267C13.9708 15.9867 13.9241 15.8934 13.8841 15.7675L12.3216 10.625C12.2913 10.5388 12.2711 10.4493 12.2616 10.3584C12.2616 10.2517 12.315 10.1917 12.4208 10.1917H13.0733C13.1991 10.1917 13.2858 10.2125 13.3316 10.2584C13.3858 10.2984 13.4258 10.3917 13.465 10.5184L14.5833 14.9217L15.6208 10.5184C15.6541 10.385 15.6941 10.2984 15.7466 10.2584C15.8266 10.2093 15.9197 10.186 16.0133 10.1917H16.545C16.6716 10.1917 16.7583 10.2125 16.8116 10.2584C16.8641 10.2984 16.9116 10.3917 16.9375 10.5184L17.9883 14.975L19.1391 10.5184C19.1791 10.385 19.2258 10.2984 19.2725 10.2584C19.3497 10.2093 19.4404 10.186 19.5316 10.1917H20.1508C20.2566 10.1917 20.3175 10.2459 20.3175 10.3584C20.3175 10.3917 20.31 10.425 20.3033 10.465C20.2929 10.5219 20.2773 10.5777 20.2566 10.6317L18.6541 15.7734C18.6141 15.9067 18.5675 15.9925 18.5141 16.0325C18.4391 16.0807 18.3507 16.104 18.2616 16.0992H17.6891C17.5633 16.0992 17.4766 16.0792 17.4225 16.0325C17.37 15.9859 17.3233 15.8992 17.2975 15.7659L16.2658 11.4759L15.2408 15.7592C15.2075 15.8925 15.1683 15.9792 15.1158 16.0259C15.0616 16.0725 14.9683 16.0925 14.8491 16.0925L14.2775 16.0934ZM22.8241 16.2725C22.4783 16.2725 22.1325 16.2325 21.8 16.1534C21.4675 16.0734 21.2083 15.9867 21.035 15.8867C20.9283 15.8275 20.8558 15.7609 20.8291 15.7009C20.8032 15.642 20.7895 15.5785 20.7891 15.5142V15.175C20.7891 15.0359 20.8425 14.9692 20.9416 14.9692C20.9816 14.9692 21.0216 14.9759 21.0616 14.9892C21.1016 15.0025 21.1616 15.0292 21.2283 15.0559C21.4541 15.1559 21.7 15.235 21.96 15.2884C22.2258 15.3417 22.485 15.3684 22.7516 15.3684C23.17 15.3684 23.4966 15.295 23.7225 15.1484C23.8307 15.0829 23.9198 14.9901 23.9805 14.8791C24.0412 14.7682 24.0715 14.6431 24.0683 14.5167C24.0707 14.431 24.0562 14.3458 24.0254 14.2658C23.9947 14.1859 23.9483 14.1128 23.8891 14.0509C23.7691 13.925 23.5425 13.8117 23.2166 13.705L22.2525 13.405C21.7666 13.2525 21.4075 13.0267 21.1883 12.7275C20.9738 12.4514 20.8566 12.1121 20.855 11.7625C20.855 11.4834 20.9158 11.2375 21.035 11.0242C21.155 10.8117 21.3141 10.625 21.5141 10.4792C21.7141 10.3259 21.9391 10.2125 22.2058 10.1334C22.4725 10.0534 22.7516 10.02 23.0441 10.02C23.19 10.02 23.3433 10.0267 23.49 10.0467C23.6425 10.0667 23.7816 10.0934 23.9216 10.12C24.055 10.1534 24.1816 10.1867 24.3008 10.2259C24.4208 10.2659 24.5141 10.3059 24.5808 10.3459C24.6593 10.3854 24.7278 10.4424 24.7808 10.5125C24.8238 10.5772 24.8445 10.6541 24.84 10.7317V11.0442C24.84 11.1842 24.7866 11.2575 24.6866 11.2575C24.5981 11.2474 24.5124 11.2202 24.4341 11.1775C24.0323 11 23.5968 10.9116 23.1575 10.9184C22.7783 10.9184 22.4783 10.9775 22.2725 11.1042C22.0658 11.2309 21.96 11.4234 21.96 11.6959C21.96 11.8825 22.0266 12.0425 22.16 12.1684C22.2925 12.295 22.5383 12.4217 22.8908 12.535L23.8358 12.8334C24.3141 12.9867 24.6608 13.2 24.8666 13.4725C25.0725 13.745 25.1725 14.0575 25.1725 14.4034C25.1725 14.6892 25.1125 14.9492 25 15.175C24.88 15.4017 24.72 15.6009 24.5141 15.7609C24.3075 15.9275 24.0616 16.0467 23.7758 16.1334C23.4758 16.2259 23.1641 16.2725 22.8241 16.2725V16.2725ZM24.0816 19.5059C21.8933 21.1225 18.7133 21.98 15.98 21.98C12.1483 21.98 8.69664 20.5634 6.08831 18.2084C5.88248 18.0225 6.06831 17.7692 6.31498 17.9159C9.13498 19.5517 12.6141 20.5434 16.2125 20.5434C18.6408 20.5434 21.3075 20.0375 23.7625 19C24.1283 18.8334 24.4408 19.2392 24.0816 19.5059V19.5059ZM24.9933 18.4675C24.7133 18.1092 23.1433 18.295 22.4316 18.3817C22.2191 18.4084 22.1858 18.2217 22.3791 18.0817C23.6291 17.2042 25.685 17.4567 25.9241 17.7492C26.1633 18.0492 25.8575 20.1042 24.6866 21.0884C24.5075 21.2417 24.3341 21.1617 24.4141 20.9625C24.6808 20.3042 25.2725 18.8209 24.9933 18.4675V18.4675Z" fill="#FF9900"/>
</g>
<defs>
<clipPath id="clip0_1135:166">
<rect width="20" height="20" fill="white" transform="translate(6 6)"/>
</clipPath>
</defs>
</svg>
