<svg width="32" height="32" viewBox="0 0 32 32" fill="none" xmlns="http://www.w3.org/2000/svg">
<path d="M14 1.1547C15.2376 0.440169 16.7624 0.440169 18 1.1547L27.8564 6.8453C29.094 7.55983 29.8564 8.88034 29.8564 10.3094V21.6906C29.8564 23.1197 29.094 24.4402 27.8564 25.1547L18 30.8453C16.7624 31.5598 15.2376 31.5598 14 30.8453L4.14359 25.1547C2.90599 24.4402 2.14359 23.1197 2.14359 21.6906V10.3094C2.14359 8.88034 2.90599 7.55983 4.14359 6.8453L14 1.1547Z" fill="#4EAA25"/>
<path d="M22.0253 11.2667L16.974 8.268C16.6727 8.08933 16.3367 8 16 8C15.6633 8 15.3273 8.08933 15.0253 8.26867L9.974 11.2667C9.37133 11.6247 9 12.286 9 13.002V18.9987C9 19.714 9.37133 20.376 9.97467 20.734L15.026 23.732C15.3273 23.9107 15.6633 24 16 24C16.3367 24 16.6727 23.9107 16.974 23.732L22.0253 20.734C22.628 20.376 23 19.7147 23 18.9987V13.002C23 12.286 22.6287 11.6247 22.0253 11.2667ZM18.1133 20.6307L18.122 21.0613C18.1227 21.1133 18.0887 21.1727 18.048 21.1933L17.7927 21.34C17.752 21.3607 17.7187 21.3353 17.718 21.2833L17.7133 20.86C17.4947 20.9507 17.2733 20.9727 17.132 20.916C17.1053 20.9053 17.094 20.866 17.1047 20.8213L17.1973 20.432C17.2047 20.4013 17.2213 20.3707 17.2433 20.3513C17.2513 20.344 17.2593 20.338 17.2673 20.334C17.282 20.3267 17.296 20.3247 17.3087 20.33C17.4613 20.3813 17.656 20.3573 17.8433 20.2627C18.0813 20.142 18.2407 19.8993 18.238 19.658C18.236 19.4393 18.1173 19.348 17.8293 19.346C17.4627 19.3467 17.12 19.2747 17.1147 18.7347C17.11 18.29 17.3413 17.8273 17.7073 17.5347L17.7027 17.1C17.702 17.0467 17.7347 16.988 17.7767 16.9667L18.0233 16.8093C18.064 16.7887 18.0973 16.814 18.098 16.8673L18.102 17.3027C18.284 17.23 18.4427 17.2107 18.586 17.244C18.6173 17.252 18.6307 17.2947 18.618 17.3447L18.522 17.73C18.5147 17.7593 18.498 17.7887 18.4787 17.8073C18.4707 17.8153 18.462 17.8213 18.4533 17.826C18.4407 17.8327 18.428 17.8347 18.4153 17.832C18.35 17.8173 18.194 17.7833 17.9493 17.9073C17.6927 18.0373 17.6027 18.2607 17.6047 18.426C17.6067 18.624 17.708 18.684 18.0587 18.69C18.5253 18.698 18.7273 18.902 18.732 19.372C18.7367 19.8313 18.4907 20.3273 18.1133 20.6307ZM20.762 19.906C20.762 19.946 20.7567 19.9833 20.7233 20.0027L19.446 20.7787C19.4127 20.798 19.386 20.7813 19.386 20.7413V20.412C19.386 20.372 19.4107 20.35 19.444 20.3307L20.702 19.578C20.7353 19.5587 20.762 19.5753 20.762 19.6153V19.906ZM21.6393 12.5313L16.8607 15.4827C16.2647 15.8313 15.8253 16.222 15.8253 16.9407V22.8293C15.8253 23.2593 15.9987 23.538 16.2653 23.6187C16.178 23.634 16.0893 23.6447 16 23.6447C15.72 23.6447 15.4447 23.5687 15.202 23.4247L10.1507 20.4267C9.65667 20.1333 9.35 19.586 9.35 18.9987V13.002C9.35 12.4147 9.65667 11.8673 10.1507 11.574L15.202 8.57533C15.444 8.43133 15.72 8.35533 16 8.35533C16.2793 8.35533 16.5553 8.43133 16.798 8.57533L21.8493 11.574C22.2653 11.8213 22.5467 12.2493 22.6253 12.7287C22.4573 12.3713 22.08 12.274 21.6393 12.5313Z" fill="#1D1D1D"/>
</svg>
