<svg width="32" height="32" viewBox="0 0 32 32" fill="none" xmlns="http://www.w3.org/2000/svg">
<rect width="32" height="32" rx="4" fill="#4EAA25"/>
<path d="M25.038 8.9L17.461 4.402C17.009 4.134 16.505 4 16 4C15.495 4 14.991 4.134 14.538 4.403L6.961 8.9C6.057 9.437 5.5 10.429 5.5 11.503V20.498C5.5 21.571 6.057 22.564 6.962 23.101L14.539 27.598C14.991 27.866 15.495 28 16 28C16.505 28 17.009 27.866 17.461 27.598L25.038 23.101C25.942 22.564 26.5 21.572 26.5 20.498V11.503C26.5 10.429 25.943 9.437 25.038 8.9ZM19.17 22.946L19.183 23.592C19.184 23.67 19.133 23.759 19.072 23.79L18.689 24.01C18.628 24.041 18.578 24.003 18.577 23.925L18.57 23.29C18.242 23.426 17.91 23.459 17.698 23.374C17.658 23.358 17.641 23.299 17.657 23.232L17.796 22.648C17.807 22.602 17.832 22.556 17.865 22.527C17.877 22.516 17.889 22.507 17.901 22.501C17.923 22.49 17.944 22.487 17.963 22.495C18.192 22.572 18.484 22.536 18.765 22.394C19.122 22.213 19.361 21.849 19.357 21.487C19.354 21.159 19.176 21.022 18.744 21.019C18.194 21.02 17.68 20.912 17.672 20.102C17.665 19.435 18.012 18.741 18.561 18.302L18.554 17.65C18.553 17.57 18.602 17.482 18.665 17.45L19.035 17.214C19.096 17.183 19.146 17.221 19.147 17.301L19.153 17.954C19.426 17.845 19.664 17.816 19.879 17.866C19.926 17.878 19.946 17.942 19.927 18.017L19.783 18.595C19.772 18.639 19.747 18.683 19.718 18.711C19.706 18.723 19.693 18.732 19.68 18.739C19.661 18.749 19.642 18.752 19.623 18.748C19.525 18.726 19.291 18.675 18.924 18.861C18.539 19.056 18.404 19.391 18.407 19.639C18.41 19.936 18.562 20.026 19.088 20.035C19.788 20.047 20.091 20.353 20.098 21.058C20.105 21.747 19.736 22.491 19.17 22.946ZM23.143 21.859C23.143 21.919 23.135 21.975 23.085 22.004L21.169 23.168C21.119 23.197 21.079 23.172 21.079 23.112V22.618C21.079 22.558 21.116 22.525 21.166 22.496L23.053 21.367C23.103 21.338 23.143 21.363 23.143 21.423V21.859ZM24.459 10.797L17.291 15.224C16.397 15.747 15.738 16.333 15.738 17.411V26.244C15.738 26.889 15.998 27.307 16.398 27.428C16.267 27.451 16.134 27.467 16 27.467C15.58 27.467 15.167 27.353 14.803 27.137L7.226 22.64C6.485 22.2 6.025 21.379 6.025 20.498V11.503C6.025 10.622 6.485 9.801 7.226 9.361L14.803 4.863C15.166 4.647 15.58 4.533 16 4.533C16.419 4.533 16.833 4.647 17.197 4.863L24.774 9.361C25.398 9.732 25.82 10.374 25.938 11.093C25.686 10.557 25.12 10.411 24.459 10.797Z" fill="#1D1D1D"/>
</svg>
