<svg width="32" height="32" viewBox="0 0 32 32" fill="none" xmlns="http://www.w3.org/2000/svg">
<rect width="32" height="32" rx="2" fill="#0D1117"/>
<path d="M23.5317 10.0833L17.2175 6.335C16.8408 6.11167 16.4208 6 16 6C15.5792 6 15.1592 6.11167 14.7817 6.33583L8.4675 10.0833C7.71417 10.5308 7.25 11.3575 7.25 12.2525V19.7483C7.25 20.6425 7.71417 21.47 8.46833 21.9175L14.7825 25.665C15.1592 25.8883 15.5792 26 16 26C16.4208 26 16.8408 25.8883 17.2175 25.665L23.5317 21.9175C24.285 21.47 24.75 20.6433 24.75 19.7483V12.2525C24.75 11.3575 24.2858 10.5308 23.5317 10.0833ZM18.6417 21.7883L18.6525 22.3267C18.6533 22.3917 18.6108 22.4658 18.56 22.4917L18.2408 22.675C18.19 22.7008 18.1483 22.6692 18.1475 22.6042L18.1417 22.075C17.8683 22.1883 17.5917 22.2158 17.415 22.145C17.3817 22.1317 17.3675 22.0825 17.3808 22.0267L17.4967 21.54C17.5058 21.5017 17.5267 21.4633 17.5542 21.4392C17.5642 21.43 17.5742 21.4225 17.5842 21.4175C17.6025 21.4083 17.62 21.4058 17.6358 21.4125C17.8267 21.4767 18.07 21.4467 18.3042 21.3283C18.6017 21.1775 18.8008 20.8742 18.7975 20.5725C18.795 20.2992 18.6467 20.185 18.2867 20.1825C17.8283 20.1833 17.4 20.0933 17.3933 19.4183C17.3875 18.8625 17.6767 18.2842 18.1342 17.9183L18.1283 17.375C18.1275 17.3083 18.1683 17.235 18.2208 17.2083L18.5292 17.0117C18.58 16.9858 18.6217 17.0175 18.6225 17.0842L18.6275 17.6283C18.855 17.5375 19.0533 17.5133 19.2325 17.555C19.2717 17.565 19.2883 17.6183 19.2725 17.6808L19.1525 18.1625C19.1433 18.1992 19.1225 18.2358 19.0983 18.2592C19.0883 18.2692 19.0775 18.2767 19.0667 18.2825C19.0508 18.2908 19.035 18.2933 19.0192 18.29C18.9375 18.2717 18.7425 18.2292 18.4367 18.3842C18.1158 18.5467 18.0033 18.8258 18.0058 19.0325C18.0083 19.28 18.135 19.355 18.5733 19.3625C19.1567 19.3725 19.4092 19.6275 19.415 20.215C19.4208 20.7892 19.1133 21.4092 18.6417 21.7883ZM21.9525 20.8825C21.9525 20.9325 21.9458 20.9792 21.9042 21.0033L20.3075 21.9733C20.2658 21.9975 20.2325 21.9767 20.2325 21.9267V21.515C20.2325 21.465 20.2633 21.4375 20.305 21.4133L21.8775 20.4725C21.9192 20.4483 21.9525 20.4692 21.9525 20.5192V20.8825ZM23.0492 11.6642L17.0758 15.3533C16.3308 15.7892 15.7817 16.2775 15.7817 17.1758V24.5367C15.7817 25.0742 15.9983 25.4225 16.3317 25.5233C16.2225 25.5425 16.1117 25.5558 16 25.5558C15.65 25.5558 15.3058 25.4608 15.0025 25.2808L8.68833 21.5333C8.07083 21.1667 7.6875 20.4825 7.6875 19.7483V12.2525C7.6875 11.5183 8.07083 10.8342 8.68833 10.4675L15.0025 6.71917C15.305 6.53917 15.65 6.44417 16 6.44417C16.3492 6.44417 16.6942 6.53917 16.9975 6.71917L23.3117 10.4675C23.8317 10.7767 24.1833 11.3117 24.2817 11.9108C24.0717 11.4642 23.6 11.3425 23.0492 11.6642Z" fill="#4EAA25"/>
</svg>
