<svg width="24" height="24" viewBox="0 0 24 24" fill="none" xmlns="http://www.w3.org/2000/svg">
<rect width="24" height="24" rx="2" fill="#2D2D2D"/>
<path d="M18.0253 7.26667L12.974 4.268C12.6727 4.08933 12.3367 4 12 4C11.6633 4 11.3273 4.08933 11.0253 4.26867L5.974 7.26667C5.37133 7.62467 5 8.286 5 9.002V14.9987C5 15.714 5.37133 16.376 5.97467 16.734L11.026 19.732C11.3273 19.9107 11.6633 20 12 20C12.3367 20 12.6727 19.9107 12.974 19.732L18.0253 16.734C18.628 16.376 19 15.7147 19 14.9987V9.002C19 8.286 18.6287 7.62467 18.0253 7.26667ZM14.1133 16.6307L14.122 17.0613C14.1227 17.1133 14.0887 17.1727 14.048 17.1933L13.7927 17.34C13.752 17.3607 13.7187 17.3353 13.718 17.2833L13.7133 16.86C13.4947 16.9507 13.2733 16.9727 13.132 16.916C13.1053 16.9053 13.094 16.866 13.1047 16.8213L13.1973 16.432C13.2047 16.4013 13.2213 16.3707 13.2433 16.3513C13.2513 16.344 13.2593 16.338 13.2673 16.334C13.282 16.3267 13.296 16.3247 13.3087 16.33C13.4613 16.3813 13.656 16.3573 13.8433 16.2627C14.0813 16.142 14.2407 15.8993 14.238 15.658C14.236 15.4393 14.1173 15.348 13.8293 15.346C13.4627 15.3467 13.12 15.2747 13.1147 14.7347C13.11 14.29 13.3413 13.8273 13.7073 13.5347L13.7027 13.1C13.702 13.0467 13.7347 12.988 13.7767 12.9667L14.0233 12.8093C14.064 12.7887 14.0973 12.814 14.098 12.8673L14.102 13.3027C14.284 13.23 14.4427 13.2107 14.586 13.244C14.6173 13.252 14.6307 13.2947 14.618 13.3447L14.522 13.73C14.5147 13.7593 14.498 13.7887 14.4787 13.8073C14.4707 13.8153 14.462 13.8213 14.4533 13.826C14.4407 13.8327 14.428 13.8347 14.4153 13.832C14.35 13.8173 14.194 13.7833 13.9493 13.9073C13.6927 14.0373 13.6027 14.2607 13.6047 14.426C13.6067 14.624 13.708 14.684 14.0587 14.69C14.5253 14.698 14.7273 14.902 14.732 15.372C14.7367 15.8313 14.4907 16.3273 14.1133 16.6307ZM16.762 15.906C16.762 15.946 16.7567 15.9833 16.7233 16.0027L15.446 16.7787C15.4127 16.798 15.386 16.7813 15.386 16.7413V16.412C15.386 16.372 15.4107 16.35 15.444 16.3307L16.702 15.578C16.7353 15.5587 16.762 15.5753 16.762 15.6153V15.906ZM17.6393 8.53133L12.8607 11.4827C12.2647 11.8313 11.8253 12.222 11.8253 12.9407V18.8293C11.8253 19.2593 11.9987 19.538 12.2653 19.6187C12.178 19.634 12.0893 19.6447 12 19.6447C11.72 19.6447 11.4447 19.5687 11.202 19.4247L6.15067 16.4267C5.65667 16.1333 5.35 15.586 5.35 14.9987V9.002C5.35 8.41467 5.65667 7.86733 6.15067 7.574L11.202 4.57533C11.444 4.43133 11.72 4.35533 12 4.35533C12.2793 4.35533 12.5553 4.43133 12.798 4.57533L17.8493 7.574C18.2653 7.82133 18.5467 8.24933 18.6253 8.72867C18.4573 8.37133 18.08 8.274 17.6393 8.53133Z" fill="#4EAA25"/>
</svg>
