<svg width="32" height="32" viewBox="0 0 32 32" fill="none" xmlns="http://www.w3.org/2000/svg">
<rect width="32" height="32" rx="2" fill="#0D1117"/>
<path d="M15.8083 15.3667H14.2967V12.835H16.09C17.065 12.835 17.6183 13.27 17.6183 14.0567C17.6183 14.8967 16.9742 15.3667 15.8067 15.3667H15.8083ZM16.0783 16.3717H14.2975V19.1617H16.1567C17.3725 19.1617 18.0167 18.6742 18.0167 17.7575C18.0167 16.8409 17.3542 16.3717 16.0783 16.3717V16.3717ZM26 15.4917V16.5067C25.06 16.5967 24.4858 17.2934 24.145 18.3967C23.8058 19.4959 23.7592 20.8442 23.795 21.885C23.8325 22.9684 22.9883 23.9684 21.8475 23.9684H10.1542C9.0125 23.9684 8.16833 22.9684 8.20667 21.885C8.2425 20.8442 8.19583 19.4959 7.85667 18.3967C7.515 17.2934 6.94 16.5967 6 16.5067V15.4917C6.94 15.4017 7.51583 14.705 7.85583 13.6017C8.19583 12.5025 8.2425 11.1542 8.20583 10.1134C8.16833 9.03003 9.0125 8.03003 10.1542 8.03003H21.8475C22.9892 8.03003 23.8325 9.03003 23.795 10.1134C23.7592 11.1542 23.8058 12.5025 24.145 13.6017C24.4858 14.705 25.06 15.4017 26 15.4917ZM19.3942 17.8392C19.3942 16.7109 18.6 15.895 17.4208 15.7659V15.7184C18.2875 15.5775 18.9675 14.7725 18.9675 13.8742C18.9675 12.5934 17.9567 11.7592 16.4158 11.7592H12.9492V20.2359H16.4333C18.2817 20.2359 19.3942 19.3309 19.3942 17.8392V17.8392Z" fill="#7952B3"/>
</svg>
