<svg width="24" height="24" viewBox="0 0 24 24" fill="none" xmlns="http://www.w3.org/2000/svg">
<rect width="24" height="24" rx="2" fill="#2D2D2D"/>
<path d="M11.8467 11.4934H10.6373V9.46802H12.072C12.852 9.46802 13.2947 9.81602 13.2947 10.4454C13.2947 11.1174 12.7793 11.4934 11.8453 11.4934H11.8467ZM12.0627 12.2974H10.638V14.5294H12.1253C13.098 14.5294 13.6133 14.1394 13.6133 13.406C13.6133 12.6727 13.0833 12.2974 12.0627 12.2974V12.2974ZM20 11.5934V12.4054C19.248 12.4774 18.7887 13.0347 18.516 13.9174C18.2447 14.7967 18.2073 15.8754 18.236 16.708C18.266 17.5747 17.5907 18.3747 16.678 18.3747H7.32333C6.41 18.3747 5.73467 17.5747 5.76533 16.708C5.794 15.8754 5.75667 14.7967 5.48533 13.9174C5.212 13.0347 4.752 12.4774 4 12.4054V11.5934C4.752 11.5214 5.21267 10.964 5.48467 10.0814C5.75667 9.20202 5.794 8.12336 5.76467 7.29069C5.73467 6.42402 6.41 5.62402 7.32333 5.62402H16.678C17.5913 5.62402 18.266 6.42402 18.236 7.29069C18.2073 8.12336 18.2447 9.20202 18.516 10.0814C18.7887 10.964 19.248 11.5214 20 11.5934ZM14.7153 13.4714C14.7153 12.5687 14.08 11.916 13.1367 11.8127V11.7747C13.83 11.662 14.374 11.018 14.374 10.2994C14.374 9.27469 13.5653 8.60736 12.3327 8.60736H9.55933V15.3887H12.3467C13.8253 15.3887 14.7153 14.6647 14.7153 13.4714V13.4714Z" fill="#7952B3"/>
</svg>
