<svg width="83" height="20" viewBox="0 0 83 20" fill="none" xmlns="http://www.w3.org/2000/svg">
<path d="M0 2C0 0.895431 0.895431 0 2 0H63V20H2C0.89543 20 0 19.1046 0 18V2Z" fill="#2D2D2D"/>
<path d="M9.348 15.144C8.9 15.144 8.5 15.068 8.148 14.916C7.796 14.764 7.5 14.548 7.26 14.268C7.02 13.98 6.836 13.636 6.708 13.236C6.58 12.828 6.516 12.376 6.516 11.88C6.516 11.384 6.58 10.936 6.708 10.536C6.836 10.128 7.02 9.784 7.26 9.504C7.5 9.216 7.796 8.996 8.148 8.844C8.5 8.692 8.9 8.616 9.348 8.616C9.972 8.616 10.484 8.756 10.884 9.036C11.284 9.316 11.576 9.688 11.76 10.152L10.68 10.656C10.592 10.368 10.436 10.14 10.212 9.972C9.996 9.796 9.708 9.708 9.348 9.708C8.868 9.708 8.504 9.86 8.256 10.164C8.016 10.46 7.896 10.848 7.896 11.328V12.444C7.896 12.924 8.016 13.316 8.256 13.62C8.504 13.916 8.868 14.064 9.348 14.064C9.732 14.064 10.036 13.972 10.26 13.788C10.492 13.596 10.676 13.344 10.812 13.032L11.808 13.56C11.6 14.072 11.288 14.464 10.872 14.736C10.456 15.008 9.948 15.144 9.348 15.144ZM13.0532 6.12H14.3612V9.792H14.4212C14.5572 9.456 14.7612 9.176 15.0332 8.952C15.3132 8.728 15.6932 8.616 16.1732 8.616C16.8132 8.616 17.3092 8.828 17.6612 9.252C18.0212 9.668 18.2012 10.264 18.2012 11.04V15H16.8932V11.196C16.8932 10.228 16.5012 9.744 15.7172 9.744C15.5492 9.744 15.3812 9.768 15.2132 9.816C15.0532 9.856 14.9092 9.92 14.7812 10.008C14.6532 10.096 14.5492 10.208 14.4692 10.344C14.3972 10.48 14.3612 10.636 14.3612 10.812V15H13.0532V6.12ZM20.6741 7.644C20.4021 7.644 20.2021 7.58 20.0741 7.452C19.9541 7.324 19.8941 7.16 19.8941 6.96V6.756C19.8941 6.556 19.9541 6.392 20.0741 6.264C20.2021 6.136 20.4021 6.072 20.6741 6.072C20.9461 6.072 21.1421 6.136 21.2621 6.264C21.3821 6.392 21.4421 6.556 21.4421 6.756V6.96C21.4421 7.16 21.3821 7.324 21.2621 7.452C21.1421 7.58 20.9461 7.644 20.6741 7.644ZM20.0141 8.76H21.3221V15H20.0141V8.76ZM24.5219 15C24.0739 15 23.7379 14.888 23.5139 14.664C23.2979 14.432 23.1899 14.112 23.1899 13.704V6.12H24.4979V13.932H25.3619V15H24.5219ZM30.5358 13.968H30.4758C30.3398 14.336 30.1158 14.624 29.8038 14.832C29.4998 15.04 29.1398 15.144 28.7238 15.144C27.9318 15.144 27.3198 14.86 26.8878 14.292C26.4558 13.716 26.2398 12.912 26.2398 11.88C26.2398 10.848 26.4558 10.048 26.8878 9.48C27.3198 8.904 27.9318 8.616 28.7238 8.616C29.1398 8.616 29.4998 8.72 29.8038 8.928C30.1158 9.128 30.3398 9.416 30.4758 9.792H30.5358V6.12H31.8438V15H30.5358V13.968ZM29.1198 14.016C29.5198 14.016 29.8558 13.92 30.1278 13.728C30.3998 13.528 30.5358 13.268 30.5358 12.948V10.812C30.5358 10.492 30.3998 10.236 30.1278 10.044C29.8558 9.844 29.5198 9.744 29.1198 9.744C28.6638 9.744 28.2998 9.892 28.0278 10.188C27.7558 10.476 27.6198 10.86 27.6198 11.34V12.42C27.6198 12.9 27.7558 13.288 28.0278 13.584C28.2998 13.872 28.6638 14.016 29.1198 14.016ZM33.7133 15V8.76H35.0213V9.96H35.0813C35.1693 9.64 35.3533 9.36 35.6333 9.12C35.9133 8.88 36.3013 8.76 36.7973 8.76H37.1453V10.02H36.6293C36.1093 10.02 35.7093 10.104 35.4293 10.272C35.1573 10.44 35.0213 10.688 35.0213 11.016V15H33.7133ZM40.6965 15.144C40.2485 15.144 39.8485 15.068 39.4965 14.916C39.1445 14.764 38.8445 14.548 38.5965 14.268C38.3485 13.98 38.1565 13.636 38.0205 13.236C37.8925 12.828 37.8285 12.376 37.8285 11.88C37.8285 11.384 37.8925 10.936 38.0205 10.536C38.1565 10.128 38.3485 9.784 38.5965 9.504C38.8445 9.216 39.1445 8.996 39.4965 8.844C39.8485 8.692 40.2485 8.616 40.6965 8.616C41.1525 8.616 41.5525 8.696 41.8965 8.856C42.2485 9.016 42.5405 9.24 42.7725 9.528C43.0045 9.808 43.1765 10.136 43.2885 10.512C43.4085 10.888 43.4685 11.292 43.4685 11.724V12.216H39.1845V12.42C39.1845 12.9 39.3245 13.296 39.6045 13.608C39.8925 13.912 40.3005 14.064 40.8285 14.064C41.2125 14.064 41.5365 13.98 41.8005 13.812C42.0645 13.644 42.2885 13.416 42.4725 13.128L43.2405 13.884C43.0085 14.268 42.6725 14.576 42.2325 14.808C41.7925 15.032 41.2805 15.144 40.6965 15.144ZM40.6965 9.636C40.4725 9.636 40.2645 9.676 40.0725 9.756C39.8885 9.836 39.7285 9.948 39.5925 10.092C39.4645 10.236 39.3645 10.408 39.2925 10.608C39.2205 10.808 39.1845 11.028 39.1845 11.268V11.352H42.0885V11.232C42.0885 10.752 41.9645 10.368 41.7165 10.08C41.4685 9.784 41.1285 9.636 40.6965 9.636ZM44.9165 15V8.76H46.2245V9.792H46.2845C46.4205 9.456 46.6245 9.176 46.8965 8.952C47.1765 8.728 47.5565 8.616 48.0365 8.616C48.6765 8.616 49.1725 8.828 49.5245 9.252C49.8845 9.668 50.0645 10.264 50.0645 11.04V15H48.7565V11.208C48.7565 10.232 48.3645 9.744 47.5805 9.744C47.4125 9.744 47.2445 9.768 47.0765 9.816C46.9165 9.856 46.7725 9.92 46.6445 10.008C46.5165 10.096 46.4125 10.208 46.3325 10.344C46.2605 10.48 46.2245 10.64 46.2245 10.824V15H44.9165ZM53.8574 15.144C53.2654 15.144 52.7694 15.04 52.3694 14.832C51.9694 14.624 51.6214 14.336 51.3254 13.968L52.1654 13.2C52.3974 13.48 52.6534 13.7 52.9334 13.86C53.2214 14.012 53.5534 14.088 53.9294 14.088C54.3134 14.088 54.5974 14.016 54.7814 13.872C54.9734 13.72 55.0694 13.512 55.0694 13.248C55.0694 13.048 55.0014 12.88 54.8654 12.744C54.7374 12.6 54.5094 12.508 54.1814 12.468L53.6054 12.396C52.9654 12.316 52.4614 12.132 52.0934 11.844C51.7334 11.548 51.5534 11.112 51.5534 10.536C51.5534 10.232 51.6094 9.964 51.7214 9.732C51.8334 9.492 51.9894 9.292 52.1894 9.132C52.3974 8.964 52.6414 8.836 52.9214 8.748C53.2094 8.66 53.5254 8.616 53.8694 8.616C54.4294 8.616 54.8854 8.704 55.2374 8.88C55.5974 9.056 55.9174 9.3 56.1974 9.612L55.3934 10.38C55.2334 10.188 55.0214 10.024 54.7574 9.888C54.5014 9.744 54.2054 9.672 53.8694 9.672C53.5094 9.672 53.2414 9.744 53.0654 9.888C52.8974 10.032 52.8134 10.22 52.8134 10.452C52.8134 10.692 52.8894 10.872 53.0414 10.992C53.1934 11.112 53.4374 11.2 53.7734 11.256L54.3494 11.328C55.0374 11.432 55.5374 11.636 55.8494 11.94C56.1694 12.236 56.3294 12.636 56.3294 13.14C56.3294 13.444 56.2694 13.72 56.1494 13.968C56.0374 14.208 55.8734 14.416 55.6574 14.592C55.4414 14.768 55.1814 14.904 54.8774 15C54.5734 15.096 54.2334 15.144 53.8574 15.144Z" fill="#F5F5F5"/>
<path d="M63 0H81C82.1046 0 83 0.895431 83 2V18C83 19.1046 82.1046 20 81 20H63V0Z" fill="#484848"/>
<path d="M75.552 15H69.744V13.536L72.372 11.232C72.82 10.84 73.148 10.488 73.356 10.176C73.564 9.856 73.668 9.512 73.668 9.144V8.988C73.668 8.62 73.548 8.34 73.308 8.148C73.068 7.948 72.776 7.848 72.432 7.848C72 7.848 71.672 7.972 71.448 8.22C71.224 8.46 71.064 8.752 70.968 9.096L69.6 8.568C69.688 8.288 69.812 8.024 69.972 7.776C70.132 7.52 70.332 7.296 70.572 7.104C70.82 6.912 71.108 6.76 71.436 6.648C71.764 6.536 72.14 6.48 72.564 6.48C73.004 6.48 73.396 6.544 73.74 6.672C74.084 6.792 74.372 6.964 74.604 7.188C74.844 7.412 75.024 7.676 75.144 7.98C75.272 8.284 75.336 8.616 75.336 8.976C75.336 9.328 75.28 9.648 75.168 9.936C75.056 10.224 74.904 10.5 74.712 10.764C74.52 11.02 74.296 11.268 74.04 11.508C73.784 11.74 73.512 11.976 73.224 12.216L71.46 13.668H75.552V15Z" fill="#F5F5F5"/>
</svg>
