<svg width="32" height="32" viewBox="0 0 32 32" fill="none" xmlns="http://www.w3.org/2000/svg">
<path d="M14 1.1547C15.2376 0.440169 16.7624 0.440169 18 1.1547L27.8564 6.8453C29.094 7.55983 29.8564 8.88034 29.8564 10.3094V21.6906C29.8564 23.1197 29.094 24.4402 27.8564 25.1547L18 30.8453C16.7624 31.5598 15.2376 31.5598 14 30.8453L4.14359 25.1547C2.90599 24.4402 2.14359 23.1197 2.14359 21.6906V10.3094C2.14359 8.88034 2.90599 7.55983 4.14359 6.8453L14 1.1547Z" fill="#1572B6"/>
<path d="M9 8H23L21.7267 22.3753L15.9847 24L10.2747 22.3747L9 8ZM20.3933 10.942L11.6067 10.94L11.7487 12.688L18.4987 12.6893L18.3287 14.5H13.902L14.062 16.2153H18.1833L17.9393 18.564L15.9993 19.1L14.0287 18.56L13.9033 17.1533H12.1633L12.3567 19.7233L16 20.8587L19.582 19.8387L20.3933 10.9427V10.942Z" fill="#F0F0F0"/>
</svg>
