<svg width="32" height="32" viewBox="0 0 32 32" fill="none" xmlns="http://www.w3.org/2000/svg">
<path d="M28 0H4C1.79086 0 0 1.79086 0 4V28C0 30.2091 1.79086 32 4 32H28C30.2091 32 32 30.2091 32 28V4C32 1.79086 30.2091 0 28 0Z" fill="#1572B6"/>
<path d="M12.1964 24.8624C10.1849 24.2367 8.52978 23.7171 8.51839 23.7078C8.5076 23.6984 8.41185 22.5404 8.30701 21.1343L8.11632 18.5777L9.84061 18.5669C10.789 18.5615 11.5706 18.5615 11.5775 18.5682C11.5842 18.575 11.6465 19.2036 11.7156 19.9648C11.7846 20.7261 11.8567 21.3634 11.8756 21.3812C11.8944 21.399 12.7965 21.6557 13.8801 21.9517L15.8503 22.4898L17.7988 21.9526C18.8705 21.6571 19.7589 21.4026 19.7732 21.387C19.795 21.3632 20.2777 16.8263 20.2749 16.6711C20.2742 16.6293 19.4128 16.6183 16.111 16.6183H11.9481L11.8106 15.112C11.735 14.2835 11.6622 13.506 11.6488 13.3844L11.6246 13.1632H16.096H20.5674L20.5868 13.0684C20.6103 12.9539 20.907 9.72684 20.9065 9.59214L20.9061 9.49736H14.0889H7.27167L7.13526 7.80138C7.06029 6.86859 6.99938 6.08169 7 6.05271C7.00092 6.01078 8.79957 6 15.8497 6C20.7165 6 24.6991 6.01417 24.7 6.03156C24.7014 6.06149 23.0844 23.9213 23.0788 23.9356C23.0774 23.9396 21.4511 24.4053 19.4649 24.9711L15.8538 26L12.1964 24.8624Z" fill="#F0F0F0"/>
</svg>
