<svg width="24" height="24" viewBox="0 0 24 24" fill="none" xmlns="http://www.w3.org/2000/svg">
<rect width="24" height="24" rx="2" fill="#2D2D2D"/>
<path d="M13.2533 12.4567C12.9866 12.4567 13.3066 12.59 13.654 12.6433C13.7473 12.5767 13.834 12.4967 13.914 12.4233C13.6973 12.471 13.4743 12.4822 13.254 12.4567H13.2533ZM14.6806 12.1033C14.834 11.8833 14.9473 11.6433 14.994 11.3967C14.954 11.5767 14.8606 11.73 14.774 11.8833C14.274 12.1967 14.7273 11.7033 14.774 11.51C14.2406 12.1833 14.7006 11.91 14.6806 12.1033ZM15.2013 10.7367C15.2346 10.256 15.108 10.4027 15.068 10.5893C15.1146 10.616 15.1546 10.9227 15.2013 10.736V10.7367ZM12.2533 4.20667C12.3866 4.23333 12.5533 4.25333 12.5333 4.28667C12.6866 4.25333 12.72 4.22 12.2466 4.20667H12.2533ZM12.5333 4.28667L12.4333 4.30667L12.5266 4.3V4.28667H12.5333ZM16.9486 10.916C16.962 11.3427 16.8153 11.5493 16.6953 11.916L16.462 12.0367C16.2753 12.3967 16.482 12.27 16.3486 12.5567C16.0553 12.8167 15.4553 13.37 15.2686 13.424C15.1346 13.424 15.362 13.2573 15.3953 13.1973C15.0013 13.464 15.0746 13.5973 14.4813 13.764L14.4613 13.724C12.9806 14.4173 10.926 13.044 10.9593 11.1627C10.9393 11.276 10.9126 11.2493 10.8793 11.296C10.8389 10.8176 10.9448 10.3381 11.1831 9.92127C11.4213 9.50443 11.7806 9.16988 12.2133 8.962C12.6126 8.761 13.0629 8.68407 13.5063 8.74109C13.9496 8.79812 14.3658 8.98649 14.7013 9.282C14.488 9.00541 14.2127 8.78286 13.8976 8.63231C13.5825 8.48176 13.2364 8.40744 12.8873 8.41533C12.1006 8.422 11.3666 8.922 11.12 9.462C10.72 9.71533 10.6733 10.442 10.5 10.5693C10.2593 12.3033 10.94 13.0507 12.0866 13.9307C12.2666 14.0573 12.14 14.0707 12.1666 14.164C11.7771 13.9791 11.4298 13.7159 11.1466 13.3907C11.3 13.6107 11.46 13.8307 11.68 13.9973C11.3133 13.8773 10.8333 13.1307 10.6933 13.0973C11.3133 14.204 13.2133 15.0447 14.2006 14.6307C13.6757 14.6678 13.1485 14.6045 12.6473 14.444C12.4273 14.3373 12.134 14.104 12.1806 14.064C12.8258 14.3354 13.5325 14.4267 14.2254 14.3281C14.9183 14.2295 15.5715 13.9447 16.1153 13.504C16.4086 13.2707 16.7353 12.8773 16.8286 12.8707C16.6953 13.084 16.8553 12.9773 16.7486 13.164C17.042 12.684 16.6153 12.964 17.0553 12.3373L17.2153 12.5573C17.1553 12.1573 17.7086 11.6767 17.6553 11.0493C17.782 10.8493 17.7886 11.2493 17.6553 11.696C17.8486 11.2027 17.7086 11.1293 17.7553 10.7227C17.8086 10.856 17.8753 11.0027 17.9086 11.1427C17.7886 10.676 18.042 10.3427 18.0953 10.076C18.0353 10.0427 17.9086 10.276 17.882 9.72267C17.882 9.476 17.9486 9.58933 17.9753 9.536C17.922 9.50267 17.802 9.32267 17.722 8.962C17.7753 8.87533 17.8686 9.182 17.9486 9.18867C17.8953 8.90867 17.8153 8.68867 17.8153 8.46867C17.5886 8.01533 17.7353 8.53533 17.5486 8.26867C17.322 7.54133 17.7486 8.102 17.7753 7.77533C18.1353 8.28867 18.3353 9.082 18.4293 9.41533C18.3626 9.01533 18.2426 8.61533 18.1026 8.242C18.2093 8.28867 17.9293 7.41467 18.2426 7.99533C17.8276 6.74595 16.9555 5.69977 15.8013 5.06667C15.9213 5.18 16.0813 5.32667 16.0213 5.34667C15.5213 5.04667 15.608 5.02667 15.5346 4.9C15.128 4.73333 15.1013 4.91333 14.828 4.9C14.0546 4.48667 13.908 4.53333 13.2 4.26667L13.2333 4.42C12.72 4.25333 12.6333 4.48667 12.08 4.42C12.0466 4.39333 12.26 4.32667 12.4333 4.3C11.9393 4.36667 11.966 4.20667 11.4793 4.32C11.5926 4.23333 11.7193 4.18 11.846 4.10667C11.446 4.13333 10.886 4.34 11.0593 4.15333C10.4 4.45333 9.2313 4.86667 8.57797 5.48L8.55864 5.33333C8.25864 5.69333 7.25197 6.40733 7.17197 6.874L7.08464 6.894C6.9313 7.16067 6.8313 7.46067 6.70464 7.73467C6.50464 8.08133 6.40464 7.868 6.43797 7.92133C6.03797 8.73467 5.83797 9.422 5.66464 9.98933C5.78464 10.1693 5.66464 11.0893 5.7113 11.8293C5.5113 15.4713 8.2713 19.0133 11.2866 19.8333C11.7333 19.9867 12.3866 19.9867 12.9466 20C12.2866 19.8133 12.2 19.9 11.56 19.6733C11.0933 19.46 10.9933 19.2067 10.6666 18.92L10.8 19.1533C10.1526 18.9267 10.42 18.8733 9.89264 18.7067L10.0326 18.5267C9.82597 18.5067 9.4793 18.1733 9.38597 17.9867L9.1593 17.9933C8.88597 17.6593 8.7393 17.4127 8.75264 17.2193L8.67864 17.3527C8.59197 17.2127 7.6653 16.0853 8.1453 16.3453C8.05864 16.2653 7.93864 16.212 7.81197 15.9787L7.9053 15.8653C7.67197 15.572 7.47864 15.1853 7.49197 15.0653C7.6253 15.2253 7.7053 15.2653 7.79197 15.2853C7.2053 13.8373 7.17197 15.2053 6.72464 13.8173L6.82464 13.804C6.75797 13.6973 6.70464 13.5773 6.6513 13.464L6.6913 13.064C6.2713 12.5707 6.5713 10.996 6.6313 10.1293C6.67797 9.76933 6.98464 9.396 7.21797 8.80867L7.07797 8.782C7.34464 8.30867 8.63864 6.86733 9.23864 6.94133C9.5253 6.57467 9.17864 6.94133 9.11864 6.848C9.75864 6.18733 9.95864 6.38133 10.386 6.26133C10.8526 5.994 9.98597 6.368 10.206 6.16067C11.006 5.96067 10.7726 5.694 11.82 5.594C11.9266 5.66067 11.56 5.68733 11.4733 5.76733C12.14 5.44067 13.574 5.52067 14.5146 5.94733C15.6013 6.46067 16.822 7.95467 16.8686 9.36867L16.922 9.382C16.8953 9.94867 17.0086 10.596 16.8086 11.1893L16.942 10.9093L16.9486 10.916ZM10.36 12.824L10.3266 13.0107C10.5 13.244 10.64 13.4973 10.86 13.684C10.7 13.3707 10.58 13.244 10.36 12.8173V12.824ZM10.7733 12.804C10.68 12.704 10.6266 12.5773 10.5666 12.4573C10.62 12.6707 10.74 12.8573 10.8533 13.044L10.7733 12.804V12.804ZM18.07 11.216L18.0233 11.316C17.9566 11.8227 17.7966 12.3233 17.5633 12.7907C17.83 12.304 17.9966 11.7633 18.0633 11.216H18.07ZM12.3 4.08C12.48 4.01333 12.74 4.04667 12.9333 4C12.6866 4.02 12.44 4.03333 12.2 4.06667L12.3 4.08V4.08ZM6.00397 7.428C6.05064 7.808 5.7173 7.96133 6.0773 7.708C6.2773 7.268 6.00397 7.588 6.01064 7.428H6.00397ZM5.58397 9.202C5.66397 8.942 5.68397 8.78867 5.7173 8.642C5.48397 8.93533 5.60397 8.99533 5.58397 9.19533" fill="#A81D33"/>
</svg>
