<svg width="32" height="32" viewBox="0 0 32 32" fill="none" xmlns="http://www.w3.org/2000/svg">
<rect width="32" height="32" rx="2" fill="#0D1117"/>
<path d="M17.5667 16.5708C17.2334 16.5708 17.6334 16.7375 18.0675 16.8042C18.1842 16.7208 18.2925 16.6208 18.3925 16.5292C18.1217 16.5887 17.8429 16.6028 17.5675 16.5708H17.5667ZM19.3509 16.1292C19.5425 15.8542 19.6842 15.5542 19.7425 15.2458C19.6925 15.4708 19.5759 15.6625 19.4675 15.8542C18.8425 16.2458 19.4092 15.6292 19.4675 15.3875C18.8009 16.2292 19.3759 15.8875 19.3509 16.1292ZM20.0017 14.4208C20.0434 13.82 19.885 14.0033 19.835 14.2367C19.8934 14.27 19.9434 14.6533 20.0017 14.42V14.4208ZM16.3167 6.25833C16.4834 6.29167 16.6917 6.31667 16.6667 6.35833C16.8584 6.31667 16.9 6.275 16.3084 6.25833H16.3167ZM16.6667 6.35833L16.5417 6.38333L16.6584 6.375V6.35833H16.6667ZM22.1859 14.645C22.2025 15.1783 22.0192 15.4367 21.8692 15.895L21.5775 16.0458C21.3442 16.4958 21.6025 16.3375 21.4359 16.6958C21.0692 17.0208 20.3192 17.7125 20.0859 17.78C19.9184 17.78 20.2025 17.5717 20.2442 17.4967C19.7517 17.83 19.8434 17.9967 19.1017 18.205L19.0767 18.155C17.2259 19.0217 14.6575 17.305 14.6992 14.9533C14.6742 15.095 14.6409 15.0617 14.5992 15.12C14.5487 14.5219 14.6811 13.9226 14.9789 13.4016C15.2767 12.8805 15.7258 12.4624 16.2667 12.2025C16.7658 11.9512 17.3287 11.8551 17.8829 11.9264C18.4371 11.9976 18.9573 12.2331 19.3767 12.6025C19.1101 12.2568 18.766 11.9786 18.3721 11.7904C17.9782 11.6022 17.5456 11.5093 17.1092 11.5192C16.1259 11.5275 15.2084 12.1525 14.9 12.8275C14.4 13.1442 14.3417 14.0525 14.125 14.2117C13.8242 16.3792 14.675 17.3133 16.1084 18.4133C16.3334 18.5717 16.175 18.5883 16.2084 18.705C15.7214 18.4739 15.2873 18.1448 14.9334 17.7383C15.125 18.0133 15.325 18.2883 15.6 18.4967C15.1417 18.3467 14.5417 17.4133 14.3667 17.3717C15.1417 18.755 17.5167 19.8058 18.7509 19.2883C18.0947 19.3348 17.4357 19.2556 16.8092 19.055C16.5342 18.9217 16.1675 18.63 16.2259 18.58C17.0323 18.9193 17.9156 19.0334 18.7818 18.9101C19.6479 18.7868 20.4644 18.4308 21.1442 17.88C21.5109 17.5883 21.9192 17.0967 22.0359 17.0883C21.8692 17.355 22.0692 17.2217 21.9359 17.455C22.3025 16.855 21.7692 17.205 22.3192 16.4217L22.5192 16.6967C22.4442 16.1967 23.1359 15.5958 23.0692 14.8117C23.2275 14.5617 23.2359 15.0617 23.0692 15.62C23.3109 15.0033 23.1359 14.9117 23.1942 14.4033C23.2609 14.57 23.3442 14.7533 23.3859 14.9283C23.2359 14.345 23.5525 13.9283 23.6192 13.595C23.5442 13.5533 23.3859 13.845 23.3525 13.1533C23.3525 12.845 23.4359 12.9867 23.4692 12.92C23.4025 12.8783 23.2525 12.6533 23.1525 12.2025C23.2192 12.0942 23.3359 12.4775 23.4359 12.4858C23.3692 12.1358 23.2692 11.8608 23.2692 11.5858C22.9859 11.0192 23.1692 11.6692 22.9359 11.3358C22.6525 10.4267 23.1859 11.1275 23.2192 10.7192C23.6692 11.3608 23.9192 12.3525 24.0367 12.7692C23.9534 12.2692 23.8034 11.7692 23.6284 11.3025C23.7617 11.3608 23.4117 10.2683 23.8034 10.9942C23.2845 9.43244 22.1944 8.12471 20.7517 7.33333C20.9017 7.475 21.1017 7.65833 21.0267 7.68333C20.4017 7.30833 20.51 7.28333 20.4184 7.125C19.91 6.91667 19.8767 7.14167 19.535 7.125C18.5684 6.60833 18.385 6.66667 17.5 6.33333L17.5417 6.525C16.9 6.31667 16.7917 6.60833 16.1 6.525C16.0584 6.49167 16.325 6.40833 16.5417 6.375C15.9242 6.45833 15.9575 6.25833 15.3492 6.4C15.4909 6.29167 15.6492 6.225 15.8075 6.13333C15.3075 6.16667 14.6075 6.425 14.8242 6.19167C14 6.56667 12.5392 7.08333 11.7225 7.85L11.6984 7.66667C11.3234 8.11667 10.065 9.00917 9.96502 9.5925L9.85586 9.6175C9.66419 9.95083 9.53919 10.3258 9.38086 10.6683C9.13086 11.1017 9.00586 10.835 9.04752 10.9017C8.54752 11.9183 8.29752 12.7775 8.08086 13.4867C8.23086 13.7117 8.08086 14.8617 8.13919 15.7867C7.88919 20.3392 11.3392 24.7667 15.1084 25.7917C15.6667 25.9833 16.4834 25.9833 17.1834 26C16.3584 25.7667 16.25 25.875 15.45 25.5917C14.8667 25.325 14.7417 25.0083 14.3334 24.65L14.5 24.9417C13.6909 24.6583 14.025 24.5917 13.3659 24.3833L13.5409 24.1583C13.2825 24.1333 12.8492 23.7167 12.7325 23.4833L12.4492 23.4917C12.1075 23.0742 11.9242 22.7658 11.9409 22.5242L11.8484 22.6908C11.74 22.5158 10.5817 21.1067 11.1817 21.4317C11.0734 21.3317 10.9234 21.265 10.765 20.9733L10.8817 20.8317C10.59 20.465 10.3484 19.9817 10.365 19.8317C10.5317 20.0317 10.6317 20.0817 10.74 20.1067C10.0067 18.2967 9.96502 20.0067 9.40586 18.2717L9.53086 18.255C9.44752 18.1217 9.38086 17.9717 9.31419 17.83L9.36419 17.33C8.83919 16.7133 9.21419 14.745 9.28919 13.6617C9.34752 13.2117 9.73086 12.745 10.0225 12.0108L9.84752 11.9775C10.1809 11.3858 11.7984 9.58417 12.5484 9.67667C12.9067 9.21833 12.4734 9.67667 12.3984 9.56C13.1984 8.73417 13.4484 8.97667 13.9825 8.82667C14.5659 8.4925 13.4825 8.96 13.7575 8.70083C14.7575 8.45083 14.4659 8.1175 15.775 7.9925C15.9084 8.07583 15.45 8.10917 15.3417 8.20917C16.175 7.80083 17.9675 7.90083 19.1434 8.43417C20.5017 9.07583 22.0275 10.9433 22.0859 12.7108L22.1525 12.7275C22.1192 13.4358 22.2609 14.245 22.0109 14.9867L22.1775 14.6367L22.1859 14.645ZM13.95 17.03L13.9084 17.2633C14.125 17.555 14.3 17.8717 14.575 18.105C14.375 17.7133 14.225 17.555 13.95 17.0217V17.03ZM14.4667 17.005C14.35 16.88 14.2834 16.7217 14.2084 16.5717C14.275 16.8383 14.425 17.0717 14.5667 17.305L14.4667 17.005V17.005ZM23.5875 15.02L23.5292 15.145C23.4459 15.7783 23.2459 16.4042 22.9542 16.9883C23.2875 16.38 23.4959 15.7042 23.5792 15.02H23.5875ZM16.375 6.1C16.6 6.01667 16.925 6.05833 17.1667 6C16.8584 6.025 16.55 6.04167 16.25 6.08333L16.375 6.1V6.1ZM8.50502 10.285C8.56336 10.76 8.14669 10.9517 8.59669 10.635C8.84669 10.085 8.50502 10.485 8.51336 10.285H8.50502ZM7.98002 12.5025C8.08002 12.1775 8.10502 11.9858 8.14669 11.8025C7.85502 12.1692 8.00502 12.2442 7.98002 12.4942" fill="#A81D33"/>
</svg>
