<svg width="100" height="24" viewBox="0 0 100 24" fill="none" xmlns="http://www.w3.org/2000/svg">
<rect width="100" height="24" rx="2" fill="#3F3F3F"/>
<path d="M7.032 8.624H9.996C10.532 8.624 11.016 8.712 11.448 8.888C11.888 9.064 12.26 9.328 12.564 9.68C12.876 10.024 13.116 10.46 13.284 10.988C13.452 11.508 13.536 12.116 13.536 12.812C13.536 13.508 13.452 14.12 13.284 14.648C13.116 15.168 12.876 15.604 12.564 15.956C12.26 16.3 11.888 16.56 11.448 16.736C11.016 16.912 10.532 17 9.996 17H7.032V8.624ZM9.996 15.8C10.62 15.8 11.124 15.604 11.508 15.212C11.892 14.82 12.084 14.244 12.084 13.484V12.14C12.084 11.38 11.892 10.804 11.508 10.412C11.124 10.02 10.62 9.824 9.996 9.824H8.388V15.8H9.996ZM17.5754 17.144C17.1274 17.144 16.7274 17.068 16.3754 16.916C16.0234 16.764 15.7234 16.548 15.4754 16.268C15.2274 15.98 15.0354 15.636 14.8994 15.236C14.7714 14.828 14.7074 14.376 14.7074 13.88C14.7074 13.384 14.7714 12.936 14.8994 12.536C15.0354 12.128 15.2274 11.784 15.4754 11.504C15.7234 11.216 16.0234 10.996 16.3754 10.844C16.7274 10.692 17.1274 10.616 17.5754 10.616C18.0314 10.616 18.4314 10.696 18.7754 10.856C19.1274 11.016 19.4194 11.24 19.6514 11.528C19.8834 11.808 20.0554 12.136 20.1674 12.512C20.2874 12.888 20.3474 13.292 20.3474 13.724V14.216H16.0634V14.42C16.0634 14.9 16.2034 15.296 16.4834 15.608C16.7714 15.912 17.1794 16.064 17.7074 16.064C18.0914 16.064 18.4154 15.98 18.6794 15.812C18.9434 15.644 19.1674 15.416 19.3514 15.128L20.1194 15.884C19.8874 16.268 19.5514 16.576 19.1114 16.808C18.6714 17.032 18.1594 17.144 17.5754 17.144ZM17.5754 11.636C17.3514 11.636 17.1434 11.676 16.9514 11.756C16.7674 11.836 16.6074 11.948 16.4714 12.092C16.3434 12.236 16.2434 12.408 16.1714 12.608C16.0994 12.808 16.0634 13.028 16.0634 13.268V13.352H18.9674V13.232C18.9674 12.752 18.8434 12.368 18.5954 12.08C18.3474 11.784 18.0074 11.636 17.5754 11.636ZM23.0459 17L20.9219 10.76H22.2179L23.1659 13.604L23.8019 15.788H23.8739L24.5099 13.604L25.4819 10.76H26.7299L24.5819 17H23.0459ZM30.1848 17.144C29.7368 17.144 29.3368 17.068 28.9848 16.916C28.6328 16.764 28.3328 16.548 28.0848 16.268C27.8368 15.98 27.6448 15.636 27.5088 15.236C27.3808 14.828 27.3168 14.376 27.3168 13.88C27.3168 13.384 27.3808 12.936 27.5088 12.536C27.6448 12.128 27.8368 11.784 28.0848 11.504C28.3328 11.216 28.6328 10.996 28.9848 10.844C29.3368 10.692 29.7368 10.616 30.1848 10.616C30.6408 10.616 31.0408 10.696 31.3848 10.856C31.7368 11.016 32.0288 11.24 32.2608 11.528C32.4928 11.808 32.6648 12.136 32.7768 12.512C32.8968 12.888 32.9568 13.292 32.9568 13.724V14.216H28.6728V14.42C28.6728 14.9 28.8128 15.296 29.0928 15.608C29.3808 15.912 29.7888 16.064 30.3168 16.064C30.7008 16.064 31.0248 15.98 31.2888 15.812C31.5528 15.644 31.7768 15.416 31.9608 15.128L32.7288 15.884C32.4968 16.268 32.1608 16.576 31.7208 16.808C31.2808 17.032 30.7688 17.144 30.1848 17.144ZM30.1848 11.636C29.9608 11.636 29.7528 11.676 29.5608 11.756C29.3768 11.836 29.2168 11.948 29.0808 12.092C28.9528 12.236 28.8528 12.408 28.7808 12.608C28.7088 12.808 28.6728 13.028 28.6728 13.268V13.352H31.5768V13.232C31.5768 12.752 31.4528 12.368 31.2048 12.08C30.9568 11.784 30.6168 11.636 30.1848 11.636ZM35.7368 17C35.2888 17 34.9528 16.888 34.7288 16.664C34.5128 16.432 34.4048 16.112 34.4048 15.704V8.12H35.7128V15.932H36.5768V17H35.7368ZM40.2746 17.144C39.8426 17.144 39.4466 17.068 39.0866 16.916C38.7346 16.764 38.4346 16.548 38.1866 16.268C37.9386 15.98 37.7466 15.636 37.6106 15.236C37.4746 14.828 37.4066 14.376 37.4066 13.88C37.4066 13.384 37.4746 12.936 37.6106 12.536C37.7466 12.128 37.9386 11.784 38.1866 11.504C38.4346 11.216 38.7346 10.996 39.0866 10.844C39.4466 10.692 39.8426 10.616 40.2746 10.616C40.7066 10.616 41.0986 10.692 41.4506 10.844C41.8106 10.996 42.1146 11.216 42.3626 11.504C42.6106 11.784 42.8026 12.128 42.9386 12.536C43.0746 12.936 43.1426 13.384 43.1426 13.88C43.1426 14.376 43.0746 14.828 42.9386 15.236C42.8026 15.636 42.6106 15.98 42.3626 16.268C42.1146 16.548 41.8106 16.764 41.4506 16.916C41.0986 17.068 40.7066 17.144 40.2746 17.144ZM40.2746 16.064C40.7226 16.064 41.0826 15.928 41.3546 15.656C41.6266 15.376 41.7626 14.96 41.7626 14.408V13.352C41.7626 12.8 41.6266 12.388 41.3546 12.116C41.0826 11.836 40.7226 11.696 40.2746 11.696C39.8266 11.696 39.4666 11.836 39.1946 12.116C38.9226 12.388 38.7866 12.8 38.7866 13.352V14.408C38.7866 14.96 38.9226 15.376 39.1946 15.656C39.4666 15.928 39.8266 16.064 40.2746 16.064ZM44.6001 10.76H45.9081V11.792H45.9681C46.1041 11.416 46.3241 11.128 46.6281 10.928C46.9401 10.72 47.3041 10.616 47.7201 10.616C48.5121 10.616 49.1241 10.904 49.5561 11.48C49.9881 12.048 50.2041 12.848 50.2041 13.88C50.2041 14.912 49.9881 15.716 49.5561 16.292C49.1241 16.86 48.5121 17.144 47.7201 17.144C47.3041 17.144 46.9401 17.04 46.6281 16.832C46.3241 16.624 46.1041 16.336 45.9681 15.968H45.9081V19.4H44.6001V10.76ZM47.3241 16.016C47.7801 16.016 48.1441 15.872 48.4161 15.584C48.6881 15.288 48.8241 14.9 48.8241 14.42V13.34C48.8241 12.86 48.6881 12.476 48.4161 12.188C48.1441 11.892 47.7801 11.744 47.3241 11.744C46.9241 11.744 46.5881 11.844 46.3161 12.044C46.0441 12.236 45.9081 12.492 45.9081 12.812V14.948C45.9081 15.268 46.0441 15.528 46.3161 15.728C46.5881 15.92 46.9241 16.016 47.3241 16.016ZM51.7016 17V10.76H53.0096V11.792H53.0696C53.1336 11.632 53.2096 11.48 53.2976 11.336C53.3936 11.192 53.5056 11.068 53.6336 10.964C53.7696 10.852 53.9256 10.768 54.1016 10.712C54.2856 10.648 54.4976 10.616 54.7376 10.616C55.1616 10.616 55.5376 10.72 55.8656 10.928C56.1936 11.136 56.4336 11.456 56.5856 11.888H56.6216C56.7336 11.536 56.9496 11.236 57.2696 10.988C57.5896 10.74 58.0016 10.616 58.5056 10.616C59.1296 10.616 59.6136 10.828 59.9576 11.252C60.3016 11.668 60.4736 12.264 60.4736 13.04V17H59.1656V13.196C59.1656 12.716 59.0736 12.356 58.8896 12.116C58.7056 11.868 58.4136 11.744 58.0136 11.744C57.8456 11.744 57.6856 11.768 57.5336 11.816C57.3816 11.856 57.2456 11.92 57.1256 12.008C57.0136 12.096 56.9216 12.208 56.8496 12.344C56.7776 12.48 56.7416 12.636 56.7416 12.812V17H55.4336V13.196C55.4336 12.228 55.0536 11.744 54.2936 11.744C54.1336 11.744 53.9736 11.768 53.8136 11.816C53.6616 11.856 53.5256 11.92 53.4056 12.008C53.2856 12.096 53.1896 12.208 53.1176 12.344C53.0456 12.48 53.0096 12.636 53.0096 12.812V17H51.7016ZM64.7317 17.144C64.2837 17.144 63.8837 17.068 63.5317 16.916C63.1797 16.764 62.8797 16.548 62.6317 16.268C62.3837 15.98 62.1917 15.636 62.0557 15.236C61.9277 14.828 61.8637 14.376 61.8637 13.88C61.8637 13.384 61.9277 12.936 62.0557 12.536C62.1917 12.128 62.3837 11.784 62.6317 11.504C62.8797 11.216 63.1797 10.996 63.5317 10.844C63.8837 10.692 64.2837 10.616 64.7317 10.616C65.1877 10.616 65.5877 10.696 65.9317 10.856C66.2837 11.016 66.5757 11.24 66.8077 11.528C67.0397 11.808 67.2117 12.136 67.3237 12.512C67.4437 12.888 67.5037 13.292 67.5037 13.724V14.216H63.2197V14.42C63.2197 14.9 63.3597 15.296 63.6397 15.608C63.9277 15.912 64.3357 16.064 64.8637 16.064C65.2477 16.064 65.5717 15.98 65.8357 15.812C66.0997 15.644 66.3237 15.416 66.5077 15.128L67.2757 15.884C67.0437 16.268 66.7077 16.576 66.2677 16.808C65.8277 17.032 65.3157 17.144 64.7317 17.144ZM64.7317 11.636C64.5077 11.636 64.2997 11.676 64.1077 11.756C63.9237 11.836 63.7637 11.948 63.6277 12.092C63.4997 12.236 63.3997 12.408 63.3277 12.608C63.2557 12.808 63.2197 13.028 63.2197 13.268V13.352H66.1237V13.232C66.1237 12.752 65.9997 12.368 65.7517 12.08C65.5037 11.784 65.1637 11.636 64.7317 11.636ZM68.9516 17V10.76H70.2596V11.792H70.3196C70.4556 11.456 70.6596 11.176 70.9316 10.952C71.2116 10.728 71.5916 10.616 72.0716 10.616C72.7116 10.616 73.2076 10.828 73.5596 11.252C73.9196 11.668 74.0996 12.264 74.0996 13.04V17H72.7916V13.208C72.7916 12.232 72.3996 11.744 71.6156 11.744C71.4476 11.744 71.2796 11.768 71.1116 11.816C70.9516 11.856 70.8076 11.92 70.6796 12.008C70.5516 12.096 70.4476 12.208 70.3676 12.344C70.2956 12.48 70.2596 12.64 70.2596 12.824V17H68.9516ZM77.6406 17C77.1846 17 76.8406 16.884 76.6086 16.652C76.3766 16.412 76.2606 16.076 76.2606 15.644V11.828H75.2886V10.76H75.8166C76.0326 10.76 76.1806 10.712 76.2606 10.616C76.3486 10.52 76.3926 10.364 76.3926 10.148V9.056H77.5686V10.76H78.8766V11.828H77.5686V15.932H78.7806V17H77.6406Z" fill="#F5F5F5"/>
<path fill-rule="evenodd" clip-rule="evenodd" d="M86 11.9999C86 11.8673 86.0527 11.7401 86.1464 11.6463C86.2402 11.5526 86.3674 11.4999 86.5 11.4999H92.293L90.146 9.3539C90.0521 9.26001 89.9994 9.13267 89.9994 8.9999C89.9994 8.86712 90.0521 8.73979 90.146 8.6459C90.2399 8.55201 90.3672 8.49927 90.5 8.49927C90.6328 8.49927 90.7601 8.55201 90.854 8.6459L93.854 11.6459C93.9006 11.6923 93.9375 11.7475 93.9627 11.8083C93.9879 11.869 94.0009 11.9341 94.0009 11.9999C94.0009 12.0657 93.9879 12.1308 93.9627 12.1915C93.9375 12.2523 93.9006 12.3075 93.854 12.3539L90.854 15.3539C90.7601 15.4478 90.6328 15.5005 90.5 15.5005C90.3672 15.5005 90.2399 15.4478 90.146 15.3539C90.0521 15.26 89.9994 15.1327 89.9994 14.9999C89.9994 14.8671 90.0521 14.7398 90.146 14.6459L92.293 12.4999H86.5C86.3674 12.4999 86.2402 12.4472 86.1464 12.3535C86.0527 12.2597 86 12.1325 86 11.9999Z" fill="#F5F5F5"/>
</svg>
