<svg width="138" height="28" viewBox="0 0 138 28" fill="none" xmlns="http://www.w3.org/2000/svg">
<rect width="138" height="28" rx="2" fill="#5865F2"/>
<g clip-path="url(#clip0_1141:576)">
<path d="M21.5447 8.91319C20.5074 8.43704 19.4126 8.09749 18.2879 7.90306C18.2777 7.90115 18.2672 7.90252 18.2578 7.90696C18.2484 7.9114 18.2406 7.91869 18.2356 7.92779C18.0949 8.17799 17.9391 8.50433 17.8301 8.76079C16.6003 8.57666 15.3767 8.57666 14.1722 8.76079C14.0631 8.49859 13.9017 8.17799 13.7604 7.92779C13.7552 7.9189 13.7474 7.91178 13.738 7.90738C13.7287 7.90298 13.7183 7.9015 13.7081 7.90313C12.5833 8.0971 11.4885 8.43662 10.4513 8.91313C10.4424 8.91692 10.4349 8.92337 10.4299 8.93159C8.3556 12.0305 7.78734 15.0533 8.06614 18.0385C8.06692 18.0458 8.06917 18.0529 8.07274 18.0593C8.07632 18.0658 8.08114 18.0714 8.08694 18.0759C9.45547 19.081 10.7811 19.6911 12.0822 20.0955C12.0923 20.0985 12.1031 20.0984 12.1131 20.0951C12.1232 20.0918 12.132 20.0855 12.1383 20.0771C12.4461 19.6569 12.7204 19.2137 12.9557 18.7477C12.9589 18.7413 12.9607 18.7343 12.9611 18.7271C12.9614 18.72 12.9602 18.7129 12.9576 18.7062C12.955 18.6995 12.951 18.6935 12.9459 18.6885C12.9408 18.6835 12.9347 18.6797 12.9279 18.6772C12.4927 18.5121 12.0784 18.3109 11.6798 18.0823C11.6725 18.0781 11.6664 18.0721 11.662 18.0649C11.6576 18.0577 11.6551 18.0495 11.6546 18.0411C11.6541 18.0327 11.6556 18.0243 11.6592 18.0166C11.6627 18.009 11.668 18.0023 11.6747 17.9972C11.7586 17.9343 11.8425 17.869 11.9226 17.8029C11.9297 17.7971 11.9383 17.7933 11.9475 17.7921C11.9566 17.7908 11.9659 17.7922 11.9743 17.7959C14.5929 18.9915 17.4277 18.9915 20.0153 17.7959C20.0237 17.7919 20.0331 17.7904 20.0424 17.7915C20.0516 17.7926 20.0604 17.7964 20.0676 17.8023C20.1477 17.8683 20.2316 17.9343 20.3161 17.9972C20.3229 18.0022 20.3282 18.0089 20.3318 18.0165C20.3354 18.0241 20.337 18.0325 20.3366 18.0409C20.3361 18.0493 20.3337 18.0575 20.3293 18.0647C20.325 18.0719 20.319 18.0779 20.3117 18.0823C19.913 18.3152 19.4953 18.514 19.0631 18.6765C19.0564 18.6791 19.0503 18.683 19.0452 18.6881C19.0401 18.6932 19.0362 18.6993 19.0336 18.706C19.031 18.7127 19.0299 18.7199 19.0303 18.7271C19.0307 18.7343 19.0326 18.7413 19.0359 18.7477C19.2762 19.213 19.5505 19.6562 19.8526 20.0765C19.8588 20.0851 19.8675 20.0916 19.8776 20.0951C19.8877 20.0985 19.8986 20.0986 19.9087 20.0955C21.2161 19.6911 22.5417 19.0809 23.9103 18.0759C23.9162 18.0716 23.9211 18.0661 23.9247 18.0598C23.9283 18.0534 23.9305 18.0464 23.9311 18.0391C24.2647 14.5878 23.3723 11.5899 21.5655 8.93219C21.561 8.92356 21.5537 8.9168 21.5447 8.91313V8.91319ZM13.3467 16.2208C12.5583 16.2208 11.9087 15.497 11.9087 14.6081C11.9087 13.7193 12.5457 12.9955 13.3467 12.9955C14.1539 12.9955 14.7972 13.7257 14.7846 14.6082C14.7846 15.497 14.1476 16.2208 13.3467 16.2208V16.2208ZM18.6632 16.2208C17.8749 16.2208 17.2253 15.497 17.2253 14.6081C17.2253 13.7193 17.8622 12.9955 18.6632 12.9955C19.4704 12.9955 20.1137 13.7257 20.1011 14.6082C20.1011 15.497 19.4704 16.2208 18.6632 16.2208V16.2208Z" fill="#F5F5F5"/>
</g>
<path d="M35.402 19.168C34.7113 19.168 34.1327 19.0467 33.666 18.804C33.1993 18.5613 32.7933 18.2253 32.448 17.796L33.428 16.9C33.6987 17.2267 33.9973 17.4833 34.324 17.67C34.66 17.8473 35.0473 17.936 35.486 17.936C35.934 17.936 36.2653 17.852 36.48 17.684C36.704 17.5067 36.816 17.264 36.816 16.956C36.816 16.7227 36.7367 16.5267 36.578 16.368C36.4287 16.2 36.1627 16.0927 35.78 16.046L35.108 15.962C34.3613 15.8687 33.7733 15.654 33.344 15.318C32.924 14.9727 32.714 14.464 32.714 13.792C32.714 13.4373 32.7793 13.1247 32.91 12.854C33.0407 12.574 33.2227 12.3407 33.456 12.154C33.6987 11.958 33.9833 11.8087 34.31 11.706C34.646 11.6033 35.0147 11.552 35.416 11.552C36.0693 11.552 36.6013 11.6547 37.012 11.86C37.432 12.0653 37.8053 12.35 38.132 12.714L37.194 13.61C37.0073 13.386 36.76 13.1947 36.452 13.036C36.1533 12.868 35.808 12.784 35.416 12.784C34.996 12.784 34.6833 12.868 34.478 13.036C34.282 13.204 34.184 13.4233 34.184 13.694C34.184 13.974 34.2727 14.184 34.45 14.324C34.6273 14.464 34.912 14.5667 35.304 14.632L35.976 14.716C36.7787 14.8373 37.362 15.0753 37.726 15.43C38.0993 15.7753 38.286 16.242 38.286 16.83C38.286 17.1847 38.216 17.5067 38.076 17.796C37.9453 18.076 37.754 18.3187 37.502 18.524C37.25 18.7293 36.9467 18.888 36.592 19C36.2373 19.112 35.8407 19.168 35.402 19.168ZM41.9303 19C41.3983 19 40.9969 18.8647 40.7263 18.594C40.4556 18.314 40.3203 17.922 40.3203 17.418V12.966H39.1863V11.72H39.8023C40.0543 11.72 40.2269 11.664 40.3203 11.552C40.4229 11.44 40.4743 11.258 40.4743 11.006V9.732H41.8463V11.72H43.3723V12.966H41.8463V17.754H43.2603V19H41.9303ZM47.8289 19.168C47.3062 19.168 46.8395 19.0793 46.4289 18.902C46.0182 18.7247 45.6682 18.4727 45.3789 18.146C45.0895 17.81 44.8655 17.4087 44.7069 16.942C44.5575 16.466 44.4829 15.9387 44.4829 15.36C44.4829 14.7813 44.5575 14.2587 44.7069 13.792C44.8655 13.316 45.0895 12.9147 45.3789 12.588C45.6682 12.252 46.0182 11.9953 46.4289 11.818C46.8395 11.6407 47.3062 11.552 47.8289 11.552C48.3609 11.552 48.8275 11.6453 49.2289 11.832C49.6395 12.0187 49.9802 12.28 50.2509 12.616C50.5215 12.9427 50.7222 13.3253 50.8529 13.764C50.9929 14.2027 51.0629 14.674 51.0629 15.178V15.752H46.0649V15.99C46.0649 16.55 46.2282 17.012 46.5549 17.376C46.8909 17.7307 47.3669 17.908 47.9829 17.908C48.4309 17.908 48.8089 17.81 49.1169 17.614C49.4249 17.418 49.6862 17.152 49.9009 16.816L50.7969 17.698C50.5262 18.146 50.1342 18.5053 49.6209 18.776C49.1075 19.0373 48.5102 19.168 47.8289 19.168ZM47.8289 12.742C47.5675 12.742 47.3249 12.7887 47.1009 12.882C46.8862 12.9753 46.6995 13.106 46.5409 13.274C46.3915 13.442 46.2749 13.6427 46.1909 13.876C46.1069 14.1093 46.0649 14.366 46.0649 14.646V14.744H49.4529V14.604C49.4529 14.044 49.3082 13.596 49.0189 13.26C48.7295 12.9147 48.3329 12.742 47.8289 12.742ZM52.7522 19V11.72H54.2782V12.924H54.3482C54.5068 12.532 54.7448 12.2053 55.0622 11.944C55.3888 11.6827 55.8322 11.552 56.3922 11.552C57.1388 11.552 57.7175 11.7993 58.1282 12.294C58.5482 12.7793 58.7582 13.4747 58.7582 14.38V19H57.2322V14.576C57.2322 13.4373 56.7748 12.868 55.8602 12.868C55.6642 12.868 55.4682 12.896 55.2722 12.952C55.0855 12.9987 54.9175 13.0733 54.7682 13.176C54.6188 13.2787 54.4975 13.4093 54.4042 13.568C54.3202 13.7267 54.2782 13.9133 54.2782 14.128V19H52.7522ZM61.6433 10.418C61.3259 10.418 61.0926 10.3433 60.9433 10.194C60.8033 10.0447 60.7333 9.85333 60.7333 9.62V9.382C60.7333 9.14867 60.8033 8.95733 60.9433 8.808C61.0926 8.65867 61.3259 8.584 61.6433 8.584C61.9606 8.584 62.1893 8.65867 62.3293 8.808C62.4693 8.95733 62.5393 9.14867 62.5393 9.382V9.62C62.5393 9.85333 62.4693 10.0447 62.3293 10.194C62.1893 10.3433 61.9606 10.418 61.6433 10.418ZM60.8733 11.72H62.3993V19H60.8733V11.72ZM67.4343 19.168C66.9303 19.168 66.4683 19.0793 66.0483 18.902C65.6377 18.7247 65.2877 18.4727 64.9983 18.146C64.709 17.81 64.485 17.4087 64.3263 16.942C64.1677 16.466 64.0883 15.9387 64.0883 15.36C64.0883 14.7813 64.1677 14.2587 64.3263 13.792C64.485 13.316 64.709 12.9147 64.9983 12.588C65.2877 12.252 65.6377 11.9953 66.0483 11.818C66.4683 11.6407 66.9303 11.552 67.4343 11.552C67.9383 11.552 68.3957 11.6407 68.8063 11.818C69.2263 11.9953 69.581 12.252 69.8703 12.588C70.1597 12.9147 70.3837 13.316 70.5423 13.792C70.701 14.2587 70.7803 14.7813 70.7803 15.36C70.7803 15.9387 70.701 16.466 70.5423 16.942C70.3837 17.4087 70.1597 17.81 69.8703 18.146C69.581 18.4727 69.2263 18.7247 68.8063 18.902C68.3957 19.0793 67.9383 19.168 67.4343 19.168ZM67.4343 17.908C67.957 17.908 68.377 17.7493 68.6943 17.432C69.0117 17.1053 69.1703 16.62 69.1703 15.976V14.744C69.1703 14.1 69.0117 13.6193 68.6943 13.302C68.377 12.9753 67.957 12.812 67.4343 12.812C66.9117 12.812 66.4917 12.9753 66.1743 13.302C65.857 13.6193 65.6983 14.1 65.6983 14.744V15.976C65.6983 16.62 65.857 17.1053 66.1743 17.432C66.4917 17.7493 66.9117 17.908 67.4343 17.908ZM77.8147 19C77.4133 19 77.1053 18.888 76.8907 18.664C76.676 18.4307 76.5453 18.1367 76.4987 17.782H76.4287C76.2887 18.2393 76.032 18.5847 75.6587 18.818C75.2853 19.0513 74.8327 19.168 74.3007 19.168C73.5447 19.168 72.9613 18.972 72.5507 18.58C72.1493 18.188 71.9487 17.6607 71.9487 16.998C71.9487 16.27 72.21 15.724 72.7327 15.36C73.2647 14.996 74.0393 14.814 75.0567 14.814H76.3727V14.198C76.3727 13.75 76.2513 13.4047 76.0087 13.162C75.766 12.9193 75.388 12.798 74.8747 12.798C74.4453 12.798 74.0953 12.8913 73.8247 13.078C73.554 13.2647 73.3253 13.5027 73.1387 13.792L72.2287 12.966C72.4713 12.5553 72.812 12.2193 73.2507 11.958C73.6893 11.6873 74.2633 11.552 74.9727 11.552C75.9153 11.552 76.6387 11.7713 77.1427 12.21C77.6467 12.6487 77.8987 13.2787 77.8987 14.1V17.754H78.6687V19H77.8147ZM74.7347 18.006C75.2107 18.006 75.6027 17.9033 75.9107 17.698C76.2187 17.4833 76.3727 17.1987 76.3727 16.844V15.794H75.0847C74.03 15.794 73.5027 16.1207 73.5027 16.774V17.026C73.5027 17.3527 73.61 17.6 73.8247 17.768C74.0487 17.9267 74.352 18.006 74.7347 18.006ZM82.4743 19.168C81.7836 19.168 81.2049 19.0467 80.7383 18.804C80.2716 18.5613 79.8656 18.2253 79.5203 17.796L80.5003 16.9C80.7709 17.2267 81.0696 17.4833 81.3963 17.67C81.7323 17.8473 82.1196 17.936 82.5583 17.936C83.0063 17.936 83.3376 17.852 83.5523 17.684C83.7763 17.5067 83.8883 17.264 83.8883 16.956C83.8883 16.7227 83.8089 16.5267 83.6503 16.368C83.5009 16.2 83.2349 16.0927 82.8523 16.046L82.1803 15.962C81.4336 15.8687 80.8456 15.654 80.4163 15.318C79.9963 14.9727 79.7863 14.464 79.7863 13.792C79.7863 13.4373 79.8516 13.1247 79.9823 12.854C80.1129 12.574 80.2949 12.3407 80.5283 12.154C80.7709 11.958 81.0556 11.8087 81.3823 11.706C81.7183 11.6033 82.0869 11.552 82.4883 11.552C83.1416 11.552 83.6736 11.6547 84.0843 11.86C84.5043 12.0653 84.8776 12.35 85.2043 12.714L84.2663 13.61C84.0796 13.386 83.8323 13.1947 83.5243 13.036C83.2256 12.868 82.8803 12.784 82.4883 12.784C82.0683 12.784 81.7556 12.868 81.5503 13.036C81.3543 13.204 81.2563 13.4233 81.2563 13.694C81.2563 13.974 81.3449 14.184 81.5223 14.324C81.6996 14.464 81.9843 14.5667 82.3763 14.632L83.0483 14.716C83.8509 14.8373 84.4343 15.0753 84.7983 15.43C85.1716 15.7753 85.3583 16.242 85.3583 16.83C85.3583 17.1847 85.2883 17.5067 85.1483 17.796C85.0176 18.076 84.8263 18.3187 84.5743 18.524C84.3223 18.7293 84.0189 18.888 83.6643 19C83.3096 19.112 82.9129 19.168 82.4743 19.168ZM91.4642 16.326H89.2522L88.7902 19H87.7122L88.1742 16.326H86.5502V15.304H88.3562L88.7622 12.924H87.1382V11.902H88.9442L89.4062 9.228H90.4702L90.0082 11.902H92.2202L92.6822 9.228H93.7602L93.2982 11.902H94.9222V12.924H93.1162L92.7102 15.304H94.3342V16.326H92.5282L92.0662 19H91.0022L91.4642 16.326ZM91.6322 15.304L92.0522 12.924H89.8402L89.4202 15.304H91.6322ZM96.7105 19V17.684H99.4545V10.376H99.3425L97.0745 12.798L96.1085 11.93L98.6005 9.228H101.009V17.684H103.389V19H96.7105ZM111.489 12.868C111.489 13.5773 111.382 14.2447 111.167 14.87C110.952 15.4953 110.677 16.0693 110.341 16.592C110.005 17.1147 109.627 17.5813 109.207 17.992C108.796 18.4027 108.39 18.7387 107.989 19H105.889C106.44 18.5987 106.934 18.2113 107.373 17.838C107.812 17.4647 108.194 17.082 108.521 16.69C108.848 16.298 109.118 15.8827 109.333 15.444C109.557 15.0053 109.73 14.5247 109.851 14.002L109.753 13.974C109.65 14.17 109.529 14.3567 109.389 14.534C109.258 14.702 109.1 14.8513 108.913 14.982C108.736 15.1127 108.53 15.2153 108.297 15.29C108.064 15.3647 107.793 15.402 107.485 15.402C107.074 15.402 106.692 15.332 106.337 15.192C105.992 15.052 105.688 14.8513 105.427 14.59C105.175 14.3193 104.974 14.002 104.825 13.638C104.685 13.2647 104.615 12.8447 104.615 12.378C104.615 11.8927 104.694 11.4447 104.853 11.034C105.021 10.6233 105.254 10.2733 105.553 9.984C105.852 9.69467 106.211 9.47067 106.631 9.312C107.051 9.144 107.522 9.06 108.045 9.06C108.586 9.06 109.067 9.14867 109.487 9.326C109.916 9.50333 110.276 9.76 110.565 10.096C110.864 10.4227 111.092 10.8193 111.251 11.286C111.41 11.7527 111.489 12.28 111.489 12.868ZM108.045 14.128C108.614 14.128 109.058 13.9787 109.375 13.68C109.692 13.372 109.851 12.924 109.851 12.336V12.14C109.851 11.552 109.692 11.1087 109.375 10.81C109.058 10.502 108.614 10.348 108.045 10.348C107.476 10.348 107.032 10.502 106.715 10.81C106.398 11.1087 106.239 11.552 106.239 12.14V12.336C106.239 12.924 106.398 13.372 106.715 13.68C107.032 13.9787 107.476 14.128 108.045 14.128ZM116.468 19.168C115.861 19.168 115.334 19.056 114.886 18.832C114.438 18.5987 114.069 18.2673 113.78 17.838C113.49 17.4087 113.276 16.8813 113.136 16.256C112.996 15.6307 112.926 14.9167 112.926 14.114C112.926 13.3207 112.996 12.6113 113.136 11.986C113.276 11.3513 113.49 10.8193 113.78 10.39C114.069 9.96067 114.438 9.634 114.886 9.41C115.334 9.17667 115.861 9.06 116.468 9.06C117.681 9.06 118.572 9.50333 119.142 10.39C119.72 11.2767 120.01 12.518 120.01 14.114C120.01 15.71 119.72 16.9513 119.142 17.838C118.572 18.7247 117.681 19.168 116.468 19.168ZM116.468 17.824C116.804 17.824 117.088 17.7587 117.322 17.628C117.564 17.488 117.76 17.292 117.91 17.04C118.059 16.788 118.166 16.4893 118.232 16.144C118.297 15.7893 118.33 15.3973 118.33 14.968V13.26C118.33 12.8307 118.297 12.4433 118.232 12.098C118.166 11.7433 118.059 11.44 117.91 11.188C117.76 10.936 117.564 10.7447 117.322 10.614C117.088 10.474 116.804 10.404 116.468 10.404C116.132 10.404 115.842 10.474 115.6 10.614C115.366 10.7447 115.175 10.936 115.026 11.188C114.876 11.44 114.769 11.7433 114.704 12.098C114.638 12.4433 114.606 12.8307 114.606 13.26V14.968C114.606 15.3973 114.638 15.7893 114.704 16.144C114.769 16.4893 114.876 16.788 115.026 17.04C115.175 17.292 115.366 17.488 115.6 17.628C115.842 17.7587 116.132 17.824 116.468 17.824ZM124.862 19.168C124.293 19.168 123.789 19.098 123.35 18.958C122.921 18.8087 122.557 18.608 122.258 18.356C121.969 18.104 121.745 17.8053 121.586 17.46C121.437 17.1147 121.362 16.7413 121.362 16.34C121.362 15.6867 121.539 15.164 121.894 14.772C122.258 14.3707 122.734 14.0907 123.322 13.932V13.82C122.818 13.6427 122.412 13.3627 122.104 12.98C121.805 12.5973 121.656 12.126 121.656 11.566C121.656 11.1927 121.726 10.852 121.866 10.544C122.015 10.236 122.225 9.97467 122.496 9.76C122.767 9.536 123.103 9.36333 123.504 9.242C123.905 9.12067 124.358 9.06 124.862 9.06C125.366 9.06 125.819 9.12067 126.22 9.242C126.621 9.36333 126.957 9.536 127.228 9.76C127.499 9.97467 127.704 10.236 127.844 10.544C127.993 10.852 128.068 11.1927 128.068 11.566C128.068 12.126 127.914 12.5973 127.606 12.98C127.307 13.3627 126.906 13.6427 126.402 13.82V13.932C126.99 14.0907 127.461 14.3707 127.816 14.772C128.18 15.164 128.362 15.6867 128.362 16.34C128.362 16.7413 128.283 17.1147 128.124 17.46C127.975 17.8053 127.751 18.104 127.452 18.356C127.163 18.608 126.799 18.8087 126.36 18.958C125.931 19.098 125.431 19.168 124.862 19.168ZM124.862 17.894C125.45 17.894 125.903 17.7587 126.22 17.488C126.547 17.2173 126.71 16.8393 126.71 16.354V16.074C126.71 15.5887 126.547 15.2107 126.22 14.94C125.903 14.6693 125.45 14.534 124.862 14.534C124.274 14.534 123.817 14.6693 123.49 14.94C123.173 15.2107 123.014 15.5887 123.014 16.074V16.354C123.014 16.8393 123.173 17.2173 123.49 17.488C123.817 17.7587 124.274 17.894 124.862 17.894ZM124.862 13.316C125.403 13.316 125.814 13.1993 126.094 12.966C126.383 12.7327 126.528 12.392 126.528 11.944V11.706C126.528 11.258 126.383 10.9173 126.094 10.684C125.814 10.4507 125.403 10.334 124.862 10.334C124.321 10.334 123.905 10.4507 123.616 10.684C123.336 10.9173 123.196 11.258 123.196 11.706V11.944C123.196 12.392 123.336 12.7327 123.616 12.966C123.905 13.1993 124.321 13.316 124.862 13.316Z" fill="#F5F5F5"/>
<defs>
<clipPath id="clip0_1141:576">
<rect width="16" height="16" fill="white" transform="translate(8 6)"/>
</clipPath>
</defs>
</svg>
