<svg width="122" height="28" viewBox="0 0 122 28" fill="none" xmlns="http://www.w3.org/2000/svg">
<rect width="122" height="28" rx="2" fill="#2D2D2D"/>
<g clip-path="url(#clip0_1148:640)">
<path d="M21.5447 8.91319C20.5074 8.43704 19.4126 8.09749 18.2879 7.90306C18.2777 7.90115 18.2672 7.90252 18.2578 7.90696C18.2484 7.9114 18.2406 7.91869 18.2356 7.92779C18.0949 8.17799 17.9391 8.50433 17.8301 8.76079C16.6003 8.57666 15.3767 8.57666 14.1722 8.76079C14.0631 8.49859 13.9017 8.17799 13.7604 7.92779C13.7552 7.9189 13.7474 7.91178 13.738 7.90738C13.7287 7.90298 13.7183 7.9015 13.7081 7.90313C12.5833 8.0971 11.4885 8.43662 10.4513 8.91313C10.4424 8.91692 10.4349 8.92337 10.4299 8.93159C8.3556 12.0305 7.78734 15.0533 8.06614 18.0385C8.06692 18.0458 8.06917 18.0529 8.07274 18.0593C8.07632 18.0658 8.08114 18.0714 8.08694 18.0759C9.45547 19.081 10.7811 19.6911 12.0822 20.0955C12.0923 20.0985 12.1031 20.0984 12.1131 20.0951C12.1232 20.0918 12.132 20.0855 12.1383 20.0771C12.4461 19.6569 12.7204 19.2137 12.9557 18.7477C12.9589 18.7413 12.9607 18.7343 12.9611 18.7271C12.9614 18.72 12.9602 18.7129 12.9576 18.7062C12.955 18.6995 12.951 18.6935 12.9459 18.6885C12.9408 18.6835 12.9347 18.6797 12.9279 18.6772C12.4927 18.5121 12.0784 18.3109 11.6798 18.0823C11.6725 18.0781 11.6664 18.0721 11.662 18.0649C11.6576 18.0577 11.6551 18.0495 11.6546 18.0411C11.6541 18.0327 11.6556 18.0243 11.6592 18.0166C11.6627 18.009 11.668 18.0023 11.6747 17.9972C11.7586 17.9343 11.8425 17.869 11.9226 17.8029C11.9297 17.7971 11.9383 17.7933 11.9475 17.7921C11.9566 17.7908 11.9659 17.7922 11.9743 17.7959C14.5929 18.9915 17.4277 18.9915 20.0153 17.7959C20.0237 17.7919 20.0331 17.7904 20.0424 17.7915C20.0516 17.7926 20.0604 17.7964 20.0676 17.8023C20.1477 17.8683 20.2316 17.9343 20.3161 17.9972C20.3229 18.0022 20.3282 18.0089 20.3318 18.0165C20.3354 18.0241 20.337 18.0325 20.3366 18.0409C20.3361 18.0493 20.3337 18.0575 20.3293 18.0647C20.325 18.0719 20.319 18.0779 20.3117 18.0823C19.913 18.3152 19.4953 18.514 19.0631 18.6765C19.0564 18.6791 19.0503 18.683 19.0452 18.6881C19.0401 18.6932 19.0362 18.6993 19.0336 18.706C19.031 18.7127 19.0299 18.7199 19.0303 18.7271C19.0307 18.7343 19.0326 18.7413 19.0359 18.7477C19.2762 19.213 19.5505 19.6562 19.8526 20.0765C19.8588 20.0851 19.8675 20.0916 19.8776 20.0951C19.8877 20.0985 19.8986 20.0986 19.9087 20.0955C21.2161 19.6911 22.5417 19.0809 23.9103 18.0759C23.9162 18.0716 23.9211 18.0661 23.9247 18.0598C23.9283 18.0534 23.9305 18.0464 23.9311 18.0391C24.2647 14.5878 23.3723 11.5899 21.5655 8.93219C21.561 8.92356 21.5537 8.9168 21.5447 8.91313V8.91319ZM13.3467 16.2208C12.5583 16.2208 11.9087 15.497 11.9087 14.6081C11.9087 13.7193 12.5457 12.9955 13.3467 12.9955C14.1539 12.9955 14.7972 13.7257 14.7846 14.6082C14.7846 15.497 14.1476 16.2208 13.3467 16.2208V16.2208ZM18.6632 16.2208C17.8749 16.2208 17.2253 15.497 17.2253 14.6081C17.2253 13.7193 17.8622 12.9955 18.6632 12.9955C19.4704 12.9955 20.1137 13.7257 20.1011 14.6082C20.1011 15.497 19.4704 16.2208 18.6632 16.2208V16.2208Z" fill="#61DAFB"/>
</g>
<path d="M32.916 19.144C32.324 19.144 31.828 19.04 31.428 18.832C31.028 18.624 30.68 18.336 30.384 17.968L31.224 17.2C31.456 17.48 31.712 17.7 31.992 17.86C32.28 18.012 32.612 18.088 32.988 18.088C33.372 18.088 33.656 18.016 33.84 17.872C34.032 17.72 34.128 17.512 34.128 17.248C34.128 17.048 34.06 16.88 33.924 16.744C33.796 16.6 33.568 16.508 33.24 16.468L32.664 16.396C32.024 16.316 31.52 16.132 31.152 15.844C30.792 15.548 30.612 15.112 30.612 14.536C30.612 14.232 30.668 13.964 30.78 13.732C30.892 13.492 31.048 13.292 31.248 13.132C31.456 12.964 31.7 12.836 31.98 12.748C32.268 12.66 32.584 12.616 32.928 12.616C33.488 12.616 33.944 12.704 34.296 12.88C34.656 13.056 34.976 13.3 35.256 13.612L34.452 14.38C34.292 14.188 34.08 14.024 33.816 13.888C33.56 13.744 33.264 13.672 32.928 13.672C32.568 13.672 32.3 13.744 32.124 13.888C31.956 14.032 31.872 14.22 31.872 14.452C31.872 14.692 31.948 14.872 32.1 14.992C32.252 15.112 32.496 15.2 32.832 15.256L33.408 15.328C34.096 15.432 34.596 15.636 34.908 15.94C35.228 16.236 35.388 16.636 35.388 17.14C35.388 17.444 35.328 17.72 35.208 17.968C35.096 18.208 34.932 18.416 34.716 18.592C34.5 18.768 34.24 18.904 33.936 19C33.632 19.096 33.292 19.144 32.916 19.144ZM38.5117 19C38.0557 19 37.7117 18.884 37.4797 18.652C37.2477 18.412 37.1317 18.076 37.1317 17.644V13.828H36.1597V12.76H36.6877C36.9037 12.76 37.0517 12.712 37.1317 12.616C37.2197 12.52 37.2637 12.364 37.2637 12.148V11.056H38.4397V12.76H39.7477V13.828H38.4397V17.932H39.6517V19H38.5117ZM43.5676 19.144C43.1196 19.144 42.7196 19.068 42.3676 18.916C42.0156 18.764 41.7156 18.548 41.4676 18.268C41.2196 17.98 41.0276 17.636 40.8916 17.236C40.7636 16.828 40.6996 16.376 40.6996 15.88C40.6996 15.384 40.7636 14.936 40.8916 14.536C41.0276 14.128 41.2196 13.784 41.4676 13.504C41.7156 13.216 42.0156 12.996 42.3676 12.844C42.7196 12.692 43.1196 12.616 43.5676 12.616C44.0236 12.616 44.4236 12.696 44.7676 12.856C45.1196 13.016 45.4116 13.24 45.6436 13.528C45.8756 13.808 46.0476 14.136 46.1596 14.512C46.2796 14.888 46.3396 15.292 46.3396 15.724V16.216H42.0556V16.42C42.0556 16.9 42.1956 17.296 42.4756 17.608C42.7636 17.912 43.1716 18.064 43.6996 18.064C44.0836 18.064 44.4076 17.98 44.6716 17.812C44.9356 17.644 45.1596 17.416 45.3436 17.128L46.1116 17.884C45.8796 18.268 45.5436 18.576 45.1036 18.808C44.6636 19.032 44.1516 19.144 43.5676 19.144ZM43.5676 13.636C43.3436 13.636 43.1356 13.676 42.9436 13.756C42.7596 13.836 42.5996 13.948 42.4636 14.092C42.3356 14.236 42.2356 14.408 42.1636 14.608C42.0916 14.808 42.0556 15.028 42.0556 15.268V15.352H44.9596V15.232C44.9596 14.752 44.8356 14.368 44.5876 14.08C44.3396 13.784 43.9996 13.636 43.5676 13.636ZM47.7876 19V12.76H49.0956V13.792H49.1556C49.2916 13.456 49.4956 13.176 49.7676 12.952C50.0476 12.728 50.4276 12.616 50.9076 12.616C51.5476 12.616 52.0436 12.828 52.3956 13.252C52.7556 13.668 52.9356 14.264 52.9356 15.04V19H51.6276V15.208C51.6276 14.232 51.2356 13.744 50.4516 13.744C50.2836 13.744 50.1156 13.768 49.9476 13.816C49.7876 13.856 49.6436 13.92 49.5156 14.008C49.3876 14.096 49.2836 14.208 49.2036 14.344C49.1316 14.48 49.0956 14.64 49.0956 14.824V19H47.7876ZM55.4085 11.644C55.1365 11.644 54.9365 11.58 54.8085 11.452C54.6885 11.324 54.6285 11.16 54.6285 10.96V10.756C54.6285 10.556 54.6885 10.392 54.8085 10.264C54.9365 10.136 55.1365 10.072 55.4085 10.072C55.6805 10.072 55.8765 10.136 55.9965 10.264C56.1165 10.392 56.1765 10.556 56.1765 10.756V10.96C56.1765 11.16 56.1165 11.324 55.9965 11.452C55.8765 11.58 55.6805 11.644 55.4085 11.644ZM54.7485 12.76H56.0565V19H54.7485V12.76ZM60.3723 19.144C59.9403 19.144 59.5443 19.068 59.1843 18.916C58.8323 18.764 58.5323 18.548 58.2843 18.268C58.0363 17.98 57.8443 17.636 57.7083 17.236C57.5723 16.828 57.5043 16.376 57.5043 15.88C57.5043 15.384 57.5723 14.936 57.7083 14.536C57.8443 14.128 58.0363 13.784 58.2843 13.504C58.5323 13.216 58.8323 12.996 59.1843 12.844C59.5443 12.692 59.9403 12.616 60.3723 12.616C60.8043 12.616 61.1963 12.692 61.5483 12.844C61.9083 12.996 62.2123 13.216 62.4603 13.504C62.7083 13.784 62.9003 14.128 63.0363 14.536C63.1723 14.936 63.2403 15.384 63.2403 15.88C63.2403 16.376 63.1723 16.828 63.0363 17.236C62.9003 17.636 62.7083 17.98 62.4603 18.268C62.2123 18.548 61.9083 18.764 61.5483 18.916C61.1963 19.068 60.8043 19.144 60.3723 19.144ZM60.3723 18.064C60.8203 18.064 61.1803 17.928 61.4523 17.656C61.7243 17.376 61.8603 16.96 61.8603 16.408V15.352C61.8603 14.8 61.7243 14.388 61.4523 14.116C61.1803 13.836 60.8203 13.696 60.3723 13.696C59.9243 13.696 59.5643 13.836 59.2923 14.116C59.0203 14.388 58.8843 14.8 58.8843 15.352V16.408C58.8843 16.96 59.0203 17.376 59.2923 17.656C59.5643 17.928 59.9243 18.064 60.3723 18.064ZM69.2697 19C68.9257 19 68.6617 18.904 68.4777 18.712C68.2937 18.512 68.1817 18.26 68.1417 17.956H68.0817C67.9617 18.348 67.7417 18.644 67.4217 18.844C67.1017 19.044 66.7137 19.144 66.2577 19.144C65.6097 19.144 65.1097 18.976 64.7577 18.64C64.4137 18.304 64.2417 17.852 64.2417 17.284C64.2417 16.66 64.4657 16.192 64.9137 15.88C65.3697 15.568 66.0337 15.412 66.9057 15.412H68.0337V14.884C68.0337 14.5 67.9297 14.204 67.7217 13.996C67.5137 13.788 67.1897 13.684 66.7497 13.684C66.3817 13.684 66.0817 13.764 65.8497 13.924C65.6177 14.084 65.4217 14.288 65.2617 14.536L64.4817 13.828C64.6897 13.476 64.9817 13.188 65.3577 12.964C65.7337 12.732 66.2257 12.616 66.8337 12.616C67.6417 12.616 68.2617 12.804 68.6937 13.18C69.1257 13.556 69.3417 14.096 69.3417 14.8V17.932H70.0017V19H69.2697ZM66.6297 18.148C67.0377 18.148 67.3737 18.06 67.6377 17.884C67.9017 17.7 68.0337 17.456 68.0337 17.152V16.252H66.9297C66.0257 16.252 65.5737 16.532 65.5737 17.092V17.308C65.5737 17.588 65.6657 17.8 65.8497 17.944C66.0417 18.08 66.3017 18.148 66.6297 18.148ZM73.2637 19.144C72.6717 19.144 72.1757 19.04 71.7757 18.832C71.3757 18.624 71.0277 18.336 70.7317 17.968L71.5717 17.2C71.8037 17.48 72.0597 17.7 72.3397 17.86C72.6277 18.012 72.9597 18.088 73.3357 18.088C73.7197 18.088 74.0037 18.016 74.1877 17.872C74.3797 17.72 74.4757 17.512 74.4757 17.248C74.4757 17.048 74.4077 16.88 74.2717 16.744C74.1437 16.6 73.9157 16.508 73.5877 16.468L73.0117 16.396C72.3717 16.316 71.8677 16.132 71.4997 15.844C71.1397 15.548 70.9597 15.112 70.9597 14.536C70.9597 14.232 71.0157 13.964 71.1277 13.732C71.2397 13.492 71.3957 13.292 71.5957 13.132C71.8037 12.964 72.0477 12.836 72.3277 12.748C72.6157 12.66 72.9317 12.616 73.2757 12.616C73.8357 12.616 74.2917 12.704 74.6437 12.88C75.0037 13.056 75.3237 13.3 75.6037 13.612L74.7997 14.38C74.6397 14.188 74.4277 14.024 74.1637 13.888C73.9077 13.744 73.6117 13.672 73.2757 13.672C72.9157 13.672 72.6477 13.744 72.4717 13.888C72.3037 14.032 72.2197 14.22 72.2197 14.452C72.2197 14.692 72.2957 14.872 72.4477 14.992C72.5997 15.112 72.8437 15.2 73.1797 15.256L73.7557 15.328C74.4437 15.432 74.9437 15.636 75.2557 15.94C75.5757 16.236 75.7357 16.636 75.7357 17.14C75.7357 17.444 75.6757 17.72 75.5557 17.968C75.4437 18.208 75.2797 18.416 75.0637 18.592C74.8477 18.768 74.5877 18.904 74.2837 19C73.9797 19.096 73.6397 19.144 73.2637 19.144ZM80.9693 16.708H79.0733L78.6773 19H77.7533L78.1493 16.708H76.7573V15.832H78.3053L78.6533 13.792H77.2613V12.916H78.8093L79.2053 10.624H80.1173L79.7213 12.916H81.6173L82.0133 10.624H82.9373L82.5413 12.916H83.9333V13.792H82.3853L82.0373 15.832H83.4293V16.708H81.8813L81.4853 19H80.5733L80.9693 16.708ZM81.1133 15.832L81.4733 13.792H79.5773L79.2173 15.832H81.1133ZM85.4662 19V17.872H87.8182V11.608H87.7222L85.7782 13.684L84.9502 12.94L87.0862 10.624H89.1502V17.872H91.1902V19H85.4662ZM98.1335 13.744C98.1335 14.352 98.0415 14.924 97.8575 15.46C97.6735 15.996 97.4375 16.488 97.1495 16.936C96.8615 17.384 96.5375 17.784 96.1775 18.136C95.8255 18.488 95.4775 18.776 95.1335 19H93.3335C93.8055 18.656 94.2295 18.324 94.6055 18.004C94.9815 17.684 95.3095 17.356 95.5895 17.02C95.8695 16.684 96.1015 16.328 96.2855 15.952C96.4775 15.576 96.6255 15.164 96.7295 14.716L96.6455 14.692C96.5575 14.86 96.4535 15.02 96.3335 15.172C96.2215 15.316 96.0855 15.444 95.9255 15.556C95.7735 15.668 95.5975 15.756 95.3975 15.82C95.1975 15.884 94.9655 15.916 94.7015 15.916C94.3495 15.916 94.0215 15.856 93.7175 15.736C93.4215 15.616 93.1615 15.444 92.9375 15.22C92.7215 14.988 92.5495 14.716 92.4215 14.404C92.3015 14.084 92.2415 13.724 92.2415 13.324C92.2415 12.908 92.3095 12.524 92.4455 12.172C92.5895 11.82 92.7895 11.52 93.0455 11.272C93.3015 11.024 93.6095 10.832 93.9695 10.696C94.3295 10.552 94.7335 10.48 95.1815 10.48C95.6455 10.48 96.0575 10.556 96.4175 10.708C96.7855 10.86 97.0935 11.08 97.3415 11.368C97.5975 11.648 97.7935 11.988 97.9295 12.388C98.0655 12.788 98.1335 13.24 98.1335 13.744ZM95.1815 14.824C95.6695 14.824 96.0495 14.696 96.3215 14.44C96.5935 14.176 96.7295 13.792 96.7295 13.288V13.12C96.7295 12.616 96.5935 12.236 96.3215 11.98C96.0495 11.716 95.6695 11.584 95.1815 11.584C94.6935 11.584 94.3135 11.716 94.0415 11.98C93.7695 12.236 93.6335 12.616 93.6335 13.12V13.288C93.6335 13.792 93.7695 14.176 94.0415 14.44C94.3135 14.696 94.6935 14.824 95.1815 14.824ZM102.401 19.144C101.881 19.144 101.429 19.048 101.045 18.856C100.661 18.656 100.345 18.372 100.097 18.004C99.8488 17.636 99.6648 17.184 99.5448 16.648C99.4248 16.112 99.3648 15.5 99.3648 14.812C99.3648 14.132 99.4248 13.524 99.5448 12.988C99.6648 12.444 99.8488 11.988 100.097 11.62C100.345 11.252 100.661 10.972 101.045 10.78C101.429 10.58 101.881 10.48 102.401 10.48C103.441 10.48 104.205 10.86 104.693 11.62C105.189 12.38 105.437 13.444 105.437 14.812C105.437 16.18 105.189 17.244 104.693 18.004C104.205 18.764 103.441 19.144 102.401 19.144ZM102.401 17.992C102.689 17.992 102.933 17.936 103.133 17.824C103.341 17.704 103.509 17.536 103.637 17.32C103.765 17.104 103.857 16.848 103.913 16.552C103.969 16.248 103.997 15.912 103.997 15.544V14.08C103.997 13.712 103.969 13.38 103.913 13.084C103.857 12.78 103.765 12.52 103.637 12.304C103.509 12.088 103.341 11.924 103.133 11.812C102.933 11.692 102.689 11.632 102.401 11.632C102.113 11.632 101.865 11.692 101.657 11.812C101.457 11.924 101.293 12.088 101.165 12.304C101.037 12.52 100.945 12.78 100.889 13.084C100.833 13.38 100.805 13.712 100.805 14.08V15.544C100.805 15.912 100.833 16.248 100.889 16.552C100.945 16.848 101.037 17.104 101.165 17.32C101.293 17.536 101.457 17.704 101.657 17.824C101.865 17.936 102.113 17.992 102.401 17.992ZM109.596 19.144C109.108 19.144 108.676 19.084 108.3 18.964C107.932 18.836 107.62 18.664 107.364 18.448C107.116 18.232 106.924 17.976 106.788 17.68C106.66 17.384 106.596 17.064 106.596 16.72C106.596 16.16 106.748 15.712 107.052 15.376C107.364 15.032 107.772 14.792 108.276 14.656V14.56C107.844 14.408 107.496 14.168 107.232 13.84C106.976 13.512 106.848 13.108 106.848 12.628C106.848 12.308 106.908 12.016 107.028 11.752C107.156 11.488 107.336 11.264 107.568 11.08C107.8 10.888 108.088 10.74 108.432 10.636C108.776 10.532 109.164 10.48 109.596 10.48C110.028 10.48 110.416 10.532 110.76 10.636C111.104 10.74 111.392 10.888 111.624 11.08C111.856 11.264 112.032 11.488 112.152 11.752C112.28 12.016 112.344 12.308 112.344 12.628C112.344 13.108 112.212 13.512 111.948 13.84C111.692 14.168 111.348 14.408 110.916 14.56V14.656C111.42 14.792 111.824 15.032 112.128 15.376C112.44 15.712 112.596 16.16 112.596 16.72C112.596 17.064 112.528 17.384 112.392 17.68C112.264 17.976 112.072 18.232 111.816 18.448C111.568 18.664 111.256 18.836 110.88 18.964C110.512 19.084 110.084 19.144 109.596 19.144ZM109.596 18.052C110.1 18.052 110.488 17.936 110.76 17.704C111.04 17.472 111.18 17.148 111.18 16.732V16.492C111.18 16.076 111.04 15.752 110.76 15.52C110.488 15.288 110.1 15.172 109.596 15.172C109.092 15.172 108.7 15.288 108.42 15.52C108.148 15.752 108.012 16.076 108.012 16.492V16.732C108.012 17.148 108.148 17.472 108.42 17.704C108.7 17.936 109.092 18.052 109.596 18.052ZM109.596 14.128C110.06 14.128 110.412 14.028 110.652 13.828C110.9 13.628 111.024 13.336 111.024 12.952V12.748C111.024 12.364 110.9 12.072 110.652 11.872C110.412 11.672 110.06 11.572 109.596 11.572C109.132 11.572 108.776 11.672 108.528 11.872C108.288 12.072 108.168 12.364 108.168 12.748V12.952C108.168 13.336 108.288 13.628 108.528 13.828C108.776 14.028 109.132 14.128 109.596 14.128Z" fill="#F5F5F5"/>
<defs>
<clipPath id="clip0_1148:640">
<rect width="16" height="16" fill="white" transform="translate(8 6)"/>
</clipPath>
</defs>
</svg>
