<svg width="24" height="24" viewBox="0 0 24 24" fill="none" xmlns="http://www.w3.org/2000/svg">
<rect width="24" height="24" rx="2" fill="#2D2D2D"/>
<g clip-path="url(#clip0_1150:690)">
<path d="M13.322 11.3853H14.7347C14.7674 11.3853 14.7989 11.3723 14.8221 11.3492C14.8454 11.3261 14.8585 11.2947 14.8587 11.2619V10.0039C14.8587 9.97106 14.8456 9.93952 14.8224 9.91626C14.7991 9.89301 14.7676 9.87994 14.7347 9.87994H13.322C13.2893 9.87994 13.2579 9.89294 13.2348 9.91607C13.2117 9.9392 13.1987 9.97057 13.1987 10.0033V11.2619C13.1987 11.3299 13.254 11.3853 13.322 11.3853V11.3853ZM11.3527 7.76528H12.7647C12.7976 7.76528 12.8291 7.75221 12.8524 7.72896C12.8756 7.7057 12.8887 7.67416 12.8887 7.64128V6.38261C12.8885 6.34984 12.8754 6.31847 12.8521 6.29536C12.8289 6.27225 12.7975 6.25928 12.7647 6.25928H11.3527C11.32 6.25928 11.2886 6.27227 11.2655 6.2954C11.2423 6.31853 11.2293 6.3499 11.2293 6.38261V7.64128C11.2293 7.70928 11.284 7.76461 11.3527 7.76461V7.76528ZM11.3527 9.57528H12.7647C12.7975 9.5751 12.8289 9.56198 12.8522 9.53877C12.8754 9.51555 12.8885 9.48411 12.8887 9.45128V8.19328C12.8885 8.16051 12.8754 8.12914 12.8521 8.10603C12.8289 8.08292 12.7975 8.06994 12.7647 8.06994H11.3527C11.32 8.06994 11.2886 8.08294 11.2655 8.10607C11.2423 8.1292 11.2293 8.16057 11.2293 8.19328V9.45128C11.2293 9.51928 11.284 9.57461 11.3527 9.57528ZM9.39934 9.57528H10.8127C10.8453 9.57493 10.8765 9.56171 10.8995 9.53849C10.9225 9.51527 10.9353 9.48393 10.9353 9.45128V8.19328C10.9353 8.16057 10.9224 8.1292 10.8992 8.10607C10.8761 8.08294 10.8447 8.06994 10.812 8.06994H9.40001C9.3673 8.06994 9.33593 8.08294 9.3128 8.10607C9.28967 8.1292 9.27668 8.16057 9.27668 8.19328V9.45128C9.27668 9.51928 9.33201 9.57461 9.40001 9.57528H9.39934ZM7.42401 9.57528H8.83668C8.86945 9.5751 8.90082 9.56196 8.92393 9.53872C8.94704 9.51549 8.96001 9.48405 8.96001 9.45128V8.19328C8.96001 8.16057 8.94702 8.1292 8.92389 8.10607C8.90076 8.08294 8.86939 8.06994 8.83668 8.06994H7.42401C7.39124 8.06994 7.3598 8.08292 7.33657 8.10603C7.31333 8.12914 7.30019 8.16051 7.30001 8.19328V9.45128C7.30001 9.51928 7.35601 9.57461 7.42401 9.57528V9.57528ZM11.3527 11.3853H12.7647C12.7975 11.3853 12.8289 11.3723 12.8521 11.3492C12.8754 11.3261 12.8885 11.2947 12.8887 11.2619V10.0039C12.8887 9.97106 12.8756 9.93952 12.8524 9.91626C12.8291 9.89301 12.7976 9.87994 12.7647 9.87994H11.3527C11.32 9.87994 11.2886 9.89294 11.2655 9.91607C11.2423 9.9392 11.2293 9.97057 11.2293 10.0033V11.2619C11.2293 11.3299 11.284 11.3853 11.3527 11.3853V11.3853ZM9.39934 11.3853H10.8127C10.8453 11.3851 10.8765 11.372 10.8995 11.3489C10.9224 11.3258 10.9353 11.2945 10.9353 11.2619V10.0039C10.9354 9.98775 10.9323 9.97169 10.9262 9.9567C10.9201 9.9417 10.9111 9.92805 10.8997 9.91654C10.8883 9.90502 10.8748 9.89587 10.8598 9.88959C10.8449 9.88331 10.8289 9.88003 10.8127 9.87994H9.39934C9.36675 9.88012 9.33555 9.89319 9.31257 9.9163C9.28958 9.93941 9.27668 9.97068 9.27668 10.0033V11.2619C9.27668 11.3299 9.33201 11.3853 9.40001 11.3853H9.39934ZM7.42401 11.3853H8.83668C8.86939 11.3853 8.90076 11.3723 8.92389 11.3492C8.94702 11.326 8.96001 11.2947 8.96001 11.2619V10.0039C8.9601 9.98775 8.957 9.97169 8.95088 9.9567C8.94476 9.9417 8.93575 9.92805 8.92436 9.91654C8.91297 9.90502 8.89942 9.89587 8.88449 9.88959C8.86956 9.88331 8.85354 9.88003 8.83734 9.87994H7.42401C7.39112 9.87994 7.35958 9.89301 7.33633 9.91626C7.31308 9.93952 7.30001 9.97106 7.30001 10.0039V11.2619C7.30001 11.3299 7.35601 11.3853 7.42401 11.3853V11.3853ZM5.47734 11.3853H6.89068C6.92327 11.3851 6.95447 11.372 6.97746 11.3489C7.00044 11.3258 7.01335 11.2945 7.01334 11.2619V10.0039C7.01343 9.98775 7.01033 9.97169 7.00421 9.9567C6.9981 9.9417 6.98908 9.92805 6.97769 9.91654C6.9663 9.90502 6.95276 9.89587 6.93783 9.88959C6.9229 9.88331 6.90687 9.88003 6.89068 9.87994H5.47734C5.44475 9.88012 5.41355 9.89319 5.39057 9.9163C5.36758 9.93941 5.35468 9.97068 5.35468 10.0033V11.2619C5.35468 11.3299 5.40934 11.3853 5.47801 11.3853H5.47734ZM19.842 10.5933C19.7987 10.5593 19.394 10.2533 18.5393 10.2533C18.314 10.2539 18.0887 10.2733 17.866 10.3113C17.7007 9.17794 16.764 8.62461 16.722 8.60061L16.4927 8.46794L16.342 8.68594C16.1527 8.97794 16.0153 9.30061 15.934 9.63928C15.7807 10.2859 15.874 10.8939 16.2027 11.4133C15.806 11.6346 15.1693 11.6886 15.04 11.6933H4.50068C4.36835 11.6935 4.24148 11.746 4.14779 11.8394C4.0541 11.9329 4.00121 12.0596 4.00068 12.1919C3.98833 13.1152 4.14467 14.0329 4.46201 14.8999C4.82534 15.8519 5.36534 16.5533 6.06868 16.9826C6.85534 17.4646 8.13535 17.7406 9.58535 17.7406C10.2407 17.7426 10.894 17.6833 11.5387 17.5633C12.4339 17.3988 13.2953 17.0858 14.0873 16.6373C14.7407 16.2593 15.3273 15.7786 15.8273 15.2133C16.662 14.2679 17.1593 13.2153 17.5293 12.2799H17.6767C18.5913 12.2799 19.1533 11.9139 19.4633 11.6073C19.6693 11.4119 19.83 11.1739 19.9347 10.9099L20 10.7179L19.842 10.5933Z" fill="#2496ED"/>
</g>
<defs>
<clipPath id="clip0_1150:690">
<rect width="16" height="16" fill="white" transform="translate(4 4)"/>
</clipPath>
</defs>
</svg>
