<svg width="32" height="32" viewBox="0 0 32 32" fill="none" xmlns="http://www.w3.org/2000/svg">
<rect width="32" height="32" rx="2" fill="#0D1117"/>
<g clip-path="url(#clip0_1150:690)">
<path d="M17.6525 15.2316H19.4183C19.4593 15.2316 19.4986 15.2154 19.5277 15.1865C19.5567 15.1576 19.5731 15.1184 19.5733 15.0774V13.5049C19.5733 13.4638 19.557 13.4244 19.528 13.3953C19.4989 13.3663 19.4595 13.3499 19.4183 13.3499H17.6525C17.6116 13.3499 17.5724 13.3662 17.5435 13.3951C17.5146 13.424 17.4983 13.4632 17.4983 13.5041V15.0774C17.4983 15.1624 17.5675 15.2316 17.6525 15.2316V15.2316ZM15.1908 10.7066H16.9558C16.997 10.7066 17.0364 10.6903 17.0654 10.6612C17.0945 10.6321 17.1108 10.5927 17.1108 10.5516V8.97826C17.1106 8.9373 17.0942 8.89809 17.0652 8.8692C17.0361 8.84031 16.9968 8.8241 16.9558 8.8241H15.1908C15.15 8.8241 15.1107 8.84034 15.0818 8.86925C15.0529 8.89816 15.0367 8.93738 15.0367 8.97826V10.5516C15.0367 10.6366 15.105 10.7058 15.1908 10.7058V10.7066ZM15.1908 12.9691H16.9558C16.9969 12.9689 17.0362 12.9525 17.0652 12.9235C17.0942 12.8944 17.1106 12.8551 17.1108 12.8141V11.2416C17.1106 11.2006 17.0942 11.1614 17.0652 11.1325C17.0361 11.1036 16.9968 11.0874 16.9558 11.0874H15.1908C15.15 11.0874 15.1107 11.1037 15.0818 11.1326C15.0529 11.1615 15.0367 11.2007 15.0367 11.2416V12.8141C15.0367 12.8991 15.105 12.9683 15.1908 12.9691ZM12.7492 12.9691H14.5158C14.5567 12.9687 14.5957 12.9521 14.6244 12.9231C14.6531 12.8941 14.6692 12.8549 14.6692 12.8141V11.2416C14.6692 11.2007 14.6529 11.1615 14.624 11.1326C14.5951 11.1037 14.5559 11.0874 14.515 11.0874H12.75C12.7091 11.0874 12.6699 11.1037 12.641 11.1326C12.6121 11.1615 12.5958 11.2007 12.5958 11.2416V12.8141C12.5958 12.8991 12.665 12.9683 12.75 12.9691H12.7492ZM10.28 12.9691H12.0458C12.0868 12.9689 12.126 12.9524 12.1549 12.9234C12.1838 12.8944 12.2 12.8551 12.2 12.8141V11.2416C12.2 11.2007 12.1838 11.1615 12.1549 11.1326C12.1259 11.1037 12.0867 11.0874 12.0458 11.0874H10.28C10.2391 11.0874 10.1998 11.1036 10.1707 11.1325C10.1417 11.1614 10.1252 11.2006 10.125 11.2416V12.8141C10.125 12.8991 10.195 12.9683 10.28 12.9691V12.9691ZM15.1908 15.2316H16.9558C16.9968 15.2316 17.0361 15.2154 17.0652 15.1865C17.0942 15.1576 17.1106 15.1184 17.1108 15.0774V13.5049C17.1108 13.4638 17.0945 13.4244 17.0654 13.3953C17.0364 13.3663 16.997 13.3499 16.9558 13.3499H15.1908C15.15 13.3499 15.1107 13.3662 15.0818 13.3951C15.0529 13.424 15.0367 13.4632 15.0367 13.5041V15.0774C15.0367 15.1624 15.105 15.2316 15.1908 15.2316V15.2316ZM12.7492 15.2316H14.5158C14.5566 15.2314 14.5956 15.215 14.6243 15.1861C14.6531 15.1573 14.6692 15.1182 14.6692 15.0774V13.5049C14.6693 13.4847 14.6654 13.4646 14.6578 13.4459C14.6501 13.4271 14.6389 13.4101 14.6246 13.3957C14.6104 13.3813 14.5934 13.3698 14.5748 13.362C14.5561 13.3541 14.5361 13.35 14.5158 13.3499H12.7492C12.7084 13.3502 12.6694 13.3665 12.6407 13.3954C12.612 13.4243 12.5958 13.4634 12.5958 13.5041V15.0774C12.5958 15.1624 12.665 15.2316 12.75 15.2316H12.7492ZM10.28 15.2316H12.0458C12.0867 15.2316 12.1259 15.2154 12.1549 15.1864C12.1838 15.1575 12.2 15.1183 12.2 15.0774V13.5049C12.2001 13.4847 12.1962 13.4646 12.1886 13.4459C12.181 13.4271 12.1697 13.4101 12.1555 13.3957C12.1412 13.3813 12.1243 13.3698 12.1056 13.362C12.087 13.3541 12.0669 13.35 12.0467 13.3499H10.28C10.2389 13.3499 10.1995 13.3663 10.1704 13.3953C10.1413 13.4244 10.125 13.4638 10.125 13.5049V15.0774C10.125 15.1624 10.195 15.2316 10.28 15.2316V15.2316ZM7.84668 15.2316H9.61335C9.65409 15.2314 9.69309 15.215 9.72182 15.1861C9.75055 15.1573 9.76668 15.1182 9.76668 15.0774V13.5049C9.76679 13.4847 9.76291 13.4646 9.75527 13.4459C9.74762 13.4271 9.73636 13.4101 9.72212 13.3957C9.70788 13.3813 9.69094 13.3698 9.67228 13.362C9.65362 13.3541 9.63359 13.35 9.61335 13.3499H7.84668C7.80594 13.3502 7.76694 13.3665 7.73821 13.3954C7.70947 13.4243 7.69335 13.4634 7.69335 13.5041V15.0774C7.69335 15.1624 7.76168 15.2316 7.84751 15.2316H7.84668ZM25.8025 14.2416C25.7483 14.1991 25.2425 13.8166 24.1742 13.8166C23.8925 13.8174 23.6108 13.8416 23.3325 13.8891C23.1258 12.4724 21.955 11.7808 21.9025 11.7508L21.6158 11.5849L21.4275 11.8574C21.1908 12.2224 21.0192 12.6258 20.9175 13.0491C20.7258 13.8574 20.8425 14.6174 21.2533 15.2666C20.7575 15.5433 19.9617 15.6108 19.8 15.6166H6.62585C6.46044 15.6168 6.30185 15.6825 6.18474 15.7993C6.06762 15.9161 6.00151 16.0745 6.00085 16.2399C5.98542 17.394 6.18084 18.5411 6.57751 19.6249C7.03168 20.8149 7.70668 21.6916 8.58585 22.2283C9.56918 22.8308 11.1692 23.1758 12.9817 23.1758C13.8008 23.1783 14.6175 23.1041 15.4233 22.9541C16.5424 22.7485 17.6192 22.3573 18.6092 21.7966C19.4258 21.3241 20.1592 20.7233 20.7842 20.0166C21.8275 18.8349 22.4492 17.5191 22.9117 16.3499H23.0958C24.2392 16.3499 24.9417 15.8924 25.3292 15.5091C25.5867 15.2649 25.7875 14.9674 25.9183 14.6374L26 14.3974L25.8025 14.2416Z" fill="#2496ED"/>
</g>
<defs>
<clipPath id="clip0_1150:690">
<rect width="20" height="20" fill="white" transform="translate(6 6)"/>
</clipPath>
</defs>
</svg>
