<svg width="116" height="20" viewBox="0 0 116 20" fill="none" xmlns="http://www.w3.org/2000/svg">
<path d="M0 2C0 0.895431 0.895431 0 2 0H45V20H2C0.89543 20 0 19.1046 0 18V2Z" fill="#2D2D2D"/>
<path d="M7.032 15V6.624H12.396V7.824H8.388V10.152H12.024V11.352H8.388V13.8H12.396V15H7.032ZM17.8561 13.968H17.7961C17.6601 14.336 17.4361 14.624 17.1241 14.832C16.8201 15.04 16.4601 15.144 16.0441 15.144C15.2521 15.144 14.6401 14.86 14.2081 14.292C13.7761 13.716 13.5601 12.912 13.5601 11.88C13.5601 10.848 13.7761 10.048 14.2081 9.48C14.6401 8.904 15.2521 8.616 16.0441 8.616C16.4601 8.616 16.8201 8.72 17.1241 8.928C17.4361 9.128 17.6601 9.416 17.7961 9.792H17.8561V6.12H19.1641V15H17.8561V13.968ZM16.4401 14.016C16.8401 14.016 17.1761 13.92 17.4481 13.728C17.7201 13.528 17.8561 13.268 17.8561 12.948V10.812C17.8561 10.492 17.7201 10.236 17.4481 10.044C17.1761 9.844 16.8401 9.744 16.4401 9.744C15.9841 9.744 15.6201 9.892 15.3481 10.188C15.0761 10.476 14.9401 10.86 14.9401 11.34V12.42C14.9401 12.9 15.0761 13.288 15.3481 13.584C15.6201 13.872 15.9841 14.016 16.4401 14.016ZM21.6937 7.644C21.4217 7.644 21.2217 7.58 21.0937 7.452C20.9737 7.324 20.9137 7.16 20.9137 6.96V6.756C20.9137 6.556 20.9737 6.392 21.0937 6.264C21.2217 6.136 21.4217 6.072 21.6937 6.072C21.9657 6.072 22.1617 6.136 22.2817 6.264C22.4017 6.392 22.4617 6.556 22.4617 6.756V6.96C22.4617 7.16 22.4017 7.324 22.2817 7.452C22.1617 7.58 21.9657 7.644 21.6937 7.644ZM21.0337 8.76H22.3417V15H21.0337V8.76ZM25.9374 15C25.4814 15 25.1374 14.884 24.9054 14.652C24.6734 14.412 24.5574 14.076 24.5574 13.644V9.828H23.5854V8.76H24.1134C24.3294 8.76 24.4774 8.712 24.5574 8.616C24.6454 8.52 24.6894 8.364 24.6894 8.148V7.056H25.8654V8.76H27.1734V9.828H25.8654V13.932H27.0774V15H25.9374ZM30.9934 15.144C30.5614 15.144 30.1654 15.068 29.8054 14.916C29.4534 14.764 29.1534 14.548 28.9054 14.268C28.6574 13.98 28.4654 13.636 28.3294 13.236C28.1934 12.828 28.1254 12.376 28.1254 11.88C28.1254 11.384 28.1934 10.936 28.3294 10.536C28.4654 10.128 28.6574 9.784 28.9054 9.504C29.1534 9.216 29.4534 8.996 29.8054 8.844C30.1654 8.692 30.5614 8.616 30.9934 8.616C31.4254 8.616 31.8174 8.692 32.1694 8.844C32.5294 8.996 32.8334 9.216 33.0814 9.504C33.3294 9.784 33.5214 10.128 33.6574 10.536C33.7934 10.936 33.8614 11.384 33.8614 11.88C33.8614 12.376 33.7934 12.828 33.6574 13.236C33.5214 13.636 33.3294 13.98 33.0814 14.268C32.8334 14.548 32.5294 14.764 32.1694 14.916C31.8174 15.068 31.4254 15.144 30.9934 15.144ZM30.9934 14.064C31.4414 14.064 31.8014 13.928 32.0734 13.656C32.3454 13.376 32.4814 12.96 32.4814 12.408V11.352C32.4814 10.8 32.3454 10.388 32.0734 10.116C31.8014 9.836 31.4414 9.696 30.9934 9.696C30.5454 9.696 30.1854 9.836 29.9134 10.116C29.6414 10.388 29.5054 10.8 29.5054 11.352V12.408C29.5054 12.96 29.6414 13.376 29.9134 13.656C30.1854 13.928 30.5454 14.064 30.9934 14.064ZM35.3188 15V8.76H36.6268V9.96H36.6868C36.7748 9.64 36.9588 9.36 37.2388 9.12C37.5188 8.88 37.9068 8.76 38.4028 8.76H38.7508V10.02H38.2348C37.7148 10.02 37.3148 10.104 37.0348 10.272C36.7628 10.44 36.6268 10.688 36.6268 11.016V15H35.3188Z" fill="#F5F5F5"/>
<path d="M45 0H114C115.105 0 116 0.895431 116 2V18C116 19.1046 115.105 20 114 20H45V0Z" fill="#484848"/>
<path d="M53.964 15L51.216 6.624H52.62L53.952 10.764L54.756 13.68H54.804L55.62 10.764L56.952 6.624H58.32L55.536 15H53.964ZM61.8525 15.144C61.1485 15.144 60.5485 15.016 60.0525 14.76C59.5645 14.504 59.1445 14.16 58.7925 13.728L59.7285 12.852C60.0245 13.212 60.3485 13.484 60.7005 13.668C61.0605 13.852 61.4685 13.944 61.9245 13.944C62.4605 13.944 62.8645 13.824 63.1365 13.584C63.4085 13.344 63.5445 13.02 63.5445 12.612C63.5445 12.284 63.4485 12.024 63.2565 11.832C63.0645 11.64 62.7245 11.496 62.2365 11.4L61.4925 11.268C60.6765 11.116 60.0645 10.848 59.6565 10.464C59.2485 10.08 59.0445 9.552 59.0445 8.88C59.0445 8.512 59.1125 8.18 59.2485 7.884C59.3925 7.58 59.5885 7.328 59.8365 7.128C60.0925 6.92 60.4005 6.76 60.7605 6.648C61.1205 6.536 61.5245 6.48 61.9725 6.48C62.6045 6.48 63.1525 6.592 63.6165 6.816C64.0805 7.032 64.4765 7.348 64.8045 7.764L63.8565 8.604C63.6405 8.324 63.3765 8.1 63.0645 7.932C62.7525 7.764 62.3645 7.68 61.9005 7.68C61.4205 7.68 61.0485 7.776 60.7845 7.968C60.5205 8.16 60.3885 8.44 60.3885 8.808C60.3885 9.16 60.4965 9.424 60.7125 9.6C60.9285 9.768 61.2645 9.896 61.7205 9.984L62.4645 10.14C63.3045 10.3 63.9165 10.572 64.3005 10.956C64.6925 11.34 64.8885 11.868 64.8885 12.54C64.8885 12.932 64.8205 13.288 64.6845 13.608C64.5485 13.928 64.3485 14.204 64.0845 14.436C63.8285 14.66 63.5125 14.836 63.1365 14.964C62.7605 15.084 62.3325 15.144 61.8525 15.144ZM69.6604 15.144C68.5644 15.144 67.7044 14.776 67.0804 14.04C66.4564 13.296 66.1444 12.22 66.1444 10.812C66.1444 10.108 66.2244 9.488 66.3844 8.952C66.5444 8.416 66.7764 7.964 67.0804 7.596C67.3844 7.228 67.7524 6.952 68.1844 6.768C68.6244 6.576 69.1164 6.48 69.6604 6.48C70.3884 6.48 70.9964 6.64 71.4844 6.96C71.9804 7.28 72.3684 7.752 72.6484 8.376L71.5084 9C71.3644 8.6 71.1404 8.284 70.8364 8.052C70.5404 7.812 70.1484 7.692 69.6604 7.692C69.0124 7.692 68.5044 7.912 68.1364 8.352C67.7684 8.792 67.5844 9.4 67.5844 10.176V11.448C67.5844 12.224 67.7684 12.832 68.1364 13.272C68.5044 13.712 69.0124 13.932 69.6604 13.932C70.1644 13.932 70.5724 13.804 70.8844 13.548C71.2044 13.284 71.4404 12.948 71.5924 12.54L72.6844 13.2C72.4044 13.808 72.0124 14.284 71.5084 14.628C71.0044 14.972 70.3884 15.144 69.6604 15.144ZM76.4738 15.144C76.0418 15.144 75.6458 15.068 75.2858 14.916C74.9338 14.764 74.6338 14.548 74.3858 14.268C74.1378 13.98 73.9458 13.636 73.8098 13.236C73.6738 12.828 73.6058 12.376 73.6058 11.88C73.6058 11.384 73.6738 10.936 73.8098 10.536C73.9458 10.128 74.1378 9.784 74.3858 9.504C74.6338 9.216 74.9338 8.996 75.2858 8.844C75.6458 8.692 76.0418 8.616 76.4738 8.616C76.9058 8.616 77.2978 8.692 77.6498 8.844C78.0098 8.996 78.3138 9.216 78.5618 9.504C78.8098 9.784 79.0018 10.128 79.1378 10.536C79.2738 10.936 79.3418 11.384 79.3418 11.88C79.3418 12.376 79.2738 12.828 79.1378 13.236C79.0018 13.636 78.8098 13.98 78.5618 14.268C78.3138 14.548 78.0098 14.764 77.6498 14.916C77.2978 15.068 76.9058 15.144 76.4738 15.144ZM76.4738 14.064C76.9218 14.064 77.2818 13.928 77.5538 13.656C77.8258 13.376 77.9618 12.96 77.9618 12.408V11.352C77.9618 10.8 77.8258 10.388 77.5538 10.116C77.2818 9.836 76.9218 9.696 76.4738 9.696C76.0258 9.696 75.6658 9.836 75.3938 10.116C75.1218 10.388 74.9858 10.8 74.9858 11.352V12.408C74.9858 12.96 75.1218 13.376 75.3938 13.656C75.6658 13.928 76.0258 14.064 76.4738 14.064ZM84.7233 13.968H84.6633C84.5273 14.336 84.3033 14.624 83.9913 14.832C83.6873 15.04 83.3273 15.144 82.9113 15.144C82.1193 15.144 81.5073 14.86 81.0753 14.292C80.6433 13.716 80.4273 12.912 80.4273 11.88C80.4273 10.848 80.6433 10.048 81.0753 9.48C81.5073 8.904 82.1193 8.616 82.9113 8.616C83.3273 8.616 83.6873 8.72 83.9913 8.928C84.3033 9.128 84.5273 9.416 84.6633 9.792H84.7233V6.12H86.0313V15H84.7233V13.968ZM83.3073 14.016C83.7073 14.016 84.0433 13.92 84.3153 13.728C84.5873 13.528 84.7233 13.268 84.7233 12.948V10.812C84.7233 10.492 84.5873 10.236 84.3153 10.044C84.0433 9.844 83.7073 9.744 83.3073 9.744C82.8513 9.744 82.4873 9.892 82.2153 10.188C81.9433 10.476 81.8073 10.86 81.8073 11.34V12.42C81.8073 12.9 81.9433 13.288 82.2153 13.584C82.4873 13.872 82.8513 14.016 83.3073 14.016ZM90.3488 15.144C89.9008 15.144 89.5008 15.068 89.1488 14.916C88.7968 14.764 88.4968 14.548 88.2488 14.268C88.0008 13.98 87.8088 13.636 87.6728 13.236C87.5448 12.828 87.4808 12.376 87.4808 11.88C87.4808 11.384 87.5448 10.936 87.6728 10.536C87.8088 10.128 88.0008 9.784 88.2488 9.504C88.4968 9.216 88.7968 8.996 89.1488 8.844C89.5008 8.692 89.9008 8.616 90.3488 8.616C90.8048 8.616 91.2048 8.696 91.5488 8.856C91.9008 9.016 92.1928 9.24 92.4248 9.528C92.6568 9.808 92.8288 10.136 92.9408 10.512C93.0608 10.888 93.1208 11.292 93.1208 11.724V12.216H88.8368V12.42C88.8368 12.9 88.9768 13.296 89.2568 13.608C89.5448 13.912 89.9528 14.064 90.4808 14.064C90.8648 14.064 91.1888 13.98 91.4528 13.812C91.7168 13.644 91.9408 13.416 92.1248 13.128L92.8928 13.884C92.6608 14.268 92.3248 14.576 91.8848 14.808C91.4448 15.032 90.9328 15.144 90.3488 15.144ZM90.3488 9.636C90.1248 9.636 89.9168 9.676 89.7248 9.756C89.5408 9.836 89.3808 9.948 89.2448 10.092C89.1168 10.236 89.0168 10.408 88.9448 10.608C88.8728 10.808 88.8368 11.028 88.8368 11.268V11.352H91.7408V11.232C91.7408 10.752 91.6168 10.368 91.3688 10.08C91.1208 9.784 90.7808 9.636 90.3488 9.636Z" fill="#F5F5F5"/>
<g clip-path="url(#clip0_1130:99)">
<path d="M109.575 5.29348L107.105 4.10498C106.965 4.03776 106.808 4.0156 106.656 4.04158C106.503 4.06756 106.362 4.14039 106.253 4.24998L101.523 8.56498L99.4625 7.00098C99.3696 6.93049 99.2549 6.89474 99.1384 6.89995C99.0219 6.90516 98.9108 6.95098 98.8245 7.02948L98.1635 7.63048C98.112 7.67731 98.0709 7.73437 98.0427 7.79802C98.0145 7.86167 97.9999 7.93051 97.9999 8.00012C97.9998 8.06973 98.0143 8.13859 98.0424 8.20228C98.0705 8.26597 98.1116 8.32309 98.163 8.36998L99.9495 9.99998L98.163 11.63C98.1116 11.6769 98.0705 11.734 98.0424 11.7977C98.0143 11.8614 97.9998 11.9302 97.9999 11.9998C97.9999 12.0695 98.0145 12.1383 98.0427 12.2019C98.0709 12.2656 98.112 12.3227 98.1635 12.3695L98.825 12.97C98.9113 13.0485 99.0224 13.0943 99.1389 13.0995C99.2554 13.1047 99.3701 13.069 99.463 12.9985L101.523 11.4345L106.253 15.7495C106.362 15.8591 106.503 15.9319 106.656 15.9579C106.809 15.9839 106.966 15.9617 107.105 15.8945L109.576 14.706C109.703 14.6446 109.81 14.5486 109.885 14.429C109.96 14.3095 110 14.1711 110 14.03V5.96948C110 5.82821 109.96 5.68982 109.885 5.57022C109.81 5.45062 109.702 5.3547 109.575 5.29348ZM107.002 12.724L103.413 9.99998L107.002 7.27598V12.724V12.724Z" fill="#007ACC"/>
</g>
<defs>
<clipPath id="clip0_1130:99">
<rect width="12" height="12" fill="white" transform="translate(98 4)"/>
</clipPath>
</defs>
</svg>
