<svg width="24" height="24" viewBox="0 0 24 24" fill="none" xmlns="http://www.w3.org/2000/svg">
<rect width="24" height="24" rx="2" fill="#2D2D2D"/>
<g clip-path="url(#clip0_1150:666)">
<path d="M20 16.3919C19.7671 16.48 19.5101 16.4798 19.2774 16.3914C19.0446 16.303 18.8523 16.1324 18.7367 15.9119L16.4367 12.7313L16.1033 12.2866L13.4347 15.9159C13.326 16.1272 13.1441 16.2916 12.923 16.3785C12.7019 16.4653 12.4567 16.4687 12.2333 16.3879L15.672 11.7746L12.4733 7.60727C12.7033 7.52438 12.9549 7.52329 13.1856 7.60416C13.4163 7.68503 13.6121 7.84293 13.74 8.05127L16.124 11.2713L18.5213 8.0646C18.6309 7.85713 18.8128 7.69713 19.0326 7.61502C19.2523 7.53291 19.4946 7.53442 19.7133 7.61927L18.472 9.2666L16.7907 11.4553C16.744 11.4969 16.7066 11.548 16.681 11.6051C16.6555 11.6622 16.6422 11.724 16.6422 11.7866C16.6422 11.8492 16.6555 11.911 16.681 11.9681C16.7066 12.0252 16.744 12.0763 16.7907 12.1179L19.9933 16.3926L20 16.3919ZM4.00134 11.7173L4.28134 10.3339C5.05067 7.5986 8.18667 6.4606 10.344 8.15393C11.6073 9.1466 11.9227 10.5519 11.8607 12.1359H4.74401C4.62867 14.9646 6.67001 16.6726 9.28001 15.7999C9.70311 15.6476 10.0818 15.3928 10.3822 15.0581C10.6827 14.7235 10.8954 14.3196 11.0013 13.8826C11.1393 13.4386 11.3667 13.3626 11.784 13.4906C11.7145 14.0322 11.523 14.551 11.2241 15.0079C10.9251 15.4648 10.5264 15.848 10.058 16.1286C9.28429 16.5518 8.39656 16.7196 7.52176 16.6078C6.64696 16.4961 5.82987 16.1107 5.18734 15.5066C4.55203 14.7915 4.16806 13.8883 4.09401 12.9346C4.09401 12.7779 4.04067 12.6313 4.00467 12.4906C4.00143 12.2331 3.99987 11.9755 4.00001 11.7179L4.00134 11.7173ZM4.75267 11.5266H11.1887C11.1487 9.47593 9.85467 8.02127 8.12867 8.00793C6.20734 7.98127 4.83267 9.40393 4.74801 11.5173L4.75267 11.5266Z" fill="#F5F5F5"/>
</g>
<defs>
<clipPath id="clip0_1150:666">
<rect width="16" height="16" fill="white" transform="translate(4 4)"/>
</clipPath>
</defs>
</svg>
