<svg width="32" height="32" viewBox="0 0 32 32" fill="none" xmlns="http://www.w3.org/2000/svg">
<rect width="32" height="32" rx="2" fill="#0D1117"/>
<g clip-path="url(#clip0_1150:666)">
<path d="M26 21.49C25.7089 21.6001 25.3876 21.5998 25.0967 21.4893C24.8058 21.3788 24.5654 21.1656 24.4208 20.89L21.5458 16.9141L21.1292 16.3583L17.7933 20.895C17.6575 21.159 17.4301 21.3645 17.1538 21.4731C16.8774 21.5817 16.5709 21.5859 16.2917 21.485L20.59 15.7183L16.5917 10.5091C16.8792 10.4055 17.1936 10.4042 17.482 10.5053C17.7704 10.6063 18.0151 10.8037 18.175 11.0641L21.155 15.0891L24.1517 11.0808C24.2886 10.8215 24.516 10.6215 24.7907 10.5188C25.0654 10.4162 25.3683 10.4181 25.6417 10.5241L24.09 12.5833L21.9883 15.3191C21.93 15.3712 21.8833 15.435 21.8513 15.5064C21.8193 15.5778 21.8028 15.6551 21.8028 15.7333C21.8028 15.8115 21.8193 15.8889 21.8513 15.9602C21.8833 16.0316 21.93 16.0954 21.9883 16.1475L25.9917 21.4908L26 21.49ZM6.00168 15.6466L6.35168 13.9175C7.31334 10.4983 11.2333 9.07581 13.93 11.1925C15.5092 12.4333 15.9033 14.19 15.8258 16.17H6.93001C6.78584 19.7058 9.33751 21.8408 12.6 20.75C13.1289 20.5596 13.6023 20.241 13.9778 19.8227C14.3533 19.4045 14.6192 18.8996 14.7517 18.3533C14.9242 17.7983 15.2083 17.7033 15.73 17.8633C15.6431 18.5403 15.4038 19.1888 15.0301 19.7599C14.6564 20.3311 14.158 20.81 13.5725 21.1608C12.6054 21.6898 11.4957 21.8995 10.4022 21.7599C9.30869 21.6202 8.28734 21.1384 7.48418 20.3833C6.69003 19.4895 6.21007 18.3604 6.11751 17.1683C6.11751 16.9725 6.05084 16.7891 6.00584 16.6133C6.00179 16.2914 5.99984 15.9694 6.00001 15.6475L6.00168 15.6466ZM6.94084 15.4083H14.9858C14.9358 12.845 13.3183 11.0266 11.1608 11.01C8.75918 10.9766 7.04084 12.755 6.93501 15.3966L6.94084 15.4083Z" fill="#F5F5F5"/>
</g>
<defs>
<clipPath id="clip0_1150:666">
<rect width="20" height="20" fill="white" transform="translate(6 6)"/>
</clipPath>
</defs>
</svg>
