<svg width="32" height="32" viewBox="0 0 32 32" fill="none" xmlns="http://www.w3.org/2000/svg">
<rect width="32" height="32" rx="4" fill="#F24E1E"/>
<path d="M19.852 12.981H15.264V4H19.852C22.328 4 24.342 6.014 24.342 8.49C24.342 10.966 22.328 12.981 19.852 12.981V12.981ZM16.735 11.51H19.852C21.517 11.51 22.871 10.155 22.871 8.491C22.871 6.827 21.516 5.472 19.852 5.472H16.735V11.51V11.51ZM16.735 12.981H12.148C9.67198 12.981 7.65798 10.967 7.65798 8.491C7.65798 6.015 9.67198 4 12.148 4H16.736V12.981H16.735ZM12.148 5.471C10.483 5.471 9.12898 6.826 9.12898 8.49C9.12898 10.154 10.483 11.51 12.148 11.51H15.265V5.471H12.148ZM16.735 20.49H12.148C9.67198 20.49 7.65798 18.476 7.65798 16C7.65798 13.524 9.67198 11.51 12.148 11.51H16.736V20.49H16.735ZM12.148 12.981C10.483 12.981 9.12898 14.336 9.12898 16C9.12898 17.664 10.484 19.019 12.148 19.019H15.265V12.981H12.148ZM12.172 28C9.68298 28 7.65698 25.986 7.65698 23.51C7.65698 21.034 9.67098 19.02 12.147 19.02H16.735V23.461C16.735 25.964 14.688 28 12.172 28V28ZM12.148 20.49C11.3476 20.4911 10.5803 20.8095 10.0144 21.3754C9.44845 21.9414 9.13004 22.7086 9.12898 23.509C9.12898 25.174 10.494 26.528 12.173 26.528C13.878 26.528 15.266 25.152 15.266 23.46V20.49H12.148V20.49ZM19.852 20.49H19.754C17.278 20.49 15.264 18.476 15.264 16C15.264 13.524 17.278 11.51 19.754 11.51H19.852C22.328 11.51 24.342 13.524 24.342 16C24.342 18.476 22.328 20.49 19.852 20.49V20.49ZM19.755 12.981C18.09 12.981 16.736 14.336 16.736 16C16.736 17.664 18.091 19.019 19.755 19.019H19.853C21.518 19.019 22.872 17.664 22.872 16C22.872 14.336 21.517 12.981 19.853 12.981H19.755V12.981Z" fill="#F0F0F0"/>
</svg>
