<svg width="24" height="24" viewBox="0 0 24 24" fill="none" xmlns="http://www.w3.org/2000/svg">
<rect width="24" height="24" rx="2" fill="#2D2D2D"/>
<path d="M14.568 9.98733H11.5093V4H14.568C16.2187 4 17.5613 5.34267 17.5613 6.99333C17.5613 8.644 16.2187 9.98733 14.568 9.98733V9.98733ZM12.49 9.00667H14.568C15.678 9.00667 16.5807 8.10333 16.5807 6.994C16.5807 5.88467 15.6773 4.98133 14.568 4.98133H12.49V9.00667V9.00667ZM12.49 9.98733H9.43199C7.78132 9.98733 6.43865 8.64467 6.43865 6.994C6.43865 5.34333 7.78132 4 9.43199 4H12.4907V9.98733H12.49ZM9.43199 4.98067C8.32199 4.98067 7.41932 5.884 7.41932 6.99333C7.41932 8.10267 8.32199 9.00667 9.43199 9.00667H11.51V4.98067H9.43199ZM12.49 14.9933H9.43199C7.78132 14.9933 6.43865 13.6507 6.43865 12C6.43865 10.3493 7.78132 9.00667 9.43199 9.00667H12.4907V14.9933H12.49ZM9.43199 9.98733C8.32199 9.98733 7.41932 10.8907 7.41932 12C7.41932 13.1093 8.32265 14.0127 9.43199 14.0127H11.51V9.98733H9.43199ZM9.44799 20C7.78865 20 6.43799 18.6573 6.43799 17.0067C6.43799 15.356 7.78066 14.0133 9.43132 14.0133H12.49V16.974C12.49 18.6427 11.1253 20 9.44799 20V20ZM9.43199 14.9933C8.89841 14.994 8.38689 15.2063 8.0096 15.5836C7.6323 15.9609 7.42003 16.4724 7.41932 17.006C7.41932 18.116 8.32932 19.0187 9.44866 19.0187C10.5853 19.0187 11.5107 18.1013 11.5107 16.9733V14.9933H9.43199V14.9933ZM14.568 14.9933H14.5027C12.852 14.9933 11.5093 13.6507 11.5093 12C11.5093 10.3493 12.852 9.00667 14.5027 9.00667H14.568C16.2187 9.00667 17.5613 10.3493 17.5613 12C17.5613 13.6507 16.2187 14.9933 14.568 14.9933V14.9933ZM14.5033 9.98733C13.3933 9.98733 12.4907 10.8907 12.4907 12C12.4907 13.1093 13.394 14.0127 14.5033 14.0127H14.5687C15.6787 14.0127 16.5813 13.1093 16.5813 12C16.5813 10.8907 15.678 9.98733 14.5687 9.98733H14.5033V9.98733Z" fill="#F24E1E"/>
</svg>
