<svg width="32" height="32" viewBox="0 0 32 32" fill="none" xmlns="http://www.w3.org/2000/svg">
<rect width="32" height="32" rx="2" fill="#0D1117"/>
<path d="M19.21 13.4842H15.3867V6H19.21C21.2733 6 22.9517 7.67833 22.9517 9.74167C22.9517 11.805 21.2733 13.4842 19.21 13.4842V13.4842ZM16.6125 12.2583H19.21C20.5975 12.2583 21.7258 11.1292 21.7258 9.7425C21.7258 8.35583 20.5967 7.22667 19.21 7.22667H16.6125V12.2583V12.2583ZM16.6125 13.4842H12.79C10.7267 13.4842 9.04832 11.8058 9.04832 9.7425C9.04832 7.67917 10.7267 6 12.79 6H16.6133V13.4842H16.6125ZM12.79 7.22583C11.4025 7.22583 10.2742 8.355 10.2742 9.74167C10.2742 11.1283 11.4025 12.2583 12.79 12.2583H15.3875V7.22583H12.79ZM16.6125 19.7417H12.79C10.7267 19.7417 9.04832 18.0633 9.04832 16C9.04832 13.9367 10.7267 12.2583 12.79 12.2583H16.6133V19.7417H16.6125ZM12.79 13.4842C11.4025 13.4842 10.2742 14.6133 10.2742 16C10.2742 17.3867 11.4033 18.5158 12.79 18.5158H15.3875V13.4842H12.79ZM12.81 26C10.7358 26 9.04749 24.3217 9.04749 22.2583C9.04749 20.195 10.7258 18.5167 12.7892 18.5167H16.6125V22.2175C16.6125 24.3033 14.9067 26 12.81 26V26ZM12.79 19.7417C12.123 19.7425 11.4836 20.0079 11.012 20.4795C10.5404 20.9511 10.275 21.5905 10.2742 22.2575C10.2742 23.645 11.4117 24.7733 12.8108 24.7733C14.2317 24.7733 15.3883 23.6267 15.3883 22.2167V19.7417H12.79V19.7417ZM19.21 19.7417H19.1283C17.065 19.7417 15.3867 18.0633 15.3867 16C15.3867 13.9367 17.065 12.2583 19.1283 12.2583H19.21C21.2733 12.2583 22.9517 13.9367 22.9517 16C22.9517 18.0633 21.2733 19.7417 19.21 19.7417V19.7417ZM19.1292 13.4842C17.7417 13.4842 16.6133 14.6133 16.6133 16C16.6133 17.3867 17.7425 18.5158 19.1292 18.5158H19.2108C20.5983 18.5158 21.7267 17.3867 21.7267 16C21.7267 14.6133 20.5975 13.4842 19.2108 13.4842H19.1292V13.4842Z" fill="#F24E1E"/>
</svg>
