<svg width="32" height="32" viewBox="0 0 32 32" fill="none" xmlns="http://www.w3.org/2000/svg">
<path d="M14 1.1547C15.2376 0.440169 16.7624 0.440169 18 1.1547L27.8564 6.8453C29.094 7.55983 29.8564 8.88034 29.8564 10.3094V21.6906C29.8564 23.1197 29.094 24.4402 27.8564 25.1547L18 30.8453C16.7624 31.5598 15.2376 31.5598 14 30.8453L4.14359 25.1547C2.90599 24.4402 2.14359 23.1197 2.14359 21.6906V10.3094C2.14359 8.88034 2.90599 7.55983 4.14359 6.8453L14 1.1547Z" fill="#F24E1E"/>
<path d="M18.568 13.9873H15.5093V8H18.568C20.2187 8 21.5613 9.34267 21.5613 10.9933C21.5613 12.644 20.2187 13.9873 18.568 13.9873V13.9873ZM16.49 13.0067H18.568C19.678 13.0067 20.5807 12.1033 20.5807 10.994C20.5807 9.88467 19.6773 8.98133 18.568 8.98133H16.49V13.0067V13.0067ZM16.49 13.9873H13.432C11.7813 13.9873 10.4387 12.6447 10.4387 10.994C10.4387 9.34333 11.7813 8 13.432 8H16.4907V13.9873H16.49ZM13.432 8.98067C12.322 8.98067 11.4193 9.884 11.4193 10.9933C11.4193 12.1027 12.322 13.0067 13.432 13.0067H15.51V8.98067H13.432ZM16.49 18.9933H13.432C11.7813 18.9933 10.4387 17.6507 10.4387 16C10.4387 14.3493 11.7813 13.0067 13.432 13.0067H16.4907V18.9933H16.49ZM13.432 13.9873C12.322 13.9873 11.4193 14.8907 11.4193 16C11.4193 17.1093 12.3227 18.0127 13.432 18.0127H15.51V13.9873H13.432ZM13.448 24C11.7887 24 10.438 22.6573 10.438 21.0067C10.438 19.356 11.7807 18.0133 13.4313 18.0133H16.49V20.974C16.49 22.6427 15.1253 24 13.448 24V24ZM13.432 18.9933C12.8984 18.994 12.3869 19.2063 12.0096 19.5836C11.6323 19.9609 11.42 20.4724 11.4193 21.006C11.4193 22.116 12.3293 23.0187 13.4487 23.0187C14.5853 23.0187 15.5107 22.1013 15.5107 20.9733V18.9933H13.432V18.9933ZM18.568 18.9933H18.5027C16.852 18.9933 15.5093 17.6507 15.5093 16C15.5093 14.3493 16.852 13.0067 18.5027 13.0067H18.568C20.2187 13.0067 21.5613 14.3493 21.5613 16C21.5613 17.6507 20.2187 18.9933 18.568 18.9933V18.9933ZM18.5033 13.9873C17.3933 13.9873 16.4907 14.8907 16.4907 16C16.4907 17.1093 17.394 18.0127 18.5033 18.0127H18.5687C19.6787 18.0127 20.5813 17.1093 20.5813 16C20.5813 14.8907 19.678 13.9873 18.5687 13.9873H18.5033V13.9873Z" fill="#F0F0F0"/>
</svg>
