<svg width="24" height="24" viewBox="0 0 24 24" fill="none" xmlns="http://www.w3.org/2000/svg">
<rect width="24" height="24" rx="2" fill="#2D2D2D"/>
<g clip-path="url(#clip0_1150:737)">
<path d="M6.59336 14.448L8.17003 4.30737C8.18134 4.23215 8.21609 4.16242 8.26935 4.1081C8.32261 4.05379 8.39165 4.01767 8.46663 4.00489C8.54162 3.99211 8.61872 4.00332 8.68697 4.03693C8.75521 4.07053 8.81111 4.12481 8.84669 4.19204L10.542 7.3727L6.59336 14.448ZM17.7894 16.9094L16.2894 7.57604C16.2791 7.51008 16.2507 7.44828 16.2073 7.39754C16.1639 7.34681 16.1073 7.30913 16.0437 7.28873C15.9801 7.26832 15.9121 7.266 15.8473 7.282C15.7825 7.29801 15.7234 7.33172 15.6767 7.37937L6.21069 16.91L11.448 19.8614C11.6097 19.9522 11.792 19.9999 11.9774 19.9999C12.1628 19.9999 12.3451 19.9522 12.5067 19.8614L17.7894 16.9094ZM13.5334 8.7647L12.32 6.44337C12.2894 6.385 12.2434 6.33611 12.187 6.30199C12.1306 6.26788 12.0659 6.24985 12 6.24985C11.9341 6.24985 11.8694 6.26788 11.813 6.30199C11.7566 6.33611 11.7106 6.385 11.68 6.44337L6.35336 15.9894L13.5334 8.7647Z" fill="#FFCA28"/>
</g>
<defs>
<clipPath id="clip0_1150:737">
<rect width="16" height="16" fill="white" transform="translate(4 4)"/>
</clipPath>
</defs>
</svg>
