<svg width="32" height="32" viewBox="0 0 32 32" fill="none" xmlns="http://www.w3.org/2000/svg">
<path d="M14 1.1547C15.2376 0.440169 16.7624 0.440169 18 1.1547L27.8564 6.8453C29.094 7.55983 29.8564 8.88034 29.8564 10.3094V21.6906C29.8564 23.1197 29.094 24.4402 27.8564 25.1547L18 30.8453C16.7624 31.5598 15.2376 31.5598 14 30.8453L4.14359 25.1547C2.90599 24.4402 2.14359 23.1197 2.14359 21.6906V10.3094C2.14359 8.88034 2.90599 7.55983 4.14359 6.8453L14 1.1547Z" fill="#F05032"/>
<g clip-path="url(#clip0_1178:283)">
<path d="M23.6973 15.2866L16.7113 8.30126C16.3087 7.89926 15.6567 7.89926 15.2527 8.30126L13.8053 9.75126L15.6453 11.5913C16.0753 11.4479 16.5647 11.5446 16.9047 11.8853C17.2487 12.2286 17.3433 12.7239 17.1967 13.1519L18.9687 14.9253C19.3987 14.7766 19.8933 14.8733 20.2353 15.2153C20.716 15.6953 20.716 16.4713 20.2353 16.9513C19.756 17.4306 18.9813 17.4306 18.502 16.9513C18.1427 16.5906 18.0527 16.0599 18.2327 15.6206L16.5733 13.9699V18.3199C16.6907 18.3773 16.8013 18.4553 16.8987 18.5519C17.374 19.0326 17.374 19.8073 16.8987 20.2853C16.4193 20.7659 15.6393 20.7659 15.1593 20.2853C14.68 19.8059 14.68 19.0326 15.1593 18.5533C15.2807 18.4333 15.4173 18.3426 15.5627 18.2826V13.8899C15.418 13.8293 15.28 13.7419 15.1627 13.6226C14.7993 13.2593 14.712 12.7279 14.8987 12.2833L13.0907 10.4666L8.3 15.2539C7.9 15.6573 7.9 16.3099 8.3 16.7133L15.2867 23.6979C15.6893 24.1006 16.3413 24.1006 16.744 23.6979L23.6973 16.7446C24.1007 16.3426 24.1007 15.6899 23.6973 15.2866" fill="#F0F0F0"/>
</g>
<defs>
<clipPath id="clip0_1178:283">
<rect width="16" height="16" fill="white" transform="translate(8 8)"/>
</clipPath>
</defs>
</svg>
