<svg width="32" height="32" viewBox="0 0 32 32" fill="none" xmlns="http://www.w3.org/2000/svg">
<rect width="32" height="32" rx="4" fill="#F05032"/>
<g clip-path="url(#clip0_1190:270)">
<path d="M27.546 14.9299L17.067 4.45188C16.463 3.84888 15.485 3.84888 14.879 4.45188L12.708 6.62688L15.468 9.38688C16.113 9.17188 16.847 9.31688 17.357 9.82788C17.873 10.3429 18.015 11.0859 17.795 11.7279L20.453 14.3879C21.098 14.1649 21.84 14.3099 22.353 14.8229C23.074 15.5429 23.074 16.7069 22.353 17.4269C21.634 18.1459 20.472 18.1459 19.753 17.4269C19.214 16.8859 19.079 16.0899 19.349 15.4309L16.86 12.9549V19.4799C17.036 19.5659 17.202 19.6829 17.348 19.8279C18.061 20.5489 18.061 21.7109 17.348 22.4279C16.629 23.1489 15.459 23.1489 14.739 22.4279C14.02 21.7089 14.02 20.5489 14.739 19.8299C14.921 19.6499 15.126 19.5139 15.344 19.4239V12.8349C15.127 12.7439 14.92 12.6129 14.744 12.4339C14.199 11.8889 14.068 11.0919 14.348 10.4249L11.636 7.69988L4.45 14.8809C3.85 15.4859 3.85 16.4649 4.45 17.0699L14.93 27.5469C15.534 28.1509 16.512 28.1509 17.116 27.5469L27.546 17.1169C28.151 16.5139 28.151 15.5349 27.546 14.9299" fill="#F0F0F0"/>
</g>
<defs>
<clipPath id="clip0_1190:270">
<rect width="24" height="24" fill="white" transform="translate(4 4)"/>
</clipPath>
</defs>
</svg>
