<svg width="32" height="32" viewBox="0 0 32 32" fill="none" xmlns="http://www.w3.org/2000/svg">
<rect width="32" height="32" rx="2" fill="#0D1117"/>
<g clip-path="url(#clip0_1121:424)">
<path d="M25.6217 15.1083L16.8892 6.37663C16.3858 5.87413 15.5708 5.87413 15.0658 6.37663L13.2567 8.18913L15.5567 10.4891C16.0942 10.31 16.7058 10.4308 17.1308 10.8566C17.5608 11.2858 17.6792 11.905 17.4958 12.44L19.7108 14.6566C20.2483 14.4708 20.8667 14.5916 21.2942 15.0191C21.895 15.6191 21.895 16.5891 21.2942 17.1891C20.695 17.7883 19.7267 17.7883 19.1275 17.1891C18.6783 16.7383 18.5658 16.075 18.7908 15.5258L16.7167 13.4625V18.9C16.8633 18.9716 17.0017 19.0691 17.1233 19.19C17.7175 19.7908 17.7175 20.7591 17.1233 21.3566C16.5242 21.9575 15.5492 21.9575 14.9492 21.3566C14.35 20.7575 14.35 19.7908 14.9492 19.1916C15.1008 19.0416 15.2717 18.9283 15.4533 18.8533V13.3625C15.2725 13.2866 15.1 13.1775 14.9533 13.0283C14.4992 12.5741 14.39 11.91 14.6233 11.3541L12.3633 9.0833L6.375 15.0675C5.875 15.5716 5.875 16.3875 6.375 16.8916L15.1083 25.6225C15.6117 26.1258 16.4267 26.1258 16.93 25.6225L25.6217 16.9308C26.1258 16.4283 26.1258 15.6125 25.6217 15.1083" fill="#F05032"/>
</g>
<defs>
<clipPath id="clip0_1121:424">
<rect width="20" height="20" fill="white" transform="translate(6 6)"/>
</clipPath>
</defs>
</svg>
