<svg width="24" height="24" viewBox="0 0 24 24" fill="none" xmlns="http://www.w3.org/2000/svg">
<rect width="24" height="24" rx="2" fill="#2D2D2D"/>
<g clip-path="url(#clip0_1121:424)">
<path d="M19.6973 11.2866L12.7113 4.30126C12.3087 3.89926 11.6567 3.89926 11.2527 4.30126L9.80533 5.75126L11.6453 7.59126C12.0753 7.44792 12.5647 7.54459 12.9047 7.88526C13.2487 8.22859 13.3433 8.72392 13.1967 9.15192L14.9687 10.9253C15.3987 10.7766 15.8933 10.8733 16.2353 11.2153C16.716 11.6953 16.716 12.4713 16.2353 12.9513C15.756 13.4306 14.9813 13.4306 14.502 12.9513C14.1427 12.5906 14.0527 12.0599 14.2327 11.6206L12.5733 9.96992V14.3199C12.6907 14.3773 12.8013 14.4553 12.8987 14.5519C13.374 15.0326 13.374 15.8073 12.8987 16.2853C12.4193 16.7659 11.6393 16.7659 11.1593 16.2853C10.68 15.8059 10.68 15.0326 11.1593 14.5533C11.2807 14.4333 11.4173 14.3426 11.5627 14.2826V9.88992C11.418 9.82926 11.28 9.74192 11.1627 9.62259C10.7993 9.25926 10.712 8.72792 10.8987 8.28326L9.09067 6.46659L4.3 11.2539C3.9 11.6573 3.9 12.3099 4.3 12.7133L11.2867 19.6979C11.6893 20.1006 12.3413 20.1006 12.744 19.6979L19.6973 12.7446C20.1007 12.3426 20.1007 11.6899 19.6973 11.2866" fill="#F05032"/>
</g>
<defs>
<clipPath id="clip0_1121:424">
<rect width="16" height="16" fill="white" transform="translate(4 4)"/>
</clipPath>
</defs>
</svg>
