<svg width="24" height="24" viewBox="0 0 24 24" fill="none" xmlns="http://www.w3.org/2000/svg">
<rect width="24" height="24" rx="2" fill="#2D2D2D"/>
<path d="M12 4.198C7.58 4.198 4 7.78 4 12.198C4 15.7333 6.292 18.7313 9.47 19.788C9.87 19.8633 10.0167 19.616 10.0167 19.4033C10.0167 19.2133 10.01 18.71 10.0067 18.0433C7.78133 18.526 7.312 16.97 7.312 16.97C6.948 16.0467 6.422 15.8 6.422 15.8C5.69733 15.304 6.478 15.314 6.478 15.314C7.28133 15.37 7.70333 16.138 7.70333 16.138C8.41667 17.3613 9.576 17.008 10.0333 16.8033C10.1053 16.286 10.3113 15.9333 10.54 15.7333C8.76333 15.5333 6.896 14.8453 6.896 11.78C6.896 10.9067 7.206 10.1933 7.71933 9.63333C7.62933 9.43133 7.35933 8.618 7.78933 7.516C7.78933 7.516 8.45933 7.30133 9.98933 8.336C10.6293 8.158 11.3093 8.07 11.9893 8.066C12.6693 8.07 13.3493 8.158 13.9893 8.336C15.5093 7.30133 16.1793 7.516 16.1793 7.516C16.6093 8.618 16.3393 9.43133 16.2593 9.63333C16.7693 10.1933 17.0793 10.9067 17.0793 11.78C17.0793 14.8533 15.2093 15.53 13.4293 15.7267C13.7093 15.9667 13.9693 16.4573 13.9693 17.2067C13.9693 18.2773 13.9593 19.1373 13.9593 19.3973C13.9593 19.6073 14.0993 19.8573 14.5093 19.7773C17.71 18.728 20 15.728 20 12.198C20 7.78 16.418 4.198 12 4.198" fill="#F5F5F5"/>
</svg>
