<svg width="32" height="32" viewBox="0 0 32 32" fill="none" xmlns="http://www.w3.org/2000/svg">
<rect width="32" height="32" rx="2" fill="#0D1117"/>
<path d="M16 6.24744C10.475 6.24744 6 10.7249 6 16.2474C6 20.6666 8.865 24.4141 12.8375 25.7349C13.3375 25.8291 13.5208 25.5199 13.5208 25.2541C13.5208 25.0166 13.5125 24.3874 13.5083 23.5541C10.7267 24.1574 10.14 22.2124 10.14 22.2124C9.685 21.0583 9.0275 20.7499 9.0275 20.7499C8.12167 20.1299 9.0975 20.1424 9.0975 20.1424C10.1017 20.2124 10.6292 21.1724 10.6292 21.1724C11.5208 22.7016 12.97 22.2599 13.5417 22.0041C13.6317 21.3574 13.8892 20.9166 14.175 20.6666C11.9542 20.4166 9.62 19.5566 9.62 15.7249C9.62 14.6333 10.0075 13.7416 10.6492 13.0416C10.5367 12.7891 10.1992 11.7724 10.7367 10.3949C10.7367 10.3949 11.5742 10.1266 13.4867 11.4199C14.2867 11.1974 15.1367 11.0874 15.9867 11.0824C16.8367 11.0874 17.6867 11.1974 18.4867 11.4199C20.3867 10.1266 21.2242 10.3949 21.2242 10.3949C21.7617 11.7724 21.4242 12.7891 21.3242 13.0416C21.9617 13.7416 22.3492 14.6333 22.3492 15.7249C22.3492 19.5666 20.0117 20.4124 17.7867 20.6583C18.1367 20.9583 18.4617 21.5716 18.4617 22.5083C18.4617 23.8466 18.4492 24.9216 18.4492 25.2466C18.4492 25.5091 18.6242 25.8216 19.1367 25.7216C23.1375 24.4099 26 20.6599 26 16.2474C26 10.7249 21.5225 6.24744 16 6.24744" fill="#F5F5F5"/>
</svg>
