<svg width="174" height="28" viewBox="0 0 174 28" fill="none" xmlns="http://www.w3.org/2000/svg">
<rect width="174" height="28" rx="2" fill="#EA4335"/>
<g clip-path="url(#clip0_1141:558)">
<path d="M24 9.63798V18.9106C24 19.5133 23.512 20.0013 22.9093 20.0013H20.3633V13.82L16 17.0933L11.6367 13.82V20.002H9.09067C8.94738 20.002 8.8055 19.9737 8.67313 19.9189C8.54076 19.864 8.4205 19.7836 8.31921 19.6823C8.21793 19.5809 8.1376 19.4606 8.08283 19.3282C8.02806 19.1958 7.99991 19.0539 8 18.9106V9.63798C8 8.28931 9.53933 7.51931 10.618 8.32865L11.6367 9.09331L16 12.3653L20.3633 9.09198L21.382 8.32865C22.46 7.51998 24 8.28931 24 9.63798Z" fill="#F5F5F5"/>
</g>
<path d="M35.402 19.168C34.7113 19.168 34.1327 19.0467 33.666 18.804C33.1993 18.5613 32.7933 18.2253 32.448 17.796L33.428 16.9C33.6987 17.2267 33.9973 17.4833 34.324 17.67C34.66 17.8473 35.0473 17.936 35.486 17.936C35.934 17.936 36.2653 17.852 36.48 17.684C36.704 17.5067 36.816 17.264 36.816 16.956C36.816 16.7227 36.7367 16.5267 36.578 16.368C36.4287 16.2 36.1627 16.0927 35.78 16.046L35.108 15.962C34.3613 15.8687 33.7733 15.654 33.344 15.318C32.924 14.9727 32.714 14.464 32.714 13.792C32.714 13.4373 32.7793 13.1247 32.91 12.854C33.0407 12.574 33.2227 12.3407 33.456 12.154C33.6987 11.958 33.9833 11.8087 34.31 11.706C34.646 11.6033 35.0147 11.552 35.416 11.552C36.0693 11.552 36.6013 11.6547 37.012 11.86C37.432 12.0653 37.8053 12.35 38.132 12.714L37.194 13.61C37.0073 13.386 36.76 13.1947 36.452 13.036C36.1533 12.868 35.808 12.784 35.416 12.784C34.996 12.784 34.6833 12.868 34.478 13.036C34.282 13.204 34.184 13.4233 34.184 13.694C34.184 13.974 34.2727 14.184 34.45 14.324C34.6273 14.464 34.912 14.5667 35.304 14.632L35.976 14.716C36.7787 14.8373 37.362 15.0753 37.726 15.43C38.0993 15.7753 38.286 16.242 38.286 16.83C38.286 17.1847 38.216 17.5067 38.076 17.796C37.9453 18.076 37.754 18.3187 37.502 18.524C37.25 18.7293 36.9467 18.888 36.592 19C36.2373 19.112 35.8407 19.168 35.402 19.168ZM41.9303 19C41.3983 19 40.9969 18.8647 40.7263 18.594C40.4556 18.314 40.3203 17.922 40.3203 17.418V12.966H39.1863V11.72H39.8023C40.0543 11.72 40.2269 11.664 40.3203 11.552C40.4229 11.44 40.4743 11.258 40.4743 11.006V9.732H41.8463V11.72H43.3723V12.966H41.8463V17.754H43.2603V19H41.9303ZM47.8289 19.168C47.3062 19.168 46.8395 19.0793 46.4289 18.902C46.0182 18.7247 45.6682 18.4727 45.3789 18.146C45.0895 17.81 44.8655 17.4087 44.7069 16.942C44.5575 16.466 44.4829 15.9387 44.4829 15.36C44.4829 14.7813 44.5575 14.2587 44.7069 13.792C44.8655 13.316 45.0895 12.9147 45.3789 12.588C45.6682 12.252 46.0182 11.9953 46.4289 11.818C46.8395 11.6407 47.3062 11.552 47.8289 11.552C48.3609 11.552 48.8275 11.6453 49.2289 11.832C49.6395 12.0187 49.9802 12.28 50.2509 12.616C50.5215 12.9427 50.7222 13.3253 50.8529 13.764C50.9929 14.2027 51.0629 14.674 51.0629 15.178V15.752H46.0649V15.99C46.0649 16.55 46.2282 17.012 46.5549 17.376C46.8909 17.7307 47.3669 17.908 47.9829 17.908C48.4309 17.908 48.8089 17.81 49.1169 17.614C49.4249 17.418 49.6862 17.152 49.9009 16.816L50.7969 17.698C50.5262 18.146 50.1342 18.5053 49.6209 18.776C49.1075 19.0373 48.5102 19.168 47.8289 19.168ZM47.8289 12.742C47.5675 12.742 47.3249 12.7887 47.1009 12.882C46.8862 12.9753 46.6995 13.106 46.5409 13.274C46.3915 13.442 46.2749 13.6427 46.1909 13.876C46.1069 14.1093 46.0649 14.366 46.0649 14.646V14.744H49.4529V14.604C49.4529 14.044 49.3082 13.596 49.0189 13.26C48.7295 12.9147 48.3329 12.742 47.8289 12.742ZM52.7522 19V11.72H54.2782V12.924H54.3482C54.5068 12.532 54.7448 12.2053 55.0622 11.944C55.3888 11.6827 55.8322 11.552 56.3922 11.552C57.1388 11.552 57.7175 11.7993 58.1282 12.294C58.5482 12.7793 58.7582 13.4747 58.7582 14.38V19H57.2322V14.576C57.2322 13.4373 56.7748 12.868 55.8602 12.868C55.6642 12.868 55.4682 12.896 55.2722 12.952C55.0855 12.9987 54.9175 13.0733 54.7682 13.176C54.6188 13.2787 54.4975 13.4093 54.4042 13.568C54.3202 13.7267 54.2782 13.9133 54.2782 14.128V19H52.7522ZM61.6433 10.418C61.3259 10.418 61.0926 10.3433 60.9433 10.194C60.8033 10.0447 60.7333 9.85333 60.7333 9.62V9.382C60.7333 9.14867 60.8033 8.95733 60.9433 8.808C61.0926 8.65867 61.3259 8.584 61.6433 8.584C61.9606 8.584 62.1893 8.65867 62.3293 8.808C62.4693 8.95733 62.5393 9.14867 62.5393 9.382V9.62C62.5393 9.85333 62.4693 10.0447 62.3293 10.194C62.1893 10.3433 61.9606 10.418 61.6433 10.418ZM60.8733 11.72H62.3993V19H60.8733V11.72ZM67.4343 19.168C66.9303 19.168 66.4683 19.0793 66.0483 18.902C65.6377 18.7247 65.2877 18.4727 64.9983 18.146C64.709 17.81 64.485 17.4087 64.3263 16.942C64.1677 16.466 64.0883 15.9387 64.0883 15.36C64.0883 14.7813 64.1677 14.2587 64.3263 13.792C64.485 13.316 64.709 12.9147 64.9983 12.588C65.2877 12.252 65.6377 11.9953 66.0483 11.818C66.4683 11.6407 66.9303 11.552 67.4343 11.552C67.9383 11.552 68.3957 11.6407 68.8063 11.818C69.2263 11.9953 69.581 12.252 69.8703 12.588C70.1597 12.9147 70.3837 13.316 70.5423 13.792C70.701 14.2587 70.7803 14.7813 70.7803 15.36C70.7803 15.9387 70.701 16.466 70.5423 16.942C70.3837 17.4087 70.1597 17.81 69.8703 18.146C69.581 18.4727 69.2263 18.7247 68.8063 18.902C68.3957 19.0793 67.9383 19.168 67.4343 19.168ZM67.4343 17.908C67.957 17.908 68.377 17.7493 68.6943 17.432C69.0117 17.1053 69.1703 16.62 69.1703 15.976V14.744C69.1703 14.1 69.0117 13.6193 68.6943 13.302C68.377 12.9753 67.957 12.812 67.4343 12.812C66.9117 12.812 66.4917 12.9753 66.1743 13.302C65.857 13.6193 65.6983 14.1 65.6983 14.744V15.976C65.6983 16.62 65.857 17.1053 66.1743 17.432C66.4917 17.7493 66.9117 17.908 67.4343 17.908ZM77.8147 19C77.4133 19 77.1053 18.888 76.8907 18.664C76.676 18.4307 76.5453 18.1367 76.4987 17.782H76.4287C76.2887 18.2393 76.032 18.5847 75.6587 18.818C75.2853 19.0513 74.8327 19.168 74.3007 19.168C73.5447 19.168 72.9613 18.972 72.5507 18.58C72.1493 18.188 71.9487 17.6607 71.9487 16.998C71.9487 16.27 72.21 15.724 72.7327 15.36C73.2647 14.996 74.0393 14.814 75.0567 14.814H76.3727V14.198C76.3727 13.75 76.2513 13.4047 76.0087 13.162C75.766 12.9193 75.388 12.798 74.8747 12.798C74.4453 12.798 74.0953 12.8913 73.8247 13.078C73.554 13.2647 73.3253 13.5027 73.1387 13.792L72.2287 12.966C72.4713 12.5553 72.812 12.2193 73.2507 11.958C73.6893 11.6873 74.2633 11.552 74.9727 11.552C75.9153 11.552 76.6387 11.7713 77.1427 12.21C77.6467 12.6487 77.8987 13.2787 77.8987 14.1V17.754H78.6687V19H77.8147ZM74.7347 18.006C75.2107 18.006 75.6027 17.9033 75.9107 17.698C76.2187 17.4833 76.3727 17.1987 76.3727 16.844V15.794H75.0847C74.03 15.794 73.5027 16.1207 73.5027 16.774V17.026C73.5027 17.3527 73.61 17.6 73.8247 17.768C74.0487 17.9267 74.352 18.006 74.7347 18.006ZM82.4743 19.168C81.7836 19.168 81.2049 19.0467 80.7383 18.804C80.2716 18.5613 79.8656 18.2253 79.5203 17.796L80.5003 16.9C80.7709 17.2267 81.0696 17.4833 81.3963 17.67C81.7323 17.8473 82.1196 17.936 82.5583 17.936C83.0063 17.936 83.3376 17.852 83.5523 17.684C83.7763 17.5067 83.8883 17.264 83.8883 16.956C83.8883 16.7227 83.8089 16.5267 83.6503 16.368C83.5009 16.2 83.2349 16.0927 82.8523 16.046L82.1803 15.962C81.4336 15.8687 80.8456 15.654 80.4163 15.318C79.9963 14.9727 79.7863 14.464 79.7863 13.792C79.7863 13.4373 79.8516 13.1247 79.9823 12.854C80.1129 12.574 80.2949 12.3407 80.5283 12.154C80.7709 11.958 81.0556 11.8087 81.3823 11.706C81.7183 11.6033 82.0869 11.552 82.4883 11.552C83.1416 11.552 83.6736 11.6547 84.0843 11.86C84.5043 12.0653 84.8776 12.35 85.2043 12.714L84.2663 13.61C84.0796 13.386 83.8323 13.1947 83.5243 13.036C83.2256 12.868 82.8803 12.784 82.4883 12.784C82.0683 12.784 81.7556 12.868 81.5503 13.036C81.3543 13.204 81.2563 13.4233 81.2563 13.694C81.2563 13.974 81.3449 14.184 81.5223 14.324C81.6996 14.464 81.9843 14.5667 82.3763 14.632L83.0483 14.716C83.8509 14.8373 84.4343 15.0753 84.7983 15.43C85.1716 15.7753 85.3583 16.242 85.3583 16.83C85.3583 17.1847 85.2883 17.5067 85.1483 17.796C85.0176 18.076 84.8263 18.3187 84.5743 18.524C84.3223 18.7293 84.0189 18.888 83.6643 19C83.3096 19.112 82.9129 19.168 82.4743 19.168ZM95.4542 20.694H92.3322C91.4922 20.694 90.7362 20.554 90.0642 20.274C89.3922 20.0033 88.8182 19.616 88.3422 19.112C87.8756 18.608 87.5116 18.006 87.2502 17.306C86.9982 16.5967 86.8722 15.8127 86.8722 14.954C86.8722 14.0953 87.0029 13.3067 87.2642 12.588C87.5256 11.8693 87.8942 11.2533 88.3702 10.74C88.8556 10.2173 89.4389 9.81133 90.1202 9.522C90.8109 9.23267 91.5762 9.088 92.4162 9.088C93.1349 9.088 93.8116 9.2 94.4462 9.424C95.0902 9.63867 95.6502 9.97 96.1262 10.418C96.6022 10.8567 96.9802 11.4073 97.2602 12.07C97.5402 12.7327 97.6802 13.512 97.6802 14.408C97.6802 14.9213 97.6289 15.3973 97.5262 15.836C97.4236 16.2653 97.2649 16.6387 97.0502 16.956C96.8449 17.2733 96.5836 17.5207 96.2662 17.698C95.9489 17.8753 95.5802 17.964 95.1602 17.964C94.6842 17.964 94.3156 17.852 94.0542 17.628C93.7929 17.3947 93.6436 17.0913 93.6062 16.718H93.5362C93.3962 17.1007 93.1862 17.404 92.9062 17.628C92.6356 17.852 92.2856 17.964 91.8562 17.964C91.5389 17.964 91.2402 17.9033 90.9602 17.782C90.6802 17.6513 90.4329 17.4647 90.2182 17.222C90.0129 16.97 89.8496 16.6573 89.7282 16.284C89.6069 15.9013 89.5462 15.458 89.5462 14.954C89.5462 14.45 89.6069 14.0113 89.7282 13.638C89.8496 13.2553 90.0129 12.9427 90.2182 12.7C90.4329 12.448 90.6802 12.2613 90.9602 12.14C91.2402 12.0093 91.5389 11.944 91.8562 11.944C92.2856 11.944 92.6216 12.0513 92.8642 12.266C93.1069 12.4713 93.2796 12.7233 93.3822 13.022H93.4522V12.07H94.6702V16.13C94.6702 16.438 94.7262 16.6527 94.8382 16.774C94.9596 16.8953 95.1369 16.956 95.3702 16.956C95.7622 16.956 96.0609 16.7553 96.2662 16.354C96.4809 15.9433 96.5882 15.36 96.5882 14.604V14.058C96.5882 13.4513 96.4809 12.9053 96.2662 12.42C96.0609 11.9253 95.7716 11.51 95.3982 11.174C95.0249 10.8287 94.5816 10.5627 94.0682 10.376C93.5549 10.1893 92.9996 10.096 92.4022 10.096C91.7396 10.096 91.1329 10.2127 90.5822 10.446C90.0409 10.67 89.5742 10.9827 89.1822 11.384C88.7996 11.776 88.5009 12.2473 88.2862 12.798C88.0716 13.3393 87.9642 13.932 87.9642 14.576V15.276C87.9642 15.9293 88.0669 16.5267 88.2722 17.068C88.4869 17.6 88.7856 18.062 89.1682 18.454C89.5509 18.8367 90.0082 19.1353 90.5402 19.35C91.0816 19.5647 91.6836 19.672 92.3462 19.672H95.4542V20.694ZM92.2202 16.886C92.6122 16.886 92.9156 16.7787 93.1302 16.564C93.3449 16.3493 93.4522 16.074 93.4522 15.738V14.058C93.4522 13.7593 93.3449 13.512 93.1302 13.316C92.9156 13.1107 92.6122 13.008 92.2202 13.008C91.7909 13.008 91.4642 13.1387 91.2402 13.4C91.0162 13.652 90.9042 13.988 90.9042 14.408V15.486C90.9042 15.906 91.0162 16.2467 91.2402 16.508C91.4642 16.76 91.7909 16.886 92.2202 16.886ZM105.99 19.686C105.99 20.442 105.7 21.0113 105.122 21.394C104.543 21.7767 103.6 21.968 102.294 21.968C101.696 21.968 101.188 21.926 100.768 21.842C100.357 21.7673 100.016 21.6553 99.7457 21.506C99.4843 21.3567 99.293 21.1747 99.1717 20.96C99.0503 20.7453 98.9897 20.498 98.9897 20.218C98.9897 19.8167 99.097 19.504 99.3117 19.28C99.5357 19.056 99.8437 18.902 100.236 18.818V18.664C99.685 18.4867 99.4097 18.1133 99.4097 17.544C99.4097 17.1707 99.5357 16.886 99.7877 16.69C100.04 16.4847 100.343 16.34 100.698 16.256V16.2C100.268 15.9947 99.937 15.71 99.7037 15.346C99.4797 14.9727 99.3677 14.5387 99.3677 14.044C99.3677 13.2973 99.615 12.6953 100.11 12.238C100.614 11.7807 101.332 11.552 102.266 11.552C102.779 11.552 103.218 11.6267 103.582 11.776V11.58C103.582 11.2533 103.656 11.0013 103.806 10.824C103.964 10.6373 104.207 10.544 104.534 10.544H105.654V11.776H104.17V12.07C104.496 12.2847 104.748 12.5647 104.926 12.91C105.103 13.246 105.192 13.624 105.192 14.044C105.192 14.7813 104.94 15.3787 104.436 15.836C103.932 16.284 103.213 16.508 102.28 16.508C101.925 16.508 101.608 16.4707 101.328 16.396C101.141 16.4613 100.978 16.5547 100.838 16.676C100.698 16.788 100.628 16.9373 100.628 17.124C100.628 17.32 100.716 17.46 100.894 17.544C101.071 17.628 101.323 17.67 101.65 17.67H103.442C104.338 17.67 104.986 17.852 105.388 18.216C105.789 18.5707 105.99 19.0607 105.99 19.686ZM104.562 19.854C104.562 19.602 104.464 19.4013 104.268 19.252C104.081 19.1027 103.736 19.028 103.232 19.028H100.768C100.432 19.224 100.264 19.504 100.264 19.868C100.264 20.1667 100.38 20.4047 100.614 20.582C100.856 20.7687 101.262 20.862 101.832 20.862H102.784C103.969 20.862 104.562 20.526 104.562 19.854ZM102.28 15.402C102.728 15.402 103.073 15.304 103.316 15.108C103.568 14.9027 103.694 14.59 103.694 14.17V13.89C103.694 13.47 103.568 13.162 103.316 12.966C103.073 12.7607 102.728 12.658 102.28 12.658C101.832 12.658 101.482 12.7607 101.23 12.966C100.987 13.162 100.866 13.47 100.866 13.89V14.17C100.866 14.59 100.987 14.9027 101.23 15.108C101.482 15.304 101.832 15.402 102.28 15.402ZM107.125 19V11.72H108.651V12.924H108.721C108.796 12.7373 108.885 12.56 108.987 12.392C109.099 12.224 109.23 12.0793 109.379 11.958C109.538 11.8273 109.72 11.7293 109.925 11.664C110.14 11.5893 110.387 11.552 110.667 11.552C111.162 11.552 111.601 11.6733 111.983 11.916C112.366 12.1587 112.646 12.532 112.823 13.036H112.865C112.996 12.6253 113.248 12.2753 113.621 11.986C113.995 11.6967 114.475 11.552 115.063 11.552C115.791 11.552 116.356 11.7993 116.757 12.294C117.159 12.7793 117.359 13.4747 117.359 14.38V19H115.833V14.562C115.833 14.002 115.726 13.582 115.511 13.302C115.297 13.0127 114.956 12.868 114.489 12.868C114.293 12.868 114.107 12.896 113.929 12.952C113.752 12.9987 113.593 13.0733 113.453 13.176C113.323 13.2787 113.215 13.4093 113.131 13.568C113.047 13.7267 113.005 13.9087 113.005 14.114V19H111.479V14.562C111.479 13.4327 111.036 12.868 110.149 12.868C109.963 12.868 109.776 12.896 109.589 12.952C109.412 12.9987 109.253 13.0733 109.113 13.176C108.973 13.2787 108.861 13.4093 108.777 13.568C108.693 13.7267 108.651 13.9087 108.651 14.114V19H107.125ZM124.805 19C124.404 19 124.096 18.888 123.881 18.664C123.666 18.4307 123.536 18.1367 123.489 17.782H123.419C123.279 18.2393 123.022 18.5847 122.649 18.818C122.276 19.0513 121.823 19.168 121.291 19.168C120.535 19.168 119.952 18.972 119.541 18.58C119.14 18.188 118.939 17.6607 118.939 16.998C118.939 16.27 119.2 15.724 119.723 15.36C120.255 14.996 121.03 14.814 122.047 14.814H123.363V14.198C123.363 13.75 123.242 13.4047 122.999 13.162C122.756 12.9193 122.378 12.798 121.865 12.798C121.436 12.798 121.086 12.8913 120.815 13.078C120.544 13.2647 120.316 13.5027 120.129 13.792L119.219 12.966C119.462 12.5553 119.802 12.2193 120.241 11.958C120.68 11.6873 121.254 11.552 121.963 11.552C122.906 11.552 123.629 11.7713 124.133 12.21C124.637 12.6487 124.889 13.2787 124.889 14.1V17.754H125.659V19H124.805ZM121.725 18.006C122.201 18.006 122.593 17.9033 122.901 17.698C123.209 17.4833 123.363 17.1987 123.363 16.844V15.794H122.075C121.02 15.794 120.493 16.1207 120.493 16.774V17.026C120.493 17.3527 120.6 17.6 120.815 17.768C121.039 17.9267 121.342 18.006 121.725 18.006ZM127.925 10.418C127.607 10.418 127.374 10.3433 127.225 10.194C127.085 10.0447 127.015 9.85333 127.015 9.62V9.382C127.015 9.14867 127.085 8.95733 127.225 8.808C127.374 8.65867 127.607 8.584 127.925 8.584C128.242 8.584 128.471 8.65867 128.611 8.808C128.751 8.95733 128.821 9.14867 128.821 9.382V9.62C128.821 9.85333 128.751 10.0447 128.611 10.194C128.471 10.3433 128.242 10.418 127.925 10.418ZM127.155 11.72H128.681V19H127.155V11.72ZM132.414 19C131.891 19 131.499 18.8693 131.238 18.608C130.986 18.3373 130.86 17.964 130.86 17.488V8.64H132.386V17.754H133.394V19H132.414ZM135.926 19.168C135.581 19.168 135.324 19.0793 135.156 18.902C134.988 18.7153 134.904 18.4867 134.904 18.216V18.006C134.904 17.7353 134.988 17.5113 135.156 17.334C135.324 17.1473 135.581 17.054 135.926 17.054C136.272 17.054 136.528 17.1473 136.696 17.334C136.864 17.5113 136.948 17.7353 136.948 18.006V18.216C136.948 18.4867 136.864 18.7153 136.696 18.902C136.528 19.0793 136.272 19.168 135.926 19.168ZM141.699 19.168C141.176 19.168 140.71 19.0793 140.299 18.902C139.888 18.7247 139.543 18.4727 139.263 18.146C138.983 17.81 138.768 17.4087 138.619 16.942C138.47 16.466 138.395 15.9387 138.395 15.36C138.395 14.7813 138.47 14.2587 138.619 13.792C138.768 13.316 138.983 12.9147 139.263 12.588C139.543 12.252 139.888 11.9953 140.299 11.818C140.71 11.6407 141.176 11.552 141.699 11.552C142.427 11.552 143.024 11.7153 143.491 12.042C143.958 12.3687 144.298 12.8027 144.513 13.344L143.253 13.932C143.15 13.596 142.968 13.33 142.707 13.134C142.455 12.9287 142.119 12.826 141.699 12.826C141.139 12.826 140.714 13.0033 140.425 13.358C140.145 13.7033 140.005 14.156 140.005 14.716V16.018C140.005 16.578 140.145 17.0353 140.425 17.39C140.714 17.7353 141.139 17.908 141.699 17.908C142.147 17.908 142.502 17.8007 142.763 17.586C143.034 17.362 143.248 17.068 143.407 16.704L144.569 17.32C144.326 17.9173 143.962 18.3747 143.477 18.692C142.992 19.0093 142.399 19.168 141.699 19.168ZM148.796 19.168C148.292 19.168 147.83 19.0793 147.41 18.902C146.999 18.7247 146.649 18.4727 146.36 18.146C146.07 17.81 145.846 17.4087 145.688 16.942C145.529 16.466 145.45 15.9387 145.45 15.36C145.45 14.7813 145.529 14.2587 145.688 13.792C145.846 13.316 146.07 12.9147 146.36 12.588C146.649 12.252 146.999 11.9953 147.41 11.818C147.83 11.6407 148.292 11.552 148.796 11.552C149.3 11.552 149.757 11.6407 150.168 11.818C150.588 11.9953 150.942 12.252 151.232 12.588C151.521 12.9147 151.745 13.316 151.904 13.792C152.062 14.2587 152.142 14.7813 152.142 15.36C152.142 15.9387 152.062 16.466 151.904 16.942C151.745 17.4087 151.521 17.81 151.232 18.146C150.942 18.4727 150.588 18.7247 150.168 18.902C149.757 19.0793 149.3 19.168 148.796 19.168ZM148.796 17.908C149.318 17.908 149.738 17.7493 150.056 17.432C150.373 17.1053 150.532 16.62 150.532 15.976V14.744C150.532 14.1 150.373 13.6193 150.056 13.302C149.738 12.9753 149.318 12.812 148.796 12.812C148.273 12.812 147.853 12.9753 147.536 13.302C147.218 13.6193 147.06 14.1 147.06 14.744V15.976C147.06 16.62 147.218 17.1053 147.536 17.432C147.853 17.7493 148.273 17.908 148.796 17.908ZM153.842 19V11.72H155.368V12.924H155.438C155.513 12.7373 155.601 12.56 155.704 12.392C155.816 12.224 155.947 12.0793 156.096 11.958C156.255 11.8273 156.437 11.7293 156.642 11.664C156.857 11.5893 157.104 11.552 157.384 11.552C157.879 11.552 158.317 11.6733 158.7 11.916C159.083 12.1587 159.363 12.532 159.54 13.036H159.582C159.713 12.6253 159.965 12.2753 160.338 11.986C160.711 11.6967 161.192 11.552 161.78 11.552C162.508 11.552 163.073 11.7993 163.474 12.294C163.875 12.7793 164.076 13.4747 164.076 14.38V19H162.55V14.562C162.55 14.002 162.443 13.582 162.228 13.302C162.013 13.0127 161.673 12.868 161.206 12.868C161.01 12.868 160.823 12.896 160.646 12.952C160.469 12.9987 160.31 13.0733 160.17 13.176C160.039 13.2787 159.932 13.4093 159.848 13.568C159.764 13.7267 159.722 13.9087 159.722 14.114V19H158.196V14.562C158.196 13.4327 157.753 12.868 156.866 12.868C156.679 12.868 156.493 12.896 156.306 12.952C156.129 12.9987 155.97 13.0733 155.83 13.176C155.69 13.2787 155.578 13.4093 155.494 13.568C155.41 13.7267 155.368 13.9087 155.368 14.114V19H153.842Z" fill="#F5F5F5"/>
<defs>
<clipPath id="clip0_1141:558">
<rect width="16" height="16" fill="white" transform="translate(8 6)"/>
</clipPath>
</defs>
</svg>
