<svg width="24" height="24" viewBox="0 0 24 24" fill="none" xmlns="http://www.w3.org/2000/svg">
<rect width="24" height="24" rx="2" fill="#2D2D2D"/>
<g clip-path="url(#clip0_1121:509)">
<path d="M20 7.63798V16.9106C20 17.5133 19.512 18.0013 18.9093 18.0013H16.3633V11.82L12 15.0933L7.63667 11.82V18.002H5.09067C4.94738 18.002 4.8055 17.9737 4.67313 17.9189C4.54076 17.864 4.4205 17.7836 4.31921 17.6823C4.21793 17.5809 4.1376 17.4606 4.08283 17.3282C4.02806 17.1958 3.99991 17.0539 4 16.9106V7.63798C4 6.28931 5.53933 5.51931 6.618 6.32865L7.63667 7.09331L12 10.3653L16.3633 7.09198L17.382 6.32865C18.46 5.51998 20 6.28931 20 7.63798Z" fill="#F5F5F5"/>
</g>
<defs>
<clipPath id="clip0_1121:509">
<rect width="16" height="16" fill="white" transform="translate(4 4)"/>
</clipPath>
</defs>
</svg>
