<svg width="24" height="24" viewBox="0 0 24 24" fill="none" xmlns="http://www.w3.org/2000/svg">
<rect width="24" height="24" rx="2" fill="#2D2D2D"/>
<g clip-path="url(#clip0_1138:361)">
<path d="M13.3674 5.834L16.6574 7.734C17.2014 7.16133 18.106 7.13867 18.6787 7.68267C18.7774 7.776 18.8614 7.88333 18.93 8.00067C19.3227 8.686 19.0847 9.56 18.3994 9.95267C18.2834 10.0193 18.1587 10.0693 18.0274 10.1013V13.9007C18.7914 14.0827 19.2634 14.8493 19.0807 15.6133C19.0487 15.7493 18.996 15.88 18.926 16.0007C18.5314 16.6827 17.6587 16.9167 16.9747 16.522C16.844 16.4467 16.7247 16.3493 16.624 16.236L13.354 18.124C13.602 18.8733 13.1954 19.6807 12.4467 19.928C12.302 19.9753 12.152 20 12 20C11.2127 20.0007 10.574 19.3633 10.5734 18.576C10.5734 18.4393 10.5927 18.3027 10.632 18.17L7.34136 16.272C6.79736 16.8413 5.89402 16.8633 5.32402 16.3187C4.75469 15.7747 4.73336 14.8713 5.27736 14.3013C5.46602 14.1033 5.70802 13.964 5.97336 13.8993L5.97402 10.1C5.20736 9.916 4.73536 9.14467 4.92002 8.37733C4.95136 8.24533 5.00202 8.118 5.06936 8C5.46402 7.31733 6.33736 7.084 7.02069 7.47867C7.13869 7.546 7.24669 7.63067 7.34069 7.73L10.6327 5.83C10.4087 5.07467 10.84 4.282 11.5934 4.05867C11.7247 4.01933 11.8627 4 12 4C12.7874 3.99933 13.426 4.636 13.4267 5.42267C13.4274 5.562 13.4067 5.70133 13.3674 5.834ZM13.024 6.41867C13.0114 6.43267 12.9994 6.44467 12.9854 6.45733L17.2927 13.9173C17.31 13.9113 17.33 13.9067 17.3474 13.902V10.0973C16.584 9.90867 16.1194 9.136 16.3087 8.372C16.3127 8.356 16.3167 8.33933 16.3214 8.324L13.024 6.41867V6.41867ZM11.014 6.458L10.974 6.418L7.67669 8.31933C7.89469 9.076 7.45869 9.86467 6.70269 10.0827C6.68536 10.088 6.66869 10.092 6.65202 10.0967V13.902L6.70802 13.9173L11.0154 6.45733L11.014 6.458V6.458ZM12.398 6.796C12.138 6.87067 11.8627 6.87067 11.6034 6.796L7.29669 14.2553C7.49269 14.444 7.63136 14.6853 7.69669 14.9493H16.304C16.3687 14.684 16.5087 14.442 16.706 14.2533L12.398 6.796ZM13.0554 17.614L16.3307 15.722C16.3207 15.6907 16.3127 15.6593 16.3054 15.6273H7.69469L7.68069 15.6827L10.9734 17.584C11.232 17.3147 11.596 17.1487 12 17.1487C12.418 17.1487 12.7934 17.328 13.0554 17.614Z" fill="#E10098"/>
</g>
<defs>
<clipPath id="clip0_1138:361">
<rect width="16" height="16" fill="white" transform="translate(4 4)"/>
</clipPath>
</defs>
</svg>
