<svg width="32" height="32" viewBox="0 0 32 32" fill="none" xmlns="http://www.w3.org/2000/svg">
<rect width="32" height="32" rx="2" fill="#0D1117"/>
<g clip-path="url(#clip0_1138:361)">
<path d="M17.7092 8.2925L21.8217 10.6675C22.5017 9.95167 23.6325 9.92333 24.3483 10.6033C24.4717 10.72 24.5767 10.8542 24.6625 11.0008C25.1533 11.8575 24.8558 12.95 23.9992 13.4408C23.8542 13.5242 23.6983 13.5867 23.5342 13.6267V18.3758C24.4892 18.6033 25.0792 19.5617 24.8508 20.5167C24.8108 20.6867 24.745 20.85 24.6575 21.0008C24.1642 21.8533 23.0733 22.1458 22.2183 21.6525C22.055 21.5583 21.9058 21.4367 21.78 21.295L17.6925 23.655C18.0025 24.5917 17.4942 25.6008 16.5583 25.91C16.3775 25.9692 16.19 26 16 26C15.0158 26.0008 14.2175 25.2042 14.2167 24.22C14.2167 24.0492 14.2408 23.8783 14.29 23.7125L10.1767 21.34C9.49667 22.0517 8.3675 22.0792 7.655 21.3983C6.94333 20.7183 6.91667 19.5892 7.59667 18.8767C7.8325 18.6292 8.135 18.455 8.46667 18.3742L8.4675 13.625C7.50917 13.395 6.91917 12.4308 7.15 11.4717C7.18917 11.3067 7.2525 11.1475 7.33667 11C7.83 10.1467 8.92167 9.855 9.77583 10.3483C9.92333 10.4325 10.0583 10.5383 10.1758 10.6625L14.2908 8.2875C14.0108 7.34333 14.55 6.3525 15.4917 6.07333C15.6558 6.02417 15.8283 6 16 6C16.9842 5.99917 17.7825 6.795 17.7833 7.77833C17.7842 7.9525 17.7583 8.12667 17.7092 8.2925ZM17.28 9.02333C17.2642 9.04083 17.2492 9.05583 17.2317 9.07167L22.6158 18.3967C22.6375 18.3892 22.6625 18.3833 22.6842 18.3775V13.6217C21.73 13.3858 21.1492 12.42 21.3858 11.465C21.3908 11.445 21.3958 11.4242 21.4017 11.405L17.28 9.02333V9.02333ZM14.7675 9.0725L14.7175 9.0225L10.5958 11.3992C10.8683 12.345 10.3233 13.3308 9.37833 13.6033C9.35667 13.61 9.33583 13.615 9.315 13.6208V18.3775L9.385 18.3967L14.7692 9.07167L14.7675 9.0725V9.0725ZM16.4975 9.495C16.1725 9.58833 15.8283 9.58833 15.5042 9.495L10.1208 18.8192C10.3658 19.055 10.5392 19.3567 10.6208 19.6867H21.38C21.4608 19.355 21.6358 19.0525 21.8825 18.8167L16.4975 9.495ZM17.3192 23.0175L21.4133 20.6525C21.4008 20.6133 21.3908 20.5742 21.3817 20.5342H10.6183L10.6008 20.6033L14.7167 22.98C15.04 22.6433 15.495 22.4358 16 22.4358C16.5225 22.4358 16.9917 22.66 17.3192 23.0175Z" fill="#E10098"/>
</g>
<defs>
<clipPath id="clip0_1138:361">
<rect width="20" height="20" fill="white" transform="translate(6 6)"/>
</clipPath>
</defs>
</svg>
