<svg width="32" height="32" viewBox="0 0 32 32" fill="none" xmlns="http://www.w3.org/2000/svg">
<path d="M28 0H4C1.79086 0 0 1.79086 0 4V28C0 30.2091 1.79086 32 4 32H28C30.2091 32 32 30.2091 32 28V4C32 1.79086 30.2091 0 28 0Z" fill="#E34F26"/>
<path d="M12.1971 25.0471C10.068 24.4761 8.64122 24.0532 8.60378 23.9821C8.56958 23.9173 8.46289 22.7671 8.36657 21.4263C8.27028 20.0854 8.17423 18.8843 8.15321 18.7571L8.11496 18.526H9.83047H11.546L11.5946 18.9253C11.6214 19.1449 11.6851 19.7786 11.7362 20.3334C11.7873 20.8882 11.8396 21.3528 11.8523 21.3657C11.8644 21.3792 12.7707 21.6334 13.865 21.9319L15.8547 22.4747L17.7983 21.9356C18.8673 21.6392 19.7548 21.3838 19.7705 21.3682C19.7963 21.3423 20.2314 17.0086 20.2314 16.7762C20.2314 16.7002 18.769 16.6765 14.0869 16.6765C10.7074 16.6765 7.94243 16.6631 7.94243 16.6475C7.94243 16.5489 7.09596 6.87666 7.05292 6.48337L7 6H15.85H24.7L24.6564 6.27321C24.6324 6.42348 24.573 7.03822 24.5247 7.6393C24.4762 8.24037 24.416 8.89294 24.3909 9.08944L24.3454 9.44674H17.5669H10.7884L10.8377 9.84605C10.8648 10.0657 10.925 10.7182 10.9716 11.2962C11.0181 11.8742 11.0779 12.5456 11.1045 12.7884L11.153 13.2297H17.598H24.043L23.9945 13.7131C23.9679 13.979 23.7475 16.4096 23.505 19.1144C23.2625 21.8193 23.0543 24.0454 23.0424 24.0615C23.011 24.1037 15.9127 26.007 15.8124 26C15.7661 25.9973 14.1392 25.5679 12.1971 25.0471L12.1971 25.0471Z" fill="#F0F0F0"/>
</svg>
