<svg width="100" height="24" viewBox="0 0 100 24" fill="none" xmlns="http://www.w3.org/2000/svg">
<rect width="100" height="24" rx="2" fill="#3F3F3F"/>
<path d="M6.672 17V15.896H7.812V9.728H6.672V8.624H10.32V9.728H9.168V15.896H10.32V17H6.672ZM12.7322 8C13.0362 8 13.2562 8.072 13.3922 8.216C13.5282 8.36 13.5962 8.548 13.5962 8.78V8.984C13.5962 9.176 13.5682 9.376 13.5122 9.584C13.4562 9.784 13.3762 9.984 13.2722 10.184C13.1682 10.384 13.0442 10.576 12.9002 10.76C12.7562 10.944 12.5962 11.108 12.4202 11.252H11.4842C11.7402 11.004 11.9482 10.76 12.1082 10.52C12.2682 10.28 12.3922 10.02 12.4802 9.74C12.2722 9.7 12.1162 9.612 12.0122 9.476C11.9162 9.34 11.8682 9.18 11.8682 8.996V8.78C11.8682 8.548 11.9362 8.36 12.0722 8.216C12.2082 8.072 12.4282 8 12.7322 8ZM14.8579 17V10.76H16.1659V11.792H16.2259C16.2899 11.632 16.3659 11.48 16.4539 11.336C16.5499 11.192 16.6619 11.068 16.7899 10.964C16.9259 10.852 17.0819 10.768 17.2579 10.712C17.4419 10.648 17.6539 10.616 17.8939 10.616C18.3179 10.616 18.6939 10.72 19.0219 10.928C19.3499 11.136 19.5899 11.456 19.7419 11.888H19.7779C19.8899 11.536 20.1059 11.236 20.4259 10.988C20.7459 10.74 21.1579 10.616 21.6619 10.616C22.2859 10.616 22.7699 10.828 23.1139 11.252C23.4579 11.668 23.6299 12.264 23.6299 13.04V17H22.3219V13.196C22.3219 12.716 22.2299 12.356 22.0459 12.116C21.8619 11.868 21.5699 11.744 21.1699 11.744C21.0019 11.744 20.8419 11.768 20.6899 11.816C20.5379 11.856 20.4019 11.92 20.2819 12.008C20.1699 12.096 20.0779 12.208 20.0059 12.344C19.9339 12.48 19.8979 12.636 19.8979 12.812V17H18.5899V13.196C18.5899 12.228 18.2099 11.744 17.4499 11.744C17.2899 11.744 17.1299 11.768 16.9699 11.816C16.8179 11.856 16.6819 11.92 16.5619 12.008C16.4419 12.096 16.3459 12.208 16.2739 12.344C16.2019 12.48 16.1659 12.636 16.1659 12.812V17H14.8579ZM28.2758 17V10.76H29.5838V11.792H29.6438C29.7798 11.456 29.9838 11.176 30.2558 10.952C30.5358 10.728 30.9158 10.616 31.3958 10.616C32.0358 10.616 32.5318 10.828 32.8838 11.252C33.2438 11.668 33.4238 12.264 33.4238 13.04V17H32.1158V13.208C32.1158 12.232 31.7238 11.744 30.9398 11.744C30.7718 11.744 30.6038 11.768 30.4358 11.816C30.2758 11.856 30.1318 11.92 30.0038 12.008C29.8758 12.096 29.7718 12.208 29.6918 12.344C29.6198 12.48 29.5838 12.64 29.5838 12.824V17H28.2758ZM37.6848 17.144C37.2368 17.144 36.8368 17.068 36.4848 16.916C36.1328 16.764 35.8328 16.548 35.5848 16.268C35.3368 15.98 35.1448 15.636 35.0088 15.236C34.8808 14.828 34.8168 14.376 34.8168 13.88C34.8168 13.384 34.8808 12.936 35.0088 12.536C35.1448 12.128 35.3368 11.784 35.5848 11.504C35.8328 11.216 36.1328 10.996 36.4848 10.844C36.8368 10.692 37.2368 10.616 37.6848 10.616C38.1408 10.616 38.5408 10.696 38.8848 10.856C39.2368 11.016 39.5288 11.24 39.7608 11.528C39.9928 11.808 40.1648 12.136 40.2768 12.512C40.3968 12.888 40.4568 13.292 40.4568 13.724V14.216H36.1728V14.42C36.1728 14.9 36.3128 15.296 36.5928 15.608C36.8808 15.912 37.2888 16.064 37.8168 16.064C38.2008 16.064 38.5248 15.98 38.7888 15.812C39.0528 15.644 39.2768 15.416 39.4608 15.128L40.2288 15.884C39.9968 16.268 39.6608 16.576 39.2208 16.808C38.7808 17.032 38.2688 17.144 37.6848 17.144ZM37.6848 11.636C37.4608 11.636 37.2528 11.676 37.0608 11.756C36.8768 11.836 36.7168 11.948 36.5808 12.092C36.4528 12.236 36.3528 12.408 36.2808 12.608C36.2088 12.808 36.1728 13.028 36.1728 13.268V13.352H39.0768V13.232C39.0768 12.752 38.9528 12.368 38.7048 12.08C38.4568 11.784 38.1168 11.636 37.6848 11.636ZM41.2222 10.76H42.4942L43.1302 13.376L43.6942 15.74H43.7302L44.3782 13.376L45.1342 10.76H46.3102L47.0782 13.376L47.7382 15.74H47.7742L48.3262 13.376L48.9742 10.76H50.1862L48.5062 17H47.0302L46.2142 14.156L45.7102 12.404H45.6862L45.1942 14.156L44.3662 17H42.9262L41.2222 10.76ZM51.4321 8.12H52.7401V11.792H52.8001C52.9361 11.416 53.1561 11.128 53.4601 10.928C53.7721 10.72 54.1361 10.616 54.5521 10.616C55.3441 10.616 55.9561 10.904 56.3881 11.48C56.8201 12.048 57.0361 12.848 57.0361 13.88C57.0361 14.912 56.8201 15.716 56.3881 16.292C55.9561 16.86 55.3441 17.144 54.5521 17.144C54.1361 17.144 53.7721 17.04 53.4601 16.832C53.1561 16.624 52.9361 16.336 52.8001 15.968H52.7401V17H51.4321V8.12ZM54.1561 16.016C54.6121 16.016 54.9761 15.872 55.2481 15.584C55.5201 15.288 55.6561 14.9 55.6561 14.42V13.34C55.6561 12.86 55.5201 12.476 55.2481 12.188C54.9761 11.892 54.6121 11.744 54.1561 11.744C53.7561 11.744 53.4201 11.844 53.1481 12.044C52.8761 12.236 52.7401 12.492 52.7401 12.812V14.948C52.7401 15.268 52.8761 15.528 53.1481 15.728C53.4201 15.92 53.7561 16.016 54.1561 16.016ZM59.1937 9.644C58.9217 9.644 58.7217 9.58 58.5937 9.452C58.4737 9.324 58.4137 9.16 58.4137 8.96V8.756C58.4137 8.556 58.4737 8.392 58.5937 8.264C58.7217 8.136 58.9217 8.072 59.1937 8.072C59.4657 8.072 59.6617 8.136 59.7817 8.264C59.9017 8.392 59.9617 8.556 59.9617 8.756V8.96C59.9617 9.16 59.9017 9.324 59.7817 9.452C59.6617 9.58 59.4657 9.644 59.1937 9.644ZM58.5337 10.76H59.8417V17H58.5337V10.76ZM64.1574 17.144C63.7094 17.144 63.3094 17.068 62.9574 16.916C62.6054 16.764 62.3054 16.548 62.0574 16.268C61.8094 15.98 61.6174 15.636 61.4814 15.236C61.3534 14.828 61.2894 14.376 61.2894 13.88C61.2894 13.384 61.3534 12.936 61.4814 12.536C61.6174 12.128 61.8094 11.784 62.0574 11.504C62.3054 11.216 62.6054 10.996 62.9574 10.844C63.3094 10.692 63.7094 10.616 64.1574 10.616C64.6134 10.616 65.0134 10.696 65.3574 10.856C65.7094 11.016 66.0014 11.24 66.2334 11.528C66.4654 11.808 66.6374 12.136 66.7494 12.512C66.8694 12.888 66.9294 13.292 66.9294 13.724V14.216H62.6454V14.42C62.6454 14.9 62.7854 15.296 63.0654 15.608C63.3534 15.912 63.7614 16.064 64.2894 16.064C64.6734 16.064 64.9974 15.98 65.2614 15.812C65.5254 15.644 65.7494 15.416 65.9334 15.128L66.7014 15.884C66.4694 16.268 66.1334 16.576 65.6934 16.808C65.2534 17.032 64.7414 17.144 64.1574 17.144ZM64.1574 11.636C63.9334 11.636 63.7254 11.676 63.5334 11.756C63.3494 11.836 63.1894 11.948 63.0534 12.092C62.9254 12.236 62.8254 12.408 62.7534 12.608C62.6814 12.808 62.6454 13.028 62.6454 13.268V13.352H65.5494V13.232C65.5494 12.752 65.4254 12.368 65.1774 12.08C64.9294 11.784 64.5894 11.636 64.1574 11.636Z" fill="#F5F5F5"/>
<path fill-rule="evenodd" clip-rule="evenodd" d="M86 11.9999C86 11.8673 86.0527 11.7401 86.1464 11.6463C86.2402 11.5526 86.3674 11.4999 86.5 11.4999H92.293L90.146 9.3539C90.0521 9.26001 89.9994 9.13267 89.9994 8.9999C89.9994 8.86712 90.0521 8.73979 90.146 8.6459C90.2399 8.55201 90.3672 8.49927 90.5 8.49927C90.6328 8.49927 90.7601 8.55201 90.854 8.6459L93.854 11.6459C93.9006 11.6923 93.9375 11.7475 93.9627 11.8083C93.9879 11.869 94.0009 11.9341 94.0009 11.9999C94.0009 12.0657 93.9879 12.1308 93.9627 12.1915C93.9375 12.2523 93.9006 12.3075 93.854 12.3539L90.854 15.3539C90.7601 15.4478 90.6328 15.5005 90.5 15.5005C90.3672 15.5005 90.2399 15.4478 90.146 15.3539C90.0521 15.26 89.9994 15.1327 89.9994 14.9999C89.9994 14.8671 90.0521 14.7398 90.146 14.6459L92.293 12.4999H86.5C86.3674 12.4999 86.2402 12.4472 86.1464 12.3535C86.0527 12.2597 86 12.1325 86 11.9999Z" fill="#F5F5F5"/>
</svg>
