<svg width="32" height="32" viewBox="0 0 32 32" fill="none" xmlns="http://www.w3.org/2000/svg">
<rect width="32" height="32" rx="2" fill="#0D1117"/>
<path d="M16 6C10.5142 6 6 10.5142 6 16C6 21.4858 10.5142 26 16 26C21.4858 26 26 21.4858 26 16C26 10.5142 21.4858 6 16 6ZM16 8.065C20.38 8.065 23.935 11.62 23.935 16C23.935 20.38 20.38 23.935 16 23.935C11.62 23.935 8.065 20.38 8.065 16C8.065 15.2625 8.165 14.5492 8.35417 13.8717C8.71865 14.4026 9.20692 14.8368 9.77679 15.1368C10.3467 15.4367 10.981 15.5934 11.625 15.5933C12.6773 15.5929 13.6864 15.1747 14.4305 14.4305C15.1747 13.6864 15.5929 12.6773 15.5933 11.625C15.5935 10.9809 15.4367 10.3465 15.1366 9.77656C14.8365 9.20666 14.402 8.71845 13.8708 8.35417C14.5642 8.16173 15.2805 8.06445 16 8.065V8.065Z" fill="#5849BE"/>
</svg>
