<svg width="24" height="24" viewBox="0 0 24 24" fill="none" xmlns="http://www.w3.org/2000/svg">
<rect width="24" height="24" rx="2" fill="#2D2D2D"/>
<path d="M12 4C7.61133 4 4 7.61133 4 12C4 16.3887 7.61133 20 12 20C16.3887 20 20 16.3887 20 12C20 7.61133 16.3887 4 12 4ZM12 5.652C15.504 5.652 18.348 8.496 18.348 12C18.348 15.504 15.504 18.348 12 18.348C8.496 18.348 5.652 15.504 5.652 12C5.652 11.41 5.732 10.8393 5.88333 10.2973C6.17492 10.7221 6.56553 11.0694 7.02143 11.3094C7.47733 11.5494 7.9848 11.6747 8.5 11.6747C9.34187 11.6743 10.1491 11.3397 10.7444 10.7444C11.3397 10.1491 11.6743 9.34187 11.6747 8.5C11.6748 7.98472 11.5494 7.47717 11.3093 7.02125C11.0692 6.56533 10.7216 6.17476 10.2967 5.88333C10.8513 5.72938 11.4244 5.65156 12 5.652V5.652Z" fill="#5849BE"/>
</svg>
