<svg width="85" height="28" viewBox="0 0 85 28" fill="none" xmlns="http://www.w3.org/2000/svg">
<rect width="85" height="28" rx="2" fill="#2D2D2D"/>
<path d="M16 6C13.8267 6 13.5553 6.01 12.702 6.048C11.85 6.088 11.27 6.222 10.76 6.42C10.234 6.624 9.78733 6.898 9.34267 7.34267C8.898 7.78733 8.62333 8.23333 8.42 8.76C8.222 9.27 8.08733 9.85 8.048 10.702C8.008 11.5553 8 11.8267 8 14C8 16.1733 8.01 16.4447 8.048 17.298C8.088 18.1493 8.222 18.73 8.42 19.24C8.624 19.7653 8.898 20.2127 9.34267 20.6573C9.78733 21.1013 10.2333 21.3767 10.76 21.58C11.2707 21.7773 11.8507 21.9127 12.702 21.952C13.5553 21.992 13.8267 22 16 22C18.1733 22 18.4447 21.99 19.298 21.952C20.1493 21.912 20.73 21.7773 21.24 21.58C21.7653 21.376 22.2127 21.1013 22.6573 20.6573C23.1013 20.2127 23.3767 19.7673 23.58 19.24C23.7773 18.73 23.9127 18.1493 23.952 17.298C23.992 16.4447 24 16.1733 24 14C24 11.8267 23.99 11.5553 23.952 10.702C23.912 9.85067 23.7773 9.26933 23.58 8.76C23.376 8.234 23.1013 7.78733 22.6573 7.34267C22.2127 6.898 21.7673 6.62333 21.24 6.42C20.73 6.222 20.1493 6.08733 19.298 6.048C18.4447 6.008 18.1733 6 16 6ZM16 7.44C18.1353 7.44 18.39 7.45067 19.2333 7.48733C20.0133 7.524 20.4367 7.65333 20.718 7.764C21.0927 7.90867 21.358 8.082 21.6393 8.36133C21.9187 8.64133 22.092 8.90733 22.2367 9.282C22.346 9.56333 22.4767 9.98667 22.512 10.7667C22.55 11.6107 22.5587 11.864 22.5587 14C22.5587 16.136 22.5487 16.39 22.5093 17.2333C22.4687 18.0133 22.3387 18.4367 22.2287 18.718C22.0793 19.0927 21.9093 19.358 21.6293 19.6393C21.35 19.9187 21.08 20.092 20.7093 20.2367C20.4293 20.346 19.9993 20.4767 19.2193 20.512C18.37 20.55 18.12 20.5587 15.98 20.5587C13.8393 20.5587 13.5893 20.5487 12.7407 20.5093C11.96 20.4687 11.53 20.3387 11.25 20.2287C10.8707 20.0793 10.61 19.9093 10.3307 19.6293C10.05 19.35 9.87067 19.08 9.73067 18.7093C9.62067 18.4293 9.49133 17.9993 9.45067 17.2193C9.42067 16.3793 9.41 16.12 9.41 13.99C9.41 11.8593 9.42067 11.5993 9.45067 10.7493C9.49133 9.96933 9.62067 9.54 9.73067 9.26C9.87067 8.88 10.05 8.62 10.3307 8.33933C10.61 8.06 10.8707 7.88 11.25 7.74067C11.53 7.63 11.9507 7.5 12.7307 7.46C13.5807 7.43 13.8307 7.42 15.97 7.42L16 7.44V7.44ZM16 9.892C13.73 9.892 11.892 11.732 11.892 14C11.892 16.27 13.732 18.108 16 18.108C18.27 18.108 20.108 16.268 20.108 14C20.108 11.73 18.268 9.892 16 9.892ZM16 16.6667C14.5267 16.6667 13.3333 15.4733 13.3333 14C13.3333 12.5267 14.5267 11.3333 16 11.3333C17.4733 11.3333 18.6667 12.5267 18.6667 14C18.6667 15.4733 17.4733 16.6667 16 16.6667ZM21.2307 9.73C21.2307 10.26 20.8 10.69 20.2707 10.69C19.7407 10.69 19.3107 10.2593 19.3107 9.73C19.3107 9.20067 19.7413 8.77067 20.2707 8.77067C20.7993 8.77 21.2307 9.20067 21.2307 9.73Z" fill="#E4405F"/>
<path d="M32.916 19.144C32.324 19.144 31.828 19.04 31.428 18.832C31.028 18.624 30.68 18.336 30.384 17.968L31.224 17.2C31.456 17.48 31.712 17.7 31.992 17.86C32.28 18.012 32.612 18.088 32.988 18.088C33.372 18.088 33.656 18.016 33.84 17.872C34.032 17.72 34.128 17.512 34.128 17.248C34.128 17.048 34.06 16.88 33.924 16.744C33.796 16.6 33.568 16.508 33.24 16.468L32.664 16.396C32.024 16.316 31.52 16.132 31.152 15.844C30.792 15.548 30.612 15.112 30.612 14.536C30.612 14.232 30.668 13.964 30.78 13.732C30.892 13.492 31.048 13.292 31.248 13.132C31.456 12.964 31.7 12.836 31.98 12.748C32.268 12.66 32.584 12.616 32.928 12.616C33.488 12.616 33.944 12.704 34.296 12.88C34.656 13.056 34.976 13.3 35.256 13.612L34.452 14.38C34.292 14.188 34.08 14.024 33.816 13.888C33.56 13.744 33.264 13.672 32.928 13.672C32.568 13.672 32.3 13.744 32.124 13.888C31.956 14.032 31.872 14.22 31.872 14.452C31.872 14.692 31.948 14.872 32.1 14.992C32.252 15.112 32.496 15.2 32.832 15.256L33.408 15.328C34.096 15.432 34.596 15.636 34.908 15.94C35.228 16.236 35.388 16.636 35.388 17.14C35.388 17.444 35.328 17.72 35.208 17.968C35.096 18.208 34.932 18.416 34.716 18.592C34.5 18.768 34.24 18.904 33.936 19C33.632 19.096 33.292 19.144 32.916 19.144ZM38.5117 19C38.0557 19 37.7117 18.884 37.4797 18.652C37.2477 18.412 37.1317 18.076 37.1317 17.644V13.828H36.1597V12.76H36.6877C36.9037 12.76 37.0517 12.712 37.1317 12.616C37.2197 12.52 37.2637 12.364 37.2637 12.148V11.056H38.4397V12.76H39.7477V13.828H38.4397V17.932H39.6517V19H38.5117ZM43.5676 19.144C43.1196 19.144 42.7196 19.068 42.3676 18.916C42.0156 18.764 41.7156 18.548 41.4676 18.268C41.2196 17.98 41.0276 17.636 40.8916 17.236C40.7636 16.828 40.6996 16.376 40.6996 15.88C40.6996 15.384 40.7636 14.936 40.8916 14.536C41.0276 14.128 41.2196 13.784 41.4676 13.504C41.7156 13.216 42.0156 12.996 42.3676 12.844C42.7196 12.692 43.1196 12.616 43.5676 12.616C44.0236 12.616 44.4236 12.696 44.7676 12.856C45.1196 13.016 45.4116 13.24 45.6436 13.528C45.8756 13.808 46.0476 14.136 46.1596 14.512C46.2796 14.888 46.3396 15.292 46.3396 15.724V16.216H42.0556V16.42C42.0556 16.9 42.1956 17.296 42.4756 17.608C42.7636 17.912 43.1716 18.064 43.6996 18.064C44.0836 18.064 44.4076 17.98 44.6716 17.812C44.9356 17.644 45.1596 17.416 45.3436 17.128L46.1116 17.884C45.8796 18.268 45.5436 18.576 45.1036 18.808C44.6636 19.032 44.1516 19.144 43.5676 19.144ZM43.5676 13.636C43.3436 13.636 43.1356 13.676 42.9436 13.756C42.7596 13.836 42.5996 13.948 42.4636 14.092C42.3356 14.236 42.2356 14.408 42.1636 14.608C42.0916 14.808 42.0556 15.028 42.0556 15.268V15.352H44.9596V15.232C44.9596 14.752 44.8356 14.368 44.5876 14.08C44.3396 13.784 43.9996 13.636 43.5676 13.636ZM47.7876 19V12.76H49.0956V13.792H49.1556C49.2916 13.456 49.4956 13.176 49.7676 12.952C50.0476 12.728 50.4276 12.616 50.9076 12.616C51.5476 12.616 52.0436 12.828 52.3956 13.252C52.7556 13.668 52.9356 14.264 52.9356 15.04V19H51.6276V15.208C51.6276 14.232 51.2356 13.744 50.4516 13.744C50.2836 13.744 50.1156 13.768 49.9476 13.816C49.7876 13.856 49.6436 13.92 49.5156 14.008C49.3876 14.096 49.2836 14.208 49.2036 14.344C49.1316 14.48 49.0956 14.64 49.0956 14.824V19H47.7876ZM55.4085 11.644C55.1365 11.644 54.9365 11.58 54.8085 11.452C54.6885 11.324 54.6285 11.16 54.6285 10.96V10.756C54.6285 10.556 54.6885 10.392 54.8085 10.264C54.9365 10.136 55.1365 10.072 55.4085 10.072C55.6805 10.072 55.8765 10.136 55.9965 10.264C56.1165 10.392 56.1765 10.556 56.1765 10.756V10.96C56.1765 11.16 56.1165 11.324 55.9965 11.452C55.8765 11.58 55.6805 11.644 55.4085 11.644ZM54.7485 12.76H56.0565V19H54.7485V12.76ZM60.3723 19.144C59.9403 19.144 59.5443 19.068 59.1843 18.916C58.8323 18.764 58.5323 18.548 58.2843 18.268C58.0363 17.98 57.8443 17.636 57.7083 17.236C57.5723 16.828 57.5043 16.376 57.5043 15.88C57.5043 15.384 57.5723 14.936 57.7083 14.536C57.8443 14.128 58.0363 13.784 58.2843 13.504C58.5323 13.216 58.8323 12.996 59.1843 12.844C59.5443 12.692 59.9403 12.616 60.3723 12.616C60.8043 12.616 61.1963 12.692 61.5483 12.844C61.9083 12.996 62.2123 13.216 62.4603 13.504C62.7083 13.784 62.9003 14.128 63.0363 14.536C63.1723 14.936 63.2403 15.384 63.2403 15.88C63.2403 16.376 63.1723 16.828 63.0363 17.236C62.9003 17.636 62.7083 17.98 62.4603 18.268C62.2123 18.548 61.9083 18.764 61.5483 18.916C61.1963 19.068 60.8043 19.144 60.3723 19.144ZM60.3723 18.064C60.8203 18.064 61.1803 17.928 61.4523 17.656C61.7243 17.376 61.8603 16.96 61.8603 16.408V15.352C61.8603 14.8 61.7243 14.388 61.4523 14.116C61.1803 13.836 60.8203 13.696 60.3723 13.696C59.9243 13.696 59.5643 13.836 59.2923 14.116C59.0203 14.388 58.8843 14.8 58.8843 15.352V16.408C58.8843 16.96 59.0203 17.376 59.2923 17.656C59.5643 17.928 59.9243 18.064 60.3723 18.064ZM69.2697 19C68.9257 19 68.6617 18.904 68.4777 18.712C68.2937 18.512 68.1817 18.26 68.1417 17.956H68.0817C67.9617 18.348 67.7417 18.644 67.4217 18.844C67.1017 19.044 66.7137 19.144 66.2577 19.144C65.6097 19.144 65.1097 18.976 64.7577 18.64C64.4137 18.304 64.2417 17.852 64.2417 17.284C64.2417 16.66 64.4657 16.192 64.9137 15.88C65.3697 15.568 66.0337 15.412 66.9057 15.412H68.0337V14.884C68.0337 14.5 67.9297 14.204 67.7217 13.996C67.5137 13.788 67.1897 13.684 66.7497 13.684C66.3817 13.684 66.0817 13.764 65.8497 13.924C65.6177 14.084 65.4217 14.288 65.2617 14.536L64.4817 13.828C64.6897 13.476 64.9817 13.188 65.3577 12.964C65.7337 12.732 66.2257 12.616 66.8337 12.616C67.6417 12.616 68.2617 12.804 68.6937 13.18C69.1257 13.556 69.3417 14.096 69.3417 14.8V17.932H70.0017V19H69.2697ZM66.6297 18.148C67.0377 18.148 67.3737 18.06 67.6377 17.884C67.9017 17.7 68.0337 17.456 68.0337 17.152V16.252H66.9297C66.0257 16.252 65.5737 16.532 65.5737 17.092V17.308C65.5737 17.588 65.6657 17.8 65.8497 17.944C66.0417 18.08 66.3017 18.148 66.6297 18.148ZM73.2637 19.144C72.6717 19.144 72.1757 19.04 71.7757 18.832C71.3757 18.624 71.0277 18.336 70.7317 17.968L71.5717 17.2C71.8037 17.48 72.0597 17.7 72.3397 17.86C72.6277 18.012 72.9597 18.088 73.3357 18.088C73.7197 18.088 74.0037 18.016 74.1877 17.872C74.3797 17.72 74.4757 17.512 74.4757 17.248C74.4757 17.048 74.4077 16.88 74.2717 16.744C74.1437 16.6 73.9157 16.508 73.5877 16.468L73.0117 16.396C72.3717 16.316 71.8677 16.132 71.4997 15.844C71.1397 15.548 70.9597 15.112 70.9597 14.536C70.9597 14.232 71.0157 13.964 71.1277 13.732C71.2397 13.492 71.3957 13.292 71.5957 13.132C71.8037 12.964 72.0477 12.836 72.3277 12.748C72.6157 12.66 72.9317 12.616 73.2757 12.616C73.8357 12.616 74.2917 12.704 74.6437 12.88C75.0037 13.056 75.3237 13.3 75.6037 13.612L74.7997 14.38C74.6397 14.188 74.4277 14.024 74.1637 13.888C73.9077 13.744 73.6117 13.672 73.2757 13.672C72.9157 13.672 72.6477 13.744 72.4717 13.888C72.3037 14.032 72.2197 14.22 72.2197 14.452C72.2197 14.692 72.2957 14.872 72.4477 14.992C72.5997 15.112 72.8437 15.2 73.1797 15.256L73.7557 15.328C74.4437 15.432 74.9437 15.636 75.2557 15.94C75.5757 16.236 75.7357 16.636 75.7357 17.14C75.7357 17.444 75.6757 17.72 75.5557 17.968C75.4437 18.208 75.2797 18.416 75.0637 18.592C74.8477 18.768 74.5877 18.904 74.2837 19C73.9797 19.096 73.6397 19.144 73.2637 19.144Z" fill="#F5F5F5"/>
</svg>
