<svg width="24" height="24" viewBox="0 0 24 24" fill="none" xmlns="http://www.w3.org/2000/svg">
<rect width="24" height="24" rx="2" fill="#2D2D2D"/>
<path d="M12 4C9.82667 4 9.55533 4.01 8.702 4.048C7.85 4.088 7.27 4.222 6.76 4.42C6.234 4.624 5.78733 4.898 5.34267 5.34267C4.898 5.78733 4.62333 6.23333 4.42 6.76C4.222 7.27 4.08733 7.85 4.048 8.702C4.008 9.55533 4 9.82667 4 12C4 14.1733 4.01 14.4447 4.048 15.298C4.088 16.1493 4.222 16.73 4.42 17.24C4.624 17.7653 4.898 18.2127 5.34267 18.6573C5.78733 19.1013 6.23333 19.3767 6.76 19.58C7.27067 19.7773 7.85067 19.9127 8.702 19.952C9.55533 19.992 9.82667 20 12 20C14.1733 20 14.4447 19.99 15.298 19.952C16.1493 19.912 16.73 19.7773 17.24 19.58C17.7653 19.376 18.2127 19.1013 18.6573 18.6573C19.1013 18.2127 19.3767 17.7673 19.58 17.24C19.7773 16.73 19.9127 16.1493 19.952 15.298C19.992 14.4447 20 14.1733 20 12C20 9.82667 19.99 9.55533 19.952 8.702C19.912 7.85067 19.7773 7.26933 19.58 6.76C19.376 6.234 19.1013 5.78733 18.6573 5.34267C18.2127 4.898 17.7673 4.62333 17.24 4.42C16.73 4.222 16.1493 4.08733 15.298 4.048C14.4447 4.008 14.1733 4 12 4ZM12 5.44C14.1353 5.44 14.39 5.45067 15.2333 5.48733C16.0133 5.524 16.4367 5.65333 16.718 5.764C17.0927 5.90867 17.358 6.082 17.6393 6.36133C17.9187 6.64133 18.092 6.90733 18.2367 7.282C18.346 7.56333 18.4767 7.98667 18.512 8.76667C18.55 9.61067 18.5587 9.864 18.5587 12C18.5587 14.136 18.5487 14.39 18.5093 15.2333C18.4687 16.0133 18.3387 16.4367 18.2287 16.718C18.0793 17.0927 17.9093 17.358 17.6293 17.6393C17.35 17.9187 17.08 18.092 16.7093 18.2367C16.4293 18.346 15.9993 18.4767 15.2193 18.512C14.37 18.55 14.12 18.5587 11.98 18.5587C9.83933 18.5587 9.58933 18.5487 8.74067 18.5093C7.96 18.4687 7.53 18.3387 7.25 18.2287C6.87067 18.0793 6.61 17.9093 6.33067 17.6293C6.05 17.35 5.87067 17.08 5.73067 16.7093C5.62067 16.4293 5.49133 15.9993 5.45067 15.2193C5.42067 14.3793 5.41 14.12 5.41 11.99C5.41 9.85933 5.42067 9.59933 5.45067 8.74933C5.49133 7.96933 5.62067 7.54 5.73067 7.26C5.87067 6.88 6.05 6.62 6.33067 6.33933C6.61 6.06 6.87067 5.88 7.25 5.74067C7.53 5.63 7.95067 5.5 8.73067 5.46C9.58067 5.43 9.83067 5.42 11.97 5.42L12 5.44V5.44ZM12 7.892C9.73 7.892 7.892 9.732 7.892 12C7.892 14.27 9.732 16.108 12 16.108C14.27 16.108 16.108 14.268 16.108 12C16.108 9.73 14.268 7.892 12 7.892ZM12 14.6667C10.5267 14.6667 9.33333 13.4733 9.33333 12C9.33333 10.5267 10.5267 9.33333 12 9.33333C13.4733 9.33333 14.6667 10.5267 14.6667 12C14.6667 13.4733 13.4733 14.6667 12 14.6667ZM17.2307 7.73C17.2307 8.26 16.8 8.69 16.2707 8.69C15.7407 8.69 15.3107 8.25933 15.3107 7.73C15.3107 7.20067 15.7413 6.77067 16.2707 6.77067C16.7993 6.77 17.2307 7.20067 17.2307 7.73Z" fill="#F5F5F5"/>
</svg>
