<svg width="19" height="19" viewBox="0 0 19 19" fill="none" xmlns="http://www.w3.org/2000/svg">
<rect width="19" height="19" rx="2" fill="#007396"/>
<g clip-path="url(#clip0_1279:156)">
<path d="M7.63024 13.395C7.63024 13.395 7.08577 13.7121 8.01796 13.8189C9.14727 13.9484 9.7244 13.93 10.9683 13.6937C10.9683 13.6937 11.2961 13.8991 11.7526 14.0772C8.96261 15.2724 5.4393 14.0072 7.63024 13.395V13.395ZM7.28883 11.8352C7.28883 11.8352 6.67846 12.2871 7.61065 12.3838C8.81715 12.5079 9.76952 12.5186 11.4184 12.201C11.4184 12.201 11.6464 12.4319 12.0044 12.5584C8.63249 13.5446 4.87524 12.6356 7.28883 11.8352ZM10.1626 9.18828C10.8501 9.97975 9.98208 10.6923 9.98208 10.6923C9.98208 10.6923 11.7271 9.79094 10.9256 8.66281C10.1768 7.61069 9.60268 7.08819 12.711 5.28556C12.711 5.28497 7.83271 6.50334 10.1626 9.18828V9.18828ZM13.8521 14.5492C13.8521 14.5492 14.2553 14.8812 13.4086 15.1377C11.7984 15.6257 6.70636 15.7724 5.29265 15.1572C4.7844 14.9358 5.73796 14.6288 6.03721 14.5647C6.35011 14.497 6.52883 14.5095 6.52883 14.5095C5.96299 14.1111 2.87371 15.2914 4.95955 15.6299C10.6477 16.552 15.3276 15.2142 13.8521 14.5492ZM7.89208 10.2184C7.89208 10.2184 5.30215 10.8336 6.97533 11.0568C7.6813 11.1512 9.08968 11.1298 10.4013 11.02C11.4736 10.9298 12.5495 10.7368 12.5495 10.7368C12.5495 10.7368 12.1712 10.8983 11.8975 11.0853C9.2678 11.777 4.18708 11.4552 5.65008 10.7481C6.88627 10.1508 7.89208 10.2184 7.89208 10.2184ZM12.5376 12.8155C15.2112 11.4261 13.9751 10.0908 13.1123 10.2713C12.9016 10.3152 12.8066 10.3532 12.8066 10.3532C12.8066 10.3532 12.8849 10.2303 13.0351 10.1769C14.7422 9.57659 16.055 11.9468 12.4841 12.8856C12.4841 12.885 12.5257 12.8487 12.5376 12.8155ZM10.9256 2.375C10.9256 2.375 12.4064 3.85581 9.52133 6.13344C7.20808 7.96041 8.99408 9.00244 9.52074 10.1923C8.17055 8.97334 7.17958 7.90162 7.84399 6.90353C8.82011 5.43756 11.5235 4.72744 10.9256 2.375V2.375ZM8.15452 16.5799C10.7207 16.7443 14.6614 16.489 14.7546 15.2748C14.7546 15.2748 14.5753 15.735 12.6338 16.1007C10.444 16.5128 7.74186 16.4647 6.13993 16.2005C6.13993 16.1999 6.46827 16.4718 8.15452 16.5799" fill="#F0F0F0"/>
</g>
<rect x="0.5" y="0.5" width="18" height="18" rx="1.5" stroke="black" stroke-opacity="0.1"/>
<defs>
<clipPath id="clip0_1279:156">
<rect width="14.25" height="14.25" fill="white" transform="translate(2.375 2.375)"/>
</clipPath>
</defs>
</svg>
