<svg width="20" height="20" viewBox="0 0 20 20" fill="none" xmlns="http://www.w3.org/2000/svg">
<rect width="20" height="20" rx="2" fill="#007396"/>
<g clip-path="url(#clip0_1279:156)">
<path d="M8.03191 14.1C8.03191 14.1 7.45879 14.4338 8.44004 14.5463C9.62879 14.6825 10.2363 14.6631 11.5457 14.4144C11.5457 14.4144 11.8907 14.6306 12.3713 14.8181C9.43441 16.0762 5.72566 14.7444 8.03191 14.1V14.1ZM7.67254 12.4581C7.67254 12.4581 7.03004 12.9338 8.01129 13.0356C9.28129 13.1663 10.2838 13.1775 12.0194 12.8431C12.0194 12.8431 12.2594 13.0862 12.6363 13.2194C9.08691 14.2575 5.13191 13.3006 7.67254 12.4581ZM10.6975 9.67188C11.4213 10.505 10.5075 11.255 10.5075 11.255C10.5075 11.255 12.3444 10.3063 11.5007 9.11875C10.7125 8.01125 10.1082 7.46125 13.38 5.56375C13.38 5.56312 8.24504 6.84563 10.6975 9.67188V9.67188ZM14.5813 15.315C14.5813 15.315 15.0057 15.6644 14.1144 15.9344C12.4194 16.4481 7.05941 16.6025 5.57129 15.955C5.03629 15.7219 6.04004 15.3988 6.35504 15.3313C6.68441 15.26 6.87254 15.2731 6.87254 15.2731C6.27691 14.8538 3.02504 16.0962 5.22066 16.4525C11.2082 17.4231 16.1344 16.015 14.5813 15.315ZM8.30754 10.7563C8.30754 10.7563 5.58129 11.4037 7.34254 11.6387C8.08566 11.7381 9.56816 11.7156 10.9488 11.6C12.0775 11.505 13.21 11.3019 13.21 11.3019C13.21 11.3019 12.8119 11.4719 12.5238 11.6688C9.75566 12.3969 4.40754 12.0581 5.94754 11.3138C7.24879 10.685 8.30754 10.7563 8.30754 10.7563ZM13.1975 13.49C16.0119 12.0275 14.7107 10.6219 13.8025 10.8119C13.5807 10.8581 13.4807 10.8981 13.4807 10.8981C13.4807 10.8981 13.5632 10.7688 13.7213 10.7125C15.5182 10.0806 16.9 12.5756 13.1413 13.5637C13.1413 13.5631 13.185 13.525 13.1975 13.49ZM11.5007 2.5C11.5007 2.5 13.0594 4.05875 10.0225 6.45625C7.58754 8.37937 9.46754 9.47625 10.0219 10.7288C8.60066 9.44563 7.55754 8.3175 8.25691 7.26687C9.28441 5.72375 12.13 4.97625 11.5007 2.5V2.5ZM8.58379 17.4525C11.285 17.6256 15.4332 17.3569 15.5313 16.0787C15.5313 16.0787 15.3425 16.5631 13.2988 16.9481C10.9938 17.3819 8.14941 17.3312 6.46316 17.0531C6.46316 17.0525 6.80879 17.3387 8.58379 17.4525" fill="#F0F0F0"/>
</g>
<rect x="0.5" y="0.5" width="19" height="19" rx="1.5" stroke="black" stroke-opacity="0.1"/>
<defs>
<clipPath id="clip0_1279:156">
<rect width="15" height="15" fill="white" transform="translate(2.5 2.5)"/>
</clipPath>
</defs>
</svg>
