<svg width="32" height="32" viewBox="0 0 32 32" fill="none" xmlns="http://www.w3.org/2000/svg">
<rect width="32" height="32" rx="2" fill="#0D1117"/>
<path d="M6 6H26V26H6V6ZM24.3617 21.23C24.2158 20.3175 23.6217 19.5508 21.8592 18.8358C21.2458 18.5483 20.5642 18.3483 20.3617 17.8858C20.2858 17.6108 20.2742 17.4608 20.3233 17.2983C20.4483 16.76 21.0858 16.5983 21.5858 16.7483C21.9108 16.8483 22.2108 17.0983 22.3992 17.4983C23.2608 16.935 23.2608 16.935 23.8617 16.5608C23.6367 16.2108 23.525 16.06 23.3733 15.9108C22.8483 15.3233 22.1492 15.0233 21.0117 15.0492L20.4242 15.1233C19.8608 15.2608 19.3242 15.5608 18.9992 15.9608C18.0492 17.0367 18.3233 18.9117 19.4733 19.6867C20.6108 20.5367 22.2742 20.7233 22.4867 21.5242C22.6867 22.4992 21.7617 22.8117 20.8483 22.6992C20.1725 22.5492 19.7983 22.2108 19.3858 21.5858L17.8608 22.4617C18.0358 22.8617 18.2358 23.0358 18.5358 23.3858C19.9858 24.8492 23.6108 24.7742 24.2617 22.5492C24.2858 22.4742 24.4617 21.9617 24.3233 21.1742L24.3617 21.23ZM16.8758 15.1925H15.0025C15.0025 16.8075 14.995 18.4125 14.995 20.03C14.995 21.0567 15.0475 21.9992 14.88 22.2892C14.605 22.8633 13.8967 22.79 13.575 22.6892C13.245 22.5258 13.0775 22.3008 12.8833 21.9767C12.8308 21.8892 12.7917 21.8133 12.7775 21.8133L11.2567 22.7508C11.5108 23.2758 11.8817 23.7275 12.36 24.015C13.0725 24.44 14.03 24.5775 15.0325 24.3525C15.685 24.1642 16.2475 23.7767 16.5417 23.1767C16.9667 22.4017 16.8767 21.4517 16.8725 20.3883C16.8825 18.6767 16.8725 16.9642 16.8725 15.2392L16.8758 15.1925Z" fill="#F7DF1E"/>
</svg>
