<svg width="32" height="32" viewBox="0 0 32 32" fill="none" xmlns="http://www.w3.org/2000/svg">
<rect width="32" height="32" rx="5" fill="#007396"/>
<path d="M12.851 22.56C12.851 22.56 11.934 23.094 13.504 23.274C15.406 23.492 16.378 23.461 18.473 23.063C18.473 23.063 19.025 23.409 19.794 23.709C15.095 25.722 9.16104 23.591 12.851 22.56V22.56ZM12.276 19.933C12.276 19.933 11.248 20.694 12.818 20.857C14.85 21.066 16.454 21.084 19.231 20.549C19.231 20.549 19.615 20.938 20.218 21.151C14.539 22.812 8.21104 21.281 12.276 19.933ZM17.116 15.475C18.274 16.808 16.812 18.008 16.812 18.008C16.812 18.008 19.751 16.49 18.401 14.59C17.14 12.818 16.173 11.938 21.408 8.902C21.408 8.901 13.192 10.953 17.116 15.475V15.475ZM23.33 24.504C23.33 24.504 24.009 25.063 22.583 25.495C19.871 26.317 11.295 26.564 8.91404 25.528C8.05804 25.155 9.66404 24.638 10.168 24.53C10.695 24.416 10.996 24.437 10.996 24.437C10.043 23.766 4.84004 25.754 8.35304 26.324C17.933 27.877 25.815 25.624 23.33 24.504ZM13.292 17.21C13.292 17.21 8.93004 18.246 11.748 18.622C12.937 18.781 15.309 18.745 17.518 18.56C19.324 18.408 21.136 18.083 21.136 18.083C21.136 18.083 20.499 18.355 20.038 18.67C15.609 19.835 7.05204 19.293 9.51604 18.102C11.598 17.096 13.292 17.21 13.292 17.21ZM21.116 21.584C25.619 19.244 23.537 16.995 22.084 17.299C21.729 17.373 21.569 17.437 21.569 17.437C21.569 17.437 21.701 17.23 21.954 17.14C24.829 16.129 27.04 20.121 21.026 21.702C21.026 21.701 21.096 21.64 21.116 21.584ZM18.401 4C18.401 4 20.895 6.494 16.036 10.33C12.14 13.407 15.148 15.162 16.035 17.166C13.761 15.113 12.092 13.308 13.211 11.627C14.855 9.158 19.408 7.962 18.401 4V4ZM13.734 27.924C18.056 28.201 24.693 27.771 24.85 25.726C24.85 25.726 24.548 26.501 21.278 27.117C17.59 27.811 13.039 27.73 10.341 27.285C10.341 27.284 10.894 27.742 13.734 27.924" fill="#F0F0F0"/>
<rect x="0.5" y="0.5" width="31" height="31" rx="4.5" stroke="black" stroke-opacity="0.1"/>
</svg>
