<svg width="32" height="32" viewBox="0 0 32 32" fill="none" xmlns="http://www.w3.org/2000/svg">
<rect width="32" height="32" rx="5" fill="#F7DF1E"/>
<path d="M11.1741 28.2478C10.1911 28.0186 9.54712 27.6872 8.94649 27.1017C8.63362 26.7967 8.00002 25.9289 8 25.8053C7.99999 25.7841 8.45141 25.4898 9.00313 25.1514C9.55486 24.813 10.0652 24.4983 10.1373 24.452C10.2622 24.3718 10.2797 24.386 10.5138 24.7567C10.9486 25.4451 11.3498 25.7243 12.0021 25.7925C12.6685 25.8622 13.2526 25.5867 13.5273 25.073L13.6595 24.826L13.6924 14.1957H16.492L16.5145 19.0916C16.5269 21.7844 16.5183 24.2446 16.4955 24.5588C16.363 26.3849 15.4919 27.5899 13.923 28.1174C13.4694 28.2699 13.3254 28.2884 12.4616 28.3056C11.8283 28.3182 11.3918 28.2989 11.1741 28.2478Z" fill="#0D1117"/>
<path d="M22.0851 28.1179C21.1157 27.9477 20.0707 27.5037 19.469 27.0062C19.075 26.6805 18.4644 25.9751 18.2711 25.6223L18.1167 25.3407L18.2537 25.2544C18.329 25.207 18.8412 24.9113 19.3919 24.5973L20.3931 24.0264L20.5758 24.2765C21.3388 25.321 22.3223 25.8243 23.4213 25.7326C24.6162 25.6329 25.2157 25.1375 25.2128 24.2524C25.2118 23.9378 25.1801 23.8049 25.0559 23.593C24.7983 23.1535 24.3429 22.8869 22.4032 22.0406C20.4429 21.1853 19.5954 20.4114 19.1575 19.0767C18.9397 18.4128 18.9238 17.3122 19.1229 16.6811C19.4724 15.5734 20.3319 14.6992 21.5048 14.2584C22.2831 13.9659 23.6189 13.9147 24.5706 14.1409C25.4343 14.3462 26.3456 14.9998 26.9313 15.8338L27.2252 16.2522L26.5809 16.6659C26.2265 16.8934 25.7366 17.2103 25.4922 17.3702L25.0479 17.6608L24.8887 17.4097C24.6656 17.0579 24.2135 16.6773 23.8864 16.5658C23.568 16.4574 22.9867 16.4432 22.6534 16.5358C22.1067 16.6876 21.7294 17.2771 21.7919 17.8822C21.8688 18.6282 22.2191 18.9262 23.864 19.6452C24.4439 19.8988 25.0931 20.1948 25.3066 20.303C26.6714 20.9949 27.6036 21.9539 27.8986 22.9694C28.0266 23.41 28.0355 24.7422 27.9136 25.2126C27.5448 26.6359 26.5166 27.5887 24.8927 28.0122C24.1631 28.2024 22.8488 28.2519 22.0851 28.1179Z" fill="#0D1117"/>
<rect x="0.5" y="0.5" width="31" height="31" rx="4.5" stroke="black" stroke-opacity="0.1"/>
</svg>
