<svg width="19" height="19" viewBox="0 0 19 19" fill="none" xmlns="http://www.w3.org/2000/svg">
<rect width="19" height="19" rx="2" fill="#F7DF1E"/>
<path d="M6.63462 16.7722C6.05097 16.636 5.6686 16.4393 5.31198 16.0916C5.12621 15.9106 4.75001 15.3953 4.75 15.3219C4.74999 15.3093 5.01803 15.1345 5.34561 14.9336C5.6732 14.7327 5.97622 14.5459 6.019 14.5184C6.09317 14.4708 6.10359 14.4792 6.24258 14.6993C6.50074 15.108 6.73896 15.2738 7.12622 15.3143C7.52193 15.3557 7.86871 15.1921 8.03186 14.8871L8.11031 14.7404L8.12987 8.42873H9.79211L9.80548 11.3357C9.81282 12.9345 9.80775 14.3952 9.79421 14.5818C9.71554 15.666 9.19831 16.3815 8.26678 16.6947C7.99748 16.7852 7.91197 16.7963 7.3991 16.8065C7.02303 16.8139 6.76389 16.8025 6.63462 16.7722Z" fill="#0D1117"/>
<path d="M13.1131 16.695C12.5375 16.594 11.917 16.3303 11.5597 16.035C11.3258 15.8415 10.9632 15.4227 10.8485 15.2132L10.7568 15.046L10.8381 14.9948C10.8829 14.9666 11.187 14.7911 11.5139 14.6046L12.1084 14.2657L12.2169 14.4141C12.6699 15.0343 13.2539 15.3332 13.9064 15.2787C14.6158 15.2195 14.9718 14.9254 14.9701 14.3998C14.9695 14.2131 14.9507 14.1342 14.8769 14.0084C14.724 13.7474 14.4536 13.5891 13.3019 13.0866C12.138 12.5788 11.6348 12.1193 11.3748 11.3268C11.2454 10.9326 11.236 10.2791 11.3542 9.90442C11.5617 9.24668 12.072 8.72764 12.7685 8.4659C13.2306 8.29223 14.0237 8.26185 14.5888 8.39618C15.1016 8.51808 15.6427 8.90612 15.9905 9.40129L16.165 9.64977L15.7824 9.89538C15.572 10.0305 15.2811 10.2186 15.136 10.3135L14.8722 10.4861L14.7777 10.337C14.6452 10.1281 14.3768 9.90215 14.1825 9.83597C13.9935 9.77157 13.6484 9.76314 13.4505 9.81811C13.1258 9.90826 12.9019 10.2583 12.9389 10.6176C12.9846 11.0605 13.1926 11.2374 14.1692 11.6644C14.5136 11.8149 14.8991 11.9906 15.0258 12.0549C15.8361 12.4657 16.3896 13.0351 16.5648 13.6381C16.6408 13.8997 16.6461 14.6907 16.5737 14.97C16.3547 15.8151 15.7442 16.3808 14.78 16.6322C14.3469 16.7452 13.5665 16.7746 13.1131 16.695Z" fill="#0D1117"/>
<rect x="0.5" y="0.5" width="18" height="18" rx="1.5" stroke="black" stroke-opacity="0.1"/>
</svg>
