<svg width="20" height="20" viewBox="0 0 20 20" fill="none" xmlns="http://www.w3.org/2000/svg">
<rect width="20" height="20" rx="2" fill="#F7DF1E"/>
<path d="M6.98381 17.6549C6.36945 17.5116 5.96695 17.3045 5.59156 16.9386C5.39601 16.748 5.00001 16.2056 5 16.1283C4.99999 16.115 5.28213 15.9311 5.62696 15.7196C5.97179 15.5081 6.29076 15.3114 6.33579 15.2825C6.41386 15.2324 6.42483 15.2413 6.57114 15.4729C6.84288 15.9032 7.09364 16.0777 7.50129 16.1203C7.91782 16.1639 8.28285 15.9917 8.45459 15.6706L8.53716 15.5162L8.55776 8.87234H10.3075L10.3216 11.9323C10.3293 13.6152 10.3239 15.1529 10.3097 15.3492C10.2269 16.4905 9.68243 17.2437 8.70187 17.5734C8.4184 17.6687 8.32839 17.6803 7.78852 17.691C7.39266 17.6989 7.11989 17.6868 6.98381 17.6549Z" fill="#0D1117"/>
<path d="M13.8032 17.5737C13.1973 17.4673 12.5442 17.1898 12.1681 16.8789C11.9219 16.6753 11.5402 16.2344 11.4194 16.0139L11.323 15.8379L11.4086 15.784C11.4556 15.7544 11.7758 15.5695 12.1199 15.3733L12.7457 15.0165L12.8599 15.1728C13.3368 15.8256 13.9515 16.1402 14.6383 16.0829C15.3851 16.0206 15.7598 15.711 15.758 15.1577C15.7574 14.9611 15.7376 14.8781 15.6599 14.7456C15.499 14.4709 15.2143 14.3043 14.002 13.7754C12.7768 13.2408 12.2471 12.7571 11.9734 11.9229C11.8373 11.508 11.8274 10.8201 11.9518 10.4257C12.1703 9.73335 12.7074 9.18699 13.4405 8.91147C13.927 8.72866 14.7618 8.69668 15.3566 8.83809C15.8964 8.9664 16.466 9.37487 16.8321 9.89609L17.0158 10.1577L16.6131 10.4162C16.3916 10.5584 16.0854 10.7565 15.9326 10.8564L15.6549 11.038L15.5554 10.881C15.416 10.6612 15.1334 10.4233 14.929 10.3536C14.73 10.2859 14.3667 10.277 14.1584 10.3349C13.8167 10.4297 13.5809 10.7982 13.6199 11.1764C13.668 11.6426 13.887 11.8288 14.915 12.2783C15.2775 12.4367 15.6832 12.6217 15.8166 12.6894C16.6696 13.1218 17.2523 13.7212 17.4366 14.3559C17.5166 14.6313 17.5222 15.4639 17.446 15.7579C17.2155 16.6474 16.5728 17.243 15.5579 17.5076C15.102 17.6265 14.2805 17.6574 13.8032 17.5737Z" fill="#0D1117"/>
<rect x="0.5" y="0.5" width="19" height="19" rx="1.5" stroke="black" stroke-opacity="0.1"/>
</svg>
