<svg width="24" height="24" viewBox="0 0 24 24" fill="none" xmlns="http://www.w3.org/2000/svg">
<rect width="24" height="24" rx="2" fill="#2D2D2D"/>
<path d="M4 4H20V20H4V4ZM18.6893 16.184C18.5727 15.454 18.0973 14.8407 16.6873 14.2687C16.1967 14.0387 15.6513 13.8787 15.4893 13.5087C15.4287 13.2887 15.4193 13.1687 15.4587 13.0387C15.5587 12.608 16.0687 12.4787 16.4687 12.5987C16.7287 12.6787 16.9687 12.8787 17.1193 13.1987C17.8087 12.748 17.8087 12.748 18.2893 12.4487C18.1093 12.1687 18.02 12.048 17.8987 11.9287C17.4787 11.4587 16.9193 11.2187 16.0093 11.2393L15.5393 11.2987C15.0887 11.4087 14.6593 11.6487 14.3993 11.9687C13.6393 12.8293 13.8587 14.3293 14.7787 14.9493C15.6887 15.6293 17.0193 15.7787 17.1893 16.4193C17.3493 17.1993 16.6093 17.4493 15.8787 17.3593C15.338 17.2393 15.0387 16.9687 14.7087 16.4687L13.4887 17.1693C13.6287 17.4893 13.7887 17.6287 14.0287 17.9087C15.1887 19.0793 18.0887 19.0193 18.6093 17.2393C18.6287 17.1793 18.7693 16.7693 18.6587 16.1393L18.6893 16.184ZM12.7007 11.354H11.202C11.202 12.646 11.196 13.93 11.196 15.224C11.196 16.0453 11.238 16.7993 11.104 17.0313C10.884 17.4907 10.3173 17.432 10.06 17.3513C9.796 17.2207 9.662 17.0407 9.50667 16.7813C9.46467 16.7113 9.43333 16.6507 9.422 16.6507L8.20533 17.4007C8.40867 17.8207 8.70533 18.182 9.088 18.412C9.658 18.752 10.424 18.862 11.226 18.682C11.748 18.5313 12.198 18.2213 12.4333 17.7413C12.7733 17.1213 12.7013 16.3613 12.698 15.5107C12.706 14.1413 12.698 12.7713 12.698 11.3913L12.7007 11.354Z" fill="#F7DF1E"/>
</svg>
