<svg width="32" height="32" viewBox="0 0 32 32" fill="none" xmlns="http://www.w3.org/2000/svg">
<path d="M14 1.1547C15.2376 0.440169 16.7624 0.440169 18 1.1547L27.8564 6.8453C29.094 7.55983 29.8564 8.88034 29.8564 10.3094V21.6906C29.8564 23.1197 29.094 24.4402 27.8564 25.1547L18 30.8453C16.7624 31.5598 15.2376 31.5598 14 30.8453L4.14359 25.1547C2.90599 24.4402 2.14359 23.1197 2.14359 21.6906V10.3094C2.14359 8.88034 2.90599 7.55983 4.14359 6.8453L14 1.1547Z" fill="#F7DF1E"/>
<path d="M8 8H24V24H8V8ZM22.6893 20.184C22.5727 19.454 22.0973 18.8407 20.6873 18.2687C20.1967 18.0387 19.6513 17.8787 19.4893 17.5087C19.4287 17.2887 19.4193 17.1687 19.4587 17.0387C19.5587 16.608 20.0687 16.4787 20.4687 16.5987C20.7287 16.6787 20.9687 16.8787 21.1193 17.1987C21.8087 16.748 21.8087 16.748 22.2893 16.4487C22.1093 16.1687 22.02 16.048 21.8987 15.9287C21.4787 15.4587 20.9193 15.2187 20.0093 15.2393L19.5393 15.2987C19.0887 15.4087 18.6593 15.6487 18.3993 15.9687C17.6393 16.8293 17.8587 18.3293 18.7787 18.9493C19.6887 19.6293 21.0193 19.7787 21.1893 20.4193C21.3493 21.1993 20.6093 21.4493 19.8787 21.3593C19.338 21.2393 19.0387 20.9687 18.7087 20.4687L17.4887 21.1693C17.6287 21.4893 17.7887 21.6287 18.0287 21.9087C19.1887 23.0793 22.0887 23.0193 22.6093 21.2393C22.6287 21.1793 22.7693 20.7693 22.6587 20.1393L22.6893 20.184ZM16.7007 15.354H15.202C15.202 16.646 15.196 17.93 15.196 19.224C15.196 20.0453 15.238 20.7993 15.104 21.0313C14.884 21.4907 14.3173 21.432 14.06 21.3513C13.796 21.2207 13.662 21.0407 13.5067 20.7813C13.4647 20.7113 13.4333 20.6507 13.422 20.6507L12.2053 21.4007C12.4087 21.8207 12.7053 22.182 13.088 22.412C13.658 22.752 14.424 22.862 15.226 22.682C15.748 22.5313 16.198 22.2213 16.4333 21.7413C16.7733 21.1213 16.7013 20.3613 16.698 19.5107C16.706 18.1413 16.698 16.7713 16.698 15.3913L16.7007 15.354Z" fill="#1D1D1D"/>
</svg>
