<svg width="32" height="32" viewBox="0 0 32 32" fill="none" xmlns="http://www.w3.org/2000/svg">
<path d="M28 0H4C1.79086 0 0 1.79086 0 4V28C0 30.2091 1.79086 32 4 32H28C30.2091 32 32 30.2091 32 28V4C32 1.79086 30.2091 0 28 0Z" fill="#F7DF1E"/>
<path d="M12.1741 29.2478C11.1911 29.0186 10.5471 28.6872 9.94649 28.1017C9.63362 27.7967 9.00002 26.9289 9 26.8053C8.99999 26.7841 9.45141 26.4898 10.0031 26.1514C10.5549 25.813 11.0652 25.4983 11.1373 25.452C11.2622 25.3718 11.2797 25.386 11.5138 25.7567C11.9486 26.4451 12.3498 26.7243 13.0021 26.7925C13.6685 26.8622 14.2526 26.5867 14.5273 26.073L14.6595 25.826L14.6924 15.1957H17.492L17.5145 20.0916C17.5269 22.7844 17.5183 25.2446 17.4955 25.5588C17.363 27.3849 16.4919 28.5899 14.923 29.1174C14.4694 29.2699 14.3254 29.2884 13.4616 29.3056C12.8283 29.3182 12.3918 29.2989 12.1741 29.2478Z" fill="#1D1D1D"/>
<path d="M23.0851 29.1179C22.1157 28.9477 21.0707 28.5037 20.469 28.0062C20.075 27.6805 19.4644 26.9751 19.2711 26.6223L19.1167 26.3407L19.2537 26.2544C19.329 26.207 19.8412 25.9113 20.3919 25.5973L21.3931 25.0264L21.5758 25.2765C22.3388 26.321 23.3223 26.8243 24.4213 26.7326C25.6162 26.6329 26.2157 26.1375 26.2128 25.2524C26.2118 24.9378 26.1801 24.8049 26.0559 24.593C25.7983 24.1535 25.3429 23.8869 23.4032 23.0406C21.4429 22.1853 20.5954 21.4114 20.1575 20.0767C19.9397 19.4128 19.9238 18.3122 20.1229 17.6811C20.4724 16.5734 21.3319 15.6992 22.5048 15.2584C23.2831 14.9659 24.6189 14.9147 25.5706 15.1409C26.4343 15.3462 27.3456 15.9998 27.9313 16.8338L28.2252 17.2522L27.5809 17.6659C27.2265 17.8934 26.7366 18.2103 26.4922 18.3702L26.0479 18.6608L25.8887 18.4097C25.6656 18.0579 25.2135 17.6773 24.8864 17.5658C24.568 17.4574 23.9867 17.4432 23.6534 17.5358C23.1067 17.6876 22.7294 18.2771 22.7919 18.8822C22.8688 19.6282 23.2191 19.9262 24.864 20.6452C25.4439 20.8988 26.0931 21.1948 26.3066 21.303C27.6714 21.9949 28.6036 22.9539 28.8986 23.9694C29.0266 24.41 29.0355 25.7422 28.9136 26.2126C28.5448 27.6359 27.5166 28.5887 25.8927 29.0122C25.1631 29.2024 23.8488 29.2519 23.0851 29.1179Z" fill="#1D1D1D"/>
</svg>
