<svg width="135" height="28" viewBox="0 0 135 28" fill="none" xmlns="http://www.w3.org/2000/svg">
<rect width="135" height="28" rx="2" fill="#0A66C2"/>
<path fill-rule="evenodd" clip-rule="evenodd" d="M20.6881 21.9999H23.9991H24V16.1344C24 13.2558 23.3796 11.0443 20.0247 11.0443C18.4102 11.0443 17.3295 11.9308 16.8851 12.7706H16.8423V11.314H13.6616V21.9999H16.9727V16.712C16.9727 15.3179 17.2363 13.9696 18.9627 13.9696C20.6629 13.9696 20.6881 15.5643 20.6881 16.8035V21.9999ZM8.00006 7.92494C8.00006 8.98775 8.85624 9.8518 9.92203 9.8518C10.9832 9.8518 11.8449 8.98775 11.8449 7.92494C11.8449 6.86306 10.9841 5.99994 9.92203 5.99994C8.85717 5.99994 8.00006 6.86306 8.00006 7.92494ZM8.26185 11.314V21.9999H11.5822V11.314H8.26185Z" fill="#F5F5F5"/>
<path d="M35.402 19.168C34.7113 19.168 34.1327 19.0467 33.666 18.804C33.1993 18.5613 32.7933 18.2253 32.448 17.796L33.428 16.9C33.6987 17.2267 33.9973 17.4833 34.324 17.67C34.66 17.8473 35.0473 17.936 35.486 17.936C35.934 17.936 36.2653 17.852 36.48 17.684C36.704 17.5067 36.816 17.264 36.816 16.956C36.816 16.7227 36.7367 16.5267 36.578 16.368C36.4287 16.2 36.1627 16.0927 35.78 16.046L35.108 15.962C34.3613 15.8687 33.7733 15.654 33.344 15.318C32.924 14.9727 32.714 14.464 32.714 13.792C32.714 13.4373 32.7793 13.1247 32.91 12.854C33.0407 12.574 33.2227 12.3407 33.456 12.154C33.6987 11.958 33.9833 11.8087 34.31 11.706C34.646 11.6033 35.0147 11.552 35.416 11.552C36.0693 11.552 36.6013 11.6547 37.012 11.86C37.432 12.0653 37.8053 12.35 38.132 12.714L37.194 13.61C37.0073 13.386 36.76 13.1947 36.452 13.036C36.1533 12.868 35.808 12.784 35.416 12.784C34.996 12.784 34.6833 12.868 34.478 13.036C34.282 13.204 34.184 13.4233 34.184 13.694C34.184 13.974 34.2727 14.184 34.45 14.324C34.6273 14.464 34.912 14.5667 35.304 14.632L35.976 14.716C36.7787 14.8373 37.362 15.0753 37.726 15.43C38.0993 15.7753 38.286 16.242 38.286 16.83C38.286 17.1847 38.216 17.5067 38.076 17.796C37.9453 18.076 37.754 18.3187 37.502 18.524C37.25 18.7293 36.9467 18.888 36.592 19C36.2373 19.112 35.8407 19.168 35.402 19.168ZM41.9303 19C41.3983 19 40.9969 18.8647 40.7263 18.594C40.4556 18.314 40.3203 17.922 40.3203 17.418V12.966H39.1863V11.72H39.8023C40.0543 11.72 40.2269 11.664 40.3203 11.552C40.4229 11.44 40.4743 11.258 40.4743 11.006V9.732H41.8463V11.72H43.3723V12.966H41.8463V17.754H43.2603V19H41.9303ZM47.8289 19.168C47.3062 19.168 46.8395 19.0793 46.4289 18.902C46.0182 18.7247 45.6682 18.4727 45.3789 18.146C45.0895 17.81 44.8655 17.4087 44.7069 16.942C44.5575 16.466 44.4829 15.9387 44.4829 15.36C44.4829 14.7813 44.5575 14.2587 44.7069 13.792C44.8655 13.316 45.0895 12.9147 45.3789 12.588C45.6682 12.252 46.0182 11.9953 46.4289 11.818C46.8395 11.6407 47.3062 11.552 47.8289 11.552C48.3609 11.552 48.8275 11.6453 49.2289 11.832C49.6395 12.0187 49.9802 12.28 50.2509 12.616C50.5215 12.9427 50.7222 13.3253 50.8529 13.764C50.9929 14.2027 51.0629 14.674 51.0629 15.178V15.752H46.0649V15.99C46.0649 16.55 46.2282 17.012 46.5549 17.376C46.8909 17.7307 47.3669 17.908 47.9829 17.908C48.4309 17.908 48.8089 17.81 49.1169 17.614C49.4249 17.418 49.6862 17.152 49.9009 16.816L50.7969 17.698C50.5262 18.146 50.1342 18.5053 49.6209 18.776C49.1075 19.0373 48.5102 19.168 47.8289 19.168ZM47.8289 12.742C47.5675 12.742 47.3249 12.7887 47.1009 12.882C46.8862 12.9753 46.6995 13.106 46.5409 13.274C46.3915 13.442 46.2749 13.6427 46.1909 13.876C46.1069 14.1093 46.0649 14.366 46.0649 14.646V14.744H49.4529V14.604C49.4529 14.044 49.3082 13.596 49.0189 13.26C48.7295 12.9147 48.3329 12.742 47.8289 12.742ZM52.7522 19V11.72H54.2782V12.924H54.3482C54.5068 12.532 54.7448 12.2053 55.0622 11.944C55.3888 11.6827 55.8322 11.552 56.3922 11.552C57.1388 11.552 57.7175 11.7993 58.1282 12.294C58.5482 12.7793 58.7582 13.4747 58.7582 14.38V19H57.2322V14.576C57.2322 13.4373 56.7748 12.868 55.8602 12.868C55.6642 12.868 55.4682 12.896 55.2722 12.952C55.0855 12.9987 54.9175 13.0733 54.7682 13.176C54.6188 13.2787 54.4975 13.4093 54.4042 13.568C54.3202 13.7267 54.2782 13.9133 54.2782 14.128V19H52.7522ZM61.6433 10.418C61.3259 10.418 61.0926 10.3433 60.9433 10.194C60.8033 10.0447 60.7333 9.85333 60.7333 9.62V9.382C60.7333 9.14867 60.8033 8.95733 60.9433 8.808C61.0926 8.65867 61.3259 8.584 61.6433 8.584C61.9606 8.584 62.1893 8.65867 62.3293 8.808C62.4693 8.95733 62.5393 9.14867 62.5393 9.382V9.62C62.5393 9.85333 62.4693 10.0447 62.3293 10.194C62.1893 10.3433 61.9606 10.418 61.6433 10.418ZM60.8733 11.72H62.3993V19H60.8733V11.72ZM67.4343 19.168C66.9303 19.168 66.4683 19.0793 66.0483 18.902C65.6377 18.7247 65.2877 18.4727 64.9983 18.146C64.709 17.81 64.485 17.4087 64.3263 16.942C64.1677 16.466 64.0883 15.9387 64.0883 15.36C64.0883 14.7813 64.1677 14.2587 64.3263 13.792C64.485 13.316 64.709 12.9147 64.9983 12.588C65.2877 12.252 65.6377 11.9953 66.0483 11.818C66.4683 11.6407 66.9303 11.552 67.4343 11.552C67.9383 11.552 68.3957 11.6407 68.8063 11.818C69.2263 11.9953 69.581 12.252 69.8703 12.588C70.1597 12.9147 70.3837 13.316 70.5423 13.792C70.701 14.2587 70.7803 14.7813 70.7803 15.36C70.7803 15.9387 70.701 16.466 70.5423 16.942C70.3837 17.4087 70.1597 17.81 69.8703 18.146C69.581 18.4727 69.2263 18.7247 68.8063 18.902C68.3957 19.0793 67.9383 19.168 67.4343 19.168ZM67.4343 17.908C67.957 17.908 68.377 17.7493 68.6943 17.432C69.0117 17.1053 69.1703 16.62 69.1703 15.976V14.744C69.1703 14.1 69.0117 13.6193 68.6943 13.302C68.377 12.9753 67.957 12.812 67.4343 12.812C66.9117 12.812 66.4917 12.9753 66.1743 13.302C65.857 13.6193 65.6983 14.1 65.6983 14.744V15.976C65.6983 16.62 65.857 17.1053 66.1743 17.432C66.4917 17.7493 66.9117 17.908 67.4343 17.908ZM81.1233 19C80.7219 19 80.4139 18.888 80.1993 18.664C79.9846 18.4307 79.8539 18.1367 79.8073 17.782H79.7373C79.5973 18.2393 79.3406 18.5847 78.9673 18.818C78.5939 19.0513 78.1413 19.168 77.6093 19.168C76.8533 19.168 76.2699 18.972 75.8593 18.58C75.4579 18.188 75.2573 17.6607 75.2573 16.998C75.2573 16.27 75.5186 15.724 76.0413 15.36C76.5733 14.996 77.3479 14.814 78.3653 14.814H79.6813V14.198C79.6813 13.75 79.5599 13.4047 79.3173 13.162C79.0746 12.9193 78.6966 12.798 78.1833 12.798C77.7539 12.798 77.4039 12.8913 77.1333 13.078C76.8626 13.2647 76.6339 13.5027 76.4473 13.792L75.5373 12.966C75.7799 12.5553 76.1206 12.2193 76.5593 11.958C76.9979 11.6873 77.5719 11.552 78.2813 11.552C79.2239 11.552 79.9473 11.7713 80.4513 12.21C80.9553 12.6487 81.2073 13.2787 81.2073 14.1V17.754H81.9773V19H81.1233ZM78.0433 18.006C78.5193 18.006 78.9113 17.9033 79.2193 17.698C79.5273 17.4833 79.6813 17.1987 79.6813 16.844V15.794H78.3933C77.3386 15.794 76.8113 16.1207 76.8113 16.774V17.026C76.8113 17.3527 76.9186 17.6 77.1333 17.768C77.3573 17.9267 77.6606 18.006 78.0433 18.006ZM85.0269 19C84.5042 19 84.1122 18.8693 83.8509 18.608C83.5989 18.3373 83.4729 17.964 83.4729 17.488V8.64H84.9989V17.754H86.0069V19H85.0269ZM87.465 19V11.72H88.991V12.924H89.061C89.1357 12.7373 89.2244 12.56 89.327 12.392C89.439 12.224 89.5697 12.0793 89.719 11.958C89.8777 11.8273 90.0597 11.7293 90.265 11.664C90.4797 11.5893 90.727 11.552 91.007 11.552C91.5017 11.552 91.9404 11.6733 92.323 11.916C92.7057 12.1587 92.9857 12.532 93.163 13.036H93.205C93.3357 12.6253 93.5877 12.2753 93.961 11.986C94.3344 11.6967 94.815 11.552 95.403 11.552C96.131 11.552 96.6957 11.7993 97.097 12.294C97.4984 12.7793 97.699 13.4747 97.699 14.38V19H96.173V14.562C96.173 14.002 96.0657 13.582 95.851 13.302C95.6364 13.0127 95.2957 12.868 94.829 12.868C94.633 12.868 94.4464 12.896 94.269 12.952C94.0917 12.9987 93.933 13.0733 93.793 13.176C93.6624 13.2787 93.555 13.4093 93.471 13.568C93.387 13.7267 93.345 13.9087 93.345 14.114V19H91.819V14.562C91.819 13.4327 91.3757 12.868 90.489 12.868C90.3024 12.868 90.1157 12.896 89.929 12.952C89.7517 12.9987 89.593 13.0733 89.453 13.176C89.313 13.2787 89.201 13.4093 89.117 13.568C89.033 13.7267 88.991 13.9087 88.991 14.114V19H87.465ZM102.667 19.168C102.144 19.168 101.677 19.0793 101.267 18.902C100.856 18.7247 100.506 18.4727 100.217 18.146C99.9274 17.81 99.7034 17.4087 99.5448 16.942C99.3954 16.466 99.3208 15.9387 99.3208 15.36C99.3208 14.7813 99.3954 14.2587 99.5448 13.792C99.7034 13.316 99.9274 12.9147 100.217 12.588C100.506 12.252 100.856 11.9953 101.267 11.818C101.677 11.6407 102.144 11.552 102.667 11.552C103.199 11.552 103.665 11.6453 104.067 11.832C104.477 12.0187 104.818 12.28 105.089 12.616C105.359 12.9427 105.56 13.3253 105.691 13.764C105.831 14.2027 105.901 14.674 105.901 15.178V15.752H100.903V15.99C100.903 16.55 101.066 17.012 101.393 17.376C101.729 17.7307 102.205 17.908 102.821 17.908C103.269 17.908 103.647 17.81 103.955 17.614C104.263 17.418 104.524 17.152 104.739 16.816L105.635 17.698C105.364 18.146 104.972 18.5053 104.459 18.776C103.945 19.0373 103.348 19.168 102.667 19.168ZM102.667 12.742C102.405 12.742 102.163 12.7887 101.939 12.882C101.724 12.9753 101.537 13.106 101.379 13.274C101.229 13.442 101.113 13.6427 101.029 13.876C100.945 14.1093 100.903 14.366 100.903 14.646V14.744H104.291V14.604C104.291 14.044 104.146 13.596 103.857 13.26C103.567 12.9147 103.171 12.742 102.667 12.742ZM108.36 10.418C108.043 10.418 107.809 10.3433 107.66 10.194C107.52 10.0447 107.45 9.85333 107.45 9.62V9.382C107.45 9.14867 107.52 8.95733 107.66 8.808C107.809 8.65867 108.043 8.584 108.36 8.584C108.677 8.584 108.906 8.65867 109.046 8.808C109.186 8.95733 109.256 9.14867 109.256 9.382V9.62C109.256 9.85333 109.186 10.0447 109.046 10.194C108.906 10.3433 108.677 10.418 108.36 10.418ZM107.59 11.72H109.116V19H107.59V11.72ZM115.873 17.796H115.803C115.644 18.2253 115.383 18.5613 115.019 18.804C114.664 19.0467 114.244 19.168 113.759 19.168C112.835 19.168 112.121 18.8367 111.617 18.174C111.113 17.502 110.861 16.564 110.861 15.36C110.861 14.156 111.113 13.2227 111.617 12.56C112.121 11.888 112.835 11.552 113.759 11.552C114.244 11.552 114.664 11.6733 115.019 11.916C115.383 12.1493 115.644 12.4853 115.803 12.924H115.873V8.64H117.399V19H115.873V17.796ZM114.221 17.852C114.688 17.852 115.08 17.74 115.397 17.516C115.714 17.2827 115.873 16.9793 115.873 16.606V14.114C115.873 13.7407 115.714 13.442 115.397 13.218C115.08 12.9847 114.688 12.868 114.221 12.868C113.689 12.868 113.264 13.0407 112.947 13.386C112.63 13.722 112.471 14.17 112.471 14.73V15.99C112.471 16.55 112.63 17.0027 112.947 17.348C113.264 17.684 113.689 17.852 114.221 17.852ZM124.914 19C124.513 19 124.205 18.888 123.99 18.664C123.776 18.4307 123.645 18.1367 123.598 17.782H123.528C123.388 18.2393 123.132 18.5847 122.758 18.818C122.385 19.0513 121.932 19.168 121.4 19.168C120.644 19.168 120.061 18.972 119.65 18.58C119.249 18.188 119.048 17.6607 119.048 16.998C119.048 16.27 119.31 15.724 119.832 15.36C120.364 14.996 121.139 14.814 122.156 14.814H123.472V14.198C123.472 13.75 123.351 13.4047 123.108 13.162C122.866 12.9193 122.488 12.798 121.974 12.798C121.545 12.798 121.195 12.8913 120.924 13.078C120.654 13.2647 120.425 13.5027 120.238 13.792L119.328 12.966C119.571 12.5553 119.912 12.2193 120.35 11.958C120.789 11.6873 121.363 11.552 122.072 11.552C123.015 11.552 123.738 11.7713 124.242 12.21C124.746 12.6487 124.998 13.2787 124.998 14.1V17.754H125.768V19H124.914ZM121.834 18.006C122.31 18.006 122.702 17.9033 123.01 17.698C123.318 17.4833 123.472 17.1987 123.472 16.844V15.794H122.184C121.13 15.794 120.602 16.1207 120.602 16.774V17.026C120.602 17.3527 120.71 17.6 120.924 17.768C121.148 17.9267 121.452 18.006 121.834 18.006Z" fill="#F5F5F5"/>
</svg>
