<svg width="24" height="24" viewBox="0 0 24 24" fill="none" xmlns="http://www.w3.org/2000/svg">
<rect width="24" height="24" rx="2" fill="#2D2D2D"/>
<path fill-rule="evenodd" clip-rule="evenodd" d="M16.6881 19.9999H19.9991H20V14.1344C20 11.2558 19.3796 9.04432 16.0247 9.04432C14.4102 9.04432 13.3295 9.93077 12.8851 10.7706H12.8423V9.31398H9.66164V19.9999H12.9727V14.712C12.9727 13.3179 13.2363 11.9696 14.9627 11.9696C16.6629 11.9696 16.6881 13.5643 16.6881 14.8035V19.9999ZM4.00006 5.92494C4.00006 6.98775 4.85624 7.8518 5.92203 7.8518C6.98317 7.8518 7.84494 6.98775 7.84494 5.92494C7.84494 4.86306 6.9841 3.99994 5.92203 3.99994C4.85717 3.99994 4.00006 4.86306 4.00006 5.92494ZM4.26185 9.31398V19.9999H7.58222V9.31398H4.26185Z" fill="#F5F5F5"/>
</svg>
