<svg width="119" height="28" viewBox="0 0 119 28" fill="none" xmlns="http://www.w3.org/2000/svg">
<rect width="119" height="28" rx="2" fill="#2D2D2D"/>
<path d="M21.6313 19.6347H19.262V15.922C19.262 15.0367 19.244 13.8973 18.0273 13.8973C16.792 13.8973 16.6033 14.8607 16.6033 15.8567V19.6347H14.234V12H16.51V13.0407H16.5407C16.8587 12.4407 17.632 11.8073 18.7873 11.8073C21.188 11.8073 21.632 13.3873 21.632 15.444V19.6347H21.6313ZM11.558 10.9553C10.7953 10.9553 10.1827 10.338 10.1827 9.57867C10.1827 8.82 10.796 8.20333 11.558 8.20333C12.318 8.20333 12.934 8.82 12.934 9.57867C12.934 10.338 12.3173 10.9553 11.558 10.9553ZM12.746 19.6347H10.37V12H12.746V19.6347ZM22.8167 6H9.18067C8.528 6 8 6.516 8 7.15267V20.8473C8 21.4847 8.528 22 9.18067 22H22.8147C23.4667 22 24 21.4847 24 20.8473V7.15267C24 6.516 23.4667 6 22.8147 6H22.8167Z" fill="#0A66C2"/>
<path d="M32.916 19.144C32.324 19.144 31.828 19.04 31.428 18.832C31.028 18.624 30.68 18.336 30.384 17.968L31.224 17.2C31.456 17.48 31.712 17.7 31.992 17.86C32.28 18.012 32.612 18.088 32.988 18.088C33.372 18.088 33.656 18.016 33.84 17.872C34.032 17.72 34.128 17.512 34.128 17.248C34.128 17.048 34.06 16.88 33.924 16.744C33.796 16.6 33.568 16.508 33.24 16.468L32.664 16.396C32.024 16.316 31.52 16.132 31.152 15.844C30.792 15.548 30.612 15.112 30.612 14.536C30.612 14.232 30.668 13.964 30.78 13.732C30.892 13.492 31.048 13.292 31.248 13.132C31.456 12.964 31.7 12.836 31.98 12.748C32.268 12.66 32.584 12.616 32.928 12.616C33.488 12.616 33.944 12.704 34.296 12.88C34.656 13.056 34.976 13.3 35.256 13.612L34.452 14.38C34.292 14.188 34.08 14.024 33.816 13.888C33.56 13.744 33.264 13.672 32.928 13.672C32.568 13.672 32.3 13.744 32.124 13.888C31.956 14.032 31.872 14.22 31.872 14.452C31.872 14.692 31.948 14.872 32.1 14.992C32.252 15.112 32.496 15.2 32.832 15.256L33.408 15.328C34.096 15.432 34.596 15.636 34.908 15.94C35.228 16.236 35.388 16.636 35.388 17.14C35.388 17.444 35.328 17.72 35.208 17.968C35.096 18.208 34.932 18.416 34.716 18.592C34.5 18.768 34.24 18.904 33.936 19C33.632 19.096 33.292 19.144 32.916 19.144ZM38.5117 19C38.0557 19 37.7117 18.884 37.4797 18.652C37.2477 18.412 37.1317 18.076 37.1317 17.644V13.828H36.1597V12.76H36.6877C36.9037 12.76 37.0517 12.712 37.1317 12.616C37.2197 12.52 37.2637 12.364 37.2637 12.148V11.056H38.4397V12.76H39.7477V13.828H38.4397V17.932H39.6517V19H38.5117ZM43.5676 19.144C43.1196 19.144 42.7196 19.068 42.3676 18.916C42.0156 18.764 41.7156 18.548 41.4676 18.268C41.2196 17.98 41.0276 17.636 40.8916 17.236C40.7636 16.828 40.6996 16.376 40.6996 15.88C40.6996 15.384 40.7636 14.936 40.8916 14.536C41.0276 14.128 41.2196 13.784 41.4676 13.504C41.7156 13.216 42.0156 12.996 42.3676 12.844C42.7196 12.692 43.1196 12.616 43.5676 12.616C44.0236 12.616 44.4236 12.696 44.7676 12.856C45.1196 13.016 45.4116 13.24 45.6436 13.528C45.8756 13.808 46.0476 14.136 46.1596 14.512C46.2796 14.888 46.3396 15.292 46.3396 15.724V16.216H42.0556V16.42C42.0556 16.9 42.1956 17.296 42.4756 17.608C42.7636 17.912 43.1716 18.064 43.6996 18.064C44.0836 18.064 44.4076 17.98 44.6716 17.812C44.9356 17.644 45.1596 17.416 45.3436 17.128L46.1116 17.884C45.8796 18.268 45.5436 18.576 45.1036 18.808C44.6636 19.032 44.1516 19.144 43.5676 19.144ZM43.5676 13.636C43.3436 13.636 43.1356 13.676 42.9436 13.756C42.7596 13.836 42.5996 13.948 42.4636 14.092C42.3356 14.236 42.2356 14.408 42.1636 14.608C42.0916 14.808 42.0556 15.028 42.0556 15.268V15.352H44.9596V15.232C44.9596 14.752 44.8356 14.368 44.5876 14.08C44.3396 13.784 43.9996 13.636 43.5676 13.636ZM47.7876 19V12.76H49.0956V13.792H49.1556C49.2916 13.456 49.4956 13.176 49.7676 12.952C50.0476 12.728 50.4276 12.616 50.9076 12.616C51.5476 12.616 52.0436 12.828 52.3956 13.252C52.7556 13.668 52.9356 14.264 52.9356 15.04V19H51.6276V15.208C51.6276 14.232 51.2356 13.744 50.4516 13.744C50.2836 13.744 50.1156 13.768 49.9476 13.816C49.7876 13.856 49.6436 13.92 49.5156 14.008C49.3876 14.096 49.2836 14.208 49.2036 14.344C49.1316 14.48 49.0956 14.64 49.0956 14.824V19H47.7876ZM55.4085 11.644C55.1365 11.644 54.9365 11.58 54.8085 11.452C54.6885 11.324 54.6285 11.16 54.6285 10.96V10.756C54.6285 10.556 54.6885 10.392 54.8085 10.264C54.9365 10.136 55.1365 10.072 55.4085 10.072C55.6805 10.072 55.8765 10.136 55.9965 10.264C56.1165 10.392 56.1765 10.556 56.1765 10.756V10.96C56.1765 11.16 56.1165 11.324 55.9965 11.452C55.8765 11.58 55.6805 11.644 55.4085 11.644ZM54.7485 12.76H56.0565V19H54.7485V12.76ZM60.3723 19.144C59.9403 19.144 59.5443 19.068 59.1843 18.916C58.8323 18.764 58.5323 18.548 58.2843 18.268C58.0363 17.98 57.8443 17.636 57.7083 17.236C57.5723 16.828 57.5043 16.376 57.5043 15.88C57.5043 15.384 57.5723 14.936 57.7083 14.536C57.8443 14.128 58.0363 13.784 58.2843 13.504C58.5323 13.216 58.8323 12.996 59.1843 12.844C59.5443 12.692 59.9403 12.616 60.3723 12.616C60.8043 12.616 61.1963 12.692 61.5483 12.844C61.9083 12.996 62.2123 13.216 62.4603 13.504C62.7083 13.784 62.9003 14.128 63.0363 14.536C63.1723 14.936 63.2403 15.384 63.2403 15.88C63.2403 16.376 63.1723 16.828 63.0363 17.236C62.9003 17.636 62.7083 17.98 62.4603 18.268C62.2123 18.548 61.9083 18.764 61.5483 18.916C61.1963 19.068 60.8043 19.144 60.3723 19.144ZM60.3723 18.064C60.8203 18.064 61.1803 17.928 61.4523 17.656C61.7243 17.376 61.8603 16.96 61.8603 16.408V15.352C61.8603 14.8 61.7243 14.388 61.4523 14.116C61.1803 13.836 60.8203 13.696 60.3723 13.696C59.9243 13.696 59.5643 13.836 59.2923 14.116C59.0203 14.388 58.8843 14.8 58.8843 15.352V16.408C58.8843 16.96 59.0203 17.376 59.2923 17.656C59.5643 17.928 59.9243 18.064 60.3723 18.064ZM72.1057 19C71.7617 19 71.4977 18.904 71.3137 18.712C71.1297 18.512 71.0177 18.26 70.9777 17.956H70.9177C70.7977 18.348 70.5777 18.644 70.2577 18.844C69.9377 19.044 69.5497 19.144 69.0937 19.144C68.4457 19.144 67.9457 18.976 67.5937 18.64C67.2497 18.304 67.0777 17.852 67.0777 17.284C67.0777 16.66 67.3017 16.192 67.7497 15.88C68.2057 15.568 68.8697 15.412 69.7417 15.412H70.8697V14.884C70.8697 14.5 70.7657 14.204 70.5577 13.996C70.3497 13.788 70.0257 13.684 69.5857 13.684C69.2177 13.684 68.9177 13.764 68.6857 13.924C68.4537 14.084 68.2577 14.288 68.0977 14.536L67.3177 13.828C67.5257 13.476 67.8177 13.188 68.1937 12.964C68.5697 12.732 69.0617 12.616 69.6697 12.616C70.4777 12.616 71.0977 12.804 71.5297 13.18C71.9617 13.556 72.1777 14.096 72.1777 14.8V17.932H72.8377V19H72.1057ZM69.4657 18.148C69.8737 18.148 70.2097 18.06 70.4737 17.884C70.7377 17.7 70.8697 17.456 70.8697 17.152V16.252H69.7657C68.8617 16.252 68.4097 16.532 68.4097 17.092V17.308C68.4097 17.588 68.5017 17.8 68.6857 17.944C68.8777 18.08 69.1377 18.148 69.4657 18.148ZM75.4516 19C75.0036 19 74.6676 18.888 74.4436 18.664C74.2276 18.432 74.1196 18.112 74.1196 17.704V10.12H75.4276V17.932H76.2916V19H75.4516ZM77.5415 19V12.76H78.8495V13.792H78.9095C78.9735 13.632 79.0495 13.48 79.1375 13.336C79.2335 13.192 79.3455 13.068 79.4735 12.964C79.6095 12.852 79.7655 12.768 79.9415 12.712C80.1255 12.648 80.3375 12.616 80.5775 12.616C81.0015 12.616 81.3775 12.72 81.7055 12.928C82.0335 13.136 82.2735 13.456 82.4255 13.888H82.4615C82.5735 13.536 82.7895 13.236 83.1095 12.988C83.4295 12.74 83.8415 12.616 84.3455 12.616C84.9695 12.616 85.4535 12.828 85.7975 13.252C86.1415 13.668 86.3135 14.264 86.3135 15.04V19H85.0055V15.196C85.0055 14.716 84.9135 14.356 84.7295 14.116C84.5455 13.868 84.2535 13.744 83.8535 13.744C83.6855 13.744 83.5255 13.768 83.3735 13.816C83.2215 13.856 83.0855 13.92 82.9655 14.008C82.8535 14.096 82.7615 14.208 82.6895 14.344C82.6175 14.48 82.5815 14.636 82.5815 14.812V19H81.2735V15.196C81.2735 14.228 80.8935 13.744 80.1335 13.744C79.9735 13.744 79.8135 13.768 79.6535 13.816C79.5015 13.856 79.3655 13.92 79.2455 14.008C79.1255 14.096 79.0295 14.208 78.9575 14.344C78.8855 14.48 78.8495 14.636 78.8495 14.812V19H77.5415ZM90.5715 19.144C90.1235 19.144 89.7235 19.068 89.3715 18.916C89.0195 18.764 88.7195 18.548 88.4715 18.268C88.2235 17.98 88.0315 17.636 87.8955 17.236C87.7675 16.828 87.7035 16.376 87.7035 15.88C87.7035 15.384 87.7675 14.936 87.8955 14.536C88.0315 14.128 88.2235 13.784 88.4715 13.504C88.7195 13.216 89.0195 12.996 89.3715 12.844C89.7235 12.692 90.1235 12.616 90.5715 12.616C91.0275 12.616 91.4275 12.696 91.7715 12.856C92.1235 13.016 92.4155 13.24 92.6475 13.528C92.8795 13.808 93.0515 14.136 93.1635 14.512C93.2835 14.888 93.3435 15.292 93.3435 15.724V16.216H89.0595V16.42C89.0595 16.9 89.1995 17.296 89.4795 17.608C89.7675 17.912 90.1755 18.064 90.7035 18.064C91.0875 18.064 91.4115 17.98 91.6755 17.812C91.9395 17.644 92.1635 17.416 92.3475 17.128L93.1155 17.884C92.8835 18.268 92.5475 18.576 92.1075 18.808C91.6675 19.032 91.1555 19.144 90.5715 19.144ZM90.5715 13.636C90.3475 13.636 90.1395 13.676 89.9475 13.756C89.7635 13.836 89.6035 13.948 89.4675 14.092C89.3395 14.236 89.2395 14.408 89.1675 14.608C89.0955 14.808 89.0595 15.028 89.0595 15.268V15.352H91.9635V15.232C91.9635 14.752 91.8395 14.368 91.5915 14.08C91.3435 13.784 91.0035 13.636 90.5715 13.636ZM95.4515 11.644C95.1795 11.644 94.9795 11.58 94.8515 11.452C94.7315 11.324 94.6715 11.16 94.6715 10.96V10.756C94.6715 10.556 94.7315 10.392 94.8515 10.264C94.9795 10.136 95.1795 10.072 95.4515 10.072C95.7235 10.072 95.9195 10.136 96.0395 10.264C96.1595 10.392 96.2195 10.556 96.2195 10.756V10.96C96.2195 11.16 96.1595 11.324 96.0395 11.452C95.9195 11.58 95.7235 11.644 95.4515 11.644ZM94.7915 12.76H96.0995V19H94.7915V12.76ZM101.891 17.968H101.831C101.695 18.336 101.471 18.624 101.159 18.832C100.855 19.04 100.495 19.144 100.079 19.144C99.2873 19.144 98.6753 18.86 98.2433 18.292C97.8113 17.716 97.5953 16.912 97.5953 15.88C97.5953 14.848 97.8113 14.048 98.2433 13.48C98.6753 12.904 99.2873 12.616 100.079 12.616C100.495 12.616 100.855 12.72 101.159 12.928C101.471 13.128 101.695 13.416 101.831 13.792H101.891V10.12H103.199V19H101.891V17.968ZM100.475 18.016C100.875 18.016 101.211 17.92 101.483 17.728C101.755 17.528 101.891 17.268 101.891 16.948V14.812C101.891 14.492 101.755 14.236 101.483 14.044C101.211 13.844 100.875 13.744 100.475 13.744C100.019 13.744 99.6553 13.892 99.3833 14.188C99.1113 14.476 98.9753 14.86 98.9753 15.34V16.42C98.9753 16.9 99.1113 17.288 99.3833 17.584C99.6553 17.872 100.019 18.016 100.475 18.016ZM109.641 19C109.297 19 109.033 18.904 108.849 18.712C108.665 18.512 108.553 18.26 108.513 17.956H108.453C108.333 18.348 108.113 18.644 107.793 18.844C107.473 19.044 107.085 19.144 106.629 19.144C105.981 19.144 105.481 18.976 105.129 18.64C104.785 18.304 104.613 17.852 104.613 17.284C104.613 16.66 104.837 16.192 105.285 15.88C105.741 15.568 106.405 15.412 107.277 15.412H108.405V14.884C108.405 14.5 108.301 14.204 108.093 13.996C107.885 13.788 107.561 13.684 107.121 13.684C106.753 13.684 106.453 13.764 106.221 13.924C105.989 14.084 105.793 14.288 105.633 14.536L104.853 13.828C105.061 13.476 105.353 13.188 105.729 12.964C106.105 12.732 106.597 12.616 107.205 12.616C108.013 12.616 108.633 12.804 109.065 13.18C109.497 13.556 109.713 14.096 109.713 14.8V17.932H110.373V19H109.641ZM107.001 18.148C107.409 18.148 107.745 18.06 108.009 17.884C108.273 17.7 108.405 17.456 108.405 17.152V16.252H107.301C106.397 16.252 105.945 16.532 105.945 17.092V17.308C105.945 17.588 106.037 17.8 106.221 17.944C106.413 18.08 106.673 18.148 107.001 18.148Z" fill="#F5F5F5"/>
</svg>
