<svg width="24" height="24" viewBox="0 0 24 24" fill="none" xmlns="http://www.w3.org/2000/svg">
<rect width="24" height="24" rx="2" fill="#2D2D2D"/>
<g clip-path="url(#clip0_1121:422)">
<path d="M12.336 4C12.2326 4 12.126 4.00533 12.016 4.014C9.19862 4.236 9.94595 7.21867 9.90262 8.21267C9.85195 8.94067 9.70262 9.51467 9.20262 10.226C8.61262 10.9267 7.78462 12.0593 7.39195 13.24C7.20662 13.7947 7.11862 14.3627 7.20062 14.8993C7.17021 14.9239 7.14524 14.9546 7.12728 14.9893C6.95395 15.168 6.82728 15.3893 6.68528 15.5487C6.55262 15.6813 6.36195 15.7267 6.15395 15.8153C5.94528 15.906 5.71529 15.9947 5.57795 16.2687C5.51795 16.3947 5.48728 16.5313 5.48995 16.67C5.48995 16.8027 5.50795 16.9367 5.52662 17.0273C5.56528 17.2933 5.60395 17.5127 5.55328 17.674C5.38728 18.1273 5.36662 18.4373 5.48262 18.6633C5.59862 18.886 5.83929 18.9767 6.10928 19.064C6.64928 19.1973 7.38262 19.154 7.95862 19.464C8.57595 19.7747 9.20262 19.9107 9.70262 19.7773C10.0533 19.7 10.3493 19.468 10.508 19.1467C10.8993 19.1447 11.328 18.9673 12.0146 18.924C12.4806 18.8853 13.064 19.102 13.7326 19.0573C13.7493 19.1467 13.7746 19.1893 13.8086 19.2793L13.8106 19.2813C14.0713 19.8 14.5526 20.036 15.0666 19.9953C15.5806 19.9553 16.128 19.638 16.5713 19.1247C16.992 18.6147 17.6933 18.402 18.1566 18.1227C18.3886 17.99 18.576 17.81 18.5893 17.554C18.6046 17.2873 18.456 17.0133 18.1133 16.6367V16.572L18.1113 16.57C17.998 16.4367 17.9446 16.2133 17.886 15.9527C17.8293 15.6853 17.7646 15.4287 17.558 15.2553H17.556C17.5166 15.2193 17.474 15.2107 17.4306 15.1653C17.3933 15.1393 17.3494 15.1245 17.304 15.1227C17.5913 14.2707 17.48 13.4227 17.1886 12.66C16.8333 11.72 16.212 10.9013 15.7386 10.338C15.208 9.668 14.688 9.03333 14.6986 8.09267C14.716 6.658 14.856 4.004 12.336 4V4ZM12.6886 6.27H12.6973C12.8393 6.27 12.9613 6.31133 13.0866 6.402C13.2133 6.492 13.3066 6.62333 13.3786 6.75733C13.4486 6.93 13.484 7.06333 13.4893 7.24C13.4893 7.22667 13.4933 7.21333 13.4933 7.2V7.27C13.4918 7.26546 13.4909 7.26076 13.4906 7.256L13.488 7.24C13.4866 7.40202 13.4526 7.5621 13.388 7.71067C13.3568 7.79425 13.3084 7.87035 13.246 7.934C13.2271 7.92333 13.2075 7.91398 13.1873 7.906C13.118 7.876 13.0553 7.86333 12.998 7.81733C12.9504 7.79841 12.9014 7.78368 12.8513 7.77333C12.8846 7.73333 12.9486 7.68467 12.9733 7.64133C13.0086 7.556 13.028 7.46533 13.032 7.37333V7.36C13.0335 7.26946 13.0197 7.17931 12.9913 7.09333C12.9613 7.004 12.924 6.96 12.8693 6.87133C12.8133 6.82733 12.758 6.78333 12.6913 6.78333H12.6806C12.6186 6.78333 12.5633 6.80333 12.506 6.87133C12.4426 6.93308 12.3957 7.00959 12.3693 7.094C12.3339 7.17871 12.3136 7.26896 12.3093 7.36067V7.37333C12.3106 7.43267 12.3146 7.49267 12.3226 7.55133C12.194 7.50667 12.0306 7.46133 11.918 7.41667C11.9112 7.37251 11.9072 7.32798 11.906 7.28333V7.27C11.9007 7.09401 11.9349 6.91908 12.006 6.758C12.0606 6.61133 12.1606 6.48733 12.2926 6.40267C12.4066 6.31629 12.5456 6.26948 12.6886 6.26933V6.27ZM10.714 6.30933H10.738C10.8326 6.30933 10.918 6.34133 11.004 6.39933C11.1013 6.48533 11.18 6.59133 11.2333 6.70933C11.2933 6.842 11.3266 6.976 11.3353 7.154V7.15667C11.34 7.246 11.3393 7.29 11.334 7.334V7.38733C11.314 7.392 11.2966 7.39933 11.2786 7.40333C11.1773 7.44 11.096 7.49333 11.0166 7.53667C11.0246 7.47667 11.0253 7.41667 11.0186 7.35867V7.34867C11.0106 7.26 10.992 7.21533 10.964 7.12667C10.9432 7.05872 10.905 6.99737 10.8533 6.94867C10.8369 6.93373 10.8176 6.92225 10.7966 6.91492C10.7757 6.90759 10.7534 6.90455 10.7313 6.906H10.7173C10.67 6.91 10.6306 6.93267 10.5933 6.994C10.5508 7.04562 10.5231 7.10785 10.5133 7.174C10.4953 7.24586 10.4901 7.32034 10.498 7.394V7.404C10.506 7.494 10.5226 7.53733 10.5513 7.62667C10.582 7.716 10.6166 7.76 10.662 7.80533C10.6686 7.81133 10.6753 7.81733 10.6846 7.82133C10.638 7.85933 10.6066 7.868 10.5673 7.912C10.5423 7.93406 10.5123 7.94963 10.48 7.95733C10.4107 7.87389 10.3493 7.78417 10.2966 7.68933C10.2336 7.54924 10.1985 7.3982 10.1933 7.24467C10.1822 7.09417 10.2004 6.94296 10.2466 6.79933C10.2833 6.66834 10.3477 6.54673 10.4353 6.44267C10.5206 6.354 10.6086 6.30933 10.714 6.30933V6.30933ZM11.6273 7.44667C11.8486 7.44667 12.116 7.49 12.438 7.71267C12.6333 7.846 12.7866 7.892 13.1393 8.02467H13.1413C13.3113 8.11533 13.4113 8.202 13.46 8.29067V8.20333C13.4839 8.25181 13.4972 8.30482 13.499 8.35885C13.5009 8.41288 13.4912 8.46668 13.4706 8.51667C13.3886 8.72333 13.1266 8.94533 12.762 9.078V9.07933C12.5833 9.16933 12.428 9.30133 12.2453 9.38933C12.0613 9.47933 11.8533 9.584 11.5706 9.56733C11.4691 9.57259 11.3675 9.5574 11.272 9.52267C11.1981 9.48249 11.1265 9.43843 11.0573 9.39067C10.9273 9.30067 10.8153 9.16933 10.6493 9.08067V9.07733H10.646C10.3793 8.91333 10.2353 8.736 10.1886 8.604C10.142 8.42533 10.1853 8.29067 10.3173 8.204C10.4666 8.114 10.5706 8.02333 10.6393 7.98C10.7086 7.93067 10.7346 7.912 10.7566 7.89267H10.758V7.89067C10.8706 7.756 11.0486 7.57733 11.3173 7.49C11.41 7.466 11.5133 7.44667 11.628 7.44667H11.6273ZM13.494 8.87467C13.7326 9.81933 14.2913 11.1913 14.6506 11.8567C14.8413 12.2127 15.2206 12.9627 15.3853 13.8727C15.4893 13.8693 15.6053 13.8847 15.7273 13.9153C16.158 12.8013 15.3633 11.604 15.0013 11.2713C14.8546 11.138 14.8466 11.048 14.9193 11.048C15.3126 11.404 15.8293 12.096 16.0166 12.886C16.1033 13.2427 16.1233 13.622 16.0306 13.9993C16.0753 14.018 16.1206 14.0393 16.1673 14.044C16.8553 14.4 17.1093 14.6693 16.9873 15.0687V15.04C16.9473 15.038 16.9073 15.04 16.8673 15.04H16.8566C16.9573 14.7287 16.7353 14.49 16.1466 14.224C15.5366 13.9573 15.0493 14 14.9666 14.534C14.9613 14.5627 14.958 14.578 14.9546 14.624C14.9093 14.6393 14.862 14.6593 14.8153 14.6667C14.5286 14.8453 14.374 15.1127 14.2866 15.458C14.2 15.8133 14.1733 16.2287 14.15 16.704V16.706C14.1366 16.9287 14.0366 17.2647 13.9373 17.606C12.9373 18.3207 11.5506 18.6313 10.372 17.8287C10.298 17.6994 10.2079 17.58 10.104 17.4733C10.0543 17.3906 9.99247 17.3158 9.92062 17.2513C10.042 17.2513 10.146 17.2313 10.2306 17.2067C10.3265 17.1622 10.4015 17.0824 10.44 16.984C10.512 16.806 10.44 16.5193 10.21 16.2087C9.97995 15.8973 9.58928 15.5453 9.01795 15.1947C8.59795 14.928 8.36062 14.6147 8.25128 14.264C8.14128 13.908 8.15595 13.5407 8.24128 13.1673C8.40462 12.454 8.82328 11.7607 9.09062 11.3253C9.16195 11.282 9.11528 11.4153 8.81862 11.9747C8.55462 12.4753 8.05862 13.6393 8.73728 14.544C8.76292 13.8839 8.9091 13.2341 9.16862 12.6267C9.54462 11.7747 10.3306 10.2907 10.3926 9.11467C10.4246 9.13867 10.5373 9.20467 10.5853 9.24933C10.7306 9.338 10.8386 9.47133 10.9786 9.55933C11.1186 9.69333 11.2966 9.78267 11.5626 9.78267C11.5886 9.78467 11.6126 9.78667 11.636 9.78667C11.9106 9.78667 12.1226 9.69733 12.3006 9.608C12.494 9.51867 12.6473 9.38533 12.794 9.34133H12.7973C13.1086 9.25133 13.354 9.07333 13.4933 8.87467H13.494ZM14.9506 14.8467C14.9753 15.2467 15.1793 15.6767 15.5386 15.7647C15.9306 15.854 16.4946 15.5427 16.7326 15.2547L16.8733 15.248C17.0833 15.2433 17.258 15.2547 17.438 15.4267L17.44 15.4287C17.5786 15.5613 17.6433 15.782 17.7006 16.0127C17.7573 16.2793 17.8033 16.5327 17.9733 16.7233C18.2973 17.0747 18.4033 17.3273 18.3973 17.4833L18.3993 17.4787V17.4907L18.3973 17.4827C18.3873 17.6573 18.274 17.7467 18.0653 17.8793C17.6453 18.1467 16.9013 18.354 16.4273 18.926C16.0153 19.4173 15.514 19.686 15.07 19.72C14.6273 19.7553 14.2453 19.5867 14.0206 19.1213L14.0173 19.1193C13.8773 18.8527 13.9373 18.436 14.0546 17.9927C14.172 17.5473 14.34 17.0967 14.3633 16.728C14.388 16.252 14.414 15.838 14.4933 15.5187C14.5733 15.2087 14.6986 14.9873 14.9206 14.8627L14.9506 14.848V14.8467ZM7.74128 14.8793H7.74795C7.78329 14.8793 7.81795 14.8827 7.85262 14.8887C8.10328 14.9253 8.32328 15.1107 8.53462 15.39L9.14128 16.4993L9.14328 16.5013C9.30528 16.8567 9.64595 17.2107 9.93595 17.5927C10.2253 17.9913 10.4493 18.3467 10.422 18.6393V18.6433C10.384 19.1393 10.102 19.4087 9.67195 19.506C9.24195 19.596 8.65862 19.5073 8.07528 19.1967C7.42995 18.8393 6.66328 18.884 6.17062 18.7953C5.92462 18.7513 5.76395 18.662 5.68862 18.5287C5.61528 18.3953 5.61328 18.1273 5.77062 17.7087V17.706L5.77195 17.704C5.84995 17.4813 5.79195 17.2027 5.75395 16.9587C5.71729 16.6913 5.69862 16.4853 5.78262 16.332C5.88928 16.1093 6.04662 16.0653 6.24262 15.9767C6.43862 15.8867 6.66928 15.842 6.85262 15.6633H6.85395V15.662C7.02462 15.4833 7.15062 15.2613 7.29928 15.1033C7.42595 14.9693 7.55262 14.8793 7.74128 14.8793V14.8793ZM12.514 8.83C12.224 8.964 11.884 9.18667 11.522 9.18667C11.1606 9.18667 10.8753 9.00867 10.6686 8.876C10.566 8.78667 10.482 8.69733 10.42 8.65267C10.3106 8.56333 10.324 8.43067 10.3706 8.43067C10.4433 8.44133 10.4566 8.52 10.5033 8.564C10.5673 8.608 10.6466 8.69733 10.7433 8.786C10.938 8.91933 11.1966 9.09733 11.5213 9.09733C11.8446 9.09733 12.2233 8.91933 12.4533 8.78667C12.5833 8.69667 12.75 8.564 12.8853 8.47533C12.9893 8.38467 12.9846 8.29733 13.0713 8.29733C13.1566 8.308 13.094 8.38667 12.9733 8.51867C12.8254 8.6305 12.6719 8.73463 12.5133 8.83067L12.514 8.83ZM11.7926 7.77467V7.76C11.7886 7.74667 11.8013 7.732 11.812 7.72667C11.8613 7.698 11.932 7.70867 11.9853 7.72933C12.0273 7.72933 12.092 7.774 12.0853 7.81933C12.0813 7.852 12.0286 7.86333 11.9953 7.86333C11.9586 7.86333 11.934 7.83467 11.9013 7.818C11.8666 7.806 11.804 7.81267 11.7926 7.77467ZM11.4253 7.77467C11.412 7.81333 11.35 7.80733 11.3146 7.81867C11.2833 7.83533 11.2573 7.864 11.2213 7.864C11.188 7.864 11.1346 7.85067 11.1306 7.81867C11.124 7.77467 11.1893 7.73 11.2306 7.73C11.284 7.70933 11.3533 7.69867 11.4033 7.72667C11.416 7.73267 11.4273 7.74667 11.4233 7.76V7.77333H11.4253V7.77467Z" fill="#FCC624"/>
</g>
<defs>
<clipPath id="clip0_1121:422">
<rect width="16" height="16" fill="white" transform="translate(4 4)"/>
</clipPath>
</defs>
</svg>
