<svg width="32" height="32" viewBox="0 0 32 32" fill="none" xmlns="http://www.w3.org/2000/svg">
<rect width="32" height="32" rx="4" fill="#FCC624"/>
<g clip-path="url(#clip0_1187:230)">
<path d="M16.546 3C16.3781 3 16.2048 3.00867 16.026 3.02275C11.4478 3.3835 12.6623 8.23033 12.5918 9.84558C12.5095 11.0286 12.2668 11.9613 11.4543 13.1173C10.4956 14.2558 9.1501 16.0964 8.51201 18.015C8.21085 18.9163 8.06785 19.8393 8.2011 20.7114C8.15168 20.7514 8.1111 20.8012 8.08193 20.8577C7.80026 21.148 7.59443 21.5077 7.36368 21.7666C7.1481 21.9822 6.83826 22.0558 6.50026 22.1999C6.16118 22.3473 5.78743 22.4913 5.56426 22.9366C5.46676 23.1413 5.41693 23.3634 5.42126 23.5887C5.42126 23.8043 5.45051 24.0221 5.48085 24.1694C5.54368 24.6017 5.60651 24.9581 5.52418 25.2203C5.25443 25.9569 5.22085 26.4607 5.40935 26.8279C5.59785 27.1898 5.98893 27.3371 6.42768 27.479C7.30518 27.6957 8.49685 27.6252 9.43285 28.129C10.436 28.6338 11.4543 28.8548 12.2668 28.6382C12.8367 28.5125 13.3177 28.1355 13.5755 27.6133C14.2114 27.6101 14.908 27.3219 16.0238 27.2515C16.7811 27.1887 17.729 27.5408 18.8156 27.4682C18.8427 27.6133 18.8838 27.6827 18.9391 27.8289L18.9423 27.8322C19.3659 28.675 20.1481 29.0585 20.9833 28.9924C21.8186 28.9274 22.708 28.4118 23.4284 27.5776C24.112 26.7488 25.2517 26.4033 26.0046 25.9493C26.3816 25.7338 26.686 25.4413 26.7077 25.0253C26.7326 24.5919 26.491 24.1467 25.9342 23.5346V23.4295L25.9309 23.4263C25.7468 23.2096 25.6601 22.8467 25.5648 22.4231C25.4727 21.9887 25.3676 21.5716 25.0318 21.2899H25.0285C24.9646 21.2314 24.8953 21.2173 24.8248 21.1437C24.7643 21.1014 24.6928 21.0773 24.619 21.0743C25.0859 19.6898 24.905 18.3118 24.4316 17.0725C23.8542 15.545 22.8445 14.2147 22.0753 13.2993C21.213 12.2105 20.368 11.1792 20.3853 9.65058C20.4135 7.31925 20.641 3.0065 16.546 3V3ZM17.1191 6.68875H17.1332C17.3639 6.68875 17.5622 6.75592 17.7658 6.90325C17.9717 7.0495 18.1233 7.26292 18.2403 7.48067C18.3541 7.76125 18.4115 7.97792 18.4202 8.265C18.4202 8.24333 18.4267 8.22167 18.4267 8.2V8.31375C18.4243 8.30638 18.4228 8.29873 18.4223 8.291L18.418 8.265C18.4158 8.52828 18.3606 8.78841 18.2555 9.02983C18.2049 9.16566 18.1263 9.28932 18.0248 9.39275C17.9941 9.37542 17.9622 9.36021 17.9294 9.34725C17.8168 9.2985 17.7149 9.27792 17.6218 9.20317C17.5446 9.17241 17.4648 9.14849 17.3834 9.13167C17.4376 9.06667 17.5416 8.98758 17.5817 8.91717C17.6391 8.7785 17.6705 8.63117 17.677 8.48167V8.46C17.6795 8.31287 17.6571 8.16638 17.6109 8.02667C17.5622 7.8815 17.5015 7.81 17.4127 7.66592C17.3217 7.59442 17.2318 7.52292 17.1234 7.52292H17.1061C17.0053 7.52292 16.9154 7.55542 16.8223 7.66592C16.7194 7.76625 16.6431 7.89059 16.6002 8.02775C16.5426 8.1654 16.5096 8.31206 16.5027 8.46108V8.48167C16.5048 8.57808 16.5113 8.67558 16.5243 8.77092C16.3153 8.69833 16.0498 8.62467 15.8668 8.55208C15.8558 8.48033 15.8493 8.40797 15.8473 8.33542V8.31375C15.8388 8.02777 15.8943 7.74351 16.0098 7.48175C16.0986 7.24342 16.2611 7.04192 16.4756 6.90433C16.6608 6.76397 16.8867 6.6879 17.1191 6.68767V6.68875ZM13.9103 6.75267H13.9493C14.1031 6.75267 14.2418 6.80467 14.3815 6.89892C14.5397 7.03867 14.6675 7.21092 14.7542 7.40267C14.8517 7.61825 14.9058 7.836 14.9199 8.12525V8.12958C14.9275 8.27475 14.9264 8.34625 14.9178 8.41775V8.50442C14.8853 8.512 14.8571 8.52392 14.8278 8.53042C14.6632 8.59 14.531 8.67667 14.4021 8.74708C14.4151 8.64958 14.4162 8.55208 14.4053 8.45783V8.44158C14.3923 8.2975 14.362 8.22492 14.3165 8.08083C14.2827 7.97042 14.2207 7.87073 14.1367 7.79158C14.11 7.76731 14.0787 7.74865 14.0446 7.73674C14.0105 7.72483 13.9744 7.7199 13.9384 7.72225H13.9157C13.8388 7.72875 13.7748 7.76558 13.7142 7.86525C13.6451 7.94913 13.6001 8.05025 13.5842 8.15775C13.5549 8.27452 13.5465 8.39555 13.5593 8.51525V8.5315C13.5723 8.67775 13.5993 8.74817 13.6459 8.89333C13.6958 9.0385 13.7521 9.11 13.8258 9.18367C13.8366 9.19342 13.8474 9.20317 13.8626 9.20967C13.7868 9.27142 13.7358 9.2855 13.6719 9.357C13.6314 9.39284 13.5827 9.41814 13.53 9.43067C13.4174 9.29507 13.3177 9.14927 13.2321 8.99517C13.1297 8.76751 13.0726 8.52207 13.0642 8.27258C13.0462 8.02803 13.0757 7.78232 13.1508 7.54892C13.2105 7.33606 13.3151 7.13844 13.4574 6.96933C13.5961 6.82525 13.7391 6.75267 13.9103 6.75267V6.75267ZM15.3944 8.60083C15.7541 8.60083 16.1885 8.67125 16.7118 9.03308C17.0292 9.24975 17.2783 9.3245 17.8514 9.54008H17.8547C18.1309 9.68742 18.2934 9.82825 18.3725 9.97233V9.83042C18.4114 9.90919 18.433 9.99534 18.436 10.0831C18.439 10.1709 18.4233 10.2583 18.3898 10.3396C18.2566 10.6754 17.8308 11.0362 17.2383 11.2518V11.2539C16.9479 11.4002 16.6955 11.6147 16.3987 11.7577C16.0997 11.9039 15.7617 12.074 15.3023 12.0469C15.1373 12.0555 14.9723 12.0308 14.817 11.9743C14.697 11.9091 14.5806 11.8375 14.4682 11.7598C14.2569 11.6136 14.0749 11.4002 13.8052 11.2561V11.2507H13.7998C13.3664 10.9842 13.1324 10.696 13.0566 10.4815C12.9808 10.1912 13.0512 9.97233 13.2657 9.8315C13.5083 9.68525 13.6773 9.53792 13.7889 9.4675C13.9016 9.38733 13.9438 9.357 13.9796 9.32558H13.9818V9.32233C14.1648 9.1035 14.4541 8.81317 14.8907 8.67125C15.0413 8.63225 15.2092 8.60083 15.3955 8.60083H15.3944ZM18.4278 10.9213C18.8156 12.4564 19.7234 14.6859 20.3073 15.7671C20.6172 16.3456 21.2336 17.5643 21.5012 19.0431C21.6702 19.0377 21.8587 19.0626 22.0569 19.1124C22.7568 17.3022 21.4654 15.3565 20.8772 14.8159C20.6388 14.5992 20.6258 14.453 20.7439 14.453C21.3831 15.0315 22.2227 16.156 22.5271 17.4398C22.6679 18.0193 22.7004 18.6358 22.5498 19.2489C22.6224 19.2793 22.6961 19.3139 22.7719 19.3215C23.8899 19.9 24.3027 20.3377 24.1044 20.9866V20.94C24.0394 20.9368 23.9744 20.94 23.9094 20.94H23.8921C24.0557 20.4341 23.6949 20.0463 22.7383 19.614C21.7471 19.1807 20.9552 19.25 20.8208 20.1178C20.8122 20.1643 20.8068 20.1893 20.8013 20.264C20.7277 20.2889 20.6508 20.3214 20.5749 20.3333C20.1091 20.6237 19.8578 21.0581 19.7158 21.6193C19.575 22.1967 19.5317 22.8716 19.4938 23.644V23.6473C19.4721 24.0091 19.3096 24.5551 19.1482 25.1098C17.5232 26.2711 15.2698 26.7759 13.3545 25.4716C13.2343 25.2615 13.088 25.0675 12.919 24.8942C12.8383 24.7597 12.7379 24.6381 12.6211 24.5334C12.8183 24.5334 12.9873 24.5009 13.1248 24.4608C13.2806 24.3886 13.4025 24.2589 13.465 24.099C13.582 23.8098 13.465 23.3439 13.0913 22.8391C12.7175 22.3332 12.0827 21.7612 11.1543 21.1913C10.4718 20.758 10.0861 20.2488 9.90843 19.679C9.72968 19.1005 9.75351 18.5036 9.89218 17.8969C10.1576 16.7378 10.8379 15.6111 11.2723 14.9037C11.3883 14.8333 11.3124 15.0499 10.8303 15.9588C10.4013 16.7724 9.59535 18.6639 10.6982 20.134C10.7398 19.0614 10.9774 18.0054 11.3991 17.0183C12.0101 15.6338 13.2873 13.2223 13.3881 11.3113C13.4401 11.3503 13.6232 11.4576 13.7012 11.5302C13.9373 11.6743 14.1128 11.8909 14.3403 12.0339C14.5678 12.2517 14.8571 12.3968 15.2893 12.3968C15.3316 12.4001 15.3706 12.4033 15.4085 12.4033C15.8548 12.4033 16.1993 12.2582 16.4886 12.113C16.8028 11.9678 17.0519 11.7512 17.2903 11.6797H17.2957C17.8016 11.5334 18.2003 11.2442 18.4267 10.9213H18.4278ZM20.7948 20.6258C20.8349 21.2758 21.1664 21.9746 21.7503 22.1176C22.3873 22.2628 23.3038 21.7568 23.6906 21.2888L23.9192 21.278C24.2604 21.2704 24.5443 21.2888 24.8368 21.5683L24.84 21.5716C25.0653 21.7872 25.1704 22.1457 25.2636 22.5206C25.3557 22.9539 25.4304 23.3656 25.7067 23.6754C26.2332 24.2463 26.4054 24.6569 26.3957 24.9104L26.3989 24.9028V24.9223L26.3957 24.9093C26.3794 25.1932 26.1953 25.3383 25.8562 25.5539C25.1737 25.9883 23.9647 26.3253 23.1944 27.2548C22.5249 28.0532 21.7103 28.4898 20.9888 28.545C20.2694 28.6024 19.6487 28.3283 19.2836 27.5722L19.2782 27.5689C19.0507 27.1356 19.1482 26.4585 19.3388 25.7381C19.5295 25.0144 19.8025 24.2821 19.8404 23.683C19.8805 22.9095 19.9228 22.2368 20.0517 21.7178C20.1817 21.2141 20.3853 20.8544 20.7461 20.6518L20.7948 20.628V20.6258ZM9.07968 20.6789H9.09051C9.14793 20.6789 9.20426 20.6843 9.2606 20.6941C9.66793 20.7537 10.0254 21.0548 10.3688 21.5087L11.3547 23.3114L11.3579 23.3147C11.6212 23.8921 12.1748 24.4673 12.646 25.0881C13.1162 25.7359 13.4802 26.3133 13.4358 26.7889V26.7954C13.374 27.6014 12.9158 28.0391 12.217 28.1973C11.5183 28.3435 10.5703 28.1994 9.62243 27.6946C8.57376 27.1139 7.32793 27.1865 6.52735 27.0424C6.1276 26.9709 5.86651 26.8258 5.7441 26.6091C5.62493 26.3924 5.62168 25.9569 5.87735 25.2766V25.2723L5.87951 25.269C6.00626 24.9072 5.91201 24.4543 5.85026 24.0578C5.79068 23.6234 5.76035 23.2887 5.89685 23.0395C6.07018 22.6777 6.32585 22.6062 6.64435 22.4621C6.96285 22.3158 7.33768 22.2433 7.6356 21.9529H7.63776V21.9508C7.9151 21.6604 8.11985 21.2997 8.36143 21.0429C8.56726 20.8252 8.7731 20.6789 9.07968 20.6789V20.6789ZM16.8353 10.8488C16.364 11.0665 15.8115 11.4283 15.2233 11.4283C14.6361 11.4283 14.1724 11.1391 13.8366 10.9235C13.6698 10.7783 13.5333 10.6332 13.4325 10.5606C13.2548 10.4154 13.2765 10.1998 13.3523 10.1998C13.4704 10.2172 13.4921 10.345 13.5679 10.4165C13.6719 10.488 13.8008 10.6332 13.9579 10.7773C14.2743 10.9939 14.6946 11.2832 15.2222 11.2832C15.7476 11.2832 16.3629 10.9939 16.7367 10.7783C16.9479 10.6321 17.2188 10.4165 17.4387 10.2724C17.6077 10.1251 17.6001 9.98317 17.7409 9.98317C17.8796 10.0005 17.7778 10.1283 17.5817 10.3428C17.3414 10.5246 17.0919 10.6938 16.8342 10.8498L16.8353 10.8488ZM15.6631 9.13383V9.11C15.6566 9.08833 15.6772 9.0645 15.6945 9.05583C15.7747 9.00925 15.8895 9.02658 15.9762 9.06017C16.0444 9.06017 16.1495 9.13275 16.1387 9.20642C16.1322 9.2595 16.0466 9.27792 15.9924 9.27792C15.9328 9.27792 15.8928 9.23133 15.8397 9.20425C15.7833 9.18475 15.6815 9.19558 15.6631 9.13383ZM15.0662 9.13383C15.0445 9.19667 14.9438 9.18692 14.8863 9.20533C14.8354 9.23242 14.7932 9.279 14.7347 9.279C14.6805 9.279 14.5938 9.25733 14.5873 9.20533C14.5765 9.13383 14.6827 9.06125 14.7498 9.06125C14.8365 9.02767 14.9492 9.01033 15.0304 9.05583C15.051 9.06558 15.0694 9.08833 15.0629 9.11V9.13167H15.0662V9.13383Z" fill="#1D1D1D"/>
</g>
<defs>
<clipPath id="clip0_1187:230">
<rect width="26" height="26" fill="white" transform="translate(3 3)"/>
</clipPath>
</defs>
</svg>
