<svg width="32" height="32" viewBox="0 0 32 32" fill="none" xmlns="http://www.w3.org/2000/svg">
<path d="M14 1.1547C15.2376 0.440169 16.7624 0.440169 18 1.1547L27.8564 6.8453C29.094 7.55983 29.8564 8.88034 29.8564 10.3094V21.6906C29.8564 23.1197 29.094 24.4402 27.8564 25.1547L18 30.8453C16.7624 31.5598 15.2376 31.5598 14 30.8453L4.14359 25.1547C2.90599 24.4402 2.14359 23.1197 2.14359 21.6906V10.3094C2.14359 8.88034 2.90599 7.55983 4.14359 6.8453L14 1.1547Z" fill="#FCC624"/>
<g clip-path="url(#clip0_1178:256)">
<path d="M16.336 8C16.2326 8 16.126 8.00533 16.016 8.014C13.1986 8.236 13.946 11.2187 13.9026 12.2127C13.852 12.9407 13.7026 13.5147 13.2026 14.226C12.6126 14.9267 11.7846 16.0593 11.392 17.24C11.2066 17.7947 11.1186 18.3627 11.2006 18.8993C11.1702 18.9239 11.1452 18.9546 11.1273 18.9893C10.954 19.168 10.8273 19.3893 10.6853 19.5487C10.5526 19.6813 10.362 19.7267 10.154 19.8153C9.94528 19.906 9.71529 19.9947 9.57795 20.2687C9.51795 20.3947 9.48728 20.5313 9.48995 20.67C9.48995 20.8027 9.50795 20.9367 9.52662 21.0273C9.56528 21.2933 9.60395 21.5127 9.55328 21.674C9.38728 22.1273 9.36662 22.4373 9.48262 22.6633C9.59862 22.886 9.83929 22.9767 10.1093 23.064C10.6493 23.1973 11.3826 23.154 11.9586 23.464C12.576 23.7747 13.2026 23.9107 13.7026 23.7773C14.0533 23.7 14.3493 23.468 14.508 23.1467C14.8993 23.1447 15.328 22.9673 16.0146 22.924C16.4806 22.8853 17.064 23.102 17.7326 23.0573C17.7493 23.1467 17.7746 23.1893 17.8086 23.2793L17.8106 23.2813C18.0713 23.8 18.5526 24.036 19.0666 23.9953C19.5806 23.9553 20.128 23.638 20.5713 23.1247C20.992 22.6147 21.6933 22.402 22.1566 22.1227C22.3886 21.99 22.576 21.81 22.5893 21.554C22.6046 21.2873 22.456 21.0133 22.1133 20.6367V20.572L22.1113 20.57C21.998 20.4367 21.9446 20.2133 21.886 19.9527C21.8293 19.6853 21.7646 19.4287 21.558 19.2553H21.556C21.5166 19.2193 21.474 19.2107 21.4306 19.1653C21.3933 19.1393 21.3494 19.1245 21.304 19.1227C21.5913 18.2707 21.48 17.4227 21.1886 16.66C20.8333 15.72 20.212 14.9013 19.7386 14.338C19.208 13.668 18.688 13.0333 18.6986 12.0927C18.716 10.658 18.856 8.004 16.336 8V8ZM16.6886 10.27H16.6973C16.8393 10.27 16.9613 10.3113 17.0866 10.402C17.2133 10.492 17.3066 10.6233 17.3786 10.7573C17.4486 10.93 17.484 11.0633 17.4893 11.24C17.4893 11.2267 17.4933 11.2133 17.4933 11.2V11.27C17.4918 11.2655 17.4909 11.2608 17.4906 11.256L17.488 11.24C17.4866 11.402 17.4526 11.5621 17.388 11.7107C17.3568 11.7943 17.3084 11.8703 17.246 11.934C17.2271 11.9233 17.2075 11.914 17.1873 11.906C17.118 11.876 17.0553 11.8633 16.998 11.8173C16.9504 11.7984 16.9014 11.7837 16.8513 11.7733C16.8846 11.7333 16.9486 11.6847 16.9733 11.6413C17.0086 11.556 17.028 11.4653 17.032 11.3733V11.36C17.0335 11.2695 17.0197 11.1793 16.9913 11.0933C16.9613 11.004 16.924 10.96 16.8693 10.8713C16.8133 10.8273 16.758 10.7833 16.6913 10.7833H16.6806C16.6186 10.7833 16.5633 10.8033 16.506 10.8713C16.4426 10.9331 16.3957 11.0096 16.3693 11.094C16.3339 11.1787 16.3136 11.269 16.3093 11.3607V11.3733C16.3106 11.4327 16.3146 11.4927 16.3226 11.5513C16.194 11.5067 16.0306 11.4613 15.918 11.4167C15.9112 11.3725 15.9072 11.328 15.906 11.2833V11.27C15.9007 11.094 15.9349 10.9191 16.006 10.758C16.0606 10.6113 16.1606 10.4873 16.2926 10.4027C16.4066 10.3163 16.5456 10.2695 16.6886 10.2693V10.27ZM14.714 10.3093H14.738C14.8326 10.3093 14.918 10.3413 15.004 10.3993C15.1013 10.4853 15.18 10.5913 15.2333 10.7093C15.2933 10.842 15.3266 10.976 15.3353 11.154V11.1567C15.34 11.246 15.3393 11.29 15.334 11.334V11.3873C15.314 11.392 15.2966 11.3993 15.2786 11.4033C15.1773 11.44 15.096 11.4933 15.0166 11.5367C15.0246 11.4767 15.0253 11.4167 15.0186 11.3587V11.3487C15.0106 11.26 14.992 11.2153 14.964 11.1267C14.9432 11.0587 14.905 10.9974 14.8533 10.9487C14.8369 10.9337 14.8176 10.9222 14.7966 10.9149C14.7757 10.9076 14.7534 10.9046 14.7313 10.906H14.7173C14.67 10.91 14.6306 10.9327 14.5933 10.994C14.5508 11.0456 14.5231 11.1078 14.5133 11.174C14.4953 11.2459 14.4901 11.3203 14.498 11.394V11.404C14.506 11.494 14.5226 11.5373 14.5513 11.6267C14.582 11.716 14.6166 11.76 14.662 11.8053C14.6686 11.8113 14.6753 11.8173 14.6846 11.8213C14.638 11.8593 14.6066 11.868 14.5673 11.912C14.5423 11.9341 14.5123 11.9496 14.48 11.9573C14.4107 11.8739 14.3493 11.7842 14.2966 11.6893C14.2336 11.5492 14.1985 11.3982 14.1933 11.2447C14.1822 11.0942 14.2004 10.943 14.2466 10.7993C14.2833 10.6683 14.3477 10.5467 14.4353 10.4427C14.5206 10.354 14.6086 10.3093 14.714 10.3093V10.3093ZM15.6273 11.4467C15.8486 11.4467 16.116 11.49 16.438 11.7127C16.6333 11.846 16.7866 11.892 17.1393 12.0247H17.1413C17.3113 12.1153 17.4113 12.202 17.46 12.2907V12.2033C17.4839 12.2518 17.4972 12.3048 17.499 12.3589C17.5009 12.4129 17.4912 12.4667 17.4706 12.5167C17.3886 12.7233 17.1266 12.9453 16.762 13.078V13.0793C16.5833 13.1693 16.428 13.3013 16.2453 13.3893C16.0613 13.4793 15.8533 13.584 15.5706 13.5673C15.4691 13.5726 15.3675 13.5574 15.272 13.5227C15.1981 13.4825 15.1265 13.4384 15.0573 13.3907C14.9273 13.3007 14.8153 13.1693 14.6493 13.0807V13.0773H14.646C14.3793 12.9133 14.2353 12.736 14.1886 12.604C14.142 12.4253 14.1853 12.2907 14.3173 12.204C14.4666 12.114 14.5706 12.0233 14.6393 11.98C14.7086 11.9307 14.7346 11.912 14.7566 11.8927H14.758V11.8907C14.8706 11.756 15.0486 11.5773 15.3173 11.49C15.41 11.466 15.5133 11.4467 15.628 11.4467H15.6273ZM17.494 12.8747C17.7326 13.8193 18.2913 15.1913 18.6506 15.8567C18.8413 16.2127 19.2206 16.9627 19.3853 17.8727C19.4893 17.8693 19.6053 17.8847 19.7273 17.9153C20.158 16.8013 19.3633 15.604 19.0013 15.2713C18.8546 15.138 18.8466 15.048 18.9193 15.048C19.3126 15.404 19.8293 16.096 20.0166 16.886C20.1033 17.2427 20.1233 17.622 20.0306 17.9993C20.0753 18.018 20.1206 18.0393 20.1673 18.044C20.8553 18.4 21.1093 18.6693 20.9873 19.0687V19.04C20.9473 19.038 20.9073 19.04 20.8673 19.04H20.8566C20.9573 18.7287 20.7353 18.49 20.1466 18.224C19.5366 17.9573 19.0493 18 18.9666 18.534C18.9613 18.5627 18.958 18.578 18.9546 18.624C18.9093 18.6393 18.862 18.6593 18.8153 18.6667C18.5286 18.8453 18.374 19.1127 18.2866 19.458C18.2 19.8133 18.1733 20.2287 18.15 20.704V20.706C18.1366 20.9287 18.0366 21.2647 17.9373 21.606C16.9373 22.3207 15.5506 22.6313 14.372 21.8287C14.298 21.6994 14.2079 21.58 14.104 21.4733C14.0543 21.3906 13.9925 21.3158 13.9206 21.2513C14.042 21.2513 14.146 21.2313 14.2306 21.2067C14.3265 21.1622 14.4015 21.0824 14.44 20.984C14.512 20.806 14.44 20.5193 14.21 20.2087C13.98 19.8973 13.5893 19.5453 13.018 19.1947C12.598 18.928 12.3606 18.6147 12.2513 18.264C12.1413 17.908 12.156 17.5407 12.2413 17.1673C12.4046 16.454 12.8233 15.7607 13.0906 15.3253C13.162 15.282 13.1153 15.4153 12.8186 15.9747C12.5546 16.4753 12.0586 17.6393 12.7373 18.544C12.7629 17.8839 12.9091 17.2341 13.1686 16.6267C13.5446 15.7747 14.3306 14.2907 14.3926 13.1147C14.4246 13.1387 14.5373 13.2047 14.5853 13.2493C14.7306 13.338 14.8386 13.4713 14.9786 13.5593C15.1186 13.6933 15.2966 13.7827 15.5626 13.7827C15.5886 13.7847 15.6126 13.7867 15.636 13.7867C15.9106 13.7867 16.1226 13.6973 16.3006 13.608C16.494 13.5187 16.6473 13.3853 16.794 13.3413H16.7973C17.1086 13.2513 17.354 13.0733 17.4933 12.8747H17.494ZM18.9506 18.8467C18.9753 19.2467 19.1793 19.6767 19.5386 19.7647C19.9306 19.854 20.4946 19.5427 20.7326 19.2547L20.8733 19.248C21.0833 19.2433 21.258 19.2547 21.438 19.4267L21.44 19.4287C21.5786 19.5613 21.6433 19.782 21.7006 20.0127C21.7573 20.2793 21.8033 20.5327 21.9733 20.7233C22.2973 21.0747 22.4033 21.3273 22.3973 21.4833L22.3993 21.4787V21.4907L22.3973 21.4827C22.3873 21.6573 22.274 21.7467 22.0653 21.8793C21.6453 22.1467 20.9013 22.354 20.4273 22.926C20.0153 23.4173 19.514 23.686 19.07 23.72C18.6273 23.7553 18.2453 23.5867 18.0206 23.1213L18.0173 23.1193C17.8773 22.8527 17.9373 22.436 18.0546 21.9927C18.172 21.5473 18.34 21.0967 18.3633 20.728C18.388 20.252 18.414 19.838 18.4933 19.5187C18.5733 19.2087 18.6986 18.9873 18.9206 18.8627L18.9506 18.848V18.8467ZM11.7413 18.8793H11.748C11.7833 18.8793 11.818 18.8827 11.8526 18.8887C12.1033 18.9253 12.3233 19.1107 12.5346 19.39L13.1413 20.4993L13.1433 20.5013C13.3053 20.8567 13.646 21.2107 13.936 21.5927C14.2253 21.9913 14.4493 22.3467 14.422 22.6393V22.6433C14.384 23.1393 14.102 23.4087 13.672 23.506C13.242 23.596 12.6586 23.5073 12.0753 23.1967C11.43 22.8393 10.6633 22.884 10.1706 22.7953C9.92462 22.7513 9.76395 22.662 9.68862 22.5287C9.61528 22.3953 9.61328 22.1273 9.77062 21.7087V21.706L9.77195 21.704C9.84995 21.4813 9.79195 21.2027 9.75395 20.9587C9.71729 20.6913 9.69862 20.4853 9.78262 20.332C9.88928 20.1093 10.0466 20.0653 10.2426 19.9767C10.4386 19.8867 10.6693 19.842 10.8526 19.6633H10.854V19.662C11.0246 19.4833 11.1506 19.2613 11.2993 19.1033C11.426 18.9693 11.5526 18.8793 11.7413 18.8793V18.8793ZM16.514 12.83C16.224 12.964 15.884 13.1867 15.522 13.1867C15.1606 13.1867 14.8753 13.0087 14.6686 12.876C14.566 12.7867 14.482 12.6973 14.42 12.6527C14.3106 12.5633 14.324 12.4307 14.3706 12.4307C14.4433 12.4413 14.4566 12.52 14.5033 12.564C14.5673 12.608 14.6466 12.6973 14.7433 12.786C14.938 12.9193 15.1966 13.0973 15.5213 13.0973C15.8446 13.0973 16.2233 12.9193 16.4533 12.7867C16.5833 12.6967 16.75 12.564 16.8853 12.4753C16.9893 12.3847 16.9846 12.2973 17.0713 12.2973C17.1566 12.308 17.094 12.3867 16.9733 12.5187C16.8254 12.6305 16.6719 12.7346 16.5133 12.8307L16.514 12.83ZM15.7926 11.7747V11.76C15.7886 11.7467 15.8013 11.732 15.812 11.7267C15.8613 11.698 15.932 11.7087 15.9853 11.7293C16.0273 11.7293 16.092 11.774 16.0853 11.8193C16.0813 11.852 16.0286 11.8633 15.9953 11.8633C15.9586 11.8633 15.934 11.8347 15.9013 11.818C15.8666 11.806 15.804 11.8127 15.7926 11.7747ZM15.4253 11.7747C15.412 11.8133 15.35 11.8073 15.3146 11.8187C15.2833 11.8353 15.2573 11.864 15.2213 11.864C15.188 11.864 15.1346 11.8507 15.1306 11.8187C15.124 11.7747 15.1893 11.73 15.2306 11.73C15.284 11.7093 15.3533 11.6987 15.4033 11.7267C15.416 11.7327 15.4273 11.7467 15.4233 11.76V11.7733H15.4253V11.7747Z" fill="#1D1D1D"/>
</g>
<defs>
<clipPath id="clip0_1178:256">
<rect width="16" height="16" fill="white" transform="translate(8 8)"/>
</clipPath>
</defs>
</svg>
