<svg width="32" height="32" viewBox="0 0 32 32" fill="none" xmlns="http://www.w3.org/2000/svg">
<rect width="32" height="32" rx="2" fill="#0D1117"/>
<g clip-path="url(#clip0_1121:422)">
<path d="M16.42 6C16.2908 6 16.1575 6.00667 16.02 6.0175C12.4983 6.295 13.4325 10.0233 13.3783 11.2658C13.315 12.1758 13.1283 12.8933 12.5033 13.7825C11.7658 14.6583 10.7308 16.0742 10.24 17.55C10.0083 18.2433 9.89833 18.9533 10.0008 19.6242C9.96282 19.6549 9.93161 19.6932 9.90917 19.7367C9.6925 19.96 9.53417 20.2367 9.35667 20.4358C9.19083 20.6017 8.9525 20.6583 8.6925 20.7692C8.43167 20.8825 8.14417 20.9933 7.9725 21.3358C7.8975 21.4933 7.85917 21.6642 7.8625 21.8375C7.8625 22.0033 7.885 22.1708 7.90833 22.2842C7.95667 22.6167 8.005 22.8908 7.94167 23.0925C7.73417 23.6592 7.70833 24.0467 7.85333 24.3292C7.99833 24.6075 8.29917 24.7208 8.63667 24.83C9.31167 24.9967 10.2283 24.9425 10.9483 25.33C11.72 25.7183 12.5033 25.8883 13.1283 25.7217C13.5667 25.625 13.9367 25.335 14.135 24.9333C14.6242 24.9308 15.16 24.7092 16.0183 24.655C16.6008 24.6067 17.33 24.8775 18.1658 24.8217C18.1867 24.9333 18.2183 24.9867 18.2608 25.0992L18.2633 25.1017C18.5892 25.75 19.1908 26.045 19.8333 25.9942C20.4758 25.9442 21.16 25.5475 21.7142 24.9058C22.24 24.2683 23.1167 24.0025 23.6958 23.6533C23.9858 23.4875 24.22 23.2625 24.2367 22.9425C24.2558 22.6092 24.07 22.2667 23.6417 21.7958V21.715L23.6392 21.7125C23.4975 21.5458 23.4308 21.2667 23.3575 20.9408C23.2867 20.6067 23.2058 20.2858 22.9475 20.0692H22.945C22.8958 20.0242 22.8425 20.0133 22.7883 19.9567C22.7417 19.9241 22.6868 19.9056 22.63 19.9033C22.9892 18.8383 22.85 17.7783 22.4858 16.825C22.0417 15.65 21.265 14.6267 20.6733 13.9225C20.01 13.085 19.36 12.2917 19.3733 11.1158C19.395 9.3225 19.57 6.005 16.42 6V6ZM16.8608 8.8375H16.8717C17.0492 8.8375 17.2017 8.88917 17.3583 9.0025C17.5167 9.115 17.6333 9.27917 17.7233 9.44667C17.8108 9.6625 17.855 9.82917 17.8617 10.05C17.8617 10.0333 17.8667 10.0167 17.8667 10V10.0875C17.8648 10.0818 17.8637 10.0759 17.8633 10.07L17.86 10.05C17.8583 10.2525 17.8158 10.4526 17.735 10.6383C17.6961 10.7428 17.6356 10.8379 17.5575 10.9175C17.5339 10.9042 17.5094 10.8925 17.4842 10.8825C17.3975 10.845 17.3192 10.8292 17.2475 10.7717C17.1881 10.748 17.1268 10.7296 17.0642 10.7167C17.1058 10.6667 17.1858 10.6058 17.2167 10.5517C17.2608 10.445 17.285 10.3317 17.29 10.2167V10.2C17.2919 10.0868 17.2747 9.97414 17.2392 9.86667C17.2017 9.755 17.155 9.7 17.0867 9.58917C17.0167 9.53417 16.9475 9.47917 16.8642 9.47917H16.8508C16.7733 9.47917 16.7042 9.50417 16.6325 9.58917C16.5534 9.66635 16.4947 9.76199 16.4617 9.8675C16.4174 9.97338 16.392 10.0862 16.3867 10.2008V10.2167C16.3883 10.2908 16.3933 10.3658 16.4033 10.4392C16.2425 10.3833 16.0383 10.3267 15.8975 10.2708C15.8891 10.2156 15.8841 10.16 15.8825 10.1042V10.0875C15.876 9.86752 15.9187 9.64885 16.0075 9.4475C16.0758 9.26417 16.2008 9.10917 16.3658 9.00333C16.5083 8.89536 16.6821 8.83684 16.8608 8.83667V8.8375ZM14.3925 8.88667H14.4225C14.5408 8.88667 14.6475 8.92667 14.755 8.99917C14.8767 9.10667 14.975 9.23917 15.0417 9.38667C15.1167 9.5525 15.1583 9.72 15.1692 9.9425V9.94583C15.175 10.0575 15.1742 10.1125 15.1675 10.1675V10.2342C15.1425 10.24 15.1208 10.2492 15.0983 10.2542C14.9717 10.3 14.87 10.3667 14.7708 10.4208C14.7808 10.3458 14.7817 10.2708 14.7733 10.1983V10.1858C14.7633 10.075 14.74 10.0192 14.705 9.90833C14.679 9.8234 14.6313 9.74671 14.5667 9.68583C14.5461 9.66716 14.522 9.65281 14.4958 9.64365C14.4696 9.63448 14.4419 9.63069 14.4142 9.6325H14.3967C14.3375 9.6375 14.2883 9.66583 14.2417 9.7425C14.1885 9.80702 14.1539 9.88481 14.1417 9.9675C14.1191 10.0573 14.1127 10.1504 14.1225 10.2425V10.255C14.1325 10.3675 14.1533 10.4217 14.1892 10.5333C14.2275 10.645 14.2708 10.7 14.3275 10.7567C14.3358 10.7642 14.3442 10.7717 14.3558 10.7767C14.2975 10.8242 14.2583 10.835 14.2092 10.89C14.178 10.9176 14.1405 10.937 14.1 10.9467C14.0134 10.8424 13.9367 10.7302 13.8708 10.6117C13.792 10.4365 13.7482 10.2477 13.7417 10.0558C13.7279 9.86772 13.7505 9.6787 13.8083 9.49917C13.8542 9.33543 13.9346 9.18342 14.0442 9.05333C14.1508 8.9425 14.2608 8.88667 14.3925 8.88667V8.88667ZM15.5342 10.3083C15.8108 10.3083 16.145 10.3625 16.5475 10.6408C16.7917 10.8075 16.9833 10.865 17.4242 11.0308H17.4267C17.6392 11.1442 17.7642 11.2525 17.825 11.3633V11.2542C17.8549 11.3148 17.8716 11.381 17.8739 11.4486C17.8762 11.5161 17.864 11.5833 17.8383 11.6458C17.7358 11.9042 17.4083 12.1817 16.9525 12.3475V12.3492C16.7292 12.4617 16.535 12.6267 16.3067 12.7367C16.0767 12.8492 15.8167 12.98 15.4633 12.9592C15.3364 12.9657 15.2095 12.9468 15.09 12.9033C14.9977 12.8531 14.9081 12.798 14.8217 12.7383C14.6592 12.6258 14.5192 12.4617 14.3117 12.3508V12.3467H14.3075C13.9742 12.1417 13.7942 11.92 13.7358 11.755C13.6775 11.5317 13.7317 11.3633 13.8967 11.255C14.0833 11.1425 14.2133 11.0292 14.2992 10.975C14.3858 10.9133 14.4183 10.89 14.4458 10.8658H14.4475V10.8633C14.5883 10.695 14.8108 10.4717 15.1467 10.3625C15.2625 10.3325 15.3917 10.3083 15.535 10.3083H15.5342ZM17.8675 12.0933C18.1658 13.2742 18.8642 14.9892 19.3133 15.8208C19.5517 16.2658 20.0258 17.2033 20.2317 18.3408C20.3617 18.3367 20.5067 18.3558 20.6592 18.3942C21.1975 17.0017 20.2042 15.505 19.7517 15.0892C19.5683 14.9225 19.5583 14.81 19.6492 14.81C20.1408 15.255 20.7867 16.12 21.0208 17.1075C21.1292 17.5533 21.1542 18.0275 21.0383 18.4992C21.0942 18.5225 21.1508 18.5492 21.2092 18.555C22.0692 19 22.3867 19.3367 22.2342 19.8358V19.8C22.1842 19.7975 22.1342 19.8 22.0842 19.8H22.0708C22.1967 19.4108 21.9192 19.1125 21.1833 18.78C20.4208 18.4467 19.8117 18.5 19.7083 19.1675C19.7017 19.2033 19.6975 19.2225 19.6933 19.28C19.6367 19.2992 19.5775 19.3242 19.5192 19.3333C19.1608 19.5567 18.9675 19.8908 18.8583 20.3225C18.75 20.7667 18.7167 21.2858 18.6875 21.88V21.8825C18.6708 22.1608 18.5458 22.5808 18.4217 23.0075C17.1717 23.9008 15.4383 24.2892 13.965 23.2858C13.8725 23.1242 13.76 22.975 13.63 22.8417C13.5679 22.7382 13.4906 22.6447 13.4008 22.5642C13.5525 22.5642 13.6825 22.5392 13.7883 22.5083C13.9082 22.4527 14.0019 22.353 14.05 22.23C14.14 22.0075 14.05 21.6492 13.7625 21.2608C13.475 20.8717 12.9867 20.4317 12.2725 19.9933C11.7475 19.66 11.4508 19.2683 11.3142 18.83C11.1767 18.385 11.195 17.9258 11.3017 17.4592C11.5058 16.5675 12.0292 15.7008 12.3633 15.1567C12.4525 15.1025 12.3942 15.2692 12.0233 15.9683C11.6933 16.5942 11.0733 18.0492 11.9217 19.18C11.9537 18.3549 12.1364 17.5427 12.4608 16.7833C12.9308 15.7183 13.9133 13.8633 13.9908 12.3933C14.0308 12.4233 14.1717 12.5058 14.2317 12.5617C14.4133 12.6725 14.5483 12.8392 14.7233 12.9492C14.8983 13.1167 15.1208 13.2283 15.4533 13.2283C15.4858 13.2308 15.5158 13.2333 15.545 13.2333C15.8883 13.2333 16.1533 13.1217 16.3758 13.01C16.6175 12.8983 16.8092 12.7317 16.9925 12.6767H16.9967C17.3858 12.5642 17.6925 12.3417 17.8667 12.0933H17.8675ZM19.6883 19.5583C19.7192 20.0583 19.9742 20.5958 20.4233 20.7058C20.9133 20.8175 21.6183 20.4283 21.9158 20.0683L22.0917 20.06C22.3542 20.0542 22.5725 20.0683 22.7975 20.2833L22.8 20.2858C22.9733 20.4517 23.0542 20.7275 23.1258 21.0158C23.1967 21.3492 23.2542 21.6658 23.4667 21.9042C23.8717 22.3433 24.0042 22.6592 23.9967 22.8542L23.9992 22.8483V22.8633L23.9967 22.8533C23.9842 23.0717 23.8425 23.1833 23.5817 23.3492C23.0567 23.6833 22.1267 23.9425 21.5342 24.6575C21.0192 25.2717 20.3925 25.6075 19.8375 25.65C19.2842 25.6942 18.8067 25.4833 18.5258 24.9017L18.5217 24.8992C18.3467 24.5658 18.4217 24.045 18.5683 23.4908C18.715 22.9342 18.925 22.3708 18.9542 21.91C18.985 21.315 19.0175 20.7975 19.1167 20.3983C19.2167 20.0108 19.3733 19.7342 19.6508 19.5783L19.6883 19.56V19.5583ZM10.6767 19.5992H10.685C10.7292 19.5992 10.7725 19.6033 10.8158 19.6108C11.1292 19.6567 11.4042 19.8883 11.6683 20.2375L12.4267 21.6242L12.4292 21.6267C12.6317 22.0708 13.0575 22.5133 13.42 22.9908C13.7817 23.4892 14.0617 23.9333 14.0275 24.2992V24.3042C13.98 24.9242 13.6275 25.2608 13.09 25.3825C12.5525 25.495 11.8233 25.3842 11.0942 24.9958C10.2875 24.5492 9.32917 24.605 8.71333 24.4942C8.40583 24.4392 8.205 24.3275 8.11083 24.1608C8.01917 23.9942 8.01667 23.6592 8.21333 23.1358V23.1325L8.215 23.13C8.3125 22.8517 8.24 22.5033 8.1925 22.1983C8.14667 21.8642 8.12333 21.6067 8.22833 21.415C8.36167 21.1367 8.55833 21.0817 8.80333 20.9708C9.04833 20.8583 9.33667 20.8025 9.56583 20.5792H9.5675V20.5775C9.78083 20.3542 9.93833 20.0767 10.1242 19.8792C10.2825 19.7117 10.4408 19.5992 10.6767 19.5992V19.5992ZM16.6425 12.0375C16.28 12.205 15.855 12.4833 15.4025 12.4833C14.9508 12.4833 14.5942 12.2608 14.3358 12.095C14.2075 11.9833 14.1025 11.8717 14.025 11.8158C13.8883 11.7042 13.905 11.5383 13.9633 11.5383C14.0542 11.5517 14.0708 11.65 14.1292 11.705C14.2092 11.76 14.3083 11.8717 14.4292 11.9825C14.6725 12.1492 14.9958 12.3717 15.4017 12.3717C15.8058 12.3717 16.2792 12.1492 16.5667 11.9833C16.7292 11.8708 16.9375 11.705 17.1067 11.5942C17.2367 11.4808 17.2308 11.3717 17.3392 11.3717C17.4458 11.385 17.3675 11.4833 17.2167 11.6483C17.0318 11.7881 16.8399 11.9183 16.6417 12.0383L16.6425 12.0375ZM15.7408 10.7183V10.7C15.7358 10.6833 15.7517 10.665 15.765 10.6583C15.8267 10.6225 15.915 10.6358 15.9817 10.6617C16.0342 10.6617 16.115 10.7175 16.1067 10.7742C16.1017 10.815 16.0358 10.8292 15.9942 10.8292C15.9483 10.8292 15.9175 10.7933 15.8767 10.7725C15.8333 10.7575 15.755 10.7658 15.7408 10.7183ZM15.2817 10.7183C15.265 10.7667 15.1875 10.7592 15.1433 10.7733C15.1042 10.7942 15.0717 10.83 15.0267 10.83C14.985 10.83 14.9183 10.8133 14.9133 10.7733C14.905 10.7183 14.9867 10.6625 15.0383 10.6625C15.105 10.6367 15.1917 10.6233 15.2542 10.6583C15.27 10.6658 15.2842 10.6833 15.2792 10.7V10.7167H15.2817V10.7183Z" fill="#FCC624"/>
</g>
<defs>
<clipPath id="clip0_1121:422">
<rect width="20" height="20" fill="white" transform="translate(6 6)"/>
</clipPath>
</defs>
</svg>
