<svg width="203" height="20" viewBox="0 0 203 20" fill="none" xmlns="http://www.w3.org/2000/svg">
<path d="M0 2C0 0.895431 0.895431 0 2 0H57V20H2C0.89543 20 0 19.1046 0 18V2Z" fill="#2D2D2D"/>
<path d="M8.268 15C7.82 15 7.484 14.888 7.26 14.664C7.044 14.432 6.936 14.112 6.936 13.704V6.12H8.244V13.932H9.108V15H8.268ZM12.8059 15.144C12.3739 15.144 11.9779 15.068 11.6179 14.916C11.2659 14.764 10.9659 14.548 10.7179 14.268C10.4699 13.98 10.2779 13.636 10.1419 13.236C10.0059 12.828 9.93788 12.376 9.93788 11.88C9.93788 11.384 10.0059 10.936 10.1419 10.536C10.2779 10.128 10.4699 9.784 10.7179 9.504C10.9659 9.216 11.2659 8.996 11.6179 8.844C11.9779 8.692 12.3739 8.616 12.8059 8.616C13.2379 8.616 13.6299 8.692 13.9819 8.844C14.3419 8.996 14.6459 9.216 14.8939 9.504C15.1419 9.784 15.3339 10.128 15.4699 10.536C15.6059 10.936 15.6739 11.384 15.6739 11.88C15.6739 12.376 15.6059 12.828 15.4699 13.236C15.3339 13.636 15.1419 13.98 14.8939 14.268C14.6459 14.548 14.3419 14.764 13.9819 14.916C13.6299 15.068 13.2379 15.144 12.8059 15.144ZM12.8059 14.064C13.2539 14.064 13.6139 13.928 13.8859 13.656C14.1579 13.376 14.2939 12.96 14.2939 12.408V11.352C14.2939 10.8 14.1579 10.388 13.8859 10.116C13.6139 9.836 13.2539 9.696 12.8059 9.696C12.3579 9.696 11.9979 9.836 11.7259 10.116C11.4539 10.388 11.3179 10.8 11.3179 11.352V12.408C11.3179 12.96 11.4539 13.376 11.7259 13.656C11.9979 13.928 12.3579 14.064 12.8059 14.064ZM19.5433 15.144C19.0953 15.144 18.6953 15.068 18.3433 14.916C17.9913 14.764 17.6953 14.548 17.4553 14.268C17.2153 13.98 17.0313 13.636 16.9033 13.236C16.7753 12.828 16.7113 12.376 16.7113 11.88C16.7113 11.384 16.7753 10.936 16.9033 10.536C17.0313 10.128 17.2153 9.784 17.4553 9.504C17.6953 9.216 17.9913 8.996 18.3433 8.844C18.6953 8.692 19.0953 8.616 19.5433 8.616C20.1673 8.616 20.6793 8.756 21.0793 9.036C21.4793 9.316 21.7713 9.688 21.9553 10.152L20.8753 10.656C20.7873 10.368 20.6313 10.14 20.4073 9.972C20.1913 9.796 19.9033 9.708 19.5433 9.708C19.0633 9.708 18.6993 9.86 18.4513 10.164C18.2113 10.46 18.0913 10.848 18.0913 11.328V12.444C18.0913 12.924 18.2113 13.316 18.4513 13.62C18.6993 13.916 19.0633 14.064 19.5433 14.064C19.9273 14.064 20.2313 13.972 20.4553 13.788C20.6873 13.596 20.8713 13.344 21.0073 13.032L22.0033 13.56C21.7953 14.072 21.4833 14.464 21.0673 14.736C20.6513 15.008 20.1433 15.144 19.5433 15.144ZM27.8205 15C27.4765 15 27.2125 14.904 27.0285 14.712C26.8445 14.512 26.7325 14.26 26.6925 13.956H26.6325C26.5125 14.348 26.2925 14.644 25.9725 14.844C25.6525 15.044 25.2645 15.144 24.8085 15.144C24.1605 15.144 23.6605 14.976 23.3085 14.64C22.9645 14.304 22.7925 13.852 22.7925 13.284C22.7925 12.66 23.0165 12.192 23.4645 11.88C23.9205 11.568 24.5845 11.412 25.4565 11.412H26.5845V10.884C26.5845 10.5 26.4805 10.204 26.2725 9.996C26.0645 9.788 25.7405 9.684 25.3005 9.684C24.9325 9.684 24.6325 9.764 24.4005 9.924C24.1685 10.084 23.9725 10.288 23.8125 10.536L23.0325 9.828C23.2405 9.476 23.5325 9.188 23.9085 8.964C24.2845 8.732 24.7765 8.616 25.3845 8.616C26.1925 8.616 26.8125 8.804 27.2445 9.18C27.6765 9.556 27.8925 10.096 27.8925 10.8V13.932H28.5525V15H27.8205ZM25.1805 14.148C25.5885 14.148 25.9245 14.06 26.1885 13.884C26.4525 13.7 26.5845 13.456 26.5845 13.152V12.252H25.4805C24.5765 12.252 24.1245 12.532 24.1245 13.092V13.308C24.1245 13.588 24.2165 13.8 24.4005 13.944C24.5925 14.08 24.8525 14.148 25.1805 14.148ZM31.5273 15C31.0713 15 30.7273 14.884 30.4953 14.652C30.2633 14.412 30.1473 14.076 30.1473 13.644V9.828H29.1753V8.76H29.7033C29.9193 8.76 30.0673 8.712 30.1473 8.616C30.2353 8.52 30.2793 8.364 30.2793 8.148V7.056H31.4553V8.76H32.7633V9.828H31.4553V13.932H32.6673V15H31.5273ZM34.8421 7.644C34.5701 7.644 34.3701 7.58 34.2421 7.452C34.1221 7.324 34.0621 7.16 34.0621 6.96V6.756C34.0621 6.556 34.1221 6.392 34.2421 6.264C34.3701 6.136 34.5701 6.072 34.8421 6.072C35.1141 6.072 35.3101 6.136 35.4301 6.264C35.5501 6.392 35.6101 6.556 35.6101 6.756V6.96C35.6101 7.16 35.5501 7.324 35.4301 7.452C35.3101 7.58 35.1141 7.644 34.8421 7.644ZM34.1821 8.76H35.4901V15H34.1821V8.76ZM39.8059 15.144C39.3739 15.144 38.9779 15.068 38.6179 14.916C38.2659 14.764 37.9659 14.548 37.7179 14.268C37.4699 13.98 37.2779 13.636 37.1419 13.236C37.0059 12.828 36.9379 12.376 36.9379 11.88C36.9379 11.384 37.0059 10.936 37.1419 10.536C37.2779 10.128 37.4699 9.784 37.7179 9.504C37.9659 9.216 38.2659 8.996 38.6179 8.844C38.9779 8.692 39.3739 8.616 39.8059 8.616C40.2379 8.616 40.6299 8.692 40.9819 8.844C41.3419 8.996 41.6459 9.216 41.8939 9.504C42.1419 9.784 42.3339 10.128 42.4699 10.536C42.6059 10.936 42.6739 11.384 42.6739 11.88C42.6739 12.376 42.6059 12.828 42.4699 13.236C42.3339 13.636 42.1419 13.98 41.8939 14.268C41.6459 14.548 41.3419 14.764 40.9819 14.916C40.6299 15.068 40.2379 15.144 39.8059 15.144ZM39.8059 14.064C40.2539 14.064 40.6139 13.928 40.8859 13.656C41.1579 13.376 41.2939 12.96 41.2939 12.408V11.352C41.2939 10.8 41.1579 10.388 40.8859 10.116C40.6139 9.836 40.2539 9.696 39.8059 9.696C39.3579 9.696 38.9979 9.836 38.7259 10.116C38.4539 10.388 38.3179 10.8 38.3179 11.352V12.408C38.3179 12.96 38.4539 13.376 38.7259 13.656C38.9979 13.928 39.3579 14.064 39.8059 14.064ZM44.1313 15V8.76H45.4393V9.792H45.4993C45.6353 9.456 45.8393 9.176 46.1113 8.952C46.3913 8.728 46.7713 8.616 47.2513 8.616C47.8913 8.616 48.3873 8.828 48.7393 9.252C49.0993 9.668 49.2793 10.264 49.2793 11.04V15H47.9713V11.208C47.9713 10.232 47.5793 9.744 46.7953 9.744C46.6273 9.744 46.4593 9.768 46.2913 9.816C46.1313 9.856 45.9873 9.92 45.8593 10.008C45.7313 10.096 45.6273 10.208 45.5473 10.344C45.4753 10.48 45.4393 10.64 45.4393 10.824V15H44.1313Z" fill="#F5F5F5"/>
<path d="M57 0H201C202.105 0 203 0.895431 203 2V18C203 19.1046 202.105 20 201 20H57V0Z" fill="#484848"/>
<path d="M63.984 15V6.624H69.372V8.028H65.568V10.056H68.88V11.46H65.568V15H63.984ZM72.9345 15.144C72.4865 15.144 72.0825 15.068 71.7225 14.916C71.3705 14.764 71.0665 14.544 70.8105 14.256C70.5625 13.968 70.3705 13.624 70.2345 13.224C70.0985 12.816 70.0305 12.36 70.0305 11.856C70.0305 11.352 70.0985 10.9 70.2345 10.5C70.3705 10.1 70.5625 9.76 70.8105 9.48C71.0665 9.192 71.3705 8.972 71.7225 8.82C72.0825 8.668 72.4865 8.592 72.9345 8.592C73.3825 8.592 73.7865 8.668 74.1465 8.82C74.5065 8.972 74.8105 9.192 75.0585 9.48C75.3145 9.76 75.5105 10.1 75.6465 10.5C75.7825 10.9 75.8505 11.352 75.8505 11.856C75.8505 12.36 75.7825 12.816 75.6465 13.224C75.5105 13.624 75.3145 13.968 75.0585 14.256C74.8105 14.544 74.5065 14.764 74.1465 14.916C73.7865 15.068 73.3825 15.144 72.9345 15.144ZM72.9345 13.908C73.3425 13.908 73.6625 13.784 73.8945 13.536C74.1265 13.288 74.2425 12.924 74.2425 12.444V11.28C74.2425 10.808 74.1265 10.448 73.8945 10.2C73.6625 9.952 73.3425 9.828 72.9345 9.828C72.5345 9.828 72.2185 9.952 71.9865 10.2C71.7545 10.448 71.6385 10.808 71.6385 11.28V12.444C71.6385 12.924 71.7545 13.288 71.9865 13.536C72.2185 13.784 72.5345 13.908 72.9345 13.908ZM77.2122 15V8.736H78.7482V10.032H78.8082C78.8482 9.864 78.9082 9.704 78.9882 9.552C79.0762 9.392 79.1882 9.252 79.3242 9.132C79.4602 9.012 79.6202 8.916 79.8042 8.844C79.9962 8.772 80.2162 8.736 80.4642 8.736H80.8002V10.188H80.3202C79.8002 10.188 79.4082 10.264 79.1442 10.416C78.8802 10.568 78.7482 10.816 78.7482 11.16V15H77.2122ZM83.926 15C83.398 15 82.994 14.864 82.714 14.592C82.442 14.312 82.306 13.916 82.306 13.404V9.96H81.382V8.736H81.862C82.094 8.736 82.25 8.684 82.33 8.58C82.418 8.468 82.462 8.304 82.462 8.088V7.02H83.842V8.736H85.126V9.96H83.842V13.776H85.03V15H83.926ZM91.0663 15C90.7303 15 90.4623 14.904 90.2623 14.712C90.0703 14.512 89.9503 14.248 89.9023 13.92H89.8303C89.7263 14.328 89.5143 14.636 89.1943 14.844C88.8743 15.044 88.4783 15.144 88.0063 15.144C87.3663 15.144 86.8743 14.976 86.5303 14.64C86.1863 14.304 86.0143 13.856 86.0143 13.296C86.0143 12.648 86.2463 12.168 86.7103 11.856C87.1743 11.536 87.8343 11.376 88.6903 11.376H89.7583V10.92C89.7583 10.568 89.6663 10.296 89.4823 10.104C89.2983 9.912 89.0023 9.816 88.5943 9.816C88.2343 9.816 87.9423 9.896 87.7183 10.056C87.5023 10.208 87.3183 10.392 87.1663 10.608L86.2543 9.792C86.4863 9.432 86.7943 9.144 87.1783 8.928C87.5623 8.704 88.0703 8.592 88.7023 8.592C89.5503 8.592 90.1943 8.784 90.6343 9.168C91.0743 9.552 91.2943 10.104 91.2943 10.824V13.776H91.9183V15H91.0663ZM88.5223 14.028C88.8663 14.028 89.1583 13.952 89.3983 13.8C89.6383 13.648 89.7583 13.424 89.7583 13.128V12.3H88.7743C87.9743 12.3 87.5743 12.556 87.5743 13.068V13.272C87.5743 13.528 87.6543 13.72 87.8143 13.848C87.9823 13.968 88.2183 14.028 88.5223 14.028ZM94.6974 15C94.1694 15 93.7814 14.868 93.5334 14.604C93.2854 14.34 93.1614 13.968 93.1614 13.488V6.12H94.6974V13.776H95.5254V15H94.6974ZM99.2208 15.144C98.7568 15.144 98.3408 15.068 97.9728 14.916C97.6128 14.756 97.3048 14.536 97.0488 14.256C96.8008 13.968 96.6088 13.624 96.4728 13.224C96.3368 12.816 96.2688 12.36 96.2688 11.856C96.2688 11.36 96.3328 10.912 96.4608 10.512C96.5968 10.112 96.7888 9.772 97.0368 9.492C97.2848 9.204 97.5888 8.984 97.9488 8.832C98.3088 8.672 98.7168 8.592 99.1728 8.592C99.6608 8.592 100.085 8.676 100.445 8.844C100.805 9.012 101.101 9.24 101.333 9.528C101.565 9.816 101.737 10.152 101.849 10.536C101.969 10.912 102.029 11.316 102.029 11.748V12.252H97.8648V12.408C97.8648 12.864 97.9928 13.232 98.2488 13.512C98.5048 13.784 98.8848 13.92 99.3888 13.92C99.7728 13.92 100.085 13.84 100.325 13.68C100.573 13.52 100.793 13.316 100.985 13.068L101.813 13.992C101.557 14.352 101.205 14.636 100.757 14.844C100.317 15.044 99.8048 15.144 99.2208 15.144ZM99.1968 9.744C98.7888 9.744 98.4648 9.88 98.2248 10.152C97.9848 10.424 97.8648 10.776 97.8648 11.208V11.304H100.433V11.196C100.433 10.764 100.325 10.416 100.109 10.152C99.9008 9.88 99.5968 9.744 99.1968 9.744ZM102.878 15V13.776L106.13 9.948H102.986V8.736H107.93V9.924L104.654 13.776H108.014V15H102.878ZM113.953 15C113.617 15 113.349 14.904 113.149 14.712C112.957 14.512 112.837 14.248 112.789 13.92H112.717C112.613 14.328 112.401 14.636 112.081 14.844C111.761 15.044 111.365 15.144 110.893 15.144C110.253 15.144 109.761 14.976 109.417 14.64C109.073 14.304 108.901 13.856 108.901 13.296C108.901 12.648 109.133 12.168 109.597 11.856C110.061 11.536 110.721 11.376 111.577 11.376H112.645V10.92C112.645 10.568 112.553 10.296 112.369 10.104C112.185 9.912 111.889 9.816 111.481 9.816C111.121 9.816 110.829 9.896 110.605 10.056C110.389 10.208 110.205 10.392 110.053 10.608L109.141 9.792C109.373 9.432 109.681 9.144 110.065 8.928C110.449 8.704 110.957 8.592 111.589 8.592C112.437 8.592 113.081 8.784 113.521 9.168C113.961 9.552 114.181 10.104 114.181 10.824V13.776H114.805V15H113.953ZM111.409 14.028C111.753 14.028 112.045 13.952 112.285 13.8C112.525 13.648 112.645 13.424 112.645 13.128V12.3H111.661C110.861 12.3 110.461 12.556 110.461 13.068V13.272C110.461 13.528 110.541 13.72 110.701 13.848C110.869 13.968 111.105 14.028 111.409 14.028ZM117.089 13.152C117.417 13.152 117.657 13.236 117.809 13.404C117.969 13.572 118.049 13.784 118.049 14.04V14.256C118.049 14.472 118.017 14.696 117.953 14.928C117.897 15.16 117.813 15.384 117.701 15.6C117.597 15.816 117.469 16.02 117.317 16.212C117.173 16.404 117.009 16.572 116.825 16.716H115.733C116.005 16.452 116.233 16.192 116.417 15.936C116.601 15.688 116.741 15.412 116.837 15.108C116.589 15.068 116.409 14.972 116.297 14.82C116.185 14.66 116.129 14.472 116.129 14.256V14.04C116.129 13.784 116.205 13.572 116.357 13.404C116.509 13.236 116.753 13.152 117.089 13.152ZM125.935 15.144C125.383 15.144 124.883 15.056 124.435 14.88C123.995 14.696 123.615 14.424 123.295 14.064C122.983 13.704 122.743 13.26 122.575 12.732C122.407 12.196 122.323 11.576 122.323 10.872C122.323 10.168 122.407 9.544 122.575 9C122.743 8.448 122.983 7.988 123.295 7.62C123.615 7.244 123.995 6.96 124.435 6.768C124.883 6.576 125.383 6.48 125.935 6.48C126.687 6.48 127.311 6.64 127.807 6.96C128.303 7.28 128.699 7.764 128.995 8.412L127.639 9.132C127.519 8.756 127.323 8.456 127.051 8.232C126.779 8 126.407 7.884 125.935 7.884C125.343 7.884 124.871 8.084 124.519 8.484C124.175 8.884 124.003 9.444 124.003 10.164V11.484C124.003 12.212 124.175 12.772 124.519 13.164C124.871 13.548 125.343 13.74 125.935 13.74C126.407 13.74 126.791 13.612 127.087 13.356C127.391 13.1 127.611 12.784 127.747 12.408L129.031 13.164C128.727 13.788 128.323 14.276 127.819 14.628C127.315 14.972 126.687 15.144 125.935 15.144ZM132.818 15.144C132.354 15.144 131.938 15.068 131.57 14.916C131.21 14.756 130.902 14.536 130.646 14.256C130.398 13.968 130.206 13.624 130.07 13.224C129.934 12.816 129.866 12.36 129.866 11.856C129.866 11.36 129.93 10.912 130.058 10.512C130.194 10.112 130.386 9.772 130.634 9.492C130.882 9.204 131.186 8.984 131.546 8.832C131.906 8.672 132.314 8.592 132.77 8.592C133.258 8.592 133.682 8.676 134.042 8.844C134.402 9.012 134.698 9.24 134.93 9.528C135.162 9.816 135.334 10.152 135.446 10.536C135.566 10.912 135.626 11.316 135.626 11.748V12.252H131.462V12.408C131.462 12.864 131.59 13.232 131.846 13.512C132.102 13.784 132.482 13.92 132.986 13.92C133.37 13.92 133.682 13.84 133.922 13.68C134.17 13.52 134.39 13.316 134.582 13.068L135.41 13.992C135.154 14.352 134.802 14.636 134.354 14.844C133.914 15.044 133.402 15.144 132.818 15.144ZM132.794 9.744C132.386 9.744 132.062 9.88 131.822 10.152C131.582 10.424 131.462 10.776 131.462 11.208V11.304H134.03V11.196C134.03 10.764 133.922 10.416 133.706 10.152C133.498 9.88 133.194 9.744 132.794 9.744ZM141.586 15C141.25 15 140.982 14.904 140.782 14.712C140.59 14.512 140.47 14.248 140.422 13.92H140.35C140.246 14.328 140.034 14.636 139.714 14.844C139.394 15.044 138.998 15.144 138.526 15.144C137.886 15.144 137.394 14.976 137.05 14.64C136.706 14.304 136.534 13.856 136.534 13.296C136.534 12.648 136.766 12.168 137.23 11.856C137.694 11.536 138.354 11.376 139.21 11.376H140.278V10.92C140.278 10.568 140.186 10.296 140.002 10.104C139.818 9.912 139.522 9.816 139.114 9.816C138.754 9.816 138.462 9.896 138.238 10.056C138.022 10.208 137.838 10.392 137.686 10.608L136.774 9.792C137.006 9.432 137.314 9.144 137.698 8.928C138.082 8.704 138.59 8.592 139.222 8.592C140.07 8.592 140.714 8.784 141.154 9.168C141.594 9.552 141.814 10.104 141.814 10.824V13.776H142.438V15H141.586ZM139.042 14.028C139.386 14.028 139.678 13.952 139.918 13.8C140.158 13.648 140.278 13.424 140.278 13.128V12.3H139.294C138.494 12.3 138.094 12.556 138.094 13.068V13.272C138.094 13.528 138.174 13.72 138.334 13.848C138.502 13.968 138.738 14.028 139.042 14.028ZM143.681 15V8.736H145.217V10.032H145.277C145.317 9.864 145.377 9.704 145.457 9.552C145.545 9.392 145.657 9.252 145.793 9.132C145.929 9.012 146.089 8.916 146.273 8.844C146.465 8.772 146.685 8.736 146.933 8.736H147.269V10.188H146.789C146.269 10.188 145.877 10.264 145.613 10.416C145.349 10.568 145.217 10.816 145.217 11.16V15H143.681ZM152.871 15C152.535 15 152.267 14.904 152.067 14.712C151.875 14.512 151.755 14.248 151.707 13.92H151.635C151.531 14.328 151.319 14.636 150.999 14.844C150.679 15.044 150.283 15.144 149.811 15.144C149.171 15.144 148.679 14.976 148.335 14.64C147.991 14.304 147.819 13.856 147.819 13.296C147.819 12.648 148.051 12.168 148.515 11.856C148.979 11.536 149.639 11.376 150.495 11.376H151.563V10.92C151.563 10.568 151.471 10.296 151.287 10.104C151.103 9.912 150.807 9.816 150.399 9.816C150.039 9.816 149.747 9.896 149.523 10.056C149.307 10.208 149.123 10.392 148.971 10.608L148.059 9.792C148.291 9.432 148.599 9.144 148.983 8.928C149.367 8.704 149.875 8.592 150.507 8.592C151.355 8.592 151.999 8.784 152.439 9.168C152.879 9.552 153.099 10.104 153.099 10.824V13.776H153.723V15H152.871ZM150.327 14.028C150.671 14.028 150.963 13.952 151.203 13.8C151.443 13.648 151.563 13.424 151.563 13.128V12.3H150.579C149.779 12.3 149.379 12.556 149.379 13.068V13.272C149.379 13.528 149.459 13.72 149.619 13.848C149.787 13.968 150.023 14.028 150.327 14.028ZM150.699 8.028L149.775 7.584L150.915 5.34L152.211 5.976L150.699 8.028ZM157.61 12.108V10.584H161.042V12.108H157.61ZM165.562 6.624H169.438C169.782 6.624 170.09 6.676 170.362 6.78C170.642 6.884 170.878 7.028 171.07 7.212C171.262 7.396 171.406 7.624 171.502 7.896C171.606 8.16 171.658 8.452 171.658 8.772C171.658 9.092 171.614 9.364 171.526 9.588C171.446 9.804 171.334 9.984 171.19 10.128C171.054 10.272 170.894 10.38 170.71 10.452C170.534 10.524 170.35 10.564 170.158 10.572V10.644C170.342 10.644 170.538 10.68 170.746 10.752C170.962 10.824 171.158 10.94 171.334 11.1C171.518 11.252 171.67 11.452 171.79 11.7C171.91 11.94 171.97 12.24 171.97 12.6C171.97 12.936 171.914 13.252 171.802 13.548C171.698 13.836 171.55 14.088 171.358 14.304C171.166 14.52 170.938 14.692 170.674 14.82C170.41 14.94 170.122 15 169.81 15H165.562V6.624ZM167.146 13.656H169.354C169.658 13.656 169.894 13.58 170.062 13.428C170.23 13.268 170.314 13.04 170.314 12.744V12.336C170.314 12.04 170.23 11.812 170.062 11.652C169.894 11.492 169.658 11.412 169.354 11.412H167.146V13.656ZM167.146 10.116H169.102C169.39 10.116 169.614 10.04 169.774 9.888C169.934 9.728 170.014 9.508 170.014 9.228V8.856C170.014 8.576 169.934 8.36 169.774 8.208C169.614 8.048 169.39 7.968 169.102 7.968H167.146V10.116ZM173.423 15V8.736H174.959V10.032H175.019C175.059 9.864 175.119 9.704 175.199 9.552C175.287 9.392 175.399 9.252 175.535 9.132C175.671 9.012 175.831 8.916 176.015 8.844C176.207 8.772 176.427 8.736 176.675 8.736H177.011V10.188H176.531C176.011 10.188 175.619 10.264 175.355 10.416C175.091 10.568 174.959 10.816 174.959 11.16V15H173.423ZM182.613 15C182.277 15 182.009 14.904 181.809 14.712C181.617 14.512 181.497 14.248 181.449 13.92H181.377C181.273 14.328 181.061 14.636 180.741 14.844C180.421 15.044 180.025 15.144 179.553 15.144C178.913 15.144 178.421 14.976 178.077 14.64C177.733 14.304 177.561 13.856 177.561 13.296C177.561 12.648 177.793 12.168 178.257 11.856C178.721 11.536 179.381 11.376 180.237 11.376H181.305V10.92C181.305 10.568 181.213 10.296 181.029 10.104C180.845 9.912 180.549 9.816 180.141 9.816C179.781 9.816 179.489 9.896 179.265 10.056C179.049 10.208 178.865 10.392 178.713 10.608L177.801 9.792C178.033 9.432 178.341 9.144 178.725 8.928C179.109 8.704 179.617 8.592 180.249 8.592C181.097 8.592 181.741 8.784 182.181 9.168C182.621 9.552 182.841 10.104 182.841 10.824V13.776H183.465V15H182.613ZM180.069 14.028C180.413 14.028 180.705 13.952 180.945 13.8C181.185 13.648 181.305 13.424 181.305 13.128V12.3H180.321C179.521 12.3 179.121 12.556 179.121 13.068V13.272C179.121 13.528 179.201 13.72 179.361 13.848C179.529 13.968 179.765 14.028 180.069 14.028ZM184.264 15V13.776L187.516 9.948H184.372V8.736H189.316V9.924L186.04 13.776H189.4V15H184.264ZM191.5 7.824C191.18 7.824 190.948 7.752 190.804 7.608C190.668 7.464 190.6 7.28 190.6 7.056V6.816C190.6 6.592 190.668 6.408 190.804 6.264C190.948 6.12 191.18 6.048 191.5 6.048C191.812 6.048 192.04 6.12 192.184 6.264C192.328 6.408 192.4 6.592 192.4 6.816V7.056C192.4 7.28 192.328 7.464 192.184 7.608C192.04 7.752 191.812 7.824 191.5 7.824ZM190.732 8.736H192.268V15H190.732V8.736ZM195.584 15C195.056 15 194.668 14.868 194.42 14.604C194.172 14.34 194.048 13.968 194.048 13.488V6.12H195.584V13.776H196.412V15H195.584Z" fill="#F5F5F5"/>
</svg>
