<svg width="32" height="32" viewBox="0 0 32 32" fill="none" xmlns="http://www.w3.org/2000/svg">
<path d="M14 1.1547C15.2376 0.440169 16.7624 0.440169 18 1.1547L27.8564 6.8453C29.094 7.55983 29.8564 8.88034 29.8564 10.3094V21.6906C29.8564 23.1197 29.094 24.4402 27.8564 25.1547L18 30.8453C16.7624 31.5598 15.2376 31.5598 14 30.8453L4.14359 25.1547C2.90599 24.4402 2.14359 23.1197 2.14359 21.6906V10.3094C2.14359 8.88034 2.90599 7.55983 4.14359 6.8453L14 1.1547Z" fill="#F0F0F0"/>
<g clip-path="url(#clip0_1178:251)">
<path d="M22.8467 20.9233H9.15333C9.00188 20.9233 8.8519 20.8935 8.71197 20.8355C8.57204 20.7776 8.4449 20.6926 8.3378 20.5855C8.23071 20.4784 8.14575 20.3513 8.08779 20.2114C8.02983 20.0714 8 19.9215 8 19.77V12.23C8 11.9241 8.12151 11.6308 8.3378 11.4145C8.5541 11.1982 8.84745 11.0767 9.15333 11.0767H22.8467C22.9981 11.0767 23.1481 11.1065 23.288 11.1645C23.428 11.2224 23.5551 11.3074 23.6622 11.4145C23.7693 11.5216 23.8542 11.6487 23.9122 11.7886C23.9702 11.9286 24 12.0785 24 12.23V19.7687C24.0001 19.9202 23.9703 20.0702 23.9124 20.2102C23.8545 20.3502 23.7695 20.4775 23.6624 20.5846C23.5553 20.6918 23.4282 20.7768 23.2882 20.8348C23.1482 20.8928 22.9982 20.9227 22.8467 20.9227V20.9233ZM11.846 18.6153V15.6153L13.3847 17.5387L14.9227 15.6153V18.6153H16.4613V13.3853H14.9227L13.3847 15.3087L11.846 13.3853H10.3067V18.6167L11.846 18.6153ZM22.1547 16H20.6153V13.3847H19.0773V16H17.5387L19.846 18.6927L22.1547 16Z" fill="#1D1D1D"/>
</g>
<defs>
<clipPath id="clip0_1178:251">
<rect width="16" height="16" fill="white" transform="translate(8 8)"/>
</clipPath>
</defs>
</svg>
