<svg width="24" height="24" viewBox="0 0 24 24" fill="none" xmlns="http://www.w3.org/2000/svg">
<rect width="24" height="24" rx="2" fill="#2D2D2D"/>
<g clip-path="url(#clip0_1117:266)">
<path d="M18.8467 16.9233H5.15333C5.00188 16.9233 4.8519 16.8935 4.71197 16.8355C4.57204 16.7776 4.4449 16.6926 4.3378 16.5855C4.23071 16.4784 4.14575 16.3513 4.08779 16.2114C4.02983 16.0714 4 15.9215 4 15.77V8.22999C4 7.92411 4.12151 7.63076 4.3378 7.41446C4.5541 7.19817 4.84745 7.07666 5.15333 7.07666H18.8467C18.9981 7.07666 19.1481 7.10649 19.288 7.16445C19.428 7.22241 19.5551 7.30737 19.6622 7.41446C19.7693 7.52156 19.8542 7.6487 19.9122 7.78863C19.9702 7.92856 20 8.07854 20 8.22999V15.7687C20.0001 15.9202 19.9703 16.0702 19.9124 16.2102C19.8545 16.3502 19.7695 16.4775 19.6624 16.5846C19.5553 16.6918 19.4282 16.7768 19.2882 16.8348C19.1482 16.8928 18.9982 16.9227 18.8467 16.9227V16.9233ZM7.846 14.6153V11.6153L9.38467 13.5387L10.9227 11.6153V14.6153H12.4613V9.38533H10.9227L9.38467 11.3087L7.846 9.38533H6.30667V14.6167L7.846 14.6153ZM18.1547 12H16.6153V9.38466H15.0773V12H13.5387L15.846 14.6927L18.1547 12Z" fill="#F5F5F5"/>
</g>
<defs>
<clipPath id="clip0_1117:266">
<rect width="16" height="16" fill="white" transform="translate(4 4)"/>
</clipPath>
</defs>
</svg>
