<svg width="32" height="32" viewBox="0 0 32 32" fill="none" xmlns="http://www.w3.org/2000/svg">
<rect width="32" height="32" rx="2" fill="#0D1117"/>
<g clip-path="url(#clip0_1117:266)">
<path d="M24.5583 22.1542H7.44167C7.25234 22.1542 7.06488 22.1169 6.88996 22.0444C6.71505 21.972 6.55613 21.8658 6.42225 21.7319C6.28838 21.598 6.18219 21.4391 6.10974 21.2642C6.03729 21.0893 6 20.9018 6 20.7125V11.2875C6 10.9051 6.15189 10.5384 6.42225 10.2681C6.69262 9.99771 7.05931 9.84583 7.44167 9.84583H24.5583C24.7477 9.84583 24.9351 9.88312 25.11 9.95557C25.2849 10.028 25.4439 10.1342 25.5777 10.2681C25.7116 10.402 25.8178 10.5609 25.8903 10.7358C25.9627 10.9107 26 11.0982 26 11.2875V20.7108C26.0001 20.9002 25.9629 21.0878 25.8905 21.2628C25.8181 21.4378 25.7119 21.5968 25.578 21.7308C25.4442 21.8647 25.2852 21.971 25.1102 22.0435C24.9353 22.116 24.7477 22.1533 24.5583 22.1533V22.1542ZM10.8075 19.2692V15.5192L12.7308 17.9233L14.6533 15.5192V19.2692H16.5767V12.7317H14.6533L12.7308 15.1358L10.8075 12.7317H8.88333V19.2708L10.8075 19.2692ZM23.6933 16H21.7692V12.7308H19.8467V16H17.9233L20.8075 19.3658L23.6933 16Z" fill="#F5F5F5"/>
</g>
<defs>
<clipPath id="clip0_1117:266">
<rect width="20" height="20" fill="white" transform="translate(6 6)"/>
</clipPath>
</defs>
</svg>
