<svg width="24" height="24" viewBox="0 0 24 24" fill="none" xmlns="http://www.w3.org/2000/svg">
<rect width="24" height="24" rx="2" fill="#2D2D2D"/>
<path d="M4 4V20H20V4H4ZM11.0427 7.31267C11.4873 7.28133 11.71 7.35667 12.1027 7.474L12.3933 7.56067L12.4947 7.59133L12.866 7.70467C13.1093 7.77067 13.3647 7.77467 13.6093 7.716C13.941 7.62839 14.2936 7.66984 14.596 7.832C14.8687 7.98733 15.052 8.264 15.0873 8.57533C15.1193 8.85067 15.2793 9.09533 15.5193 9.23467C15.8773 9.43 16.25 9.59333 16.634 9.72533C16.9053 9.82933 17.1773 9.946 17.4467 10.0507C17.58 10.102 17.698 10.186 17.7893 10.2973C17.8659 10.39 17.9118 10.5041 17.9207 10.624C17.9373 10.8633 17.966 11.1053 17.978 11.3467H17.9767C17.9953 11.68 17.9233 12.0113 17.7653 12.306C17.7073 12.416 17.6433 12.52 17.59 12.63C17.555 12.7108 17.4949 12.7782 17.4187 12.8222C17.3425 12.8663 17.2541 12.8846 17.1667 12.8747C17.0999 12.8718 17.0343 12.8931 16.982 12.9347C16.818 13.042 16.6507 13.148 16.482 13.2487C16.2487 13.3773 15.9687 13.3927 15.7213 13.2887C15.3151 13.1339 14.884 13.0546 14.4493 13.0547C14.2334 13.048 14.0189 13.0911 13.8224 13.1807C13.6258 13.2703 13.4526 13.404 13.316 13.5713C13.2039 13.7273 13.1183 13.9008 13.0627 14.0847C12.914 14.4513 12.7867 16.6433 12.7867 17.202C12.7867 17.202 10.6793 16.792 8.7 14.7667L9.216 13.4133H7.6L8.76933 12.176H6.76L7.928 10.9373H6.01933L8.14467 8.682C8.79603 8.03565 9.61582 7.58521 10.5107 7.382C10.7227 7.34533 10.8947 7.32267 11.0427 7.31267V7.31267Z" fill="#F5F5F5"/>
</svg>
