<svg width="32" height="32" viewBox="0 0 32 32" fill="none" xmlns="http://www.w3.org/2000/svg">
<path d="M14 1.1547C15.2376 0.440169 16.7624 0.440169 18 1.1547L27.8564 6.8453C29.094 7.55983 29.8564 8.88034 29.8564 10.3094V21.6906C29.8564 23.1197 29.094 24.4402 27.8564 25.1547L18 30.8453C16.7624 31.5598 15.2376 31.5598 14 30.8453L4.14359 25.1547C2.90599 24.4402 2.14359 23.1197 2.14359 21.6906V10.3094C2.14359 8.88034 2.90599 7.55983 4.14359 6.8453L14 1.1547Z" fill="#F0F0F0"/>
<path d="M8 8V24H24V8H8ZM15.0427 11.3127C15.4873 11.2813 15.71 11.3567 16.1027 11.474L16.3933 11.5607L16.4947 11.5913L16.866 11.7047C17.1093 11.7707 17.3647 11.7747 17.6093 11.716C17.941 11.6284 18.2936 11.6698 18.596 11.832C18.8687 11.9873 19.052 12.264 19.0873 12.5753C19.1193 12.8507 19.2793 13.0953 19.5193 13.2347C19.8773 13.43 20.25 13.5933 20.634 13.7253C20.9053 13.8293 21.1773 13.946 21.4467 14.0507C21.58 14.102 21.698 14.186 21.7893 14.2973C21.8659 14.39 21.9118 14.5041 21.9207 14.624C21.9373 14.8633 21.966 15.1053 21.978 15.3467H21.9767C21.9953 15.68 21.9233 16.0113 21.7653 16.306C21.7073 16.416 21.6433 16.52 21.59 16.63C21.555 16.7108 21.4949 16.7782 21.4187 16.8222C21.3425 16.8663 21.2541 16.8846 21.1667 16.8747C21.0999 16.8718 21.0343 16.8931 20.982 16.9347C20.818 17.042 20.6507 17.148 20.482 17.2487C20.2487 17.3773 19.9687 17.3927 19.7213 17.2887C19.3151 17.1339 18.884 17.0546 18.4493 17.0547C18.2334 17.048 18.0189 17.0911 17.8224 17.1807C17.6258 17.2703 17.4526 17.404 17.316 17.5713C17.2039 17.7273 17.1183 17.9008 17.0627 18.0847C16.914 18.4513 16.7867 20.6433 16.7867 21.202C16.7867 21.202 14.6793 20.792 12.7 18.7667L13.216 17.4133H11.6L12.7693 16.176H10.76L11.928 14.9373H10.0193L12.1447 12.682C12.796 12.0356 13.6158 11.5852 14.5107 11.382C14.7227 11.3453 14.8947 11.3227 15.0427 11.3127V11.3127Z" fill="#1D1D1D"/>
</svg>
