<svg width="32" height="32" viewBox="0 0 32 32" fill="none" xmlns="http://www.w3.org/2000/svg">
<rect width="32" height="32" rx="2" fill="#0D1117"/>
<path d="M6 6V26H26V6H6ZM14.8033 10.1408C15.3592 10.1017 15.6375 10.1958 16.1283 10.3425L16.4917 10.4508L16.6183 10.4892L17.0825 10.6308C17.3867 10.7133 17.7058 10.7183 18.0117 10.645C18.4263 10.5355 18.8671 10.5873 19.245 10.79C19.5858 10.9842 19.815 11.33 19.8592 11.7192C19.8992 12.0633 20.0992 12.3692 20.3992 12.5433C20.8467 12.7875 21.3125 12.9917 21.7925 13.1567C22.1317 13.2867 22.4717 13.4325 22.8083 13.5633C22.975 13.6275 23.1225 13.7325 23.2367 13.8717C23.3324 13.9875 23.3897 14.1302 23.4008 14.28C23.4217 14.5792 23.4575 14.8817 23.4725 15.1833H23.4708C23.4942 15.6 23.4042 16.0142 23.2067 16.3825C23.1342 16.52 23.0542 16.65 22.9875 16.7875C22.9437 16.8885 22.8687 16.9727 22.7734 17.0278C22.6781 17.0828 22.5677 17.1058 22.4583 17.0933C22.3749 17.0898 22.2929 17.1164 22.2275 17.1683C22.0225 17.3025 21.8133 17.435 21.6025 17.5608C21.3108 17.7217 20.9608 17.7408 20.6517 17.6108C20.1439 17.4174 19.605 17.3183 19.0617 17.3183C18.7918 17.31 18.5236 17.3639 18.278 17.4759C18.0323 17.5879 17.8157 17.755 17.645 17.9642C17.5049 18.1592 17.3979 18.376 17.3283 18.6058C17.1425 19.0642 16.9833 21.8042 16.9833 22.5025C16.9833 22.5025 14.3492 21.99 11.875 19.4583L12.52 17.7667H10.5L11.9617 16.22H9.45L10.91 14.6717H8.52417L11.1808 11.8525C11.995 11.0446 13.0198 10.4815 14.1383 10.2275C14.4033 10.1817 14.6183 10.1533 14.8033 10.1408V10.1408Z" fill="#F5F5F5"/>
</svg>
