<svg width="24" height="24" viewBox="0 0 24 24" fill="none" xmlns="http://www.w3.org/2000/svg">
<rect width="24" height="24" rx="2" fill="#2D2D2D"/>
<path d="M15.5918 9.55238L15.5859 9.54991C15.5826 9.54858 15.5793 9.54738 15.5763 9.54445C15.5715 9.53931 15.568 9.53314 15.5659 9.52641C15.5639 9.51969 15.5634 9.51258 15.5646 9.50565L15.8872 7.53358L17.3999 9.04665L15.8267 9.71598C15.8223 9.71773 15.8176 9.71857 15.8129 9.71845H15.8067C15.8036 9.71646 15.8007 9.71409 15.7983 9.71138C15.7397 9.6462 15.6698 9.59231 15.5918 9.55238V9.55238ZM17.7858 9.43225L19.4033 11.0496C19.7392 11.3859 19.9073 11.5537 19.9687 11.7482C19.9779 11.7769 19.9853 11.8057 19.9912 11.8354L16.1259 10.1984C16.1238 10.1975 16.1217 10.1967 16.1197 10.1958C16.1042 10.1896 16.0863 10.1825 16.0863 10.1666C16.0863 10.1508 16.1046 10.1432 16.1201 10.137L16.1251 10.1349L17.7858 9.43225ZM19.9253 12.3544C19.8418 12.5114 19.6791 12.6741 19.4037 12.9499L17.5801 14.773L15.2217 14.2819L15.2091 14.2794C15.1883 14.276 15.1661 14.2722 15.1661 14.2535C15.1572 14.1562 15.1283 14.0618 15.0812 13.9762C15.0342 13.8905 14.9701 13.8155 14.8928 13.7557C14.8832 13.7461 14.8857 13.731 14.8886 13.7173C14.8886 13.7153 14.8886 13.7131 14.8895 13.7114L15.3331 10.9882L15.3347 10.979C15.3373 10.9582 15.341 10.934 15.3598 10.934C15.4548 10.9222 15.5466 10.8915 15.6297 10.8439C15.7128 10.7963 15.7856 10.7326 15.8438 10.6565C15.8475 10.6523 15.8501 10.6478 15.8551 10.6452C15.8685 10.639 15.8843 10.6452 15.8981 10.6511L19.9249 12.3544H19.9253ZM17.1608 15.1924L14.1621 18.191L14.6755 15.0364L14.6763 15.0322C14.6766 15.0281 14.6775 15.024 14.6788 15.02C14.683 15.01 14.6939 15.0058 14.7043 15.0017L14.7093 14.9996C14.8216 14.9517 14.921 14.8778 14.9993 14.7839C15.0093 14.7722 15.0214 14.7609 15.0369 14.7588C15.0409 14.7582 15.0449 14.7582 15.0489 14.7588L17.1604 15.1928L17.1608 15.1924ZM13.5275 18.8257L13.1895 19.1637L9.45266 13.7632C9.45132 13.7613 9.44994 13.7593 9.44852 13.7574C9.44266 13.7494 9.43639 13.7415 9.43766 13.7323C9.43806 13.7256 9.44226 13.7198 9.44686 13.7148L9.45099 13.7094C9.46232 13.6927 9.47186 13.676 9.48232 13.658L9.49066 13.6434L9.49192 13.6422C9.49772 13.6322 9.50319 13.6226 9.51319 13.6171C9.52192 13.6129 9.53406 13.6146 9.54366 13.6167L13.6835 14.4705C13.6951 14.4723 13.706 14.477 13.7153 14.4842C13.7206 14.4896 13.7219 14.4956 13.7232 14.5022C13.7521 14.6115 13.8058 14.7126 13.8802 14.7976C13.9546 14.8827 14.0477 14.9494 14.1521 14.9925C14.1638 14.9984 14.1588 15.0113 14.1535 15.025C14.1507 15.0311 14.1486 15.0374 14.1471 15.0438C14.095 15.361 13.6477 18.0892 13.5275 18.8257V18.8257ZM12.8215 19.5313C12.5723 19.778 12.4255 19.9086 12.2593 19.9611C12.0956 20.0129 11.9198 20.0129 11.7561 19.9611C11.5617 19.8994 11.3935 19.7316 11.0575 19.3953L7.30486 15.6426L8.28512 14.1225C8.28926 14.1149 8.29494 14.1082 8.30179 14.1029C8.31226 14.0954 8.32726 14.0987 8.33979 14.1029C8.56478 14.1708 8.80635 14.1585 9.02332 14.0682C9.03459 14.064 9.04586 14.0612 9.05459 14.0691C9.05896 14.0731 9.06288 14.0776 9.06626 14.0824L12.8214 19.5318L12.8215 19.5313ZM6.94312 15.2809L6.08226 14.42L7.78226 13.6947C7.78661 13.6928 7.7913 13.6918 7.79606 13.6918C7.81026 13.6918 7.81859 13.706 7.82606 13.7189C7.84315 13.7452 7.86125 13.7708 7.88032 13.7957L7.88579 13.8024C7.89079 13.8094 7.88746 13.8166 7.88246 13.8232L6.94352 15.2808L6.94312 15.2809ZM5.70126 14.039L4.61219 12.9499C4.42686 12.7646 4.29252 12.6303 4.19906 12.5147L7.51066 13.2016C7.5148 13.2023 7.51896 13.203 7.52312 13.2036C7.54359 13.2069 7.56612 13.2107 7.56612 13.2299C7.56612 13.2508 7.54146 13.2604 7.52066 13.2683L7.51106 13.2725L5.70126 14.039ZM4.00879 11.9546C4.01256 11.8845 4.02517 11.8151 4.04632 11.7481C4.10812 11.5536 4.27586 11.3858 4.61219 11.0496L6.00592 9.65585C6.64763 10.5872 7.29107 11.5173 7.93626 12.4462C7.94759 12.4612 7.96006 12.4779 7.94712 12.4904C7.88619 12.5576 7.82526 12.6311 7.78226 12.7108C7.77759 12.721 7.77041 12.7299 7.76139 12.7366C7.75606 12.74 7.75012 12.7386 7.74392 12.7375H7.74306L4.00879 11.9542V11.9546ZM6.37899 9.28278L8.25299 7.40878C8.42906 7.48592 9.07006 7.75678 9.64339 7.99878C10.0774 8.18238 10.4729 8.34931 10.5973 8.40351C10.6098 8.40858 10.6211 8.41352 10.6265 8.42605C10.6299 8.43358 10.6282 8.44318 10.6265 8.45112C10.5969 8.58639 10.6013 8.72691 10.6393 8.86006C10.6774 8.9932 10.748 9.1148 10.8447 9.21392C10.8573 9.22645 10.8447 9.24438 10.8339 9.25985L10.828 9.26858L8.92519 12.2159C8.92019 12.2242 8.91559 12.2312 8.90726 12.2367C8.89726 12.243 8.88306 12.24 8.87139 12.2371C8.79735 12.2177 8.72125 12.2074 8.64472 12.2062C8.57632 12.2062 8.50206 12.2188 8.42699 12.2326H8.42652C8.41819 12.2338 8.41066 12.2355 8.40399 12.2305C8.39663 12.2245 8.3903 12.2173 8.38526 12.2092L6.37899 9.28278ZM8.63146 7.03025L11.0575 4.60425C11.3935 4.26831 11.5617 4.10018 11.7561 4.03885C11.9198 3.98705 12.0956 3.98705 12.2594 4.03885C12.4538 4.10018 12.6219 4.26831 12.9579 4.60418L13.4837 5.13005L11.7582 7.80231C11.7539 7.81009 11.7481 7.81689 11.7411 7.82232C11.7307 7.82945 11.7161 7.82652 11.7035 7.82232C11.5675 7.78103 11.4234 7.77351 11.2838 7.80042C11.1442 7.82732 11.0133 7.88783 10.9023 7.97671C10.8911 7.98845 10.8743 7.98172 10.8602 7.97545C10.6349 7.87745 8.88219 7.13678 8.63152 7.03031L8.63146 7.03025ZM13.85 5.49631L15.4432 7.08952L15.0593 9.46718V9.47345C15.059 9.47887 15.0579 9.48421 15.056 9.48932C15.0518 9.49765 15.0435 9.49932 15.0351 9.50185C14.953 9.52672 14.8757 9.56523 14.8065 9.61578C14.8035 9.6179 14.8007 9.62026 14.7981 9.62285C14.7935 9.62785 14.7889 9.63245 14.7815 9.63331C14.7753 9.63351 14.7692 9.63251 14.7635 9.63038L12.3357 8.59885L12.3311 8.59678C12.3157 8.59051 12.2973 8.58298 12.2973 8.56711C12.2831 8.43183 12.2389 8.30142 12.168 8.18531C12.1563 8.16611 12.1433 8.14612 12.1533 8.12645L13.85 5.49631ZM12.2093 9.08752L14.4852 10.0515C14.4977 10.0573 14.5115 10.0627 14.5169 10.0756C14.5191 10.0834 14.5191 10.0917 14.5169 10.0994C14.5092 10.1355 14.505 10.1723 14.5044 10.2092V10.273C14.5044 10.2889 14.4881 10.2956 14.4731 10.3018L14.4685 10.3035C14.1079 10.4575 9.40686 12.4622 9.39979 12.4622C9.39266 12.4622 9.38512 12.4622 9.37806 12.455C9.36552 12.4425 9.37806 12.425 9.38932 12.4091C9.3913 12.4064 9.39323 12.4036 9.39512 12.4008L11.2654 9.50478L11.2687 9.49985C11.2796 9.48231 11.2921 9.46272 11.3121 9.46272L11.3309 9.46558C11.3735 9.47145 11.4111 9.47691 11.449 9.47691C11.7328 9.47691 11.9957 9.33878 12.1543 9.10258C12.158 9.09629 12.1628 9.09066 12.1684 9.08592C12.1797 9.07752 12.1964 9.08172 12.2093 9.08752V9.08752ZM9.60299 12.9203L14.7272 10.735C14.7272 10.735 14.7347 10.735 14.7419 10.742C14.7698 10.77 14.7936 10.7888 14.8165 10.8063L14.8278 10.8134C14.8382 10.8193 14.8487 10.826 14.8495 10.8368C14.8495 10.841 14.8495 10.8434 14.8486 10.8472L14.4097 13.5437L14.408 13.5546C14.4051 13.5754 14.4021 13.5992 14.3825 13.5992C14.2655 13.6071 14.1521 13.6435 14.0523 13.705C13.9525 13.7666 13.8692 13.8516 13.8096 13.9526L13.8075 13.956C13.8017 13.9656 13.7962 13.9748 13.7867 13.9798C13.7779 13.984 13.7667 13.9823 13.7575 13.9802L9.67092 13.1373C9.66672 13.1364 9.60746 12.9207 9.60292 12.9203H9.60299Z" fill="#00C7B7"/>
</svg>
