<svg width="32" height="32" viewBox="0 0 32 32" fill="none" xmlns="http://www.w3.org/2000/svg">
<rect width="32" height="32" rx="2" fill="#0D1117"/>
<g clip-path="url(#clip0_1138:394)">
<path d="M15.6438 6C15.4969 6 15.3857 6.00108 15.3452 6.00558C15.3022 6.01 15.1652 6.02308 15.0422 6.03292C12.2015 6.289 9.54074 7.8215 7.85549 10.1769C6.91708 11.4867 6.31691 12.9722 6.09024 14.5458C6.01008 15.095 6.00024 15.2573 6.00024 16.002C6.00024 16.7468 6.01024 16.909 6.09024 17.4583C6.63358 21.2133 9.30616 24.3682 12.9308 25.5371C13.5799 25.7463 14.2642 25.889 15.0422 25.975C15.3452 26.0083 16.6551 26.0083 16.9581 25.975C18.3012 25.8264 19.4391 25.4942 20.5612 24.9214C20.7332 24.8334 20.7665 24.81 20.7431 24.7903C20.7274 24.7788 19.9942 23.7955 19.1145 22.607L17.5153 20.447L15.5114 17.4817C14.4088 15.8514 13.5017 14.5184 13.4938 14.5184C13.486 14.5163 13.4782 15.834 13.4742 17.4426C13.4687 20.2594 13.4665 20.3728 13.4312 20.4393C13.3804 20.5351 13.3412 20.5741 13.2592 20.6171C13.1967 20.6483 13.1419 20.6542 12.8467 20.6542H12.5084L12.4186 20.5975C12.3629 20.5626 12.3176 20.5133 12.2876 20.4548L12.2465 20.3668L12.2509 16.4477L12.2565 12.5265L12.317 12.4502C12.3483 12.4092 12.4148 12.3565 12.4617 12.3311C12.5418 12.2919 12.5732 12.288 12.9113 12.288C13.3102 12.288 13.3767 12.3036 13.4802 12.4169C13.5097 12.4483 14.5947 14.0825 15.8927 16.0509C17.2071 18.0433 18.5222 20.0351 19.8381 22.0264L21.4216 24.4249L21.5016 24.3722C22.2114 23.9108 22.962 23.254 23.5563 22.5699C24.8212 21.1175 25.6366 19.3466 25.9102 17.4582C25.9903 16.909 26.0001 16.7466 26.0001 16.002C26.0001 15.2573 25.9901 15.095 25.9102 14.5457C25.3667 10.7907 22.6942 7.63575 19.0697 6.46692C18.4303 6.25967 17.75 6.11692 16.9876 6.03092C16.8467 6.01625 16.0847 6.00042 15.644 6.00008L15.6438 6ZM19.0342 12.0142C19.3237 12.0142 19.3744 12.0186 19.439 12.0533C19.5329 12.1002 19.609 12.1902 19.6365 12.2839C19.652 12.3347 19.656 13.4217 19.652 15.8709L19.6464 19.3855L19.0267 18.4355L18.405 17.4855V14.9305C18.405 13.2788 18.4127 12.3502 18.4245 12.3053C18.4557 12.1959 18.5242 12.1098 18.6181 12.0591C18.6982 12.0179 18.7275 12.0141 19.0345 12.0141L19.0342 12.0142Z" fill="#F5F5F5"/>
</g>
<defs>
<clipPath id="clip0_1138:394">
<rect width="20" height="20" fill="white" transform="translate(6 6)"/>
</clipPath>
</defs>
</svg>
