<svg width="24" height="24" viewBox="0 0 24 24" fill="none" xmlns="http://www.w3.org/2000/svg">
<rect width="24" height="24" rx="2" fill="#2D2D2D"/>
<g clip-path="url(#clip0_1138:394)">
<path d="M11.7151 4C11.5976 4 11.5086 4.00087 11.4762 4.00447C11.4418 4.008 11.3322 4.01847 11.2338 4.02633C8.96124 4.2312 6.83264 5.4572 5.48444 7.34153C4.73371 8.38933 4.25358 9.57773 4.07224 10.8367C4.00811 11.276 4.00024 11.4058 4.00024 12.0016C4.00024 12.5974 4.00824 12.7272 4.07224 13.1667C4.50691 16.1707 6.64498 18.6946 9.54471 19.6297C10.064 19.7971 10.6114 19.9112 11.2338 19.98C11.4762 20.0067 12.5241 20.0067 12.7665 19.98C13.841 19.8611 14.7513 19.5953 15.649 19.1371C15.7866 19.0667 15.8132 19.048 15.7945 19.0323C15.782 19.023 15.1954 18.2364 14.4916 17.2856L13.2123 15.5576L11.6092 13.1854C10.7271 11.8811 10.0014 10.8147 9.99511 10.8147C9.98884 10.813 9.98264 11.8672 9.97944 13.1541C9.97498 15.4075 9.97324 15.4982 9.94504 15.5514C9.90438 15.6281 9.87304 15.6593 9.80744 15.6937C9.75744 15.7186 9.71358 15.7233 9.47744 15.7233H9.20678L9.13491 15.678C9.09034 15.6501 9.05414 15.6106 9.03011 15.5639L8.99724 15.4935L9.00078 12.3581L9.00524 9.2212L9.05364 9.1602C9.07871 9.12733 9.13191 9.0852 9.16938 9.06487C9.23351 9.03353 9.25858 9.0304 9.52911 9.0304C9.84824 9.0304 9.90138 9.04287 9.98424 9.13353C10.0078 9.15867 10.8758 10.466 11.9142 12.0407C12.9657 13.6346 14.0178 15.2281 15.0705 16.8211L16.3373 18.7399L16.4013 18.6977C16.9692 18.3287 17.5696 17.8032 18.0451 17.2559C19.057 16.094 19.7093 14.6773 19.9282 13.1666C19.9923 12.7272 20.0001 12.5973 20.0001 12.0016C20.0001 11.4058 19.9921 11.276 19.9282 10.8365C19.4934 7.83253 17.3554 5.3086 14.4558 4.37353C13.9443 4.20773 13.4 4.09353 12.7901 4.02473C12.6774 4.013 12.0678 4.00033 11.7152 4.00007L11.7151 4ZM14.4274 8.81133C14.659 8.81133 14.6996 8.81487 14.7512 8.84267C14.8264 8.88013 14.8872 8.95213 14.9092 9.02713C14.9216 9.0678 14.9248 9.93733 14.9216 11.8967L14.9172 14.7084L14.4214 13.9484L13.924 13.1884V11.1444C13.924 9.82307 13.9302 9.0802 13.9396 9.04427C13.9646 8.95673 14.0194 8.88787 14.0945 8.84727C14.1586 8.81433 14.182 8.81127 14.4276 8.81127L14.4274 8.81133Z" fill="#F5F5F5"/>
</g>
<defs>
<clipPath id="clip0_1138:394">
<rect width="16" height="16" fill="white" transform="translate(4 4)"/>
</clipPath>
</defs>
</svg>
