<svg width="24" height="24" viewBox="0 0 24 24" fill="none" xmlns="http://www.w3.org/2000/svg">
<rect width="24" height="24" rx="2" fill="#2D2D2D"/>
<g clip-path="url(#clip0_1138:222)">
<path d="M11.9986 20C11.7846 20 11.5713 19.944 11.3839 19.8354L9.42661 18.6774C9.13461 18.514 9.27727 18.456 9.37327 18.422C9.76327 18.2867 9.84194 18.2554 10.2586 18.0194C10.3019 17.9947 10.3593 18.004 10.4039 18.0307L11.9079 18.9234C11.9626 18.9534 12.0393 18.9534 12.0893 18.9234L17.9526 15.5394C18.0073 15.508 18.0419 15.4454 18.0419 15.3807V8.61404C18.0419 8.54804 18.0066 8.48604 17.9506 8.45271L12.0899 5.07138C12.0359 5.04004 11.9639 5.04004 11.9093 5.07138L6.04994 8.45338C5.99327 8.48604 5.95727 8.55004 5.95727 8.61404V15.3807C5.95727 15.4454 5.99327 15.5067 6.04994 15.5374L7.65594 16.4654C8.52727 16.9014 9.06127 16.388 9.06127 15.872V9.19138C9.06127 9.09671 9.13727 9.02271 9.23194 9.02271H9.97527C10.0679 9.02271 10.1453 9.09738 10.1453 9.19138V15.872C10.1453 17.0354 9.51194 17.702 8.40927 17.702C8.07061 17.702 7.80327 17.702 7.05861 17.3347L5.51994 16.45C5.13994 16.2307 4.90527 15.82 4.90527 15.3807V8.61404C4.90527 8.17471 5.14061 7.76404 5.51994 7.54538L11.3833 4.15738C11.7546 3.94738 12.2473 3.94738 12.6153 4.15738L18.4779 7.54538C18.8579 7.76471 19.0939 8.17471 19.0939 8.61404V15.3807C19.0939 15.82 18.8579 16.2294 18.4779 16.45L12.6153 19.8354C12.4286 19.944 12.2159 20 11.9986 20ZM16.7326 13.3287C16.7326 12.062 15.8766 11.7247 14.0746 11.4867C12.2539 11.246 12.0686 11.1214 12.0686 10.6954C12.0686 10.3434 12.2253 9.87338 13.5739 9.87338C14.7786 9.87338 15.2226 10.1327 15.4053 10.9447C15.4213 11.0214 15.4913 11.0774 15.5699 11.0774H16.3306C16.3779 11.0774 16.4226 11.0567 16.4546 11.0234C16.4866 10.9874 16.5039 10.9414 16.4993 10.8927C16.3813 9.49404 15.4519 8.84204 13.5739 8.84204C11.9019 8.84204 10.9046 9.54738 10.9046 10.7307C10.9046 12.014 11.8966 12.3687 13.5013 12.5274C15.4213 12.7154 15.5699 12.996 15.5699 13.3734C15.5699 14.0287 15.0439 14.308 13.8086 14.308C12.2573 14.308 11.9159 13.9187 11.8013 13.1467C11.7879 13.064 11.7173 13.0034 11.6326 13.0034H10.8746C10.7806 13.0034 10.7053 13.078 10.7053 13.172C10.7053 14.16 11.2426 15.3374 13.8086 15.3374C15.6673 15.338 16.7326 14.6067 16.7326 13.3287Z" fill="#339933"/>
</g>
<defs>
<clipPath id="clip0_1138:222">
<rect width="16" height="16" fill="white" transform="translate(4 4)"/>
</clipPath>
</defs>
</svg>
