<svg width="32" height="32" viewBox="0 0 32 32" fill="none" xmlns="http://www.w3.org/2000/svg">
<rect width="32" height="32" rx="2" fill="#0D1117"/>
<g clip-path="url(#clip0_1138:222)">
<path d="M15.9983 26.0001C15.7308 26.0001 15.4641 25.9301 15.2299 25.7943L12.7833 24.3468C12.4183 24.1426 12.5966 24.0701 12.7166 24.0276C13.2041 23.8584 13.3024 23.8193 13.8233 23.5243C13.8774 23.4934 13.9491 23.5051 14.0049 23.5384L15.8849 24.6543C15.9533 24.6918 16.0491 24.6918 16.1116 24.6543L23.4408 20.4243C23.5091 20.3851 23.5524 20.3068 23.5524 20.2259V11.7676C23.5524 11.6851 23.5083 11.6076 23.4383 11.5659L16.1124 7.33925C16.0449 7.30009 15.9549 7.30009 15.8866 7.33925L8.56243 11.5668C8.49159 11.6076 8.44659 11.6876 8.44659 11.7676V20.2259C8.44659 20.3068 8.49159 20.3834 8.56243 20.4218L10.5699 21.5818C11.6591 22.1268 12.3266 21.4851 12.3266 20.8401V12.4893C12.3266 12.3709 12.4216 12.2784 12.5399 12.2784H13.4691C13.5849 12.2784 13.6816 12.3718 13.6816 12.4893V20.8401C13.6816 22.2943 12.8899 23.1276 11.5116 23.1276C11.0883 23.1276 10.7541 23.1276 9.82326 22.6684L7.89993 21.5626C7.42493 21.2884 7.13159 20.7751 7.13159 20.2259V11.7676C7.13159 11.2184 7.42576 10.7051 7.89993 10.4318L15.2291 6.19675C15.6933 5.93425 16.3091 5.93425 16.7691 6.19675L24.0974 10.4318C24.5724 10.7059 24.8674 11.2184 24.8674 11.7676V20.2259C24.8674 20.7751 24.5724 21.2868 24.0974 21.5626L16.7691 25.7943C16.5358 25.9301 16.2699 26.0001 15.9983 26.0001ZM21.9158 17.6609C21.9158 16.0776 20.8458 15.6559 18.5933 15.3584C16.3174 15.0576 16.0858 14.9018 16.0858 14.3693C16.0858 13.9293 16.2816 13.3418 17.9674 13.3418C19.4733 13.3418 20.0283 13.6659 20.2566 14.6809C20.2766 14.7768 20.3641 14.8468 20.4624 14.8468H21.4133C21.4724 14.8468 21.5283 14.8209 21.5683 14.7793C21.6083 14.7343 21.6299 14.6768 21.6241 14.6159C21.4766 12.8676 20.3149 12.0526 17.9674 12.0526C15.8774 12.0526 14.6308 12.9343 14.6308 14.4134C14.6308 16.0176 15.8708 16.4609 17.8766 16.6593C20.2766 16.8943 20.4624 17.2451 20.4624 17.7168C20.4624 18.5359 19.8049 18.8851 18.2608 18.8851C16.3216 18.8851 15.8949 18.3984 15.7516 17.4334C15.7349 17.3301 15.6466 17.2543 15.5408 17.2543H14.5933C14.4758 17.2543 14.3816 17.3476 14.3816 17.4651C14.3816 18.7001 15.0533 20.1718 18.2608 20.1718C20.5841 20.1726 21.9158 19.2584 21.9158 17.6609Z" fill="#339933"/>
</g>
<defs>
<clipPath id="clip0_1138:222">
<rect width="20" height="20" fill="white" transform="translate(6 6)"/>
</clipPath>
</defs>
</svg>
