<svg width="32" height="32" viewBox="0 0 32 32" fill="none" xmlns="http://www.w3.org/2000/svg">
<path d="M14 1.1547C15.2376 0.440169 16.7624 0.440169 18 1.1547L27.8564 6.8453C29.094 7.55983 29.8564 8.88034 29.8564 10.3094V21.6906C29.8564 23.1197 29.094 24.4402 27.8564 25.1547L18 30.8453C16.7624 31.5598 15.2376 31.5598 14 30.8453L4.14359 25.1547C2.90599 24.4402 2.14359 23.1197 2.14359 21.6906V10.3094C2.14359 8.88034 2.90599 7.55983 4.14359 6.8453L14 1.1547Z" fill="#CB3837"/>
<path d="M9.17533 8C8.524 8 8 8.524 8 9.17533V22.8247C8 23.476 8.524 24 9.17533 24H22.8247C23.476 24 24 23.476 24 22.8247V9.17533C24 8.524 23.476 8 22.8247 8H9.17533ZM11.42 11.5487L20.6447 11.5613L20.6387 20.7853H18.3293L18.336 13.864H16.032L16.0267 20.78H11.4087L11.42 11.5487Z" fill="#F0F0F0"/>
</svg>
