<svg width="100" height="24" viewBox="0 0 100 24" fill="none" xmlns="http://www.w3.org/2000/svg">
<rect width="100" height="24" rx="2" fill="#3F3F3F"/>
<path d="M10.272 17.144C9.728 17.144 9.232 17.052 8.784 16.868C8.344 16.676 7.964 16.4 7.644 16.04C7.332 15.672 7.088 15.22 6.912 14.684C6.744 14.14 6.66 13.516 6.66 12.812C6.66 12.108 6.744 11.488 6.912 10.952C7.088 10.408 7.332 9.956 7.644 9.596C7.964 9.228 8.344 8.952 8.784 8.768C9.232 8.576 9.728 8.48 10.272 8.48C10.816 8.48 11.308 8.576 11.748 8.768C12.196 8.952 12.576 9.228 12.888 9.596C13.208 9.956 13.452 10.408 13.62 10.952C13.796 11.488 13.884 12.108 13.884 12.812C13.884 13.516 13.796 14.14 13.62 14.684C13.452 15.22 13.208 15.672 12.888 16.04C12.576 16.4 12.196 16.676 11.748 16.868C11.308 17.052 10.816 17.144 10.272 17.144ZM10.272 15.932C10.592 15.932 10.884 15.876 11.148 15.764C11.42 15.652 11.648 15.492 11.832 15.284C12.024 15.068 12.172 14.808 12.276 14.504C12.38 14.2 12.432 13.856 12.432 13.472V12.152C12.432 11.768 12.38 11.424 12.276 11.12C12.172 10.816 12.024 10.56 11.832 10.352C11.648 10.136 11.42 9.972 11.148 9.86C10.884 9.748 10.592 9.692 10.272 9.692C9.944 9.692 9.648 9.748 9.384 9.86C9.12 9.972 8.892 10.136 8.7 10.352C8.516 10.56 8.372 10.816 8.268 11.12C8.164 11.424 8.112 11.768 8.112 12.152V13.472C8.112 13.856 8.164 14.2 8.268 14.504C8.372 14.808 8.516 15.068 8.7 15.284C8.892 15.492 9.12 15.652 9.384 15.764C9.648 15.876 9.944 15.932 10.272 15.932ZM18.0595 17.144C17.3555 17.144 16.7555 17.016 16.2595 16.76C15.7715 16.504 15.3515 16.16 14.9995 15.728L15.9355 14.852C16.2315 15.212 16.5555 15.484 16.9075 15.668C17.2675 15.852 17.6755 15.944 18.1315 15.944C18.6675 15.944 19.0715 15.824 19.3435 15.584C19.6155 15.344 19.7515 15.02 19.7515 14.612C19.7515 14.284 19.6555 14.024 19.4635 13.832C19.2715 13.64 18.9315 13.496 18.4435 13.4L17.6995 13.268C16.8835 13.116 16.2715 12.848 15.8635 12.464C15.4555 12.08 15.2515 11.552 15.2515 10.88C15.2515 10.512 15.3195 10.18 15.4555 9.884C15.5995 9.58 15.7955 9.328 16.0435 9.128C16.2995 8.92 16.6075 8.76 16.9675 8.648C17.3275 8.536 17.7315 8.48 18.1795 8.48C18.8115 8.48 19.3595 8.592 19.8235 8.816C20.2875 9.032 20.6835 9.348 21.0115 9.764L20.0635 10.604C19.8475 10.324 19.5835 10.1 19.2715 9.932C18.9595 9.764 18.5715 9.68 18.1075 9.68C17.6275 9.68 17.2555 9.776 16.9915 9.968C16.7275 10.16 16.5955 10.44 16.5955 10.808C16.5955 11.16 16.7035 11.424 16.9195 11.6C17.1355 11.768 17.4715 11.896 17.9275 11.984L18.6715 12.14C19.5115 12.3 20.1235 12.572 20.5075 12.956C20.8995 13.34 21.0955 13.868 21.0955 14.54C21.0955 14.932 21.0275 15.288 20.8915 15.608C20.7555 15.928 20.5555 16.204 20.2915 16.436C20.0355 16.66 19.7195 16.836 19.3435 16.964C18.9675 17.084 18.5395 17.144 18.0595 17.144Z" fill="#F5F5F5"/>
<path fill-rule="evenodd" clip-rule="evenodd" d="M86 11.9999C86 11.8673 86.0527 11.7401 86.1464 11.6463C86.2402 11.5526 86.3674 11.4999 86.5 11.4999H92.293L90.146 9.3539C90.0521 9.26001 89.9994 9.13267 89.9994 8.9999C89.9994 8.86712 90.0521 8.73979 90.146 8.6459C90.2399 8.55201 90.3672 8.49927 90.5 8.49927C90.6328 8.49927 90.7601 8.55201 90.854 8.6459L93.854 11.6459C93.9006 11.6923 93.9375 11.7475 93.9627 11.8083C93.9879 11.869 94.0009 11.9341 94.0009 11.9999C94.0009 12.0657 93.9879 12.1308 93.9627 12.1915C93.9375 12.2523 93.9006 12.3075 93.854 12.3539L90.854 15.3539C90.7601 15.4478 90.6328 15.5005 90.5 15.5005C90.3672 15.5005 90.2399 15.4478 90.146 15.3539C90.0521 15.26 89.9994 15.1327 89.9994 14.9999C89.9994 14.8671 90.0521 14.7398 90.146 14.6459L92.293 12.4999H86.5C86.3674 12.4999 86.2402 12.4472 86.1464 12.3535C86.0527 12.2597 86 12.1325 86 11.9999Z" fill="#F5F5F5"/>
</svg>
