<svg width="109" height="20" viewBox="0 0 109 20" fill="none" xmlns="http://www.w3.org/2000/svg">
<path d="M0 2C0 0.895431 0.895431 0 2 0H28V20H2C0.895431 20 0 19.1046 0 18V2Z" fill="#2D2D2D"/>
<path d="M10.272 15.144C9.728 15.144 9.232 15.052 8.784 14.868C8.344 14.676 7.964 14.4 7.644 14.04C7.332 13.672 7.088 13.22 6.912 12.684C6.744 12.14 6.66 11.516 6.66 10.812C6.66 10.108 6.744 9.488 6.912 8.952C7.088 8.408 7.332 7.956 7.644 7.596C7.964 7.228 8.344 6.952 8.784 6.768C9.232 6.576 9.728 6.48 10.272 6.48C10.816 6.48 11.308 6.576 11.748 6.768C12.196 6.952 12.576 7.228 12.888 7.596C13.208 7.956 13.452 8.408 13.62 8.952C13.796 9.488 13.884 10.108 13.884 10.812C13.884 11.516 13.796 12.14 13.62 12.684C13.452 13.22 13.208 13.672 12.888 14.04C12.576 14.4 12.196 14.676 11.748 14.868C11.308 15.052 10.816 15.144 10.272 15.144ZM10.272 13.932C10.592 13.932 10.884 13.876 11.148 13.764C11.42 13.652 11.648 13.492 11.832 13.284C12.024 13.068 12.172 12.808 12.276 12.504C12.38 12.2 12.432 11.856 12.432 11.472V10.152C12.432 9.768 12.38 9.424 12.276 9.12C12.172 8.816 12.024 8.56 11.832 8.352C11.648 8.136 11.42 7.972 11.148 7.86C10.884 7.748 10.592 7.692 10.272 7.692C9.944 7.692 9.648 7.748 9.384 7.86C9.12 7.972 8.892 8.136 8.7 8.352C8.516 8.56 8.372 8.816 8.268 9.12C8.164 9.424 8.112 9.768 8.112 10.152V11.472C8.112 11.856 8.164 12.2 8.268 12.504C8.372 12.808 8.516 13.068 8.7 13.284C8.892 13.492 9.12 13.652 9.384 13.764C9.648 13.876 9.944 13.932 10.272 13.932ZM18.0595 15.144C17.3555 15.144 16.7555 15.016 16.2595 14.76C15.7715 14.504 15.3515 14.16 14.9995 13.728L15.9355 12.852C16.2315 13.212 16.5555 13.484 16.9075 13.668C17.2675 13.852 17.6755 13.944 18.1315 13.944C18.6675 13.944 19.0715 13.824 19.3435 13.584C19.6155 13.344 19.7515 13.02 19.7515 12.612C19.7515 12.284 19.6555 12.024 19.4635 11.832C19.2715 11.64 18.9315 11.496 18.4435 11.4L17.6995 11.268C16.8835 11.116 16.2715 10.848 15.8635 10.464C15.4555 10.08 15.2515 9.552 15.2515 8.88C15.2515 8.512 15.3195 8.18 15.4555 7.884C15.5995 7.58 15.7955 7.328 16.0435 7.128C16.2995 6.92 16.6075 6.76 16.9675 6.648C17.3275 6.536 17.7315 6.48 18.1795 6.48C18.8115 6.48 19.3595 6.592 19.8235 6.816C20.2875 7.032 20.6835 7.348 21.0115 7.764L20.0635 8.604C19.8475 8.324 19.5835 8.1 19.2715 7.932C18.9595 7.764 18.5715 7.68 18.1075 7.68C17.6275 7.68 17.2555 7.776 16.9915 7.968C16.7275 8.16 16.5955 8.44 16.5955 8.808C16.5955 9.16 16.7035 9.424 16.9195 9.6C17.1355 9.768 17.4715 9.896 17.9275 9.984L18.6715 10.14C19.5115 10.3 20.1235 10.572 20.5075 10.956C20.8995 11.34 21.0955 11.868 21.0955 12.54C21.0955 12.932 21.0275 13.288 20.8915 13.608C20.7555 13.928 20.5555 14.204 20.2915 14.436C20.0355 14.66 19.7195 14.836 19.3435 14.964C18.9675 15.084 18.5395 15.144 18.0595 15.144Z" fill="#F5F5F5"/>
<path d="M28 0H107C108.105 0 109 0.895431 109 2V18C109 19.1046 108.105 20 107 20H28V0Z" fill="#484848"/>
<path d="M40.264 15L39.508 12.732H36.376L35.644 15H34.264L37.12 6.624H38.824L41.68 15H40.264ZM37.972 7.872H37.912L36.7 11.568H39.172L37.972 7.872ZM42.8813 15V8.76H44.1893V9.96H44.2493C44.3373 9.64 44.5213 9.36 44.8013 9.12C45.0813 8.88 45.4693 8.76 45.9653 8.76H46.3133V10.02H45.7973C45.2773 10.02 44.8773 10.104 44.5973 10.272C44.3253 10.44 44.1893 10.688 44.1893 11.016V15H42.8813ZM49.8285 15.144C49.3805 15.144 48.9805 15.068 48.6285 14.916C48.2765 14.764 47.9805 14.548 47.7405 14.268C47.5005 13.98 47.3165 13.636 47.1885 13.236C47.0605 12.828 46.9965 12.376 46.9965 11.88C46.9965 11.384 47.0605 10.936 47.1885 10.536C47.3165 10.128 47.5005 9.784 47.7405 9.504C47.9805 9.216 48.2765 8.996 48.6285 8.844C48.9805 8.692 49.3805 8.616 49.8285 8.616C50.4525 8.616 50.9645 8.756 51.3645 9.036C51.7645 9.316 52.0565 9.688 52.2405 10.152L51.1605 10.656C51.0725 10.368 50.9165 10.14 50.6925 9.972C50.4765 9.796 50.1885 9.708 49.8285 9.708C49.3485 9.708 48.9845 9.86 48.7365 10.164C48.4965 10.46 48.3765 10.848 48.3765 11.328V12.444C48.3765 12.924 48.4965 13.316 48.7365 13.62C48.9845 13.916 49.3485 14.064 49.8285 14.064C50.2125 14.064 50.5165 13.972 50.7405 13.788C50.9725 13.596 51.1565 13.344 51.2925 13.032L52.2885 13.56C52.0805 14.072 51.7685 14.464 51.3525 14.736C50.9365 15.008 50.4285 15.144 49.8285 15.144ZM53.5337 6.12H54.8417V9.792H54.9017C55.0377 9.456 55.2417 9.176 55.5137 8.952C55.7937 8.728 56.1737 8.616 56.6537 8.616C57.2937 8.616 57.7897 8.828 58.1417 9.252C58.5017 9.668 58.6817 10.264 58.6817 11.04V15H57.3737V11.196C57.3737 10.228 56.9817 9.744 56.1977 9.744C56.0297 9.744 55.8617 9.768 55.6937 9.816C55.5337 9.856 55.3897 9.92 55.2617 10.008C55.1337 10.096 55.0297 10.208 54.9497 10.344C54.8777 10.48 54.8417 10.636 54.8417 10.812V15H53.5337V6.12ZM61.8266 15C61.3786 15 61.0426 14.888 60.8186 14.664C60.6026 14.432 60.4946 14.112 60.4946 13.704V6.12H61.8026V13.932H62.6666V15H61.8266ZM64.5765 7.644C64.3045 7.644 64.1045 7.58 63.9765 7.452C63.8565 7.324 63.7965 7.16 63.7965 6.96V6.756C63.7965 6.556 63.8565 6.392 63.9765 6.264C64.1045 6.136 64.3045 6.072 64.5765 6.072C64.8485 6.072 65.0445 6.136 65.1645 6.264C65.2845 6.392 65.3445 6.556 65.3445 6.756V6.96C65.3445 7.16 65.2845 7.324 65.1645 7.452C65.0445 7.58 64.8485 7.644 64.5765 7.644ZM63.9165 8.76H65.2245V15H63.9165V8.76ZM67.0923 15V8.76H68.4003V9.792H68.4603C68.5963 9.456 68.8003 9.176 69.0723 8.952C69.3523 8.728 69.7323 8.616 70.2123 8.616C70.8523 8.616 71.3483 8.828 71.7003 9.252C72.0603 9.668 72.2403 10.264 72.2403 11.04V15H70.9323V11.208C70.9323 10.232 70.5403 9.744 69.7563 9.744C69.5883 9.744 69.4203 9.768 69.2523 9.816C69.0923 9.856 68.9483 9.92 68.8203 10.008C68.6923 10.096 68.5883 10.208 68.5083 10.344C68.4363 10.48 68.4003 10.64 68.4003 10.824V15H67.0923ZM77.8332 13.968H77.7852C77.7292 14.12 77.6532 14.268 77.5572 14.412C77.4692 14.556 77.3532 14.684 77.2092 14.796C77.0732 14.9 76.9052 14.984 76.7052 15.048C76.5132 15.112 76.2892 15.144 76.0332 15.144C75.3852 15.144 74.8812 14.936 74.5212 14.52C74.1692 14.104 73.9932 13.508 73.9932 12.732V8.76H75.3012V12.564C75.3012 13.532 75.7012 14.016 76.5012 14.016C76.6692 14.016 76.8332 13.996 76.9932 13.956C77.1532 13.908 77.2932 13.84 77.4132 13.752C77.5412 13.664 77.6412 13.552 77.7132 13.416C77.7932 13.28 77.8332 13.12 77.8332 12.936V8.76H79.1412V15H77.8332V13.968ZM80.3181 15L82.5141 11.844L80.3781 8.76H81.8901L83.2941 10.932H83.3301L84.7701 8.76H86.1621L84.0261 11.832L86.1981 15H84.6861L83.2461 12.732H83.2101L81.7101 15H80.3181Z" fill="#F5F5F5"/>
<path d="M96.695 4.30249C96.188 5.54599 95.882 6.35999 95.3175 7.56599C95.664 7.93299 96.089 8.36049 96.779 8.84299C96.037 8.53799 95.531 8.23099 95.153 7.91299C94.43 9.42099 93.298 11.569 91 15.6975C92.806 14.655 94.206 14.0125 95.5105 13.7665C95.4516 13.5129 95.4229 13.2533 95.425 12.993L95.4265 12.9355C95.4555 11.778 96.057 10.888 96.77 10.949C97.483 11.009 98.037 11.997 98.009 13.1535C98.0047 13.3625 97.9802 13.5706 97.936 13.775C99.226 14.0275 100.612 14.6685 102.393 15.697C102.042 15.0505 101.728 14.4675 101.429 13.912C100.957 13.547 100.465 13.071 99.462 12.5555C100.152 12.735 100.646 12.9415 101.031 13.1725C97.9855 7.50549 97.7395 6.75249 96.6955 4.30249H96.695ZM102.449 14.68V14.3685H102.332V14.3265H102.613V14.3685H102.496V14.68H102.661V14.3265H102.733L102.816 14.5765L102.833 14.63C102.839 14.6108 102.845 14.5918 102.852 14.573L102.937 14.3265H103V14.68H102.955V14.3835L102.851 14.68H102.809L102.707 14.379V14.68H102.661" fill="#1793D1"/>
</svg>
