<svg width="32" height="32" viewBox="0 0 32 32" fill="none" xmlns="http://www.w3.org/2000/svg">
<path d="M14 1.1547C15.2376 0.440169 16.7624 0.440169 18 1.1547L27.8564 6.8453C29.094 7.55983 29.8564 8.88034 29.8564 10.3094V21.6906C29.8564 23.1197 29.094 24.4402 27.8564 25.1547L18 30.8453C16.7624 31.5598 15.2376 31.5598 14 30.8453L4.14359 25.1547C2.90599 24.4402 2.14359 23.1197 2.14359 21.6906V10.3094C2.14359 8.88034 2.90599 7.55983 4.14359 6.8453L14 1.1547Z" fill="#3776AB"/>
<g clip-path="url(#clip0_1178:225)">
<path d="M17.5 8.12L18.1 8.25333L18.5866 8.42667L18.98 8.62667L19.28 8.84L19.5066 9.06667L19.6733 9.29333L19.78 9.51333L19.8466 9.71333L19.8733 9.88667L19.8866 10.02L19.88 10.1067V13.6667L19.8466 14.0867L19.76 14.4533L19.62 14.76L19.4466 15.0133L19.2466 15.22L19.0266 15.3867L18.7933 15.5133L18.56 15.6067L18.34 15.6733L18.14 15.72L17.9666 15.7467L17.8266 15.76H13.8466L13.3866 15.7933L12.9933 15.8867L12.66 16.0333L12.3866 16.2133L12.1666 16.4267L11.9866 16.66L11.8533 16.9L11.7533 17.1467L11.6866 17.38L11.64 17.5933L11.6133 17.7733L11.6 17.9133V19.9533H10.1133L9.97329 19.9333L9.78663 19.8867L9.57329 19.8067L9.33996 19.6867L9.09996 19.5133L8.85996 19.2733L8.62663 18.9667L8.41329 18.5733L8.22663 18.0867L8.08663 17.5L7.99329 16.8L7.95996 15.98L7.99996 15.1667L8.10663 14.4733L8.26663 13.8933L8.47996 13.42L8.71996 13.04L8.98663 12.7467L9.26663 12.5267L9.54663 12.3667L9.81329 12.26L10.0533 12.1933L10.2666 12.16L10.4266 12.1533H10.5333L10.5733 12.16H16.0133V11.6067H12.12L12.1133 9.77333L12.1 9.52667L12.1333 9.3L12.2066 9.09333L12.32 8.90667L12.4866 8.73333L12.6933 8.58L12.9466 8.44667L13.24 8.32667L13.58 8.22667L13.9666 8.14667L14.3933 8.08L14.8666 8.04L15.38 8.01333L15.94 8L16.7866 8.03333L17.5 8.12ZM13.3 9.44L13.1466 9.66L13.0933 9.93333L13.1466 10.2067L13.3 10.4333L13.52 10.58L13.7933 10.64L14.0666 10.58L14.2866 10.4333L14.44 10.2067L14.4933 9.93333L14.44 9.66L14.2866 9.44L14.0666 9.29333L13.7933 9.23333L13.52 9.29333L13.3 9.44ZM22.0266 12.0733L22.2133 12.1133L22.4266 12.1933L22.66 12.3133L22.9 12.4933L23.14 12.7267L23.3733 13.04L23.5866 13.4333L23.7733 13.92L23.9133 14.5067L24.0066 15.2L24.04 16.02L24 16.84L23.8933 17.5333L23.7333 18.1067L23.52 18.58L23.28 18.96L23.0133 19.26L22.7333 19.48L22.4533 19.64L22.1866 19.7467L21.9466 19.8067L21.7333 19.84L21.5733 19.8533L21.4666 19.8467H15.9866V20.3933H19.88L19.8866 22.2333L19.9 22.4733L19.8666 22.7L19.7933 22.9067L19.68 23.1L19.5133 23.2667L19.3066 23.4267L19.0533 23.56L18.76 23.6733L18.42 23.7733L18.0333 23.86L17.6066 23.92L17.1333 23.9667L16.62 23.9933L16.06 24L15.2133 23.9733L14.5 23.88L13.9 23.7467L13.4133 23.58L13.02 23.38L12.72 23.16L12.4933 22.9333L12.3266 22.7067L12.22 22.4867L12.1533 22.2867L12.1266 22.12L12.1133 21.9867L12.12 21.9V18.34L12.1533 17.9133L12.24 17.5533L12.38 17.2467L12.5533 16.9933L12.7533 16.78L12.9733 16.62L13.2066 16.4867L13.44 16.3933L13.66 16.3267L13.86 16.2867L14.0333 16.26L14.1733 16.2467L14.26 16.24H18.1533L18.6133 16.2067L19.0066 16.1133L19.34 15.9733L19.6133 15.7867L19.8333 15.5733L20.0133 15.34L20.1466 15.1L20.2466 14.86L20.3133 14.6267L20.36 14.4133L20.3866 14.2267L20.4 14.0867V12.0467H21.7933L21.8866 12.0533L22.0266 12.0733ZM17.7133 21.5733L17.56 21.7933L17.5066 22.0667L17.56 22.34L17.7133 22.56L17.9333 22.7133L18.2066 22.7667L18.48 22.7133L18.7 22.56L18.8533 22.34L18.9066 22.0667L18.8533 21.7933L18.7 21.5733L18.48 21.42L18.2066 21.3667L17.9333 21.42L17.7133 21.5733Z" fill="#F0F0F0"/>
</g>
<defs>
<clipPath id="clip0_1178:225">
<rect width="16" height="16" fill="white" transform="translate(8 8)"/>
</clipPath>
</defs>
</svg>
