<svg width="32" height="32" viewBox="0 0 32 32" fill="none" xmlns="http://www.w3.org/2000/svg">
<rect width="32" height="32" rx="4" fill="#3776AB"/>
<g clip-path="url(#clip0_1187:194)">
<path d="M18.2499 4.18L19.1499 4.38L19.8799 4.64L20.4699 4.94L20.9199 5.26L21.2599 5.6L21.5099 5.94L21.6699 6.27L21.7699 6.57L21.8099 6.83L21.8299 7.03L21.8199 7.16V12.5L21.7699 13.13L21.6399 13.68L21.4299 14.14L21.1699 14.52L20.8699 14.83L20.5399 15.08L20.1899 15.27L19.8399 15.41L19.5099 15.51L19.2099 15.58L18.9499 15.62L18.7399 15.64H12.7699L12.0799 15.69L11.4899 15.83L10.9899 16.05L10.5799 16.32L10.2499 16.64L9.97994 16.99L9.77994 17.35L9.62994 17.72L9.52994 18.07L9.45994 18.39L9.41994 18.66L9.39994 18.87V21.93H7.16994L6.95994 21.9L6.67994 21.83L6.35994 21.71L6.00994 21.53L5.64994 21.27L5.28994 20.91L4.93994 20.45L4.61994 19.86L4.33994 19.13L4.12994 18.25L3.98994 17.2L3.93994 15.97L3.99994 14.75L4.15994 13.71L4.39994 12.84L4.71994 12.13L5.07994 11.56L5.47994 11.12L5.89994 10.79L6.31994 10.55L6.71994 10.39L7.07994 10.29L7.39994 10.24L7.63994 10.23H7.79994L7.85994 10.24H16.0199V9.41H10.1799L10.1699 6.66L10.1499 6.29L10.1999 5.95L10.3099 5.64L10.4799 5.36L10.7299 5.1L11.0399 4.87L11.4199 4.67L11.8599 4.49L12.3699 4.34L12.9499 4.22L13.5899 4.12L14.2999 4.06L15.0699 4.02L15.9099 4L17.1799 4.05L18.2499 4.18ZM11.9499 6.16L11.7199 6.49L11.6399 6.9L11.7199 7.31L11.9499 7.65L12.2799 7.87L12.6899 7.96L13.0999 7.87L13.4299 7.65L13.6599 7.31L13.7399 6.9L13.6599 6.49L13.4299 6.16L13.0999 5.94L12.6899 5.85L12.2799 5.94L11.9499 6.16ZM25.0399 10.11L25.3199 10.17L25.6399 10.29L25.9899 10.47L26.3499 10.74L26.7099 11.09L27.0599 11.56L27.3799 12.15L27.6599 12.88L27.8699 13.76L28.0099 14.8L28.0599 16.03L27.9999 17.26L27.8399 18.3L27.5999 19.16L27.2799 19.87L26.9199 20.44L26.5199 20.89L26.0999 21.22L25.6799 21.46L25.2799 21.62L24.9199 21.71L24.5999 21.76L24.3599 21.78L24.1999 21.77H15.9799V22.59H21.8199L21.8299 25.35L21.8499 25.71L21.7999 26.05L21.6899 26.36L21.5199 26.65L21.2699 26.9L20.9599 27.14L20.5799 27.34L20.1399 27.51L19.6299 27.66L19.0499 27.79L18.4099 27.88L17.6999 27.95L16.9299 27.99L16.0899 28L14.8199 27.96L13.7499 27.82L12.8499 27.62L12.1199 27.37L11.5299 27.07L11.0799 26.74L10.7399 26.4L10.4899 26.06L10.3299 25.73L10.2299 25.43L10.1899 25.18L10.1699 24.98L10.1799 24.85V19.51L10.2299 18.87L10.3599 18.33L10.5699 17.87L10.8299 17.49L11.1299 17.17L11.4599 16.93L11.8099 16.73L12.1599 16.59L12.4899 16.49L12.7899 16.43L13.0499 16.39L13.2599 16.37L13.3899 16.36H19.2299L19.9199 16.31L20.5099 16.17L21.0099 15.96L21.4199 15.68L21.7499 15.36L22.0199 15.01L22.2199 14.65L22.3699 14.29L22.4699 13.94L22.5399 13.62L22.5799 13.34L22.5999 13.13V10.07H24.6899L24.8299 10.08L25.0399 10.11ZM18.5699 24.36L18.3399 24.69L18.2599 25.1L18.3399 25.51L18.5699 25.84L18.8999 26.07L19.3099 26.15L19.7199 26.07L20.0499 25.84L20.2799 25.51L20.3599 25.1L20.2799 24.69L20.0499 24.36L19.7199 24.13L19.3099 24.05L18.8999 24.13L18.5699 24.36Z" fill="#F0F0F0"/>
</g>
<defs>
<clipPath id="clip0_1187:194">
<rect width="24" height="24" fill="white" transform="translate(4 4)"/>
</clipPath>
</defs>
</svg>
