<svg width="32" height="32" viewBox="0 0 32 32" fill="none" xmlns="http://www.w3.org/2000/svg">
<rect width="32" height="32" rx="2" fill="#0D1117"/>
<g clip-path="url(#clip0_1117:225)">
<path d="M17.875 6.15L18.625 6.31667L19.2333 6.53333L19.725 6.78333L20.1 7.05L20.3833 7.33333L20.5916 7.61667L20.725 7.89167L20.8083 8.14167L20.8416 8.35833L20.8583 8.525L20.85 8.63333V13.0833L20.8083 13.6083L20.7 14.0667L20.525 14.45L20.3083 14.7667L20.0583 15.025L19.7833 15.2333L19.4916 15.3917L19.2 15.5083L18.925 15.5917L18.675 15.65L18.4583 15.6833L18.2833 15.7H13.3083L12.7333 15.7417L12.2416 15.8583L11.825 16.0417L11.4833 16.2667L11.2083 16.5333L10.9833 16.825L10.8166 17.125L10.6916 17.4333L10.6083 17.725L10.55 17.9917L10.5166 18.2167L10.5 18.3917V20.9417H8.64162L8.46662 20.9167L8.23328 20.8583L7.96662 20.7583L7.67495 20.6083L7.37495 20.3917L7.07495 20.0917L6.78328 19.7083L6.51662 19.2167L6.28328 18.6083L6.10828 17.875L5.99162 17L5.94995 15.975L5.99995 14.9583L6.13328 14.0917L6.33328 13.3667L6.59995 12.775L6.89995 12.3L7.23328 11.9333L7.58328 11.6583L7.93328 11.4583L8.26662 11.325L8.56662 11.2417L8.83328 11.2L9.03328 11.1917H9.16662L9.21662 11.2H16.0166V10.5083H11.15L11.1416 8.21667L11.125 7.90833L11.1666 7.625L11.2583 7.36667L11.4 7.13333L11.6083 6.91667L11.8666 6.725L12.1833 6.55833L12.55 6.40833L12.975 6.28333L13.4583 6.18333L13.9916 6.1L14.5833 6.05L15.225 6.01667L15.925 6L16.9833 6.04167L17.875 6.15ZM12.625 7.8L12.4333 8.075L12.3666 8.41667L12.4333 8.75833L12.625 9.04167L12.9 9.225L13.2416 9.3L13.5833 9.225L13.8583 9.04167L14.05 8.75833L14.1166 8.41667L14.05 8.075L13.8583 7.8L13.5833 7.61667L13.2416 7.54167L12.9 7.61667L12.625 7.8ZM23.5333 11.0917L23.7666 11.1417L24.0333 11.2417L24.325 11.3917L24.625 11.6167L24.925 11.9083L25.2166 12.3L25.4833 12.7917L25.7166 13.4L25.8916 14.1333L26.0083 15L26.05 16.025L26 17.05L25.8666 17.9167L25.6666 18.6333L25.4 19.225L25.1 19.7L24.7666 20.075L24.4166 20.35L24.0666 20.55L23.7333 20.6833L23.4333 20.7583L23.1666 20.8L22.9666 20.8167L22.8333 20.8083H15.9833V21.4917H20.85L20.8583 23.7917L20.875 24.0917L20.8333 24.375L20.7416 24.6333L20.6 24.875L20.3916 25.0833L20.1333 25.2833L19.8166 25.45L19.45 25.5917L19.025 25.7167L18.5416 25.825L18.0083 25.9L17.4166 25.9583L16.775 25.9917L16.075 26L15.0166 25.9667L14.125 25.85L13.375 25.6833L12.7666 25.475L12.275 25.225L11.9 24.95L11.6166 24.6667L11.4083 24.3833L11.275 24.1083L11.1916 23.8583L11.1583 23.65L11.1416 23.4833L11.15 23.375V18.925L11.1916 18.3917L11.3 17.9417L11.475 17.5583L11.6916 17.2417L11.9416 16.975L12.2166 16.775L12.5083 16.6083L12.8 16.4917L13.075 16.4083L13.325 16.3583L13.5416 16.325L13.7166 16.3083L13.825 16.3H18.6916L19.2666 16.2583L19.7583 16.1417L20.175 15.9667L20.5166 15.7333L20.7916 15.4667L21.0166 15.175L21.1833 14.875L21.3083 14.575L21.3916 14.2833L21.45 14.0167L21.4833 13.7833L21.5 13.6083V11.0583H23.2416L23.3583 11.0667L23.5333 11.0917ZM18.1416 22.9667L17.95 23.2417L17.8833 23.5833L17.95 23.925L18.1416 24.2L18.4166 24.3917L18.7583 24.4583L19.1 24.3917L19.375 24.2L19.5666 23.925L19.6333 23.5833L19.5666 23.2417L19.375 22.9667L19.1 22.775L18.7583 22.7083L18.4166 22.775L18.1416 22.9667Z" fill="#3776AB"/>
</g>
<defs>
<clipPath id="clip0_1117:225">
<rect width="20" height="20" fill="white" transform="translate(6 6)"/>
</clipPath>
</defs>
</svg>
