<svg width="24" height="24" viewBox="0 0 24 24" fill="none" xmlns="http://www.w3.org/2000/svg">
<rect width="24" height="24" rx="2" fill="#2D2D2D"/>
<g clip-path="url(#clip0_1117:225)">
<path d="M13.5 4.12L14.1 4.25333L14.5866 4.42667L14.98 4.62667L15.28 4.84L15.5066 5.06667L15.6733 5.29333L15.78 5.51333L15.8466 5.71333L15.8733 5.88667L15.8866 6.02L15.88 6.10667V9.66667L15.8466 10.0867L15.76 10.4533L15.62 10.76L15.4466 11.0133L15.2466 11.22L15.0266 11.3867L14.7933 11.5133L14.56 11.6067L14.34 11.6733L14.14 11.72L13.9666 11.7467L13.8266 11.76H9.84663L9.38663 11.7933L8.99329 11.8867L8.65996 12.0333L8.38663 12.2133L8.16663 12.4267L7.98663 12.66L7.85329 12.9L7.75329 13.1467L7.68663 13.38L7.63996 13.5933L7.61329 13.7733L7.59996 13.9133V15.9533H6.11329L5.97329 15.9333L5.78663 15.8867L5.57329 15.8067L5.33996 15.6867L5.09996 15.5133L4.85996 15.2733L4.62663 14.9667L4.41329 14.5733L4.22663 14.0867L4.08663 13.5L3.99329 12.8L3.95996 11.98L3.99996 11.1667L4.10663 10.4733L4.26663 9.89333L4.47996 9.42L4.71996 9.04L4.98663 8.74667L5.26663 8.52667L5.54663 8.36667L5.81329 8.26L6.05329 8.19333L6.26663 8.16L6.42663 8.15333H6.53329L6.57329 8.16H12.0133V7.60667H8.11996L8.11329 5.77333L8.09996 5.52667L8.13329 5.3L8.20663 5.09333L8.31996 4.90667L8.48663 4.73333L8.69329 4.58L8.94663 4.44667L9.23996 4.32667L9.57996 4.22667L9.96663 4.14667L10.3933 4.08L10.8666 4.04L11.38 4.01333L11.94 4L12.7866 4.03333L13.5 4.12ZM9.29996 5.44L9.14663 5.66L9.09329 5.93333L9.14663 6.20667L9.29996 6.43333L9.51996 6.58L9.79329 6.64L10.0666 6.58L10.2866 6.43333L10.44 6.20667L10.4933 5.93333L10.44 5.66L10.2866 5.44L10.0666 5.29333L9.79329 5.23333L9.51996 5.29333L9.29996 5.44ZM18.0266 8.07333L18.2133 8.11333L18.4266 8.19333L18.66 8.31333L18.9 8.49333L19.14 8.72667L19.3733 9.04L19.5866 9.43333L19.7733 9.92L19.9133 10.5067L20.0066 11.2L20.04 12.02L20 12.84L19.8933 13.5333L19.7333 14.1067L19.52 14.58L19.28 14.96L19.0133 15.26L18.7333 15.48L18.4533 15.64L18.1866 15.7467L17.9466 15.8067L17.7333 15.84L17.5733 15.8533L17.4666 15.8467H11.9866V16.3933H15.88L15.8866 18.2333L15.9 18.4733L15.8666 18.7L15.7933 18.9067L15.68 19.1L15.5133 19.2667L15.3066 19.4267L15.0533 19.56L14.76 19.6733L14.42 19.7733L14.0333 19.86L13.6066 19.92L13.1333 19.9667L12.62 19.9933L12.06 20L11.2133 19.9733L10.5 19.88L9.89996 19.7467L9.41329 19.58L9.01996 19.38L8.71996 19.16L8.49329 18.9333L8.32663 18.7067L8.21996 18.4867L8.15329 18.2867L8.12663 18.12L8.11329 17.9867L8.11996 17.9V14.34L8.15329 13.9133L8.23996 13.5533L8.37996 13.2467L8.55329 12.9933L8.75329 12.78L8.97329 12.62L9.20663 12.4867L9.43996 12.3933L9.65996 12.3267L9.85996 12.2867L10.0333 12.26L10.1733 12.2467L10.26 12.24H14.1533L14.6133 12.2067L15.0066 12.1133L15.34 11.9733L15.6133 11.7867L15.8333 11.5733L16.0133 11.34L16.1466 11.1L16.2466 10.86L16.3133 10.6267L16.36 10.4133L16.3866 10.2267L16.4 10.0867V8.04667H17.7933L17.8866 8.05333L18.0266 8.07333ZM13.7133 17.5733L13.56 17.7933L13.5066 18.0667L13.56 18.34L13.7133 18.56L13.9333 18.7133L14.2066 18.7667L14.48 18.7133L14.7 18.56L14.8533 18.34L14.9066 18.0667L14.8533 17.7933L14.7 17.5733L14.48 17.42L14.2066 17.3667L13.9333 17.42L13.7133 17.5733Z" fill="#3776AB"/>
</g>
<defs>
<clipPath id="clip0_1117:225">
<rect width="16" height="16" fill="white" transform="translate(4 4)"/>
</clipPath>
</defs>
</svg>
