<svg width="32" height="32" viewBox="0 0 32 32" fill="none" xmlns="http://www.w3.org/2000/svg">
<rect width="32" height="32" rx="2" fill="#0D1117"/>
<path d="M17.8583 16.0033C17.8583 16.4973 17.6621 16.9712 17.3129 17.3206C16.9636 17.67 16.4899 17.8664 15.9958 17.8666C15.5016 17.8666 15.0277 17.6703 14.6783 17.3209C14.3288 16.9714 14.1325 16.4975 14.1325 16.0033C14.1325 15.5093 14.3287 15.0354 14.678 14.686C15.0272 14.3366 15.501 14.1402 15.995 14.14C16.4892 14.14 16.9631 14.3363 17.3126 14.6857C17.662 15.0352 17.8583 15.5091 17.8583 16.0033V16.0033ZM20.065 7.09497C18.9433 7.09497 17.4758 7.89497 15.9917 9.27997C14.5083 7.90247 13.04 7.11164 11.9192 7.11164C11.5775 7.11164 11.2667 7.18914 10.9975 7.3433C9.85167 8.00414 9.595 10.0633 10.1867 12.6475C7.65 13.4308 6 14.6833 6 16.0033C6 17.3283 7.65833 18.5841 10.2025 19.3616C9.61583 21.9558 9.8775 24.0183 11.0258 24.6783C11.2925 24.8341 11.6008 24.9075 11.9442 24.9075C13.065 24.9075 14.5333 24.1075 16.0175 22.7208C17.5008 24.0991 18.9692 24.89 20.09 24.89C20.4317 24.89 20.7425 24.815 21.0117 24.6608C22.1567 24.0008 22.4142 21.9416 21.8225 19.3566C24.35 18.58 26 17.325 26 16.0033C26 14.6783 24.3417 13.4225 21.7975 12.6433C22.3842 10.0516 22.1225 7.98747 20.9742 7.32664C20.7092 7.1733 20.4008 7.0958 20.0642 7.09497H20.065ZM20.0608 8.0033V8.0083C20.2483 8.0083 20.3992 8.04497 20.5258 8.11414C21.0808 8.43247 21.3217 9.6433 21.1342 11.2008C21.0892 11.5841 21.0158 11.9883 20.9258 12.4008C20.1258 12.2041 19.2542 12.0533 18.3367 11.9558C17.7867 11.2016 17.2158 10.5166 16.6408 9.91664C17.9675 8.6833 19.2133 8.00664 20.0617 8.00414L20.0608 8.0033ZM11.9192 8.01997C12.7625 8.01997 14.0142 8.6933 15.3442 9.91997C14.7725 10.52 14.2025 11.2008 13.6608 11.955C12.7383 12.0525 11.8658 12.2033 11.0667 12.4033C10.9733 11.995 10.9042 11.6 10.855 11.22C10.6633 9.6633 10.9 8.4533 11.45 8.1308C11.6083 8.0558 11.7833 8.02497 11.9192 8.0208V8.01997ZM15.9875 10.5616C16.3667 10.9516 16.7458 11.3883 17.1208 11.865C16.7542 11.8483 16.3792 11.8366 16 11.8366C15.6167 11.8366 15.2375 11.845 14.8667 11.865C15.2333 11.3883 15.6125 10.9516 15.9875 10.5608V10.5616ZM16 12.75C16.6167 12.75 17.2308 12.7783 17.835 12.8275C18.1733 13.3125 18.5033 13.83 18.8208 14.3775C19.1308 14.9108 19.4125 15.4525 19.6692 15.9991C19.4125 16.545 19.1308 17.0908 18.825 17.6241C18.5083 18.1741 18.1808 18.6975 17.8417 19.1825C17.235 19.235 16.62 19.2641 16 19.2641C15.3833 19.2641 14.7692 19.235 14.165 19.1866C13.8267 18.7016 13.4967 18.1833 13.1792 17.6366C12.8692 17.1033 12.5875 16.5616 12.3308 16.015C12.5833 15.4675 12.8692 14.9208 13.175 14.3866C13.4917 13.8366 13.8192 13.315 14.1583 12.83C14.765 12.7766 15.38 12.7483 16 12.7483V12.75ZM12.9708 12.9616C12.7708 13.2758 12.5708 13.5975 12.3842 13.9283C12.1967 14.2533 12.0217 14.58 11.855 14.9066C11.6342 14.36 11.4467 13.815 11.2917 13.2841C11.825 13.1591 12.3875 13.0483 12.9708 12.9625V12.9616ZM19.0208 12.9616C19.6 13.0475 20.1583 13.1533 20.6925 13.2841C20.5425 13.8108 20.355 14.3525 20.1425 14.895C19.9758 14.57 19.8008 14.2425 19.6092 13.9166C19.4217 13.59 19.2217 13.2716 19.0217 12.9616H19.0208ZM21.5733 13.5241C21.9767 13.6491 22.36 13.7883 22.7192 13.9391C24.1625 14.5558 25.0958 15.3625 25.0958 16.0025C25.0917 16.6425 24.1583 17.4525 22.715 18.065C22.365 18.215 21.9817 18.35 21.5858 18.4758C21.3525 17.6775 21.0475 16.8458 20.6692 15.9925C21.0442 15.145 21.3442 14.3175 21.5733 13.5225V13.5241ZM10.4108 13.5275C10.6425 14.3275 10.9483 15.1583 11.3275 16.0108C10.9525 16.8583 10.6508 17.6858 10.4225 18.4808C10.0192 18.3558 9.63583 18.2158 9.28083 18.0641C7.8375 17.45 6.90417 16.6425 6.90417 16.0025C6.90417 15.3625 7.8375 14.5508 9.28083 13.9391C9.63083 13.7891 10.0142 13.6541 10.4108 13.5275V13.5275ZM20.1425 17.0941C20.3633 17.6416 20.5508 18.1875 20.7058 18.7175C20.1725 18.8483 19.6092 18.9591 19.0258 19.0425C19.2258 18.73 19.4258 18.4075 19.6133 18.0775C19.8008 17.7525 19.9758 17.4208 20.1433 17.0941H20.1425ZM11.855 17.1108C12.0217 17.4375 12.1967 17.7633 12.3883 18.09C12.58 18.415 12.7758 18.7333 12.9758 19.0425C12.3967 18.9575 11.8383 18.8508 11.3042 18.7208C11.4542 18.1958 11.6425 17.6525 11.8542 17.11L11.855 17.1108ZM20.9333 19.6C21.0267 20.0108 21.1 20.4066 21.145 20.7858C21.3367 22.3425 21.1 23.5525 20.55 23.8758C20.4275 23.9508 20.2683 23.9825 20.0808 23.9825C19.2375 23.9825 17.9858 23.31 16.6558 22.0825C17.2275 21.4825 17.7975 20.8025 18.3392 20.0491C19.2617 19.9508 20.1342 19.7991 20.9333 19.5991V19.6ZM11.075 19.6083C11.875 19.8033 12.7467 19.9541 13.6642 20.0516C14.2142 20.8058 14.785 21.4908 15.36 22.09C14.0308 23.3258 12.7833 24.0025 11.935 24.0025C11.7517 23.9983 11.5967 23.9608 11.4742 23.8925C10.9192 23.5758 10.6783 22.3641 10.8658 20.8066C10.9108 20.4233 10.9842 20.02 11.0742 19.6083H11.075ZM14.875 20.1416C15.2417 20.1583 15.6167 20.17 15.9958 20.17C16.3792 20.17 16.7583 20.1616 17.1292 20.1416C16.7625 20.6183 16.3833 21.0541 16.0083 21.4458C15.6292 21.0541 15.25 20.6183 14.875 20.1416Z" fill="#61DAFB"/>
</svg>
