<svg width="32" height="32" viewBox="0 0 32 32" fill="none" xmlns="http://www.w3.org/2000/svg">
<path d="M14 1.1547C15.2376 0.440169 16.7624 0.440169 18 1.1547L27.8564 6.8453C29.094 7.55983 29.8564 8.88034 29.8564 10.3094V21.6906C29.8564 23.1197 29.094 24.4402 27.8564 25.1547L18 30.8453C16.7624 31.5598 15.2376 31.5598 14 30.8453L4.14359 25.1547C2.90599 24.4402 2.14359 23.1197 2.14359 21.6906V10.3094C2.14359 8.88034 2.90599 7.55983 4.14359 6.8453L14 1.1547Z" fill="#61DAFB"/>
<path d="M17.4867 16.0026C17.4867 16.3979 17.3297 16.7769 17.0503 17.0565C16.7709 17.336 16.3919 17.4931 15.9967 17.4933C15.6013 17.4933 15.2222 17.3363 14.9426 17.0567C14.6631 16.7771 14.506 16.398 14.506 16.0026C14.506 15.6074 14.663 15.2284 14.9424 14.9488C15.2218 14.6693 15.6008 14.5122 15.996 14.512C16.3913 14.512 16.7705 14.669 17.0501 14.9486C17.3296 15.2281 17.4867 15.6073 17.4867 16.0026V16.0026ZM19.252 8.87598C18.3547 8.87598 17.1807 9.51598 15.9933 10.624C14.8067 9.52198 13.632 8.88931 12.7353 8.88931C12.462 8.88931 12.2133 8.95131 11.998 9.07464C11.0813 9.60331 10.876 11.2506 11.3493 13.318C9.32 13.9446 8 14.9466 8 16.0026C8 17.0626 9.32667 18.0673 11.362 18.6893C10.8927 20.7646 11.102 22.4146 12.0207 22.9426C12.234 23.0673 12.4807 23.126 12.7553 23.126C13.652 23.126 14.8267 22.486 16.014 21.3766C17.2007 22.4793 18.3753 23.112 19.272 23.112C19.5453 23.112 19.794 23.052 20.0093 22.9286C20.9253 22.4006 21.1313 20.7533 20.658 18.6853C22.68 18.064 24 17.06 24 16.0026C24 14.9426 22.6733 13.938 20.638 13.3146C21.1073 11.2413 20.898 9.58998 19.9793 9.06131C19.7673 8.93864 19.5207 8.87664 19.2513 8.87598H19.252ZM19.2487 9.60264V9.60664C19.3987 9.60664 19.5193 9.63598 19.6207 9.69131C20.0647 9.94598 20.2573 10.9146 20.1073 12.1606C20.0713 12.4673 20.0127 12.7906 19.9407 13.1206C19.3007 12.9633 18.6033 12.8426 17.8693 12.7646C17.4293 12.1613 16.9727 11.6133 16.5127 11.1333C17.574 10.1466 18.5707 9.60531 19.2493 9.60331L19.2487 9.60264ZM12.7353 9.61598C13.41 9.61598 14.4113 10.1546 15.4753 11.136C15.018 11.616 14.562 12.1606 14.1287 12.764C13.3907 12.842 12.6927 12.9626 12.0533 13.1226C11.9787 12.796 11.9233 12.48 11.884 12.176C11.7307 10.9306 11.92 9.96264 12.36 9.70464C12.4867 9.64464 12.6267 9.61998 12.7353 9.61664V9.61598ZM15.99 11.6493C16.2933 11.9613 16.5967 12.3106 16.8967 12.692C16.6033 12.6786 16.3033 12.6693 16 12.6693C15.6933 12.6693 15.39 12.676 15.0933 12.692C15.3867 12.3106 15.69 11.9613 15.99 11.6486V11.6493ZM16 13.4C16.4933 13.4 16.9847 13.4226 17.468 13.462C17.7387 13.85 18.0027 14.264 18.2567 14.702C18.5047 15.1286 18.73 15.562 18.9353 15.9993C18.73 16.436 18.5047 16.8726 18.26 17.2993C18.0067 17.7393 17.7447 18.158 17.4733 18.546C16.988 18.588 16.496 18.6113 16 18.6113C15.5067 18.6113 15.0153 18.588 14.532 18.5493C14.2613 18.1613 13.9973 17.7466 13.7433 17.3093C13.4953 16.8826 13.27 16.4493 13.0647 16.012C13.2667 15.574 13.4953 15.1366 13.74 14.7093C13.9933 14.2693 14.2553 13.852 14.5267 13.464C15.012 13.4213 15.504 13.3986 16 13.3986V13.4ZM13.5767 13.5693C13.4167 13.8206 13.2567 14.078 13.1073 14.3426C12.9573 14.6026 12.8173 14.864 12.684 15.1253C12.5073 14.688 12.3573 14.252 12.2333 13.8273C12.66 13.7273 13.11 13.6386 13.5767 13.57V13.5693ZM18.4167 13.5693C18.88 13.638 19.3267 13.7226 19.754 13.8273C19.634 14.2486 19.484 14.682 19.314 15.116C19.1807 14.856 19.0407 14.594 18.8873 14.3333C18.7373 14.072 18.5773 13.8173 18.4173 13.5693H18.4167ZM20.4587 14.0193C20.7813 14.1193 21.088 14.2306 21.3753 14.3513C22.53 14.8446 23.2767 15.49 23.2767 16.002C23.2733 16.514 22.5267 17.162 21.372 17.652C21.092 17.772 20.7853 17.88 20.4687 17.9806C20.282 17.342 20.038 16.6766 19.7353 15.994C20.0353 15.316 20.2753 14.654 20.4587 14.018V14.0193ZM11.5287 14.022C11.714 14.662 11.9587 15.3266 12.262 16.0086C11.962 16.6866 11.7207 17.3486 11.538 17.9846C11.2153 17.8846 10.9087 17.7726 10.6247 17.6513C9.47 17.16 8.72333 16.514 8.72333 16.002C8.72333 15.49 9.47 14.8406 10.6247 14.3513C10.9047 14.2313 11.2113 14.1233 11.5287 14.022V14.022ZM19.314 16.8753C19.4907 17.3133 19.6407 17.75 19.7647 18.174C19.338 18.2786 18.8873 18.3673 18.4207 18.434C18.5807 18.184 18.7407 17.926 18.8907 17.662C19.0407 17.402 19.1807 17.1366 19.3147 16.8753H19.314ZM12.684 16.8886C12.8173 17.15 12.9573 17.4106 13.1107 17.672C13.264 17.932 13.4207 18.1866 13.5807 18.434C13.1173 18.366 12.6707 18.2806 12.2433 18.1766C12.3633 17.7566 12.514 17.322 12.6833 16.888L12.684 16.8886ZM19.9467 18.88C20.0213 19.2086 20.08 19.5253 20.116 19.8286C20.2693 21.074 20.08 22.042 19.64 22.3006C19.542 22.3606 19.4147 22.386 19.2647 22.386C18.59 22.386 17.5887 21.848 16.5247 20.866C16.982 20.386 17.438 19.842 17.8713 19.2393C18.6093 19.1606 19.3073 19.0393 19.9467 18.8793V18.88ZM12.06 18.8866C12.7 19.0426 13.3973 19.1633 14.1313 19.2413C14.5713 19.8446 15.028 20.3926 15.488 20.872C14.4247 21.8606 13.4267 22.402 12.748 22.402C12.6013 22.3986 12.4773 22.3686 12.3793 22.314C11.9353 22.0606 11.7427 21.0913 11.8927 19.8453C11.9287 19.5386 11.9873 19.216 12.0593 18.8866H12.06ZM15.1 19.3133C15.3933 19.3266 15.6933 19.336 15.9967 19.336C16.3033 19.336 16.6067 19.3293 16.9033 19.3133C16.61 19.6946 16.3067 20.0433 16.0067 20.3566C15.7033 20.0433 15.4 19.6946 15.1 19.3133Z" fill="#1D1D1D"/>
</svg>
