<svg width="20" height="20" viewBox="0 0 20 20" fill="none" xmlns="http://www.w3.org/2000/svg">
<rect width="20" height="20" rx="2" fill="#61DAFB"/>
<g clip-path="url(#clip0_1279:133)">
<path d="M11.3937 10.0025C11.3937 10.3731 11.2466 10.7284 10.9847 10.9905C10.7227 11.2526 10.3674 11.3999 9.99687 11.4C9.62623 11.4 9.27078 11.2528 9.00869 10.9907C8.74661 10.7286 8.59937 10.3732 8.59937 10.0025C8.59937 9.63201 8.74653 9.27664 9.00847 9.01458C9.27042 8.75251 9.62572 8.6052 9.99625 8.60504C10.3669 8.60504 10.7223 8.75227 10.9844 9.01436C11.2465 9.27644 11.3937 9.6319 11.3937 10.0025V10.0025ZM13.0488 3.32129C12.2075 3.32129 11.1069 3.92129 9.99375 4.96004C8.88125 3.92691 7.78 3.33379 6.93938 3.33379C6.68313 3.33379 6.45 3.39191 6.24813 3.50754C5.38875 4.00316 5.19625 5.54754 5.64 7.48566C3.7375 8.07316 2.5 9.01254 2.5 10.0025C2.5 10.9963 3.74375 11.9382 5.65188 12.5213C5.21188 14.4669 5.40813 16.0138 6.26938 16.5088C6.46938 16.6257 6.70062 16.6807 6.95812 16.6807C7.79875 16.6807 8.9 16.0807 10.0131 15.0407C11.1256 16.0744 12.2269 16.6675 13.0675 16.6675C13.3238 16.6675 13.5569 16.6113 13.7587 16.4957C14.6175 16.0007 14.8106 14.4563 14.3669 12.5175C16.2625 11.935 17.5 10.9938 17.5 10.0025C17.5 9.00879 16.2563 8.06691 14.3481 7.48254C14.7881 5.53879 14.5919 3.99066 13.7306 3.49504C13.5319 3.38004 13.3006 3.32191 13.0481 3.32129H13.0488ZM13.0456 4.00254V4.00629C13.1862 4.00629 13.2994 4.03379 13.3944 4.08566C13.8106 4.32441 13.9912 5.23254 13.8506 6.40066C13.8169 6.68816 13.7619 6.99129 13.6944 7.30066C13.0944 7.15316 12.4406 7.04004 11.7525 6.96691C11.34 6.40129 10.9119 5.88754 10.4806 5.43754C11.4756 4.51254 12.41 4.00504 13.0463 4.00316L13.0456 4.00254ZM6.93938 4.01504C7.57188 4.01504 8.51063 4.52004 9.50813 5.44004C9.07938 5.89004 8.65187 6.40066 8.24562 6.96629C7.55375 7.03941 6.89937 7.15254 6.3 7.30254C6.23 6.99629 6.17813 6.70004 6.14125 6.41504C5.9975 5.24754 6.175 4.34004 6.5875 4.09816C6.70625 4.04191 6.8375 4.01879 6.93938 4.01566V4.01504ZM9.99062 5.92129C10.275 6.21379 10.5594 6.54129 10.8406 6.89879C10.5656 6.88629 10.2844 6.87754 10 6.87754C9.7125 6.87754 9.42813 6.88379 9.15 6.89879C9.425 6.54129 9.70937 6.21379 9.99062 5.92066V5.92129ZM10 7.56254C10.4625 7.56254 10.9231 7.58379 11.3762 7.62066C11.63 7.98441 11.8775 8.37254 12.1156 8.78316C12.3481 9.18316 12.5594 9.58941 12.7519 9.99941C12.5594 10.4088 12.3481 10.8182 12.1188 11.2182C11.8813 11.6307 11.6356 12.0232 11.3813 12.3869C10.9263 12.4263 10.465 12.4482 10 12.4482C9.5375 12.4482 9.07688 12.4263 8.62375 12.39C8.37 12.0263 8.1225 11.6375 7.88437 11.2275C7.65187 10.8275 7.44063 10.4213 7.24813 10.0113C7.4375 9.60066 7.65187 9.19066 7.88125 8.79004C8.11875 8.37754 8.36437 7.98629 8.61875 7.62254C9.07375 7.58254 9.535 7.56129 10 7.56129V7.56254ZM7.72812 7.72129C7.57812 7.95691 7.42812 8.19816 7.28812 8.44629C7.1475 8.69004 7.01625 8.93504 6.89125 9.18004C6.72563 8.77004 6.585 8.36129 6.46875 7.96316C6.86875 7.86941 7.29062 7.78629 7.72812 7.72191V7.72129ZM12.2656 7.72129C12.7 7.78566 13.1188 7.86504 13.5194 7.96316C13.4069 8.35816 13.2663 8.76441 13.1069 9.17129C12.9819 8.92754 12.8506 8.68191 12.7069 8.43754C12.5662 8.19254 12.4163 7.95379 12.2663 7.72129H12.2656ZM14.18 8.14316C14.4825 8.23691 14.77 8.34129 15.0394 8.45441C16.1219 8.91691 16.8219 9.52191 16.8219 10.0019C16.8188 10.4819 16.1188 11.0894 15.0363 11.5488C14.7738 11.6613 14.4862 11.7625 14.1894 11.8569C14.0144 11.2582 13.7856 10.6344 13.5019 9.99441C13.7831 9.35879 14.0081 8.73816 14.18 8.14191V8.14316ZM5.80813 8.14566C5.98188 8.74566 6.21125 9.36879 6.49563 10.0082C6.21438 10.6438 5.98813 11.2644 5.81688 11.8607C5.51438 11.7669 5.22688 11.6619 4.96063 11.5482C3.87813 11.0875 3.17813 10.4819 3.17813 10.0019C3.17813 9.52191 3.87813 8.91316 4.96063 8.45441C5.22313 8.34191 5.51063 8.24066 5.80813 8.14566V8.14566ZM13.1069 10.8207C13.2725 11.2313 13.4131 11.6407 13.5294 12.0382C13.1294 12.1363 12.7069 12.2194 12.2694 12.2819C12.4194 12.0475 12.5694 11.8057 12.71 11.5582C12.8506 11.3144 12.9819 11.0657 13.1075 10.8207H13.1069ZM6.89125 10.8332C7.01625 11.0782 7.1475 11.3225 7.29125 11.5675C7.435 11.8113 7.58188 12.05 7.73188 12.2819C7.2975 12.2182 6.87875 12.1382 6.47812 12.0407C6.59062 11.6469 6.73188 11.2394 6.89063 10.8325L6.89125 10.8332ZM13.7 12.7C13.77 13.0082 13.825 13.305 13.8587 13.5894C14.0025 14.7569 13.825 15.6644 13.4125 15.9069C13.3206 15.9632 13.2012 15.9869 13.0606 15.9869C12.4281 15.9869 11.4894 15.4825 10.4919 14.5619C10.9206 14.1119 11.3481 13.6019 11.7544 13.0369C12.4463 12.9632 13.1006 12.8494 13.7 12.6994V12.7ZM6.30625 12.7063C6.90625 12.8525 7.56 12.9657 8.24812 13.0388C8.66062 13.6044 9.08875 14.1182 9.52 14.5675C8.52313 15.4944 7.5875 16.0019 6.95125 16.0019C6.81375 15.9988 6.6975 15.9707 6.60562 15.9194C6.18937 15.6819 6.00875 14.7732 6.14938 13.605C6.18313 13.3175 6.23813 13.015 6.30563 12.7063H6.30625ZM9.15625 13.1063C9.43125 13.1188 9.7125 13.1275 9.99687 13.1275C10.2844 13.1275 10.5687 13.1213 10.8469 13.1063C10.5719 13.4638 10.2875 13.7907 10.0063 14.0844C9.72188 13.7907 9.4375 13.4638 9.15625 13.1063Z" fill="#0D1117"/>
</g>
<rect x="0.5" y="0.5" width="19" height="19" rx="1.5" stroke="black" stroke-opacity="0.1"/>
<defs>
<clipPath id="clip0_1279:133">
<rect width="15" height="15" fill="white" transform="translate(2.5 2.5)"/>
</clipPath>
</defs>
</svg>
