<svg width="32" height="32" viewBox="0 0 32 32" fill="none" xmlns="http://www.w3.org/2000/svg">
<rect width="32" height="32" rx="5" fill="#61DAFB"/>
<path d="M18.23 16.004C18.23 16.5968 17.9946 17.1654 17.5754 17.5847C17.1563 18.004 16.5879 18.2397 15.995 18.24C15.402 18.24 14.8332 18.0044 14.4139 17.5851C13.9946 17.1657 13.759 16.597 13.759 16.004C13.759 15.4111 13.9944 14.8425 14.4136 14.4232C14.8327 14.0039 15.4011 13.7682 15.994 13.768C16.587 13.768 17.1558 14.0035 17.5751 14.4229C17.9944 14.8422 18.23 15.4109 18.23 16.004V16.004ZM20.878 5.31396C19.532 5.31396 17.771 6.27397 15.99 7.93597C14.21 6.28297 12.448 5.33396 11.103 5.33396C10.693 5.33396 10.32 5.42696 9.997 5.61196C8.622 6.40496 8.314 8.87596 9.024 11.977C5.98 12.917 4 14.42 4 16.004C4 17.594 5.99 19.101 9.043 20.034C8.339 23.147 8.653 25.622 10.031 26.414C10.351 26.601 10.721 26.689 11.133 26.689C12.478 26.689 14.24 25.729 16.021 24.065C17.801 25.719 19.563 26.668 20.908 26.668C21.318 26.668 21.691 26.578 22.014 26.393C23.388 25.601 23.697 23.13 22.987 20.028C26.02 19.096 28 17.59 28 16.004C28 14.414 26.01 12.907 22.957 11.972C23.661 8.86196 23.347 6.38496 21.969 5.59196C21.651 5.40796 21.281 5.31496 20.877 5.31396H20.878ZM20.873 6.40396V6.40996C21.098 6.40996 21.279 6.45396 21.431 6.53696C22.097 6.91896 22.386 8.37196 22.161 10.241C22.107 10.701 22.019 11.186 21.911 11.681C20.951 11.445 19.905 11.264 18.804 11.147C18.144 10.242 17.459 9.41996 16.769 8.69996C18.361 7.21996 19.856 6.40796 20.874 6.40496L20.873 6.40396ZM11.103 6.42396C12.115 6.42396 13.617 7.23196 15.213 8.70396C14.527 9.42396 13.843 10.241 13.193 11.146C12.086 11.263 11.039 11.444 10.08 11.684C9.968 11.194 9.885 10.72 9.826 10.264C9.596 8.39596 9.88 6.94396 10.54 6.55696C10.73 6.46696 10.94 6.42996 11.103 6.42496V6.42396ZM15.985 9.47396C16.44 9.94196 16.895 10.466 17.345 11.038C16.905 11.018 16.455 11.004 16 11.004C15.54 11.004 15.085 11.014 14.64 11.038C15.08 10.466 15.535 9.94196 15.985 9.47296V9.47396ZM16 12.1C16.74 12.1 17.477 12.134 18.202 12.193C18.608 12.775 19.004 13.396 19.385 14.053C19.757 14.693 20.095 15.343 20.403 15.999C20.095 16.654 19.757 17.309 19.39 17.949C19.01 18.609 18.617 19.237 18.21 19.819C17.482 19.882 16.744 19.917 16 19.917C15.26 19.917 14.523 19.882 13.798 19.824C13.392 19.242 12.996 18.62 12.615 17.964C12.243 17.324 11.905 16.674 11.597 16.018C11.9 15.361 12.243 14.705 12.61 14.064C12.99 13.404 13.383 12.778 13.79 12.196C14.518 12.132 15.256 12.098 16 12.098V12.1ZM12.365 12.354C12.125 12.731 11.885 13.117 11.661 13.514C11.436 13.904 11.226 14.296 11.026 14.688C10.761 14.032 10.536 13.378 10.35 12.741C10.99 12.591 11.665 12.458 12.365 12.355V12.354ZM19.625 12.354C20.32 12.457 20.99 12.584 21.631 12.741C21.451 13.373 21.226 14.023 20.971 14.674C20.771 14.284 20.561 13.891 20.331 13.5C20.106 13.108 19.866 12.726 19.626 12.354H19.625ZM22.688 13.029C23.172 13.179 23.632 13.346 24.063 13.527C25.795 14.267 26.915 15.235 26.915 16.003C26.91 16.771 25.79 17.743 24.058 18.478C23.638 18.658 23.178 18.82 22.703 18.971C22.423 18.013 22.057 17.015 21.603 15.991C22.053 14.974 22.413 13.981 22.688 13.027V13.029ZM9.293 13.033C9.571 13.993 9.938 14.99 10.393 16.013C9.943 17.03 9.581 18.023 9.307 18.977C8.823 18.827 8.363 18.659 7.937 18.477C6.205 17.74 5.085 16.771 5.085 16.003C5.085 15.235 6.205 14.261 7.937 13.527C8.357 13.347 8.817 13.185 9.293 13.033V13.033ZM20.971 17.313C21.236 17.97 21.461 18.625 21.647 19.261C21.007 19.418 20.331 19.551 19.631 19.651C19.871 19.276 20.111 18.889 20.336 18.493C20.561 18.103 20.771 17.705 20.972 17.313H20.971ZM11.026 17.333C11.226 17.725 11.436 18.116 11.666 18.508C11.896 18.898 12.131 19.28 12.371 19.651C11.676 19.549 11.006 19.421 10.365 19.265C10.545 18.635 10.771 17.983 11.025 17.332L11.026 17.333ZM21.92 20.32C22.032 20.813 22.12 21.288 22.174 21.743C22.404 23.611 22.12 25.063 21.46 25.451C21.313 25.541 21.122 25.579 20.897 25.579C19.885 25.579 18.383 24.772 16.787 23.299C17.473 22.579 18.157 21.763 18.807 20.859C19.914 20.741 20.961 20.559 21.92 20.319V20.32ZM10.09 20.33C11.05 20.564 12.096 20.745 13.197 20.862C13.857 21.767 14.542 22.589 15.232 23.308C13.637 24.791 12.14 25.603 11.122 25.603C10.902 25.598 10.716 25.553 10.569 25.471C9.903 25.091 9.614 23.637 9.839 21.768C9.893 21.308 9.981 20.824 10.089 20.33H10.09ZM14.65 20.97C15.09 20.99 15.54 21.004 15.995 21.004C16.455 21.004 16.91 20.994 17.355 20.97C16.915 21.542 16.46 22.065 16.01 22.535C15.555 22.065 15.1 21.542 14.65 20.97Z" fill="#0D1117"/>
<rect x="0.5" y="0.5" width="31" height="31" rx="4.5" stroke="black" stroke-opacity="0.1"/>
</svg>
