<svg width="24" height="24" viewBox="0 0 24 24" fill="none" xmlns="http://www.w3.org/2000/svg">
<rect width="24" height="24" rx="2" fill="#2D2D2D"/>
<path d="M13.4867 12.0026C13.4867 12.3979 13.3297 12.7769 13.0503 13.0565C12.7709 13.336 12.3919 13.4931 11.9967 13.4933C11.6013 13.4933 11.2222 13.3363 10.9426 13.0567C10.6631 12.7771 10.506 12.398 10.506 12.0026C10.506 11.6074 10.663 11.2284 10.9424 10.9488C11.2218 10.6693 11.6008 10.5122 11.996 10.512C12.3913 10.512 12.7705 10.669 13.0501 10.9486C13.3296 11.2281 13.4867 11.6073 13.4867 12.0026V12.0026ZM15.252 4.87598C14.3547 4.87598 13.1807 5.51598 11.9933 6.62398C10.8067 5.52198 9.632 4.88931 8.73533 4.88931C8.462 4.88931 8.21333 4.95131 7.998 5.07464C7.08133 5.60331 6.876 7.25064 7.34933 9.31798C5.32 9.94464 4 10.9466 4 12.0026C4 13.0626 5.32667 14.0673 7.362 14.6893C6.89267 16.7646 7.102 18.4146 8.02067 18.9426C8.234 19.0673 8.48067 19.126 8.75533 19.126C9.652 19.126 10.8267 18.486 12.014 17.3766C13.2007 18.4793 14.3753 19.112 15.272 19.112C15.5453 19.112 15.794 19.052 16.0093 18.9286C16.9253 18.4006 17.1313 16.7533 16.658 14.6853C18.68 14.064 20 13.06 20 12.0026C20 10.9426 18.6733 9.93798 16.638 9.31464C17.1073 7.24131 16.898 5.58998 15.9793 5.06131C15.7673 4.93864 15.5207 4.87664 15.2513 4.87598H15.252ZM15.2487 5.60264V5.60664C15.3987 5.60664 15.5193 5.63598 15.6207 5.69131C16.0647 5.94598 16.2573 6.91464 16.1073 8.16064C16.0713 8.46731 16.0127 8.79064 15.9407 9.12064C15.3007 8.96331 14.6033 8.84264 13.8693 8.76464C13.4293 8.16131 12.9727 7.61331 12.5127 7.13331C13.574 6.14664 14.5707 5.60531 15.2493 5.60331L15.2487 5.60264ZM8.73533 5.61598C9.41 5.61598 10.4113 6.15464 11.4753 7.13598C11.018 7.61598 10.562 8.16064 10.1287 8.76398C9.39067 8.84198 8.69267 8.96264 8.05333 9.12264C7.97867 8.79598 7.92333 8.47998 7.884 8.17598C7.73067 6.93064 7.92 5.96264 8.36 5.70464C8.48667 5.64464 8.62667 5.61998 8.73533 5.61664V5.61598ZM11.99 7.64931C12.2933 7.96131 12.5967 8.31064 12.8967 8.69198C12.6033 8.67864 12.3033 8.66931 12 8.66931C11.6933 8.66931 11.39 8.67598 11.0933 8.69198C11.3867 8.31064 11.69 7.96131 11.99 7.64864V7.64931ZM12 9.39998C12.4933 9.39998 12.9847 9.42264 13.468 9.46198C13.7387 9.84998 14.0027 10.264 14.2567 10.702C14.5047 11.1286 14.73 11.562 14.9353 11.9993C14.73 12.436 14.5047 12.8726 14.26 13.2993C14.0067 13.7393 13.7447 14.158 13.4733 14.546C12.988 14.588 12.496 14.6113 12 14.6113C11.5067 14.6113 11.0153 14.588 10.532 14.5493C10.2613 14.1613 9.99733 13.7466 9.74333 13.3093C9.49533 12.8826 9.27 12.4493 9.06467 12.012C9.26667 11.574 9.49533 11.1366 9.74 10.7093C9.99333 10.2693 10.2553 9.85198 10.5267 9.46398C11.012 9.42131 11.504 9.39864 12 9.39864V9.39998ZM9.57667 9.56931C9.41667 9.82064 9.25667 10.078 9.10733 10.3426C8.95733 10.6026 8.81733 10.864 8.684 11.1253C8.50733 10.688 8.35733 10.252 8.23333 9.82731C8.66 9.72731 9.11 9.63864 9.57667 9.56998V9.56931ZM14.4167 9.56931C14.88 9.63798 15.3267 9.72264 15.754 9.82731C15.634 10.2486 15.484 10.682 15.314 11.116C15.1807 10.856 15.0407 10.594 14.8873 10.3333C14.7373 10.072 14.5773 9.81731 14.4173 9.56931H14.4167ZM16.4587 10.0193C16.7813 10.1193 17.088 10.2306 17.3753 10.3513C18.53 10.8446 19.2767 11.49 19.2767 12.002C19.2733 12.514 18.5267 13.162 17.372 13.652C17.092 13.772 16.7853 13.88 16.4687 13.9806C16.282 13.342 16.038 12.6766 15.7353 11.994C16.0353 11.316 16.2753 10.654 16.4587 10.018V10.0193ZM7.52867 10.022C7.714 10.662 7.95867 11.3266 8.262 12.0086C7.962 12.6866 7.72067 13.3486 7.538 13.9846C7.21533 13.8846 6.90867 13.7726 6.62467 13.6513C5.47 13.16 4.72333 12.514 4.72333 12.002C4.72333 11.49 5.47 10.8406 6.62467 10.3513C6.90467 10.2313 7.21133 10.1233 7.52867 10.022V10.022ZM15.314 12.8753C15.4907 13.3133 15.6407 13.75 15.7647 14.174C15.338 14.2786 14.8873 14.3673 14.4207 14.434C14.5807 14.184 14.7407 13.926 14.8907 13.662C15.0407 13.402 15.1807 13.1366 15.3147 12.8753H15.314ZM8.684 12.8886C8.81733 13.15 8.95733 13.4106 9.11067 13.672C9.264 13.932 9.42067 14.1866 9.58067 14.434C9.11733 14.366 8.67067 14.2806 8.24333 14.1766C8.36333 13.7566 8.514 13.322 8.68333 12.888L8.684 12.8886ZM15.9467 14.88C16.0213 15.2086 16.08 15.5253 16.116 15.8286C16.2693 17.074 16.08 18.042 15.64 18.3006C15.542 18.3606 15.4147 18.386 15.2647 18.386C14.59 18.386 13.5887 17.848 12.5247 16.866C12.982 16.386 13.438 15.842 13.8713 15.2393C14.6093 15.1606 15.3073 15.0393 15.9467 14.8793V14.88ZM8.06 14.8866C8.7 15.0426 9.39733 15.1633 10.1313 15.2413C10.5713 15.8446 11.028 16.3926 11.488 16.872C10.4247 17.8606 9.42667 18.402 8.748 18.402C8.60133 18.3986 8.47733 18.3686 8.37933 18.314C7.93533 18.0606 7.74267 17.0913 7.89267 15.8453C7.92867 15.5386 7.98733 15.216 8.05933 14.8866H8.06ZM11.1 15.3133C11.3933 15.3266 11.6933 15.336 11.9967 15.336C12.3033 15.336 12.6067 15.3293 12.9033 15.3133C12.61 15.6946 12.3067 16.0433 12.0067 16.3566C11.7033 16.0433 11.4 15.6946 11.1 15.3133Z" fill="#61DAFB"/>
</svg>
