<svg width="19" height="19" viewBox="0 0 19 19" fill="none" xmlns="http://www.w3.org/2000/svg">
<rect width="19" height="19" rx="2" fill="#61DAFB"/>
<g clip-path="url(#clip0_1279:133)">
<path d="M10.8241 9.50234C10.8241 9.85434 10.6843 10.1919 10.4354 10.4409C10.1866 10.6899 9.84904 10.8298 9.49703 10.83C9.14492 10.83 8.80724 10.6901 8.55826 10.4411C8.30928 10.1921 8.16941 9.85445 8.16941 9.50234C8.16941 9.15033 8.3092 8.81274 8.55805 8.56378C8.8069 8.31482 9.14443 8.17487 9.49644 8.17471C9.84855 8.17471 10.1862 8.31459 10.4352 8.56357C10.6842 8.81254 10.8241 9.15023 10.8241 9.50234V9.50234ZM12.3963 3.15515C11.5971 3.15515 10.5515 3.72515 9.49406 4.71196C8.43719 3.7305 7.391 3.16703 6.59241 3.16703C6.34897 3.16703 6.1275 3.22225 5.93572 3.33209C5.11931 3.80293 4.93644 5.27009 5.358 7.11131C3.55063 7.66943 2.375 8.56184 2.375 9.50234C2.375 10.4464 3.55656 11.3412 5.36928 11.8952C4.95128 13.7435 5.13772 15.213 5.95591 15.6833C6.14591 15.7943 6.36559 15.8466 6.61022 15.8466C7.40881 15.8466 8.455 15.2766 9.51247 14.2886C10.5693 15.2706 11.6155 15.8341 12.4141 15.8341C12.6576 15.8341 12.879 15.7807 13.0708 15.6708C13.8866 15.2006 14.0701 13.7334 13.6485 11.8916C15.4494 11.3382 16.625 10.444 16.625 9.50234C16.625 8.55828 15.4434 7.6635 13.6307 7.10834C14.0487 5.26178 13.8623 3.79106 13.0441 3.32021C12.8553 3.21096 12.6356 3.15575 12.3957 3.15515H12.3963ZM12.3933 3.80234V3.8059C12.5269 3.8059 12.6344 3.83203 12.7247 3.88131C13.1201 4.10812 13.2917 4.97084 13.1581 6.08056C13.126 6.35368 13.0738 6.64165 13.0097 6.93556C12.4397 6.79543 11.8186 6.68796 11.1649 6.61849C10.773 6.08115 10.3663 5.59309 9.95659 5.16559C10.9018 4.28684 11.7895 3.80471 12.3939 3.80293L12.3933 3.80234ZM6.59241 3.81421C7.19328 3.81421 8.08509 4.29396 9.03272 5.16796C8.62541 5.59546 8.21928 6.08056 7.83334 6.6179C7.17606 6.68737 6.55441 6.79484 5.985 6.93734C5.9185 6.6464 5.86922 6.36496 5.83419 6.09421C5.69763 4.98509 5.86625 4.12296 6.25812 3.89318C6.37094 3.83975 6.49563 3.81778 6.59241 3.81481V3.81421ZM9.49109 5.62515C9.76125 5.90303 10.0314 6.21415 10.2986 6.55378C10.0373 6.5419 9.77016 6.53359 9.5 6.53359C9.22687 6.53359 8.95672 6.53953 8.6925 6.55378C8.95375 6.21415 9.22391 5.90303 9.49109 5.62456V5.62515ZM9.5 7.18434C9.93938 7.18434 10.377 7.20453 10.8074 7.23956C11.0485 7.58512 11.2836 7.95384 11.5098 8.34393C11.7307 8.72393 11.9314 9.10987 12.1143 9.49937C11.9314 9.88828 11.7307 10.2772 11.5128 10.6572C11.2872 11.0491 11.0538 11.4219 10.8122 11.7675C10.3799 11.8049 9.94175 11.8257 9.5 11.8257C9.06062 11.8257 8.62303 11.8049 8.19256 11.7705C7.9515 11.4249 7.71637 11.0556 7.49016 10.6661C7.26928 10.2861 7.06859 9.90015 6.88572 9.51065C7.06563 9.12056 7.26928 8.73106 7.48719 8.35046C7.71281 7.95859 7.94616 7.5869 8.18781 7.24134C8.62006 7.20334 9.05825 7.18315 9.5 7.18315V7.18434ZM7.34172 7.33515C7.19922 7.559 7.05672 7.78818 6.92372 8.0239C6.79012 8.25546 6.66544 8.48821 6.54669 8.72096C6.38934 8.33146 6.25575 7.94315 6.14531 7.56493C6.52531 7.47587 6.92609 7.3969 7.34172 7.33574V7.33515ZM11.6523 7.33515C12.065 7.39631 12.4628 7.47171 12.8434 7.56493C12.7365 7.94018 12.6029 8.32612 12.4515 8.71265C12.3328 8.48109 12.2081 8.24775 12.0715 8.01559C11.9379 7.78284 11.7954 7.55603 11.6529 7.33515H11.6523ZM13.471 7.73593C13.7584 7.825 14.0315 7.92415 14.2874 8.03162C15.3158 8.471 15.9808 9.04575 15.9808 9.50175C15.9778 9.95775 15.3128 10.5349 14.2844 10.9713C14.0351 11.0782 13.7619 11.1743 13.4799 11.264C13.3137 10.6952 13.0963 10.1026 12.8268 9.49462C13.094 8.89078 13.3077 8.30118 13.471 7.73475V7.73593ZM5.51772 7.73831C5.68278 8.30831 5.90069 8.90028 6.17084 9.50768C5.90366 10.1115 5.68872 10.7011 5.52603 11.2676C5.23866 11.1785 4.96553 11.0787 4.71259 10.9707C3.68422 10.5331 3.01922 9.95775 3.01922 9.50175C3.01922 9.04575 3.68422 8.46743 4.71259 8.03162C4.96197 7.92475 5.23509 7.82856 5.51772 7.73831V7.73831ZM12.4515 10.2796C12.6089 10.6697 12.7425 11.0586 12.8529 11.4362C12.4729 11.5294 12.0715 11.6084 11.6559 11.6677C11.7984 11.4451 11.9409 11.2153 12.0745 10.9802C12.2081 10.7486 12.3328 10.5123 12.4521 10.2796H12.4515ZM6.54669 10.2914C6.66544 10.5242 6.79012 10.7563 6.92669 10.9891C7.06325 11.2207 7.20278 11.4475 7.34528 11.6677C6.93263 11.6072 6.53481 11.5312 6.15422 11.4386C6.26109 11.0645 6.39528 10.6774 6.54609 10.2908L6.54669 10.2914ZM13.015 12.065C13.0815 12.3577 13.1337 12.6397 13.1658 12.9099C13.3024 14.019 13.1337 14.8811 12.7419 15.1115C12.6546 15.1649 12.5412 15.1875 12.4076 15.1875C11.8067 15.1875 10.9149 14.7083 9.96728 13.8337C10.3746 13.4062 10.7807 12.9217 11.1667 12.385C11.8239 12.3149 12.4456 12.2069 13.015 12.0644V12.065ZM5.99094 12.0709C6.56094 12.2098 7.182 12.3173 7.83572 12.3868C8.22759 12.9241 8.63431 13.4122 9.044 13.8391C8.09697 14.7196 7.20813 15.2017 6.60369 15.2017C6.47306 15.1988 6.36262 15.1721 6.27534 15.1234C5.87991 14.8977 5.70831 14.0344 5.84191 12.9247C5.87397 12.6516 5.92622 12.3642 5.99034 12.0709H5.99094ZM8.69844 12.4509C8.95969 12.4628 9.22687 12.4711 9.49703 12.4711C9.77016 12.4711 10.0403 12.4652 10.3045 12.4509C10.0433 12.7905 9.77313 13.1011 9.50594 13.3801C9.23578 13.1011 8.96562 12.7905 8.69844 12.4509Z" fill="#0D1117"/>
</g>
<rect x="0.5" y="0.5" width="18" height="18" rx="1.5" stroke="black" stroke-opacity="0.1"/>
<defs>
<clipPath id="clip0_1279:133">
<rect width="14.25" height="14.25" fill="white" transform="translate(2.375 2.375)"/>
</clipPath>
</defs>
</svg>
