<svg width="32" height="32" viewBox="0 0 32 32" fill="none" xmlns="http://www.w3.org/2000/svg">
<rect width="32" height="32" rx="4" fill="#61DAFB"/>
<path d="M18.4158 16.0043C18.4158 16.6466 18.1608 17.2625 17.7067 17.7168C17.2527 18.171 16.6368 18.4263 15.9946 18.4266C15.3521 18.4266 14.736 18.1714 14.2817 17.7171C13.8275 17.2629 13.5723 16.6467 13.5723 16.0043C13.5723 15.362 13.8273 14.7461 14.2814 14.2918C14.7354 13.8376 15.3512 13.5822 15.9935 13.582C16.6359 13.582 17.2521 13.8372 17.7063 14.2914C18.1606 14.7457 18.4158 15.3619 18.4158 16.0043V16.0043ZM21.2845 4.42346C19.8263 4.42346 17.9186 5.46346 15.9892 7.26396C14.0608 5.47321 12.152 4.44513 10.6949 4.44513C10.2508 4.44513 9.84667 4.54588 9.49675 4.7463C8.00717 5.60538 7.6735 8.2823 8.44267 11.6417C5.145 12.66 3 14.2883 3 16.0043C3 17.7268 5.15583 19.3594 8.46325 20.3701C7.70058 23.7425 8.04075 26.4238 9.53358 27.2818C9.88025 27.4844 10.2811 27.5797 10.7274 27.5797C12.1845 27.5797 14.0933 26.5397 16.0228 24.737C17.9511 26.5289 19.8599 27.557 21.317 27.557C21.7612 27.557 22.1653 27.4595 22.5152 27.259C24.0037 26.401 24.3384 23.7241 23.5693 20.3636C26.855 19.354 29 17.7225 29 16.0043C29 14.2818 26.8442 12.6492 23.5368 11.6363C24.2994 8.26713 23.9593 5.58371 22.4664 4.72463C22.1219 4.5253 21.7211 4.42455 21.2834 4.42346H21.2845ZM21.2791 5.6043V5.6108C21.5228 5.6108 21.7189 5.65846 21.8836 5.74838C22.6051 6.16221 22.9182 7.7363 22.6744 9.76105C22.6159 10.2594 22.5206 10.7848 22.4036 11.321C21.3636 11.0654 20.2304 10.8693 19.0377 10.7425C18.3227 9.76213 17.5806 8.87163 16.8331 8.09163C18.5578 6.48829 20.1773 5.60863 21.2802 5.60538L21.2791 5.6043ZM10.6949 5.62596C11.7913 5.62596 13.4184 6.5013 15.1474 8.09596C14.4043 8.87596 13.6633 9.76105 12.9591 10.7415C11.7598 10.8682 10.6256 11.0643 9.58667 11.3243C9.46533 10.7935 9.37542 10.28 9.3115 9.78596C9.06233 7.7623 9.37 6.1893 10.085 5.77005C10.2908 5.67255 10.5183 5.63246 10.6949 5.62705V5.62596ZM15.9838 8.93013C16.4767 9.43713 16.9696 10.0048 17.4571 10.6245C16.9804 10.6028 16.4929 10.5876 16 10.5876C15.5017 10.5876 15.0088 10.5985 14.5267 10.6245C15.0033 10.0048 15.4963 9.43713 15.9838 8.92905V8.93013ZM16 11.775C16.8017 11.775 17.6001 11.8118 18.3855 11.8757C18.8253 12.5062 19.2543 13.179 19.6671 13.8907C20.0701 14.584 20.4363 15.2882 20.7699 15.9989C20.4363 16.7085 20.0701 17.418 19.6725 18.1114C19.2608 18.8264 18.8351 19.5067 18.3942 20.1372C17.6055 20.2055 16.806 20.2434 16 20.2434C15.1983 20.2434 14.3999 20.2055 13.6145 20.1426C13.1747 19.5121 12.7457 18.8383 12.3329 18.1276C11.9299 17.4343 11.5638 16.7301 11.2301 16.0195C11.5583 15.3077 11.9299 14.597 12.3275 13.9026C12.7392 13.1876 13.1649 12.5095 13.6058 11.879C14.3945 11.8096 15.194 11.7728 16 11.7728V11.775ZM12.0621 12.0501C11.8021 12.4585 11.5421 12.8767 11.2994 13.3068C11.0557 13.7293 10.8282 14.154 10.6115 14.5786C10.3244 13.868 10.0807 13.1595 9.87917 12.4694C10.5725 12.3069 11.3038 12.1628 12.0621 12.0512V12.0501ZM19.9271 12.0501C20.68 12.1617 21.4058 12.2993 22.1003 12.4694C21.9053 13.154 21.6615 13.8582 21.3853 14.5635C21.1686 14.141 20.9411 13.7152 20.6919 13.2916C20.4482 12.867 20.1882 12.4531 19.9282 12.0501H19.9271ZM23.2453 12.7814C23.7697 12.9439 24.268 13.1248 24.7349 13.3209C26.6113 14.1225 27.8246 15.1712 27.8246 16.0032C27.8192 16.8352 26.6058 17.8882 24.7295 18.6845C24.2745 18.8795 23.7762 19.055 23.2616 19.2185C22.9582 18.1807 22.5618 17.0995 22.0699 15.9902C22.5574 14.8885 22.9474 13.8127 23.2453 12.7792V12.7814ZM8.73408 12.7857C9.03525 13.8257 9.43283 14.9058 9.92575 16.014C9.43825 17.1158 9.04608 18.1915 8.74925 19.225C8.22492 19.0625 7.72658 18.8805 7.26508 18.6834C5.38875 17.885 4.17542 16.8352 4.17542 16.0032C4.17542 15.1712 5.38875 14.116 7.26508 13.3209C7.72008 13.1259 8.21842 12.9504 8.73408 12.7857V12.7857ZM21.3853 17.4224C21.6723 18.1341 21.9161 18.8437 22.1176 19.5327C21.4242 19.7028 20.6919 19.8469 19.9336 19.9552C20.1936 19.549 20.4536 19.1297 20.6973 18.7007C20.9411 18.2782 21.1686 17.847 21.3863 17.4224H21.3853ZM10.6115 17.444C10.8282 17.8687 11.0557 18.2923 11.3048 18.717C11.554 19.1395 11.8086 19.5533 12.0686 19.9552C11.3157 19.8447 10.5898 19.706 9.89542 19.537C10.0904 18.8545 10.3353 18.1482 10.6104 17.443L10.6115 17.444ZM22.4133 20.68C22.5347 21.214 22.63 21.7286 22.6885 22.2215C22.9377 24.2452 22.63 25.8182 21.915 26.2385C21.7557 26.336 21.5488 26.3772 21.3051 26.3772C20.2087 26.3772 18.5816 25.503 16.8526 23.9072C17.5958 23.1272 18.3368 22.2432 19.0409 21.2639C20.2402 21.136 21.3744 20.9389 22.4133 20.6789V20.68ZM9.5975 20.6908C10.6375 20.9443 11.7707 21.1404 12.9634 21.2671C13.6784 22.2475 14.4205 23.138 15.168 23.917C13.4401 25.5235 11.8183 26.4032 10.7155 26.4032C10.4772 26.3978 10.2757 26.349 10.1164 26.2602C9.39492 25.8485 9.08183 24.2734 9.32558 22.2486C9.38408 21.7503 9.47942 21.226 9.59642 20.6908H9.5975ZM14.5375 21.3841C15.0142 21.4058 15.5017 21.421 15.9946 21.421C16.4929 21.421 16.9858 21.4101 17.4679 21.3841C16.9913 22.0038 16.4983 22.5704 16.0108 23.0795C15.5179 22.5704 15.025 22.0038 14.5375 21.3841Z" fill="#1D1D1D"/>
</svg>
