<svg width="100" height="24" viewBox="0 0 100 24" fill="none" xmlns="http://www.w3.org/2000/svg">
<rect width="100" height="24" rx="2" fill="#3F3F3F"/>
<path d="M9.54 17.144C8.836 17.144 8.236 17.016 7.74 16.76C7.252 16.504 6.832 16.16 6.48 15.728L7.416 14.852C7.712 15.212 8.036 15.484 8.388 15.668C8.748 15.852 9.156 15.944 9.612 15.944C10.148 15.944 10.552 15.824 10.824 15.584C11.096 15.344 11.232 15.02 11.232 14.612C11.232 14.284 11.136 14.024 10.944 13.832C10.752 13.64 10.412 13.496 9.924 13.4L9.18 13.268C8.364 13.116 7.752 12.848 7.344 12.464C6.936 12.08 6.732 11.552 6.732 10.88C6.732 10.512 6.8 10.18 6.936 9.884C7.08 9.58 7.276 9.328 7.524 9.128C7.78 8.92 8.088 8.76 8.448 8.648C8.808 8.536 9.212 8.48 9.66 8.48C10.292 8.48 10.84 8.592 11.304 8.816C11.768 9.032 12.164 9.348 12.492 9.764L11.544 10.604C11.328 10.324 11.064 10.1 10.752 9.932C10.44 9.764 10.052 9.68 9.588 9.68C9.108 9.68 8.736 9.776 8.472 9.968C8.208 10.16 8.076 10.44 8.076 10.808C8.076 11.16 8.184 11.424 8.4 11.6C8.616 11.768 8.952 11.896 9.408 11.984L10.152 12.14C10.992 12.3 11.604 12.572 11.988 12.956C12.38 13.34 12.576 13.868 12.576 14.54C12.576 14.932 12.508 15.288 12.372 15.608C12.236 15.928 12.036 16.204 11.772 16.436C11.516 16.66 11.2 16.836 10.824 16.964C10.448 17.084 10.02 17.144 9.54 17.144ZM16.5199 17.144C16.0719 17.144 15.6719 17.068 15.3199 16.916C14.9679 16.764 14.6719 16.548 14.4319 16.268C14.1919 15.98 14.0079 15.636 13.8799 15.236C13.7519 14.828 13.6879 14.376 13.6879 13.88C13.6879 13.384 13.7519 12.936 13.8799 12.536C14.0079 12.128 14.1919 11.784 14.4319 11.504C14.6719 11.216 14.9679 10.996 15.3199 10.844C15.6719 10.692 16.0719 10.616 16.5199 10.616C17.1439 10.616 17.6559 10.756 18.0559 11.036C18.4559 11.316 18.7479 11.688 18.9319 12.152L17.8519 12.656C17.7639 12.368 17.6079 12.14 17.3839 11.972C17.1679 11.796 16.8799 11.708 16.5199 11.708C16.0399 11.708 15.6759 11.86 15.4279 12.164C15.1879 12.46 15.0679 12.848 15.0679 13.328V14.444C15.0679 14.924 15.1879 15.316 15.4279 15.62C15.6759 15.916 16.0399 16.064 16.5199 16.064C16.9039 16.064 17.2079 15.972 17.4319 15.788C17.6639 15.596 17.8479 15.344 17.9839 15.032L18.9799 15.56C18.7719 16.072 18.4599 16.464 18.0439 16.736C17.6279 17.008 17.1199 17.144 16.5199 17.144ZM20.2251 17V10.76H21.5331V11.96H21.5931C21.6811 11.64 21.8651 11.36 22.1451 11.12C22.4251 10.88 22.8131 10.76 23.3091 10.76H23.6571V12.02H23.1411C22.6211 12.02 22.2211 12.104 21.9411 12.272C21.6691 12.44 21.5331 12.688 21.5331 13.016V17H20.2251ZM25.4788 9.644C25.2068 9.644 25.0068 9.58 24.8788 9.452C24.7588 9.324 24.6988 9.16 24.6988 8.96V8.756C24.6988 8.556 24.7588 8.392 24.8788 8.264C25.0068 8.136 25.2068 8.072 25.4788 8.072C25.7508 8.072 25.9468 8.136 26.0668 8.264C26.1868 8.392 26.2468 8.556 26.2468 8.756V8.96C26.2468 9.16 26.1868 9.324 26.0668 9.452C25.9468 9.58 25.7508 9.644 25.4788 9.644ZM24.8188 10.76H26.1268V17H24.8188V10.76ZM27.9946 10.76H29.3026V11.792H29.3626C29.4986 11.416 29.7186 11.128 30.0226 10.928C30.3346 10.72 30.6986 10.616 31.1146 10.616C31.9066 10.616 32.5186 10.904 32.9506 11.48C33.3826 12.048 33.5986 12.848 33.5986 13.88C33.5986 14.912 33.3826 15.716 32.9506 16.292C32.5186 16.86 31.9066 17.144 31.1146 17.144C30.6986 17.144 30.3346 17.04 30.0226 16.832C29.7186 16.624 29.4986 16.336 29.3626 15.968H29.3026V19.4H27.9946V10.76ZM30.7186 16.016C31.1746 16.016 31.5386 15.872 31.8106 15.584C32.0826 15.288 32.2186 14.9 32.2186 14.42V13.34C32.2186 12.86 32.0826 12.476 31.8106 12.188C31.5386 11.892 31.1746 11.744 30.7186 11.744C30.3186 11.744 29.9826 11.844 29.7106 12.044C29.4386 12.236 29.3026 12.492 29.3026 12.812V14.948C29.3026 15.268 29.4386 15.528 29.7106 15.728C29.9826 15.92 30.3186 16.016 30.7186 16.016ZM36.7538 17C36.2978 17 35.9538 16.884 35.7218 16.652C35.4898 16.412 35.3738 16.076 35.3738 15.644V11.828H34.4018V10.76H34.9298C35.1458 10.76 35.2938 10.712 35.3738 10.616C35.4618 10.52 35.5058 10.364 35.5058 10.148V9.056H36.6818V10.76H37.9898V11.828H36.6818V15.932H37.8938V17H36.7538ZM40.0687 9.644C39.7967 9.644 39.5967 9.58 39.4687 9.452C39.3487 9.324 39.2887 9.16 39.2887 8.96V8.756C39.2887 8.556 39.3487 8.392 39.4687 8.264C39.5967 8.136 39.7967 8.072 40.0687 8.072C40.3407 8.072 40.5367 8.136 40.6567 8.264C40.7767 8.392 40.8367 8.556 40.8367 8.756V8.96C40.8367 9.16 40.7767 9.324 40.6567 9.452C40.5367 9.58 40.3407 9.644 40.0687 9.644ZM39.4087 10.76H40.7167V17H39.4087V10.76ZM42.5844 17V10.76H43.8924V11.792H43.9524C44.0884 11.456 44.2924 11.176 44.5644 10.952C44.8444 10.728 45.2244 10.616 45.7044 10.616C46.3444 10.616 46.8404 10.828 47.1924 11.252C47.5524 11.668 47.7324 12.264 47.7324 13.04V17H46.4244V13.208C46.4244 12.232 46.0324 11.744 45.2484 11.744C45.0804 11.744 44.9124 11.768 44.7444 11.816C44.5844 11.856 44.4404 11.92 44.3124 12.008C44.1844 12.096 44.0804 12.208 44.0004 12.344C43.9284 12.48 43.8924 12.64 43.8924 12.824V17H42.5844ZM55.0174 17.588C55.0174 18.236 54.7694 18.724 54.2734 19.052C53.7774 19.38 52.9694 19.544 51.8494 19.544C51.3374 19.544 50.9014 19.508 50.5414 19.436C50.1894 19.372 49.8974 19.276 49.6654 19.148C49.4414 19.02 49.2774 18.864 49.1734 18.68C49.0694 18.496 49.0174 18.284 49.0174 18.044C49.0174 17.7 49.1094 17.432 49.2934 17.24C49.4854 17.048 49.7494 16.916 50.0854 16.844V16.712C49.6134 16.56 49.3774 16.24 49.3774 15.752C49.3774 15.432 49.4854 15.188 49.7014 15.02C49.9174 14.844 50.1774 14.72 50.4814 14.648V14.6C50.1134 14.424 49.8294 14.18 49.6294 13.868C49.4374 13.548 49.3414 13.176 49.3414 12.752C49.3414 12.112 49.5534 11.596 49.9774 11.204C50.4094 10.812 51.0254 10.616 51.8254 10.616C52.2654 10.616 52.6414 10.68 52.9534 10.808V10.64C52.9534 10.36 53.0174 10.144 53.1454 9.992C53.2814 9.832 53.4894 9.752 53.7694 9.752H54.7294V10.808H53.4574V11.06C53.7374 11.244 53.9534 11.484 54.1054 11.78C54.2574 12.068 54.3334 12.392 54.3334 12.752C54.3334 13.384 54.1174 13.896 53.6854 14.288C53.2534 14.672 52.6374 14.864 51.8374 14.864C51.5334 14.864 51.2614 14.832 51.0214 14.768C50.8614 14.824 50.7214 14.904 50.6014 15.008C50.4814 15.104 50.4214 15.232 50.4214 15.392C50.4214 15.56 50.4974 15.68 50.6494 15.752C50.8014 15.824 51.0174 15.86 51.2974 15.86H52.8334C53.6014 15.86 54.1574 16.016 54.5014 16.328C54.8454 16.632 55.0174 17.052 55.0174 17.588ZM53.7934 17.732C53.7934 17.516 53.7094 17.344 53.5414 17.216C53.3814 17.088 53.0854 17.024 52.6534 17.024H50.5414C50.2534 17.192 50.1094 17.432 50.1094 17.744C50.1094 18 50.2094 18.204 50.4094 18.356C50.6174 18.516 50.9654 18.596 51.4534 18.596H52.2694C53.2854 18.596 53.7934 18.308 53.7934 17.732ZM51.8374 13.916C52.2214 13.916 52.5174 13.832 52.7254 13.664C52.9414 13.488 53.0494 13.22 53.0494 12.86V12.62C53.0494 12.26 52.9414 11.996 52.7254 11.828C52.5174 11.652 52.2214 11.564 51.8374 11.564C51.4534 11.564 51.1534 11.652 50.9374 11.828C50.7294 11.996 50.6254 12.26 50.6254 12.62V12.86C50.6254 13.22 50.7294 13.488 50.9374 13.664C51.1534 13.832 51.4534 13.916 51.8374 13.916Z" fill="#F5F5F5"/>
<path fill-rule="evenodd" clip-rule="evenodd" d="M86 11.9999C86 11.8673 86.0527 11.7401 86.1464 11.6463C86.2402 11.5526 86.3674 11.4999 86.5 11.4999H92.293L90.146 9.3539C90.0521 9.26001 89.9994 9.13267 89.9994 8.9999C89.9994 8.86712 90.0521 8.73979 90.146 8.6459C90.2399 8.55201 90.3672 8.49927 90.5 8.49927C90.6328 8.49927 90.7601 8.55201 90.854 8.6459L93.854 11.6459C93.9006 11.6923 93.9375 11.7475 93.9627 11.8083C93.9879 11.869 94.0009 11.9341 94.0009 11.9999C94.0009 12.0657 93.9879 12.1308 93.9627 12.1915C93.9375 12.2523 93.9006 12.3075 93.854 12.3539L90.854 15.3539C90.7601 15.4478 90.6328 15.5005 90.5 15.5005C90.3672 15.5005 90.2399 15.4478 90.146 15.3539C90.0521 15.26 89.9994 15.1327 89.9994 14.9999C89.9994 14.8671 90.0521 14.7398 90.146 14.6459L92.293 12.4999H86.5C86.3674 12.4999 86.2402 12.4472 86.1464 12.3535C86.0527 12.2597 86 12.1325 86 11.9999Z" fill="#F5F5F5"/>
</svg>
