<svg width="24" height="24" viewBox="0 0 24 24" fill="none" xmlns="http://www.w3.org/2000/svg">
<rect width="24" height="24" rx="2" fill="#2D2D2D"/>
<path d="M12 4C16.418 4 20 7.582 20 12C20 16.418 16.418 20 12 20C7.582 20 4 16.418 4 12C4 7.582 7.582 4 12 4ZM10.41 14.6653C10.5267 15.0953 10.514 15.4973 10.394 15.86L10.3507 15.98C10.3347 16.0207 10.316 16.06 10.2987 16.0973C10.2053 16.2907 10.0813 16.4707 9.92867 16.6373C9.46333 17.1433 8.814 17.3353 8.53533 17.174C8.23533 16.9993 8.38467 16.284 8.92467 15.714C9.50533 15.102 10.338 14.708 10.338 14.708V14.706L10.41 14.6653V14.6653ZM17.0173 7.42467C16.656 6.00267 14.2993 5.53533 12.0693 6.328C10.7433 6.79933 9.30667 7.54 8.274 8.506C7.04533 9.65333 6.85 10.6533 6.93067 11.0713C7.21533 12.5453 9.23533 13.5093 10.066 14.2247V14.2287C9.82133 14.3487 8.02867 15.248 7.60867 16.1787C7.15867 17.1587 7.67867 17.8593 8.01867 17.9487C9.06867 18.2393 10.1487 17.7087 10.7287 16.8493C11.2887 16.0087 11.2393 14.9287 10.998 14.3987C11.3287 14.3087 11.718 14.2687 12.218 14.3293C13.6187 14.4893 13.8987 15.3693 13.838 15.7293C13.778 16.0887 13.4893 16.2987 13.3887 16.3587C13.2887 16.4193 13.2587 16.4387 13.268 16.4793C13.278 16.5393 13.3287 16.5393 13.408 16.5293C13.518 16.5093 14.1387 16.2293 14.1687 15.5487C14.1987 14.6887 13.378 13.7293 11.9187 13.7487C11.3187 13.7593 10.938 13.8093 10.6687 13.9193C10.6487 13.8893 10.628 13.8693 10.5987 13.8493C9.69867 12.8793 8.02867 12.1993 8.09867 10.9093C8.11867 10.4393 8.28867 9.2 11.2987 7.7C13.7687 6.46933 15.7393 6.81 16.0793 7.56C16.568 8.62933 15.0287 10.62 12.4587 10.9093C11.4787 11.0193 10.9687 10.64 10.838 10.4993C10.6987 10.3493 10.6787 10.3393 10.6287 10.37C10.5487 10.41 10.5987 10.54 10.6287 10.62C10.7087 10.82 11.0187 11.17 11.5593 11.35C12.0287 11.5 13.1793 11.5893 14.5593 11.05C16.1087 10.4507 17.3187 8.78 16.9687 7.38L17.0173 7.42467V7.42467Z" fill="#CC6699"/>
</svg>
