<svg width="32" height="32" viewBox="0 0 32 32" fill="none" xmlns="http://www.w3.org/2000/svg">
<rect width="32" height="32" rx="2" fill="#0D1117"/>
<path d="M16 6C21.5225 6 26 10.4775 26 16C26 21.5225 21.5225 26 16 26C10.4775 26 6 21.5225 6 16C6 10.4775 10.4775 6 16 6ZM14.0125 19.3317C14.1583 19.8692 14.1425 20.3717 13.9925 20.825L13.9383 20.975C13.9183 21.0258 13.895 21.075 13.8733 21.1217C13.7567 21.3633 13.6017 21.5883 13.4108 21.7967C12.8292 22.4292 12.0175 22.6692 11.6692 22.4675C11.2942 22.2492 11.4808 21.355 12.1558 20.6425C12.8817 19.8775 13.9225 19.385 13.9225 19.385V19.3825L14.0125 19.3317V19.3317ZM22.2717 10.2808C21.82 8.50333 18.8742 7.91917 16.0867 8.91C14.4292 9.49917 12.6333 10.425 11.3425 11.6325C9.80667 13.0667 9.5625 14.3167 9.66333 14.8392C10.0192 16.6817 12.5442 17.8867 13.5825 18.7808V18.7858C13.2767 18.9358 11.0358 20.06 10.5108 21.2233C9.94833 22.4483 10.5983 23.3242 11.0233 23.4358C12.3358 23.7992 13.6858 23.1358 14.4108 22.0617C15.1108 21.0108 15.0492 19.6608 14.7475 18.9983C15.1608 18.8858 15.6475 18.8358 16.2725 18.9117C18.0233 19.1117 18.3733 20.2117 18.2975 20.6617C18.2225 21.1108 17.8617 21.3733 17.7358 21.4483C17.6108 21.5242 17.5733 21.5483 17.585 21.5992C17.5975 21.6742 17.6608 21.6742 17.76 21.6617C17.8975 21.6367 18.6733 21.2867 18.7108 20.4358C18.7483 19.3608 17.7225 18.1617 15.8983 18.1858C15.1483 18.1992 14.6725 18.2617 14.3358 18.3992C14.3108 18.3617 14.285 18.3367 14.2483 18.3117C13.1233 17.0992 11.0358 16.2492 11.1233 14.6367C11.1483 14.0492 11.3608 12.5 15.1233 10.625C18.2108 9.08667 20.6742 9.5125 21.0992 10.45C21.71 11.7867 19.7858 14.275 16.5733 14.6367C15.3483 14.7742 14.7108 14.3 14.5475 14.1242C14.3733 13.9367 14.3483 13.9242 14.2858 13.9625C14.1858 14.0125 14.2483 14.175 14.2858 14.275C14.3858 14.525 14.7733 14.9625 15.4492 15.1875C16.0358 15.375 17.4742 15.4867 19.1992 14.8125C21.1358 14.0633 22.6483 11.975 22.2108 10.225L22.2717 10.2808V10.2808Z" fill="#CC6699"/>
</svg>
