<svg width="32" height="32" viewBox="0 0 32 32" fill="none" xmlns="http://www.w3.org/2000/svg">
<path d="M14 1.1547C15.2376 0.440169 16.7624 0.440169 18 1.1547L27.8564 6.8453C29.094 7.55983 29.8564 8.88034 29.8564 10.3094V21.6906C29.8564 23.1197 29.094 24.4402 27.8564 25.1547L18 30.8453C16.7624 31.5598 15.2376 31.5598 14 30.8453L4.14359 25.1547C2.90599 24.4402 2.14359 23.1197 2.14359 21.6906V10.3094C2.14359 8.88034 2.90599 7.55983 4.14359 6.8453L14 1.1547Z" fill="#CC6699"/>
<path d="M16 8C20.418 8 24 11.582 24 16C24 20.418 20.418 24 16 24C11.582 24 8 20.418 8 16C8 11.582 11.582 8 16 8ZM14.41 18.6653C14.5267 19.0953 14.514 19.4973 14.394 19.86L14.3507 19.98C14.3347 20.0207 14.316 20.06 14.2987 20.0973C14.2053 20.2907 14.0813 20.4707 13.9287 20.6373C13.4633 21.1433 12.814 21.3353 12.5353 21.174C12.2353 20.9993 12.3847 20.284 12.9247 19.714C13.5053 19.102 14.338 18.708 14.338 18.708V18.706L14.41 18.6653V18.6653ZM21.0173 11.4247C20.656 10.0027 18.2993 9.53533 16.0693 10.328C14.7433 10.7993 13.3067 11.54 12.274 12.506C11.0453 13.6533 10.85 14.6533 10.9307 15.0713C11.2153 16.5453 13.2353 17.5093 14.066 18.2247V18.2287C13.8213 18.3487 12.0287 19.248 11.6087 20.1787C11.1587 21.1587 11.6787 21.8593 12.0187 21.9487C13.0687 22.2393 14.1487 21.7087 14.7287 20.8493C15.2887 20.0087 15.2393 18.9287 14.998 18.3987C15.3287 18.3087 15.718 18.2687 16.218 18.3293C17.6187 18.4893 17.8987 19.3693 17.838 19.7293C17.778 20.0887 17.4893 20.2987 17.3887 20.3587C17.2887 20.4193 17.2587 20.4387 17.268 20.4793C17.278 20.5393 17.3287 20.5393 17.408 20.5293C17.518 20.5093 18.1387 20.2293 18.1687 19.5487C18.1987 18.6887 17.378 17.7293 15.9187 17.7487C15.3187 17.7593 14.938 17.8093 14.6687 17.9193C14.6487 17.8893 14.628 17.8693 14.5987 17.8493C13.6987 16.8793 12.0287 16.1993 12.0987 14.9093C12.1187 14.4393 12.2887 13.2 15.2987 11.7C17.7687 10.4693 19.7393 10.81 20.0793 11.56C20.568 12.6293 19.0287 14.62 16.4587 14.9093C15.4787 15.0193 14.9687 14.64 14.838 14.4993C14.6987 14.3493 14.6787 14.3393 14.6287 14.37C14.5487 14.41 14.5987 14.54 14.6287 14.62C14.7087 14.82 15.0187 15.17 15.5593 15.35C16.0287 15.5 17.1793 15.5893 18.5593 15.05C20.1087 14.4507 21.3187 12.78 20.9687 11.38L21.0173 11.4247V11.4247Z" fill="#F0F0F0"/>
</svg>
