<svg width="32" height="32" viewBox="0 0 32 32" fill="none" xmlns="http://www.w3.org/2000/svg">
<path d="M4 0H28C30.216 0 32 1.784 32 4V28C32 30.216 30.216 32 28 32H4C1.784 32 0 30.216 0 28V4C0 1.784 1.784 0 4 0V0Z" fill="#CC6699"/>
<path d="M13.2663 20.6982C13.4705 21.4507 13.4483 22.1542 13.2383 22.7889L13.1625 22.9989C13.1345 23.0701 13.1018 23.1389 13.0715 23.2042C12.9081 23.5426 12.6911 23.8576 12.424 24.1492C11.6096 25.0347 10.4733 25.3707 9.98565 25.0884C9.46065 24.7827 9.72199 23.5309 10.667 22.5334C11.6831 21.4624 13.1403 20.7729 13.1403 20.7729V20.7694L13.2663 20.6982ZM24.744 7.94892C24.1117 5.46042 20.0726 4.72075 16.1701 6.10792C13.8496 6.93275 11.3355 8.22892 9.52832 9.91942C7.37815 11.9272 7.03632 13.6772 7.17749 14.4087C7.67565 16.9882 11.2106 18.6752 12.6643 19.9271V19.9341C12.2361 20.1441 9.09899 21.7179 8.36399 23.3466C7.57649 25.0616 8.48649 26.2877 9.08149 26.4441C10.919 26.9527 12.809 26.0241 13.824 24.5202C14.804 23.0491 14.7176 21.1591 14.2953 20.2316C14.874 20.0741 15.5553 20.0041 16.4303 20.1102C18.8815 20.3902 19.3715 21.9302 19.2653 22.5602C19.1603 23.1891 18.6551 23.5566 18.479 23.6616C18.304 23.7677 18.2515 23.8016 18.2678 23.8727C18.2853 23.9777 18.374 23.9777 18.5128 23.9602C18.7053 23.9252 19.7915 23.4352 19.844 22.2441C19.8965 20.7391 18.4603 19.0602 15.9065 19.0941C14.8565 19.1127 14.1903 19.2002 13.719 19.3927C13.684 19.3402 13.6478 19.3052 13.5965 19.2702C12.0215 17.5727 9.09899 16.3827 9.22149 14.1252C9.25649 13.3027 9.55399 11.1339 14.8215 8.50892C19.144 6.35525 22.5926 6.95142 23.1876 8.26392C24.0428 10.1352 21.349 13.6189 16.8515 14.1252C15.1365 14.3177 14.244 13.6539 14.0153 13.4077C13.7715 13.1452 13.7365 13.1277 13.649 13.1814C13.509 13.2514 13.5965 13.4789 13.649 13.6189C13.789 13.9689 14.3315 14.5814 15.2776 14.8964C16.099 15.1589 18.1126 15.3152 20.5276 14.3714C23.239 13.3226 25.3565 10.3989 24.744 7.94892V7.94892Z" fill="#F0F0F0"/>
</svg>
