<svg width="32" height="32" viewBox="0 0 32 32" fill="none" xmlns="http://www.w3.org/2000/svg">
<rect x="0.5" y="0.5" width="31" height="31" rx="15.5" fill="#0D1117"/>
<path fill-rule="evenodd" clip-rule="evenodd" d="M23.7583 10.172C23.5815 10.0284 23.3101 9.99768 23.1874 10.0001C22.6336 10.01 21.7828 10.3058 17.692 12.0075C16.258 12.6029 13.3949 13.8368 9.10025 15.7079C8.40289 15.9854 8.03703 16.2567 8.00388 16.5219C7.94772 16.97 8.50798 17.1465 9.27197 17.3872C9.3766 17.4202 9.48505 17.4544 9.59626 17.4906C10.3489 17.7349 11.3605 18.021 11.886 18.0308C12.3636 18.0431 12.8952 17.8466 13.4845 17.4415C17.4968 14.7343 19.568 13.3641 19.6981 13.3347C19.7902 13.3138 19.9179 13.288 20.0038 13.3641C20.0898 13.4403 20.0812 13.5851 20.0726 13.6244C20.0165 13.8609 17.819 15.9043 16.677 16.9664C16.3187 17.2995 16.0643 17.5361 16.0124 17.59C15.8974 17.7093 15.7802 17.8222 15.6675 17.9308C14.9681 18.6043 14.4427 19.1103 15.6957 19.935C16.2983 20.3324 16.7803 20.6609 17.2615 20.9887C17.7852 21.3455 18.3079 21.7015 18.9836 22.145C19.1566 22.2582 19.3217 22.3759 19.4826 22.4906C20.0924 22.9251 20.6401 23.3155 21.3163 23.2524C21.7104 23.2168 22.1168 22.8472 22.323 21.7423C22.8117 19.1333 23.7718 13.4808 23.9928 11.1505C24.0124 10.9467 23.9878 10.6852 23.9682 10.571C23.9507 10.4164 23.8757 10.274 23.7583 10.172Z" fill="#F0F0F0"/>
<rect x="0.5" y="0.5" width="31" height="31" rx="15.5" stroke="#484848"/>
</svg>
