<svg width="44" height="44" viewBox="0 0 44 44" fill="none" xmlns="http://www.w3.org/2000/svg">
<rect width="44" height="44" rx="22" fill="#3666FF"/>
<path fill-rule="evenodd" clip-rule="evenodd" d="M33.6373 13.2581C33.3721 13.0426 32.9651 12.9966 32.781 13.0003C31.9504 13.015 30.6742 13.4588 24.5379 16.0113C22.3869 16.9045 18.0923 18.7553 11.6503 21.5619C10.6043 21.9781 10.0555 22.3851 10.0058 22.7829C9.92153 23.4551 10.7619 23.7199 11.9079 24.0809C12.0648 24.1304 12.2275 24.1816 12.3943 24.236C13.5232 24.6024 15.0407 25.0315 15.8289 25.0463C16.5453 25.0647 17.3427 24.77 18.2267 24.1623C24.2451 20.1015 27.3519 18.0463 27.5471 18.0021C27.6852 17.9708 27.8768 17.9321 28.0057 18.0463C28.1346 18.1605 28.1217 18.3778 28.1088 18.4367C28.0247 18.7914 24.7285 21.8566 23.0154 23.4496C22.478 23.9493 22.0964 24.3042 22.0186 24.3851C21.8461 24.5641 21.6702 24.7334 21.5011 24.8962C20.4522 25.9065 19.6641 26.6655 21.5435 27.9026C22.4473 28.4987 23.1705 28.9914 23.8922 29.4831C24.6778 30.0183 25.4618 30.5524 26.4753 31.2175C26.7348 31.3874 26.9826 31.564 27.2239 31.736C28.1385 32.3878 28.9602 32.9734 29.9744 32.8786C30.5655 32.8252 31.1751 32.2709 31.4845 30.6135C32.2174 26.7 33.6576 18.2212 33.9891 14.7259C34.0185 14.4202 33.9817 14.0279 33.9522 13.8566C33.9259 13.6247 33.8135 13.4111 33.6373 13.2581Z" fill="#F0F0F0"/>
<rect x="0.75" y="0.75" width="42.5" height="42.5" rx="21.25" stroke="white" stroke-opacity="0.1" stroke-width="1.5"/>
</svg>
