<svg width="48" height="48" viewBox="0 0 48 48" fill="none" xmlns="http://www.w3.org/2000/svg">
<rect x="0.5" y="0.5" width="47" height="47" rx="23.5" fill="#0D1117"/>
<g clip-path="url(#clip0_1238:237)">
<path d="M36 17.4571V31.3661C36 32.2701 35.268 33.0021 34.364 33.0021H30.545V23.7301L24 28.6401L17.455 23.7301V33.0031H13.636C13.4211 33.0031 13.2083 32.9607 13.0097 32.8785C12.8111 32.7962 12.6307 32.6756 12.4788 32.5236C12.3269 32.3715 12.2064 32.1911 12.1242 31.9925C12.0421 31.7939 11.9999 31.581 12 31.3661V17.4571C12 15.4341 14.309 14.2791 15.927 15.4931L17.455 16.6401L24 21.5481L30.545 16.6381L32.073 15.4931C33.69 14.2801 36 15.4341 36 17.4571Z" fill="#F0F0F0"/>
</g>
<rect x="0.5" y="0.5" width="47" height="47" rx="23.5" stroke="#484848"/>
<defs>
<clipPath id="clip0_1238:237">
<rect width="24" height="24" fill="white" transform="translate(12 12)"/>
</clipPath>
</defs>
</svg>
