<svg width="91" height="24" viewBox="0 0 91 24" fill="none" xmlns="http://www.w3.org/2000/svg">
<rect x="0.742065" width="90" height="24" rx="4" fill="#2D2D2D"/>
<path fill-rule="evenodd" clip-rule="evenodd" d="M20.5607 7.62901C20.4281 7.52128 20.2246 7.49826 20.1325 7.5001C19.7172 7.50747 19.0791 7.72938 16.011 9.00562C14.9355 9.45221 12.7882 10.3776 9.5672 11.7809C9.04418 11.989 8.76978 12.1925 8.74492 12.3914C8.7028 12.7275 9.12299 12.8599 9.69598 13.0404C9.77446 13.0651 9.85579 13.0908 9.9392 13.1179C10.5037 13.3012 11.2624 13.5157 11.6565 13.5231C12.0147 13.5323 12.4134 13.385 12.8554 13.0811C15.8646 11.0507 17.418 10.0231 17.5156 10.001C17.5847 9.98536 17.6804 9.96602 17.7449 10.0231C17.8093 10.0802 17.8029 10.1889 17.7964 10.2183C17.7544 10.3957 16.1063 11.9283 15.2497 12.7248C14.981 12.9746 14.7903 13.1521 14.7513 13.1925C14.6651 13.282 14.5771 13.3667 14.4926 13.4481C13.9681 13.9532 13.5741 14.3327 14.5138 14.9513C14.9657 15.2493 15.3273 15.4956 15.6881 15.7415C16.0809 16.0091 16.4729 16.2761 16.9797 16.6087C17.1094 16.6937 17.2333 16.782 17.354 16.8679C17.8113 17.1939 18.2221 17.4866 18.7292 17.4393C19.0248 17.4126 19.3296 17.1354 19.4843 16.3067C19.8508 14.35 20.5708 10.1106 20.7366 8.3629C20.7513 8.21004 20.7329 8.01391 20.7182 7.92828C20.705 7.81232 20.6488 7.70553 20.5607 7.62901Z" fill="#F0F0F0"/>
<path d="M29.5261 17.096C28.9901 17.096 28.5781 16.946 28.2901 16.646C28.0061 16.342 27.8641 15.924 27.8641 15.392V11.954H27.2341C27.1541 11.954 27.0861 11.928 27.0301 11.876C26.9741 11.824 26.9461 11.746 26.9461 11.642V11.054L27.9361 10.892L28.2481 9.212C28.2681 9.132 28.3061 9.07 28.3621 9.026C28.4181 8.982 28.4901 8.96 28.5781 8.96H29.3461V10.898H30.9901V11.954H29.3461V15.29C29.3461 15.482 29.3921 15.632 29.4841 15.74C29.5801 15.848 29.7101 15.902 29.8741 15.902C29.9661 15.902 30.0421 15.892 30.1021 15.872C30.1661 15.848 30.2201 15.824 30.2641 15.8C30.3121 15.776 30.3541 15.754 30.3901 15.734C30.4261 15.71 30.4621 15.698 30.4981 15.698C30.5421 15.698 30.5781 15.71 30.6061 15.734C30.6341 15.754 30.6641 15.786 30.6961 15.83L31.1401 16.55C30.9241 16.73 30.6761 16.866 30.3961 16.958C30.1161 17.05 29.8261 17.096 29.5261 17.096ZM37.058 13.214C37.058 13.022 37.03 12.842 36.974 12.674C36.922 12.502 36.842 12.352 36.734 12.224C36.626 12.096 36.488 11.996 36.32 11.924C36.156 11.848 35.964 11.81 35.744 11.81C35.316 11.81 34.978 11.932 34.73 12.176C34.486 12.42 34.33 12.766 34.262 13.214H37.058ZM34.232 14.108C34.256 14.424 34.312 14.698 34.4 14.93C34.488 15.158 34.604 15.348 34.748 15.5C34.892 15.648 35.062 15.76 35.258 15.836C35.458 15.908 35.678 15.944 35.918 15.944C36.158 15.944 36.364 15.916 36.536 15.86C36.712 15.804 36.864 15.742 36.992 15.674C37.124 15.606 37.238 15.544 37.334 15.488C37.434 15.432 37.53 15.404 37.622 15.404C37.746 15.404 37.838 15.45 37.898 15.542L38.324 16.082C38.16 16.274 37.976 16.436 37.772 16.568C37.568 16.696 37.354 16.8 37.13 16.88C36.91 16.956 36.684 17.01 36.452 17.042C36.224 17.074 36.002 17.09 35.786 17.09C35.358 17.09 34.96 17.02 34.592 16.88C34.224 16.736 33.904 16.526 33.632 16.25C33.36 15.97 33.146 15.626 32.99 15.218C32.834 14.806 32.756 14.33 32.756 13.79C32.756 13.37 32.824 12.976 32.96 12.608C33.096 12.236 33.29 11.914 33.542 11.642C33.798 11.366 34.108 11.148 34.472 10.988C34.84 10.828 35.254 10.748 35.714 10.748C36.102 10.748 36.46 10.81 36.788 10.934C37.116 11.058 37.398 11.24 37.634 11.48C37.87 11.716 38.054 12.008 38.186 12.356C38.322 12.7 38.39 13.094 38.39 13.538C38.39 13.762 38.366 13.914 38.318 13.994C38.27 14.07 38.178 14.108 38.042 14.108H34.232ZM42.2022 8.084V17H40.7202V8.084H42.2022ZM48.8448 13.214C48.8448 13.022 48.8168 12.842 48.7608 12.674C48.7088 12.502 48.6288 12.352 48.5208 12.224C48.4128 12.096 48.2748 11.996 48.1068 11.924C47.9428 11.848 47.7508 11.81 47.5308 11.81C47.1028 11.81 46.7648 11.932 46.5168 12.176C46.2728 12.42 46.1168 12.766 46.0488 13.214H48.8448ZM46.0188 14.108C46.0428 14.424 46.0988 14.698 46.1868 14.93C46.2748 15.158 46.3908 15.348 46.5348 15.5C46.6788 15.648 46.8488 15.76 47.0448 15.836C47.2448 15.908 47.4648 15.944 47.7048 15.944C47.9448 15.944 48.1508 15.916 48.3228 15.86C48.4988 15.804 48.6508 15.742 48.7788 15.674C48.9108 15.606 49.0248 15.544 49.1208 15.488C49.2208 15.432 49.3168 15.404 49.4088 15.404C49.5328 15.404 49.6248 15.45 49.6848 15.542L50.1108 16.082C49.9468 16.274 49.7628 16.436 49.5588 16.568C49.3548 16.696 49.1408 16.8 48.9168 16.88C48.6968 16.956 48.4708 17.01 48.2388 17.042C48.0108 17.074 47.7888 17.09 47.5728 17.09C47.1448 17.09 46.7468 17.02 46.3788 16.88C46.0108 16.736 45.6908 16.526 45.4188 16.25C45.1468 15.97 44.9328 15.626 44.7768 15.218C44.6208 14.806 44.5428 14.33 44.5428 13.79C44.5428 13.37 44.6108 12.976 44.7468 12.608C44.8828 12.236 45.0768 11.914 45.3288 11.642C45.5848 11.366 45.8948 11.148 46.2588 10.988C46.6268 10.828 47.0408 10.748 47.5008 10.748C47.8888 10.748 48.2468 10.81 48.5748 10.934C48.9028 11.058 49.1848 11.24 49.4208 11.48C49.6568 11.716 49.8408 12.008 49.9728 12.356C50.1088 12.7 50.1768 13.094 50.1768 13.538C50.1768 13.762 50.1528 13.914 50.1048 13.994C50.0568 14.07 49.9648 14.108 49.8288 14.108H46.0188ZM54.7389 13.772C54.9229 13.772 55.0829 13.748 55.2189 13.7C55.3549 13.648 55.4669 13.578 55.5549 13.49C55.6469 13.402 55.7149 13.296 55.7589 13.172C55.8069 13.048 55.8309 12.912 55.8309 12.764C55.8309 12.46 55.7389 12.22 55.5549 12.044C55.3749 11.864 55.1029 11.774 54.7389 11.774C54.3749 11.774 54.1009 11.864 53.9169 12.044C53.7369 12.22 53.6469 12.46 53.6469 12.764C53.6469 12.908 53.6689 13.042 53.7129 13.166C53.7609 13.29 53.8289 13.398 53.9169 13.49C54.0089 13.578 54.1229 13.648 54.2589 13.7C54.3989 13.748 54.5589 13.772 54.7389 13.772ZM56.4129 17.276C56.4129 17.156 56.3769 17.058 56.3049 16.982C56.2329 16.906 56.1349 16.848 56.0109 16.808C55.8869 16.764 55.7409 16.732 55.5729 16.712C55.4089 16.692 55.2329 16.678 55.0449 16.67C54.8609 16.658 54.6689 16.648 54.4689 16.64C54.2729 16.632 54.0809 16.616 53.8929 16.592C53.7289 16.684 53.5949 16.792 53.4909 16.916C53.3909 17.04 53.3409 17.184 53.3409 17.348C53.3409 17.456 53.3669 17.556 53.4189 17.648C53.4749 17.744 53.5609 17.826 53.6769 17.894C53.7969 17.962 53.9509 18.014 54.1389 18.05C54.3269 18.09 54.5569 18.11 54.8289 18.11C55.1049 18.11 55.3429 18.088 55.5429 18.044C55.7429 18.004 55.9069 17.946 56.0349 17.87C56.1669 17.798 56.2629 17.71 56.3229 17.606C56.3829 17.506 56.4129 17.396 56.4129 17.276ZM57.8889 11.054V11.606C57.8889 11.782 57.7829 11.89 57.5709 11.93L57.0189 12.032C57.1029 12.244 57.1449 12.476 57.1449 12.728C57.1449 13.032 57.0829 13.308 56.9589 13.556C56.8389 13.8 56.6709 14.008 56.4549 14.18C56.2389 14.352 55.9829 14.486 55.6869 14.582C55.3949 14.674 55.0789 14.72 54.7389 14.72C54.6189 14.72 54.5029 14.714 54.3909 14.702C54.2789 14.69 54.1689 14.674 54.0609 14.654C53.8689 14.77 53.7729 14.9 53.7729 15.044C53.7729 15.168 53.8289 15.26 53.9409 15.32C54.0569 15.376 54.2089 15.416 54.3969 15.44C54.5849 15.464 54.7989 15.48 55.0389 15.488C55.2789 15.492 55.5249 15.504 55.7769 15.524C56.0289 15.544 56.2749 15.58 56.5149 15.632C56.7549 15.68 56.9689 15.758 57.1569 15.866C57.3449 15.974 57.4949 16.122 57.6069 16.31C57.7229 16.494 57.7809 16.732 57.7809 17.024C57.7809 17.296 57.7129 17.56 57.5769 17.816C57.4449 18.072 57.2509 18.3 56.9949 18.5C56.7429 18.7 56.4309 18.86 56.0589 18.98C55.6909 19.104 55.2709 19.166 54.7989 19.166C54.3349 19.166 53.9309 19.12 53.5869 19.028C53.2429 18.94 52.9569 18.82 52.7289 18.668C52.5009 18.52 52.3309 18.348 52.2189 18.152C52.1069 17.956 52.0509 17.752 52.0509 17.54C52.0509 17.252 52.1369 17.012 52.3089 16.82C52.4849 16.624 52.7249 16.468 53.0289 16.352C52.8649 16.268 52.7349 16.156 52.6389 16.016C52.5429 15.876 52.4949 15.692 52.4949 15.464C52.4949 15.372 52.5109 15.278 52.5429 15.182C52.5789 15.082 52.6289 14.984 52.6929 14.888C52.7609 14.792 52.8449 14.702 52.9449 14.618C53.0449 14.53 53.1629 14.452 53.2989 14.384C52.9869 14.216 52.7409 13.992 52.5609 13.712C52.3849 13.432 52.2969 13.104 52.2969 12.728C52.2969 12.424 52.3569 12.15 52.4769 11.906C52.6009 11.658 52.7709 11.448 52.9869 11.276C53.2069 11.1 53.4649 10.966 53.7609 10.874C54.0609 10.782 54.3869 10.736 54.7389 10.736C55.0029 10.736 55.2509 10.764 55.4829 10.82C55.7149 10.872 55.9269 10.95 56.1189 11.054H57.8889ZM61.4268 11.912C61.6188 11.544 61.8468 11.256 62.1108 11.048C62.3748 10.836 62.6868 10.73 63.0468 10.73C63.3308 10.73 63.5588 10.792 63.7308 10.916L63.6348 12.026C63.6148 12.098 63.5848 12.15 63.5448 12.182C63.5088 12.21 63.4588 12.224 63.3948 12.224C63.3348 12.224 63.2448 12.214 63.1248 12.194C63.0088 12.174 62.8948 12.164 62.7828 12.164C62.6188 12.164 62.4728 12.188 62.3448 12.236C62.2168 12.284 62.1008 12.354 61.9968 12.446C61.8968 12.534 61.8068 12.642 61.7268 12.77C61.6508 12.898 61.5788 13.044 61.5108 13.208V17H60.0288V10.844H60.8988C61.0508 10.844 61.1568 10.872 61.2168 10.928C61.2768 10.98 61.3168 11.076 61.3368 11.216L61.4268 11.912ZM68.8753 14.372C68.4473 14.392 68.0873 14.43 67.7953 14.486C67.5033 14.538 67.2693 14.606 67.0933 14.69C66.9173 14.774 66.7913 14.872 66.7153 14.984C66.6393 15.096 66.6013 15.218 66.6013 15.35C66.6013 15.61 66.6773 15.796 66.8293 15.908C66.9853 16.02 67.1873 16.076 67.4353 16.076C67.7393 16.076 68.0013 16.022 68.2213 15.914C68.4453 15.802 68.6633 15.634 68.8753 15.41V14.372ZM65.4793 11.702C66.1873 11.054 67.0393 10.73 68.0353 10.73C68.3953 10.73 68.7173 10.79 69.0013 10.91C69.2853 11.026 69.5253 11.19 69.7213 11.402C69.9173 11.61 70.0653 11.86 70.1653 12.152C70.2693 12.444 70.3213 12.764 70.3213 13.112V17H69.6493C69.5093 17 69.4013 16.98 69.3253 16.94C69.2493 16.896 69.1893 16.81 69.1453 16.682L69.0133 16.238C68.8573 16.378 68.7053 16.502 68.5573 16.61C68.4093 16.714 68.2553 16.802 68.0953 16.874C67.9353 16.946 67.7633 17 67.5793 17.036C67.3993 17.076 67.1993 17.096 66.9793 17.096C66.7193 17.096 66.4793 17.062 66.2593 16.994C66.0393 16.922 65.8493 16.816 65.6893 16.676C65.5293 16.536 65.4053 16.362 65.3173 16.154C65.2293 15.946 65.1853 15.704 65.1853 15.428C65.1853 15.272 65.2113 15.118 65.2633 14.966C65.3153 14.81 65.3993 14.662 65.5153 14.522C65.6353 14.382 65.7893 14.25 65.9773 14.126C66.1653 14.002 66.3953 13.894 66.6673 13.802C66.9433 13.71 67.2633 13.636 67.6273 13.58C67.9913 13.52 68.4073 13.484 68.8753 13.472V13.112C68.8753 12.7 68.7873 12.396 68.6113 12.2C68.4353 12 68.1813 11.9 67.8493 11.9C67.6093 11.9 67.4093 11.928 67.2493 11.984C67.0933 12.04 66.9553 12.104 66.8353 12.176C66.7153 12.244 66.6053 12.306 66.5053 12.362C66.4093 12.418 66.3013 12.446 66.1813 12.446C66.0773 12.446 65.9893 12.42 65.9173 12.368C65.8453 12.312 65.7873 12.248 65.7433 12.176L65.4793 11.702ZM72.917 17V10.844H73.823C74.015 10.844 74.141 10.934 74.201 11.114L74.297 11.57C74.405 11.45 74.517 11.34 74.633 11.24C74.753 11.14 74.879 11.054 75.011 10.982C75.147 10.91 75.291 10.854 75.443 10.814C75.599 10.77 75.769 10.748 75.953 10.748C76.341 10.748 76.659 10.854 76.907 11.066C77.159 11.274 77.347 11.552 77.471 11.9C77.567 11.696 77.687 11.522 77.831 11.378C77.975 11.23 78.133 11.11 78.305 11.018C78.477 10.926 78.659 10.858 78.851 10.814C79.047 10.77 79.243 10.748 79.439 10.748C79.779 10.748 80.081 10.8 80.345 10.904C80.609 11.008 80.831 11.16 81.011 11.36C81.191 11.56 81.327 11.804 81.419 12.092C81.515 12.38 81.563 12.71 81.563 13.082V17H80.081V13.082C80.081 12.69 79.995 12.396 79.823 12.2C79.651 12 79.399 11.9 79.067 11.9C78.915 11.9 78.773 11.926 78.641 11.978C78.513 12.03 78.399 12.106 78.299 12.206C78.203 12.302 78.127 12.424 78.071 12.572C78.015 12.72 77.987 12.89 77.987 13.082V17H76.499V13.082C76.499 12.67 76.415 12.37 76.247 12.182C76.083 11.994 75.841 11.9 75.521 11.9C75.305 11.9 75.103 11.954 74.915 12.062C74.731 12.166 74.559 12.31 74.399 12.494V17H72.917Z" fill="#F0F0F0"/>
</svg>
