<svg width="40" height="40" viewBox="0 0 40 40" fill="none" xmlns="http://www.w3.org/2000/svg">
<rect width="40" height="40" rx="6" fill="black" fill-opacity="0.1"/>
<path fill-rule="evenodd" clip-rule="evenodd" d="M27.7583 14.172C27.5815 14.0284 27.3101 13.9977 27.1874 14.0001C26.6336 14.01 25.7828 14.3058 21.692 16.0075C20.258 16.6029 17.3949 17.8368 13.1002 19.7079C12.4029 19.9854 12.037 20.2567 12.0039 20.5219C11.9477 20.97 12.508 21.1465 13.272 21.3872C13.3766 21.4202 13.485 21.4544 13.5963 21.4906C14.3489 21.7349 15.3605 22.021 15.886 22.0308C16.3636 22.0431 16.8952 21.8466 17.4845 21.4415C21.4968 18.7343 23.568 17.3641 23.6981 17.3347C23.7902 17.3138 23.9179 17.288 24.0038 17.3641C24.0898 17.4403 24.0812 17.5851 24.0726 17.6244C24.0165 17.8609 21.819 19.9043 20.677 20.9664C20.3187 21.2995 20.0643 21.5361 20.0124 21.59C19.8974 21.7093 19.7802 21.8222 19.6675 21.9308C18.9681 22.6043 18.4427 23.1103 19.6957 23.935C20.2983 24.3324 20.7803 24.6609 21.2615 24.9887C21.7852 25.3455 22.3079 25.7015 22.9836 26.145C23.1566 26.2582 23.3217 26.3759 23.4826 26.4906C24.0924 26.9251 24.6401 27.3155 25.3163 27.2524C25.7104 27.2168 26.1168 26.8472 26.323 25.7423C26.8117 23.1333 27.7718 17.4808 27.9928 15.1505C28.0124 14.9467 27.9878 14.6852 27.9682 14.571C27.9507 14.4164 27.8757 14.274 27.7583 14.172Z" fill="#26A5E4"/>
<rect x="0.5" y="0.5" width="39" height="39" rx="5.5" stroke="white" stroke-opacity="0.2"/>
</svg>
