<svg width="48" height="48" viewBox="0 0 48 48" fill="none" xmlns="http://www.w3.org/2000/svg">
<rect x="0.5" y="0.5" width="47" height="47" rx="23.5" fill="#0D1117"/>
<path fill-rule="evenodd" clip-rule="evenodd" d="M31.032 36H35.9986H36V27.2017C36 22.8838 35.0693 19.5666 30.037 19.5666C27.6152 19.5666 25.9942 20.8962 25.3276 22.1559H25.2633V19.9711H20.4924V36H25.4589V28.0681C25.4589 25.977 25.8544 23.9545 28.4439 23.9545C30.9943 23.9545 31.032 26.3465 31.032 28.2053V36ZM12 14.8875C12 16.4817 13.2843 17.7778 14.883 17.7778C16.4747 17.7778 17.7673 16.4817 17.7673 14.8875C17.7673 13.2947 16.4761 12 14.883 12C13.2857 12 12 13.2947 12 14.8875ZM12.3927 19.9711V36H17.3732V19.9711H12.3927Z" fill="#F0F0F0"/>
<rect x="0.5" y="0.5" width="47" height="47" rx="23.5" stroke="#484848"/>
</svg>
