<svg width="40" height="40" viewBox="0 0 40 40" fill="none" xmlns="http://www.w3.org/2000/svg">
<rect width="40" height="40" rx="6" fill="black" fill-opacity="0.1"/>
<path d="M20 12C17.8267 12 17.5553 12.01 16.702 12.048C15.85 12.088 15.27 12.222 14.76 12.42C14.234 12.624 13.7873 12.898 13.3427 13.3427C12.898 13.7873 12.6233 14.2333 12.42 14.76C12.222 15.27 12.0873 15.85 12.048 16.702C12.008 17.5553 12 17.8267 12 20C12 22.1733 12.01 22.4447 12.048 23.298C12.088 24.1493 12.222 24.73 12.42 25.24C12.624 25.7653 12.898 26.2127 13.3427 26.6573C13.7873 27.1013 14.2333 27.3767 14.76 27.58C15.2707 27.7773 15.8507 27.9127 16.702 27.952C17.5553 27.992 17.8267 28 20 28C22.1733 28 22.4447 27.99 23.298 27.952C24.1493 27.912 24.73 27.7773 25.24 27.58C25.7653 27.376 26.2127 27.1013 26.6573 26.6573C27.1013 26.2127 27.3767 25.7673 27.58 25.24C27.7773 24.73 27.9127 24.1493 27.952 23.298C27.992 22.4447 28 22.1733 28 20C28 17.8267 27.99 17.5553 27.952 16.702C27.912 15.8507 27.7773 15.2693 27.58 14.76C27.376 14.234 27.1013 13.7873 26.6573 13.3427C26.2127 12.898 25.7673 12.6233 25.24 12.42C24.73 12.222 24.1493 12.0873 23.298 12.048C22.4447 12.008 22.1733 12 20 12ZM20 13.44C22.1353 13.44 22.39 13.4507 23.2333 13.4873C24.0133 13.524 24.4367 13.6533 24.718 13.764C25.0927 13.9087 25.358 14.082 25.6393 14.3613C25.9187 14.6413 26.092 14.9073 26.2367 15.282C26.346 15.5633 26.4767 15.9867 26.512 16.7667C26.55 17.6107 26.5587 17.864 26.5587 20C26.5587 22.136 26.5487 22.39 26.5093 23.2333C26.4687 24.0133 26.3387 24.4367 26.2287 24.718C26.0793 25.0927 25.9093 25.358 25.6293 25.6393C25.35 25.9187 25.08 26.092 24.7093 26.2367C24.4293 26.346 23.9993 26.4767 23.2193 26.512C22.37 26.55 22.12 26.5587 19.98 26.5587C17.8393 26.5587 17.5893 26.5487 16.7407 26.5093C15.96 26.4687 15.53 26.3387 15.25 26.2287C14.8707 26.0793 14.61 25.9093 14.3307 25.6293C14.05 25.35 13.8707 25.08 13.7307 24.7093C13.6207 24.4293 13.4913 23.9993 13.4507 23.2193C13.4207 22.3793 13.41 22.12 13.41 19.99C13.41 17.8593 13.4207 17.5993 13.4507 16.7493C13.4913 15.9693 13.6207 15.54 13.7307 15.26C13.8707 14.88 14.05 14.62 14.3307 14.3393C14.61 14.06 14.8707 13.88 15.25 13.7407C15.53 13.63 15.9507 13.5 16.7307 13.46C17.5807 13.43 17.8307 13.42 19.97 13.42L20 13.44V13.44ZM20 15.892C17.73 15.892 15.892 17.732 15.892 20C15.892 22.27 17.732 24.108 20 24.108C22.27 24.108 24.108 22.268 24.108 20C24.108 17.73 22.268 15.892 20 15.892ZM20 22.6667C18.5267 22.6667 17.3333 21.4733 17.3333 20C17.3333 18.5267 18.5267 17.3333 20 17.3333C21.4733 17.3333 22.6667 18.5267 22.6667 20C22.6667 21.4733 21.4733 22.6667 20 22.6667ZM25.2307 15.73C25.2307 16.26 24.8 16.69 24.2707 16.69C23.7407 16.69 23.3107 16.2593 23.3107 15.73C23.3107 15.2007 23.7413 14.7707 24.2707 14.7707C24.7993 14.77 25.2307 15.2007 25.2307 15.73Z" fill="#E4405F"/>
<rect x="0.5" y="0.5" width="39" height="39" rx="5.5" stroke="white" stroke-opacity="0.2"/>
</svg>
