<svg width="48" height="48" viewBox="0 0 48 48" fill="none" xmlns="http://www.w3.org/2000/svg">
<rect x="0.5" y="0.5" width="47" height="47" rx="23.5" fill="#0D1117"/>
<path fill-rule="evenodd" clip-rule="evenodd" d="M35.6374 15.258C35.3722 15.0426 34.9652 14.9965 34.781 15.0002C33.9505 15.0149 32.6742 15.4588 26.538 18.0112C24.387 18.9044 20.0923 20.7552 13.6504 23.5619C12.6043 23.9781 12.0555 24.3851 12.0058 24.7828C11.9216 25.4551 12.762 25.7198 13.9079 26.0808C14.0649 26.1303 14.2276 26.1815 14.3944 26.2359C15.5233 26.6024 17.0408 27.0315 17.829 27.0462C18.5454 27.0646 19.3428 26.7699 20.2268 26.1622C26.2452 22.1015 29.352 20.0462 29.5472 20.002C29.6853 19.9707 29.8768 19.932 30.0057 20.0462C30.1346 20.1604 30.1218 20.3777 30.1089 20.4366C30.0248 20.7913 26.7286 23.8565 25.0155 25.4496C24.4781 25.9493 24.0965 26.3041 24.0187 26.385C23.8461 26.564 23.6703 26.7333 23.5012 26.8962C22.4522 27.9064 21.6641 28.6655 23.5435 29.9025C24.4474 30.4986 25.1705 30.9913 25.8923 31.483C26.6779 32.0182 27.4618 32.5523 28.4754 33.2174C28.7348 33.3873 28.9826 33.5639 29.2239 33.7359C30.1386 34.3877 30.9602 34.9733 31.9744 34.8786C32.5656 34.8252 33.1751 34.2708 33.4845 32.6134C34.2175 28.7 35.6576 20.2212 35.9891 16.7258C36.0186 16.4201 35.9818 16.0278 35.9523 15.8565C35.926 15.6246 35.8136 15.4111 35.6374 15.258Z" fill="#F0F0F0"/>
<rect x="0.5" y="0.5" width="47" height="47" rx="23.5" stroke="#484848"/>
</svg>
