<svg width="44" height="44" viewBox="0 0 44 44" fill="none" xmlns="http://www.w3.org/2000/svg">
<rect width="44" height="44" rx="22" fill="black" fill-opacity="0.1"/>
<path d="M22 10C18.74 10 18.333 10.015 17.053 10.072C15.775 10.132 14.905 10.333 14.14 10.63C13.351 10.936 12.681 11.347 12.014 12.014C11.347 12.681 10.935 13.35 10.63 14.14C10.333 14.905 10.131 15.775 10.072 17.053C10.012 18.333 10 18.74 10 22C10 25.26 10.015 25.667 10.072 26.947C10.132 28.224 10.333 29.095 10.63 29.86C10.936 30.648 11.347 31.319 12.014 31.986C12.681 32.652 13.35 33.065 14.14 33.37C14.906 33.666 15.776 33.869 17.053 33.928C18.333 33.988 18.74 34 22 34C25.26 34 25.667 33.985 26.947 33.928C28.224 33.868 29.095 33.666 29.86 33.37C30.648 33.064 31.319 32.652 31.986 31.986C32.652 31.319 33.065 30.651 33.37 29.86C33.666 29.095 33.869 28.224 33.928 26.947C33.988 25.667 34 25.26 34 22C34 18.74 33.985 18.333 33.928 17.053C33.868 15.776 33.666 14.904 33.37 14.14C33.064 13.351 32.652 12.681 31.986 12.014C31.319 11.347 30.651 10.935 29.86 10.63C29.095 10.333 28.224 10.131 26.947 10.072C25.667 10.012 25.26 10 22 10ZM22 12.16C25.203 12.16 25.585 12.176 26.85 12.231C28.02 12.286 28.655 12.48 29.077 12.646C29.639 12.863 30.037 13.123 30.459 13.542C30.878 13.962 31.138 14.361 31.355 14.923C31.519 15.345 31.715 15.98 31.768 17.15C31.825 18.416 31.838 18.796 31.838 22C31.838 25.204 31.823 25.585 31.764 26.85C31.703 28.02 31.508 28.655 31.343 29.077C31.119 29.639 30.864 30.037 30.444 30.459C30.025 30.878 29.62 31.138 29.064 31.355C28.644 31.519 27.999 31.715 26.829 31.768C25.555 31.825 25.18 31.838 21.97 31.838C18.759 31.838 18.384 31.823 17.111 31.764C15.94 31.703 15.295 31.508 14.875 31.343C14.306 31.119 13.915 30.864 13.496 30.444C13.075 30.025 12.806 29.62 12.596 29.064C12.431 28.644 12.237 27.999 12.176 26.829C12.131 25.569 12.115 25.18 12.115 21.985C12.115 18.789 12.131 18.399 12.176 17.124C12.237 15.954 12.431 15.31 12.596 14.89C12.806 14.32 13.075 13.93 13.496 13.509C13.915 13.09 14.306 12.82 14.875 12.611C15.295 12.445 15.926 12.25 17.096 12.19C18.371 12.145 18.746 12.13 21.955 12.13L22 12.16V12.16ZM22 15.838C18.595 15.838 15.838 18.598 15.838 22C15.838 25.405 18.598 28.162 22 28.162C25.405 28.162 28.162 25.402 28.162 22C28.162 18.595 25.402 15.838 22 15.838ZM22 26C19.79 26 18 24.21 18 22C18 19.79 19.79 18 22 18C24.21 18 26 19.79 26 22C26 24.21 24.21 26 22 26ZM29.846 15.595C29.846 16.39 29.2 17.035 28.406 17.035C27.611 17.035 26.966 16.389 26.966 15.595C26.966 14.801 27.612 14.156 28.406 14.156C29.199 14.155 29.846 14.801 29.846 15.595Z" fill="#E4405F"/>
<rect x="0.75" y="0.75" width="42.5" height="42.5" rx="21.25" stroke="white" stroke-opacity="0.2" stroke-width="1.5"/>
</svg>
