<svg width="40" height="40" viewBox="0 0 40 40" fill="none" xmlns="http://www.w3.org/2000/svg">
<rect width="40" height="40" rx="6" fill="black" fill-opacity="0.1"/>
<path d="M25.6313 25.6347H23.262V21.922C23.262 21.0367 23.244 19.8973 22.0273 19.8973C20.792 19.8973 20.6033 20.8607 20.6033 21.8567V25.6347H18.234V18H20.51V19.0407H20.5407C20.8587 18.4407 21.632 17.8073 22.7873 17.8073C25.188 17.8073 25.632 19.3873 25.632 21.444V25.6347H25.6313ZM15.558 16.9553C14.7953 16.9553 14.1827 16.338 14.1827 15.5787C14.1827 14.82 14.796 14.2033 15.558 14.2033C16.318 14.2033 16.934 14.82 16.934 15.5787C16.934 16.338 16.3173 16.9553 15.558 16.9553ZM16.746 25.6347H14.37V18H16.746V25.6347ZM26.8167 12H13.1807C12.528 12 12 12.516 12 13.1527V26.8473C12 27.4847 12.528 28 13.1807 28H26.8147C27.4667 28 28 27.4847 28 26.8473V13.1527C28 12.516 27.4667 12 26.8147 12H26.8167Z" fill="#0A66C2"/>
<rect x="0.5" y="0.5" width="39" height="39" rx="5.5" stroke="white" stroke-opacity="0.2"/>
</svg>
