<svg width="44" height="44" viewBox="0 0 44 44" fill="none" xmlns="http://www.w3.org/2000/svg">
<rect width="44" height="44" rx="22" fill="black" fill-opacity="0.1"/>
<g clip-path="url(#clip0_1289:115)">
<path d="M34 15.457V29.366C34 30.27 33.268 31.002 32.364 31.002H28.545V21.73L22 26.64L15.455 21.73V31.003H11.636C11.4211 31.003 11.2083 30.9606 11.0097 30.8783C10.8111 30.7961 10.6307 30.6755 10.4788 30.5234C10.3269 30.3714 10.2064 30.1909 10.1242 29.9923C10.0421 29.7937 9.99987 29.5809 10 29.366V15.457C10 13.434 12.309 12.279 13.927 13.493L15.455 14.64L22 19.548L28.545 14.638L30.073 13.493C31.69 12.28 34 13.434 34 15.457Z" fill="#EA4335"/>
</g>
<rect x="0.75" y="0.75" width="42.5" height="42.5" rx="21.25" stroke="white" stroke-opacity="0.2" stroke-width="1.5"/>
<defs>
<clipPath id="clip0_1289:115">
<rect width="24" height="24" fill="white" transform="translate(10 10)"/>
</clipPath>
</defs>
</svg>
