<svg width="32" height="32" viewBox="0 0 32 32" fill="none" xmlns="http://www.w3.org/2000/svg">
<rect x="0.5" y="0.5" width="31" height="31" rx="15.5" fill="#0D1117"/>
<path fill-rule="evenodd" clip-rule="evenodd" d="M23.7582 10.172C23.5814 10.0284 23.3101 9.9977 23.1873 10.0002C22.6336 10.01 21.7828 10.3059 17.6919 12.0075C16.2579 12.603 13.3948 13.8369 9.10019 15.7079C8.40284 15.9854 8.03697 16.2567 8.00382 16.5219C7.94767 16.9701 8.50792 17.1466 9.27191 17.3872C9.37654 17.4202 9.48499 17.4544 9.5962 17.4906C10.3488 17.7349 11.3605 18.021 11.8859 18.0308C12.3635 18.0431 12.8951 17.8467 13.4845 17.4415C17.4967 14.7343 19.5679 13.3642 19.6981 13.3347C19.7901 13.3138 19.9178 13.2881 20.0038 13.3642C20.0897 13.4403 20.0811 13.5852 20.0725 13.6245C20.0164 13.8609 17.819 15.9044 16.6769 16.9664C16.3187 17.2995 16.0643 17.5361 16.0124 17.5901C15.8973 17.7093 15.7801 17.8223 15.6674 17.9308C14.9681 18.6043 14.4427 19.1103 15.6956 19.935C16.2982 20.3325 16.7803 20.6609 17.2615 20.9887C17.7852 21.3455 18.3078 21.7016 18.9835 22.145C19.1565 22.2583 19.3217 22.376 19.4826 22.4906C20.0923 22.9252 20.6401 23.3155 21.3162 23.2524C21.7103 23.2168 22.1167 22.8472 22.323 21.7423C22.8116 19.1333 23.7717 13.4808 23.9927 11.1506C24.0123 10.9467 23.9878 10.6852 23.9681 10.5711C23.9506 10.4165 23.8757 10.2741 23.7582 10.172Z" fill="#F0F0F0"/>
<rect x="0.5" y="0.5" width="31" height="31" rx="15.5" stroke="#484848"/>
</svg>
