<svg width="32" height="32" viewBox="0 0 32 32" fill="none" xmlns="http://www.w3.org/2000/svg">
<rect width="32" height="32" rx="16" fill="#0A66C2"/>
<path fill-rule="evenodd" clip-rule="evenodd" d="M20.688 24H23.9991H24V18.1345C24 15.2558 23.3795 13.0444 20.0247 13.0444C18.4101 13.0444 17.3294 13.9308 16.8851 14.7706H16.8422V13.314H13.6616V24H16.9726V18.7121C16.9726 17.318 17.2363 15.9697 18.9626 15.9697C20.6629 15.9697 20.688 17.5644 20.688 18.8035V24ZM8 9.925C8 10.9878 8.85618 11.8519 9.92197 11.8519C10.9831 11.8519 11.8449 10.9878 11.8449 9.925C11.8449 8.86312 10.984 8 9.92197 8C8.85711 8 8 8.86312 8 9.925ZM8.26179 13.314V24H11.5822V13.314H8.26179Z" fill="#F0F0F0"/>
</svg>
