<svg width="44" height="44" viewBox="0 0 44 44" fill="none" xmlns="http://www.w3.org/2000/svg">
<rect width="44" height="44" rx="22" fill="black" fill-opacity="0.1"/>
<path fill-rule="evenodd" clip-rule="evenodd" d="M33.6374 13.258C33.3722 13.0426 32.9652 12.9965 32.781 13.0002C31.9505 13.0149 30.6742 13.4588 24.538 16.0112C22.387 16.9044 18.0923 18.7552 11.6504 21.5619C10.6043 21.9781 10.0555 22.3851 10.0058 22.7828C9.92159 23.4551 10.762 23.7198 11.9079 24.0808C12.0649 24.1303 12.2276 24.1815 12.3944 24.2359C13.5233 24.6024 15.0408 25.0315 15.829 25.0462C16.5454 25.0646 17.3428 24.7699 18.2268 24.1622C24.2452 20.1015 27.352 18.0462 27.5472 18.002C27.6853 17.9707 27.8768 17.932 28.0057 18.0462C28.1346 18.1604 28.1218 18.3777 28.1089 18.4366C28.0248 18.7913 24.7286 21.8565 23.0155 23.4496C22.4781 23.9493 22.0965 24.3041 22.0187 24.385C21.8461 24.564 21.6703 24.7333 21.5012 24.8962C20.4522 25.9064 19.6641 26.6655 21.5435 27.9025C22.4474 28.4986 23.1705 28.9913 23.8923 29.483C24.6779 30.0182 25.4618 30.5523 26.4754 31.2174C26.7348 31.3873 26.9826 31.5639 27.2239 31.7359C28.1386 32.3877 28.9602 32.9733 29.9744 32.8786C30.5656 32.8252 31.1751 32.2708 31.4845 30.6134C32.2175 26.7 33.6576 18.2212 33.9891 14.7258C34.0186 14.4201 33.9818 14.0278 33.9523 13.8565C33.926 13.6246 33.8136 13.4111 33.6374 13.258Z" fill="#26A5E4"/>
<rect x="0.75" y="0.75" width="42.5" height="42.5" rx="21.25" stroke="white" stroke-opacity="0.2" stroke-width="1.5"/>
</svg>
