<svg width="40" height="40" viewBox="0 0 40 40" fill="none" xmlns="http://www.w3.org/2000/svg">
<rect width="40" height="40" rx="6" fill="black" fill-opacity="0.1"/>
<g clip-path="url(#clip0_1238:391)">
<path d="M28 15.638V24.9106C28 25.5133 27.512 26.0013 26.9093 26.0013H24.3633V19.82L20 23.0933L15.6367 19.82V26.002H13.0907C12.9474 26.002 12.8055 25.9737 12.6731 25.9189C12.5408 25.864 12.4205 25.7836 12.3192 25.6823C12.2179 25.5809 12.1376 25.4606 12.0828 25.3282C12.0281 25.1958 11.9999 25.0539 12 24.9106V15.638C12 14.2893 13.5393 13.5193 14.618 14.3286L15.6367 15.0933L20 18.3653L24.3633 15.092L25.382 14.3286C26.46 13.52 28 14.2893 28 15.638Z" fill="#EA4335"/>
</g>
<rect x="0.5" y="0.5" width="39" height="39" rx="5.5" stroke="white" stroke-opacity="0.2"/>
<defs>
<clipPath id="clip0_1238:391">
<rect width="16" height="16" fill="white" transform="translate(12 12)"/>
</clipPath>
</defs>
</svg>
