<svg width="44" height="44" viewBox="0 0 44 44" fill="none" xmlns="http://www.w3.org/2000/svg">
<rect width="44" height="44" rx="22" fill="#3666FF"/>
<path fill-rule="evenodd" clip-rule="evenodd" d="M29.0321 33.9999H33.9987H34.0001V25.2016C34.0001 20.8837 33.0693 17.5665 28.0371 17.5665C25.6153 17.5665 23.9942 18.8962 23.3276 20.1558H23.2634V17.971H18.4924V33.9999H23.459V26.068C23.459 23.9769 23.8545 21.9544 26.444 21.9544C28.9944 21.9544 29.0321 24.3464 29.0321 26.2052V33.9999ZM10.0001 12.8874C10.0001 14.4816 11.2843 15.7777 12.883 15.7777C14.4747 15.7777 15.7674 14.4816 15.7674 12.8874C15.7674 11.2946 14.4761 9.9999 12.883 9.9999C11.2857 9.9999 10.0001 11.2946 10.0001 12.8874ZM10.3928 17.971V33.9999H15.3733V17.971H10.3928Z" fill="#F0F0F0"/>
<rect x="0.75" y="0.75" width="42.5" height="42.5" rx="21.25" stroke="white" stroke-opacity="0.1" stroke-width="1.5"/>
</svg>
