<svg width="32" height="32" viewBox="0 0 32 32" fill="none" xmlns="http://www.w3.org/2000/svg">
<rect x="0.5" y="0.5" width="31" height="31" rx="15.5" fill="#0D1117"/>
<g clip-path="url(#clip0_1238:391)">
<path d="M24 11.638V20.9106C24 21.5133 23.512 22.0013 22.9093 22.0013H20.3633V15.82L16 19.0933L11.6367 15.82V22.002H9.09067C8.94738 22.002 8.8055 21.9737 8.67313 21.9189C8.54076 21.864 8.4205 21.7836 8.31921 21.6823C8.21793 21.5809 8.1376 21.4606 8.08283 21.3282C8.02806 21.1958 7.99991 21.0539 8 20.9106V11.638C8 10.2893 9.53933 9.51931 10.618 10.3286L11.6367 11.0933L16 14.3653L20.3633 11.092L21.382 10.3286C22.46 9.51998 24 10.2893 24 11.638Z" fill="#F0F0F0"/>
</g>
<rect x="0.5" y="0.5" width="31" height="31" rx="15.5" stroke="#484848"/>
<defs>
<clipPath id="clip0_1238:391">
<rect width="16" height="16" fill="white" transform="translate(8 8)"/>
</clipPath>
</defs>
</svg>
