<svg width="44" height="44" viewBox="0 0 44 44" fill="none" xmlns="http://www.w3.org/2000/svg">
<rect width="44" height="44" rx="6" fill="black" fill-opacity="0.1"/>
<path d="M30.447 30.452H26.893V24.883C26.893 23.555 26.866 21.846 25.041 21.846C23.188 21.846 22.905 23.291 22.905 24.785V30.452H19.351V19H22.765V20.561H22.811C23.288 19.661 24.448 18.711 26.181 18.711C29.782 18.711 30.448 21.081 30.448 24.166V30.452H30.447ZM15.337 17.433C14.193 17.433 13.274 16.507 13.274 15.368C13.274 14.23 14.194 13.305 15.337 13.305C16.477 13.305 17.401 14.23 17.401 15.368C17.401 16.507 16.476 17.433 15.337 17.433ZM17.119 30.452H13.555V19H17.119V30.452ZM32.225 10H11.771C10.792 10 10 10.774 10 11.729V32.271C10 33.227 10.792 34 11.771 34H32.222C33.2 34 34 33.227 34 32.271V11.729C34 10.774 33.2 10 32.222 10H32.225Z" fill="#0A66C2"/>
<rect x="0.5" y="0.5" width="43" height="43" rx="5.5" stroke="white" stroke-opacity="0.2"/>
</svg>
