<svg width="32" height="32" viewBox="0 0 32 32" fill="none" xmlns="http://www.w3.org/2000/svg">
<rect width="32" height="32" rx="16" fill="#0D1117"/>
<path fill-rule="evenodd" clip-rule="evenodd" d="M20.6881 23.9999H23.9991H24V18.1344C24 15.2558 23.3796 13.0443 20.0247 13.0443C18.4102 13.0443 17.3295 13.9308 16.8851 14.7706H16.8423V13.314H13.6616V23.9999H16.9727V18.712C16.9727 17.3179 17.2363 15.9696 18.9627 15.9696C20.6629 15.9696 20.6881 17.5643 20.6881 18.8035V23.9999ZM8.00006 9.92494C8.00006 10.9877 8.85624 11.8518 9.92203 11.8518C10.9832 11.8518 11.8449 10.9877 11.8449 9.92494C11.8449 8.86306 10.9841 7.99994 9.92203 7.99994C8.85717 7.99994 8.00006 8.86306 8.00006 9.92494ZM8.26185 13.314V23.9999H11.5822V13.314H8.26185Z" fill="#F5F5F5"/>
</svg>
