<svg width="98" height="24" viewBox="0 0 98 24" fill="none" xmlns="http://www.w3.org/2000/svg">
<rect x="0.742065" width="97" height="24" rx="4" fill="#2D2D2D"/>
<g clip-path="url(#clip0_1206:80)">
<path d="M14.7421 6C13.1121 6 12.9086 6.0075 12.2686 6.036C11.6296 6.066 11.1946 6.1665 10.8121 6.315C10.4176 6.468 10.0826 6.6735 9.74907 7.007C9.41557 7.3405 9.20957 7.675 9.05707 8.07C8.90857 8.4525 8.80757 8.8875 8.77807 9.5265C8.74807 10.1665 8.74207 10.37 8.74207 12C8.74207 13.63 8.74957 13.8335 8.77807 14.4735C8.80807 15.112 8.90857 15.5475 9.05707 15.93C9.21007 16.324 9.41557 16.6595 9.74907 16.993C10.0826 17.326 10.4171 17.5325 10.8121 17.685C11.1951 17.833 11.6301 17.9345 12.2686 17.964C12.9086 17.994 13.1121 18 14.7421 18C16.3721 18 16.5756 17.9925 17.2156 17.964C17.8541 17.934 18.2896 17.833 18.6721 17.685C19.0661 17.532 19.4016 17.326 19.7351 16.993C20.0681 16.6595 20.2746 16.3255 20.4271 15.93C20.5751 15.5475 20.6766 15.112 20.7061 14.4735C20.7361 13.8335 20.7421 13.63 20.7421 12C20.7421 10.37 20.7346 10.1665 20.7061 9.5265C20.6761 8.888 20.5751 8.452 20.4271 8.07C20.2741 7.6755 20.0681 7.3405 19.7351 7.007C19.4016 6.6735 19.0676 6.4675 18.6721 6.315C18.2896 6.1665 17.8541 6.0655 17.2156 6.036C16.5756 6.006 16.3721 6 14.7421 6ZM14.7421 7.08C16.3436 7.08 16.5346 7.088 17.1671 7.1155C17.7521 7.143 18.0696 7.24 18.2806 7.323C18.5616 7.4315 18.7606 7.5615 18.9716 7.771C19.1811 7.981 19.3111 8.1805 19.4196 8.4615C19.5016 8.6725 19.5996 8.99 19.6261 9.575C19.6546 10.208 19.6611 10.398 19.6611 12C19.6611 13.602 19.6536 13.7925 19.6241 14.425C19.5936 15.01 19.4961 15.3275 19.4136 15.5385C19.3016 15.8195 19.1741 16.0185 18.9641 16.2295C18.7546 16.439 18.5521 16.569 18.2741 16.6775C18.0641 16.7595 17.7416 16.8575 17.1566 16.884C16.5196 16.9125 16.3321 16.919 14.7271 16.919C13.1216 16.919 12.9341 16.9115 12.2976 16.882C11.7121 16.8515 11.3896 16.754 11.1796 16.6715C10.8951 16.5595 10.6996 16.432 10.4901 16.222C10.2796 16.0125 10.1451 15.81 10.0401 15.532C9.95757 15.322 9.86057 14.9995 9.83007 14.4145C9.80757 13.7845 9.79957 13.59 9.79957 11.9925C9.79957 10.3945 9.80757 10.1995 9.83007 9.562C9.86057 8.977 9.95757 8.655 10.0401 8.445C10.1451 8.16 10.2796 7.965 10.4901 7.7545C10.6996 7.545 10.8951 7.41 11.1796 7.3055C11.3896 7.2225 11.7051 7.125 12.2901 7.095C12.9276 7.0725 13.1151 7.065 14.7196 7.065L14.7421 7.08V7.08ZM14.7421 8.919C13.0396 8.919 11.6611 10.299 11.6611 12C11.6611 13.7025 13.0411 15.081 14.7421 15.081C16.4446 15.081 17.8231 13.701 17.8231 12C17.8231 10.2975 16.4431 8.919 14.7421 8.919ZM14.7421 14C13.6371 14 12.7421 13.105 12.7421 12C12.7421 10.895 13.6371 10 14.7421 10C15.8471 10 16.7421 10.895 16.7421 12C16.7421 13.105 15.8471 14 14.7421 14ZM18.6651 8.7975C18.6651 9.195 18.3421 9.5175 17.9451 9.5175C17.5476 9.5175 17.2251 9.1945 17.2251 8.7975C17.2251 8.4005 17.5481 8.078 17.9451 8.078C18.3416 8.0775 18.6651 8.4005 18.6651 8.7975Z" fill="#F0F0F0"/>
</g>
<path d="M29.0101 10.844V17H27.5221V10.844H29.0101ZM29.2141 9.05C29.2141 9.178 29.1881 9.298 29.1361 9.41C29.0841 9.522 29.0141 9.62 28.9261 9.704C28.8421 9.788 28.7421 9.856 28.6261 9.908C28.5101 9.956 28.3861 9.98 28.2541 9.98C28.1261 9.98 28.0041 9.956 27.8881 9.908C27.7761 9.856 27.6781 9.788 27.5941 9.704C27.5101 9.62 27.4421 9.522 27.3901 9.41C27.3421 9.298 27.3181 9.178 27.3181 9.05C27.3181 8.918 27.3421 8.794 27.3901 8.678C27.4421 8.562 27.5101 8.462 27.5941 8.378C27.6781 8.294 27.7761 8.228 27.8881 8.18C28.0041 8.128 28.1261 8.102 28.2541 8.102C28.3861 8.102 28.5101 8.128 28.6261 8.18C28.7421 8.228 28.8421 8.294 28.9261 8.378C29.0141 8.462 29.0841 8.562 29.1361 8.678C29.1881 8.794 29.2141 8.918 29.2141 9.05ZM33.1069 11.6C33.2309 11.476 33.3609 11.362 33.4969 11.258C33.6369 11.15 33.7829 11.06 33.9349 10.988C34.0909 10.912 34.2569 10.854 34.4329 10.814C34.6089 10.77 34.8009 10.748 35.0089 10.748C35.3449 10.748 35.6429 10.806 35.9029 10.922C36.1629 11.034 36.3789 11.194 36.5509 11.402C36.7269 11.606 36.8589 11.852 36.9469 12.14C37.0389 12.424 37.0849 12.738 37.0849 13.082V17H35.6029V13.082C35.6029 12.706 35.5169 12.416 35.3449 12.212C35.1729 12.004 34.9109 11.9 34.5589 11.9C34.3029 11.9 34.0629 11.958 33.8389 12.074C33.6149 12.19 33.4029 12.348 33.2029 12.548V17H31.7209V10.844H32.6269C32.8189 10.844 32.9449 10.934 33.0049 11.114L33.1069 11.6ZM43.4504 12.044C43.4104 12.108 43.3684 12.154 43.3244 12.182C43.2804 12.206 43.2244 12.218 43.1564 12.218C43.0844 12.218 43.0064 12.198 42.9224 12.158C42.8424 12.118 42.7484 12.074 42.6404 12.026C42.5324 11.974 42.4084 11.928 42.2684 11.888C42.1324 11.848 41.9704 11.828 41.7824 11.828C41.4904 11.828 41.2604 11.89 41.0924 12.014C40.9284 12.138 40.8464 12.3 40.8464 12.5C40.8464 12.632 40.8884 12.744 40.9724 12.836C41.0604 12.924 41.1744 13.002 41.3144 13.07C41.4584 13.138 41.6204 13.2 41.8004 13.256C41.9804 13.308 42.1624 13.366 42.3464 13.43C42.5344 13.494 42.7184 13.568 42.8984 13.652C43.0784 13.732 43.2384 13.836 43.3784 13.964C43.5224 14.088 43.6364 14.238 43.7204 14.414C43.8084 14.59 43.8524 14.802 43.8524 15.05C43.8524 15.346 43.7984 15.62 43.6904 15.872C43.5864 16.12 43.4304 16.336 43.2224 16.52C43.0144 16.7 42.7564 16.842 42.4484 16.946C42.1444 17.046 41.7924 17.096 41.3924 17.096C41.1804 17.096 40.9724 17.076 40.7684 17.036C40.5684 17 40.3744 16.948 40.1864 16.88C40.0024 16.812 39.8304 16.732 39.6704 16.64C39.5144 16.548 39.3764 16.448 39.2564 16.34L39.5984 15.776C39.6424 15.708 39.6944 15.656 39.7544 15.62C39.8144 15.584 39.8904 15.566 39.9824 15.566C40.0744 15.566 40.1604 15.592 40.2404 15.644C40.3244 15.696 40.4204 15.752 40.5284 15.812C40.6364 15.872 40.7624 15.928 40.9064 15.98C41.0544 16.032 41.2404 16.058 41.4644 16.058C41.6404 16.058 41.7904 16.038 41.9144 15.998C42.0424 15.954 42.1464 15.898 42.2264 15.83C42.3104 15.762 42.3704 15.684 42.4064 15.596C42.4464 15.504 42.4664 15.41 42.4664 15.314C42.4664 15.17 42.4224 15.052 42.3344 14.96C42.2504 14.868 42.1364 14.788 41.9924 14.72C41.8524 14.652 41.6904 14.592 41.5064 14.54C41.3264 14.484 41.1404 14.424 40.9484 14.36C40.7604 14.296 40.5744 14.222 40.3904 14.138C40.2104 14.05 40.0484 13.94 39.9044 13.808C39.7644 13.676 39.6504 13.514 39.5624 13.322C39.4784 13.13 39.4364 12.898 39.4364 12.626C39.4364 12.374 39.4864 12.134 39.5864 11.906C39.6864 11.678 39.8324 11.48 40.0244 11.312C40.2204 11.14 40.4624 11.004 40.7504 10.904C41.0424 10.8 41.3784 10.748 41.7584 10.748C42.1824 10.748 42.5684 10.818 42.9164 10.958C43.2644 11.098 43.5544 11.282 43.7864 11.51L43.4504 12.044ZM48.2198 17.096C47.6838 17.096 47.2718 16.946 46.9838 16.646C46.6998 16.342 46.5578 15.924 46.5578 15.392V11.954H45.9278C45.8478 11.954 45.7798 11.928 45.7238 11.876C45.6678 11.824 45.6398 11.746 45.6398 11.642V11.054L46.6298 10.892L46.9418 9.212C46.9618 9.132 46.9998 9.07 47.0558 9.026C47.1118 8.982 47.1838 8.96 47.2718 8.96H48.0398V10.898H49.6838V11.954H48.0398V15.29C48.0398 15.482 48.0858 15.632 48.1778 15.74C48.2738 15.848 48.4038 15.902 48.5678 15.902C48.6598 15.902 48.7358 15.892 48.7958 15.872C48.8598 15.848 48.9138 15.824 48.9578 15.8C49.0058 15.776 49.0478 15.754 49.0838 15.734C49.1198 15.71 49.1558 15.698 49.1918 15.698C49.2358 15.698 49.2718 15.71 49.2998 15.734C49.3278 15.754 49.3578 15.786 49.3898 15.83L49.8338 16.55C49.6178 16.73 49.3698 16.866 49.0898 16.958C48.8098 17.05 48.5198 17.096 48.2198 17.096ZM55.0847 14.372C54.6567 14.392 54.2967 14.43 54.0047 14.486C53.7127 14.538 53.4787 14.606 53.3027 14.69C53.1267 14.774 53.0007 14.872 52.9247 14.984C52.8487 15.096 52.8107 15.218 52.8107 15.35C52.8107 15.61 52.8867 15.796 53.0387 15.908C53.1947 16.02 53.3967 16.076 53.6447 16.076C53.9487 16.076 54.2107 16.022 54.4307 15.914C54.6547 15.802 54.8727 15.634 55.0847 15.41V14.372ZM51.6887 11.702C52.3967 11.054 53.2487 10.73 54.2447 10.73C54.6047 10.73 54.9267 10.79 55.2107 10.91C55.4947 11.026 55.7347 11.19 55.9307 11.402C56.1267 11.61 56.2747 11.86 56.3747 12.152C56.4787 12.444 56.5307 12.764 56.5307 13.112V17H55.8587C55.7187 17 55.6107 16.98 55.5347 16.94C55.4587 16.896 55.3987 16.81 55.3547 16.682L55.2227 16.238C55.0667 16.378 54.9147 16.502 54.7667 16.61C54.6187 16.714 54.4647 16.802 54.3047 16.874C54.1447 16.946 53.9727 17 53.7887 17.036C53.6087 17.076 53.4087 17.096 53.1887 17.096C52.9287 17.096 52.6887 17.062 52.4687 16.994C52.2487 16.922 52.0587 16.816 51.8987 16.676C51.7387 16.536 51.6147 16.362 51.5267 16.154C51.4387 15.946 51.3947 15.704 51.3947 15.428C51.3947 15.272 51.4207 15.118 51.4727 14.966C51.5247 14.81 51.6087 14.662 51.7247 14.522C51.8447 14.382 51.9987 14.25 52.1867 14.126C52.3747 14.002 52.6047 13.894 52.8767 13.802C53.1527 13.71 53.4727 13.636 53.8367 13.58C54.2007 13.52 54.6167 13.484 55.0847 13.472V13.112C55.0847 12.7 54.9967 12.396 54.8207 12.2C54.6447 12 54.3907 11.9 54.0587 11.9C53.8187 11.9 53.6187 11.928 53.4587 11.984C53.3027 12.04 53.1647 12.104 53.0447 12.176C52.9247 12.244 52.8147 12.306 52.7147 12.362C52.6187 12.418 52.5107 12.446 52.3907 12.446C52.2867 12.446 52.1987 12.42 52.1267 12.368C52.0547 12.312 51.9967 12.248 51.9527 12.176L51.6887 11.702ZM61.3764 13.772C61.5604 13.772 61.7204 13.748 61.8564 13.7C61.9924 13.648 62.1044 13.578 62.1924 13.49C62.2844 13.402 62.3524 13.296 62.3964 13.172C62.4444 13.048 62.4684 12.912 62.4684 12.764C62.4684 12.46 62.3764 12.22 62.1924 12.044C62.0124 11.864 61.7404 11.774 61.3764 11.774C61.0124 11.774 60.7384 11.864 60.5544 12.044C60.3744 12.22 60.2844 12.46 60.2844 12.764C60.2844 12.908 60.3064 13.042 60.3504 13.166C60.3984 13.29 60.4664 13.398 60.5544 13.49C60.6464 13.578 60.7604 13.648 60.8964 13.7C61.0364 13.748 61.1964 13.772 61.3764 13.772ZM63.0504 17.276C63.0504 17.156 63.0144 17.058 62.9424 16.982C62.8704 16.906 62.7724 16.848 62.6484 16.808C62.5244 16.764 62.3784 16.732 62.2104 16.712C62.0464 16.692 61.8704 16.678 61.6824 16.67C61.4984 16.658 61.3064 16.648 61.1064 16.64C60.9104 16.632 60.7184 16.616 60.5304 16.592C60.3664 16.684 60.2324 16.792 60.1284 16.916C60.0284 17.04 59.9784 17.184 59.9784 17.348C59.9784 17.456 60.0044 17.556 60.0564 17.648C60.1124 17.744 60.1984 17.826 60.3144 17.894C60.4344 17.962 60.5884 18.014 60.7764 18.05C60.9644 18.09 61.1944 18.11 61.4664 18.11C61.7424 18.11 61.9804 18.088 62.1804 18.044C62.3804 18.004 62.5444 17.946 62.6724 17.87C62.8044 17.798 62.9004 17.71 62.9604 17.606C63.0204 17.506 63.0504 17.396 63.0504 17.276ZM64.5264 11.054V11.606C64.5264 11.782 64.4204 11.89 64.2084 11.93L63.6564 12.032C63.7404 12.244 63.7824 12.476 63.7824 12.728C63.7824 13.032 63.7204 13.308 63.5964 13.556C63.4764 13.8 63.3084 14.008 63.0924 14.18C62.8764 14.352 62.6204 14.486 62.3244 14.582C62.0324 14.674 61.7164 14.72 61.3764 14.72C61.2564 14.72 61.1404 14.714 61.0284 14.702C60.9164 14.69 60.8064 14.674 60.6984 14.654C60.5064 14.77 60.4104 14.9 60.4104 15.044C60.4104 15.168 60.4664 15.26 60.5784 15.32C60.6944 15.376 60.8464 15.416 61.0344 15.44C61.2224 15.464 61.4364 15.48 61.6764 15.488C61.9164 15.492 62.1624 15.504 62.4144 15.524C62.6664 15.544 62.9124 15.58 63.1524 15.632C63.3924 15.68 63.6064 15.758 63.7944 15.866C63.9824 15.974 64.1324 16.122 64.2444 16.31C64.3604 16.494 64.4184 16.732 64.4184 17.024C64.4184 17.296 64.3504 17.56 64.2144 17.816C64.0824 18.072 63.8884 18.3 63.6324 18.5C63.3804 18.7 63.0684 18.86 62.6964 18.98C62.3284 19.104 61.9084 19.166 61.4364 19.166C60.9724 19.166 60.5684 19.12 60.2244 19.028C59.8804 18.94 59.5944 18.82 59.3664 18.668C59.1384 18.52 58.9684 18.348 58.8564 18.152C58.7444 17.956 58.6884 17.752 58.6884 17.54C58.6884 17.252 58.7744 17.012 58.9464 16.82C59.1224 16.624 59.3624 16.468 59.6664 16.352C59.5024 16.268 59.3724 16.156 59.2764 16.016C59.1804 15.876 59.1324 15.692 59.1324 15.464C59.1324 15.372 59.1484 15.278 59.1804 15.182C59.2164 15.082 59.2664 14.984 59.3304 14.888C59.3984 14.792 59.4824 14.702 59.5824 14.618C59.6824 14.53 59.8004 14.452 59.9364 14.384C59.6244 14.216 59.3784 13.992 59.1984 13.712C59.0224 13.432 58.9344 13.104 58.9344 12.728C58.9344 12.424 58.9944 12.15 59.1144 11.906C59.2384 11.658 59.4084 11.448 59.6244 11.276C59.8444 11.1 60.1024 10.966 60.3984 10.874C60.6984 10.782 61.0244 10.736 61.3764 10.736C61.6404 10.736 61.8884 10.764 62.1204 10.82C62.3524 10.872 62.5644 10.95 62.7564 11.054H64.5264ZM68.0643 11.912C68.2563 11.544 68.4843 11.256 68.7483 11.048C69.0123 10.836 69.3243 10.73 69.6843 10.73C69.9683 10.73 70.1963 10.792 70.3683 10.916L70.2723 12.026C70.2523 12.098 70.2223 12.15 70.1823 12.182C70.1463 12.21 70.0963 12.224 70.0323 12.224C69.9723 12.224 69.8823 12.214 69.7623 12.194C69.6463 12.174 69.5323 12.164 69.4203 12.164C69.2563 12.164 69.1103 12.188 68.9823 12.236C68.8543 12.284 68.7383 12.354 68.6343 12.446C68.5343 12.534 68.4443 12.642 68.3643 12.77C68.2883 12.898 68.2163 13.044 68.1483 13.208V17H66.6663V10.844H67.5363C67.6883 10.844 67.7943 10.872 67.8543 10.928C67.9143 10.98 67.9543 11.076 67.9743 11.216L68.0643 11.912ZM75.5128 14.372C75.0848 14.392 74.7248 14.43 74.4328 14.486C74.1408 14.538 73.9068 14.606 73.7308 14.69C73.5548 14.774 73.4288 14.872 73.3528 14.984C73.2768 15.096 73.2388 15.218 73.2388 15.35C73.2388 15.61 73.3148 15.796 73.4668 15.908C73.6228 16.02 73.8248 16.076 74.0728 16.076C74.3768 16.076 74.6388 16.022 74.8588 15.914C75.0828 15.802 75.3008 15.634 75.5128 15.41V14.372ZM72.1168 11.702C72.8248 11.054 73.6768 10.73 74.6728 10.73C75.0328 10.73 75.3548 10.79 75.6388 10.91C75.9228 11.026 76.1628 11.19 76.3588 11.402C76.5548 11.61 76.7028 11.86 76.8028 12.152C76.9068 12.444 76.9588 12.764 76.9588 13.112V17H76.2868C76.1468 17 76.0388 16.98 75.9628 16.94C75.8868 16.896 75.8268 16.81 75.7828 16.682L75.6508 16.238C75.4948 16.378 75.3428 16.502 75.1948 16.61C75.0468 16.714 74.8928 16.802 74.7328 16.874C74.5728 16.946 74.4008 17 74.2168 17.036C74.0368 17.076 73.8368 17.096 73.6168 17.096C73.3568 17.096 73.1168 17.062 72.8968 16.994C72.6768 16.922 72.4868 16.816 72.3268 16.676C72.1668 16.536 72.0428 16.362 71.9548 16.154C71.8668 15.946 71.8228 15.704 71.8228 15.428C71.8228 15.272 71.8488 15.118 71.9008 14.966C71.9528 14.81 72.0368 14.662 72.1528 14.522C72.2728 14.382 72.4268 14.25 72.6148 14.126C72.8028 14.002 73.0328 13.894 73.3048 13.802C73.5808 13.71 73.9008 13.636 74.2648 13.58C74.6288 13.52 75.0448 13.484 75.5128 13.472V13.112C75.5128 12.7 75.4248 12.396 75.2488 12.2C75.0728 12 74.8188 11.9 74.4868 11.9C74.2468 11.9 74.0468 11.928 73.8868 11.984C73.7308 12.04 73.5928 12.104 73.4728 12.176C73.3528 12.244 73.2428 12.306 73.1428 12.362C73.0468 12.418 72.9388 12.446 72.8188 12.446C72.7148 12.446 72.6268 12.42 72.5548 12.368C72.4828 12.312 72.4248 12.248 72.3808 12.176L72.1168 11.702ZM79.5545 17V10.844H80.4605C80.6525 10.844 80.7785 10.934 80.8385 11.114L80.9345 11.57C81.0425 11.45 81.1545 11.34 81.2705 11.24C81.3905 11.14 81.5165 11.054 81.6485 10.982C81.7845 10.91 81.9285 10.854 82.0805 10.814C82.2365 10.77 82.4065 10.748 82.5905 10.748C82.9785 10.748 83.2965 10.854 83.5445 11.066C83.7965 11.274 83.9845 11.552 84.1085 11.9C84.2045 11.696 84.3245 11.522 84.4685 11.378C84.6125 11.23 84.7705 11.11 84.9425 11.018C85.1145 10.926 85.2965 10.858 85.4885 10.814C85.6845 10.77 85.8805 10.748 86.0765 10.748C86.4165 10.748 86.7185 10.8 86.9825 10.904C87.2465 11.008 87.4685 11.16 87.6485 11.36C87.8285 11.56 87.9645 11.804 88.0565 12.092C88.1525 12.38 88.2005 12.71 88.2005 13.082V17H86.7185V13.082C86.7185 12.69 86.6325 12.396 86.4605 12.2C86.2885 12 86.0365 11.9 85.7045 11.9C85.5525 11.9 85.4105 11.926 85.2785 11.978C85.1505 12.03 85.0365 12.106 84.9365 12.206C84.8405 12.302 84.7645 12.424 84.7085 12.572C84.6525 12.72 84.6245 12.89 84.6245 13.082V17H83.1365V13.082C83.1365 12.67 83.0525 12.37 82.8845 12.182C82.7205 11.994 82.4785 11.9 82.1585 11.9C81.9425 11.9 81.7405 11.954 81.5525 12.062C81.3685 12.166 81.1965 12.31 81.0365 12.494V17H79.5545Z" fill="#F0F0F0"/>
<defs>
<clipPath id="clip0_1206:80">
<rect width="12" height="12" fill="white" transform="translate(8.74207 6)"/>
</clipPath>
</defs>
</svg>
