<svg width="44" height="44" viewBox="0 0 44 44" fill="none" xmlns="http://www.w3.org/2000/svg">
<rect width="44" height="44" rx="6" fill="black" fill-opacity="0.1"/>
<path d="M22 10C15.4 10 10 15.4 10 22C10 28.6 15.4 34 22 34C28.6 34 34 28.6 34 22C34 15.4 28.66 10 22 10ZM27.521 27.34C27.281 27.699 26.861 27.82 26.5 27.58C23.68 25.84 20.14 25.479 15.939 26.439C15.521 26.561 15.16 26.26 15.04 25.9C14.92 25.479 15.22 25.12 15.58 25C20.14 23.979 24.1 24.4 27.22 26.32C27.64 26.5 27.699 26.979 27.521 27.34V27.34ZM28.961 24.04C28.66 24.46 28.12 24.64 27.699 24.34C24.46 22.36 19.54 21.76 15.76 22.96C15.281 23.08 14.74 22.84 14.62 22.36C14.5 21.88 14.74 21.339 15.22 21.219C19.6 19.9 25 20.561 28.72 22.84C29.081 23.021 29.26 23.62 28.961 24.04V24.04ZM29.081 20.68C25.24 18.4 18.82 18.16 15.16 19.301C14.56 19.48 13.96 19.12 13.78 18.58C13.6 17.979 13.96 17.38 14.5 17.199C18.76 15.939 25.78 16.179 30.221 18.82C30.76 19.12 30.94 19.84 30.64 20.38C30.341 20.801 29.62 20.979 29.081 20.68V20.68Z" fill="#1DB954"/>
<rect x="0.5" y="0.5" width="43" height="43" rx="5.5" stroke="white" stroke-opacity="0.2"/>
</svg>
