<svg width="86" height="24" viewBox="0 0 86 24" fill="none" xmlns="http://www.w3.org/2000/svg">
<rect x="0.742065" width="85" height="24" rx="4" fill="#2D2D2D"/>
<g clip-path="url(#clip0_1137:201)">
<path d="M18.9656 16.226H17.1886V13.4415C17.1886 12.7775 17.1751 11.923 16.2626 11.923C15.3361 11.923 15.1946 12.6455 15.1946 13.3925V16.226H13.4176V10.5H15.1246V11.2805H15.1476C15.3861 10.8305 15.9661 10.3555 16.8326 10.3555C18.6331 10.3555 18.9661 11.5405 18.9661 13.083V16.226H18.9656ZM11.4106 9.7165C10.8386 9.7165 10.3791 9.2535 10.3791 8.684C10.3791 8.115 10.8391 7.6525 11.4106 7.6525C11.9806 7.6525 12.4426 8.115 12.4426 8.684C12.4426 9.2535 11.9801 9.7165 11.4106 9.7165ZM12.3016 16.226H10.5196V10.5H12.3016V16.226ZM19.8546 6H9.62757C9.13807 6 8.74207 6.387 8.74207 6.8645V17.1355C8.74207 17.6135 9.13807 18 9.62757 18H19.8531C20.3421 18 20.7421 17.6135 20.7421 17.1355V6.8645C20.7421 6.387 20.3421 6 19.8531 6H19.8546Z" fill="#F0F0F0"/>
</g>
<path d="M28.9741 8.084V17H27.4921V8.084H28.9741ZM33.1866 10.844V17H31.6986V10.844H33.1866ZM33.3906 9.05C33.3906 9.178 33.3646 9.298 33.3126 9.41C33.2606 9.522 33.1906 9.62 33.1026 9.704C33.0186 9.788 32.9186 9.856 32.8026 9.908C32.6866 9.956 32.5626 9.98 32.4306 9.98C32.3026 9.98 32.1806 9.956 32.0646 9.908C31.9526 9.856 31.8546 9.788 31.7706 9.704C31.6866 9.62 31.6186 9.522 31.5666 9.41C31.5186 9.298 31.4946 9.178 31.4946 9.05C31.4946 8.918 31.5186 8.794 31.5666 8.678C31.6186 8.562 31.6866 8.462 31.7706 8.378C31.8546 8.294 31.9526 8.228 32.0646 8.18C32.1806 8.128 32.3026 8.102 32.4306 8.102C32.5626 8.102 32.6866 8.128 32.8026 8.18C32.9186 8.228 33.0186 8.294 33.1026 8.378C33.1906 8.462 33.2606 8.562 33.3126 8.678C33.3646 8.794 33.3906 8.918 33.3906 9.05ZM37.2835 11.6C37.4075 11.476 37.5375 11.362 37.6735 11.258C37.8135 11.15 37.9595 11.06 38.1115 10.988C38.2675 10.912 38.4335 10.854 38.6095 10.814C38.7855 10.77 38.9775 10.748 39.1855 10.748C39.5215 10.748 39.8195 10.806 40.0795 10.922C40.3395 11.034 40.5555 11.194 40.7275 11.402C40.9035 11.606 41.0355 11.852 41.1235 12.14C41.2155 12.424 41.2615 12.738 41.2615 13.082V17H39.7795V13.082C39.7795 12.706 39.6935 12.416 39.5215 12.212C39.3495 12.004 39.0875 11.9 38.7355 11.9C38.4795 11.9 38.2395 11.958 38.0155 12.074C37.7915 12.19 37.5795 12.348 37.3795 12.548V17H35.8975V10.844H36.8035C36.9955 10.844 37.1215 10.934 37.1815 11.114L37.2835 11.6ZM45.3529 8.084V13.19H45.6289C45.7289 13.19 45.8069 13.178 45.8629 13.154C45.9229 13.126 45.9829 13.072 46.0429 12.992L47.5729 11.102C47.6369 11.018 47.7069 10.954 47.7829 10.91C47.8629 10.866 47.9649 10.844 48.0889 10.844H49.4449L47.5309 13.13C47.3949 13.31 47.2469 13.448 47.0869 13.544C47.1709 13.604 47.2449 13.674 47.3089 13.754C47.3769 13.834 47.4409 13.92 47.5009 14.012L49.5529 17H48.2149C48.0989 17 47.9989 16.982 47.9149 16.946C47.8309 16.906 47.7609 16.836 47.7049 16.736L46.1329 14.402C46.0769 14.31 46.0189 14.25 45.9589 14.222C45.8989 14.194 45.8089 14.18 45.6889 14.18H45.3529V17H43.8709V8.084H45.3529ZM55.1307 13.214C55.1307 13.022 55.1027 12.842 55.0467 12.674C54.9947 12.502 54.9147 12.352 54.8067 12.224C54.6987 12.096 54.5607 11.996 54.3927 11.924C54.2287 11.848 54.0367 11.81 53.8167 11.81C53.3887 11.81 53.0507 11.932 52.8027 12.176C52.5587 12.42 52.4027 12.766 52.3347 13.214H55.1307ZM52.3047 14.108C52.3287 14.424 52.3847 14.698 52.4727 14.93C52.5607 15.158 52.6767 15.348 52.8207 15.5C52.9647 15.648 53.1347 15.76 53.3307 15.836C53.5307 15.908 53.7507 15.944 53.9907 15.944C54.2307 15.944 54.4367 15.916 54.6087 15.86C54.7847 15.804 54.9367 15.742 55.0647 15.674C55.1967 15.606 55.3107 15.544 55.4067 15.488C55.5067 15.432 55.6027 15.404 55.6947 15.404C55.8187 15.404 55.9107 15.45 55.9707 15.542L56.3967 16.082C56.2327 16.274 56.0487 16.436 55.8447 16.568C55.6407 16.696 55.4267 16.8 55.2027 16.88C54.9827 16.956 54.7567 17.01 54.5247 17.042C54.2967 17.074 54.0747 17.09 53.8587 17.09C53.4307 17.09 53.0327 17.02 52.6647 16.88C52.2967 16.736 51.9767 16.526 51.7047 16.25C51.4327 15.97 51.2187 15.626 51.0627 15.218C50.9067 14.806 50.8287 14.33 50.8287 13.79C50.8287 13.37 50.8967 12.976 51.0327 12.608C51.1687 12.236 51.3627 11.914 51.6147 11.642C51.8707 11.366 52.1807 11.148 52.5447 10.988C52.9127 10.828 53.3267 10.748 53.7867 10.748C54.1747 10.748 54.5327 10.81 54.8607 10.934C55.1887 11.058 55.4707 11.24 55.7067 11.48C55.9427 11.716 56.1267 12.008 56.2587 12.356C56.3947 12.7 56.4627 13.094 56.4627 13.538C56.4627 13.762 56.4387 13.914 56.3907 13.994C56.3427 14.07 56.2507 14.108 56.1147 14.108H52.3047ZM62.6388 12.416C62.4708 12.212 62.2868 12.068 62.0868 11.984C61.8908 11.9 61.6788 11.858 61.4508 11.858C61.2268 11.858 61.0248 11.9 60.8448 11.984C60.6648 12.068 60.5108 12.196 60.3828 12.368C60.2548 12.536 60.1568 12.752 60.0888 13.016C60.0208 13.276 59.9868 13.584 59.9868 13.94C59.9868 14.3 60.0148 14.606 60.0708 14.858C60.1308 15.106 60.2148 15.31 60.3228 15.47C60.4308 15.626 60.5628 15.74 60.7188 15.812C60.8748 15.88 61.0488 15.914 61.2408 15.914C61.5488 15.914 61.8108 15.85 62.0268 15.722C62.2428 15.594 62.4468 15.412 62.6388 15.176V12.416ZM64.1208 8.084V17H63.2148C63.0188 17 62.8948 16.91 62.8428 16.73L62.7168 16.136C62.4688 16.42 62.1828 16.65 61.8588 16.826C61.5388 17.002 61.1648 17.09 60.7368 17.09C60.4008 17.09 60.0928 17.02 59.8128 16.88C59.5328 16.74 59.2908 16.538 59.0868 16.274C58.8868 16.006 58.7308 15.676 58.6188 15.284C58.5108 14.892 58.4568 14.444 58.4568 13.94C58.4568 13.484 58.5188 13.06 58.6428 12.668C58.7668 12.276 58.9448 11.936 59.1768 11.648C59.4088 11.36 59.6868 11.136 60.0108 10.976C60.3348 10.812 60.6988 10.73 61.1028 10.73C61.4468 10.73 61.7408 10.784 61.9848 10.892C62.2288 11 62.4468 11.146 62.6388 11.33V8.084H64.1208ZM68.3194 10.844V17H66.8314V10.844H68.3194ZM68.5234 9.05C68.5234 9.178 68.4974 9.298 68.4454 9.41C68.3934 9.522 68.3234 9.62 68.2354 9.704C68.1514 9.788 68.0514 9.856 67.9354 9.908C67.8194 9.956 67.6954 9.98 67.5634 9.98C67.4354 9.98 67.3134 9.956 67.1974 9.908C67.0854 9.856 66.9874 9.788 66.9034 9.704C66.8194 9.62 66.7514 9.522 66.6994 9.41C66.6514 9.298 66.6274 9.178 66.6274 9.05C66.6274 8.918 66.6514 8.794 66.6994 8.678C66.7514 8.562 66.8194 8.462 66.9034 8.378C66.9874 8.294 67.0854 8.228 67.1974 8.18C67.3134 8.128 67.4354 8.102 67.5634 8.102C67.6954 8.102 67.8194 8.128 67.9354 8.18C68.0514 8.228 68.1514 8.294 68.2354 8.378C68.3234 8.462 68.3934 8.562 68.4454 8.678C68.4974 8.794 68.5234 8.918 68.5234 9.05ZM72.4163 11.6C72.5403 11.476 72.6703 11.362 72.8063 11.258C72.9463 11.15 73.0923 11.06 73.2443 10.988C73.4003 10.912 73.5663 10.854 73.7423 10.814C73.9183 10.77 74.1103 10.748 74.3183 10.748C74.6543 10.748 74.9523 10.806 75.2123 10.922C75.4723 11.034 75.6883 11.194 75.8603 11.402C76.0363 11.606 76.1683 11.852 76.2563 12.14C76.3483 12.424 76.3943 12.738 76.3943 13.082V17H74.9123V13.082C74.9123 12.706 74.8263 12.416 74.6543 12.212C74.4823 12.004 74.2203 11.9 73.8683 11.9C73.6123 11.9 73.3723 11.958 73.1483 12.074C72.9243 12.19 72.7123 12.348 72.5123 12.548V17H71.0303V10.844H71.9363C72.1283 10.844 72.2543 10.934 72.3143 11.114L72.4163 11.6Z" fill="#F0F0F0"/>
<defs>
<clipPath id="clip0_1137:201">
<rect width="12" height="12" fill="white" transform="translate(8.74207 6)"/>
</clipPath>
</defs>
</svg>
