<svg width="40" height="40" viewBox="0 0 40 40" fill="none" xmlns="http://www.w3.org/2000/svg">
<rect width="40" height="40" rx="6" fill="black" fill-opacity="0.1"/>
<path d="M20 12C15.6 12 12 15.6 12 20C12 24.4 15.6 28 20 28C24.4 28 28 24.4 28 20C28 15.6 24.44 12 20 12ZM23.6807 23.56C23.5207 23.7993 23.2407 23.88 23 23.72C21.12 22.56 18.76 22.3193 15.9593 22.9593C15.6807 23.0407 15.44 22.84 15.36 22.6C15.28 22.3193 15.48 22.08 15.72 22C18.76 21.3193 21.4 21.6 23.48 22.88C23.76 23 23.7993 23.3193 23.6807 23.56V23.56ZM24.6407 21.36C24.44 21.64 24.08 21.76 23.7993 21.56C21.64 20.24 18.36 19.84 15.84 20.64C15.5207 20.72 15.16 20.56 15.08 20.24C15 19.92 15.16 19.5593 15.48 19.4793C18.4 18.6 22 19.0407 24.48 20.56C24.7207 20.6807 24.84 21.08 24.6407 21.36V21.36ZM24.7207 19.12C22.16 17.6 17.88 17.44 15.44 18.2007C15.04 18.32 14.64 18.08 14.52 17.72C14.4 17.3193 14.64 16.92 15 16.7993C17.84 15.9593 22.52 16.1193 25.4807 17.88C25.84 18.08 25.96 18.56 25.76 18.92C25.5607 19.2007 25.08 19.3193 24.7207 19.12V19.12Z" fill="#1DB954"/>
<rect x="0.5" y="0.5" width="39" height="39" rx="5.5" stroke="white" stroke-opacity="0.2"/>
</svg>
