<svg width="32" height="32" viewBox="0 0 32 32" fill="none" xmlns="http://www.w3.org/2000/svg">
<rect x="0.5" y="0.5" width="31" height="31" rx="15.5" fill="#0D1117"/>
<path d="M16 8C11.6 8 8 11.6 8 16C8 20.4 11.6 24 16 24C20.4 24 24 20.4 24 16C24 11.6 20.44 8 16 8ZM19.6807 19.56C19.5207 19.7993 19.2407 19.88 19 19.72C17.12 18.56 14.76 18.3193 11.9593 18.9593C11.6807 19.0407 11.44 18.84 11.36 18.6C11.28 18.3193 11.48 18.08 11.72 18C14.76 17.3193 17.4 17.6 19.48 18.88C19.76 19 19.7993 19.3193 19.6807 19.56V19.56ZM20.6407 17.36C20.44 17.64 20.08 17.76 19.7993 17.56C17.64 16.24 14.36 15.84 11.84 16.64C11.5207 16.72 11.16 16.56 11.08 16.24C11 15.92 11.16 15.5593 11.48 15.4793C14.4 14.6 18 15.0407 20.48 16.56C20.7207 16.6807 20.84 17.08 20.6407 17.36V17.36ZM20.7207 15.12C18.16 13.6 13.88 13.44 11.44 14.2007C11.04 14.32 10.64 14.08 10.52 13.72C10.4 13.3193 10.64 12.92 11 12.7993C13.84 11.9593 18.52 12.1193 21.4807 13.88C21.84 14.08 21.96 14.56 21.76 14.92C21.5607 15.2007 21.08 15.3193 20.7207 15.12V15.12Z" fill="#F0F0F0"/>
<rect x="0.5" y="0.5" width="31" height="31" rx="15.5" stroke="#484848"/>
</svg>
