<svg width="103" height="20" viewBox="0 0 103 20" fill="none" xmlns="http://www.w3.org/2000/svg">
<path d="M0 2C0 0.895431 0.89543 0 2 0H47V20H2C0.89543 20 0 19.1046 0 18V2Z" fill="#2D2D2D"/>
<path d="M8.916 15.144C8.324 15.144 7.828 15.04 7.428 14.832C7.028 14.624 6.68 14.336 6.384 13.968L7.224 13.2C7.456 13.48 7.712 13.7 7.992 13.86C8.28 14.012 8.612 14.088 8.988 14.088C9.372 14.088 9.656 14.016 9.84 13.872C10.032 13.72 10.128 13.512 10.128 13.248C10.128 13.048 10.06 12.88 9.924 12.744C9.796 12.6 9.568 12.508 9.24 12.468L8.664 12.396C8.024 12.316 7.52 12.132 7.152 11.844C6.792 11.548 6.612 11.112 6.612 10.536C6.612 10.232 6.668 9.964 6.78 9.732C6.892 9.492 7.048 9.292 7.248 9.132C7.456 8.964 7.7 8.836 7.98 8.748C8.268 8.66 8.584 8.616 8.928 8.616C9.488 8.616 9.944 8.704 10.296 8.88C10.656 9.056 10.976 9.3 11.256 9.612L10.452 10.38C10.292 10.188 10.08 10.024 9.816 9.888C9.56 9.744 9.264 9.672 8.928 9.672C8.568 9.672 8.3 9.744 8.124 9.888C7.956 10.032 7.872 10.22 7.872 10.452C7.872 10.692 7.948 10.872 8.1 10.992C8.252 11.112 8.496 11.2 8.832 11.256L9.408 11.328C10.096 11.432 10.596 11.636 10.908 11.94C11.228 12.236 11.388 12.636 11.388 13.14C11.388 13.444 11.328 13.72 11.208 13.968C11.096 14.208 10.932 14.416 10.716 14.592C10.5 14.768 10.24 14.904 9.936 15C9.632 15.096 9.292 15.144 8.916 15.144ZM14.5117 15C14.0557 15 13.7117 14.884 13.4797 14.652C13.2477 14.412 13.1317 14.076 13.1317 13.644V9.828H12.1597V8.76H12.6877C12.9037 8.76 13.0517 8.712 13.1317 8.616C13.2197 8.52 13.2637 8.364 13.2637 8.148V7.056H14.4397V8.76H15.7477V9.828H14.4397V13.932H15.6517V15H14.5117ZM21.7385 15C21.3945 15 21.1305 14.904 20.9465 14.712C20.7625 14.512 20.6505 14.26 20.6105 13.956H20.5505C20.4305 14.348 20.2105 14.644 19.8905 14.844C19.5705 15.044 19.1825 15.144 18.7265 15.144C18.0785 15.144 17.5785 14.976 17.2265 14.64C16.8825 14.304 16.7105 13.852 16.7105 13.284C16.7105 12.66 16.9345 12.192 17.3825 11.88C17.8385 11.568 18.5025 11.412 19.3745 11.412H20.5025V10.884C20.5025 10.5 20.3985 10.204 20.1905 9.996C19.9825 9.788 19.6585 9.684 19.2185 9.684C18.8505 9.684 18.5505 9.764 18.3185 9.924C18.0865 10.084 17.8905 10.288 17.7305 10.536L16.9505 9.828C17.1585 9.476 17.4505 9.188 17.8265 8.964C18.2025 8.732 18.6945 8.616 19.3025 8.616C20.1105 8.616 20.7305 8.804 21.1625 9.18C21.5945 9.556 21.8105 10.096 21.8105 10.8V13.932H22.4705V15H21.7385ZM19.0985 14.148C19.5065 14.148 19.8425 14.06 20.1065 13.884C20.3705 13.7 20.5025 13.456 20.5025 13.152V12.252H19.3985C18.4945 12.252 18.0425 12.532 18.0425 13.092V13.308C18.0425 13.588 18.1345 13.8 18.3185 13.944C18.5105 14.08 18.7705 14.148 19.0985 14.148ZM25.4453 15C24.9893 15 24.6453 14.884 24.4133 14.652C24.1813 14.412 24.0653 14.076 24.0653 13.644V9.828H23.0933V8.76H23.6213C23.8373 8.76 23.9853 8.712 24.0653 8.616C24.1533 8.52 24.1973 8.364 24.1973 8.148V7.056H25.3733V8.76H26.6813V9.828H25.3733V13.932H26.5853V15H25.4453ZM31.8801 13.968H31.8321C31.7761 14.12 31.7001 14.268 31.6041 14.412C31.5161 14.556 31.4001 14.684 31.2561 14.796C31.1201 14.9 30.9521 14.984 30.7521 15.048C30.5601 15.112 30.3361 15.144 30.0801 15.144C29.4321 15.144 28.9281 14.936 28.5681 14.52C28.2161 14.104 28.0401 13.508 28.0401 12.732V8.76H29.3481V12.564C29.3481 13.532 29.7481 14.016 30.5481 14.016C30.7161 14.016 30.8801 13.996 31.0401 13.956C31.2001 13.908 31.3401 13.84 31.4601 13.752C31.5881 13.664 31.6881 13.552 31.7601 13.416C31.8401 13.28 31.8801 13.12 31.8801 12.936V8.76H33.1881V15H31.8801V13.968ZM37.041 15.144C36.449 15.144 35.953 15.04 35.553 14.832C35.153 14.624 34.805 14.336 34.509 13.968L35.349 13.2C35.581 13.48 35.837 13.7 36.117 13.86C36.405 14.012 36.737 14.088 37.113 14.088C37.497 14.088 37.781 14.016 37.965 13.872C38.157 13.72 38.253 13.512 38.253 13.248C38.253 13.048 38.185 12.88 38.049 12.744C37.921 12.6 37.693 12.508 37.365 12.468L36.789 12.396C36.149 12.316 35.645 12.132 35.277 11.844C34.917 11.548 34.737 11.112 34.737 10.536C34.737 10.232 34.793 9.964 34.905 9.732C35.017 9.492 35.173 9.292 35.373 9.132C35.581 8.964 35.825 8.836 36.105 8.748C36.393 8.66 36.709 8.616 37.053 8.616C37.613 8.616 38.069 8.704 38.421 8.88C38.781 9.056 39.101 9.3 39.381 9.612L38.577 10.38C38.417 10.188 38.205 10.024 37.941 9.888C37.685 9.744 37.389 9.672 37.053 9.672C36.693 9.672 36.425 9.744 36.249 9.888C36.081 10.032 35.997 10.22 35.997 10.452C35.997 10.692 36.073 10.872 36.225 10.992C36.377 11.112 36.621 11.2 36.957 11.256L37.533 11.328C38.221 11.432 38.721 11.636 39.033 11.94C39.353 12.236 39.513 12.636 39.513 13.14C39.513 13.444 39.453 13.72 39.333 13.968C39.221 14.208 39.057 14.416 38.841 14.592C38.625 14.768 38.365 14.904 38.061 15C37.757 15.096 37.417 15.144 37.041 15.144Z" fill="#F5F5F5"/>
<path d="M47 0H101C102.105 0 103 0.895431 103 2V18C103 19.1046 102.105 20 101 20H47V0Z" fill="#484848"/>
<path d="M53.888 15V8.736H55.424V9.78H55.484C55.604 9.452 55.796 9.172 56.06 8.94C56.324 8.708 56.692 8.592 57.164 8.592C57.596 8.592 57.968 8.696 58.28 8.904C58.592 9.112 58.824 9.428 58.976 9.852H59C59.112 9.5 59.332 9.204 59.66 8.964C59.996 8.716 60.416 8.592 60.92 8.592C61.536 8.592 62.008 8.804 62.336 9.228C62.672 9.652 62.84 10.256 62.84 11.04V15H61.304V11.196C61.304 10.3 60.968 9.852 60.296 9.852C60.144 9.852 59.996 9.876 59.852 9.924C59.716 9.964 59.592 10.028 59.48 10.116C59.376 10.196 59.292 10.3 59.228 10.428C59.164 10.548 59.132 10.692 59.132 10.86V15H57.596V11.196C57.596 10.3 57.26 9.852 56.588 9.852C56.444 9.852 56.3 9.876 56.156 9.924C56.02 9.964 55.896 10.028 55.784 10.116C55.68 10.196 55.592 10.3 55.52 10.428C55.456 10.548 55.424 10.692 55.424 10.86V15H53.888ZM69.1483 15C68.8123 15 68.5443 14.904 68.3443 14.712C68.1523 14.512 68.0323 14.248 67.9843 13.92H67.9123C67.8083 14.328 67.5963 14.636 67.2763 14.844C66.9563 15.044 66.5603 15.144 66.0883 15.144C65.4483 15.144 64.9563 14.976 64.6123 14.64C64.2683 14.304 64.0963 13.856 64.0963 13.296C64.0963 12.648 64.3283 12.168 64.7923 11.856C65.2563 11.536 65.9163 11.376 66.7723 11.376H67.8403V10.92C67.8403 10.568 67.7483 10.296 67.5643 10.104C67.3803 9.912 67.0843 9.816 66.6763 9.816C66.3163 9.816 66.0243 9.896 65.8003 10.056C65.5843 10.208 65.4003 10.392 65.2483 10.608L64.3363 9.792C64.5683 9.432 64.8763 9.144 65.2603 8.928C65.6443 8.704 66.1523 8.592 66.7843 8.592C67.6323 8.592 68.2763 8.784 68.7163 9.168C69.1563 9.552 69.3763 10.104 69.3763 10.824V13.776H70.0003V15H69.1483ZM66.6043 14.028C66.9483 14.028 67.2403 13.952 67.4803 13.8C67.7203 13.648 67.8403 13.424 67.8403 13.128V12.3H66.8563C66.0563 12.3 65.6563 12.556 65.6563 13.068V13.272C65.6563 13.528 65.7363 13.72 65.8963 13.848C66.0643 13.968 66.3003 14.028 66.6043 14.028ZM71.2435 15V8.736H72.7795V10.032H72.8395C72.8795 9.864 72.9395 9.704 73.0195 9.552C73.1075 9.392 73.2195 9.252 73.3555 9.132C73.4915 9.012 73.6515 8.916 73.8355 8.844C74.0275 8.772 74.2475 8.736 74.4955 8.736H74.8315V10.188H74.3515C73.8315 10.188 73.4395 10.264 73.1755 10.416C72.9115 10.568 72.7795 10.816 72.7795 11.16V15H71.2435ZM75.9544 15V8.736H77.4904V10.032H77.5504C77.5904 9.864 77.6504 9.704 77.7304 9.552C77.8184 9.392 77.9304 9.252 78.0664 9.132C78.2024 9.012 78.3624 8.916 78.5464 8.844C78.7384 8.772 78.9584 8.736 79.2064 8.736H79.5424V10.188H79.0624C78.5424 10.188 78.1504 10.264 77.8864 10.416C77.6224 10.568 77.4904 10.816 77.4904 11.16V15H75.9544ZM81.4333 7.824C81.1133 7.824 80.8813 7.752 80.7373 7.608C80.6013 7.464 80.5333 7.28 80.5333 7.056V6.816C80.5333 6.592 80.6013 6.408 80.7373 6.264C80.8813 6.12 81.1133 6.048 81.4333 6.048C81.7453 6.048 81.9733 6.12 82.1173 6.264C82.2613 6.408 82.3333 6.592 82.3333 6.816V7.056C82.3333 7.28 82.2613 7.464 82.1173 7.608C81.9733 7.752 81.7453 7.824 81.4333 7.824ZM80.6653 8.736H82.2013V15H80.6653V8.736ZM86.5138 15.144C86.0498 15.144 85.6338 15.068 85.2658 14.916C84.9058 14.756 84.5978 14.536 84.3418 14.256C84.0938 13.968 83.9018 13.624 83.7658 13.224C83.6298 12.816 83.5618 12.36 83.5618 11.856C83.5618 11.36 83.6258 10.912 83.7538 10.512C83.8898 10.112 84.0818 9.772 84.3298 9.492C84.5778 9.204 84.8818 8.984 85.2418 8.832C85.6018 8.672 86.0098 8.592 86.4658 8.592C86.9538 8.592 87.3778 8.676 87.7378 8.844C88.0978 9.012 88.3938 9.24 88.6258 9.528C88.8578 9.816 89.0298 10.152 89.1418 10.536C89.2618 10.912 89.3218 11.316 89.3218 11.748V12.252H85.1578V12.408C85.1578 12.864 85.2858 13.232 85.5418 13.512C85.7978 13.784 86.1778 13.92 86.6818 13.92C87.0658 13.92 87.3778 13.84 87.6178 13.68C87.8658 13.52 88.0858 13.316 88.2778 13.068L89.1058 13.992C88.8498 14.352 88.4978 14.636 88.0498 14.844C87.6098 15.044 87.0978 15.144 86.5138 15.144ZM86.4898 9.744C86.0818 9.744 85.7578 9.88 85.5178 10.152C85.2778 10.424 85.1578 10.776 85.1578 11.208V11.304H87.7258V11.196C87.7258 10.764 87.6178 10.416 87.4018 10.152C87.1938 9.88 86.8898 9.744 86.4898 9.744ZM94.5612 13.956H94.5012C94.3892 14.316 94.1772 14.604 93.8652 14.82C93.5532 15.036 93.1892 15.144 92.7732 15.144C91.9812 15.144 91.3732 14.86 90.9492 14.292C90.5332 13.724 90.3252 12.912 90.3252 11.856C90.3252 10.808 90.5332 10.004 90.9492 9.444C91.3732 8.876 91.9812 8.592 92.7732 8.592C93.1892 8.592 93.5532 8.7 93.8652 8.916C94.1772 9.124 94.3892 9.408 94.5012 9.768H94.5612V6.12H96.0972V15H94.5612V13.956ZM93.2652 13.872C93.6332 13.872 93.9412 13.784 94.1892 13.608C94.4372 13.432 94.5612 13.18 94.5612 12.852V10.86C94.5612 10.556 94.4372 10.312 94.1892 10.128C93.9412 9.944 93.6332 9.852 93.2652 9.852C92.8652 9.852 92.5412 9.988 92.2932 10.26C92.0532 10.524 91.9332 10.88 91.9332 11.328V12.408C91.9332 12.856 92.0532 13.212 92.2932 13.476C92.5412 13.74 92.8652 13.872 93.2652 13.872Z" fill="#F5F5F5"/>
</svg>
