<svg width="24" height="24" viewBox="0 0 24 24" fill="none" xmlns="http://www.w3.org/2000/svg">
<rect width="24" height="24" rx="2" fill="#2D2D2D"/>
<path d="M14.8093 8.50806L14.7593 8.76872C14.682 9.26272 14.71 9.40406 14.922 9.58739L15.1267 9.75672L14.9147 10.7021C14.788 11.2661 14.6327 11.7387 14.534 11.8941C14.4493 12.0281 14.3507 12.2254 14.3293 12.3314C14.294 12.4581 14.174 12.5854 13.9907 12.6981C13.8287 12.7901 13.5107 13.0367 13.2853 13.2347C13.1053 13.3967 12.9813 13.4961 12.914 13.5387L12.694 13.7127C12.6233 13.8261 12.5833 13.9174 12.568 13.9867C12.5527 14.0581 12.5613 14.1054 12.584 14.1401C12.606 14.1734 12.644 14.1967 12.696 14.2114C12.7576 14.2258 12.8209 14.231 12.884 14.2267C13.0267 14.217 13.168 14.1919 13.3053 14.1521C13.352 14.1394 13.3887 14.1274 13.4207 14.1167C13.47 14.0561 13.584 13.9414 13.786 13.7421C14.322 13.2134 14.5267 12.9241 14.3153 13.0021C14.2373 13.0301 14.2727 12.9594 14.4067 12.8181C14.6893 12.5427 14.8513 12.1267 15.19 10.8221C15.458 9.79206 15.458 9.77739 15.6553 9.77739C15.748 9.77739 16.01 9.79339 16.01 9.79339V8.50806H15.4087H14.8093ZM17.3687 10.6181C17.326 10.6181 17.2553 10.6821 17.2133 10.7527C17.136 10.8794 17.2273 10.9567 18.3913 11.6834C19.0827 12.1214 19.64 12.4947 19.626 12.5234C19.612 12.5441 19.0473 12.9114 18.3707 13.3347C17.1427 14.0961 17.136 14.1034 17.2487 14.2587C17.39 14.4421 17.2487 14.5054 18.8427 13.5107L20 12.7701V12.2127L18.7087 11.4154C18.0107 10.9781 17.404 10.6254 17.3687 10.6181ZM6.64533 10.6961C6.61 10.6961 6.00333 11.0561 5.30533 11.4861L4 12.2834V12.8407L5.298 13.6521C6.018 14.0961 6.62467 14.4634 6.65267 14.4634C6.68067 14.4634 6.73733 14.3994 6.794 14.3221C6.87867 14.1881 6.80733 14.1314 5.61533 13.3767C4.48 12.6641 4.36 12.5654 4.47333 12.4881C4.544 12.4387 5.08 12.1067 5.65867 11.7474C6.978 10.9361 6.90733 10.9921 6.80133 10.8227C6.75933 10.7527 6.688 10.6894 6.646 10.6961H6.64533ZM12.4347 10.7114C12.24 10.7101 11.8213 11.0067 10.568 12.0301C10.514 12.1587 10.5093 12.2474 10.534 12.3047C10.55 12.3441 10.5793 12.3714 10.62 12.3914C10.66 12.4114 10.712 12.4234 10.7693 12.4281C10.8833 12.4381 11.018 12.4201 11.1267 12.3987L11.2 12.3821C11.2251 12.3484 11.2581 12.3214 11.296 12.3034C11.3733 12.2607 11.698 11.9647 12.0227 11.6474C12.594 11.0687 12.728 10.8074 12.4953 10.7227C12.4762 10.7151 12.4559 10.7113 12.4353 10.7114H12.4347ZM13.8987 11.1134C13.7273 11.1181 13.4187 11.3167 12.89 11.7387C12.6247 11.9541 12.4567 12.0701 12.3667 12.0941L12.0173 12.3701C11.886 12.6101 11.8667 12.7587 11.9013 12.8407C11.91 12.8609 11.9226 12.8793 11.9384 12.8946C11.9542 12.9099 11.9729 12.922 11.9933 12.9301C12.0443 12.9502 12.0986 12.9604 12.1533 12.9601C12.2842 12.9587 12.4143 12.9396 12.54 12.9034C12.6055 12.8858 12.6703 12.8653 12.734 12.8421L12.7533 12.8341L12.7887 12.8154C12.8553 12.7294 13.0087 12.5674 13.2007 12.3807C13.8073 11.7954 14.1173 11.3794 14.054 11.2241C14.0253 11.1487 13.976 11.1107 13.8987 11.1134V11.1134ZM12.2827 11.8334C12.2333 11.8387 12.1227 11.9241 11.9233 12.0987C11.6353 12.3534 11.3213 12.5001 11.2127 12.4347C11.1874 12.4404 11.1621 12.4458 11.1367 12.4507C11.026 12.4727 10.888 12.4907 10.7647 12.4807C10.7066 12.4772 10.6496 12.463 10.5967 12.4387C10.5467 12.4159 10.5069 12.3756 10.4847 12.3254C10.46 12.2654 10.46 12.1907 10.488 12.0954L10.0547 12.4514L9.074 13.2627V14.5781L12.2873 12.0467C12.2867 12.019 12.2903 11.9914 12.298 11.9647C12.3227 11.8754 12.3213 11.8301 12.2827 11.8341V11.8334ZM13.6653 12.2594C13.6167 12.2594 13.5353 12.3281 13.4053 12.4661C13.2287 12.6547 12.9507 12.8374 12.8033 12.8747L12.7807 12.8867C12.7565 12.8967 12.732 12.906 12.7073 12.9147C12.6673 12.9281 12.6153 12.9441 12.5553 12.9601C12.4353 12.9927 12.286 13.0227 12.1527 13.0194C12.0898 13.0193 12.0276 13.0071 11.9693 12.9834C11.9145 12.9608 11.8705 12.9178 11.8467 12.8634C11.808 12.7707 11.8233 12.6407 11.908 12.4561L9.07333 14.6887V15.4921H10.3187L12.96 13.4174C13.0287 13.3414 13.132 13.2374 13.2713 13.1074C13.6447 12.7614 13.7293 12.6421 13.7293 12.4654C13.7293 12.3281 13.714 12.2587 13.6653 12.2587V12.2594ZM14.294 13.5594L14.068 13.7847C13.9413 13.9047 13.7153 14.0527 13.5607 14.1161L13.53 14.1294L13.528 14.1327L13.5213 14.1394C13.5153 14.1441 13.5127 14.1447 13.508 14.1467C13.4463 14.1701 13.3835 14.1908 13.32 14.2087C13.1787 14.2498 13.0335 14.2755 12.8867 14.2854C12.8173 14.2898 12.7476 14.2838 12.68 14.2674C12.6213 14.2545 12.5696 14.2203 12.5347 14.1714C12.5027 14.1221 12.4933 14.0561 12.5113 13.9747C12.5257 13.9168 12.5469 13.8609 12.5747 13.8081L10.4433 15.4921H13.278L13.6167 15.1041C14.082 14.5614 14.294 14.1734 14.294 13.8414V13.5594Z" fill="#DB7093"/>
</svg>
