<svg width="32" height="32" viewBox="0 0 32 32" fill="none" xmlns="http://www.w3.org/2000/svg">
<g clip-path="url(#clip0_1192:316)">
<path d="M28 0H4C1.79087 0 0 1.79087 0 4V28C0 30.2091 1.79087 32 4 32H28C30.2091 32 32 30.2091 32 28V4C32 1.79087 30.2091 0 28 0Z" fill="#DB7093"/>
<path d="M22.4256 6L22.2824 6.74632C22.061 8.16104 22.1412 8.56583 22.7482 9.0908L23.3341 9.5756L22.7271 12.2828C22.3644 13.8978 21.9196 15.2514 21.6371 15.6962C21.3946 16.0801 21.112 16.645 21.051 16.9486C20.9498 17.3113 20.6062 17.6759 20.0811 17.9986C19.6172 18.2621 18.7065 18.9683 18.0614 19.5354C17.5459 19.9993 17.1908 20.2839 16.998 20.406L16.368 20.9042C16.1655 21.2288 16.051 21.4903 16.0071 21.6889C15.9632 21.8932 15.9878 22.0287 16.0531 22.128C16.1163 22.2234 16.2249 22.2902 16.3737 22.3323C16.55 22.3736 16.7315 22.3883 16.9121 22.3763C17.3208 22.3483 17.7252 22.2767 18.1187 22.1625C18.2523 22.1259 18.3573 22.0919 18.4489 22.0612C18.5903 21.8877 18.9167 21.5592 19.4952 20.9884C21.0301 19.4744 21.616 18.646 21.0109 18.8693C20.7876 18.9495 20.8887 18.7472 21.2724 18.3424C22.0819 17.554 22.5458 16.3627 23.5157 12.6266C24.2832 9.67711 24.2832 9.63498 24.8481 9.63498C25.1135 9.63498 25.8639 9.68094 25.8639 9.68094V6.00033H24.1418L22.4256 6ZM15.6253 12.3095C15.0679 12.3057 13.8691 13.1552 10.2799 16.0856C10.1254 16.4541 10.112 16.7081 10.1826 16.8721C10.2286 16.9849 10.3123 17.0632 10.4288 17.1204C10.5434 17.1777 10.6923 17.2121 10.8565 17.2255C11.1829 17.2541 11.5685 17.2028 11.8797 17.1414L12.0898 17.0935C12.1617 16.9971 12.256 16.9197 12.3647 16.8683C12.5863 16.746 13.516 15.8983 14.4456 14.9897C16.0818 13.3325 16.4655 12.5843 15.7992 12.3418C15.7446 12.3198 15.6862 12.3091 15.6273 12.3091L15.6253 12.3095ZM19.8177 13.4606C19.3271 13.4739 18.4431 14.0429 16.9294 15.2514C16.1695 15.868 15.6884 16.2002 15.4306 16.2689L14.4303 17.0593C14.0543 17.7466 13.9988 18.1723 14.0982 18.4071C14.1228 18.465 14.1588 18.5175 14.2043 18.5614C14.2496 18.6054 14.303 18.6398 14.3617 18.6629C14.5074 18.7209 14.663 18.7497 14.8198 18.7489C15.1945 18.7449 15.567 18.6903 15.927 18.5866C16.1147 18.536 16.3001 18.4775 16.4826 18.4109L16.5379 18.3883L16.6391 18.335C16.8299 18.0886 17.2691 17.6248 17.8189 17.0901C19.5561 15.4141 20.444 14.2228 20.2626 13.778C20.1805 13.5621 20.0392 13.4534 19.8176 13.461L19.8177 13.4606ZM15.1901 15.5224C15.0489 15.5378 14.7319 15.7822 14.1611 16.2823C13.3363 17.0115 12.4372 17.4316 12.126 17.2445C12.0536 17.2611 11.9812 17.2758 11.9084 17.2904C11.5915 17.3531 11.1962 17.405 10.8431 17.3763C10.6767 17.3663 10.5135 17.3257 10.362 17.2561C10.2191 17.1908 10.1049 17.0753 10.0413 16.9315C9.97066 16.7596 9.97063 16.5459 10.0506 16.273L8.80967 17.2924L6.00152 19.6157V23.3823L15.2032 16.1335C15.2015 16.0542 15.2119 15.975 15.2339 15.8986C15.3043 15.6429 15.3007 15.5131 15.1899 15.5245L15.1901 15.5224ZM19.1496 16.7424C19.0102 16.7424 18.7772 16.9391 18.4051 17.3342C17.8992 17.8745 17.103 18.3976 16.6811 18.5045L16.6164 18.5392C16.5472 18.5678 16.477 18.5944 16.4064 18.6193C16.2918 18.6573 16.143 18.7034 15.9711 18.7492C15.6275 18.8426 15.2 18.9286 14.8181 18.9191C14.638 18.9188 14.4598 18.8838 14.2931 18.816C14.1359 18.7514 14.0099 18.628 13.9417 18.4724C13.831 18.207 13.8749 17.8347 14.1174 17.306L6 23.6994V26H9.5661L17.13 20.0588C17.3267 19.8411 17.6225 19.5433 18.0215 19.1711C19.0906 18.1802 19.3331 17.8385 19.3331 17.3326C19.3331 16.9394 19.2892 16.7408 19.1498 16.7408L19.1496 16.7424ZM20.9499 20.4652L20.3027 21.1103C19.94 21.4539 19.2927 21.8778 18.8499 22.0593L18.7621 22.0972L18.7563 22.1065L18.737 22.1259C18.7196 22.1392 18.7123 22.1412 18.699 22.1465C18.5222 22.2135 18.3425 22.2727 18.1606 22.324C17.7562 22.4419 17.3401 22.5153 16.9197 22.5436C16.721 22.5562 16.5213 22.539 16.3279 22.4923C16.1599 22.455 16.0115 22.3572 15.9116 22.2174C15.82 22.076 15.7934 21.8871 15.8449 21.6542C15.8862 21.4883 15.9467 21.3282 16.0262 21.177L9.92287 25.9993H18.0405L19.0102 24.8882C20.3428 23.3341 20.9499 22.223 20.9499 21.2723V20.4652Z" fill="#F0F0F0"/>
</g>
<defs>
<clipPath id="clip0_1192:316">
<rect width="32" height="32" fill="white"/>
</clipPath>
</defs>
</svg>
