<svg width="32" height="32" viewBox="0 0 32 32" fill="none" xmlns="http://www.w3.org/2000/svg">
<path d="M14 1.1547C15.2376 0.440169 16.7624 0.440169 18 1.1547L27.8564 6.8453C29.094 7.55983 29.8564 8.88034 29.8564 10.3094V21.6906C29.8564 23.1197 29.094 24.4402 27.8564 25.1547L18 30.8453C16.7624 31.5598 15.2376 31.5598 14 30.8453L4.14359 25.1547C2.90599 24.4402 2.14359 23.1197 2.14359 21.6906V10.3094C2.14359 8.88034 2.90599 7.55983 4.14359 6.8453L14 1.1547Z" fill="#DB7093"/>
<path d="M18.8093 12.5081L18.7593 12.7687C18.682 13.2627 18.71 13.4041 18.922 13.5874L19.1267 13.7567L18.9147 14.7021C18.788 15.2661 18.6327 15.7387 18.534 15.8941C18.4493 16.0281 18.3507 16.2254 18.3293 16.3314C18.294 16.4581 18.174 16.5854 17.9907 16.6981C17.8287 16.7901 17.5107 17.0367 17.2853 17.2347C17.1053 17.3967 16.9813 17.4961 16.914 17.5387L16.694 17.7127C16.6233 17.8261 16.5833 17.9174 16.568 17.9867C16.5527 18.0581 16.5613 18.1054 16.584 18.1401C16.606 18.1734 16.644 18.1967 16.696 18.2114C16.7576 18.2258 16.8209 18.231 16.884 18.2267C17.0267 18.217 17.168 18.1919 17.3053 18.1521C17.352 18.1394 17.3887 18.1274 17.4207 18.1167C17.47 18.0561 17.584 17.9414 17.786 17.7421C18.322 17.2134 18.5267 16.9241 18.3153 17.0021C18.2373 17.0301 18.2727 16.9594 18.4067 16.8181C18.6893 16.5427 18.8513 16.1267 19.19 14.8221C19.458 13.7921 19.458 13.7774 19.6553 13.7774C19.748 13.7774 20.01 13.7934 20.01 13.7934V12.5081H19.4087H18.8093ZM21.3687 14.6181C21.326 14.6181 21.2553 14.6821 21.2133 14.7527C21.136 14.8794 21.2273 14.9567 22.3913 15.6834C23.0827 16.1214 23.64 16.4947 23.626 16.5234C23.612 16.5441 23.0473 16.9114 22.3707 17.3347C21.1427 18.0961 21.136 18.1034 21.2487 18.2587C21.39 18.4421 21.2487 18.5054 22.8427 17.5107L24 16.7701V16.2127L22.7087 15.4154C22.0107 14.9781 21.404 14.6254 21.3687 14.6181ZM10.6453 14.6961C10.61 14.6961 10.0033 15.0561 9.30533 15.4861L8 16.2834V16.8407L9.298 17.6521C10.018 18.0961 10.6247 18.4634 10.6527 18.4634C10.6807 18.4634 10.7373 18.3994 10.794 18.3221C10.8787 18.1881 10.8073 18.1314 9.61533 17.3767C8.48 16.6641 8.36 16.5654 8.47333 16.4881C8.544 16.4387 9.08 16.1067 9.65867 15.7474C10.978 14.9361 10.9073 14.9921 10.8013 14.8227C10.7593 14.7527 10.688 14.6894 10.646 14.6961H10.6453ZM16.4347 14.7114C16.24 14.7101 15.8213 15.0067 14.568 16.0301C14.514 16.1587 14.5093 16.2474 14.534 16.3047C14.55 16.3441 14.5793 16.3714 14.62 16.3914C14.66 16.4114 14.712 16.4234 14.7693 16.4281C14.8833 16.4381 15.018 16.4201 15.1267 16.3987L15.2 16.3821C15.2251 16.3484 15.2581 16.3214 15.296 16.3034C15.3733 16.2607 15.698 15.9647 16.0227 15.6474C16.594 15.0687 16.728 14.8074 16.4953 14.7227C16.4762 14.7151 16.4559 14.7113 16.4353 14.7114H16.4347ZM17.8987 15.1134C17.7273 15.1181 17.4187 15.3167 16.89 15.7387C16.6247 15.9541 16.4567 16.0701 16.3667 16.0941L16.0173 16.3701C15.886 16.6101 15.8667 16.7587 15.9013 16.8407C15.91 16.8609 15.9226 16.8793 15.9384 16.8946C15.9542 16.9099 15.9729 16.922 15.9933 16.9301C16.0443 16.9502 16.0986 16.9604 16.1533 16.9601C16.2842 16.9587 16.4143 16.9396 16.54 16.9034C16.6055 16.8858 16.6703 16.8653 16.734 16.8421L16.7533 16.8341L16.7887 16.8154C16.8553 16.7294 17.0087 16.5674 17.2007 16.3807C17.8073 15.7954 18.1173 15.3794 18.054 15.2241C18.0253 15.1487 17.976 15.1107 17.8987 15.1134V15.1134ZM16.2827 15.8334C16.2333 15.8387 16.1227 15.9241 15.9233 16.0987C15.6353 16.3534 15.3213 16.5001 15.2127 16.4347C15.1874 16.4404 15.1621 16.4458 15.1367 16.4507C15.026 16.4727 14.888 16.4907 14.7647 16.4807C14.7066 16.4772 14.6496 16.463 14.5967 16.4387C14.5467 16.4159 14.5069 16.3756 14.4847 16.3254C14.46 16.2654 14.46 16.1907 14.488 16.0954L14.0547 16.4514L13.074 17.2627V18.5781L16.2873 16.0467C16.2867 16.019 16.2903 15.9914 16.298 15.9647C16.3227 15.8754 16.3213 15.8301 16.2827 15.8341V15.8334ZM17.6653 16.2594C17.6167 16.2594 17.5353 16.3281 17.4053 16.4661C17.2287 16.6547 16.9507 16.8374 16.8033 16.8747L16.7807 16.8867C16.7565 16.8967 16.732 16.906 16.7073 16.9147C16.6673 16.9281 16.6153 16.9441 16.5553 16.9601C16.4353 16.9927 16.286 17.0227 16.1527 17.0194C16.0898 17.0193 16.0276 17.0071 15.9693 16.9834C15.9145 16.9608 15.8705 16.9178 15.8467 16.8634C15.808 16.7707 15.8233 16.6407 15.908 16.4561L13.0733 18.6887V19.4921H14.3187L16.96 17.4174C17.0287 17.3414 17.132 17.2374 17.2713 17.1074C17.6447 16.7614 17.7293 16.6421 17.7293 16.4654C17.7293 16.3281 17.714 16.2587 17.6653 16.2587V16.2594ZM18.294 17.5594L18.068 17.7847C17.9413 17.9047 17.7153 18.0527 17.5607 18.1161L17.53 18.1294L17.528 18.1327L17.5213 18.1394C17.5153 18.1441 17.5127 18.1447 17.508 18.1467C17.4463 18.1701 17.3835 18.1908 17.32 18.2087C17.1787 18.2498 17.0335 18.2755 16.8867 18.2854C16.8173 18.2898 16.7476 18.2838 16.68 18.2674C16.6213 18.2545 16.5696 18.2203 16.5347 18.1714C16.5027 18.1221 16.4933 18.0561 16.5113 17.9747C16.5257 17.9168 16.5469 17.8609 16.5747 17.8081L14.4433 19.4921H17.278L17.6167 19.1041C18.082 18.5614 18.294 18.1734 18.294 17.8414V17.5594Z" fill="#F0F0F0"/>
</svg>
