<svg width="32" height="32" viewBox="0 0 32 32" fill="none" xmlns="http://www.w3.org/2000/svg">
<rect width="32" height="32" rx="2" fill="#0D1117"/>
<path d="M19.5117 11.635L19.4492 11.9608C19.3525 12.5783 19.3875 12.755 19.6525 12.9842L19.9083 13.1958L19.6433 14.3775C19.485 15.0825 19.2908 15.6733 19.1675 15.8675C19.0617 16.035 18.9383 16.2817 18.9117 16.4142C18.8675 16.5725 18.7175 16.7317 18.4883 16.8725C18.2858 16.9875 17.8883 17.2958 17.6067 17.5433C17.3817 17.7458 17.2267 17.87 17.1425 17.9233L16.8675 18.1408C16.7792 18.2825 16.7292 18.3967 16.71 18.4833C16.6908 18.5725 16.7017 18.6317 16.73 18.675C16.7575 18.7167 16.805 18.7458 16.87 18.7642C16.9469 18.7822 17.0261 18.7887 17.105 18.7833C17.2834 18.7712 17.46 18.7399 17.6317 18.69C17.69 18.6742 17.7358 18.6592 17.7758 18.6458C17.8375 18.57 17.98 18.4267 18.2325 18.1775C18.9025 17.5167 19.1583 17.155 18.8942 17.2525C18.7967 17.2875 18.8408 17.1992 19.0083 17.0225C19.3617 16.6783 19.5642 16.1583 19.9875 14.5275C20.3225 13.24 20.3225 13.2217 20.5692 13.2217C20.685 13.2217 21.0125 13.2417 21.0125 13.2417V11.635H20.2608H19.5117ZM22.7108 14.2725C22.6575 14.2725 22.5692 14.3525 22.5167 14.4408C22.42 14.5992 22.5342 14.6958 23.9892 15.6042C24.8533 16.1517 25.55 16.6183 25.5325 16.6542C25.515 16.68 24.8092 17.1392 23.9633 17.6683C22.4283 18.62 22.42 18.6292 22.5608 18.8233C22.7375 19.0525 22.5608 19.1317 24.5533 17.8883L26 16.9625V16.2658L24.3858 15.2692C23.5133 14.7225 22.755 14.2817 22.7108 14.2725ZM9.30667 14.37C9.2625 14.37 8.50417 14.82 7.63167 15.3575L6 16.3542V17.0508L7.6225 18.065C8.5225 18.62 9.28083 19.0792 9.31583 19.0792C9.35083 19.0792 9.42167 18.9992 9.4925 18.9025C9.59833 18.735 9.50917 18.6642 8.01917 17.7208C6.6 16.83 6.45 16.7067 6.59167 16.61C6.68 16.5483 7.35 16.1333 8.07333 15.6842C9.7225 14.67 9.63417 14.74 9.50167 14.5283C9.44917 14.4408 9.36 14.3617 9.3075 14.37H9.30667ZM16.5433 14.3892C16.3 14.3875 15.7767 14.7583 14.21 16.0375C14.1425 16.1983 14.1367 16.3092 14.1675 16.3808C14.1875 16.43 14.2242 16.4642 14.275 16.4892C14.325 16.5142 14.39 16.5292 14.4617 16.535C14.6042 16.5475 14.7725 16.525 14.9083 16.4983L15 16.4775C15.0314 16.4354 15.0726 16.4017 15.12 16.3792C15.2167 16.3258 15.6225 15.9558 16.0283 15.5592C16.7425 14.8358 16.91 14.5092 16.6192 14.4033C16.5953 14.3938 16.5698 14.389 16.5442 14.3892H16.5433ZM18.3733 14.8917C18.1592 14.8975 17.7733 15.1458 17.1125 15.6733C16.7808 15.9425 16.5708 16.0875 16.4583 16.1175L16.0217 16.4625C15.8575 16.7625 15.8333 16.9483 15.8767 17.0508C15.8875 17.0761 15.9033 17.099 15.923 17.1182C15.9427 17.1373 15.9661 17.1524 15.9917 17.1625C16.0553 17.1876 16.1232 17.2004 16.1917 17.2C16.3552 17.1983 16.5178 17.1744 16.675 17.1292C16.7569 17.1072 16.8378 17.0816 16.9175 17.0525L16.9417 17.0425L16.9858 17.0192C17.0692 16.9117 17.2608 16.7092 17.5008 16.4758C18.2592 15.7442 18.6467 15.2242 18.5675 15.03C18.5317 14.9358 18.47 14.8883 18.3733 14.8917V14.8917ZM16.3533 15.7917C16.2917 15.7983 16.1533 15.905 15.9042 16.1233C15.5442 16.4417 15.1517 16.625 15.0158 16.5433C14.9843 16.5505 14.9526 16.5571 14.9208 16.5633C14.7825 16.5908 14.61 16.6133 14.4558 16.6008C14.3832 16.5964 14.312 16.5786 14.2458 16.5483C14.1834 16.5198 14.1336 16.4694 14.1058 16.4067C14.075 16.3317 14.075 16.2383 14.11 16.1192L13.5683 16.5642L12.3425 17.5783V19.2225L16.3592 16.0583C16.3584 16.0237 16.3629 15.9891 16.3725 15.9558C16.4033 15.8442 16.4017 15.7875 16.3533 15.7925V15.7917ZM18.0817 16.3242C18.0208 16.3242 17.9192 16.41 17.7567 16.5825C17.5358 16.8183 17.1883 17.0467 17.0042 17.0933L16.9758 17.1083C16.9456 17.1208 16.915 17.1325 16.8842 17.1433C16.8342 17.16 16.7692 17.18 16.6942 17.2C16.5442 17.2408 16.3575 17.2783 16.1908 17.2742C16.1123 17.2741 16.0344 17.2588 15.9617 17.2292C15.8931 17.2009 15.8381 17.1471 15.8083 17.0792C15.76 16.9633 15.7792 16.8008 15.885 16.57L12.3417 19.3608V20.365H13.8983L17.2 17.7717C17.2858 17.6767 17.415 17.5467 17.5892 17.3842C18.0558 16.9517 18.1617 16.8025 18.1617 16.5817C18.1617 16.41 18.1425 16.3233 18.0817 16.3233V16.3242ZM18.8675 17.9492L18.585 18.2308C18.4267 18.3808 18.1442 18.5658 17.9508 18.645L17.9125 18.6617L17.91 18.6658L17.9017 18.6742C17.8942 18.68 17.8908 18.6808 17.885 18.6833C17.8078 18.7126 17.7294 18.7384 17.65 18.7608C17.4734 18.8122 17.2918 18.8444 17.1083 18.8567C17.0216 18.8622 16.9345 18.8547 16.85 18.8342C16.7767 18.818 16.712 18.7753 16.6683 18.7142C16.6283 18.6525 16.6167 18.57 16.6392 18.4683C16.6571 18.396 16.6836 18.326 16.7183 18.26L14.0542 20.365H17.5975L18.0208 19.88C18.6025 19.2017 18.8675 18.7167 18.8675 18.3017V17.9492Z" fill="#DB7093"/>
</svg>
