<svg width="87" height="28" viewBox="0 0 87 28" fill="none" xmlns="http://www.w3.org/2000/svg">
<rect width="87" height="28" rx="2" fill="#2D2D2D"/>
<path d="M22.9594 9.08122L20.8469 19.0437C20.6875 19.7468 20.2719 19.9218 19.6812 19.5906L16.4625 17.2187L14.9094 18.7125C14.7375 18.8843 14.5937 19.0281 14.2625 19.0281L14.4937 15.75L20.4594 10.3593C20.7187 10.1281 20.4031 9.99997 20.0562 10.2312L12.6812 14.875L9.50623 13.8812C8.8156 13.6656 8.8031 13.1906 9.64998 12.8593L22.0687 8.07497C22.6437 7.85934 23.1469 8.20309 22.9594 9.08122V9.08122Z" fill="#61DAFB"/>
<path d="M34.916 19.144C34.324 19.144 33.828 19.04 33.428 18.832C33.028 18.624 32.68 18.336 32.384 17.968L33.224 17.2C33.456 17.48 33.712 17.7 33.992 17.86C34.28 18.012 34.612 18.088 34.988 18.088C35.372 18.088 35.656 18.016 35.84 17.872C36.032 17.72 36.128 17.512 36.128 17.248C36.128 17.048 36.06 16.88 35.924 16.744C35.796 16.6 35.568 16.508 35.24 16.468L34.664 16.396C34.024 16.316 33.52 16.132 33.152 15.844C32.792 15.548 32.612 15.112 32.612 14.536C32.612 14.232 32.668 13.964 32.78 13.732C32.892 13.492 33.048 13.292 33.248 13.132C33.456 12.964 33.7 12.836 33.98 12.748C34.268 12.66 34.584 12.616 34.928 12.616C35.488 12.616 35.944 12.704 36.296 12.88C36.656 13.056 36.976 13.3 37.256 13.612L36.452 14.38C36.292 14.188 36.08 14.024 35.816 13.888C35.56 13.744 35.264 13.672 34.928 13.672C34.568 13.672 34.3 13.744 34.124 13.888C33.956 14.032 33.872 14.22 33.872 14.452C33.872 14.692 33.948 14.872 34.1 14.992C34.252 15.112 34.496 15.2 34.832 15.256L35.408 15.328C36.096 15.432 36.596 15.636 36.908 15.94C37.228 16.236 37.388 16.636 37.388 17.14C37.388 17.444 37.328 17.72 37.208 17.968C37.096 18.208 36.932 18.416 36.716 18.592C36.5 18.768 36.24 18.904 35.936 19C35.632 19.096 35.292 19.144 34.916 19.144ZM40.5117 19C40.0557 19 39.7117 18.884 39.4797 18.652C39.2477 18.412 39.1317 18.076 39.1317 17.644V13.828H38.1597V12.76H38.6877C38.9037 12.76 39.0517 12.712 39.1317 12.616C39.2197 12.52 39.2637 12.364 39.2637 12.148V11.056H40.4397V12.76H41.7477V13.828H40.4397V17.932H41.6517V19H40.5117ZM45.5676 19.144C45.1196 19.144 44.7196 19.068 44.3676 18.916C44.0156 18.764 43.7156 18.548 43.4676 18.268C43.2196 17.98 43.0276 17.636 42.8916 17.236C42.7636 16.828 42.6996 16.376 42.6996 15.88C42.6996 15.384 42.7636 14.936 42.8916 14.536C43.0276 14.128 43.2196 13.784 43.4676 13.504C43.7156 13.216 44.0156 12.996 44.3676 12.844C44.7196 12.692 45.1196 12.616 45.5676 12.616C46.0236 12.616 46.4236 12.696 46.7676 12.856C47.1196 13.016 47.4116 13.24 47.6436 13.528C47.8756 13.808 48.0476 14.136 48.1596 14.512C48.2796 14.888 48.3396 15.292 48.3396 15.724V16.216H44.0556V16.42C44.0556 16.9 44.1956 17.296 44.4756 17.608C44.7636 17.912 45.1716 18.064 45.6996 18.064C46.0836 18.064 46.4076 17.98 46.6716 17.812C46.9356 17.644 47.1596 17.416 47.3436 17.128L48.1116 17.884C47.8796 18.268 47.5436 18.576 47.1036 18.808C46.6636 19.032 46.1516 19.144 45.5676 19.144ZM45.5676 13.636C45.3436 13.636 45.1356 13.676 44.9436 13.756C44.7596 13.836 44.5996 13.948 44.4636 14.092C44.3356 14.236 44.2356 14.408 44.1636 14.608C44.0916 14.808 44.0556 15.028 44.0556 15.268V15.352H46.9596V15.232C46.9596 14.752 46.8356 14.368 46.5876 14.08C46.3396 13.784 45.9996 13.636 45.5676 13.636ZM49.7876 19V12.76H51.0956V13.792H51.1556C51.2916 13.456 51.4956 13.176 51.7676 12.952C52.0476 12.728 52.4276 12.616 52.9076 12.616C53.5476 12.616 54.0436 12.828 54.3956 13.252C54.7556 13.668 54.9356 14.264 54.9356 15.04V19H53.6276V15.208C53.6276 14.232 53.2356 13.744 52.4516 13.744C52.2836 13.744 52.1156 13.768 51.9476 13.816C51.7876 13.856 51.6436 13.92 51.5156 14.008C51.3876 14.096 51.2836 14.208 51.2036 14.344C51.1316 14.48 51.0956 14.64 51.0956 14.824V19H49.7876ZM57.4085 11.644C57.1365 11.644 56.9365 11.58 56.8085 11.452C56.6885 11.324 56.6285 11.16 56.6285 10.96V10.756C56.6285 10.556 56.6885 10.392 56.8085 10.264C56.9365 10.136 57.1365 10.072 57.4085 10.072C57.6805 10.072 57.8765 10.136 57.9965 10.264C58.1165 10.392 58.1765 10.556 58.1765 10.756V10.96C58.1765 11.16 58.1165 11.324 57.9965 11.452C57.8765 11.58 57.6805 11.644 57.4085 11.644ZM56.7485 12.76H58.0565V19H56.7485V12.76ZM62.3723 19.144C61.9403 19.144 61.5443 19.068 61.1843 18.916C60.8323 18.764 60.5323 18.548 60.2843 18.268C60.0363 17.98 59.8443 17.636 59.7083 17.236C59.5723 16.828 59.5043 16.376 59.5043 15.88C59.5043 15.384 59.5723 14.936 59.7083 14.536C59.8443 14.128 60.0363 13.784 60.2843 13.504C60.5323 13.216 60.8323 12.996 61.1843 12.844C61.5443 12.692 61.9403 12.616 62.3723 12.616C62.8043 12.616 63.1963 12.692 63.5483 12.844C63.9083 12.996 64.2123 13.216 64.4603 13.504C64.7083 13.784 64.9003 14.128 65.0363 14.536C65.1723 14.936 65.2403 15.384 65.2403 15.88C65.2403 16.376 65.1723 16.828 65.0363 17.236C64.9003 17.636 64.7083 17.98 64.4603 18.268C64.2123 18.548 63.9083 18.764 63.5483 18.916C63.1963 19.068 62.8043 19.144 62.3723 19.144ZM62.3723 18.064C62.8203 18.064 63.1803 17.928 63.4523 17.656C63.7243 17.376 63.8603 16.96 63.8603 16.408V15.352C63.8603 14.8 63.7243 14.388 63.4523 14.116C63.1803 13.836 62.8203 13.696 62.3723 13.696C61.9243 13.696 61.5643 13.836 61.2923 14.116C61.0203 14.388 60.8843 14.8 60.8843 15.352V16.408C60.8843 16.96 61.0203 17.376 61.2923 17.656C61.5643 17.928 61.9243 18.064 62.3723 18.064ZM71.2697 19C70.9257 19 70.6617 18.904 70.4777 18.712C70.2937 18.512 70.1817 18.26 70.1417 17.956H70.0817C69.9617 18.348 69.7417 18.644 69.4217 18.844C69.1017 19.044 68.7137 19.144 68.2577 19.144C67.6097 19.144 67.1097 18.976 66.7577 18.64C66.4137 18.304 66.2417 17.852 66.2417 17.284C66.2417 16.66 66.4657 16.192 66.9137 15.88C67.3697 15.568 68.0337 15.412 68.9057 15.412H70.0337V14.884C70.0337 14.5 69.9297 14.204 69.7217 13.996C69.5137 13.788 69.1897 13.684 68.7497 13.684C68.3817 13.684 68.0817 13.764 67.8497 13.924C67.6177 14.084 67.4217 14.288 67.2617 14.536L66.4817 13.828C66.6897 13.476 66.9817 13.188 67.3577 12.964C67.7337 12.732 68.2257 12.616 68.8337 12.616C69.6417 12.616 70.2617 12.804 70.6937 13.18C71.1257 13.556 71.3417 14.096 71.3417 14.8V17.932H72.0017V19H71.2697ZM68.6297 18.148C69.0377 18.148 69.3737 18.06 69.6377 17.884C69.9017 17.7 70.0337 17.456 70.0337 17.152V16.252H68.9297C68.0257 16.252 67.5737 16.532 67.5737 17.092V17.308C67.5737 17.588 67.6657 17.8 67.8497 17.944C68.0417 18.08 68.3017 18.148 68.6297 18.148ZM75.2637 19.144C74.6717 19.144 74.1757 19.04 73.7757 18.832C73.3757 18.624 73.0277 18.336 72.7317 17.968L73.5717 17.2C73.8037 17.48 74.0597 17.7 74.3397 17.86C74.6277 18.012 74.9597 18.088 75.3357 18.088C75.7197 18.088 76.0037 18.016 76.1877 17.872C76.3797 17.72 76.4757 17.512 76.4757 17.248C76.4757 17.048 76.4077 16.88 76.2717 16.744C76.1437 16.6 75.9157 16.508 75.5877 16.468L75.0117 16.396C74.3717 16.316 73.8677 16.132 73.4997 15.844C73.1397 15.548 72.9597 15.112 72.9597 14.536C72.9597 14.232 73.0157 13.964 73.1277 13.732C73.2397 13.492 73.3957 13.292 73.5957 13.132C73.8037 12.964 74.0477 12.836 74.3277 12.748C74.6157 12.66 74.9317 12.616 75.2757 12.616C75.8357 12.616 76.2917 12.704 76.6437 12.88C77.0037 13.056 77.3237 13.3 77.6037 13.612L76.7997 14.38C76.6397 14.188 76.4277 14.024 76.1637 13.888C75.9077 13.744 75.6117 13.672 75.2757 13.672C74.9157 13.672 74.6477 13.744 74.4717 13.888C74.3037 14.032 74.2197 14.22 74.2197 14.452C74.2197 14.692 74.2957 14.872 74.4477 14.992C74.5997 15.112 74.8437 15.2 75.1797 15.256L75.7557 15.328C76.4437 15.432 76.9437 15.636 77.2557 15.94C77.5757 16.236 77.7357 16.636 77.7357 17.14C77.7357 17.444 77.6757 17.72 77.5557 17.968C77.4437 18.208 77.2797 18.416 77.0637 18.592C76.8477 18.768 76.5877 18.904 76.2837 19C75.9797 19.096 75.6397 19.144 75.2637 19.144Z" fill="#F5F5F5"/>
</svg>
