<svg width="94" height="28" viewBox="0 0 94 28" fill="none" xmlns="http://www.w3.org/2000/svg">
<rect width="94" height="28" rx="2" fill="#26A5E4"/>
<path fill-rule="evenodd" clip-rule="evenodd" d="M23.7582 8.17204C23.5814 8.0284 23.3101 7.9977 23.1873 8.00016C22.6336 8.00998 21.7828 8.30587 17.6919 10.0075C16.2579 10.603 13.3948 11.8369 9.10019 13.7079C8.40284 13.9854 8.03697 14.2567 8.00382 14.5219C7.94767 14.9701 8.50792 15.1466 9.27191 15.3872C9.37654 15.4202 9.48499 15.4544 9.5962 15.4906C10.3488 15.7349 11.3605 16.021 11.8859 16.0308C12.3635 16.0431 12.8951 15.8467 13.4845 15.4415C17.4967 12.7343 19.5679 11.3642 19.6981 11.3347C19.7901 11.3138 19.9178 11.2881 20.0038 11.3642C20.0897 11.4403 20.0811 11.5852 20.0725 11.6245C20.0164 11.8609 17.819 13.9044 16.6769 14.9664C16.3187 15.2995 16.0643 15.5361 16.0124 15.5901C15.8973 15.7093 15.7801 15.8222 15.6674 15.9308C14.9681 16.6043 14.4427 17.1103 15.6956 17.935C16.2982 18.3324 16.7803 18.6609 17.2615 18.9887C17.7852 19.3455 18.3078 19.7016 18.9835 20.145C19.1565 20.2583 19.3217 20.376 19.4826 20.4906C20.0923 20.9252 20.6401 21.3155 21.3162 21.2524C21.7103 21.2168 22.1167 20.8472 22.323 19.7423C22.8116 17.1333 23.7717 11.4808 23.9927 9.15055C24.0123 8.94675 23.9878 8.68524 23.9681 8.57106C23.9506 8.41646 23.8757 8.27406 23.7582 8.17204Z" fill="#F5F5F5"/>
<path d="M35.402 19.168C34.7113 19.168 34.1327 19.0467 33.666 18.804C33.1993 18.5613 32.7933 18.2253 32.448 17.796L33.428 16.9C33.6987 17.2267 33.9973 17.4833 34.324 17.67C34.66 17.8473 35.0473 17.936 35.486 17.936C35.934 17.936 36.2653 17.852 36.48 17.684C36.704 17.5067 36.816 17.264 36.816 16.956C36.816 16.7227 36.7367 16.5267 36.578 16.368C36.4287 16.2 36.1627 16.0927 35.78 16.046L35.108 15.962C34.3613 15.8687 33.7733 15.654 33.344 15.318C32.924 14.9727 32.714 14.464 32.714 13.792C32.714 13.4373 32.7793 13.1247 32.91 12.854C33.0407 12.574 33.2227 12.3407 33.456 12.154C33.6987 11.958 33.9833 11.8087 34.31 11.706C34.646 11.6033 35.0147 11.552 35.416 11.552C36.0693 11.552 36.6013 11.6547 37.012 11.86C37.432 12.0653 37.8053 12.35 38.132 12.714L37.194 13.61C37.0073 13.386 36.76 13.1947 36.452 13.036C36.1533 12.868 35.808 12.784 35.416 12.784C34.996 12.784 34.6833 12.868 34.478 13.036C34.282 13.204 34.184 13.4233 34.184 13.694C34.184 13.974 34.2727 14.184 34.45 14.324C34.6273 14.464 34.912 14.5667 35.304 14.632L35.976 14.716C36.7787 14.8373 37.362 15.0753 37.726 15.43C38.0993 15.7753 38.286 16.242 38.286 16.83C38.286 17.1847 38.216 17.5067 38.076 17.796C37.9453 18.076 37.754 18.3187 37.502 18.524C37.25 18.7293 36.9467 18.888 36.592 19C36.2373 19.112 35.8407 19.168 35.402 19.168ZM41.9303 19C41.3983 19 40.9969 18.8647 40.7263 18.594C40.4556 18.314 40.3203 17.922 40.3203 17.418V12.966H39.1863V11.72H39.8023C40.0543 11.72 40.2269 11.664 40.3203 11.552C40.4229 11.44 40.4743 11.258 40.4743 11.006V9.732H41.8463V11.72H43.3723V12.966H41.8463V17.754H43.2603V19H41.9303ZM47.8289 19.168C47.3062 19.168 46.8395 19.0793 46.4289 18.902C46.0182 18.7247 45.6682 18.4727 45.3789 18.146C45.0895 17.81 44.8655 17.4087 44.7069 16.942C44.5575 16.466 44.4829 15.9387 44.4829 15.36C44.4829 14.7813 44.5575 14.2587 44.7069 13.792C44.8655 13.316 45.0895 12.9147 45.3789 12.588C45.6682 12.252 46.0182 11.9953 46.4289 11.818C46.8395 11.6407 47.3062 11.552 47.8289 11.552C48.3609 11.552 48.8275 11.6453 49.2289 11.832C49.6395 12.0187 49.9802 12.28 50.2509 12.616C50.5215 12.9427 50.7222 13.3253 50.8529 13.764C50.9929 14.2027 51.0629 14.674 51.0629 15.178V15.752H46.0649V15.99C46.0649 16.55 46.2282 17.012 46.5549 17.376C46.8909 17.7307 47.3669 17.908 47.9829 17.908C48.4309 17.908 48.8089 17.81 49.1169 17.614C49.4249 17.418 49.6862 17.152 49.9009 16.816L50.7969 17.698C50.5262 18.146 50.1342 18.5053 49.6209 18.776C49.1075 19.0373 48.5102 19.168 47.8289 19.168ZM47.8289 12.742C47.5675 12.742 47.3249 12.7887 47.1009 12.882C46.8862 12.9753 46.6995 13.106 46.5409 13.274C46.3915 13.442 46.2749 13.6427 46.1909 13.876C46.1069 14.1093 46.0649 14.366 46.0649 14.646V14.744H49.4529V14.604C49.4529 14.044 49.3082 13.596 49.0189 13.26C48.7295 12.9147 48.3329 12.742 47.8289 12.742ZM52.7522 19V11.72H54.2782V12.924H54.3482C54.5068 12.532 54.7448 12.2053 55.0622 11.944C55.3888 11.6827 55.8322 11.552 56.3922 11.552C57.1388 11.552 57.7175 11.7993 58.1282 12.294C58.5482 12.7793 58.7582 13.4747 58.7582 14.38V19H57.2322V14.576C57.2322 13.4373 56.7748 12.868 55.8602 12.868C55.6642 12.868 55.4682 12.896 55.2722 12.952C55.0855 12.9987 54.9175 13.0733 54.7682 13.176C54.6188 13.2787 54.4975 13.4093 54.4042 13.568C54.3202 13.7267 54.2782 13.9133 54.2782 14.128V19H52.7522ZM61.6433 10.418C61.3259 10.418 61.0926 10.3433 60.9433 10.194C60.8033 10.0447 60.7333 9.85333 60.7333 9.62V9.382C60.7333 9.14867 60.8033 8.95733 60.9433 8.808C61.0926 8.65867 61.3259 8.584 61.6433 8.584C61.9606 8.584 62.1893 8.65867 62.3293 8.808C62.4693 8.95733 62.5393 9.14867 62.5393 9.382V9.62C62.5393 9.85333 62.4693 10.0447 62.3293 10.194C62.1893 10.3433 61.9606 10.418 61.6433 10.418ZM60.8733 11.72H62.3993V19H60.8733V11.72ZM67.4343 19.168C66.9303 19.168 66.4683 19.0793 66.0483 18.902C65.6377 18.7247 65.2877 18.4727 64.9983 18.146C64.709 17.81 64.485 17.4087 64.3263 16.942C64.1677 16.466 64.0883 15.9387 64.0883 15.36C64.0883 14.7813 64.1677 14.2587 64.3263 13.792C64.485 13.316 64.709 12.9147 64.9983 12.588C65.2877 12.252 65.6377 11.9953 66.0483 11.818C66.4683 11.6407 66.9303 11.552 67.4343 11.552C67.9383 11.552 68.3957 11.6407 68.8063 11.818C69.2263 11.9953 69.581 12.252 69.8703 12.588C70.1597 12.9147 70.3837 13.316 70.5423 13.792C70.701 14.2587 70.7803 14.7813 70.7803 15.36C70.7803 15.9387 70.701 16.466 70.5423 16.942C70.3837 17.4087 70.1597 17.81 69.8703 18.146C69.581 18.4727 69.2263 18.7247 68.8063 18.902C68.3957 19.0793 67.9383 19.168 67.4343 19.168ZM67.4343 17.908C67.957 17.908 68.377 17.7493 68.6943 17.432C69.0117 17.1053 69.1703 16.62 69.1703 15.976V14.744C69.1703 14.1 69.0117 13.6193 68.6943 13.302C68.377 12.9753 67.957 12.812 67.4343 12.812C66.9117 12.812 66.4917 12.9753 66.1743 13.302C65.857 13.6193 65.6983 14.1 65.6983 14.744V15.976C65.6983 16.62 65.857 17.1053 66.1743 17.432C66.4917 17.7493 66.9117 17.908 67.4343 17.908ZM77.8147 19C77.4133 19 77.1053 18.888 76.8907 18.664C76.676 18.4307 76.5453 18.1367 76.4987 17.782H76.4287C76.2887 18.2393 76.032 18.5847 75.6587 18.818C75.2853 19.0513 74.8327 19.168 74.3007 19.168C73.5447 19.168 72.9613 18.972 72.5507 18.58C72.1493 18.188 71.9487 17.6607 71.9487 16.998C71.9487 16.27 72.21 15.724 72.7327 15.36C73.2647 14.996 74.0393 14.814 75.0567 14.814H76.3727V14.198C76.3727 13.75 76.2513 13.4047 76.0087 13.162C75.766 12.9193 75.388 12.798 74.8747 12.798C74.4453 12.798 74.0953 12.8913 73.8247 13.078C73.554 13.2647 73.3253 13.5027 73.1387 13.792L72.2287 12.966C72.4713 12.5553 72.812 12.2193 73.2507 11.958C73.6893 11.6873 74.2633 11.552 74.9727 11.552C75.9153 11.552 76.6387 11.7713 77.1427 12.21C77.6467 12.6487 77.8987 13.2787 77.8987 14.1V17.754H78.6687V19H77.8147ZM74.7347 18.006C75.2107 18.006 75.6027 17.9033 75.9107 17.698C76.2187 17.4833 76.3727 17.1987 76.3727 16.844V15.794H75.0847C74.03 15.794 73.5027 16.1207 73.5027 16.774V17.026C73.5027 17.3527 73.61 17.6 73.8247 17.768C74.0487 17.9267 74.352 18.006 74.7347 18.006ZM82.4743 19.168C81.7836 19.168 81.2049 19.0467 80.7383 18.804C80.2716 18.5613 79.8656 18.2253 79.5203 17.796L80.5003 16.9C80.7709 17.2267 81.0696 17.4833 81.3963 17.67C81.7323 17.8473 82.1196 17.936 82.5583 17.936C83.0063 17.936 83.3376 17.852 83.5523 17.684C83.7763 17.5067 83.8883 17.264 83.8883 16.956C83.8883 16.7227 83.8089 16.5267 83.6503 16.368C83.5009 16.2 83.2349 16.0927 82.8523 16.046L82.1803 15.962C81.4336 15.8687 80.8456 15.654 80.4163 15.318C79.9963 14.9727 79.7863 14.464 79.7863 13.792C79.7863 13.4373 79.8516 13.1247 79.9823 12.854C80.1129 12.574 80.2949 12.3407 80.5283 12.154C80.7709 11.958 81.0556 11.8087 81.3823 11.706C81.7183 11.6033 82.0869 11.552 82.4883 11.552C83.1416 11.552 83.6736 11.6547 84.0843 11.86C84.5043 12.0653 84.8776 12.35 85.2043 12.714L84.2663 13.61C84.0796 13.386 83.8323 13.1947 83.5243 13.036C83.2256 12.868 82.8803 12.784 82.4883 12.784C82.0683 12.784 81.7556 12.868 81.5503 13.036C81.3543 13.204 81.2563 13.4233 81.2563 13.694C81.2563 13.974 81.3449 14.184 81.5223 14.324C81.6996 14.464 81.9843 14.5667 82.3763 14.632L83.0483 14.716C83.8509 14.8373 84.4343 15.0753 84.7983 15.43C85.1716 15.7753 85.3583 16.242 85.3583 16.83C85.3583 17.1847 85.2883 17.5067 85.1483 17.796C85.0176 18.076 84.8263 18.3187 84.5743 18.524C84.3223 18.7293 84.0189 18.888 83.6643 19C83.3096 19.112 82.9129 19.168 82.4743 19.168Z" fill="#F5F5F5"/>
</svg>
