<svg width="24" height="24" viewBox="0 0 24 24" fill="none" xmlns="http://www.w3.org/2000/svg">
<rect width="24" height="24" rx="2" fill="#2D2D2D"/>
<path fill-rule="evenodd" clip-rule="evenodd" d="M19.7582 6.17204C19.5814 6.0284 19.3101 5.9977 19.1873 6.00016C18.6336 6.00998 17.7828 6.30587 13.6919 8.00752C12.2579 8.60297 9.39483 9.83685 5.10019 11.7079C4.40284 11.9854 4.03697 12.2567 4.00382 12.5219C3.94767 12.9701 4.50792 13.1466 5.27191 13.3872C5.37654 13.4202 5.48499 13.4544 5.5962 13.4906C6.34881 13.7349 7.36047 14.021 7.88594 14.0308C8.36353 14.0431 8.89514 13.8467 9.48446 13.4415C13.4967 10.7343 15.5679 9.36417 15.6981 9.3347C15.7901 9.31383 15.9178 9.28805 16.0038 9.36417C16.0897 9.44029 16.0811 9.58516 16.0725 9.62445C16.0164 9.8609 13.819 11.9044 12.6769 12.9664C12.3187 13.2995 12.0643 13.5361 12.0124 13.5901C11.8973 13.7093 11.7801 13.8222 11.6674 13.9308C10.9681 14.6043 10.4427 15.1103 11.6956 15.935C12.2982 16.3324 12.7803 16.6609 13.2615 16.9887C13.7852 17.3455 14.3078 17.7016 14.9835 18.145C15.1565 18.2583 15.3217 18.376 15.4826 18.4906C16.0923 18.9252 16.6401 19.3155 17.3162 19.2524C17.7103 19.2168 18.1167 18.8472 18.323 17.7423C18.8116 15.1333 19.7717 9.48081 19.9927 7.15055C20.0123 6.94675 19.9878 6.68524 19.9681 6.57106C19.9506 6.41646 19.8757 6.27406 19.7582 6.17204Z" fill="#F5F5F5"/>
</svg>
