<svg width="100" height="24" viewBox="0 0 100 24" fill="none" xmlns="http://www.w3.org/2000/svg">
<rect width="100" height="24" rx="2" fill="#3F3F3F"/>
<path d="M10.14 9.824V17H8.784V9.824H6.288V8.624H12.636V9.824H10.14ZM15.5246 17.144C15.0926 17.144 14.6966 17.068 14.3366 16.916C13.9846 16.764 13.6846 16.548 13.4366 16.268C13.1886 15.98 12.9966 15.636 12.8606 15.236C12.7246 14.828 12.6566 14.376 12.6566 13.88C12.6566 13.384 12.7246 12.936 12.8606 12.536C12.9966 12.128 13.1886 11.784 13.4366 11.504C13.6846 11.216 13.9846 10.996 14.3366 10.844C14.6966 10.692 15.0926 10.616 15.5246 10.616C15.9566 10.616 16.3486 10.692 16.7006 10.844C17.0606 10.996 17.3646 11.216 17.6126 11.504C17.8606 11.784 18.0526 12.128 18.1886 12.536C18.3246 12.936 18.3926 13.384 18.3926 13.88C18.3926 14.376 18.3246 14.828 18.1886 15.236C18.0526 15.636 17.8606 15.98 17.6126 16.268C17.3646 16.548 17.0606 16.764 16.7006 16.916C16.3486 17.068 15.9566 17.144 15.5246 17.144ZM15.5246 16.064C15.9726 16.064 16.3326 15.928 16.6046 15.656C16.8766 15.376 17.0126 14.96 17.0126 14.408V13.352C17.0126 12.8 16.8766 12.388 16.6046 12.116C16.3326 11.836 15.9726 11.696 15.5246 11.696C15.0766 11.696 14.7166 11.836 14.4446 12.116C14.1726 12.388 14.0366 12.8 14.0366 13.352V14.408C14.0366 14.96 14.1726 15.376 14.4446 15.656C14.7166 15.928 15.0766 16.064 15.5246 16.064ZM22.2981 17.144C21.8661 17.144 21.4701 17.068 21.1101 16.916C20.7581 16.764 20.4581 16.548 20.2101 16.268C19.9621 15.98 19.7701 15.636 19.6341 15.236C19.4981 14.828 19.4301 14.376 19.4301 13.88C19.4301 13.384 19.4981 12.936 19.6341 12.536C19.7701 12.128 19.9621 11.784 20.2101 11.504C20.4581 11.216 20.7581 10.996 21.1101 10.844C21.4701 10.692 21.8661 10.616 22.2981 10.616C22.7301 10.616 23.1221 10.692 23.4741 10.844C23.8341 10.996 24.1381 11.216 24.3861 11.504C24.6341 11.784 24.8261 12.128 24.9621 12.536C25.0981 12.936 25.1661 13.384 25.1661 13.88C25.1661 14.376 25.0981 14.828 24.9621 15.236C24.8261 15.636 24.6341 15.98 24.3861 16.268C24.1381 16.548 23.8341 16.764 23.4741 16.916C23.1221 17.068 22.7301 17.144 22.2981 17.144ZM22.2981 16.064C22.7461 16.064 23.1061 15.928 23.3781 15.656C23.6501 15.376 23.7861 14.96 23.7861 14.408V13.352C23.7861 12.8 23.6501 12.388 23.3781 12.116C23.1061 11.836 22.7461 11.696 22.2981 11.696C21.8501 11.696 21.4901 11.836 21.2181 12.116C20.9461 12.388 20.8101 12.8 20.8101 13.352V14.408C20.8101 14.96 20.9461 15.376 21.2181 15.656C21.4901 15.928 21.8501 16.064 22.2981 16.064ZM27.9555 17C27.5075 17 27.1715 16.888 26.9475 16.664C26.7315 16.432 26.6235 16.112 26.6235 15.704V8.12H27.9315V15.932H28.7955V17H27.9555ZM32.0254 17.144C31.4334 17.144 30.9374 17.04 30.5374 16.832C30.1374 16.624 29.7894 16.336 29.4934 15.968L30.3334 15.2C30.5654 15.48 30.8214 15.7 31.1014 15.86C31.3894 16.012 31.7214 16.088 32.0974 16.088C32.4814 16.088 32.7654 16.016 32.9494 15.872C33.1414 15.72 33.2374 15.512 33.2374 15.248C33.2374 15.048 33.1694 14.88 33.0334 14.744C32.9054 14.6 32.6774 14.508 32.3494 14.468L31.7734 14.396C31.1334 14.316 30.6294 14.132 30.2614 13.844C29.9014 13.548 29.7214 13.112 29.7214 12.536C29.7214 12.232 29.7774 11.964 29.8894 11.732C30.0014 11.492 30.1574 11.292 30.3574 11.132C30.5654 10.964 30.8094 10.836 31.0894 10.748C31.3774 10.66 31.6934 10.616 32.0374 10.616C32.5974 10.616 33.0534 10.704 33.4054 10.88C33.7654 11.056 34.0854 11.3 34.3654 11.612L33.5614 12.38C33.4014 12.188 33.1894 12.024 32.9254 11.888C32.6694 11.744 32.3734 11.672 32.0374 11.672C31.6774 11.672 31.4094 11.744 31.2334 11.888C31.0654 12.032 30.9814 12.22 30.9814 12.452C30.9814 12.692 31.0574 12.872 31.2094 12.992C31.3614 13.112 31.6054 13.2 31.9414 13.256L32.5174 13.328C33.2054 13.432 33.7054 13.636 34.0174 13.94C34.3374 14.236 34.4974 14.636 34.4974 15.14C34.4974 15.444 34.4374 15.72 34.3174 15.968C34.2054 16.208 34.0414 16.416 33.8254 16.592C33.6094 16.768 33.3494 16.904 33.0454 17C32.7414 17.096 32.4014 17.144 32.0254 17.144Z" fill="#F5F5F5"/>
<path fill-rule="evenodd" clip-rule="evenodd" d="M86 11.9999C86 11.8673 86.0527 11.7401 86.1464 11.6463C86.2402 11.5526 86.3674 11.4999 86.5 11.4999H92.293L90.146 9.3539C90.0521 9.26001 89.9994 9.13267 89.9994 8.9999C89.9994 8.86712 90.0521 8.73979 90.146 8.6459C90.2399 8.55201 90.3672 8.49927 90.5 8.49927C90.6328 8.49927 90.7601 8.55201 90.854 8.6459L93.854 11.6459C93.9006 11.6923 93.9375 11.7475 93.9627 11.8083C93.9879 11.869 94.0009 11.9341 94.0009 11.9999C94.0009 12.0657 93.9879 12.1308 93.9627 12.1915C93.9375 12.2523 93.9006 12.3075 93.854 12.3539L90.854 15.3539C90.7601 15.4478 90.6328 15.5005 90.5 15.5005C90.3672 15.5005 90.2399 15.4478 90.146 15.3539C90.0521 15.26 89.9994 15.1327 89.9994 14.9999C89.9994 14.8671 90.0521 14.7398 90.146 14.6459L92.293 12.4999H86.5C86.3674 12.4999 86.2402 12.4472 86.1464 12.3535C86.0527 12.2597 86 12.1325 86 11.9999Z" fill="#F5F5F5"/>
</svg>
