<svg width="24" height="24" viewBox="0 0 24 24" fill="none" xmlns="http://www.w3.org/2000/svg">
<rect width="24" height="24" rx="2" fill="#2D2D2D"/>
<g clip-path="url(#clip0_1121:428)">
<path d="M18.098 4H5.902C5.39794 4.00123 4.91487 4.20202 4.55844 4.55844C4.20202 4.91487 4.00123 5.39794 4 5.902V18.098C4.00123 18.6021 4.20202 19.0851 4.55844 19.4416C4.91487 19.798 5.39794 19.9988 5.902 20H18.098C18.6021 19.9988 19.0851 19.798 19.4416 19.4416C19.798 19.0851 19.9988 18.6021 20 18.098V5.902C19.9988 5.39794 19.798 4.91487 19.4416 4.55844C19.0851 4.20202 18.6021 4.00123 18.098 4V4ZM10.8933 15.5247C10.8933 15.6932 10.8264 15.8548 10.7072 15.9739C10.5881 16.0931 10.4265 16.16 10.258 16.16H7.59133C7.42277 16.16 7.2611 16.0931 7.14185 15.974C7.02259 15.8548 6.95551 15.6932 6.95533 15.5247V7.58667C6.95533 7.50318 6.97179 7.42051 7.00376 7.34338C7.03573 7.26626 7.08259 7.19619 7.14165 7.13718C7.20072 7.07818 7.27084 7.03139 7.348 6.9995C7.42516 6.96761 7.50784 6.95125 7.59133 6.95133H10.258C10.4264 6.95151 10.5879 7.0185 10.7071 7.13761C10.8262 7.25672 10.8932 7.41822 10.8933 7.58667V15.5247ZM17.0487 11.88C17.0489 11.9633 17.0327 12.0459 17.0008 12.1228C16.9689 12.1998 16.922 12.2697 16.8629 12.3284C16.8038 12.3872 16.7337 12.4336 16.6565 12.465C16.5793 12.4964 16.4967 12.5121 16.4133 12.5113H13.7467C13.6634 12.5119 13.5809 12.4959 13.5038 12.4644C13.4268 12.4329 13.3567 12.3865 13.2977 12.3278C13.2386 12.2692 13.1917 12.1994 13.1598 12.1225C13.1278 12.0457 13.1113 11.9632 13.1113 11.88V7.58667C13.1113 7.41817 13.1783 7.25657 13.2974 7.13742C13.4166 7.01827 13.5782 6.95133 13.7467 6.95133H16.4133C16.5818 6.95151 16.7433 7.0185 16.8624 7.13761C16.9815 7.25672 17.0485 7.41822 17.0487 7.58667V11.88Z" fill="#0052CC"/>
</g>
<defs>
<clipPath id="clip0_1121:428">
<rect width="16" height="16" fill="white" transform="translate(4 4)"/>
</clipPath>
</defs>
</svg>
