<svg width="32" height="32" viewBox="0 0 32 32" fill="none" xmlns="http://www.w3.org/2000/svg">
<rect width="32" height="32" rx="2" fill="#0D1117"/>
<g clip-path="url(#clip0_1121:428)">
<path d="M23.6225 6H8.3775C7.74742 6.00154 7.14359 6.25252 6.69806 6.69806C6.25252 7.14359 6.00154 7.74742 6 8.3775V23.6225C6.00154 24.2526 6.25252 24.8564 6.69806 25.3019C7.14359 25.7475 7.74742 25.9985 8.3775 26H23.6225C24.2526 25.9985 24.8564 25.7475 25.3019 25.3019C25.7475 24.8564 25.9985 24.2526 26 23.6225V8.3775C25.9985 7.74742 25.7475 7.14359 25.3019 6.69806C24.8564 6.25252 24.2526 6.00154 23.6225 6V6ZM14.6167 20.4058C14.6167 20.6165 14.533 20.8185 14.3841 20.9674C14.2351 21.1163 14.0331 21.2 13.8225 21.2H10.4892C10.2785 21.2 10.0764 21.1164 9.92731 20.9674C9.77824 20.8185 9.69439 20.6165 9.69417 20.4058V10.4833C9.69417 10.379 9.71474 10.2756 9.7547 10.1792C9.79466 10.0828 9.85323 9.99523 9.92707 9.92148C10.0009 9.84772 10.0885 9.78924 10.185 9.74938C10.2814 9.70952 10.3848 9.68906 10.4892 9.68917H13.8225C14.0331 9.68939 14.2349 9.77313 14.3838 9.92202C14.5327 10.0709 14.6164 10.2728 14.6167 10.4833V20.4058ZM22.3108 15.85C22.3112 15.9542 22.2908 16.0573 22.251 16.1536C22.2111 16.2498 22.1525 16.3371 22.0787 16.4105C22.0048 16.484 21.9171 16.542 21.8206 16.5812C21.7241 16.6205 21.6208 16.6402 21.5167 16.6392H18.1833C18.0793 16.6398 17.9761 16.6199 17.8798 16.5805C17.7835 16.5412 17.6959 16.4831 17.6221 16.4098C17.5483 16.3365 17.4897 16.2492 17.4497 16.1532C17.4097 16.0571 17.3892 15.9541 17.3892 15.85V10.4833C17.3892 10.2727 17.4728 10.0707 17.6218 9.92177C17.7707 9.77284 17.9727 9.68917 18.1833 9.68917H21.5167C21.7272 9.68939 21.9291 9.77313 22.078 9.92202C22.2269 10.0709 22.3106 10.2728 22.3108 10.4833V15.85Z" fill="#0052CC"/>
</g>
<defs>
<clipPath id="clip0_1121:428">
<rect width="20" height="20" fill="white" transform="translate(6 6)"/>
</clipPath>
</defs>
</svg>
