<svg width="32" height="32" viewBox="0 0 32 32" fill="none" xmlns="http://www.w3.org/2000/svg">
<path d="M28.0676 0H3.93235C1.76057 0 0 1.76058 0 3.93235V28.0676C0 30.2394 1.76057 32 3.93235 32H28.0676C30.2394 32 32 30.2394 32 28.0676V3.93235C32 1.76058 30.2394 0 28.0676 0Z" fill="#3178C6"/>
<path d="M12.6599 18.4465H9V16.1501H19.262V18.4465H15.5304V28.9238H12.6599V18.4465Z" fill="#F0F0F0"/>
<path d="M22.6348 29.0236C21.6977 28.8535 21.2566 28.7451 20.8671 28.5892L20.4102 28.4062V25.6876L20.7152 25.8968C21.6859 26.5626 22.6722 26.8699 23.8548 26.875C25.1353 26.8807 25.8139 26.5577 26.0036 25.8531C26.214 25.0719 25.6776 24.4569 24.2136 23.8008C22.3954 22.986 21.9753 22.7435 21.41 22.1825C20.7627 21.54 20.5129 21.0639 20.3935 20.245C20.099 18.2244 21.3746 16.6146 23.6395 16.1487C24.8813 15.8933 26.8827 15.9753 28.0708 16.3302L28.4476 16.4428V18.9917L27.9121 18.7305C27.1412 18.3544 26.4174 18.1962 25.4695 18.1966C24.5246 18.197 24.0516 18.3333 23.6413 18.7236C22.8973 19.4314 23.3373 20.3505 24.7426 21.0243C25.0634 21.1781 25.7296 21.496 26.223 21.7307C27.6256 22.398 28.3029 22.9749 28.692 23.8337C29.3553 25.298 28.9093 27.257 27.7187 28.1081C26.7612 28.7925 25.95 29.0024 24.1418 29.0334C23.4117 29.0459 22.7335 29.0415 22.6348 29.0236Z" fill="#F0F0F0"/>
</svg>
