<svg width="32" height="32" viewBox="0 0 32 32" fill="none" xmlns="http://www.w3.org/2000/svg">
<path d="M14 1.1547C15.2376 0.440169 16.7624 0.440169 18 1.1547L27.8564 6.8453C29.094 7.55983 29.8564 8.88034 29.8564 10.3094V21.6906C29.8564 23.1197 29.094 24.4402 27.8564 25.1547L18 30.8453C16.7624 31.5598 15.2376 31.5598 14 30.8453L4.14359 25.1547C2.90599 24.4402 2.14359 23.1197 2.14359 21.6906V10.3094C2.14359 8.88034 2.90599 7.55983 4.14359 6.8453L14 1.1547Z" fill="#3178C6"/>
<path d="M8.75 8C8.33467 8 8 8.33467 8 8.75V23.25C8 23.6653 8.33467 24 8.75 24H23.25C23.6653 24 24 23.6653 24 23.25V8.75C24 8.33467 23.6653 8 23.25 8H8.75ZM20.3253 14.5C20.7333 14.5 21.0947 14.5247 21.41 14.574C21.7074 14.6186 21.9993 14.6945 22.2807 14.8007V16.4393C22.1456 16.3459 22.0021 16.2653 21.852 16.1987C21.6972 16.129 21.5374 16.0711 21.374 16.0253C21.0644 15.9391 20.7447 15.8942 20.4233 15.892C20.2233 15.892 20.0413 15.9107 19.8773 15.9493C19.7312 15.9806 19.5909 16.0351 19.462 16.1107C19.3487 16.18 19.262 16.2633 19.2 16.36C19.1376 16.4574 19.1052 16.571 19.1067 16.6867C19.1067 16.8173 19.142 16.9353 19.2107 17.0393C19.28 17.1433 19.3787 17.242 19.506 17.3353C19.6333 17.4287 19.788 17.5193 19.97 17.6087C20.152 17.6987 20.358 17.7913 20.5873 17.886C20.9007 18.0173 21.182 18.1573 21.4313 18.3047C21.6807 18.4527 21.8947 18.62 22.0733 18.8067C22.252 18.9927 22.388 19.2053 22.4827 19.4447C22.5773 19.684 22.6253 19.962 22.6253 20.28C22.6253 20.718 22.542 21.0867 22.3767 21.384C22.2151 21.6772 21.9833 21.9258 21.702 22.1073C21.3988 22.2996 21.0627 22.4343 20.7107 22.5047C20.3333 22.5847 19.9353 22.6247 19.5173 22.6247C19.1059 22.6265 18.6953 22.5899 18.2907 22.5153C17.9406 22.4548 17.6011 22.3441 17.2827 22.1867V20.4333C17.8852 20.9461 18.6495 21.2294 19.4407 21.2333C19.6627 21.2333 19.8567 21.2133 20.022 21.1733C20.188 21.1333 20.326 21.0773 20.4373 21.0067C20.548 20.9347 20.6307 20.8507 20.686 20.7533C20.7472 20.64 20.775 20.5117 20.7662 20.3832C20.7575 20.2547 20.7126 20.1313 20.6367 20.0273C20.5376 19.8963 20.4165 19.7835 20.2787 19.694C20.1078 19.5807 19.9278 19.4817 19.7407 19.398C19.5188 19.2967 19.295 19.1998 19.0693 19.1073C18.4573 18.852 18.0013 18.5393 17.7007 18.1707C17.4007 17.802 17.25 17.356 17.25 16.834C17.25 16.4247 17.332 16.0733 17.496 15.7793C17.66 15.4853 17.8827 15.2433 18.1653 15.0533C18.4643 14.8561 18.7962 14.7141 19.1453 14.634C19.532 14.5428 19.9281 14.4979 20.3253 14.5ZM10.25 14.6253H16.6253V16.0693H14.3373V22.5H12.526V16.0693H10.25V14.6253Z" fill="#F0F0F0"/>
</svg>
