<svg width="24" height="24" viewBox="0 0 24 24" fill="none" xmlns="http://www.w3.org/2000/svg">
<rect width="24" height="24" rx="2" fill="#2D2D2D"/>
<path d="M4.75 4C4.33467 4 4 4.33467 4 4.75V19.25C4 19.6653 4.33467 20 4.75 20H19.25C19.6653 20 20 19.6653 20 19.25V4.75C20 4.33467 19.6653 4 19.25 4H4.75ZM16.3253 10.5C16.7333 10.5 17.0947 10.5247 17.41 10.574C17.7074 10.6186 17.9993 10.6945 18.2807 10.8007V12.4393C18.1456 12.3459 18.0021 12.2653 17.852 12.1987C17.6972 12.129 17.5374 12.0711 17.374 12.0253C17.0644 11.9391 16.7447 11.8942 16.4233 11.892C16.2233 11.892 16.0413 11.9107 15.8773 11.9493C15.7312 11.9806 15.5909 12.0351 15.462 12.1107C15.3487 12.18 15.262 12.2633 15.2 12.36C15.1376 12.4574 15.1052 12.571 15.1067 12.6867C15.1067 12.8173 15.142 12.9353 15.2107 13.0393C15.28 13.1433 15.3787 13.242 15.506 13.3353C15.6333 13.4287 15.788 13.5193 15.97 13.6087C16.152 13.6987 16.358 13.7913 16.5873 13.886C16.9007 14.0173 17.182 14.1573 17.4313 14.3047C17.6807 14.4527 17.8947 14.62 18.0733 14.8067C18.252 14.9927 18.388 15.2053 18.4827 15.4447C18.5773 15.684 18.6253 15.962 18.6253 16.28C18.6253 16.718 18.542 17.0867 18.3767 17.384C18.2151 17.6772 17.9833 17.9258 17.702 18.1073C17.3988 18.2996 17.0627 18.4343 16.7107 18.5047C16.3333 18.5847 15.9353 18.6247 15.5173 18.6247C15.1059 18.6265 14.6953 18.5899 14.2907 18.5153C13.9406 18.4548 13.6011 18.3441 13.2827 18.1867V16.4333C13.8852 16.9461 14.6495 17.2294 15.4407 17.2333C15.6627 17.2333 15.8567 17.2133 16.022 17.1733C16.188 17.1333 16.326 17.0773 16.4373 17.0067C16.548 16.9347 16.6307 16.8507 16.686 16.7533C16.7472 16.64 16.775 16.5117 16.7662 16.3832C16.7575 16.2547 16.7126 16.1313 16.6367 16.0273C16.5376 15.8963 16.4165 15.7835 16.2787 15.694C16.1078 15.5807 15.9278 15.4817 15.7407 15.398C15.5188 15.2967 15.295 15.1998 15.0693 15.1073C14.4573 14.852 14.0013 14.5393 13.7007 14.1707C13.4007 13.802 13.25 13.356 13.25 12.834C13.25 12.4247 13.332 12.0733 13.496 11.7793C13.66 11.4853 13.8827 11.2433 14.1653 11.0533C14.4643 10.8561 14.7962 10.7141 15.1453 10.634C15.532 10.5428 15.9281 10.4979 16.3253 10.5ZM6.25 10.6253H12.6253V12.0693H10.3373V18.5H8.526V12.0693H6.25V10.6253Z" fill="#3178C6"/>
</svg>
