<svg width="32" height="32" viewBox="0 0 32 32" fill="none" xmlns="http://www.w3.org/2000/svg">
<rect width="32" height="32" rx="2" fill="#0D1117"/>
<path d="M6.9375 6C6.41833 6 6 6.41833 6 6.9375V25.0625C6 25.5817 6.41833 26 6.9375 26H25.0625C25.5817 26 26 25.5817 26 25.0625V6.9375C26 6.41833 25.5817 6 25.0625 6H6.9375ZM21.4067 14.125C21.9167 14.125 22.3683 14.1558 22.7625 14.2175C23.1343 14.2732 23.4991 14.3682 23.8508 14.5008V16.5492C23.682 16.4324 23.5026 16.3317 23.315 16.2483C23.1215 16.1613 22.9218 16.0889 22.7175 16.0317C22.3305 15.9238 21.9309 15.8678 21.5292 15.865C21.2792 15.865 21.0517 15.8883 20.8467 15.9367C20.664 15.9757 20.4887 16.0438 20.3275 16.1383C20.1858 16.225 20.0775 16.3292 20 16.45C19.9221 16.5718 19.8815 16.7137 19.8833 16.8583C19.8833 17.0217 19.9275 17.1692 20.0133 17.2992C20.1 17.4292 20.2233 17.5525 20.3825 17.6692C20.5417 17.7858 20.735 17.8992 20.9625 18.0108C21.19 18.1233 21.4475 18.2392 21.7342 18.3575C22.1258 18.5217 22.4775 18.6967 22.7892 18.8808C23.1008 19.0658 23.3683 19.275 23.5917 19.5083C23.815 19.7408 23.985 20.0067 24.1033 20.3058C24.2217 20.605 24.2817 20.9525 24.2817 21.35C24.2817 21.8975 24.1775 22.3583 23.9708 22.73C23.7689 23.0966 23.4791 23.4072 23.1275 23.6342C22.7485 23.8745 22.3284 24.0429 21.8883 24.1308C21.4167 24.2308 20.9192 24.2808 20.3967 24.2808C19.8824 24.2831 19.3691 24.2373 18.8633 24.1442C18.4258 24.0685 18.0014 23.9301 17.6033 23.7333V21.5417C18.3565 22.1826 19.3119 22.5368 20.3008 22.5417C20.5783 22.5417 20.8208 22.5167 21.0275 22.4667C21.235 22.4167 21.4075 22.3467 21.5467 22.2583C21.685 22.1683 21.7883 22.0633 21.8575 21.9417C21.9339 21.8 21.9687 21.6396 21.9578 21.479C21.9469 21.3184 21.8907 21.1642 21.7958 21.0342C21.672 20.8703 21.5206 20.7293 21.3483 20.6175C21.1347 20.4759 20.9098 20.3521 20.6758 20.2475C20.3985 20.1209 20.1188 19.9997 19.8367 19.8842C19.0717 19.565 18.5017 19.1742 18.1258 18.7133C17.7508 18.2525 17.5625 17.695 17.5625 17.0425C17.5625 16.5308 17.665 16.0917 17.87 15.7242C18.075 15.3567 18.3533 15.0542 18.7067 14.8167C19.0804 14.5701 19.4953 14.3926 19.9317 14.2925C20.415 14.1785 20.9101 14.1223 21.4067 14.125ZM8.8125 14.2817H16.7817V16.0867H13.9217V24.125H11.6575V16.0867H8.8125V14.2817Z" fill="#3178C6"/>
</svg>
