<svg width="32" height="32" viewBox="0 0 32 32" fill="none" xmlns="http://www.w3.org/2000/svg">
<rect width="32" height="32" rx="4" fill="#007ACC"/>
<g clip-path="url(#clip0_1190:249)">
<path d="M27.15 6.58696L22.21 4.20996C21.9308 4.07552 21.6167 4.03121 21.3112 4.08317C21.0058 4.13512 20.724 4.28078 20.505 4.49996L11.045 13.13L6.92498 10.002C6.7391 9.86098 6.50974 9.78949 6.27668 9.7999C6.04361 9.81031 5.82154 9.90196 5.64898 10.059L4.32698 11.261C4.22396 11.3546 4.14163 11.4687 4.08526 11.596C4.02889 11.7233 3.99973 11.861 3.99963 12.0002C3.99954 12.1395 4.02852 12.2772 4.08471 12.4046C4.14091 12.5319 4.22308 12.6462 4.32598 12.74L7.89898 16L4.32598 19.26C4.22308 19.3538 4.14091 19.468 4.08471 19.5954C4.02852 19.7227 3.99954 19.8605 3.99963 19.9997C3.99973 20.1389 4.02889 20.2766 4.08526 20.4039C4.14163 20.5312 4.22396 20.6453 4.32698 20.739L5.64998 21.94C5.82254 22.097 6.04461 22.1886 6.27768 22.199C6.51074 22.2094 6.7401 22.1379 6.92598 21.997L11.046 18.869L20.506 27.499C20.7248 27.7182 21.0064 27.8639 21.3117 27.9159C21.617 27.9678 21.931 27.9235 22.21 27.789L27.152 25.412C27.4062 25.2892 27.6207 25.0973 27.7707 24.8581C27.9207 24.6189 28.0002 24.3423 28 24.06V7.93896C28 7.65643 27.9202 7.37963 27.7699 7.14044C27.6195 6.90125 27.4046 6.70939 27.15 6.58696ZM22.004 21.448L14.826 16L22.004 10.552V21.448V21.448Z" fill="#F0F0F0"/>
</g>
<defs>
<clipPath id="clip0_1190:249">
<rect width="24" height="24" fill="white" transform="translate(4 4)"/>
</clipPath>
</defs>
</svg>
