<svg width="32" height="32" viewBox="0 0 32 32" fill="none" xmlns="http://www.w3.org/2000/svg">
<rect width="32" height="32" rx="2" fill="#0D1117"/>
<g clip-path="url(#clip0_1121:426)">
<path d="M25.2917 8.15588L21.175 6.17505C20.9424 6.06301 20.6807 6.02609 20.4261 6.06939C20.1715 6.11268 19.9367 6.23406 19.7542 6.41672L11.8709 13.6084L8.43754 11.0017C8.28264 10.8842 8.09151 10.8247 7.89729 10.8333C7.70307 10.842 7.51801 10.9184 7.37421 11.0492L6.27254 12.0509C6.18669 12.1289 6.11809 12.224 6.07111 12.3301C6.02414 12.4362 5.99983 12.5509 5.99976 12.6669C5.99968 12.783 6.02383 12.8977 6.07066 13.0039C6.11749 13.11 6.18597 13.2052 6.27171 13.2834L9.24921 16.0001L6.27171 18.7167C6.18597 18.7949 6.11749 18.8901 6.07066 18.9962C6.02383 19.1024 5.99968 19.2171 5.99976 19.3332C5.99983 19.4492 6.02414 19.5639 6.07111 19.67C6.11809 19.7761 6.18669 19.8712 6.27254 19.9492L7.37504 20.95C7.51885 21.0809 7.70391 21.1573 7.89813 21.1659C8.09235 21.1746 8.28348 21.115 8.43838 20.9975L11.8717 18.3909L19.755 25.5825C19.9374 25.7652 20.172 25.8867 20.4265 25.93C20.6809 25.9733 20.9425 25.9363 21.175 25.8242L25.2934 23.8434C25.5053 23.7411 25.684 23.5811 25.809 23.3818C25.934 23.1825 26.0002 22.952 26 22.7167V9.28255C26.0001 9.0471 25.9336 8.81644 25.8083 8.61711C25.683 8.41779 25.5039 8.25791 25.2917 8.15588ZM21.0034 20.54L15.0217 16.0001L21.0034 11.46V20.54V20.54Z" fill="#007ACC"/>
</g>
<defs>
<clipPath id="clip0_1121:426">
<rect width="20" height="20" fill="white" transform="translate(6 6)"/>
</clipPath>
</defs>
</svg>
