<svg width="32" height="32" viewBox="0 0 32 32" fill="none" xmlns="http://www.w3.org/2000/svg">
<path d="M14 1.1547C15.2376 0.440169 16.7624 0.440169 18 1.1547L27.8564 6.8453C29.094 7.55983 29.8564 8.88034 29.8564 10.3094V21.6906C29.8564 23.1197 29.094 24.4402 27.8564 25.1547L18 30.8453C16.7624 31.5598 15.2376 31.5598 14 30.8453L4.14359 25.1547C2.90599 24.4402 2.14359 23.1197 2.14359 21.6906V10.3094C2.14359 8.88034 2.90599 7.55983 4.14359 6.8453L14 1.1547Z" fill="#007ACC"/>
<g clip-path="url(#clip0_1178:265)">
<path d="M23.4333 9.72468L20.14 8.14002C19.9539 8.05039 19.7445 8.02085 19.5408 8.05548C19.3372 8.09012 19.1493 8.18723 19.0033 8.33335L12.6967 14.0867L9.94999 12.0013C9.82607 11.9074 9.67316 11.8597 9.51779 11.8666C9.36241 11.8736 9.21436 11.9347 9.09932 12.0393L8.21799 12.8407C8.14931 12.9031 8.09442 12.9792 8.05684 13.0641C8.01926 13.1489 7.99982 13.2407 7.99976 13.3335C7.99969 13.4264 8.01901 13.5182 8.05648 13.6031C8.09394 13.688 8.14872 13.7642 8.21732 13.8267L10.5993 16L8.21732 18.1733C8.14872 18.2359 8.09394 18.312 8.05648 18.397C8.01901 18.4819 7.99969 18.5737 7.99976 18.6665C7.99982 18.7593 8.01926 18.8511 8.05684 18.936C8.09442 19.0208 8.14931 19.0969 8.21799 19.1593L9.09999 19.96C9.21503 20.0647 9.36308 20.1258 9.51845 20.1327C9.67383 20.1397 9.82673 20.092 9.95065 19.998L12.6973 17.9127L19.004 23.666C19.1498 23.8122 19.3376 23.9093 19.5411 23.9439C19.7447 23.9786 19.954 23.949 20.14 23.8593L23.4347 22.2747C23.6042 22.1929 23.7471 22.0649 23.8471 21.9054C23.9471 21.746 24.0001 21.5616 24 21.3733V10.626C24 10.4377 23.9468 10.2531 23.8466 10.0937C23.7463 9.93421 23.6031 9.8063 23.4333 9.72468ZM20.0027 19.632L15.2173 16L20.0027 12.368V19.632V19.632Z" fill="#F0F0F0"/>
</g>
<defs>
<clipPath id="clip0_1178:265">
<rect width="16" height="16" fill="white" transform="translate(8 8)"/>
</clipPath>
</defs>
</svg>
