<svg width="24" height="24" viewBox="0 0 24 24" fill="none" xmlns="http://www.w3.org/2000/svg">
<rect width="24" height="24" rx="2" fill="#2D2D2D"/>
<g clip-path="url(#clip0_1121:426)">
<path d="M19.4333 5.72468L16.14 4.14002C15.9539 4.05039 15.7445 4.02085 15.5408 4.05548C15.3372 4.09012 15.1493 4.18723 15.0033 4.33335L8.69665 10.0867L5.94999 8.00135C5.82607 7.90736 5.67316 7.8597 5.51779 7.86664C5.36241 7.87358 5.21436 7.93468 5.09932 8.03935L4.21799 8.84068C4.14931 8.90312 4.09442 8.9792 4.05684 9.06407C4.01926 9.14894 3.99982 9.24072 3.99976 9.33353C3.99969 9.42635 4.01901 9.51816 4.05648 9.60308C4.09394 9.688 4.14872 9.76416 4.21732 9.82668L6.59932 12L4.21732 14.1733C4.14872 14.2359 4.09394 14.312 4.05648 14.397C4.01901 14.4819 3.99969 14.5737 3.99976 14.6665C3.99982 14.7593 4.01926 14.8511 4.05684 14.936C4.09442 15.0208 4.14931 15.0969 4.21799 15.1593L5.09999 15.96C5.21503 16.0647 5.36308 16.1258 5.51845 16.1327C5.67383 16.1397 5.82673 16.092 5.95065 15.998L8.69732 13.9127L15.004 19.666C15.1498 19.8122 15.3376 19.9093 15.5411 19.9439C15.7447 19.9786 15.954 19.949 16.14 19.8593L19.4347 18.2747C19.6042 18.1929 19.7471 18.0649 19.8471 17.9054C19.9471 17.746 20.0001 17.5616 20 17.3733V6.62602C20 6.43766 19.9468 6.25313 19.8466 6.09367C19.7463 5.93421 19.6031 5.8063 19.4333 5.72468ZM16.0027 15.632L11.2173 12L16.0027 8.36802V15.632V15.632Z" fill="#007ACC"/>
</g>
<defs>
<clipPath id="clip0_1121:426">
<rect width="16" height="16" fill="white" transform="translate(4 4)"/>
</clipPath>
</defs>
</svg>
