<svg width="32" height="32" viewBox="0 0 32 32" fill="none" xmlns="http://www.w3.org/2000/svg">
<rect width="32" height="32" rx="2" fill="#0D1117"/>
<path d="M24.5128 7.25H9.57793C9.03172 7.25 8.53233 7.54538 8.26703 7.99623C7.98613 8.46262 7.97052 9.03783 8.22021 9.50423L9.71839 12.3337H7.00295C6.65962 12.3337 6.33189 12.5047 6.14462 12.8001C5.95735 13.0954 5.95735 13.4686 6.11341 13.7795L10.92 22.8275C11.0917 23.1539 11.435 23.3561 11.794 23.3561C12.1529 23.3561 12.4962 23.1539 12.6679 22.8275L13.9788 20.3711L15.6174 23.4649C15.8827 23.9624 16.4133 24.2733 16.9752 24.2733C17.537 24.2733 18.0676 23.9624 18.3329 23.4649L25.8237 9.42649C26.0734 8.9601 26.0578 8.40043 25.7769 7.96513C25.5272 7.51429 25.0434 7.25 24.5128 7.25ZM17.8335 13.1732L14.5562 19.2984C14.447 19.5161 14.2285 19.6405 13.9788 19.6405C13.7291 19.6405 13.5106 19.5005 13.4014 19.2984L10.171 13.2354C10.0773 13.0488 10.0773 12.8312 10.1866 12.6446C10.2958 12.458 10.4987 12.3492 10.7016 12.3492H17.3185C17.5214 12.3492 17.7086 12.4425 17.8023 12.6135C17.9271 12.7845 17.9271 13.0022 17.8335 13.1732Z" fill="#F71963"/>
</svg>
