<svg width="24" height="24" viewBox="0 0 24 24" fill="none" xmlns="http://www.w3.org/2000/svg">
<rect width="24" height="24" rx="2" fill="#2D2D2D"/>
<path d="M18.8103 5H6.86235C6.42538 5 6.02587 5.2363 5.81363 5.59698C5.5889 5.97009 5.57642 6.43027 5.77617 6.80338L6.97471 9.06693H4.80236C4.52769 9.06693 4.26551 9.20374 4.1157 9.44005C3.96588 9.67635 3.96588 9.97484 4.09073 10.2236L7.93604 17.462C8.07337 17.7232 8.34804 17.8848 8.63518 17.8848C8.92233 17.8848 9.197 17.7232 9.33433 17.462L10.3831 15.4969L11.694 17.9719C11.9062 18.3699 12.3307 18.6186 12.7801 18.6186C13.2296 18.6186 13.6541 18.3699 13.8663 17.9719L19.859 6.74119C20.0588 6.36808 20.0463 5.92035 19.8215 5.57211C19.6218 5.21143 19.2348 5 18.8103 5ZM13.4668 9.73854L10.845 14.6388C10.7576 14.8129 10.5828 14.9124 10.3831 14.9124C10.1833 14.9124 10.0085 14.8004 9.92112 14.6388L7.33677 9.78829C7.26186 9.63904 7.26186 9.46492 7.34925 9.31568C7.43665 9.16643 7.59895 9.07937 7.76125 9.07937H13.0548C13.2171 9.07937 13.3669 9.15399 13.4418 9.2908C13.5417 9.42761 13.5417 9.60173 13.4668 9.73854Z" fill="#F71963"/>
</svg>
