<svg width="32" height="32" viewBox="0 0 32 32" fill="none" xmlns="http://www.w3.org/2000/svg">
<rect width="32" height="32" rx="2" fill="#0D1117"/>
<path d="M16 6C10.4792 6 6 10.4792 6 16C6 21.5208 10.4792 26 16 26C21.5208 26 26 21.5208 26 16C26 10.4792 21.5208 6 16 6ZM16.64 9.42083C16.7925 9.42083 16.9425 9.465 17.0775 9.55167C17.1817 9.62083 17.3167 9.70583 17.7067 10.5133C17.965 10.44 18.0967 10.4783 18.1658 10.4975C18.3358 10.5442 18.4708 10.6558 18.5517 10.81C18.9492 11.5742 19.0033 12.9375 18.83 13.8142C18.6292 14.8408 18.2008 15.505 17.8875 15.9608C18.1575 16.235 18.5358 16.71 18.8183 17.4817C19.05 18.1267 19.0767 18.7133 19.0458 19.1608C19.2186 19.08 19.3861 18.9884 19.5475 18.8867C20.0417 18.5817 20.7867 18.1225 21.675 18.1108C22.27 18.1033 22.7325 18.4817 22.8025 19.03C22.8364 19.2833 22.7744 19.5401 22.6287 19.7501C22.483 19.9601 22.2641 20.108 22.015 20.165C21.4742 20.2967 21.2233 20.3967 20.4975 20.8675C19.4708 21.5317 18.3817 21.9025 17.9875 22.0258C17.8171 22.1658 17.6161 22.2638 17.4008 22.3117C16.7867 22.4625 14.6792 22.5742 14.5125 22.5742H14.4742C13.8217 22.5742 13.4625 22.3733 13.2658 22.165C12.7175 22.4392 12.0075 22.3233 11.4975 22.0533C11.3241 21.9668 11.1833 21.8264 11.0961 21.6532C11.009 21.4801 10.9803 21.2834 11.0142 21.0925C10.9664 21.0427 10.9236 20.9883 10.8867 20.93C10.7517 20.7217 10.4467 20.15 10.5083 19.3083C10.555 18.7058 10.9717 18.1692 11.2417 17.8833C11.2222 17.2398 11.3381 16.5993 11.5817 16.0033C11.8367 15.3975 12.3192 14.88 12.6817 14.5558C12.415 14.1083 12.145 13.4167 12.4075 12.7142C12.5967 12.2125 12.7508 11.9342 13.0908 11.8142H13.0867C13.2525 11.7525 13.4108 11.6867 13.4917 11.5983C13.9876 11.0565 14.6737 10.7272 15.4067 10.6792C15.4375 10.6017 15.4725 10.525 15.5108 10.4433C15.7692 9.895 16.0433 9.58583 16.3642 9.47C16.4516 9.43718 16.5441 9.42024 16.6375 9.42L16.64 9.42083ZM16.645 10.0042C16.2225 10.0175 15.8108 11.27 15.8108 11.27C15.8108 11.27 14.7525 11.1 13.9225 11.9958C13.7567 12.1775 13.5325 12.2742 13.3008 12.3625C13.235 12.3858 13.1542 12.3817 12.9533 12.9225C12.6442 13.7483 13.4742 14.6675 13.4742 14.6675C13.4742 14.6675 12.4858 15.3667 12.1192 16.235C11.7142 17.1883 11.8375 18.1192 11.8375 18.1192C11.8375 18.1192 11.135 18.7292 11.0883 19.3583C11.0458 19.9108 11.2042 20.3583 11.3742 20.6208C11.5633 20.9067 11.7992 20.7675 11.7992 20.7675C11.7992 20.7675 11.3317 21.3117 11.7683 21.5433C12.1658 21.7517 12.8375 21.8717 13.1933 21.5125C13.4517 21.2542 13.5025 20.6783 13.5983 20.4433C13.6217 20.3892 13.6983 20.5358 13.7725 20.6092C13.8533 20.6867 13.9925 20.7717 13.9925 20.7717C13.9925 20.7717 13.3633 21.0417 13.6217 21.66C13.7067 21.865 14.0117 21.9958 14.51 21.9917C14.695 21.9875 16.73 21.8758 17.2708 21.745C17.5833 21.6717 17.6917 21.5092 17.6917 21.5092C17.6917 21.5092 18.9967 21.15 20.19 20.3783C20.9542 19.88 21.2675 19.745 21.885 19.5983C22.395 19.475 22.36 18.6833 21.6842 18.695C20.985 18.7025 20.3717 19.0617 19.8542 19.3825C18.885 19.9808 18.4025 19.9425 18.4025 19.9425L18.3875 19.9158C18.3217 19.8075 18.6967 18.8383 18.2758 17.6842C17.82 16.4217 17.0983 16.1167 17.1558 16.02C17.4033 15.6033 18.0208 14.9392 18.2675 13.7033C18.4142 12.9542 18.3758 11.7225 18.0433 11.0775C17.9817 10.9575 17.4333 11.2783 17.4333 11.2783C17.4333 11.2783 16.92 10.1358 16.7767 10.0425C16.738 10.0165 16.6924 10.0032 16.6458 10.0042H16.645Z" fill="#2C8EBB"/>
</svg>
