<svg width="24" height="24" viewBox="0 0 24 24" fill="none" xmlns="http://www.w3.org/2000/svg">
<rect width="24" height="24" rx="2" fill="#2D2D2D"/>
<path d="M12 4C7.58333 4 4 7.58333 4 12C4 16.4167 7.58333 20 12 20C16.4167 20 20 16.4167 20 12C20 7.58333 16.4167 4 12 4ZM12.512 6.73667C12.634 6.73667 12.754 6.772 12.862 6.84133C12.9453 6.89667 13.0533 6.96467 13.3653 7.61067C13.572 7.552 13.6773 7.58267 13.7327 7.598C13.8687 7.63533 13.9767 7.72467 14.0413 7.848C14.3593 8.45933 14.4027 9.55 14.264 10.2513C14.1033 11.0727 13.7607 11.604 13.51 11.9687C13.726 12.188 14.0287 12.568 14.2547 13.1853C14.44 13.7013 14.4613 14.1707 14.4367 14.5287C14.5749 14.464 14.7089 14.3907 14.838 14.3093C15.2333 14.0653 15.8293 13.698 16.54 13.6887C17.016 13.6827 17.386 13.9853 17.442 14.424C17.4691 14.6266 17.4195 14.8321 17.3029 15.0001C17.1864 15.1681 17.0113 15.2864 16.812 15.332C16.3793 15.4373 16.1787 15.5173 15.598 15.894C14.7767 16.4253 13.9053 16.722 13.59 16.8207C13.4537 16.9327 13.2929 17.011 13.1207 17.0493C12.6293 17.17 10.9433 17.2593 10.81 17.2593H10.7793C10.2573 17.2593 9.97 17.0987 9.81267 16.932C9.374 17.1513 8.806 17.0587 8.398 16.8427C8.25924 16.7734 8.14661 16.6611 8.07692 16.5226C8.00723 16.3841 7.98422 16.2267 8.01133 16.074C7.97309 16.0342 7.93892 15.9906 7.90933 15.944C7.80133 15.7773 7.55733 15.32 7.60667 14.6467C7.644 14.1647 7.97733 13.7353 8.19333 13.5067C8.17779 12.9918 8.27045 12.4795 8.46533 12.0027C8.66933 11.518 9.05533 11.104 9.34533 10.8447C9.132 10.4867 8.916 9.93333 9.126 9.37133C9.27733 8.97 9.40067 8.74733 9.67267 8.65133H9.66933C9.802 8.602 9.92867 8.54933 9.99333 8.47867C10.3901 8.04518 10.939 7.78173 11.5253 7.74333C11.55 7.68133 11.578 7.62 11.6087 7.55467C11.8153 7.116 12.0347 6.86867 12.2913 6.776C12.3613 6.74974 12.4353 6.7362 12.51 6.736L12.512 6.73667ZM12.516 7.20333C12.178 7.214 11.8487 8.216 11.8487 8.216C11.8487 8.216 11.002 8.08 10.338 8.79667C10.2053 8.942 10.026 9.01933 9.84067 9.09C9.788 9.10867 9.72333 9.10533 9.56267 9.538C9.31533 10.1987 9.97933 10.934 9.97933 10.934C9.97933 10.934 9.18867 11.4933 8.89533 12.188C8.57133 12.9507 8.67 13.6953 8.67 13.6953C8.67 13.6953 8.108 14.1833 8.07067 14.6867C8.03667 15.1287 8.16333 15.4867 8.29933 15.6967C8.45067 15.9253 8.63933 15.814 8.63933 15.814C8.63933 15.814 8.26533 16.2493 8.61467 16.4347C8.93267 16.6013 9.47 16.6973 9.75467 16.41C9.96133 16.2033 10.002 15.7427 10.0787 15.5547C10.0973 15.5113 10.1587 15.6287 10.218 15.6873C10.2827 15.7493 10.394 15.8173 10.394 15.8173C10.394 15.8173 9.89067 16.0333 10.0973 16.528C10.1653 16.692 10.4093 16.7967 10.808 16.7933C10.956 16.79 12.584 16.7007 13.0167 16.596C13.2667 16.5373 13.3533 16.4073 13.3533 16.4073C13.3533 16.4073 14.3973 16.12 15.352 15.5027C15.9633 15.104 16.214 14.996 16.708 14.8787C17.116 14.78 17.088 14.1467 16.5473 14.156C15.988 14.162 15.4973 14.4493 15.0833 14.706C14.308 15.1847 13.922 15.154 13.922 15.154L13.91 15.1327C13.8573 15.046 14.1573 14.2707 13.8207 13.3473C13.456 12.3373 12.8787 12.0933 12.9247 12.016C13.1227 11.6827 13.6167 11.1513 13.814 10.1627C13.9313 9.56333 13.9007 8.578 13.6347 8.062C13.5853 7.966 13.1467 8.22267 13.1467 8.22267C13.1467 8.22267 12.736 7.30867 12.6213 7.234C12.5904 7.21324 12.5539 7.20253 12.5167 7.20333H12.516Z" fill="#2C8EBB"/>
</svg>
