<svg width="32" height="32" viewBox="0 0 32 32" fill="none" xmlns="http://www.w3.org/2000/svg">
<path d="M14 1.1547C15.2376 0.440169 16.7624 0.440169 18 1.1547L27.8564 6.8453C29.094 7.55983 29.8564 8.88034 29.8564 10.3094V21.6906C29.8564 23.1197 29.094 24.4402 27.8564 25.1547L18 30.8453C16.7624 31.5598 15.2376 31.5598 14 30.8453L4.14359 25.1547C2.90599 24.4402 2.14359 23.1197 2.14359 21.6906V10.3094C2.14359 8.88034 2.90599 7.55983 4.14359 6.8453L14 1.1547Z" fill="#2C8EBB"/>
<path d="M16 8C11.5833 8 8 11.5833 8 16C8 20.4167 11.5833 24 16 24C20.4167 24 24 20.4167 24 16C24 11.5833 20.4167 8 16 8ZM16.512 10.7367C16.634 10.7367 16.754 10.772 16.862 10.8413C16.9453 10.8967 17.0533 10.9647 17.3653 11.6107C17.572 11.552 17.6773 11.5827 17.7327 11.598C17.8687 11.6353 17.9767 11.7247 18.0413 11.848C18.3593 12.4593 18.4027 13.55 18.264 14.2513C18.1033 15.0727 17.7607 15.604 17.51 15.9687C17.726 16.188 18.0287 16.568 18.2547 17.1853C18.44 17.7013 18.4613 18.1707 18.4367 18.5287C18.5749 18.464 18.7089 18.3907 18.838 18.3093C19.2333 18.0653 19.8293 17.698 20.54 17.6887C21.016 17.6827 21.386 17.9853 21.442 18.424C21.4691 18.6266 21.4195 18.8321 21.3029 19.0001C21.1864 19.1681 21.0113 19.2864 20.812 19.332C20.3793 19.4373 20.1787 19.5173 19.598 19.894C18.7767 20.4253 17.9053 20.722 17.59 20.8207C17.4537 20.9327 17.2929 21.011 17.1207 21.0493C16.6293 21.17 14.9433 21.2593 14.81 21.2593H14.7793C14.2573 21.2593 13.97 21.0987 13.8127 20.932C13.374 21.1513 12.806 21.0587 12.398 20.8427C12.2592 20.7734 12.1466 20.6611 12.0769 20.5226C12.0072 20.3841 11.9842 20.2267 12.0113 20.074C11.9731 20.0342 11.9389 19.9906 11.9093 19.944C11.8013 19.7773 11.5573 19.32 11.6067 18.6467C11.644 18.1647 11.9773 17.7353 12.1933 17.5067C12.1778 16.9918 12.2704 16.4795 12.4653 16.0027C12.6693 15.518 13.0553 15.104 13.3453 14.8447C13.132 14.4867 12.916 13.9333 13.126 13.3713C13.2773 12.97 13.4007 12.7473 13.6727 12.6513H13.6693C13.802 12.602 13.9287 12.5493 13.9933 12.4787C14.3901 12.0452 14.939 11.7817 15.5253 11.7433C15.55 11.6813 15.578 11.62 15.6087 11.5547C15.8153 11.116 16.0347 10.8687 16.2913 10.776C16.3613 10.7497 16.4353 10.7362 16.51 10.736L16.512 10.7367ZM16.516 11.2033C16.178 11.214 15.8487 12.216 15.8487 12.216C15.8487 12.216 15.002 12.08 14.338 12.7967C14.2053 12.942 14.026 13.0193 13.8407 13.09C13.788 13.1087 13.7233 13.1053 13.5627 13.538C13.3153 14.1987 13.9793 14.934 13.9793 14.934C13.9793 14.934 13.1887 15.4933 12.8953 16.188C12.5713 16.9507 12.67 17.6953 12.67 17.6953C12.67 17.6953 12.108 18.1833 12.0707 18.6867C12.0367 19.1287 12.1633 19.4867 12.2993 19.6967C12.4507 19.9253 12.6393 19.814 12.6393 19.814C12.6393 19.814 12.2653 20.2493 12.6147 20.4347C12.9327 20.6013 13.47 20.6973 13.7547 20.41C13.9613 20.2033 14.002 19.7427 14.0787 19.5547C14.0973 19.5113 14.1587 19.6287 14.218 19.6873C14.2827 19.7493 14.394 19.8173 14.394 19.8173C14.394 19.8173 13.8907 20.0333 14.0973 20.528C14.1653 20.692 14.4093 20.7967 14.808 20.7933C14.956 20.79 16.584 20.7007 17.0167 20.596C17.2667 20.5373 17.3533 20.4073 17.3533 20.4073C17.3533 20.4073 18.3973 20.12 19.352 19.5027C19.9633 19.104 20.214 18.996 20.708 18.8787C21.116 18.78 21.088 18.1467 20.5473 18.156C19.988 18.162 19.4973 18.4493 19.0833 18.706C18.308 19.1847 17.922 19.154 17.922 19.154L17.91 19.1327C17.8573 19.046 18.1573 18.2707 17.8207 17.3473C17.456 16.3373 16.8787 16.0933 16.9247 16.016C17.1227 15.6827 17.6167 15.1513 17.814 14.1627C17.9313 13.5633 17.9007 12.578 17.6347 12.062C17.5853 11.966 17.1467 12.2227 17.1467 12.2227C17.1467 12.2227 16.736 11.3087 16.6213 11.234C16.5904 11.2132 16.5539 11.2025 16.5167 11.2033H16.516Z" fill="#F0F0F0"/>
</svg>
